<?xml version="1.0" encoding="UTF-8" standalone="no"?>
<!DOCTYPE svg PUBLIC "-//W3C//DTD SVG 1.1//EN"
 "http://www.w3.org/Graphics/SVG/1.1/DTD/svg11.dtd">
<!-- Generated by graphviz version 2.46.1 (20210213.1702)
 -->
<!-- Title: stones Pages: 1 -->
<svg width="830pt" height="836pt"
 viewBox="0.00 0.00 829.50 836.00" xmlns="http://www.w3.org/2000/svg" xmlns:xlink="http://www.w3.org/1999/xlink">
<g id="graph0" class="graph" transform="scale(1 1) rotate(0) translate(4 832)">
<title>stones</title>
<polygon fill="white" stroke="transparent" points="-4,4 -4,-832 825.5,-832 825.5,4 -4,4"/>
<!-- Codeforces -->
<g id="node1" class="node">
<title>Codeforces</title>
<g id="a_node1"><a xlink:href="https://codeforces.com/problemset" xlink:title="Codeforces(14)" target="_parent">
<polygon fill="orangered" stroke="lightgrey" points="495,-828 375,-828 375,-792 495,-792 495,-828"/>
<text text-anchor="middle" x="435" y="-806.3" font-family="Microsoft YaHei" font-size="14.00" fill="white">Codeforces(14)</text>
</a>
</g>
</g>
<!-- 基础题 -->
<g id="node2" class="node">
<title>基础题</title>
<polygon fill="lightslategray" stroke="lightgrey" points="197,-756 123,-756 123,-720 197,-720 197,-756"/>
<text text-anchor="middle" x="160" y="-734.9" font-family="Microsoft YaHei" font-size="12.00" fill="white">基础题(10)</text>
</g>
<!-- Codeforces&#45;&gt;基础题 -->
<g id="edge1" class="edge">
<title>Codeforces&#45;&gt;基础题</title>
<path fill="none" stroke="lightgrey" d="M374.99,-793.72C324.49,-780.87 253.28,-762.74 206.88,-750.93"/>
<polygon fill="lightgrey" stroke="lightgrey" points="207.64,-747.52 197.09,-748.44 205.92,-754.3 207.64,-747.52"/>
</g>
<!-- Maths -->
<g id="node13" class="node">
<title>Maths</title>
<polygon fill="lightslategray" stroke="lightgrey" points="317.5,-756 250.5,-756 250.5,-720 317.5,-720 317.5,-756"/>
<text text-anchor="middle" x="284" y="-734.9" font-family="Microsoft YaHei" font-size="12.00" fill="white">Maths(1)</text>
</g>
<!-- Codeforces&#45;&gt;Maths -->
<g id="edge12" class="edge">
<title>Codeforces&#45;&gt;Maths</title>
<path fill="none" stroke="lightgrey" d="M398.06,-791.88C376.59,-781.92 349.44,-769.34 327.01,-758.94"/>
<polygon fill="lightgrey" stroke="lightgrey" points="328.27,-755.66 317.72,-754.63 325.32,-762.01 328.27,-755.66"/>
</g>
<!-- 数论&#45;扩展欧几里得算法 -->
<g id="node15" class="node">
<title>数论&#45;扩展欧几里得算法</title>
<polygon fill="lightslategray" stroke="lightgrey" points="513,-756 357,-756 357,-720 513,-720 513,-756"/>
<text text-anchor="middle" x="435" y="-734.9" font-family="Microsoft YaHei" font-size="12.00" fill="white">数论&#45;扩展欧几里得算法(1)</text>
</g>
<!-- Codeforces&#45;&gt;数论&#45;扩展欧几里得算法 -->
<g id="edge14" class="edge">
<title>Codeforces&#45;&gt;数论&#45;扩展欧几里得算法</title>
<path fill="none" stroke="lightgrey" d="M435,-791.7C435,-783.98 435,-774.71 435,-766.11"/>
<polygon fill="lightgrey" stroke="lightgrey" points="438.5,-766.1 435,-756.1 431.5,-766.1 438.5,-766.1"/>
</g>
<!-- 动态规划&#45;树形DP -->
<g id="node17" class="node">
<title>动态规划&#45;树形DP</title>
<polygon fill="lightslategray" stroke="lightgrey" points="656.5,-756 531.5,-756 531.5,-720 656.5,-720 656.5,-756"/>
<text text-anchor="middle" x="594" y="-734.9" font-family="Microsoft YaHei" font-size="12.00" fill="white">动态规划&#45;树形DP(1)</text>
</g>
<!-- Codeforces&#45;&gt;动态规划&#45;树形DP -->
<g id="edge16" class="edge">
<title>Codeforces&#45;&gt;动态规划&#45;树形DP</title>
<path fill="none" stroke="lightgrey" d="M473.9,-791.88C495.63,-782.31 522.9,-770.3 545.96,-760.15"/>
<polygon fill="lightgrey" stroke="lightgrey" points="547.49,-763.3 555.23,-756.07 544.67,-756.89 547.49,-763.3"/>
</g>
<!-- 模拟题 -->
<g id="node19" class="node">
<title>模拟题</title>
<polygon fill="lightslategray" stroke="lightgrey" points="759.5,-756 692.5,-756 692.5,-720 759.5,-720 759.5,-756"/>
<text text-anchor="middle" x="726" y="-734.9" font-family="Microsoft YaHei" font-size="12.00" fill="white">模拟题(1)</text>
</g>
<!-- Codeforces&#45;&gt;模拟题 -->
<g id="edge18" class="edge">
<title>Codeforces&#45;&gt;模拟题</title>
<path fill="none" stroke="lightgrey" d="M495.03,-796.1C541.77,-785.84 608.2,-770.81 666,-756 671.38,-754.62 677,-753.12 682.57,-751.59"/>
<polygon fill="lightgrey" stroke="lightgrey" points="683.75,-754.89 692.44,-748.83 681.87,-748.15 683.75,-754.89"/>
</g>
<!-- 1A -->
<g id="node3" class="node">
<title>1A</title>
<g id="a_node3"><a xlink:href="https://codeforces.com/problemset/problem/1/A" xlink:title="1A. Theatre Square" target="_parent">
<polygon fill="lawngreen" stroke="greenyellow" points="166.5,-684 41.5,-684 41.5,-648 166.5,-648 166.5,-684"/>
<text text-anchor="middle" x="104" y="-662.9" font-family="Microsoft YaHei" font-size="12.00">1A. Theatre Square</text>
</a>
</g>
</g>
<!-- 基础题&#45;&gt;1A -->
<g id="edge2" class="edge">
<title>基础题&#45;&gt;1A</title>
<path fill="none" stroke="lightgrey" d="M146.16,-719.7C139.51,-711.39 131.42,-701.28 124.11,-692.14"/>
<polygon fill="lightgrey" stroke="lightgrey" points="126.66,-689.73 117.68,-684.1 121.2,-694.1 126.66,-689.73"/>
</g>
<!-- 4A -->
<g id="node4" class="node">
<title>4A</title>
<g id="a_node4"><a xlink:href="https://codeforces.com/problemset/problem/4/A" xlink:title="4A. Watermelon" target="_parent">
<polygon fill="lawngreen" stroke="greenyellow" points="158.5,-612 49.5,-612 49.5,-576 158.5,-576 158.5,-612"/>
<text text-anchor="middle" x="104" y="-590.9" font-family="Microsoft YaHei" font-size="12.00">4A. Watermelon</text>
</a>
</g>
</g>
<!-- 1A&#45;&gt;4A -->
<g id="edge3" class="edge">
<title>1A&#45;&gt;4A</title>
<path fill="none" stroke="lightgrey" d="M104,-647.7C104,-639.98 104,-630.71 104,-622.11"/>
<polygon fill="lightgrey" stroke="lightgrey" points="107.5,-622.1 104,-612.1 100.5,-622.1 107.5,-622.1"/>
</g>
<!-- 5A -->
<g id="node5" class="node">
<title>5A</title>
<g id="a_node5"><a xlink:href="https://codeforces.com/problemset/problem/5/A" xlink:title="5A. Chat Servers Outgoing Traffic" target="_parent">
<polygon fill="lawngreen" stroke="greenyellow" points="208,-540 0,-540 0,-504 208,-504 208,-540"/>
<text text-anchor="middle" x="104" y="-518.9" font-family="Microsoft YaHei" font-size="12.00">5A. Chat Servers Outgoing Traffic</text>
</a>
</g>
</g>
<!-- 4A&#45;&gt;5A -->
<g id="edge4" class="edge">
<title>4A&#45;&gt;5A</title>
<path fill="none" stroke="lightgrey" d="M104,-575.7C104,-567.98 104,-558.71 104,-550.11"/>
<polygon fill="lightgrey" stroke="lightgrey" points="107.5,-550.1 104,-540.1 100.5,-550.1 107.5,-550.1"/>
</g>
<!-- 6A -->
<g id="node6" class="node">
<title>6A</title>
<g id="a_node6"><a xlink:href="https://codeforces.com/problemset/problem/6/A" xlink:title="6A. Triangle" target="_parent">
<polygon fill="lawngreen" stroke="greenyellow" points="146,-468 62,-468 62,-432 146,-432 146,-468"/>
<text text-anchor="middle" x="104" y="-446.9" font-family="Microsoft YaHei" font-size="12.00">6A. Triangle</text>
</a>
</g>
</g>
<!-- 5A&#45;&gt;6A -->
<g id="edge5" class="edge">
<title>5A&#45;&gt;6A</title>
<path fill="none" stroke="lightgrey" d="M104,-503.7C104,-495.98 104,-486.71 104,-478.11"/>
<polygon fill="lightgrey" stroke="lightgrey" points="107.5,-478.1 104,-468.1 100.5,-478.1 107.5,-478.1"/>
</g>
<!-- 750A -->
<g id="node7" class="node">
<title>750A</title>
<g id="a_node7"><a xlink:href="https://codeforces.com/problemset/problem/750/A" xlink:title="750A. New Year and Hurry" target="_parent">
<polygon fill="lawngreen" stroke="greenyellow" points="188,-396 20,-396 20,-360 188,-360 188,-396"/>
<text text-anchor="middle" x="104" y="-374.9" font-family="Microsoft YaHei" font-size="12.00">750A. New Year and Hurry</text>
</a>
</g>
</g>
<!-- 6A&#45;&gt;750A -->
<g id="edge6" class="edge">
<title>6A&#45;&gt;750A</title>
<path fill="none" stroke="lightgrey" d="M104,-431.7C104,-423.98 104,-414.71 104,-406.11"/>
<polygon fill="lightgrey" stroke="lightgrey" points="107.5,-406.1 104,-396.1 100.5,-406.1 107.5,-406.1"/>
</g>
<!-- 784E -->
<g id="node8" class="node">
<title>784E</title>
<g id="a_node8"><a xlink:href="https://codeforces.com/problemset/problem/784/E" xlink:title="784E. Twisted Circuit" target="_parent">
<polygon fill="lawngreen" stroke="orange" points="171,-324 37,-324 37,-288 171,-288 171,-324"/>
<text text-anchor="middle" x="104" y="-302.9" font-family="Microsoft YaHei" font-size="12.00">784E. Twisted Circuit</text>
</a>
</g>
</g>
<!-- 750A&#45;&gt;784E -->
<g id="edge7" class="edge">
<title>750A&#45;&gt;784E</title>
<path fill="none" stroke="lightgrey" d="M104,-359.7C104,-351.98 104,-342.71 104,-334.11"/>
<polygon fill="lightgrey" stroke="lightgrey" points="107.5,-334.1 104,-324.1 100.5,-334.1 107.5,-334.1"/>
</g>
<!-- 785A -->
<g id="node9" class="node">
<title>785A</title>
<g id="a_node9"><a xlink:href="https://codeforces.com/problemset/problem/785/A" xlink:title="785A. Anton and Polyhedrons" target="_parent">
<polygon fill="lawngreen" stroke="greenyellow" points="197.5,-252 10.5,-252 10.5,-216 197.5,-216 197.5,-252"/>
<text text-anchor="middle" x="104" y="-230.9" font-family="Microsoft YaHei" font-size="12.00">785A. Anton and Polyhedrons</text>
</a>
</g>
</g>
<!-- 784E&#45;&gt;785A -->
<g id="edge8" class="edge">
<title>784E&#45;&gt;785A</title>
<path fill="none" stroke="lightgrey" d="M104,-287.7C104,-279.98 104,-270.71 104,-262.11"/>
<polygon fill="lightgrey" stroke="lightgrey" points="107.5,-262.1 104,-252.1 100.5,-262.1 107.5,-262.1"/>
</g>
<!-- 802M -->
<g id="node10" class="node">
<title>802M</title>
<g id="a_node10"><a xlink:href="https://codeforces.com/problemset/problem/802/M" xlink:title="802M. April Fools&#39; Problem (easy)" target="_parent">
<polygon fill="lawngreen" stroke="orange" points="207,-180 1,-180 1,-144 207,-144 207,-180"/>
<text text-anchor="middle" x="104" y="-158.9" font-family="Microsoft YaHei" font-size="12.00">802M. April Fools&#39; Problem (easy)</text>
</a>
</g>
</g>
<!-- 785A&#45;&gt;802M -->
<g id="edge9" class="edge">
<title>785A&#45;&gt;802M</title>
<path fill="none" stroke="lightgrey" d="M104,-215.7C104,-207.98 104,-198.71 104,-190.11"/>
<polygon fill="lightgrey" stroke="lightgrey" points="107.5,-190.1 104,-180.1 100.5,-190.1 107.5,-190.1"/>
</g>
<!-- 855A -->
<g id="node11" class="node">
<title>855A</title>
<g id="a_node11"><a xlink:href="https://codeforces.com/problemset/problem/855/A" xlink:title="855A. Tom Riddle&#39;s Diary" target="_parent">
<polygon fill="lawngreen" stroke="greenyellow" points="183,-108 25,-108 25,-72 183,-72 183,-108"/>
<text text-anchor="middle" x="104" y="-86.9" font-family="Microsoft YaHei" font-size="12.00">855A. Tom Riddle&#39;s Diary</text>
</a>
</g>
</g>
<!-- 802M&#45;&gt;855A -->
<g id="edge10" class="edge">
<title>802M&#45;&gt;855A</title>
<path fill="none" stroke="lightgrey" d="M104,-143.7C104,-135.98 104,-126.71 104,-118.11"/>
<polygon fill="lightgrey" stroke="lightgrey" points="107.5,-118.1 104,-108.1 100.5,-118.1 107.5,-118.1"/>
</g>
<!-- 1157B -->
<g id="node12" class="node">
<title>1157B</title>
<g id="a_node12"><a xlink:href="https://codeforces.com/problemset/problem/1157/B" xlink:title="1157B. Long Number" target="_parent">
<polygon fill="lawngreen" stroke="orange" points="172.5,-36 35.5,-36 35.5,0 172.5,0 172.5,-36"/>
<text text-anchor="middle" x="104" y="-14.9" font-family="Microsoft YaHei" font-size="12.00">1157B. Long Number</text>
</a>
</g>
</g>
<!-- 855A&#45;&gt;1157B -->
<g id="edge11" class="edge">
<title>855A&#45;&gt;1157B</title>
<path fill="none" stroke="lightgrey" d="M104,-71.7C104,-63.98 104,-54.71 104,-46.11"/>
<polygon fill="lightgrey" stroke="lightgrey" points="107.5,-46.1 104,-36.1 100.5,-46.1 107.5,-46.1"/>
</g>
<!-- 409H -->
<g id="node14" class="node">
<title>409H</title>
<g id="a_node14"><a xlink:href="https://codeforces.com/problemset/problem/409/H" xlink:title="409H. A + B Strikes Back" target="_parent">
<polygon fill="lawngreen" stroke="orange" points="341.5,-684 184.5,-684 184.5,-648 341.5,-648 341.5,-684"/>
<text text-anchor="middle" x="263" y="-662.9" font-family="Microsoft YaHei" font-size="12.00">409H. A + B Strikes Back</text>
</a>
</g>
</g>
<!-- Maths&#45;&gt;409H -->
<g id="edge13" class="edge">
<title>Maths&#45;&gt;409H</title>
<path fill="none" stroke="lightgrey" d="M278.81,-719.7C276.47,-711.9 273.65,-702.51 271.05,-693.83"/>
<polygon fill="lightgrey" stroke="lightgrey" points="274.36,-692.68 268.13,-684.1 267.65,-694.69 274.36,-692.68"/>
</g>
<!-- 1478D -->
<g id="node16" class="node">
<title>1478D</title>
<g id="a_node16"><a xlink:href="https://codeforces.com/problemset/problem/1477/A" xlink:title="1478D. Nezzar and Board" target="_parent">
<polygon fill="none" stroke="orange" points="522,-684 360,-684 360,-648 522,-648 522,-684"/>
<text text-anchor="middle" x="441" y="-662.9" font-family="Microsoft YaHei" font-size="12.00">1478D. Nezzar and Board</text>
</a>
</g>
</g>
<!-- 数论&#45;扩展欧几里得算法&#45;&gt;1478D -->
<g id="edge15" class="edge">
<title>数论&#45;扩展欧几里得算法&#45;&gt;1478D</title>
<path fill="none" stroke="lightgrey" d="M436.48,-719.7C437.14,-711.98 437.94,-702.71 438.68,-694.11"/>
<polygon fill="lightgrey" stroke="lightgrey" points="442.17,-694.37 439.53,-684.1 435.19,-693.77 442.17,-694.37"/>
</g>
<!-- 1156D -->
<g id="node18" class="node">
<title>1156D</title>
<g id="a_node18"><a xlink:href="https://codeforces.com/problemset/problem/1156/D" xlink:title="1156D. 0&#45;1&#45;Tree" target="_parent">
<polygon fill="none" stroke="red" points="648,-684 540,-684 540,-648 648,-648 648,-684"/>
<text text-anchor="middle" x="594" y="-662.9" font-family="Microsoft YaHei" font-size="12.00">1156D. 0&#45;1&#45;Tree</text>
</a>
</g>
</g>
<!-- 动态规划&#45;树形DP&#45;&gt;1156D -->
<g id="edge17" class="edge">
<title>动态规划&#45;树形DP&#45;&gt;1156D</title>
<path fill="none" stroke="lightgrey" d="M594,-719.7C594,-711.98 594,-702.71 594,-694.11"/>
<polygon fill="lightgrey" stroke="lightgrey" points="597.5,-694.1 594,-684.1 590.5,-694.1 597.5,-694.1"/>
</g>
<!-- 1493B -->
<g id="node20" class="node">
<title>1493B</title>
<g id="a_node20"><a xlink:href="https://codeforces.com/problemset/problem/1493/B" xlink:title="1493B. Planet Lapituletti" target="_parent">
<polygon fill="none" stroke="orange" points="821.5,-684 666.5,-684 666.5,-648 821.5,-648 821.5,-684"/>
<text text-anchor="middle" x="744" y="-662.9" font-family="Microsoft YaHei" font-size="12.00">1493B. Planet Lapituletti</text>
</a>
</g>
</g>
<!-- 模拟题&#45;&gt;1493B -->
<g id="edge19" class="edge">
<title>模拟题&#45;&gt;1493B</title>
<path fill="none" stroke="lightgrey" d="M730.45,-719.7C732.45,-711.9 734.87,-702.51 737.1,-693.83"/>
<polygon fill="lightgrey" stroke="lightgrey" points="740.5,-694.66 739.6,-684.1 733.72,-692.92 740.5,-694.66"/>
</g>
</g>
</svg>
