<?xml version="1.0" encoding="UTF-8" standalone="no"?>
<!DOCTYPE svg PUBLIC "-//W3C//DTD SVG 1.1//EN"
 "http://www.w3.org/Graphics/SVG/1.1/DTD/svg11.dtd">
<!-- Generated by graphviz version 2.46.1 (20210213.1702)
 -->
<!-- Title: stones Pages: 1 -->
<svg width="659pt" height="404pt"
 viewBox="0.00 0.00 658.50 404.00" xmlns="http://www.w3.org/2000/svg" xmlns:xlink="http://www.w3.org/1999/xlink">
<g id="graph0" class="graph" transform="scale(1 1) rotate(0) translate(4 400)">
<title>stones</title>
<polygon fill="white" stroke="transparent" points="-4,4 -4,-400 654.5,-400 654.5,4 -4,4"/>
<!-- Codeforces -->
<g id="node1" class="node">
<title>Codeforces</title>
<g id="a_node1"><a xlink:href="https://codeforces.com/problemset" xlink:title="Codeforces(7)" target="_parent">
<polygon fill="orangered" stroke="lightgrey" points="389,-396 277,-396 277,-360 389,-360 389,-396"/>
<text text-anchor="middle" x="333" y="-374.3" font-family="Microsoft YaHei" font-size="14.00" fill="white">Codeforces(7)</text>
</a>
</g>
</g>
<!-- 基础题 -->
<g id="node2" class="node">
<title>基础题</title>
<polygon fill="lightslategray" stroke="lightgrey" points="179.5,-324 112.5,-324 112.5,-288 179.5,-288 179.5,-324"/>
<text text-anchor="middle" x="146" y="-302.9" font-family="Microsoft YaHei" font-size="12.00" fill="white">基础题(4)</text>
</g>
<!-- Codeforces&#45;&gt;基础题 -->
<g id="edge1" class="edge">
<title>Codeforces&#45;&gt;基础题</title>
<path fill="none" stroke="lightgrey" d="M287.25,-359.88C257.33,-348.68 218.49,-334.14 189.12,-323.14"/>
<polygon fill="lightgrey" stroke="lightgrey" points="190.14,-319.78 179.54,-319.56 187.68,-326.34 190.14,-319.78"/>
</g>
<!-- Maths -->
<g id="node7" class="node">
<title>Maths</title>
<polygon fill="lightslategray" stroke="lightgrey" points="301.5,-324 234.5,-324 234.5,-288 301.5,-288 301.5,-324"/>
<text text-anchor="middle" x="268" y="-302.9" font-family="Microsoft YaHei" font-size="12.00" fill="white">Maths(1)</text>
</g>
<!-- Codeforces&#45;&gt;Maths -->
<g id="edge6" class="edge">
<title>Codeforces&#45;&gt;Maths</title>
<path fill="none" stroke="lightgrey" d="M316.93,-359.7C309.06,-351.22 299.44,-340.86 290.83,-331.58"/>
<polygon fill="lightgrey" stroke="lightgrey" points="293.25,-329.05 283.88,-324.1 288.12,-333.81 293.25,-329.05"/>
</g>
<!-- 数论&#45;扩展欧几里得算法 -->
<g id="node9" class="node">
<title>数论&#45;扩展欧几里得算法</title>
<polygon fill="lightslategray" stroke="lightgrey" points="497,-324 341,-324 341,-288 497,-288 497,-324"/>
<text text-anchor="middle" x="419" y="-302.9" font-family="Microsoft YaHei" font-size="12.00" fill="white">数论&#45;扩展欧几里得算法(1)</text>
</g>
<!-- Codeforces&#45;&gt;数论&#45;扩展欧几里得算法 -->
<g id="edge8" class="edge">
<title>Codeforces&#45;&gt;数论&#45;扩展欧几里得算法</title>
<path fill="none" stroke="lightgrey" d="M354.26,-359.7C365.09,-350.88 378.42,-340.03 390.16,-330.47"/>
<polygon fill="lightgrey" stroke="lightgrey" points="392.44,-333.13 397.99,-324.1 388.02,-327.7 392.44,-333.13"/>
</g>
<!-- 动态规划&#45;树形DP -->
<g id="node11" class="node">
<title>动态规划&#45;树形DP</title>
<polygon fill="lightslategray" stroke="lightgrey" points="650.5,-324 525.5,-324 525.5,-288 650.5,-288 650.5,-324"/>
<text text-anchor="middle" x="588" y="-302.9" font-family="Microsoft YaHei" font-size="12.00" fill="white">动态规划&#45;树形DP(1)</text>
</g>
<!-- Codeforces&#45;&gt;动态规划&#45;树形DP -->
<g id="edge10" class="edge">
<title>Codeforces&#45;&gt;动态规划&#45;树形DP</title>
<path fill="none" stroke="lightgrey" d="M389.28,-361.55C426.67,-351.29 476.11,-337.72 516.32,-326.68"/>
<polygon fill="lightgrey" stroke="lightgrey" points="517.34,-330.03 526.06,-324 515.49,-323.28 517.34,-330.03"/>
</g>
<!-- 1A -->
<g id="node3" class="node">
<title>1A</title>
<g id="a_node3"><a xlink:href="https://codeforces.com/problemset/problem/1/A" xlink:title="1A. Theatre Square" target="_parent">
<polygon fill="lawngreen" stroke="greenyellow" points="166.5,-252 41.5,-252 41.5,-216 166.5,-216 166.5,-252"/>
<text text-anchor="middle" x="104" y="-230.9" font-family="Microsoft YaHei" font-size="12.00">1A. Theatre Square</text>
</a>
</g>
</g>
<!-- 基础题&#45;&gt;1A -->
<g id="edge2" class="edge">
<title>基础题&#45;&gt;1A</title>
<path fill="none" stroke="lightgrey" d="M135.62,-287.7C130.74,-279.56 124.81,-269.69 119.42,-260.7"/>
<polygon fill="lightgrey" stroke="lightgrey" points="122.41,-258.88 114.26,-252.1 116.41,-262.48 122.41,-258.88"/>
</g>
<!-- 4A -->
<g id="node4" class="node">
<title>4A</title>
<g id="a_node4"><a xlink:href="https://codeforces.com/problemset/problem/4/A" xlink:title="4A. Watermelon" target="_parent">
<polygon fill="lawngreen" stroke="greenyellow" points="158.5,-180 49.5,-180 49.5,-144 158.5,-144 158.5,-180"/>
<text text-anchor="middle" x="104" y="-158.9" font-family="Microsoft YaHei" font-size="12.00">4A. Watermelon</text>
</a>
</g>
</g>
<!-- 1A&#45;&gt;4A -->
<g id="edge3" class="edge">
<title>1A&#45;&gt;4A</title>
<path fill="none" stroke="lightgrey" d="M104,-215.7C104,-207.98 104,-198.71 104,-190.11"/>
<polygon fill="lightgrey" stroke="lightgrey" points="107.5,-190.1 104,-180.1 100.5,-190.1 107.5,-190.1"/>
</g>
<!-- 5A -->
<g id="node5" class="node">
<title>5A</title>
<g id="a_node5"><a xlink:href="https://codeforces.com/problemset/problem/5/A" xlink:title="5A. Chat Servers Outgoing Traffic" target="_parent">
<polygon fill="lawngreen" stroke="greenyellow" points="208,-108 0,-108 0,-72 208,-72 208,-108"/>
<text text-anchor="middle" x="104" y="-86.9" font-family="Microsoft YaHei" font-size="12.00">5A. Chat Servers Outgoing Traffic</text>
</a>
</g>
</g>
<!-- 4A&#45;&gt;5A -->
<g id="edge4" class="edge">
<title>4A&#45;&gt;5A</title>
<path fill="none" stroke="lightgrey" d="M104,-143.7C104,-135.98 104,-126.71 104,-118.11"/>
<polygon fill="lightgrey" stroke="lightgrey" points="107.5,-118.1 104,-108.1 100.5,-118.1 107.5,-118.1"/>
</g>
<!-- 6A -->
<g id="node6" class="node">
<title>6A</title>
<g id="a_node6"><a xlink:href="https://codeforces.com/problemset/problem/6/A" xlink:title="6A. Triangle" target="_parent">
<polygon fill="lawngreen" stroke="greenyellow" points="146,-36 62,-36 62,0 146,0 146,-36"/>
<text text-anchor="middle" x="104" y="-14.9" font-family="Microsoft YaHei" font-size="12.00">6A. Triangle</text>
</a>
</g>
</g>
<!-- 5A&#45;&gt;6A -->
<g id="edge5" class="edge">
<title>5A&#45;&gt;6A</title>
<path fill="none" stroke="lightgrey" d="M104,-71.7C104,-63.98 104,-54.71 104,-46.11"/>
<polygon fill="lightgrey" stroke="lightgrey" points="107.5,-46.1 104,-36.1 100.5,-46.1 107.5,-46.1"/>
</g>
<!-- 409H -->
<g id="node8" class="node">
<title>409H</title>
<g id="a_node8"><a xlink:href="https://codeforces.com/problemset/problem/409/H" xlink:title="409H. A + B Strikes Back" target="_parent">
<polygon fill="lawngreen" stroke="orange" points="341.5,-252 184.5,-252 184.5,-216 341.5,-216 341.5,-252"/>
<text text-anchor="middle" x="263" y="-230.9" font-family="Microsoft YaHei" font-size="12.00">409H. A + B Strikes Back</text>
</a>
</g>
</g>
<!-- Maths&#45;&gt;409H -->
<g id="edge7" class="edge">
<title>Maths&#45;&gt;409H</title>
<path fill="none" stroke="lightgrey" d="M266.76,-287.7C266.21,-279.98 265.55,-270.71 264.94,-262.11"/>
<polygon fill="lightgrey" stroke="lightgrey" points="268.43,-261.83 264.22,-252.1 261.44,-262.33 268.43,-261.83"/>
</g>
<!-- 1478D -->
<g id="node10" class="node">
<title>1478D</title>
<g id="a_node10"><a xlink:href="https://codeforces.com/problemset/problem/1477/A" xlink:title="1478D. Nezzar and Board" target="_parent">
<polygon fill="none" stroke="orange" points="522,-252 360,-252 360,-216 522,-216 522,-252"/>
<text text-anchor="middle" x="441" y="-230.9" font-family="Microsoft YaHei" font-size="12.00">1478D. Nezzar and Board</text>
</a>
</g>
</g>
<!-- 数论&#45;扩展欧几里得算法&#45;&gt;1478D -->
<g id="edge9" class="edge">
<title>数论&#45;扩展欧几里得算法&#45;&gt;1478D</title>
<path fill="none" stroke="lightgrey" d="M424.44,-287.7C426.89,-279.9 429.84,-270.51 432.57,-261.83"/>
<polygon fill="lightgrey" stroke="lightgrey" points="435.96,-262.69 435.62,-252.1 429.29,-260.59 435.96,-262.69"/>
</g>
<!-- 1156D -->
<g id="node12" class="node">
<title>1156D</title>
<g id="a_node12"><a xlink:href="https://codeforces.com/problemset/problem/1156/D" xlink:title="1156D. 0&#45;1&#45;Tree" target="_parent">
<polygon fill="none" stroke="red" points="648,-252 540,-252 540,-216 648,-216 648,-252"/>
<text text-anchor="middle" x="594" y="-230.9" font-family="Microsoft YaHei" font-size="12.00">1156D. 0&#45;1&#45;Tree</text>
</a>
</g>
</g>
<!-- 动态规划&#45;树形DP&#45;&gt;1156D -->
<g id="edge11" class="edge">
<title>动态规划&#45;树形DP&#45;&gt;1156D</title>
<path fill="none" stroke="lightgrey" d="M589.48,-287.7C590.14,-279.98 590.94,-270.71 591.68,-262.11"/>
<polygon fill="lightgrey" stroke="lightgrey" points="595.17,-262.37 592.53,-252.1 588.19,-261.77 595.17,-262.37"/>
</g>
</g>
</svg>
