<?xml version="1.0" encoding="UTF-8" standalone="no"?>
<!DOCTYPE svg PUBLIC "-//W3C//DTD SVG 1.1//EN"
 "http://www.w3.org/Graphics/SVG/1.1/DTD/svg11.dtd">
<!-- Generated by graphviz version 2.46.1 (20210213.1702)
 -->
<!-- Title: stones Pages: 1 -->
<svg width="165pt" height="188pt"
 viewBox="0.00 0.00 165.00 188.00" xmlns="http://www.w3.org/2000/svg" xmlns:xlink="http://www.w3.org/1999/xlink">
<g id="graph0" class="graph" transform="scale(1 1) rotate(0) translate(4 184)">
<title>stones</title>
<polygon fill="white" stroke="transparent" points="-4,4 -4,-184 161,-184 161,4 -4,4"/>
<!-- Codeforces -->
<g id="node1" class="node">
<title>Codeforces</title>
<g id="a_node1"><a xlink:href="https://codeforces.com/problemset" xlink:title="Codeforces(0)" target="_parent">
<polygon fill="orangered" stroke="lightgrey" points="134.5,-180 22.5,-180 22.5,-144 134.5,-144 134.5,-180"/>
<text text-anchor="middle" x="78.5" y="-158.3" font-family="Microsoft YaHei" font-size="14.00" fill="white">Codeforces(0)</text>
</a>
</g>
</g>
<!-- Maths -->
<g id="node2" class="node">
<title>Maths</title>
<polygon fill="lightslategray" stroke="lightgrey" points="112,-108 45,-108 45,-72 112,-72 112,-108"/>
<text text-anchor="middle" x="78.5" y="-86.9" font-family="Microsoft YaHei" font-size="12.00" fill="white">Maths(1)</text>
</g>
<!-- Codeforces&#45;&gt;Maths -->
<g id="edge1" class="edge">
<title>Codeforces&#45;&gt;Maths</title>
<path fill="none" stroke="black" d="M78.5,-143.7C78.5,-135.98 78.5,-126.71 78.5,-118.11"/>
<polygon fill="black" stroke="black" points="82,-118.1 78.5,-108.1 75,-118.1 82,-118.1"/>
</g>
<!-- 409H -->
<g id="node3" class="node">
<title>409H</title>
<g id="a_node3"><a xlink:href="https://codeforces.com/problemset/problem/409/H" xlink:title="409H. A + B Strikes Back" target="_parent">
<polygon fill="none" stroke="orange" points="157,-36 0,-36 0,0 157,0 157,-36"/>
<text text-anchor="middle" x="78.5" y="-14.9" font-family="Microsoft YaHei" font-size="12.00">409H. A + B Strikes Back</text>
</a>
</g>
</g>
<!-- Maths&#45;&gt;409H -->
<g id="edge2" class="edge">
<title>Maths&#45;&gt;409H</title>
<path fill="none" stroke="black" d="M78.5,-71.7C78.5,-63.98 78.5,-54.71 78.5,-46.11"/>
<polygon fill="black" stroke="black" points="82,-46.1 78.5,-36.1 75,-46.1 82,-46.1"/>
</g>
</g>
</svg>
