<?xml version="1.0" encoding="UTF-8" standalone="no"?>
<!DOCTYPE svg PUBLIC "-//W3C//DTD SVG 1.1//EN"
 "http://www.w3.org/Graphics/SVG/1.1/DTD/svg11.dtd">
<!-- Generated by graphviz version 2.46.1 (20210213.1702)
 -->
<!-- Title: stones Pages: 1 -->
<svg width="350pt" height="404pt"
 viewBox="0.00 0.00 349.50 404.00" xmlns="http://www.w3.org/2000/svg" xmlns:xlink="http://www.w3.org/1999/xlink">
<g id="graph0" class="graph" transform="scale(1 1) rotate(0) translate(4 400)">
<title>stones</title>
<polygon fill="white" stroke="transparent" points="-4,4 -4,-400 345.5,-400 345.5,4 -4,4"/>
<!-- Codeforces -->
<g id="node1" class="node">
<title>Codeforces</title>
<g id="a_node1"><a xlink:href="https://codeforces.com/problemset" xlink:title="Codeforces(0)" target="_parent">
<polygon fill="orangered" stroke="lightgrey" points="239,-396 127,-396 127,-360 239,-360 239,-396"/>
<text text-anchor="middle" x="183" y="-374.3" font-family="Microsoft YaHei" font-size="14.00" fill="white">Codeforces(0)</text>
</a>
</g>
</g>
<!-- 基础题 -->
<g id="node2" class="node">
<title>基础题</title>
<polygon fill="lightslategray" stroke="lightgrey" points="155.5,-324 88.5,-324 88.5,-288 155.5,-288 155.5,-324"/>
<text text-anchor="middle" x="122" y="-302.9" font-family="Microsoft YaHei" font-size="12.00" fill="white">基础题(4)</text>
</g>
<!-- Codeforces&#45;&gt;基础题 -->
<g id="edge1" class="edge">
<title>Codeforces&#45;&gt;基础题</title>
<path fill="none" stroke="black" d="M167.92,-359.7C160.61,-351.3 151.69,-341.07 143.66,-331.86"/>
<polygon fill="black" stroke="black" points="146.11,-329.34 136.91,-324.1 140.84,-333.94 146.11,-329.34"/>
</g>
<!-- Maths -->
<g id="node7" class="node">
<title>Maths</title>
<polygon fill="lightslategray" stroke="lightgrey" points="277.5,-324 210.5,-324 210.5,-288 277.5,-288 277.5,-324"/>
<text text-anchor="middle" x="244" y="-302.9" font-family="Microsoft YaHei" font-size="12.00" fill="white">Maths(1)</text>
</g>
<!-- Codeforces&#45;&gt;Maths -->
<g id="edge6" class="edge">
<title>Codeforces&#45;&gt;Maths</title>
<path fill="none" stroke="black" d="M198.08,-359.7C205.39,-351.3 214.31,-341.07 222.34,-331.86"/>
<polygon fill="black" stroke="black" points="225.16,-333.94 229.09,-324.1 219.89,-329.34 225.16,-333.94"/>
</g>
<!-- 1A -->
<g id="node3" class="node">
<title>1A</title>
<g id="a_node3"><a xlink:href="https://codeforces.com/problemset/problem/1/A" xlink:title="1A. Theatre Square" target="_parent">
<polygon fill="none" stroke="greenyellow" points="166.5,-252 41.5,-252 41.5,-216 166.5,-216 166.5,-252"/>
<text text-anchor="middle" x="104" y="-230.9" font-family="Microsoft YaHei" font-size="12.00">1A. Theatre Square</text>
</a>
</g>
</g>
<!-- 基础题&#45;&gt;1A -->
<g id="edge2" class="edge">
<title>基础题&#45;&gt;1A</title>
<path fill="none" stroke="black" d="M117.55,-287.7C115.55,-279.9 113.13,-270.51 110.9,-261.83"/>
<polygon fill="black" stroke="black" points="114.28,-260.92 108.4,-252.1 107.5,-262.66 114.28,-260.92"/>
</g>
<!-- 4A -->
<g id="node4" class="node">
<title>4A</title>
<g id="a_node4"><a xlink:href="https://codeforces.com/problemset/problem/4/A" xlink:title="4A. Watermelon" target="_parent">
<polygon fill="none" stroke="greenyellow" points="158.5,-180 49.5,-180 49.5,-144 158.5,-144 158.5,-180"/>
<text text-anchor="middle" x="104" y="-158.9" font-family="Microsoft YaHei" font-size="12.00">4A. Watermelon</text>
</a>
</g>
</g>
<!-- 1A&#45;&gt;4A -->
<g id="edge3" class="edge">
<title>1A&#45;&gt;4A</title>
<path fill="none" stroke="black" d="M104,-215.7C104,-207.98 104,-198.71 104,-190.11"/>
<polygon fill="black" stroke="black" points="107.5,-190.1 104,-180.1 100.5,-190.1 107.5,-190.1"/>
</g>
<!-- 5A -->
<g id="node5" class="node">
<title>5A</title>
<g id="a_node5"><a xlink:href="https://codeforces.com/problemset/problem/5/A" xlink:title="5A. Chat Servers Outgoing Traffic" target="_parent">
<polygon fill="none" stroke="greenyellow" points="208,-108 0,-108 0,-72 208,-72 208,-108"/>
<text text-anchor="middle" x="104" y="-86.9" font-family="Microsoft YaHei" font-size="12.00">5A. Chat Servers Outgoing Traffic</text>
</a>
</g>
</g>
<!-- 4A&#45;&gt;5A -->
<g id="edge4" class="edge">
<title>4A&#45;&gt;5A</title>
<path fill="none" stroke="black" d="M104,-143.7C104,-135.98 104,-126.71 104,-118.11"/>
<polygon fill="black" stroke="black" points="107.5,-118.1 104,-108.1 100.5,-118.1 107.5,-118.1"/>
</g>
<!-- 6A -->
<g id="node6" class="node">
<title>6A</title>
<g id="a_node6"><a xlink:href="https://codeforces.com/problemset/problem/6/A" xlink:title="6A. Triangle" target="_parent">
<polygon fill="none" stroke="greenyellow" points="146,-36 62,-36 62,0 146,0 146,-36"/>
<text text-anchor="middle" x="104" y="-14.9" font-family="Microsoft YaHei" font-size="12.00">6A. Triangle</text>
</a>
</g>
</g>
<!-- 5A&#45;&gt;6A -->
<g id="edge5" class="edge">
<title>5A&#45;&gt;6A</title>
<path fill="none" stroke="black" d="M104,-71.7C104,-63.98 104,-54.71 104,-46.11"/>
<polygon fill="black" stroke="black" points="107.5,-46.1 104,-36.1 100.5,-46.1 107.5,-46.1"/>
</g>
<!-- 409H -->
<g id="node8" class="node">
<title>409H</title>
<g id="a_node8"><a xlink:href="https://codeforces.com/problemset/problem/409/H" xlink:title="409H. A + B Strikes Back" target="_parent">
<polygon fill="none" stroke="orange" points="341.5,-252 184.5,-252 184.5,-216 341.5,-216 341.5,-252"/>
<text text-anchor="middle" x="263" y="-230.9" font-family="Microsoft YaHei" font-size="12.00">409H. A + B Strikes Back</text>
</a>
</g>
</g>
<!-- Maths&#45;&gt;409H -->
<g id="edge7" class="edge">
<title>Maths&#45;&gt;409H</title>
<path fill="none" stroke="black" d="M248.7,-287.7C250.81,-279.9 253.36,-270.51 255.72,-261.83"/>
<polygon fill="black" stroke="black" points="259.12,-262.67 258.36,-252.1 252.36,-260.84 259.12,-262.67"/>
</g>
</g>
</svg>
