<?xml version="1.0" encoding="utf-8"?>
<!DOCTYPE svg PUBLIC "-//W3C//DTD SVG 1.1//EN" "http://www.w3.org/Graphics/SVG/1.1/DTD/svg11.dtd">
<!-- Generated by graphviz version 2.46.1 (20210213.1702)
 -->
<!-- Title: stones Pages: 1 -->
<svg height="886pt" viewBox="0.00 0.00 824.5 886.0" width="825pt" xmlns="http://www.w3.org/2000/svg" xmlns:xlink="http://www.w3.org/1999/xlink">
 <g class="graph" id="graph0" transform="scale(1 1) rotate(0) translate(4 832)">
  <title>
   stones
  </title>
  <polygon fill="white" points="-4,4 -4,-832 770.5,-832 770.5,4 -4,4" stroke="transparent"/>
  <!-- Codeforces -->
  <g class="node" id="node1">
   <title>
    Codeforces
   </title>
   <g id="a_node1">
    <a target="_parent" xlink:href="https://codeforces.com/problemset" xlink:title="Codeforces(15)">
     <polygon fill="orangered" points="514,-828 394,-828 394,-792 514,-792 514,-828" stroke="lightgrey"/>
     <text fill="white" font-family="Microsoft YaHei" font-size="14.00" text-anchor="middle" x="454" y="-806.3">
      Codeforces(15)
     </text>
    </a>
   </g>
  </g>
  <!-- 基础题 -->
  <g class="node" id="node2">
   <title>
    基础题
   </title>
   <polygon fill="lightslategray" points="176,-756 102,-756 102,-720 176,-720 176,-756" stroke="lightgrey"/>
   <text fill="white" font-family="Microsoft YaHei" font-size="12.00" text-anchor="middle" x="139" y="-734.9">
    基础题(10)
   </text>
  </g>
  <!-- Codeforces&#45;&gt;基础题 -->
  <g class="edge" id="edge1">
   <title>
    Codeforces-&gt;基础题
   </title>
   <path d="M393.96,-797.36C342.77,-787.2 267.32,-771.67 202,-756 196.9,-754.78 191.58,-753.44 186.29,-752.07" fill="none" stroke="lightgrey"/>
   <polygon fill="lightgrey" points="186.78,-748.58 176.22,-749.42 185,-755.35 186.78,-748.58" stroke="lightgrey"/>
  </g>
  <!-- Maths -->
  <g class="node" id="node13">
   <title>
    Maths
   </title>
   <polygon fill="lightslategray" points="278.5,-756 211.5,-756 211.5,-720 278.5,-720 278.5,-756" stroke="lightgrey"/>
   <text fill="white" font-family="Microsoft YaHei" font-size="12.00" text-anchor="middle" x="245" y="-734.9">
    Maths(1)
   </text>
  </g>
  <!-- Codeforces&#45;&gt;Maths -->
  <g class="edge" id="edge12">
   <title>
    Codeforces-&gt;Maths
   </title>
   <path d="M397.21,-791.91C367.26,-782.65 329.76,-770.69 288.21,-755.97" fill="none" stroke="lightgrey"/>
   <polygon fill="lightgrey" points="289.31,-752.64 278.72,-752.58 286.96,-759.24 289.31,-752.64" stroke="lightgrey"/>
  </g>
  <!-- 数论&#45;扩展欧几里得算法 -->
  <g class="node" id="node15">
   <title>
    数论-扩展欧几里得算法
   </title>
   <polygon fill="lightslategray" points="453,-756 297,-756 297,-720 453,-720 453,-756" stroke="lightgrey"/>
   <text fill="white" font-family="Microsoft YaHei" font-size="12.00" text-anchor="middle" x="375" y="-734.9">
    数论-扩展欧几里得算法(1)
   </text>
  </g>
  <!-- Codeforces&#45;&gt;数论&#45;扩展欧几里得算法 -->
  <g class="edge" id="edge14">
   <title>
    Codeforces-&gt;数论-扩展欧几里得算法
   </title>
   <path d="M434.47,-791.7C424.62,-782.97 412.51,-772.24 401.8,-762.75" fill="none" stroke="lightgrey"/>
   <polygon fill="lightgrey" points="404.11,-760.12 394.3,-756.1 399.47,-765.36 404.11,-760.12" stroke="lightgrey"/>
  </g>
  <!-- 动态规划&#45;树形DP -->
  <g class="node" id="node16">
   <title>
    动态规划-树形DP
   </title>
   <polygon fill="lightslategray" points="596.5,-756 471.5,-756 471.5,-720 596.5,-720 596.5,-756" stroke="lightgrey"/>
   <text fill="white" font-family="Microsoft YaHei" font-size="12.00" text-anchor="middle" x="534" y="-734.9">
    动态规划-树形DP(1)
   </text>
  </g>
  <!-- Codeforces&#45;&gt;动态规划&#45;树形DP -->
  <g class="edge" id="edge15">
   <title>
    Codeforces-&gt;动态规划-树形DP
   </title>
   <path d="M473.78,-791.7C483.75,-782.97 496.01,-772.24 506.86,-762.75" fill="none" stroke="lightgrey"/>
   <polygon fill="lightgrey" points="509.23,-765.32 514.45,-756.1 504.62,-760.06 509.23,-765.32" stroke="lightgrey"/>
  </g>
  <!-- 模拟题 -->
  <g class="node" id="node18">
   <title>
    模拟题
   </title>
   <polygon fill="lightslategray" points="681.5,-756 614.5,-756 614.5,-720 681.5,-720 681.5,-756" stroke="lightgrey"/>
   <text fill="white" font-family="Microsoft YaHei" font-size="12.00" text-anchor="middle" x="648" y="-734.9">
    模拟题(1)
   </text>
  </g>
  <!-- Codeforces&#45;&gt;模拟题 -->
  <g class="edge" id="edge17">
   <title>
    Codeforces-&gt;模拟题
   </title>
   <path d="M504.89,-791.95C532.21,-782.64 566.64,-770.65 604.45,-756.52" fill="none" stroke="lightgrey"/>
   <polygon fill="lightgrey" points="606,-759.67 614.13,-752.88 603.54,-753.12 606,-759.67" stroke="lightgrey"/>
  </g>
  <!-- 字典树 -->
  <g class="node" id="node20">
   <title>
    字典树
   </title>
   <polygon fill="lightslategray" points="766.5,-756 699.5,-756 699.5,-720 766.5,-720 766.5,-756" stroke="lightgrey"/>
   <text fill="white" font-family="Microsoft YaHei" font-size="12.00" text-anchor="middle" x="733" y="-734.9">
    字典树(1)
   </text>
  </g>
  <!-- Codeforces&#45;&gt;字典树 -->
  <g class="edge" id="edge19">
   <title>
    Codeforces-&gt;字典树
   </title>
   <path d="M514.13,-798.39C560.11,-789.64 625.11,-775.88 689.36,-756.28" fill="none" stroke="lightgrey"/>
   <polygon fill="lightgrey" points="690.73,-759.52 699.25,-753.22 688.66,-752.84 690.73,-759.52" stroke="lightgrey"/>
  </g>
  <!-- 1A -->
  <g class="node" id="node3">
   <title>
    1A
   </title>
   <g id="a_node3">
    <a target="_parent" xlink:href="https://codeforces.com/problemset/problem/1/A" xlink:title="1A. Theatre Square">
     <polygon fill="none" points="166.5,-684 41.5,-684 41.5,-648 166.5,-648 166.5,-684" stroke="greenyellow"/>
     <text font-family="Microsoft YaHei" font-size="12.00" text-anchor="middle" x="104" y="-662.9">
      1A. Theatre Square
     </text>
    </a>
   </g>
   <g transform="translate(158.5, -690.0) scale(0.3)">
    <circle cx="24" cy="24" fill="#4caf50" r="21"/>
    <polygon fill="#ccff90" points="34.6,14.6 21,28.2 15.4,22.6 12.6,25.4 21,33.8 37.4,17.4"/>
   </g>
  </g>
  <!-- 基础题&#45;&gt;1A -->
  <g class="edge" id="edge2">
   <title>
    基础题-&gt;1A
   </title>
   <path d="M130.35,-719.7C126.36,-711.73 121.55,-702.1 117.13,-693.26" fill="none" stroke="lightgrey"/>
   <polygon fill="lightgrey" points="120.15,-691.48 112.55,-684.1 113.89,-694.61 120.15,-691.48" stroke="lightgrey"/>
  </g>
  <!-- 4A -->
  <g class="node" id="node4">
   <title>
    4A
   </title>
   <g id="a_node4">
    <a target="_parent" xlink:href="https://codeforces.com/problemset/problem/4/A" xlink:title="4A. Watermelon">
     <polygon fill="none" points="158.5,-612 49.5,-612 49.5,-576 158.5,-576 158.5,-612" stroke="greenyellow"/>
     <text font-family="Microsoft YaHei" font-size="12.00" text-anchor="middle" x="104" y="-590.9">
      4A. Watermelon
     </text>
    </a>
   </g>
   <g transform="translate(150.5, -618.0) scale(0.3)">
    <circle cx="24" cy="24" fill="#4caf50" r="21"/>
    <polygon fill="#ccff90" points="34.6,14.6 21,28.2 15.4,22.6 12.6,25.4 21,33.8 37.4,17.4"/>
   </g>
  </g>
  <!-- 1A&#45;&gt;4A -->
  <g class="edge" id="edge3">
   <title>
    1A-&gt;4A
   </title>
   <path d="M104,-647.7C104,-639.98 104,-630.71 104,-622.11" fill="none" stroke="lightgrey"/>
   <polygon fill="lightgrey" points="107.5,-622.1 104,-612.1 100.5,-622.1 107.5,-622.1" stroke="lightgrey"/>
  </g>
  <!-- 5A -->
  <g class="node" id="node5">
   <title>
    5A
   </title>
   <g id="a_node5">
    <a target="_parent" xlink:href="https://codeforces.com/problemset/problem/5/A" xlink:title="5A. Chat Servers Outgoing Traffic">
     <polygon fill="none" points="208,-540 0,-540 0,-504 208,-504 208,-540" stroke="greenyellow"/>
     <text font-family="Microsoft YaHei" font-size="12.00" text-anchor="middle" x="104" y="-518.9">
      5A. Chat Servers Outgoing Traffic
     </text>
    </a>
   </g>
   <g transform="translate(200.0, -546.0) scale(0.3)">
    <circle cx="24" cy="24" fill="#4caf50" r="21"/>
    <polygon fill="#ccff90" points="34.6,14.6 21,28.2 15.4,22.6 12.6,25.4 21,33.8 37.4,17.4"/>
   </g>
  </g>
  <!-- 4A&#45;&gt;5A -->
  <g class="edge" id="edge4">
   <title>
    4A-&gt;5A
   </title>
   <path d="M104,-575.7C104,-567.98 104,-558.71 104,-550.11" fill="none" stroke="lightgrey"/>
   <polygon fill="lightgrey" points="107.5,-550.1 104,-540.1 100.5,-550.1 107.5,-550.1" stroke="lightgrey"/>
  </g>
  <!-- 6A -->
  <g class="node" id="node6">
   <title>
    6A
   </title>
   <g id="a_node6">
    <a target="_parent" xlink:href="https://codeforces.com/problemset/problem/6/A" xlink:title="6A. Triangle">
     <polygon fill="none" points="146,-468 62,-468 62,-432 146,-432 146,-468" stroke="greenyellow"/>
     <text font-family="Microsoft YaHei" font-size="12.00" text-anchor="middle" x="104" y="-446.9">
      6A. Triangle
     </text>
    </a>
   </g>
   <g transform="translate(138.0, -474.0) scale(0.3)">
    <circle cx="24" cy="24" fill="#4caf50" r="21"/>
    <polygon fill="#ccff90" points="34.6,14.6 21,28.2 15.4,22.6 12.6,25.4 21,33.8 37.4,17.4"/>
   </g>
  </g>
  <!-- 5A&#45;&gt;6A -->
  <g class="edge" id="edge5">
   <title>
    5A-&gt;6A
   </title>
   <path d="M104,-503.7C104,-495.98 104,-486.71 104,-478.11" fill="none" stroke="lightgrey"/>
   <polygon fill="lightgrey" points="107.5,-478.1 104,-468.1 100.5,-478.1 107.5,-478.1" stroke="lightgrey"/>
  </g>
  <!-- 750A -->
  <g class="node" id="node7">
   <title>
    750A
   </title>
   <g id="a_node7">
    <a target="_parent" xlink:href="https://codeforces.com/problemset/problem/750/A" xlink:title="750A. New Year and Hurry">
     <polygon fill="none" points="188,-396 20,-396 20,-360 188,-360 188,-396" stroke="greenyellow"/>
     <text font-family="Microsoft YaHei" font-size="12.00" text-anchor="middle" x="104" y="-374.9">
      750A. New Year and Hurry
     </text>
    </a>
   </g>
   <g transform="translate(180.0, -402.0) scale(0.3)">
    <circle cx="24" cy="24" fill="#4caf50" r="21"/>
    <polygon fill="#ccff90" points="34.6,14.6 21,28.2 15.4,22.6 12.6,25.4 21,33.8 37.4,17.4"/>
   </g>
  </g>
  <!-- 6A&#45;&gt;750A -->
  <g class="edge" id="edge6">
   <title>
    6A-&gt;750A
   </title>
   <path d="M104,-431.7C104,-423.98 104,-414.71 104,-406.11" fill="none" stroke="lightgrey"/>
   <polygon fill="lightgrey" points="107.5,-406.1 104,-396.1 100.5,-406.1 107.5,-406.1" stroke="lightgrey"/>
  </g>
  <!-- 784E -->
  <g class="node" id="node8">
   <title>
    784E
   </title>
   <g id="a_node8">
    <a target="_parent" xlink:href="https://codeforces.com/problemset/problem/784/E" xlink:title="784E. Twisted Circuit">
     <polygon fill="none" points="171,-324 37,-324 37,-288 171,-288 171,-324" stroke="orange"/>
     <text font-family="Microsoft YaHei" font-size="12.00" text-anchor="middle" x="104" y="-302.9">
      784E. Twisted Circuit
     </text>
    </a>
   </g>
   <g transform="translate(163.0, -330.0) scale(0.3)">
    <circle cx="24" cy="24" fill="#4caf50" r="21"/>
    <polygon fill="#ccff90" points="34.6,14.6 21,28.2 15.4,22.6 12.6,25.4 21,33.8 37.4,17.4"/>
   </g>
  </g>
  <!-- 750A&#45;&gt;784E -->
  <g class="edge" id="edge7">
   <title>
    750A-&gt;784E
   </title>
   <path d="M104,-359.7C104,-351.98 104,-342.71 104,-334.11" fill="none" stroke="lightgrey"/>
   <polygon fill="lightgrey" points="107.5,-334.1 104,-324.1 100.5,-334.1 107.5,-334.1" stroke="lightgrey"/>
  </g>
  <!-- 785A -->
  <g class="node" id="node9">
   <title>
    785A
   </title>
   <g id="a_node9">
    <a target="_parent" xlink:href="https://codeforces.com/problemset/problem/785/A" xlink:title="785A. Anton and Polyhedrons">
     <polygon fill="none" points="197.5,-252 10.5,-252 10.5,-216 197.5,-216 197.5,-252" stroke="greenyellow"/>
     <text font-family="Microsoft YaHei" font-size="12.00" text-anchor="middle" x="104" y="-230.9">
      785A. Anton and Polyhedrons
     </text>
    </a>
   </g>
   <g transform="translate(189.5, -258.0) scale(0.3)">
    <circle cx="24" cy="24" fill="#4caf50" r="21"/>
    <polygon fill="#ccff90" points="34.6,14.6 21,28.2 15.4,22.6 12.6,25.4 21,33.8 37.4,17.4"/>
   </g>
  </g>
  <!-- 784E&#45;&gt;785A -->
  <g class="edge" id="edge8">
   <title>
    784E-&gt;785A
   </title>
   <path d="M104,-287.7C104,-279.98 104,-270.71 104,-262.11" fill="none" stroke="lightgrey"/>
   <polygon fill="lightgrey" points="107.5,-262.1 104,-252.1 100.5,-262.1 107.5,-262.1" stroke="lightgrey"/>
  </g>
  <!-- 802M -->
  <g class="node" id="node10">
   <title>
    802M
   </title>
   <g id="a_node10">
    <a target="_parent" xlink:href="https://codeforces.com/problemset/problem/802/M" xlink:title="802M. April Fools' Problem (easy)">
     <polygon fill="none" points="207,-180 1,-180 1,-144 207,-144 207,-180" stroke="orange"/>
     <text font-family="Microsoft YaHei" font-size="12.00" text-anchor="middle" x="104" y="-158.9">
      802M. April Fools' Problem (easy)
     </text>
    </a>
   </g>
   <g transform="translate(199.0, -186.0) scale(0.3)">
    <circle cx="24" cy="24" fill="#4caf50" r="21"/>
    <polygon fill="#ccff90" points="34.6,14.6 21,28.2 15.4,22.6 12.6,25.4 21,33.8 37.4,17.4"/>
   </g>
  </g>
  <!-- 785A&#45;&gt;802M -->
  <g class="edge" id="edge9">
   <title>
    785A-&gt;802M
   </title>
   <path d="M104,-215.7C104,-207.98 104,-198.71 104,-190.11" fill="none" stroke="lightgrey"/>
   <polygon fill="lightgrey" points="107.5,-190.1 104,-180.1 100.5,-190.1 107.5,-190.1" stroke="lightgrey"/>
  </g>
  <!-- 855A -->
  <g class="node" id="node11">
   <title>
    855A
   </title>
   <g id="a_node11">
    <a target="_parent" xlink:href="https://codeforces.com/problemset/problem/855/A" xlink:title="855A. Tom Riddle's Diary">
     <polygon fill="none" points="183,-108 25,-108 25,-72 183,-72 183,-108" stroke="greenyellow"/>
     <text font-family="Microsoft YaHei" font-size="12.00" text-anchor="middle" x="104" y="-86.9">
      855A. Tom Riddle's Diary
     </text>
    </a>
   </g>
   <g transform="translate(175.0, -114.0) scale(0.3)">
    <circle cx="24" cy="24" fill="#4caf50" r="21"/>
    <polygon fill="#ccff90" points="34.6,14.6 21,28.2 15.4,22.6 12.6,25.4 21,33.8 37.4,17.4"/>
   </g>
  </g>
  <!-- 802M&#45;&gt;855A -->
  <g class="edge" id="edge10">
   <title>
    802M-&gt;855A
   </title>
   <path d="M104,-143.7C104,-135.98 104,-126.71 104,-118.11" fill="none" stroke="lightgrey"/>
   <polygon fill="lightgrey" points="107.5,-118.1 104,-108.1 100.5,-118.1 107.5,-118.1" stroke="lightgrey"/>
  </g>
  <!-- 1157B -->
  <g class="node" id="node12">
   <title>
    1157B
   </title>
   <g id="a_node12">
    <a target="_parent" xlink:href="https://codeforces.com/problemset/problem/1157/B" xlink:title="1157B. Long Number">
     <polygon fill="none" points="172.5,-36 35.5,-36 35.5,0 172.5,0 172.5,-36" stroke="orange"/>
     <text font-family="Microsoft YaHei" font-size="12.00" text-anchor="middle" x="104" y="-14.9">
      1157B. Long Number
     </text>
    </a>
   </g>
   <g transform="translate(164.5, -42.0) scale(0.3)">
    <circle cx="24" cy="24" fill="#4caf50" r="21"/>
    <polygon fill="#ccff90" points="34.6,14.6 21,28.2 15.4,22.6 12.6,25.4 21,33.8 37.4,17.4"/>
   </g>
  </g>
  <!-- 855A&#45;&gt;1157B -->
  <g class="edge" id="edge11">
   <title>
    855A-&gt;1157B
   </title>
   <path d="M104,-71.7C104,-63.98 104,-54.71 104,-46.11" fill="none" stroke="lightgrey"/>
   <polygon fill="lightgrey" points="107.5,-46.1 104,-36.1 100.5,-46.1 107.5,-46.1" stroke="lightgrey"/>
  </g>
  <!-- 409H -->
  <g class="node" id="node14">
   <title>
    409H
   </title>
   <g id="a_node14">
    <a target="_parent" xlink:href="https://codeforces.com/problemset/problem/409/H" xlink:title="409H. A + B Strikes Back">
     <polygon fill="none" points="341.5,-684 184.5,-684 184.5,-648 341.5,-648 341.5,-684" stroke="orange"/>
     <text font-family="Microsoft YaHei" font-size="12.00" text-anchor="middle" x="263" y="-662.9">
      409H. A + B Strikes Back
     </text>
    </a>
   </g>
   <g transform="translate(333.5, -690.0) scale(0.3)">
    <circle cx="24" cy="24" fill="#4caf50" r="21"/>
    <polygon fill="#ccff90" points="34.6,14.6 21,28.2 15.4,22.6 12.6,25.4 21,33.8 37.4,17.4"/>
   </g>
  </g>
  <!-- Maths&#45;&gt;409H -->
  <g class="edge" id="edge13">
   <title>
    Maths-&gt;409H
   </title>
   <path d="M249.45,-719.7C251.45,-711.9 253.87,-702.51 256.1,-693.83" fill="none" stroke="lightgrey"/>
   <polygon fill="lightgrey" points="259.5,-694.66 258.6,-684.1 252.72,-692.92 259.5,-694.66" stroke="lightgrey"/>
  </g>
  <!-- 1156D -->
  <g class="node" id="node17">
   <title>
    1156D
   </title>
   <g id="a_node17">
    <a target="_parent" xlink:href="https://codeforces.com/problemset/problem/1156/D" xlink:title="1156D. 0-1-Tree">
     <polygon fill="none" points="570,-684 462,-684 462,-648 570,-648 570,-684" stroke="red"/>
     <text font-family="Microsoft YaHei" font-size="12.00" text-anchor="middle" x="516" y="-662.9">
      1156D. 0-1-Tree
     </text>
    </a>
   </g>
  </g>
  <!-- 动态规划&#45;树形DP&#45;&gt;1156D -->
  <g class="edge" id="edge16">
   <title>
    动态规划-树形DP-&gt;1156D
   </title>
   <path d="M529.55,-719.7C527.55,-711.9 525.13,-702.51 522.9,-693.83" fill="none" stroke="lightgrey"/>
   <polygon fill="lightgrey" points="526.28,-692.92 520.4,-684.1 519.5,-694.66 526.28,-692.92" stroke="lightgrey"/>
  </g>
  <!-- 1493B -->
  <g class="node" id="node19">
   <title>
    1493B
   </title>
   <g id="a_node19">
    <a target="_parent" xlink:href="https://codeforces.com/problemset/problem/1493/B" xlink:title="1493B. Planet Lapituletti">
     <polygon fill="none" points="743.5,-684 588.5,-684 588.5,-648 743.5,-648 743.5,-684" stroke="orange"/>
     <text font-family="Microsoft YaHei" font-size="12.00" text-anchor="middle" x="666" y="-662.9">
      1493B. Planet Lapituletti
     </text>
    </a>
   </g>
  </g>
  <!-- 模拟题&#45;&gt;1493B -->
  <g class="edge" id="edge18">
   <title>
    模拟题-&gt;1493B
   </title>
   <path d="M652.45,-719.7C654.45,-711.9 656.87,-702.51 659.1,-693.83" fill="none" stroke="lightgrey"/>
   <polygon fill="lightgrey" points="662.5,-694.66 661.6,-684.1 655.72,-692.92 662.5,-694.66" stroke="lightgrey"/>
  </g>
  <g class="key">
   <defs>
    <filter height="1.2" id="solid" width="1.2" x="-0.1" y="-0.1">
     <feFlood flood-color="#ccff90" result="bg"/>
     <feMerge>
      <feMergeNode in="bg"/>
      <feMergeNode in="SourceGraphic"/>
     </feMerge>
    </filter>
   </defs>
   <text filter="url(#solid)" font-family="Microsoft YaHei" font-size="10.00" text-anchor="middle" x="666.0" y="-643.0">
    时间模拟
   </text>
  </g>
 </g>
</svg>