<?xml version="1.0" encoding="UTF-8" standalone="no"?>
<!DOCTYPE svg PUBLIC "-//W3C//DTD SVG 1.1//EN"
 "http://www.w3.org/Graphics/SVG/1.1/DTD/svg11.dtd">
<!-- Generated by graphviz version 2.46.1 (20210213.1702)
 -->
<!-- Title: stones Pages: 1 -->
<svg width="530pt" height="404pt"
 viewBox="0.00 0.00 530.00 404.00" xmlns="http://www.w3.org/2000/svg" xmlns:xlink="http://www.w3.org/1999/xlink">
<g id="graph0" class="graph" transform="scale(1 1) rotate(0) translate(4 400)">
<title>stones</title>
<polygon fill="white" stroke="transparent" points="-4,4 -4,-400 526,-400 526,4 -4,4"/>
<!-- Codeforces -->
<g id="node1" class="node">
<title>Codeforces</title>
<g id="a_node1"><a xlink:href="https://codeforces.com/problemset" xlink:title="Codeforces(6)" target="_parent">
<polygon fill="orangered" stroke="lightgrey" points="319,-396 207,-396 207,-360 319,-360 319,-396"/>
<text text-anchor="middle" x="263" y="-374.3" font-family="Microsoft YaHei" font-size="14.00" fill="white">Codeforces(6)</text>
</a>
</g>
</g>
<!-- 基础题 -->
<g id="node2" class="node">
<title>基础题</title>
<polygon fill="lightslategray" stroke="lightgrey" points="174.5,-324 107.5,-324 107.5,-288 174.5,-288 174.5,-324"/>
<text text-anchor="middle" x="141" y="-302.9" font-family="Microsoft YaHei" font-size="12.00" fill="white">基础题(4)</text>
</g>
<!-- Codeforces&#45;&gt;基础题 -->
<g id="edge1" class="edge">
<title>Codeforces&#45;&gt;基础题</title>
<path fill="none" stroke="lightgrey" d="M233.16,-359.88C217.06,-350.64 197,-339.13 179.71,-329.21"/>
<polygon fill="lightgrey" stroke="lightgrey" points="181.37,-326.13 170.96,-324.19 177.89,-332.2 181.37,-326.13"/>
</g>
<!-- Maths -->
<g id="node7" class="node">
<title>Maths</title>
<polygon fill="lightslategray" stroke="lightgrey" points="296.5,-324 229.5,-324 229.5,-288 296.5,-288 296.5,-324"/>
<text text-anchor="middle" x="263" y="-302.9" font-family="Microsoft YaHei" font-size="12.00" fill="white">Maths(1)</text>
</g>
<!-- Codeforces&#45;&gt;Maths -->
<g id="edge6" class="edge">
<title>Codeforces&#45;&gt;Maths</title>
<path fill="none" stroke="lightgrey" d="M263,-359.7C263,-351.98 263,-342.71 263,-334.11"/>
<polygon fill="lightgrey" stroke="lightgrey" points="266.5,-334.1 263,-324.1 259.5,-334.1 266.5,-334.1"/>
</g>
<!-- 数论&#45;扩展欧几里得算法 -->
<g id="node9" class="node">
<title>数论&#45;扩展欧几里得算法</title>
<polygon fill="lightslategray" stroke="lightgrey" points="495,-324 339,-324 339,-288 495,-288 495,-324"/>
<text text-anchor="middle" x="417" y="-302.9" font-family="Microsoft YaHei" font-size="12.00" fill="white">数论&#45;扩展欧几里得算法(1)</text>
</g>
<!-- Codeforces&#45;&gt;数论&#45;扩展欧几里得算法 -->
<g id="edge8" class="edge">
<title>Codeforces&#45;&gt;数论&#45;扩展欧几里得算法</title>
<path fill="none" stroke="lightgrey" d="M300.67,-359.88C321.63,-350.35 347.9,-338.41 370.18,-328.28"/>
<polygon fill="lightgrey" stroke="lightgrey" points="371.79,-331.39 379.45,-324.07 368.9,-325.02 371.79,-331.39"/>
</g>
<!-- 1A -->
<g id="node3" class="node">
<title>1A</title>
<g id="a_node3"><a xlink:href="https://codeforces.com/problemset/problem/1/A" xlink:title="1A. Theatre Square" target="_parent">
<polygon fill="lawngreen" stroke="greenyellow" points="166.5,-252 41.5,-252 41.5,-216 166.5,-216 166.5,-252"/>
<text text-anchor="middle" x="104" y="-230.9" font-family="Microsoft YaHei" font-size="12.00">1A. Theatre Square</text>
</a>
</g>
</g>
<!-- 基础题&#45;&gt;1A -->
<g id="edge2" class="edge">
<title>基础题&#45;&gt;1A</title>
<path fill="none" stroke="lightgrey" d="M131.85,-287.7C127.6,-279.64 122.44,-269.89 117.73,-260.98"/>
<polygon fill="lightgrey" stroke="lightgrey" points="120.81,-259.31 113.04,-252.1 114.62,-262.58 120.81,-259.31"/>
</g>
<!-- 4A -->
<g id="node4" class="node">
<title>4A</title>
<g id="a_node4"><a xlink:href="https://codeforces.com/problemset/problem/4/A" xlink:title="4A. Watermelon" target="_parent">
<polygon fill="lawngreen" stroke="greenyellow" points="158.5,-180 49.5,-180 49.5,-144 158.5,-144 158.5,-180"/>
<text text-anchor="middle" x="104" y="-158.9" font-family="Microsoft YaHei" font-size="12.00">4A. Watermelon</text>
</a>
</g>
</g>
<!-- 1A&#45;&gt;4A -->
<g id="edge3" class="edge">
<title>1A&#45;&gt;4A</title>
<path fill="none" stroke="lightgrey" d="M104,-215.7C104,-207.98 104,-198.71 104,-190.11"/>
<polygon fill="lightgrey" stroke="lightgrey" points="107.5,-190.1 104,-180.1 100.5,-190.1 107.5,-190.1"/>
</g>
<!-- 5A -->
<g id="node5" class="node">
<title>5A</title>
<g id="a_node5"><a xlink:href="https://codeforces.com/problemset/problem/5/A" xlink:title="5A. Chat Servers Outgoing Traffic" target="_parent">
<polygon fill="lawngreen" stroke="greenyellow" points="208,-108 0,-108 0,-72 208,-72 208,-108"/>
<text text-anchor="middle" x="104" y="-86.9" font-family="Microsoft YaHei" font-size="12.00">5A. Chat Servers Outgoing Traffic</text>
</a>
</g>
</g>
<!-- 4A&#45;&gt;5A -->
<g id="edge4" class="edge">
<title>4A&#45;&gt;5A</title>
<path fill="none" stroke="lightgrey" d="M104,-143.7C104,-135.98 104,-126.71 104,-118.11"/>
<polygon fill="lightgrey" stroke="lightgrey" points="107.5,-118.1 104,-108.1 100.5,-118.1 107.5,-118.1"/>
</g>
<!-- 6A -->
<g id="node6" class="node">
<title>6A</title>
<g id="a_node6"><a xlink:href="https://codeforces.com/problemset/problem/6/A" xlink:title="6A. Triangle" target="_parent">
<polygon fill="lawngreen" stroke="greenyellow" points="146,-36 62,-36 62,0 146,0 146,-36"/>
<text text-anchor="middle" x="104" y="-14.9" font-family="Microsoft YaHei" font-size="12.00">6A. Triangle</text>
</a>
</g>
</g>
<!-- 5A&#45;&gt;6A -->
<g id="edge5" class="edge">
<title>5A&#45;&gt;6A</title>
<path fill="none" stroke="lightgrey" d="M104,-71.7C104,-63.98 104,-54.71 104,-46.11"/>
<polygon fill="lightgrey" stroke="lightgrey" points="107.5,-46.1 104,-36.1 100.5,-46.1 107.5,-46.1"/>
</g>
<!-- 409H -->
<g id="node8" class="node">
<title>409H</title>
<g id="a_node8"><a xlink:href="https://codeforces.com/problemset/problem/409/H" xlink:title="409H. A + B Strikes Back" target="_parent">
<polygon fill="lawngreen" stroke="orange" points="341.5,-252 184.5,-252 184.5,-216 341.5,-216 341.5,-252"/>
<text text-anchor="middle" x="263" y="-230.9" font-family="Microsoft YaHei" font-size="12.00">409H. A + B Strikes Back</text>
</a>
</g>
</g>
<!-- Maths&#45;&gt;409H -->
<g id="edge7" class="edge">
<title>Maths&#45;&gt;409H</title>
<path fill="none" stroke="lightgrey" d="M263,-287.7C263,-279.98 263,-270.71 263,-262.11"/>
<polygon fill="lightgrey" stroke="lightgrey" points="266.5,-262.1 263,-252.1 259.5,-262.1 266.5,-262.1"/>
</g>
<!-- 1478D -->
<g id="node10" class="node">
<title>1478D</title>
<g id="a_node10"><a xlink:href="https://codeforces.com/problemset/problem/1477/A" xlink:title="1478D. Nezzar and Board" target="_parent">
<polygon fill="none" stroke="orange" points="522,-252 360,-252 360,-216 522,-216 522,-252"/>
<text text-anchor="middle" x="441" y="-230.9" font-family="Microsoft YaHei" font-size="12.00">1478D. Nezzar and Board</text>
</a>
</g>
</g>
<!-- 数论&#45;扩展欧几里得算法&#45;&gt;1478D -->
<g id="edge9" class="edge">
<title>数论&#45;扩展欧几里得算法&#45;&gt;1478D</title>
<path fill="none" stroke="lightgrey" d="M422.93,-287.7C425.61,-279.9 428.83,-270.51 431.8,-261.83"/>
<polygon fill="lightgrey" stroke="lightgrey" points="435.2,-262.7 435.14,-252.1 428.58,-260.43 435.2,-262.7"/>
</g>
</g>
</svg>
