<?xml version="1.0" encoding="utf-8"?>
<!DOCTYPE svg PUBLIC "-//W3C//DTD SVG 1.1//EN" "http://www.w3.org/Graphics/SVG/1.1/DTD/svg11.dtd">
<!-- Generated by graphviz version 2.50.0 (20211204.2007)
 -->
<!-- Title: stones Pages: 1 -->
<svg height="886pt" viewBox="0.00 0.00 879.5 886.0" width="880pt" xmlns="http://www.w3.org/2000/svg" xmlns:xlink="http://www.w3.org/1999/xlink">
 <g class="graph" id="graph0" transform="scale(1 1) rotate(0) translate(4 832)">
  <title>
   stones
  </title>
  <polygon fill="white" points="-4,4 -4,-832 825.5,-832 825.5,4 -4,4" stroke="transparent"/>
  <!-- Codeforces -->
  <g class="node" id="node1">
   <title>
    Codeforces
   </title>
   <g id="a_node1">
    <a target="_parent" xlink:href="https://codeforces.com/problemset" xlink:title="Codeforces(14)">
     <polygon fill="orangered" points="495,-828 375,-828 375,-792 495,-792 495,-828" stroke="lightgrey"/>
     <text fill="white" font-family="Microsoft YaHei" font-size="14.00" text-anchor="middle" x="435" y="-806.3">
      Codeforces(14)
     </text>
    </a>
   </g>
  </g>
  <!-- 基础题 -->
  <g class="node" id="node2">
   <title>
    基础题
   </title>
   <polygon fill="lightslategray" points="197,-756 123,-756 123,-720 197,-720 197,-756" stroke="lightgrey"/>
   <text fill="white" font-family="Microsoft YaHei" font-size="12.00" text-anchor="middle" x="160" y="-734.9">
    基础题(10)
   </text>
  </g>
  <!-- Codeforces&#45;&gt;基础题 -->
  <g class="edge" id="edge1">
   <title>
    Codeforces-&gt;基础题
   </title>
   <path d="M374.99,-793.72C324.49,-780.87 253.28,-762.74 206.88,-750.93" fill="none" stroke="lightgrey"/>
   <polygon fill="lightgrey" points="207.64,-747.52 197.09,-748.44 205.92,-754.3 207.64,-747.52" stroke="lightgrey"/>
  </g>
  <!-- Maths -->
  <g class="node" id="node13">
   <title>
    Maths
   </title>
   <polygon fill="lightslategray" points="317.5,-756 250.5,-756 250.5,-720 317.5,-720 317.5,-756" stroke="lightgrey"/>
   <text fill="white" font-family="Microsoft YaHei" font-size="12.00" text-anchor="middle" x="284" y="-734.9">
    Maths(1)
   </text>
  </g>
  <!-- Codeforces&#45;&gt;Maths -->
  <g class="edge" id="edge12">
   <title>
    Codeforces-&gt;Maths
   </title>
   <path d="M398.06,-791.88C376.59,-781.92 349.44,-769.34 327.01,-758.94" fill="none" stroke="lightgrey"/>
   <polygon fill="lightgrey" points="328.27,-755.66 317.72,-754.63 325.32,-762.01 328.27,-755.66" stroke="lightgrey"/>
  </g>
  <!-- 数论&#45;扩展欧几里得算法 -->
  <g class="node" id="node15">
   <title>
    数论-扩展欧几里得算法
   </title>
   <polygon fill="lightslategray" points="513,-756 357,-756 357,-720 513,-720 513,-756" stroke="lightgrey"/>
   <text fill="white" font-family="Microsoft YaHei" font-size="12.00" text-anchor="middle" x="435" y="-734.9">
    数论-扩展欧几里得算法(1)
   </text>
  </g>
  <!-- Codeforces&#45;&gt;数论&#45;扩展欧几里得算法 -->
  <g class="edge" id="edge14">
   <title>
    Codeforces-&gt;数论-扩展欧几里得算法
   </title>
   <path d="M435,-791.7C435,-783.98 435,-774.71 435,-766.11" fill="none" stroke="lightgrey"/>
   <polygon fill="lightgrey" points="438.5,-766.1 435,-756.1 431.5,-766.1 438.5,-766.1" stroke="lightgrey"/>
  </g>
  <!-- 动态规划&#45;树形DP -->
  <g class="node" id="node17">
   <title>
    动态规划-树形DP
   </title>
   <polygon fill="lightslategray" points="656.5,-756 531.5,-756 531.5,-720 656.5,-720 656.5,-756" stroke="lightgrey"/>
   <text fill="white" font-family="Microsoft YaHei" font-size="12.00" text-anchor="middle" x="594" y="-734.9">
    动态规划-树形DP(1)
   </text>
  </g>
  <!-- Codeforces&#45;&gt;动态规划&#45;树形DP -->
  <g class="edge" id="edge16">
   <title>
    Codeforces-&gt;动态规划-树形DP
   </title>
   <path d="M473.9,-791.88C495.63,-782.31 522.9,-770.3 545.96,-760.15" fill="none" stroke="lightgrey"/>
   <polygon fill="lightgrey" points="547.49,-763.3 555.23,-756.07 544.67,-756.89 547.49,-763.3" stroke="lightgrey"/>
  </g>
  <!-- 模拟题 -->
  <g class="node" id="node19">
   <title>
    模拟题
   </title>
   <polygon fill="lightslategray" points="759.5,-756 692.5,-756 692.5,-720 759.5,-720 759.5,-756" stroke="lightgrey"/>
   <text fill="white" font-family="Microsoft YaHei" font-size="12.00" text-anchor="middle" x="726" y="-734.9">
    模拟题(1)
   </text>
  </g>
  <!-- Codeforces&#45;&gt;模拟题 -->
  <g class="edge" id="edge18">
   <title>
    Codeforces-&gt;模拟题
   </title>
   <path d="M495.03,-796.1C541.77,-785.84 608.2,-770.81 666,-756 671.38,-754.62 677,-753.12 682.57,-751.59" fill="none" stroke="lightgrey"/>
   <polygon fill="lightgrey" points="683.75,-754.89 692.44,-748.83 681.87,-748.15 683.75,-754.89" stroke="lightgrey"/>
  </g>
  <!-- 1A -->
  <g class="node" id="node3">
   <title>
    1A
   </title>
   <g id="a_node3">
    <a target="_parent" xlink:href="https://codeforces.com/problemset/problem/1/A" xlink:title="1A. Theatre Square">
     <polygon fill="none" points="166.5,-684 41.5,-684 41.5,-648 166.5,-648 166.5,-684" stroke="greenyellow"/>
     <text font-family="Microsoft YaHei" font-size="12.00" text-anchor="middle" x="104" y="-662.9">
      1A. Theatre Square
     </text>
    </a>
   </g>
   <g transform="translate(158.5, -690.0) scale(0.3)">
    <circle cx="24" cy="24" fill="#4caf50" r="21"/>
    <polygon fill="#ccff90" points="34.6,14.6 21,28.2 15.4,22.6 12.6,25.4 21,33.8 37.4,17.4"/>
   </g>
  </g>
  <!-- 基础题&#45;&gt;1A -->
  <g class="edge" id="edge2">
   <title>
    基础题-&gt;1A
   </title>
   <path d="M146.16,-719.7C139.51,-711.39 131.42,-701.28 124.11,-692.14" fill="none" stroke="lightgrey"/>
   <polygon fill="lightgrey" points="126.66,-689.73 117.68,-684.1 121.2,-694.1 126.66,-689.73" stroke="lightgrey"/>
  </g>
  <!-- 4A -->
  <g class="node" id="node4">
   <title>
    4A
   </title>
   <g id="a_node4">
    <a target="_parent" xlink:href="https://codeforces.com/problemset/problem/4/A" xlink:title="4A. Watermelon">
     <polygon fill="none" points="158.5,-612 49.5,-612 49.5,-576 158.5,-576 158.5,-612" stroke="greenyellow"/>
     <text font-family="Microsoft YaHei" font-size="12.00" text-anchor="middle" x="104" y="-590.9">
      4A. Watermelon
     </text>
    </a>
   </g>
   <g transform="translate(150.5, -618.0) scale(0.3)">
    <circle cx="24" cy="24" fill="#4caf50" r="21"/>
    <polygon fill="#ccff90" points="34.6,14.6 21,28.2 15.4,22.6 12.6,25.4 21,33.8 37.4,17.4"/>
   </g>
  </g>
  <!-- 1A&#45;&gt;4A -->
  <g class="edge" id="edge3">
   <title>
    1A-&gt;4A
   </title>
   <path d="M104,-647.7C104,-639.98 104,-630.71 104,-622.11" fill="none" stroke="lightgrey"/>
   <polygon fill="lightgrey" points="107.5,-622.1 104,-612.1 100.5,-622.1 107.5,-622.1" stroke="lightgrey"/>
  </g>
  <!-- 5A -->
  <g class="node" id="node5">
   <title>
    5A
   </title>
   <g id="a_node5">
    <a target="_parent" xlink:href="https://codeforces.com/problemset/problem/5/A" xlink:title="5A. Chat Servers Outgoing Traffic">
     <polygon fill="none" points="208,-540 0,-540 0,-504 208,-504 208,-540" stroke="greenyellow"/>
     <text font-family="Microsoft YaHei" font-size="12.00" text-anchor="middle" x="104" y="-518.9">
      5A. Chat Servers Outgoing Traffic
     </text>
    </a>
   </g>
   <g transform="translate(200.0, -546.0) scale(0.3)">
    <circle cx="24" cy="24" fill="#4caf50" r="21"/>
    <polygon fill="#ccff90" points="34.6,14.6 21,28.2 15.4,22.6 12.6,25.4 21,33.8 37.4,17.4"/>
   </g>
  </g>
  <!-- 4A&#45;&gt;5A -->
  <g class="edge" id="edge4">
   <title>
    4A-&gt;5A
   </title>
   <path d="M104,-575.7C104,-567.98 104,-558.71 104,-550.11" fill="none" stroke="lightgrey"/>
   <polygon fill="lightgrey" points="107.5,-550.1 104,-540.1 100.5,-550.1 107.5,-550.1" stroke="lightgrey"/>
  </g>
  <!-- 6A -->
  <g class="node" id="node6">
   <title>
    6A
   </title>
   <g id="a_node6">
    <a target="_parent" xlink:href="https://codeforces.com/problemset/problem/6/A" xlink:title="6A. Triangle">
     <polygon fill="none" points="146,-468 62,-468 62,-432 146,-432 146,-468" stroke="greenyellow"/>
     <text font-family="Microsoft YaHei" font-size="12.00" text-anchor="middle" x="104" y="-446.9">
      6A. Triangle
     </text>
    </a>
   </g>
   <g transform="translate(138.0, -474.0) scale(0.3)">
    <circle cx="24" cy="24" fill="#4caf50" r="21"/>
    <polygon fill="#ccff90" points="34.6,14.6 21,28.2 15.4,22.6 12.6,25.4 21,33.8 37.4,17.4"/>
   </g>
  </g>
  <!-- 5A&#45;&gt;6A -->
  <g class="edge" id="edge5">
   <title>
    5A-&gt;6A
   </title>
   <path d="M104,-503.7C104,-495.98 104,-486.71 104,-478.11" fill="none" stroke="lightgrey"/>
   <polygon fill="lightgrey" points="107.5,-478.1 104,-468.1 100.5,-478.1 107.5,-478.1" stroke="lightgrey"/>
  </g>
  <!-- 750A -->
  <g class="node" id="node7">
   <title>
    750A
   </title>
   <g id="a_node7">
    <a target="_parent" xlink:href="https://codeforces.com/problemset/problem/750/A" xlink:title="750A. New Year and Hurry">
     <polygon fill="none" points="188,-396 20,-396 20,-360 188,-360 188,-396" stroke="greenyellow"/>
     <text font-family="Microsoft YaHei" font-size="12.00" text-anchor="middle" x="104" y="-374.9">
      750A. New Year and Hurry
     </text>
    </a>
   </g>
   <g transform="translate(180.0, -402.0) scale(0.3)">
    <circle cx="24" cy="24" fill="#4caf50" r="21"/>
    <polygon fill="#ccff90" points="34.6,14.6 21,28.2 15.4,22.6 12.6,25.4 21,33.8 37.4,17.4"/>
   </g>
  </g>
  <!-- 6A&#45;&gt;750A -->
  <g class="edge" id="edge6">
   <title>
    6A-&gt;750A
   </title>
   <path d="M104,-431.7C104,-423.98 104,-414.71 104,-406.11" fill="none" stroke="lightgrey"/>
   <polygon fill="lightgrey" points="107.5,-406.1 104,-396.1 100.5,-406.1 107.5,-406.1" stroke="lightgrey"/>
  </g>
  <!-- 784E -->
  <g class="node" id="node8">
   <title>
    784E
   </title>
   <g id="a_node8">
    <a target="_parent" xlink:href="https://codeforces.com/problemset/problem/784/E" xlink:title="784E. Twisted Circuit">
     <polygon fill="none" points="171,-324 37,-324 37,-288 171,-288 171,-324" stroke="orange"/>
     <text font-family="Microsoft YaHei" font-size="12.00" text-anchor="middle" x="104" y="-302.9">
      784E. Twisted Circuit
     </text>
    </a>
   </g>
   <g transform="translate(163.0, -330.0) scale(0.3)">
    <circle cx="24" cy="24" fill="#4caf50" r="21"/>
    <polygon fill="#ccff90" points="34.6,14.6 21,28.2 15.4,22.6 12.6,25.4 21,33.8 37.4,17.4"/>
   </g>
  </g>
  <!-- 750A&#45;&gt;784E -->
  <g class="edge" id="edge7">
   <title>
    750A-&gt;784E
   </title>
   <path d="M104,-359.7C104,-351.98 104,-342.71 104,-334.11" fill="none" stroke="lightgrey"/>
   <polygon fill="lightgrey" points="107.5,-334.1 104,-324.1 100.5,-334.1 107.5,-334.1" stroke="lightgrey"/>
  </g>
  <!-- 785A -->
  <g class="node" id="node9">
   <title>
    785A
   </title>
   <g id="a_node9">
    <a target="_parent" xlink:href="https://codeforces.com/problemset/problem/785/A" xlink:title="785A. Anton and Polyhedrons">
     <polygon fill="none" points="197.5,-252 10.5,-252 10.5,-216 197.5,-216 197.5,-252" stroke="greenyellow"/>
     <text font-family="Microsoft YaHei" font-size="12.00" text-anchor="middle" x="104" y="-230.9">
      785A. Anton and Polyhedrons
     </text>
    </a>
   </g>
   <g transform="translate(189.5, -258.0) scale(0.3)">
    <circle cx="24" cy="24" fill="#4caf50" r="21"/>
    <polygon fill="#ccff90" points="34.6,14.6 21,28.2 15.4,22.6 12.6,25.4 21,33.8 37.4,17.4"/>
   </g>
  </g>
  <!-- 784E&#45;&gt;785A -->
  <g class="edge" id="edge8">
   <title>
    784E-&gt;785A
   </title>
   <path d="M104,-287.7C104,-279.98 104,-270.71 104,-262.11" fill="none" stroke="lightgrey"/>
   <polygon fill="lightgrey" points="107.5,-262.1 104,-252.1 100.5,-262.1 107.5,-262.1" stroke="lightgrey"/>
  </g>
  <!-- 802M -->
  <g class="node" id="node10">
   <title>
    802M
   </title>
   <g id="a_node10">
    <a target="_parent" xlink:href="https://codeforces.com/problemset/problem/802/M" xlink:title="802M. April Fools' Problem (easy)">
     <polygon fill="none" points="207,-180 1,-180 1,-144 207,-144 207,-180" stroke="orange"/>
     <text font-family="Microsoft YaHei" font-size="12.00" text-anchor="middle" x="104" y="-158.9">
      802M. April Fools' Problem (easy)
     </text>
    </a>
   </g>
   <g transform="translate(199.0, -186.0) scale(0.3)">
    <circle cx="24" cy="24" fill="#4caf50" r="21"/>
    <polygon fill="#ccff90" points="34.6,14.6 21,28.2 15.4,22.6 12.6,25.4 21,33.8 37.4,17.4"/>
   </g>
  </g>
  <!-- 785A&#45;&gt;802M -->
  <g class="edge" id="edge9">
   <title>
    785A-&gt;802M
   </title>
   <path d="M104,-215.7C104,-207.98 104,-198.71 104,-190.11" fill="none" stroke="lightgrey"/>
   <polygon fill="lightgrey" points="107.5,-190.1 104,-180.1 100.5,-190.1 107.5,-190.1" stroke="lightgrey"/>
  </g>
  <!-- 855A -->
  <g class="node" id="node11">
   <title>
    855A
   </title>
   <g id="a_node11">
    <a target="_parent" xlink:href="https://codeforces.com/problemset/problem/855/A" xlink:title="855A. Tom Riddle's Diary">
     <polygon fill="none" points="183,-108 25,-108 25,-72 183,-72 183,-108" stroke="greenyellow"/>
     <text font-family="Microsoft YaHei" font-size="12.00" text-anchor="middle" x="104" y="-86.9">
      855A. Tom Riddle's Diary
     </text>
    </a>
   </g>
   <g transform="translate(175.0, -114.0) scale(0.3)">
    <circle cx="24" cy="24" fill="#4caf50" r="21"/>
    <polygon fill="#ccff90" points="34.6,14.6 21,28.2 15.4,22.6 12.6,25.4 21,33.8 37.4,17.4"/>
   </g>
  </g>
  <!-- 802M&#45;&gt;855A -->
  <g class="edge" id="edge10">
   <title>
    802M-&gt;855A
   </title>
   <path d="M104,-143.7C104,-135.98 104,-126.71 104,-118.11" fill="none" stroke="lightgrey"/>
   <polygon fill="lightgrey" points="107.5,-118.1 104,-108.1 100.5,-118.1 107.5,-118.1" stroke="lightgrey"/>
  </g>
  <!-- 1157B -->
  <g class="node" id="node12">
   <title>
    1157B
   </title>
   <g id="a_node12">
    <a target="_parent" xlink:href="https://codeforces.com/problemset/problem/1157/B" xlink:title="1157B. Long Number">
     <polygon fill="none" points="172.5,-36 35.5,-36 35.5,0 172.5,0 172.5,-36" stroke="orange"/>
     <text font-family="Microsoft YaHei" font-size="12.00" text-anchor="middle" x="104" y="-14.9">
      1157B. Long Number
     </text>
    </a>
   </g>
   <g transform="translate(164.5, -42.0) scale(0.3)">
    <circle cx="24" cy="24" fill="#4caf50" r="21"/>
    <polygon fill="#ccff90" points="34.6,14.6 21,28.2 15.4,22.6 12.6,25.4 21,33.8 37.4,17.4"/>
   </g>
  </g>
  <!-- 855A&#45;&gt;1157B -->
  <g class="edge" id="edge11">
   <title>
    855A-&gt;1157B
   </title>
   <path d="M104,-71.7C104,-63.98 104,-54.71 104,-46.11" fill="none" stroke="lightgrey"/>
   <polygon fill="lightgrey" points="107.5,-46.1 104,-36.1 100.5,-46.1 107.5,-46.1" stroke="lightgrey"/>
  </g>
  <!-- 409H -->
  <g class="node" id="node14">
   <title>
    409H
   </title>
   <g id="a_node14">
    <a target="_parent" xlink:href="https://codeforces.com/problemset/problem/409/H" xlink:title="409H. A + B Strikes Back">
     <polygon fill="none" points="341.5,-684 184.5,-684 184.5,-648 341.5,-648 341.5,-684" stroke="orange"/>
     <text font-family="Microsoft YaHei" font-size="12.00" text-anchor="middle" x="263" y="-662.9">
      409H. A + B Strikes Back
     </text>
    </a>
   </g>
   <g transform="translate(333.5, -690.0) scale(0.3)">
    <circle cx="24" cy="24" fill="#4caf50" r="21"/>
    <polygon fill="#ccff90" points="34.6,14.6 21,28.2 15.4,22.6 12.6,25.4 21,33.8 37.4,17.4"/>
   </g>
  </g>
  <!-- Maths&#45;&gt;409H -->
  <g class="edge" id="edge13">
   <title>
    Maths-&gt;409H
   </title>
   <path d="M278.81,-719.7C276.47,-711.9 273.65,-702.51 271.05,-693.83" fill="none" stroke="lightgrey"/>
   <polygon fill="lightgrey" points="274.36,-692.68 268.13,-684.1 267.65,-694.69 274.36,-692.68" stroke="lightgrey"/>
  </g>
  <!-- 1478D -->
  <g class="node" id="node16">
   <title>
    1478D
   </title>
   <g id="a_node16">
    <a target="_parent" xlink:href="https://codeforces.com/problemset/problem/1477/A" xlink:title="1478D. Nezzar and Board">
     <polygon fill="none" points="522,-684 360,-684 360,-648 522,-648 522,-684" stroke="orange"/>
     <text font-family="Microsoft YaHei" font-size="12.00" text-anchor="middle" x="441" y="-662.9">
      1478D. Nezzar and Board
     </text>
    </a>
   </g>
  </g>
  <!-- 数论&#45;扩展欧几里得算法&#45;&gt;1478D -->
  <g class="edge" id="edge15">
   <title>
    数论-扩展欧几里得算法-&gt;1478D
   </title>
   <path d="M436.48,-719.7C437.14,-711.98 437.94,-702.71 438.68,-694.11" fill="none" stroke="lightgrey"/>
   <polygon fill="lightgrey" points="442.17,-694.37 439.53,-684.1 435.19,-693.77 442.17,-694.37" stroke="lightgrey"/>
  </g>
  <!-- 1156D -->
  <g class="node" id="node18">
   <title>
    1156D
   </title>
   <g id="a_node18">
    <a target="_parent" xlink:href="https://codeforces.com/problemset/problem/1156/D" xlink:title="1156D. 0-1-Tree">
     <polygon fill="none" points="648,-684 540,-684 540,-648 648,-648 648,-684" stroke="red"/>
     <text font-family="Microsoft YaHei" font-size="12.00" text-anchor="middle" x="594" y="-662.9">
      1156D. 0-1-Tree
     </text>
    </a>
   </g>
  </g>
  <!-- 动态规划&#45;树形DP&#45;&gt;1156D -->
  <g class="edge" id="edge17">
   <title>
    动态规划-树形DP-&gt;1156D
   </title>
   <path d="M594,-719.7C594,-711.98 594,-702.71 594,-694.11" fill="none" stroke="lightgrey"/>
   <polygon fill="lightgrey" points="597.5,-694.1 594,-684.1 590.5,-694.1 597.5,-694.1" stroke="lightgrey"/>
  </g>
  <!-- 1493B -->
  <g class="node" id="node20">
   <title>
    1493B
   </title>
   <g id="a_node20">
    <a target="_parent" xlink:href="https://codeforces.com/problemset/problem/1493/B" xlink:title="1493B. Planet Lapituletti">
     <polygon fill="none" points="821.5,-684 666.5,-684 666.5,-648 821.5,-648 821.5,-684" stroke="orange"/>
     <text font-family="Microsoft YaHei" font-size="12.00" text-anchor="middle" x="744" y="-662.9">
      1493B. Planet Lapituletti
     </text>
    </a>
   </g>
  </g>
  <!-- 模拟题&#45;&gt;1493B -->
  <g class="edge" id="edge19">
   <title>
    模拟题-&gt;1493B
   </title>
   <path d="M730.45,-719.7C732.45,-711.9 734.87,-702.51 737.1,-693.83" fill="none" stroke="lightgrey"/>
   <polygon fill="lightgrey" points="740.5,-694.66 739.6,-684.1 733.72,-692.92 740.5,-694.66" stroke="lightgrey"/>
  </g>
  <g class="key">
   <defs>
    <filter height="1.2" id="solid" width="1.2" x="-0.1" y="-0.1">
     <feFlood flood-color="#ccff90" result="bg"/>
     <feMerge>
      <feMergeNode in="bg"/>
      <feMergeNode in="SourceGraphic"/>
     </feMerge>
    </filter>
   </defs>
   <text filter="url(#solid)" font-family="Microsoft YaHei" font-size="10.00" text-anchor="middle" x="744.0" y="-643.0">
    时间模拟
   </text>
  </g>
 </g>
</svg>