<?xml version="1.0" encoding="utf-8"?>
<!DOCTYPE svg PUBLIC "-//W3C//DTD SVG 1.1//EN" "http://www.w3.org/Graphics/SVG/1.1/DTD/svg11.dtd">
<!-- Generated by graphviz version 2.46.1 (20210213.1702)
 -->
<!-- Title: stones Pages: 1 -->
<svg height="310pt" viewBox="0.00 0.00 377.5 310.0" width="378pt" xmlns="http://www.w3.org/2000/svg" xmlns:xlink="http://www.w3.org/1999/xlink">
 <g class="graph" id="graph0" transform="scale(1 1) rotate(0) translate(4 256)">
  <title>
   stones
  </title>
  <polygon fill="white" points="-4,4 -4,-256 323.5,-256 323.5,4 -4,4" stroke="transparent"/>
  <!-- Leetcode&#45;小众题 -->
  <g class="node" id="node1">
   <title>
    Leetcode-小众题
   </title>
   <g id="a_node1">
    <a target="_parent" xlink:href="https://leetcode-cn.com/tag/" xlink:title="Leetcode-小众题(4)">
     <polygon fill="orangered" points="249,-252 104,-252 104,-216 249,-216 249,-252" stroke="lightgrey"/>
     <text fill="white" font-family="Microsoft YaHei" font-size="14.00" text-anchor="middle" x="176.5" y="-230.3">
      Leetcode-小众题(4)
     </text>
    </a>
   </g>
  </g>
  <!-- 拒绝采样 -->
  <g class="node" id="node2">
   <title>
    拒绝采样
   </title>
   <polygon fill="lightslategray" points="165,-180 86,-180 86,-144 165,-144 165,-180" stroke="lightgrey"/>
   <text fill="white" font-family="Microsoft YaHei" font-size="12.00" text-anchor="middle" x="125.5" y="-158.9">
    拒绝采样(2)
   </text>
  </g>
  <!-- Leetcode&#45;小众题&#45;&gt;拒绝采样 -->
  <g class="edge" id="edge1">
   <title>
    Leetcode-小众题-&gt;拒绝采样
   </title>
   <path d="M163.89,-215.7C157.9,-207.47 150.62,-197.48 144.02,-188.42" fill="none" stroke="lightgrey"/>
   <polygon fill="lightgrey" points="146.68,-186.13 137.96,-180.1 141.02,-190.25 146.68,-186.13" stroke="lightgrey"/>
  </g>
  <!-- 蓄水池采样 -->
  <g class="node" id="node5">
   <title>
    蓄水池采样
   </title>
   <polygon fill="lightslategray" points="290,-180 199,-180 199,-144 290,-144 290,-180" stroke="lightgrey"/>
   <text fill="white" font-family="Microsoft YaHei" font-size="12.00" text-anchor="middle" x="244.5" y="-158.9">
    蓄水池采样(2)
   </text>
  </g>
  <!-- Leetcode&#45;小众题&#45;&gt;蓄水池采样 -->
  <g class="edge" id="edge4">
   <title>
    Leetcode-小众题-&gt;蓄水池采样
   </title>
   <path d="M193.31,-215.7C201.63,-207.14 211.81,-196.66 220.89,-187.3" fill="none" stroke="lightgrey"/>
   <polygon fill="lightgrey" points="223.43,-189.72 227.88,-180.1 218.41,-184.84 223.43,-189.72" stroke="lightgrey"/>
  </g>
  <!-- 470 -->
  <g class="node" id="node3">
   <title>
    470
   </title>
   <g id="a_node3">
    <a target="_parent" xlink:href="https://leetcode-cn.com/problems/implement-rand10-using-rand7" xlink:title="470. 用 Rand7() 实现 Rand10()">
     <polygon fill="none" points="185,-108 0,-108 0,-72 185,-72 185,-108" stroke="orange"/>
     <text font-family="Microsoft YaHei" font-size="12.00" text-anchor="middle" x="92.5" y="-86.9">
      470. 用 Rand7() 实现 Rand10()
     </text>
    </a>
   </g>
   <g transform="translate(177.0, -114.0) scale(0.3)">
    <circle cx="24" cy="24" fill="#4caf50" r="21"/>
    <polygon fill="#ccff90" points="34.6,14.6 21,28.2 15.4,22.6 12.6,25.4 21,33.8 37.4,17.4"/>
   </g>
   <g transform="translate(172.0, -81.0) scale(0.01)">
    <symbol id="flask" viewBox="0 0 448 512">
     <path d="M437.2 403.5L320 215V64h8c13.3 0 24-10.7 24-24V24c0-13.3-10.7-24-24-24H120c-13.3 0-24 10.7-24 24v16c0 13.3 10.7 24 24 24h8v151L10.8 403.5C-18.5 450.6 15.3 512 70.9 512h306.2c55.7 0 89.4-61.5 60.1-108.5zM137.9 320l48.2-77.6c3.7-5.2 5.8-11.6 5.8-18.4V64h64v160c0 6.9 2.2 13.2 5.8 18.4l48.2 77.6h-172z" fill="#1389fd"/>
    </symbol>
    <a href="https://github.com/acm-clan/algorithm-stone/blob/main/user/leetcode/470.用-rand-7-实现-rand-10.md">
     <use href="#flask"/>
    </a>
   </g>
  </g>
  <!-- 拒绝采样&#45;&gt;470 -->
  <g class="edge" id="edge2">
   <title>
    拒绝采样-&gt;470
   </title>
   <path d="M117.34,-143.7C113.59,-135.73 109.05,-126.1 104.88,-117.26" fill="none" stroke="lightgrey"/>
   <polygon fill="lightgrey" points="107.99,-115.66 100.56,-108.1 101.66,-118.64 107.99,-115.66" stroke="lightgrey"/>
  </g>
  <!-- 478 -->
  <g class="node" id="node4">
   <title>
    478
   </title>
   <g id="a_node4">
    <a target="_parent" xlink:href="https://leetcode-cn.com/problems/generate-random-point-in-a-circle" xlink:title="478. 在圆内随机生成点">
     <polygon fill="none" points="162.5,-36 22.5,-36 22.5,0 162.5,0 162.5,-36" stroke="orange"/>
     <text font-family="Microsoft YaHei" font-size="12.00" text-anchor="middle" x="92.5" y="-14.9">
      478. 在圆内随机生成点
     </text>
    </a>
   </g>
   <g transform="translate(154.5, -42.0) scale(0.3)">
    <circle cx="24" cy="24" fill="#4caf50" r="21"/>
    <polygon fill="#ccff90" points="34.6,14.6 21,28.2 15.4,22.6 12.6,25.4 21,33.8 37.4,17.4"/>
   </g>
   <g transform="translate(149.5, -9.0) scale(0.01)">
    <symbol id="flask" viewBox="0 0 448 512">
     <path d="M437.2 403.5L320 215V64h8c13.3 0 24-10.7 24-24V24c0-13.3-10.7-24-24-24H120c-13.3 0-24 10.7-24 24v16c0 13.3 10.7 24 24 24h8v151L10.8 403.5C-18.5 450.6 15.3 512 70.9 512h306.2c55.7 0 89.4-61.5 60.1-108.5zM137.9 320l48.2-77.6c3.7-5.2 5.8-11.6 5.8-18.4V64h64v160c0 6.9 2.2 13.2 5.8 18.4l48.2 77.6h-172z" fill="#1389fd"/>
    </symbol>
    <a href="https://github.com/acm-clan/algorithm-stone/blob/main/user/leetcode/478.在圆内随机生成点.md">
     <use href="#flask"/>
    </a>
   </g>
  </g>
  <!-- 470&#45;&gt;478 -->
  <g class="edge" id="edge3">
   <title>
    470-&gt;478
   </title>
   <path d="M92.5,-71.7C92.5,-63.98 92.5,-54.71 92.5,-46.11" fill="none" stroke="lightgrey"/>
   <polygon fill="lightgrey" points="96,-46.1 92.5,-36.1 89,-46.1 96,-46.1" stroke="lightgrey"/>
  </g>
  <!-- 382 -->
  <g class="node" id="node6">
   <title>
    382
   </title>
   <g id="a_node6">
    <a target="_parent" xlink:href="https://leetcode-cn.com/problems/linked-list-random-node" xlink:title="382. 链表随机节点">
     <polygon fill="none" points="319.5,-108 203.5,-108 203.5,-72 319.5,-72 319.5,-108" stroke="orange"/>
     <text font-family="Microsoft YaHei" font-size="12.00" text-anchor="middle" x="261.5" y="-86.9">
      382. 链表随机节点
     </text>
    </a>
   </g>
   <g transform="translate(311.5, -114.0) scale(0.3)">
    <circle cx="24" cy="24" fill="#4caf50" r="21"/>
    <polygon fill="#ccff90" points="34.6,14.6 21,28.2 15.4,22.6 12.6,25.4 21,33.8 37.4,17.4"/>
   </g>
  </g>
  <!-- 蓄水池采样&#45;&gt;382 -->
  <g class="edge" id="edge5">
   <title>
    蓄水池采样-&gt;382
   </title>
   <path d="M248.7,-143.7C250.6,-135.9 252.88,-126.51 254.98,-117.83" fill="none" stroke="lightgrey"/>
   <polygon fill="lightgrey" points="258.39,-118.65 257.35,-108.1 251.58,-117 258.39,-118.65" stroke="lightgrey"/>
  </g>
  <!-- 398 -->
  <g class="node" id="node7">
   <title>
    398
   </title>
   <g id="a_node7">
    <a target="_parent" xlink:href="https://leetcode-cn.com/problems/random-pick-index" xlink:title="398. 随机数索引">
     <polygon fill="none" points="313.5,-36 209.5,-36 209.5,0 313.5,0 313.5,-36" stroke="orange"/>
     <text font-family="Microsoft YaHei" font-size="12.00" text-anchor="middle" x="261.5" y="-14.9">
      398. 随机数索引
     </text>
    </a>
   </g>
   <g transform="translate(305.5, -42.0) scale(0.3)">
    <circle cx="24" cy="24" fill="#4caf50" r="21"/>
    <polygon fill="#ccff90" points="34.6,14.6 21,28.2 15.4,22.6 12.6,25.4 21,33.8 37.4,17.4"/>
   </g>
  </g>
  <!-- 382&#45;&gt;398 -->
  <g class="edge" id="edge6">
   <title>
    382-&gt;398
   </title>
   <path d="M261.5,-71.7C261.5,-63.98 261.5,-54.71 261.5,-46.11" fill="none" stroke="lightgrey"/>
   <polygon fill="lightgrey" points="265,-46.1 261.5,-36.1 258,-46.1 265,-46.1" stroke="lightgrey"/>
  </g>
  <g class="key">
   <defs>
    <filter height="1.2" id="solid" width="1.2" x="-0.1" y="-0.1">
     <feFlood flood-color="#ccff90" result="bg"/>
     <feMerge>
      <feMergeNode in="bg"/>
      <feMergeNode in="SourceGraphic"/>
     </feMerge>
    </filter>
   </defs>
   <text filter="url(#solid)" font-family="Microsoft YaHei" font-size="10.00" text-anchor="middle" x="92.5" y="-67.0">
    随机数重新分配
   </text>
  </g>
  <g class="key">
   <defs>
    <filter height="1.2" id="solid" width="1.2" x="-0.1" y="-0.1">
     <feFlood flood-color="#ccff90" result="bg"/>
     <feMerge>
      <feMergeNode in="bg"/>
      <feMergeNode in="SourceGraphic"/>
     </feMerge>
    </filter>
   </defs>
   <text filter="url(#solid)" font-family="Microsoft YaHei" font-size="10.00" text-anchor="middle" x="92.5" y="5.0">
    随机圆内点
   </text>
  </g>
  <g class="key">
   <defs>
    <filter height="1.2" id="solid" width="1.2" x="-0.1" y="-0.1">
     <feFlood flood-color="#ccff90" result="bg"/>
     <feMerge>
      <feMergeNode in="bg"/>
      <feMergeNode in="SourceGraphic"/>
     </feMerge>
    </filter>
   </defs>
   <text filter="url(#solid)" font-family="Microsoft YaHei" font-size="10.00" text-anchor="middle" x="261.5" y="-67.0">
    蓄水池采样入门
   </text>
  </g>
  <g class="key">
   <defs>
    <filter height="1.2" id="solid" width="1.2" x="-0.1" y="-0.1">
     <feFlood flood-color="#ccff90" result="bg"/>
     <feMerge>
      <feMergeNode in="bg"/>
      <feMergeNode in="SourceGraphic"/>
     </feMerge>
    </filter>
   </defs>
   <text filter="url(#solid)" font-family="Microsoft YaHei" font-size="10.00" text-anchor="middle" x="261.5" y="5.0">
    蓄水池采样扩展
   </text>
  </g>
 </g>
</svg>