<?xml version="1.0" encoding="utf-8"?>
<!DOCTYPE svg PUBLIC "-//W3C//DTD SVG 1.1//EN" "http://www.w3.org/Graphics/SVG/1.1/DTD/svg11.dtd">
<!-- Generated by graphviz version 2.46.1 (20210213.1702)
 -->
<!-- Title: stones Pages: 1 -->
<svg height="1102pt" viewBox="0.00 0.00 606.0 1102.0" width="606pt" xmlns="http://www.w3.org/2000/svg" xmlns:xlink="http://www.w3.org/1999/xlink">
 <g class="graph" id="graph0" transform="scale(1 1) rotate(0) translate(4 1048)">
  <title>
   stones
  </title>
  <polygon fill="white" points="-4,4 -4,-1048 552,-1048 552,4 -4,4" stroke="transparent"/>
  <!-- Leetcode&#45;堆栈队列 -->
  <g class="node" id="node1">
   <title>
    Leetcode-堆栈队列
   </title>
   <g id="a_node1">
    <a target="_parent" xlink:href="https://leetcode-cn.com/tag/" xlink:title="Leetcode-堆栈队列(23)">
     <polygon fill="orangered" points="360.5,-1044 192.5,-1044 192.5,-1008 360.5,-1008 360.5,-1044" stroke="lightgrey"/>
     <text fill="white" font-family="Microsoft YaHei" font-size="14.00" text-anchor="middle" x="276.5" y="-1022.3">
      Leetcode-堆栈队列(23)
     </text>
    </a>
   </g>
  </g>
  <!-- 堆 -->
  <g class="node" id="node2">
   <title>
    堆
   </title>
   <polygon fill="lightslategray" points="173.5,-972 119.5,-972 119.5,-936 173.5,-936 173.5,-972" stroke="lightgrey"/>
   <text fill="white" font-family="Microsoft YaHei" font-size="12.00" text-anchor="middle" x="146.5" y="-950.9">
    堆(13)
   </text>
  </g>
  <!-- Leetcode&#45;堆栈队列&#45;&gt;堆 -->
  <g class="edge" id="edge1">
   <title>
    Leetcode-堆栈队列-&gt;堆
   </title>
   <path d="M244.7,-1007.88C225.88,-997.74 201.99,-984.88 182.48,-974.37" fill="none" stroke="lightgrey"/>
   <polygon fill="lightgrey" points="184.04,-971.24 173.58,-969.58 180.73,-977.4 184.04,-971.24" stroke="lightgrey"/>
  </g>
  <!-- 堆与Dijkstra算法 -->
  <g class="node" id="node16">
   <title>
    堆与Dijkstra算法
   </title>
   <polygon fill="lightslategray" points="337.5,-972 215.5,-972 215.5,-936 337.5,-936 337.5,-972" stroke="lightgrey"/>
   <text fill="white" font-family="Microsoft YaHei" font-size="12.00" text-anchor="middle" x="276.5" y="-950.9">
    堆与Dijkstra算法(2)
   </text>
  </g>
  <!-- Leetcode&#45;堆栈队列&#45;&gt;堆与Dijkstra算法 -->
  <g class="edge" id="edge15">
   <title>
    Leetcode-堆栈队列-&gt;堆与Dijkstra算法
   </title>
   <path d="M276.5,-1007.7C276.5,-999.98 276.5,-990.71 276.5,-982.11" fill="none" stroke="lightgrey"/>
   <polygon fill="lightgrey" points="280,-982.1 276.5,-972.1 273,-982.1 280,-982.1" stroke="lightgrey"/>
  </g>
  <!-- 队列 -->
  <g class="node" id="node19">
   <title>
    队列
   </title>
   <polygon fill="lightslategray" points="427,-972 372,-972 372,-936 427,-936 427,-972" stroke="lightgrey"/>
   <text fill="white" font-family="Microsoft YaHei" font-size="12.00" text-anchor="middle" x="399.5" y="-950.9">
    队列(8)
   </text>
  </g>
  <!-- Leetcode&#45;堆栈队列&#45;&gt;队列 -->
  <g class="edge" id="edge18">
   <title>
    Leetcode-堆栈队列-&gt;队列
   </title>
   <path d="M306.59,-1007.88C323.55,-998.23 344.86,-986.1 362.79,-975.89" fill="none" stroke="lightgrey"/>
   <polygon fill="lightgrey" points="364.86,-978.74 371.82,-970.75 361.4,-972.65 364.86,-978.74" stroke="lightgrey"/>
  </g>
  <!-- 1046 -->
  <g class="node" id="node3">
   <title>
    1046
   </title>
   <g id="a_node3">
    <a target="_parent" xlink:href="https://leetcode-cn.com/problems/last-stone-weight" xlink:title="1046. 最后一块石头的重量">
     <polygon fill="none" points="182.5,-900 24.5,-900 24.5,-864 182.5,-864 182.5,-900" stroke="greenyellow"/>
     <text font-family="Microsoft YaHei" font-size="12.00" text-anchor="middle" x="103.5" y="-878.9">
      1046. 最后一块石头的重量
     </text>
    </a>
   </g>
   <g transform="translate(174.5, -906.0) scale(0.3)">
    <circle cx="24" cy="24" fill="#4caf50" r="21"/>
    <polygon fill="#ccff90" points="34.6,14.6 21,28.2 15.4,22.6 12.6,25.4 21,33.8 37.4,17.4"/>
   </g>
  </g>
  <!-- 堆&#45;&gt;1046 -->
  <g class="edge" id="edge2">
   <title>
    堆-&gt;1046
   </title>
   <path d="M135.87,-935.7C130.87,-927.56 124.81,-917.69 119.29,-908.7" fill="none" stroke="lightgrey"/>
   <polygon fill="lightgrey" points="122.22,-906.79 114.01,-900.1 116.26,-910.46 122.22,-906.79" stroke="lightgrey"/>
  </g>
  <!-- 215 -->
  <g class="node" id="node4">
   <title>
    215
   </title>
   <g id="a_node4">
    <a target="_parent" xlink:href="https://leetcode-cn.com/problems/kth-largest-element-in-an-array" xlink:title="215. 数组中的第K个最大元素">
     <polygon fill="none" points="171,-828 0,-828 0,-792 171,-792 171,-828" stroke="orange"/>
     <text font-family="Microsoft YaHei" font-size="12.00" text-anchor="middle" x="85.5" y="-806.9">
      215. 数组中的第K个最大元素
     </text>
    </a>
   </g>
   <g transform="translate(163.0, -834.0) scale(0.3)">
    <circle cx="24" cy="24" fill="#4caf50" r="21"/>
    <polygon fill="#ccff90" points="34.6,14.6 21,28.2 15.4,22.6 12.6,25.4 21,33.8 37.4,17.4"/>
   </g>
  </g>
  <!-- 1046&#45;&gt;215 -->
  <g class="edge" id="edge3">
   <title>
    1046-&gt;215
   </title>
   <path d="M99.05,-863.7C97.05,-855.9 94.63,-846.51 92.4,-837.83" fill="none" stroke="lightgrey"/>
   <polygon fill="lightgrey" points="95.78,-836.92 89.9,-828.1 89,-838.66 95.78,-836.92" stroke="lightgrey"/>
  </g>
  <!-- 703 -->
  <g class="node" id="node5">
   <title>
    703
   </title>
   <g id="a_node5">
    <a target="_parent" xlink:href="https://leetcode-cn.com/problems/kth-largest-element-in-a-stream" xlink:title="703. 数据流中的第 K 大元素">
     <polygon fill="none" points="169,-756 2,-756 2,-720 169,-720 169,-756" stroke="greenyellow"/>
     <text font-family="Microsoft YaHei" font-size="12.00" text-anchor="middle" x="85.5" y="-734.9">
      703. 数据流中的第 K 大元素
     </text>
    </a>
   </g>
   <g transform="translate(161.0, -762.0) scale(0.3)">
    <circle cx="24" cy="24" fill="#4caf50" r="21"/>
    <polygon fill="#ccff90" points="34.6,14.6 21,28.2 15.4,22.6 12.6,25.4 21,33.8 37.4,17.4"/>
   </g>
  </g>
  <!-- 215&#45;&gt;703 -->
  <g class="edge" id="edge4">
   <title>
    215-&gt;703
   </title>
   <path d="M85.5,-791.7C85.5,-783.98 85.5,-774.71 85.5,-766.11" fill="none" stroke="lightgrey"/>
   <polygon fill="lightgrey" points="89,-766.1 85.5,-756.1 82,-766.1 89,-766.1" stroke="lightgrey"/>
  </g>
  <!-- 973 -->
  <g class="node" id="node6">
   <title>
    973
   </title>
   <g id="a_node6">
    <a target="_parent" xlink:href="https://leetcode-cn.com/problems/k-closest-points-to-origin" xlink:title="973. 最接近原点的 K 个点">
     <polygon fill="none" points="163,-684 8,-684 8,-648 163,-648 163,-684" stroke="orange"/>
     <text font-family="Microsoft YaHei" font-size="12.00" text-anchor="middle" x="85.5" y="-662.9">
      973. 最接近原点的 K 个点
     </text>
    </a>
   </g>
   <g transform="translate(155.0, -690.0) scale(0.3)">
    <circle cx="24" cy="24" fill="#4caf50" r="21"/>
    <polygon fill="#ccff90" points="34.6,14.6 21,28.2 15.4,22.6 12.6,25.4 21,33.8 37.4,17.4"/>
   </g>
  </g>
  <!-- 703&#45;&gt;973 -->
  <g class="edge" id="edge5">
   <title>
    703-&gt;973
   </title>
   <path d="M85.5,-719.7C85.5,-711.98 85.5,-702.71 85.5,-694.11" fill="none" stroke="lightgrey"/>
   <polygon fill="lightgrey" points="89,-694.1 85.5,-684.1 82,-694.1 89,-694.1" stroke="lightgrey"/>
  </g>
  <!-- 355 -->
  <g class="node" id="node7">
   <title>
    355
   </title>
   <g id="a_node7">
    <a target="_parent" xlink:href="https://leetcode-cn.com/problems/design-twitter" xlink:title="355. 设计推特">
     <polygon fill="none" points="131.5,-612 39.5,-612 39.5,-576 131.5,-576 131.5,-612" stroke="orange"/>
     <text font-family="Microsoft YaHei" font-size="12.00" text-anchor="middle" x="85.5" y="-590.9">
      355. 设计推特
     </text>
    </a>
   </g>
   <g transform="translate(123.5, -618.0) scale(0.3)">
    <circle cx="24" cy="24" fill="#4caf50" r="21"/>
    <polygon fill="#ccff90" points="34.6,14.6 21,28.2 15.4,22.6 12.6,25.4 21,33.8 37.4,17.4"/>
   </g>
  </g>
  <!-- 973&#45;&gt;355 -->
  <g class="edge" id="edge6">
   <title>
    973-&gt;355
   </title>
   <path d="M85.5,-647.7C85.5,-639.98 85.5,-630.71 85.5,-622.11" fill="none" stroke="lightgrey"/>
   <polygon fill="lightgrey" points="89,-622.1 85.5,-612.1 82,-622.1 89,-622.1" stroke="lightgrey"/>
  </g>
  <!-- 451 -->
  <g class="node" id="node8">
   <title>
    451
   </title>
   <g id="a_node8">
    <a target="_parent" xlink:href="https://leetcode-cn.com/problems/sort-characters-by-frequency" xlink:title="451. 根据字符出现频率排序">
     <polygon fill="none" points="167.5,-540 3.5,-540 3.5,-504 167.5,-504 167.5,-540" stroke="orange"/>
     <text font-family="Microsoft YaHei" font-size="12.00" text-anchor="middle" x="85.5" y="-518.9">
      451. 根据字符出现频率排序
     </text>
    </a>
   </g>
   <g transform="translate(159.5, -546.0) scale(0.3)">
    <circle cx="24" cy="24" fill="#4caf50" r="21"/>
    <polygon fill="#ccff90" points="34.6,14.6 21,28.2 15.4,22.6 12.6,25.4 21,33.8 37.4,17.4"/>
   </g>
  </g>
  <!-- 355&#45;&gt;451 -->
  <g class="edge" id="edge7">
   <title>
    355-&gt;451
   </title>
   <path d="M85.5,-575.7C85.5,-567.98 85.5,-558.71 85.5,-550.11" fill="none" stroke="lightgrey"/>
   <polygon fill="lightgrey" points="89,-550.1 85.5,-540.1 82,-550.1 89,-550.1" stroke="lightgrey"/>
  </g>
  <!-- 373 -->
  <g class="node" id="node9">
   <title>
    373
   </title>
   <g id="a_node9">
    <a target="_parent" xlink:href="https://leetcode-cn.com/problems/find-k-pairs-with-smallest-sums" xlink:title="373. 查找和最小的K对数字">
     <polygon fill="none" points="165,-468 6,-468 6,-432 165,-432 165,-468" stroke="orange"/>
     <text font-family="Microsoft YaHei" font-size="12.00" text-anchor="middle" x="85.5" y="-446.9">
      373. 查找和最小的K对数字
     </text>
    </a>
   </g>
   <g transform="translate(157.0, -474.0) scale(0.3)">
    <circle cx="24" cy="24" fill="#4caf50" r="21"/>
    <polygon fill="#ccff90" points="34.6,14.6 21,28.2 15.4,22.6 12.6,25.4 21,33.8 37.4,17.4"/>
   </g>
  </g>
  <!-- 451&#45;&gt;373 -->
  <g class="edge" id="edge8">
   <title>
    451-&gt;373
   </title>
   <path d="M85.5,-503.7C85.5,-495.98 85.5,-486.71 85.5,-478.11" fill="none" stroke="lightgrey"/>
   <polygon fill="lightgrey" points="89,-478.1 85.5,-468.1 82,-478.1 89,-478.1" stroke="lightgrey"/>
  </g>
  <!-- 692 -->
  <g class="node" id="node10">
   <title>
    692
   </title>
   <g id="a_node10">
    <a target="_parent" xlink:href="https://leetcode-cn.com/problems/top-k-frequent-words" xlink:title="692. 前K个高频单词">
     <polygon fill="none" points="147,-396 24,-396 24,-360 147,-360 147,-396" stroke="orange"/>
     <text font-family="Microsoft YaHei" font-size="12.00" text-anchor="middle" x="85.5" y="-374.9">
      692. 前K个高频单词
     </text>
    </a>
   </g>
   <g transform="translate(139.0, -402.0) scale(0.3)">
    <circle cx="24" cy="24" fill="#4caf50" r="21"/>
    <polygon fill="#ccff90" points="34.6,14.6 21,28.2 15.4,22.6 12.6,25.4 21,33.8 37.4,17.4"/>
   </g>
  </g>
  <!-- 373&#45;&gt;692 -->
  <g class="edge" id="edge9">
   <title>
    373-&gt;692
   </title>
   <path d="M85.5,-431.7C85.5,-423.98 85.5,-414.71 85.5,-406.11" fill="none" stroke="lightgrey"/>
   <polygon fill="lightgrey" points="89,-406.1 85.5,-396.1 82,-406.1 89,-406.1" stroke="lightgrey"/>
  </g>
  <!-- 659 -->
  <g class="node" id="node11">
   <title>
    659
   </title>
   <g id="a_node11">
    <a target="_parent" xlink:href="https://leetcode-cn.com/problems/split-array-into-consecutive-subsequences" xlink:title="659. 分割数组为连续子序列">
     <polygon fill="none" points="167.5,-324 3.5,-324 3.5,-288 167.5,-288 167.5,-324" stroke="orange"/>
     <text font-family="Microsoft YaHei" font-size="12.00" text-anchor="middle" x="85.5" y="-302.9">
      659. 分割数组为连续子序列
     </text>
    </a>
   </g>
   <g transform="translate(159.5, -330.0) scale(0.3)">
    <circle cx="24" cy="24" fill="#4caf50" r="21"/>
    <polygon fill="#ccff90" points="34.6,14.6 21,28.2 15.4,22.6 12.6,25.4 21,33.8 37.4,17.4"/>
   </g>
  </g>
  <!-- 692&#45;&gt;659 -->
  <g class="edge" id="edge10">
   <title>
    692-&gt;659
   </title>
   <path d="M85.5,-359.7C85.5,-351.98 85.5,-342.71 85.5,-334.11" fill="none" stroke="lightgrey"/>
   <polygon fill="lightgrey" points="89,-334.1 85.5,-324.1 82,-334.1 89,-334.1" stroke="lightgrey"/>
  </g>
  <!-- 347 -->
  <g class="node" id="node12">
   <title>
    347
   </title>
   <g id="a_node12">
    <a target="_parent" xlink:href="https://leetcode-cn.com/problems/top-k-frequent-elements" xlink:title="347. 前 K 个高频元素">
     <polygon fill="none" points="151,-252 20,-252 20,-216 151,-216 151,-252" stroke="orange"/>
     <text font-family="Microsoft YaHei" font-size="12.00" text-anchor="middle" x="85.5" y="-230.9">
      347. 前 K 个高频元素
     </text>
    </a>
   </g>
   <g transform="translate(143.0, -258.0) scale(0.3)">
    <circle cx="24" cy="24" fill="#4caf50" r="21"/>
    <polygon fill="#ccff90" points="34.6,14.6 21,28.2 15.4,22.6 12.6,25.4 21,33.8 37.4,17.4"/>
   </g>
  </g>
  <!-- 659&#45;&gt;347 -->
  <g class="edge" id="edge11">
   <title>
    659-&gt;347
   </title>
   <path d="M85.5,-287.7C85.5,-279.98 85.5,-270.71 85.5,-262.11" fill="none" stroke="lightgrey"/>
   <polygon fill="lightgrey" points="89,-262.1 85.5,-252.1 82,-262.1 89,-262.1" stroke="lightgrey"/>
  </g>
  <!-- 313 -->
  <g class="node" id="node13">
   <title>
    313
   </title>
   <g id="a_node13">
    <a target="_parent" xlink:href="https://leetcode-cn.com/problems/super-ugly-number" xlink:title="313. 超级丑数">
     <polygon fill="none" points="131.5,-180 39.5,-180 39.5,-144 131.5,-144 131.5,-180" stroke="orange"/>
     <text font-family="Microsoft YaHei" font-size="12.00" text-anchor="middle" x="85.5" y="-158.9">
      313. 超级丑数
     </text>
    </a>
   </g>
   <g transform="translate(123.5, -186.0) scale(0.3)">
    <circle cx="24" cy="24" fill="#4caf50" r="21"/>
    <polygon fill="#ccff90" points="34.6,14.6 21,28.2 15.4,22.6 12.6,25.4 21,33.8 37.4,17.4"/>
   </g>
   <g transform="translate(122.5, -153.0)">
    <symbol id="flask" viewBox="0 0 448 512">
     <path d="M437.2 403.5L320 215V64h8c13.3 0 24-10.7 24-24V24c0-13.3-10.7-24-24-24H120c-13.3 0-24 10.7-24 24v16c0 13.3 10.7 24 24 24h8v151L10.8 403.5C-18.5 450.6 15.3 512 70.9 512h306.2c55.7 0 89.4-61.5 60.1-108.5zM137.9 320l48.2-77.6c3.7-5.2 5.8-11.6 5.8-18.4V64h64v160c0 6.9 2.2 13.2 5.8 18.4l48.2 77.6h-172z" fill="#1389fd"/>
    </symbol>
    <a href="https://github.com/acm-clan/algorithm-stone/blob/main/user/leetcode/313.超级丑数.md">
     <use height="18" href="#flask" width="18"/>
    </a>
   </g>
  </g>
  <!-- 347&#45;&gt;313 -->
  <g class="edge" id="edge12">
   <title>
    347-&gt;313
   </title>
   <path d="M85.5,-215.7C85.5,-207.98 85.5,-198.71 85.5,-190.11" fill="none" stroke="lightgrey"/>
   <polygon fill="lightgrey" points="89,-190.1 85.5,-180.1 82,-190.1 89,-190.1" stroke="lightgrey"/>
  </g>
  <!-- 767 -->
  <g class="node" id="node14">
   <title>
    767
   </title>
   <g id="a_node14">
    <a target="_parent" xlink:href="https://leetcode-cn.com/problems/reorganize-string" xlink:title="767. 重构字符串">
     <polygon fill="none" points="137.5,-108 33.5,-108 33.5,-72 137.5,-72 137.5,-108" stroke="orange"/>
     <text font-family="Microsoft YaHei" font-size="12.00" text-anchor="middle" x="85.5" y="-86.9">
      767. 重构字符串
     </text>
    </a>
   </g>
   <g transform="translate(129.5, -114.0) scale(0.3)">
    <circle cx="24" cy="24" fill="#4caf50" r="21"/>
    <polygon fill="#ccff90" points="34.6,14.6 21,28.2 15.4,22.6 12.6,25.4 21,33.8 37.4,17.4"/>
   </g>
  </g>
  <!-- 313&#45;&gt;767 -->
  <g class="edge" id="edge13">
   <title>
    313-&gt;767
   </title>
   <path d="M85.5,-143.7C85.5,-135.98 85.5,-126.71 85.5,-118.11" fill="none" stroke="lightgrey"/>
   <polygon fill="lightgrey" points="89,-118.1 85.5,-108.1 82,-118.1 89,-118.1" stroke="lightgrey"/>
  </g>
  <!-- 1054 -->
  <g class="node" id="node15">
   <title>
    1054
   </title>
   <g id="a_node15">
    <a target="_parent" xlink:href="https://leetcode-cn.com/problems/distant-barcodes" xlink:title="1054. 距离相等的条形码">
     <polygon fill="none" points="158.5,-36 12.5,-36 12.5,0 158.5,0 158.5,-36" stroke="orange"/>
     <text font-family="Microsoft YaHei" font-size="12.00" text-anchor="middle" x="85.5" y="-14.9">
      1054. 距离相等的条形码
     </text>
    </a>
   </g>
   <g transform="translate(150.5, -42.0) scale(0.3)">
    <circle cx="24" cy="24" fill="#4caf50" r="21"/>
    <polygon fill="#ccff90" points="34.6,14.6 21,28.2 15.4,22.6 12.6,25.4 21,33.8 37.4,17.4"/>
   </g>
  </g>
  <!-- 767&#45;&gt;1054 -->
  <g class="edge" id="edge14">
   <title>
    767-&gt;1054
   </title>
   <path d="M85.5,-71.7C85.5,-63.98 85.5,-54.71 85.5,-46.11" fill="none" stroke="lightgrey"/>
   <polygon fill="lightgrey" points="89,-46.1 85.5,-36.1 82,-46.1 89,-46.1" stroke="lightgrey"/>
  </g>
  <!-- 743 -->
  <g class="node" id="node17">
   <title>
    743
   </title>
   <g id="a_node17">
    <a target="_parent" xlink:href="https://leetcode-cn.com/problems/network-delay-time" xlink:title="743. 网络延迟时间">
     <polygon fill="none" points="334.5,-900 218.5,-900 218.5,-864 334.5,-864 334.5,-900" stroke="orange"/>
     <text font-family="Microsoft YaHei" font-size="12.00" text-anchor="middle" x="276.5" y="-878.9">
      743. 网络延迟时间
     </text>
    </a>
   </g>
   <g transform="translate(326.5, -906.0) scale(0.3)">
    <circle cx="24" cy="24" fill="#4caf50" r="21"/>
    <polygon fill="#ccff90" points="34.6,14.6 21,28.2 15.4,22.6 12.6,25.4 21,33.8 37.4,17.4"/>
   </g>
  </g>
  <!-- 堆与Dijkstra算法&#45;&gt;743 -->
  <g class="edge" id="edge16">
   <title>
    堆与Dijkstra算法-&gt;743
   </title>
   <path d="M276.5,-935.7C276.5,-927.98 276.5,-918.71 276.5,-910.11" fill="none" stroke="lightgrey"/>
   <polygon fill="lightgrey" points="280,-910.1 276.5,-900.1 273,-910.1 280,-910.1" stroke="lightgrey"/>
  </g>
  <!-- 787 -->
  <g class="node" id="node18">
   <title>
    787
   </title>
   <g id="a_node18">
    <a target="_parent" xlink:href="https://leetcode-cn.com/problems/cheapest-flights-within-k-stops" xlink:title="787. K 站中转内最便宜的航班">
     <polygon fill="none" points="364,-828 189,-828 189,-792 364,-792 364,-828" stroke="orange"/>
     <text font-family="Microsoft YaHei" font-size="12.00" text-anchor="middle" x="276.5" y="-806.9">
      787. K 站中转内最便宜的航班
     </text>
    </a>
   </g>
   <g transform="translate(356.0, -834.0) scale(0.3)">
    <circle cx="24" cy="24" fill="#4caf50" r="21"/>
    <polygon fill="#ccff90" points="34.6,14.6 21,28.2 15.4,22.6 12.6,25.4 21,33.8 37.4,17.4"/>
   </g>
  </g>
  <!-- 743&#45;&gt;787 -->
  <g class="edge" id="edge17">
   <title>
    743-&gt;787
   </title>
   <path d="M276.5,-863.7C276.5,-855.98 276.5,-846.71 276.5,-838.11" fill="none" stroke="lightgrey"/>
   <polygon fill="lightgrey" points="280,-838.1 276.5,-828.1 273,-838.1 280,-838.1" stroke="lightgrey"/>
  </g>
  <!-- 933 -->
  <g class="node" id="node20">
   <title>
    933
   </title>
   <g id="a_node20">
    <a target="_parent" xlink:href="https://leetcode-cn.com/problems/number-of-recent-calls" xlink:title="933. 最近的请求次数">
     <polygon fill="none" points="492.5,-900 364.5,-900 364.5,-864 492.5,-864 492.5,-900" stroke="greenyellow"/>
     <text font-family="Microsoft YaHei" font-size="12.00" text-anchor="middle" x="428.5" y="-878.9">
      933. 最近的请求次数
     </text>
    </a>
   </g>
   <g transform="translate(484.5, -906.0) scale(0.3)">
    <circle cx="24" cy="24" fill="#4caf50" r="21"/>
    <polygon fill="#ccff90" points="34.6,14.6 21,28.2 15.4,22.6 12.6,25.4 21,33.8 37.4,17.4"/>
   </g>
  </g>
  <!-- 队列&#45;&gt;933 -->
  <g class="edge" id="edge19">
   <title>
    队列-&gt;933
   </title>
   <path d="M406.67,-935.7C409.93,-927.81 413.87,-918.3 417.5,-909.55" fill="none" stroke="lightgrey"/>
   <polygon fill="lightgrey" points="420.82,-910.68 421.41,-900.1 414.35,-908 420.82,-910.68" stroke="lightgrey"/>
  </g>
  <!-- 622 -->
  <g class="node" id="node21">
   <title>
    622
   </title>
   <g id="a_node21">
    <a target="_parent" xlink:href="https://leetcode-cn.com/problems/design-circular-queue" xlink:title="622. 设计循环队列">
     <polygon fill="none" points="498.5,-828 382.5,-828 382.5,-792 498.5,-792 498.5,-828" stroke="orange"/>
     <text font-family="Microsoft YaHei" font-size="12.00" text-anchor="middle" x="440.5" y="-806.9">
      622. 设计循环队列
     </text>
    </a>
   </g>
   <g transform="translate(490.5, -834.0) scale(0.3)">
    <circle cx="24" cy="24" fill="#4caf50" r="21"/>
    <polygon fill="#ccff90" points="34.6,14.6 21,28.2 15.4,22.6 12.6,25.4 21,33.8 37.4,17.4"/>
   </g>
  </g>
  <!-- 933&#45;&gt;622 -->
  <g class="edge" id="edge20">
   <title>
    933-&gt;622
   </title>
   <path d="M431.47,-863.7C432.79,-855.98 434.38,-846.71 435.85,-838.11" fill="none" stroke="lightgrey"/>
   <polygon fill="lightgrey" points="439.33,-838.55 437.57,-828.1 432.43,-837.37 439.33,-838.55" stroke="lightgrey"/>
  </g>
  <!-- 641 -->
  <g class="node" id="node22">
   <title>
    641
   </title>
   <g id="a_node22">
    <a target="_parent" xlink:href="https://leetcode-cn.com/problems/design-circular-deque" xlink:title="641. 设计循环双端队列">
     <polygon fill="none" points="510.5,-756 370.5,-756 370.5,-720 510.5,-720 510.5,-756" stroke="orange"/>
     <text font-family="Microsoft YaHei" font-size="12.00" text-anchor="middle" x="440.5" y="-734.9">
      641. 设计循环双端队列
     </text>
    </a>
   </g>
   <g transform="translate(502.5, -762.0) scale(0.3)">
    <circle cx="24" cy="24" fill="#4caf50" r="21"/>
    <polygon fill="#ccff90" points="34.6,14.6 21,28.2 15.4,22.6 12.6,25.4 21,33.8 37.4,17.4"/>
   </g>
  </g>
  <!-- 622&#45;&gt;641 -->
  <g class="edge" id="edge21">
   <title>
    622-&gt;641
   </title>
   <path d="M440.5,-791.7C440.5,-783.98 440.5,-774.71 440.5,-766.11" fill="none" stroke="lightgrey"/>
   <polygon fill="lightgrey" points="444,-766.1 440.5,-756.1 437,-766.1 444,-766.1" stroke="lightgrey"/>
  </g>
  <!-- 199 -->
  <g class="node" id="node23">
   <title>
    199
   </title>
   <g id="a_node23">
    <a target="_parent" xlink:href="https://leetcode-cn.com/problems/binary-tree-right-side-view" xlink:title="199. 二叉树的右视图">
     <polygon fill="none" points="504.5,-684 376.5,-684 376.5,-648 504.5,-648 504.5,-684" stroke="orange"/>
     <text font-family="Microsoft YaHei" font-size="12.00" text-anchor="middle" x="440.5" y="-662.9">
      199. 二叉树的右视图
     </text>
    </a>
   </g>
   <g transform="translate(496.5, -690.0) scale(0.3)">
    <circle cx="24" cy="24" fill="#4caf50" r="21"/>
    <polygon fill="#ccff90" points="34.6,14.6 21,28.2 15.4,22.6 12.6,25.4 21,33.8 37.4,17.4"/>
   </g>
  </g>
  <!-- 641&#45;&gt;199 -->
  <g class="edge" id="edge22">
   <title>
    641-&gt;199
   </title>
   <path d="M440.5,-719.7C440.5,-711.98 440.5,-702.71 440.5,-694.11" fill="none" stroke="lightgrey"/>
   <polygon fill="lightgrey" points="444,-694.1 440.5,-684.1 437,-694.1 444,-694.1" stroke="lightgrey"/>
  </g>
  <!-- 621 -->
  <g class="node" id="node24">
   <title>
    621
   </title>
   <g id="a_node24">
    <a target="_parent" xlink:href="https://leetcode-cn.com/problems/task-scheduler" xlink:title="621. 任务调度器">
     <polygon fill="none" points="492.5,-612 388.5,-612 388.5,-576 492.5,-576 492.5,-612" stroke="orange"/>
     <text font-family="Microsoft YaHei" font-size="12.00" text-anchor="middle" x="440.5" y="-590.9">
      621. 任务调度器
     </text>
    </a>
   </g>
   <g transform="translate(484.5, -618.0) scale(0.3)">
    <circle cx="24" cy="24" fill="#4caf50" r="21"/>
    <polygon fill="#ccff90" points="34.6,14.6 21,28.2 15.4,22.6 12.6,25.4 21,33.8 37.4,17.4"/>
   </g>
   <g transform="translate(483.5, -585.0)">
    <symbol id="flask" viewBox="0 0 448 512">
     <path d="M437.2 403.5L320 215V64h8c13.3 0 24-10.7 24-24V24c0-13.3-10.7-24-24-24H120c-13.3 0-24 10.7-24 24v16c0 13.3 10.7 24 24 24h8v151L10.8 403.5C-18.5 450.6 15.3 512 70.9 512h306.2c55.7 0 89.4-61.5 60.1-108.5zM137.9 320l48.2-77.6c3.7-5.2 5.8-11.6 5.8-18.4V64h64v160c0 6.9 2.2 13.2 5.8 18.4l48.2 77.6h-172z" fill="#1389fd"/>
    </symbol>
    <a href="https://github.com/acm-clan/algorithm-stone/blob/main/user/leetcode/621.任务调度器.md">
     <use height="18" href="#flask" width="18"/>
    </a>
   </g>
  </g>
  <!-- 199&#45;&gt;621 -->
  <g class="edge" id="edge23">
   <title>
    199-&gt;621
   </title>
   <path d="M440.5,-647.7C440.5,-639.98 440.5,-630.71 440.5,-622.11" fill="none" stroke="lightgrey"/>
   <polygon fill="lightgrey" points="444,-622.1 440.5,-612.1 437,-622.1 444,-622.1" stroke="lightgrey"/>
  </g>
  <!-- 1673 -->
  <g class="node" id="node25">
   <title>
    1673
   </title>
   <g id="a_node25">
    <a target="_parent" xlink:href="https://leetcode-cn.com/problems/find-the-most-competitive-subsequence" xlink:title="1673. 找出最具竞争力的子序列">
     <polygon fill="none" points="531.5,-540 349.5,-540 349.5,-504 531.5,-504 531.5,-540" stroke="orange"/>
     <text font-family="Microsoft YaHei" font-size="12.00" text-anchor="middle" x="440.5" y="-518.9">
      1673. 找出最具竞争力的子序列
     </text>
    </a>
   </g>
   <g transform="translate(523.5, -546.0) scale(0.3)">
    <circle cx="24" cy="24" fill="#4caf50" r="21"/>
    <polygon fill="#ccff90" points="34.6,14.6 21,28.2 15.4,22.6 12.6,25.4 21,33.8 37.4,17.4"/>
   </g>
  </g>
  <!-- 621&#45;&gt;1673 -->
  <g class="edge" id="edge24">
   <title>
    621-&gt;1673
   </title>
   <path d="M440.5,-575.7C440.5,-567.98 440.5,-558.71 440.5,-550.11" fill="none" stroke="lightgrey"/>
   <polygon fill="lightgrey" points="444,-550.1 440.5,-540.1 437,-550.1 444,-550.1" stroke="lightgrey"/>
  </g>
  <!-- 862 -->
  <g class="node" id="node26">
   <title>
    862
   </title>
   <g id="a_node26">
    <a target="_parent" xlink:href="https://leetcode-cn.com/problems/shortest-subarray-with-sum-at-least-k" xlink:title="862. 和至少为 K 的最短子数组">
     <polygon fill="none" points="530,-468 351,-468 351,-432 530,-432 530,-468" stroke="red"/>
     <text font-family="Microsoft YaHei" font-size="12.00" text-anchor="middle" x="440.5" y="-446.9">
      862. 和至少为 K 的最短子数组
     </text>
    </a>
   </g>
  </g>
  <!-- 1673&#45;&gt;862 -->
  <g class="edge" id="edge25">
   <title>
    1673-&gt;862
   </title>
   <path d="M440.5,-503.7C440.5,-495.98 440.5,-486.71 440.5,-478.11" fill="none" stroke="lightgrey"/>
   <polygon fill="lightgrey" points="444,-478.1 440.5,-468.1 437,-478.1 444,-478.1" stroke="lightgrey"/>
  </g>
  <!-- 363 -->
  <g class="node" id="node27">
   <title>
    363
   </title>
   <g id="a_node27">
    <a target="_parent" xlink:href="https://leetcode-cn.com/problems/max-sum-of-rectangle-no-larger-than-k" xlink:title="363. 矩形区域不超过 K 的最大数值和">
     <polygon fill="none" points="548,-396 333,-396 333,-360 548,-360 548,-396" stroke="red"/>
     <text font-family="Microsoft YaHei" font-size="12.00" text-anchor="middle" x="440.5" y="-374.9">
      363. 矩形区域不超过 K 的最大数值和
     </text>
    </a>
   </g>
  </g>
  <!-- 862&#45;&gt;363 -->
  <g class="edge" id="edge26">
   <title>
    862-&gt;363
   </title>
   <path d="M440.5,-431.7C440.5,-423.98 440.5,-414.71 440.5,-406.11" fill="none" stroke="lightgrey"/>
   <polygon fill="lightgrey" points="444,-406.1 440.5,-396.1 437,-406.1 444,-406.1" stroke="lightgrey"/>
  </g>
  <g class="key">
   <defs>
    <filter height="1.2" id="solid" width="1.2" x="-0.1" y="-0.1">
     <feFlood flood-color="#ccff90" result="bg"/>
     <feMerge>
      <feMergeNode in="bg"/>
      <feMergeNode in="SourceGraphic"/>
     </feMerge>
    </filter>
   </defs>
   <text filter="url(#solid)" font-family="Microsoft YaHei" font-size="10.00" text-anchor="middle" x="103.5" y="-859.0">
    优先级队列
   </text>
  </g>
  <g class="key">
   <defs>
    <filter height="1.2" id="solid" width="1.2" x="-0.1" y="-0.1">
     <feFlood flood-color="#ccff90" result="bg"/>
     <feMerge>
      <feMergeNode in="bg"/>
      <feMergeNode in="SourceGraphic"/>
     </feMerge>
    </filter>
   </defs>
   <text filter="url(#solid)" font-family="Microsoft YaHei" font-size="10.00" text-anchor="middle" x="85.5" y="-787.0">
    优先级队列
   </text>
  </g>
  <g class="key">
   <defs>
    <filter height="1.2" id="solid" width="1.2" x="-0.1" y="-0.1">
     <feFlood flood-color="#ccff90" result="bg"/>
     <feMerge>
      <feMergeNode in="bg"/>
      <feMergeNode in="SourceGraphic"/>
     </feMerge>
    </filter>
   </defs>
   <text filter="url(#solid)" font-family="Microsoft YaHei" font-size="10.00" text-anchor="middle" x="85.5" y="-715.0">
    优先级队列
   </text>
  </g>
  <g class="key">
   <defs>
    <filter height="1.2" id="solid" width="1.2" x="-0.1" y="-0.1">
     <feFlood flood-color="#ccff90" result="bg"/>
     <feMerge>
      <feMergeNode in="bg"/>
      <feMergeNode in="SourceGraphic"/>
     </feMerge>
    </filter>
   </defs>
   <text filter="url(#solid)" font-family="Microsoft YaHei" font-size="10.00" text-anchor="middle" x="85.5" y="-643.0">
    优先级队列
   </text>
  </g>
  <g class="key">
   <defs>
    <filter height="1.2" id="solid" width="1.2" x="-0.1" y="-0.1">
     <feFlood flood-color="#ccff90" result="bg"/>
     <feMerge>
      <feMergeNode in="bg"/>
      <feMergeNode in="SourceGraphic"/>
     </feMerge>
    </filter>
   </defs>
   <text filter="url(#solid)" font-family="Microsoft YaHei" font-size="10.00" text-anchor="middle" x="85.5" y="-571.0">
    STL与排序
   </text>
  </g>
  <g class="key">
   <defs>
    <filter height="1.2" id="solid" width="1.2" x="-0.1" y="-0.1">
     <feFlood flood-color="#ccff90" result="bg"/>
     <feMerge>
      <feMergeNode in="bg"/>
      <feMergeNode in="SourceGraphic"/>
     </feMerge>
    </filter>
   </defs>
   <text filter="url(#solid)" font-family="Microsoft YaHei" font-size="10.00" text-anchor="middle" x="85.5" y="-499.0">
    桶排序
   </text>
  </g>
  <g class="key">
   <defs>
    <filter height="1.2" id="solid" width="1.2" x="-0.1" y="-0.1">
     <feFlood flood-color="#ccff90" result="bg"/>
     <feMerge>
      <feMergeNode in="bg"/>
      <feMergeNode in="SourceGraphic"/>
     </feMerge>
    </filter>
   </defs>
   <text filter="url(#solid)" font-family="Microsoft YaHei" font-size="10.00" text-anchor="middle" x="85.5" y="-427.0">
    带附加信息的优先级队列
   </text>
  </g>
  <g class="key">
   <defs>
    <filter height="1.2" id="solid" width="1.2" x="-0.1" y="-0.1">
     <feFlood flood-color="#ccff90" result="bg"/>
     <feMerge>
      <feMergeNode in="bg"/>
      <feMergeNode in="SourceGraphic"/>
     </feMerge>
    </filter>
   </defs>
   <text filter="url(#solid)" font-family="Microsoft YaHei" font-size="10.00" text-anchor="middle" x="85.5" y="-355.0">
    hash与优先级队列
   </text>
  </g>
  <g class="key">
   <defs>
    <filter height="1.2" id="solid" width="1.2" x="-0.1" y="-0.1">
     <feFlood flood-color="#ccff90" result="bg"/>
     <feMerge>
      <feMergeNode in="bg"/>
      <feMergeNode in="SourceGraphic"/>
     </feMerge>
    </filter>
   </defs>
   <text filter="url(#solid)" font-family="Microsoft YaHei" font-size="10.00" text-anchor="middle" x="85.5" y="-283.0">
    hash与优先级队列
   </text>
  </g>
  <g class="key">
   <defs>
    <filter height="1.2" id="solid" width="1.2" x="-0.1" y="-0.1">
     <feFlood flood-color="#ccff90" result="bg"/>
     <feMerge>
      <feMergeNode in="bg"/>
      <feMergeNode in="SourceGraphic"/>
     </feMerge>
    </filter>
   </defs>
   <text filter="url(#solid)" font-family="Microsoft YaHei" font-size="10.00" text-anchor="middle" x="85.5" y="-211.0">
    带权重的优先级队列
   </text>
  </g>
  <g class="key">
   <defs>
    <filter height="1.2" id="solid" width="1.2" x="-0.1" y="-0.1">
     <feFlood flood-color="#ccff90" result="bg"/>
     <feMerge>
      <feMergeNode in="bg"/>
      <feMergeNode in="SourceGraphic"/>
     </feMerge>
    </filter>
   </defs>
   <text filter="url(#solid)" font-family="Microsoft YaHei" font-size="10.00" text-anchor="middle" x="85.5" y="-139.0">
    丑数变体
   </text>
  </g>
  <g class="key">
   <defs>
    <filter height="1.2" id="solid" width="1.2" x="-0.1" y="-0.1">
     <feFlood flood-color="#ccff90" result="bg"/>
     <feMerge>
      <feMergeNode in="bg"/>
      <feMergeNode in="SourceGraphic"/>
     </feMerge>
    </filter>
   </defs>
   <text filter="url(#solid)" font-family="Microsoft YaHei" font-size="10.00" text-anchor="middle" x="85.5" y="-67.0">
    优先级队列
   </text>
  </g>
  <g class="key">
   <defs>
    <filter height="1.2" id="solid" width="1.2" x="-0.1" y="-0.1">
     <feFlood flood-color="#ccff90" result="bg"/>
     <feMerge>
      <feMergeNode in="bg"/>
      <feMergeNode in="SourceGraphic"/>
     </feMerge>
    </filter>
   </defs>
   <text filter="url(#solid)" font-family="Microsoft YaHei" font-size="10.00" text-anchor="middle" x="85.5" y="5.0">
    767变体
   </text>
  </g>
  <g class="key">
   <defs>
    <filter height="1.2" id="solid" width="1.2" x="-0.1" y="-0.1">
     <feFlood flood-color="#ccff90" result="bg"/>
     <feMerge>
      <feMergeNode in="bg"/>
      <feMergeNode in="SourceGraphic"/>
     </feMerge>
    </filter>
   </defs>
   <text filter="url(#solid)" font-family="Microsoft YaHei" font-size="10.00" text-anchor="middle" x="440.5" y="-787.0">
    基础题
   </text>
  </g>
  <g class="key">
   <defs>
    <filter height="1.2" id="solid" width="1.2" x="-0.1" y="-0.1">
     <feFlood flood-color="#ccff90" result="bg"/>
     <feMerge>
      <feMergeNode in="bg"/>
      <feMergeNode in="SourceGraphic"/>
     </feMerge>
    </filter>
   </defs>
   <text filter="url(#solid)" font-family="Microsoft YaHei" font-size="10.00" text-anchor="middle" x="440.5" y="-715.0">
    基础题
   </text>
  </g>
  <g class="key">
   <defs>
    <filter height="1.2" id="solid" width="1.2" x="-0.1" y="-0.1">
     <feFlood flood-color="#ccff90" result="bg"/>
     <feMerge>
      <feMergeNode in="bg"/>
      <feMergeNode in="SourceGraphic"/>
     </feMerge>
    </filter>
   </defs>
   <text filter="url(#solid)" font-family="Microsoft YaHei" font-size="10.00" text-anchor="middle" x="440.5" y="-643.0">
    树的层次遍历
   </text>
  </g>
  <g class="key">
   <defs>
    <filter height="1.2" id="solid" width="1.2" x="-0.1" y="-0.1">
     <feFlood flood-color="#ccff90" result="bg"/>
     <feMerge>
      <feMergeNode in="bg"/>
      <feMergeNode in="SourceGraphic"/>
     </feMerge>
    </filter>
   </defs>
   <text filter="url(#solid)" font-family="Microsoft YaHei" font-size="10.00" text-anchor="middle" x="440.5" y="-571.0">
    贪心难
   </text>
  </g>
 </g>
</svg>