<?xml version="1.0" encoding="utf-8"?>
<!DOCTYPE svg PUBLIC "-//W3C//DTD SVG 1.1//EN" "http://www.w3.org/Graphics/SVG/1.1/DTD/svg11.dtd">
<!-- Generated by graphviz version 2.46.1 (20210213.1702)
 -->
<!-- Title: stones Pages: 1 -->
<svg height="1628pt" viewBox="0.00 0.00 824.00 1628.00" width="824pt" xmlns="http://www.w3.org/2000/svg" xmlns:xlink="http://www.w3.org/1999/xlink">
 <g class="graph" id="graph0" transform="scale(1 1) rotate(0) translate(4 1624)">
  <title>
   stones
  </title>
  <polygon fill="white" points="-4,4 -4,-1624 820,-1624 820,4 -4,4" stroke="transparent"/>
  <!-- Leetcode&#45;链表 -->
  <g class="node" id="node1">
   <title>
    Leetcode-链表
   </title>
   <g id="a_node1">
    <a target="_parent" xlink:href="https://leetcode-cn.com/tag/linked-list" xlink:title="Leetcode-链表(39)">
     <polygon fill="orangered" points="456.5,-1620 317.5,-1620 317.5,-1584 456.5,-1584 456.5,-1620" stroke="lightgrey"/>
     <text fill="white" font-family="Microsoft YaHei" font-size="14.00" text-anchor="middle" x="387" y="-1598.3">
      Leetcode-链表(39)
     </text>
    </a>
   </g>
  </g>
  <!-- 遍历链表 -->
  <g class="node" id="node2">
   <title>
    遍历链表
   </title>
   <polygon fill="lightslategray" points="80.5,-1188 1.5,-1188 1.5,-1152 80.5,-1152 80.5,-1188" stroke="lightgrey"/>
   <text fill="white" font-family="Microsoft YaHei" font-size="12.00" text-anchor="middle" x="41" y="-1166.9">
    遍历链表(1)
   </text>
  </g>
  <!-- Leetcode&#45;链表&#45;&gt;遍历链表 -->
  <g class="edge" id="edge1">
   <title>
    Leetcode-链表-&gt;遍历链表
   </title>
   <path d="M317.46,-1594.24C240.08,-1585.81 120.7,-1569.79 81,-1548 34.11,-1522.27 0,-1512.48 0,-1459 0,-1459 0,-1459 0,-1313 0,-1271.41 16.44,-1225.56 28.5,-1197.51" fill="none" stroke="gray"/>
   <polygon fill="gray" points="31.85,-1198.59 32.7,-1188.03 25.45,-1195.75 31.85,-1198.59" stroke="gray"/>
  </g>
  <!-- 构建新链表 -->
  <g class="node" id="node4">
   <title>
    构建新链表
   </title>
   <polygon fill="lightslategray" points="181.5,-1548 90.5,-1548 90.5,-1512 181.5,-1512 181.5,-1548" stroke="lightgrey"/>
   <text fill="white" font-family="Microsoft YaHei" font-size="12.00" text-anchor="middle" x="136" y="-1526.9">
    构建新链表(2)
   </text>
  </g>
  <!-- Leetcode&#45;链表&#45;&gt;构建新链表 -->
  <g class="edge" id="edge3">
   <title>
    Leetcode-链表-&gt;构建新链表
   </title>
   <path d="M325.92,-1583.97C284.85,-1572.51 231.16,-1557.54 191.34,-1546.43" fill="none" stroke="gray"/>
   <polygon fill="gray" points="192.11,-1543.01 181.53,-1543.7 190.23,-1549.76 192.11,-1543.01" stroke="gray"/>
  </g>
  <!-- 删除链表 -->
  <g class="node" id="node7">
   <title>
    删除链表
   </title>
   <polygon fill="lightslategray" points="329.5,-1548 250.5,-1548 250.5,-1512 329.5,-1512 329.5,-1548" stroke="lightgrey"/>
   <text fill="white" font-family="Microsoft YaHei" font-size="12.00" text-anchor="middle" x="290" y="-1526.9">
    删除链表(4)
   </text>
  </g>
  <!-- Leetcode&#45;链表&#45;&gt;删除链表 -->
  <g class="edge" id="edge6">
   <title>
    Leetcode-链表-&gt;删除链表
   </title>
   <path d="M363.02,-1583.7C350.69,-1574.8 335.48,-1563.82 322.15,-1554.2" fill="none" stroke="gray"/>
   <polygon fill="gray" points="323.86,-1551.12 313.7,-1548.1 319.76,-1556.79 323.86,-1551.12" stroke="gray"/>
  </g>
  <!-- 合并链表 -->
  <g class="node" id="node12">
   <title>
    合并链表
   </title>
   <polygon fill="lightslategray" points="426.5,-1548 347.5,-1548 347.5,-1512 426.5,-1512 426.5,-1548" stroke="lightgrey"/>
   <text fill="white" font-family="Microsoft YaHei" font-size="12.00" text-anchor="middle" x="387" y="-1526.9">
    合并链表(0)
   </text>
  </g>
  <!-- Leetcode&#45;链表&#45;&gt;合并链表 -->
  <g class="edge" id="edge11">
   <title>
    Leetcode-链表-&gt;合并链表
   </title>
   <path d="M387,-1583.7C387,-1575.98 387,-1566.71 387,-1558.11" fill="none" stroke="gray"/>
   <polygon fill="gray" points="390.5,-1558.1 387,-1548.1 383.5,-1558.1 390.5,-1558.1" stroke="gray"/>
  </g>
  <!-- 简单题 -->
  <g class="node" id="node13">
   <title>
    简单题
   </title>
   <polygon fill="lightslategray" points="511.5,-1548 444.5,-1548 444.5,-1512 511.5,-1512 511.5,-1548" stroke="lightgrey"/>
   <text fill="white" font-family="Microsoft YaHei" font-size="12.00" text-anchor="middle" x="478" y="-1526.9">
    简单题(8)
   </text>
  </g>
  <!-- Leetcode&#45;链表&#45;&gt;简单题 -->
  <g class="edge" id="edge12">
   <title>
    Leetcode-链表-&gt;简单题
   </title>
   <path d="M409.49,-1583.7C420.96,-1574.88 435.06,-1564.03 447.48,-1554.47" fill="none" stroke="gray"/>
   <polygon fill="gray" points="449.97,-1556.98 455.76,-1548.1 445.7,-1551.43 449.97,-1556.98" stroke="gray"/>
  </g>
  <!-- 中等题 -->
  <g class="node" id="node21">
   <title>
    中等题
   </title>
   <polygon fill="lightslategray" points="614,-1548 540,-1548 540,-1512 614,-1512 614,-1548" stroke="lightgrey"/>
   <text fill="white" font-family="Microsoft YaHei" font-size="12.00" text-anchor="middle" x="577" y="-1526.9">
    中等题(22)
   </text>
  </g>
  <!-- Leetcode&#45;链表&#45;&gt;中等题 -->
  <g class="edge" id="edge21">
   <title>
    Leetcode-链表-&gt;中等题
   </title>
   <path d="M433.48,-1583.88C462.89,-1573.04 500.79,-1559.08 530.25,-1548.22" fill="none" stroke="gray"/>
   <polygon fill="gray" points="531.73,-1551.41 539.9,-1544.67 529.31,-1544.84 531.73,-1551.41" stroke="gray"/>
  </g>
  <!-- 困难题 -->
  <g class="node" id="node43">
   <title>
    困难题
   </title>
   <polygon fill="lightslategray" points="724.5,-1548 657.5,-1548 657.5,-1512 724.5,-1512 724.5,-1548" stroke="lightgrey"/>
   <text fill="white" font-family="Microsoft YaHei" font-size="12.00" text-anchor="middle" x="691" y="-1526.9">
    困难题(2)
   </text>
  </g>
  <!-- Leetcode&#45;链表&#45;&gt;困难题 -->
  <g class="edge" id="edge44">
   <title>
    Leetcode-链表-&gt;困难题
   </title>
   <path d="M456.55,-1585.84C503.6,-1575.47 567.13,-1561.26 623,-1548 631,-1546.1 639.51,-1544.02 647.7,-1541.99" fill="none" stroke="gray"/>
   <polygon fill="gray" points="648.63,-1545.36 657.49,-1539.55 646.94,-1538.57 648.63,-1545.36" stroke="gray"/>
  </g>
  <!-- 1290 -->
  <g class="node" id="node3">
   <title>
    1290
   </title>
   <g id="a_node3">
    <a target="_parent" xlink:href="https://leetcode-cn.com/problems/convert-binary-number-in-a-linked-list-to-integer" xlink:title="1290. 二进制链表转整数">
     <polygon fill="none" points="360,-972 214,-972 214,-936 360,-936 360,-972" stroke="greenyellow"/>
     <text font-family="Microsoft YaHei" font-size="12.00" text-anchor="middle" x="287" y="-950.9">
      1290. 二进制链表转整数
     </text>
    </a>
   </g>
   <g transform="translate(352.0, -978.0) scale(0.3)">
    <circle cx="24" cy="24" fill="#4CAF50" r="21"/>
    <polygon fill="#CCFF90" points="34.6,14.6 21,28.2 15.4,22.6 12.6,25.4 21,33.8 37.4,17.4"/>
   </g>
  </g>
  <!-- 遍历链表&#45;&gt;1290 -->
  <g class="edge" id="edge2">
   <title>
    遍历链表-&gt;1290
   </title>
   <path d="M60.72,-1151.85C104.35,-1113.89 209.18,-1022.7 259.34,-979.06" fill="none" stroke="gray"/>
   <polygon fill="gray" points="261.94,-981.44 267.19,-972.23 257.35,-976.16 261.94,-981.44" stroke="gray"/>
  </g>
  <!-- 2 -->
  <g class="node" id="node5">
   <title>
    2
   </title>
   <g id="a_node5">
    <a target="_parent" xlink:href="https://leetcode-cn.com/problems/add-two-numbers" xlink:title="2. 两数相加">
     <polygon fill="none" points="174,-1476 96,-1476 96,-1440 174,-1440 174,-1476" stroke="orange"/>
     <text font-family="Microsoft YaHei" font-size="12.00" text-anchor="middle" x="135" y="-1454.9">
      2. 两数相加
     </text>
    </a>
   </g>
  </g>
  <!-- 构建新链表&#45;&gt;2 -->
  <g class="edge" id="edge4">
   <title>
    构建新链表-&gt;2
   </title>
   <path d="M135.75,-1511.7C135.64,-1503.98 135.51,-1494.71 135.39,-1486.11" fill="none" stroke="gray"/>
   <polygon fill="gray" points="138.89,-1486.05 135.24,-1476.1 131.89,-1486.15 138.89,-1486.05" stroke="gray"/>
  </g>
  <!-- 138 -->
  <g class="node" id="node6">
   <title>
    138
   </title>
   <g id="a_node6">
    <a target="_parent" xlink:href="https://leetcode-cn.com/problems/copy-list-with-random-pointer" xlink:title="138. 复制带随机指针的链表">
     <polygon fill="none" points="192,-1404 28,-1404 28,-1368 192,-1368 192,-1404" stroke="orange"/>
     <text font-family="Microsoft YaHei" font-size="12.00" text-anchor="middle" x="110" y="-1382.9">
      138. 复制带随机指针的链表
     </text>
    </a>
   </g>
  </g>
  <!-- 2&#45;&gt;138 -->
  <g class="edge" id="edge5">
   <title>
    2-&gt;138
   </title>
   <path d="M128.82,-1439.7C126,-1431.81 122.61,-1422.3 119.48,-1413.55" fill="none" stroke="gray"/>
   <polygon fill="gray" points="122.77,-1412.34 116.11,-1404.1 116.18,-1414.7 122.77,-1412.34" stroke="gray"/>
  </g>
  <!-- 237 -->
  <g class="node" id="node8">
   <title>
    237
   </title>
   <g id="a_node8">
    <a target="_parent" xlink:href="https://leetcode-cn.com/problems/delete-node-in-a-linked-list" xlink:title="237. 删除链表中的节点">
     <polygon fill="none" points="364,-1476 224,-1476 224,-1440 364,-1440 364,-1476" stroke="greenyellow"/>
     <text font-family="Microsoft YaHei" font-size="12.00" text-anchor="middle" x="294" y="-1454.9">
      237. 删除链表中的节点
     </text>
    </a>
   </g>
  </g>
  <!-- 删除链表&#45;&gt;237 -->
  <g class="edge" id="edge7">
   <title>
    删除链表-&gt;237
   </title>
   <path d="M290.99,-1511.7C291.43,-1503.98 291.96,-1494.71 292.45,-1486.11" fill="none" stroke="gray"/>
   <polygon fill="gray" points="295.95,-1486.29 293.02,-1476.1 288.96,-1485.89 295.95,-1486.29" stroke="gray"/>
  </g>
  <!-- 83 -->
  <g class="node" id="node9">
   <title>
    83
   </title>
   <g id="a_node9">
    <a target="_parent" xlink:href="https://leetcode-cn.com/problems/remove-duplicates-from-sorted-list" xlink:title="83. 删除排序链表中的重复元素">
     <polygon fill="none" points="391.5,-1404 210.5,-1404 210.5,-1368 391.5,-1368 391.5,-1404" stroke="greenyellow"/>
     <text font-family="Microsoft YaHei" font-size="12.00" text-anchor="middle" x="301" y="-1382.9">
      83. 删除排序链表中的重复元素
     </text>
    </a>
   </g>
   <g transform="translate(383.5, -1410.0) scale(0.3)">
    <circle cx="24" cy="24" fill="#4CAF50" r="21"/>
    <polygon fill="#CCFF90" points="34.6,14.6 21,28.2 15.4,22.6 12.6,25.4 21,33.8 37.4,17.4"/>
   </g>
  </g>
  <!-- 237&#45;&gt;83 -->
  <g class="edge" id="edge8">
   <title>
    237-&gt;83
   </title>
   <path d="M295.73,-1439.7C296.5,-1431.98 297.43,-1422.71 298.29,-1414.11" fill="none" stroke="gray"/>
   <polygon fill="gray" points="301.78,-1414.4 299.29,-1404.1 294.81,-1413.71 301.78,-1414.4" stroke="gray"/>
  </g>
  <!-- 82 -->
  <g class="node" id="node10">
   <title>
    82
   </title>
   <g id="a_node10">
    <a target="_parent" xlink:href="https://leetcode-cn.com/problems/remove-duplicates-from-sorted-list-ii" xlink:title="82. 删除排序链表中的重复元素 II">
     <polygon fill="none" points="397,-1332 205,-1332 205,-1296 397,-1296 397,-1332" stroke="orange"/>
     <text font-family="Microsoft YaHei" font-size="12.00" text-anchor="middle" x="301" y="-1310.9">
      82. 删除排序链表中的重复元素 II
     </text>
    </a>
   </g>
   <g transform="translate(389.0, -1338.0) scale(0.3)">
    <circle cx="24" cy="24" fill="#4CAF50" r="21"/>
    <polygon fill="#CCFF90" points="34.6,14.6 21,28.2 15.4,22.6 12.6,25.4 21,33.8 37.4,17.4"/>
   </g>
  </g>
  <!-- 83&#45;&gt;82 -->
  <g class="edge" id="edge9">
   <title>
    83-&gt;82
   </title>
   <path d="M301,-1367.7C301,-1359.98 301,-1350.71 301,-1342.11" fill="none" stroke="gray"/>
   <polygon fill="gray" points="304.5,-1342.1 301,-1332.1 297.5,-1342.1 304.5,-1342.1" stroke="gray"/>
  </g>
  <!-- 19 -->
  <g class="node" id="node11">
   <title>
    19
   </title>
   <g id="a_node11">
    <a target="_parent" xlink:href="https://leetcode-cn.com/problems/remove-nth-node-from-end-of-list" xlink:title="19. 删除链表的倒数第 N 个结点">
     <polygon fill="none" points="394,-1260 208,-1260 208,-1224 394,-1224 394,-1260" stroke="orange"/>
     <text font-family="Microsoft YaHei" font-size="12.00" text-anchor="middle" x="301" y="-1238.9">
      19. 删除链表的倒数第 N 个结点
     </text>
    </a>
   </g>
   <g transform="translate(386.0, -1266.0) scale(0.3)">
    <circle cx="24" cy="24" fill="#4CAF50" r="21"/>
    <polygon fill="#CCFF90" points="34.6,14.6 21,28.2 15.4,22.6 12.6,25.4 21,33.8 37.4,17.4"/>
   </g>
  </g>
  <!-- 82&#45;&gt;19 -->
  <g class="edge" id="edge10">
   <title>
    82-&gt;19
   </title>
   <path d="M301,-1295.7C301,-1287.98 301,-1278.71 301,-1270.11" fill="none" stroke="gray"/>
   <polygon fill="gray" points="304.5,-1270.1 301,-1260.1 297.5,-1270.1 304.5,-1270.1" stroke="gray"/>
  </g>
  <!-- 234 -->
  <g class="node" id="node14">
   <title>
    234
   </title>
   <g id="a_node14">
    <a target="_parent" xlink:href="https://leetcode-cn.com/problems/palindrome-linked-list" xlink:title="234. 回文链表">
     <polygon fill="none" points="521,-1476 429,-1476 429,-1440 521,-1440 521,-1476" stroke="greenyellow"/>
     <text font-family="Microsoft YaHei" font-size="12.00" text-anchor="middle" x="475" y="-1454.9">
      234. 回文链表
     </text>
    </a>
   </g>
  </g>
  <!-- 简单题&#45;&gt;234 -->
  <g class="edge" id="edge13">
   <title>
    简单题-&gt;234
   </title>
   <path d="M477.26,-1511.7C476.93,-1503.98 476.53,-1494.71 476.16,-1486.11" fill="none" stroke="gray"/>
   <polygon fill="gray" points="479.66,-1485.95 475.73,-1476.1 472.66,-1486.25 479.66,-1485.95" stroke="gray"/>
  </g>
  <!-- 203 -->
  <g class="node" id="node15">
   <title>
    203
   </title>
   <g id="a_node15">
    <a target="_parent" xlink:href="https://leetcode-cn.com/problems/remove-linked-list-elements" xlink:title="203. 移除链表元素">
     <polygon fill="none" points="526,-1404 410,-1404 410,-1368 526,-1368 526,-1404" stroke="greenyellow"/>
     <text font-family="Microsoft YaHei" font-size="12.00" text-anchor="middle" x="468" y="-1382.9">
      203. 移除链表元素
     </text>
    </a>
   </g>
  </g>
  <!-- 234&#45;&gt;203 -->
  <g class="edge" id="edge14">
   <title>
    234-&gt;203
   </title>
   <path d="M473.27,-1439.7C472.5,-1431.98 471.57,-1422.71 470.71,-1414.11" fill="none" stroke="gray"/>
   <polygon fill="gray" points="474.19,-1413.71 469.71,-1404.1 467.22,-1414.4 474.19,-1413.71" stroke="gray"/>
  </g>
  <!-- 141 -->
  <g class="node" id="node16">
   <title>
    141
   </title>
   <g id="a_node16">
    <a target="_parent" xlink:href="https://leetcode-cn.com/problems/linked-list-cycle" xlink:title="141. 环形链表">
     <polygon fill="none" points="511,-1332 419,-1332 419,-1296 511,-1296 511,-1332" stroke="greenyellow"/>
     <text font-family="Microsoft YaHei" font-size="12.00" text-anchor="middle" x="465" y="-1310.9">
      141. 环形链表
     </text>
    </a>
   </g>
  </g>
  <!-- 203&#45;&gt;141 -->
  <g class="edge" id="edge15">
   <title>
    203-&gt;141
   </title>
   <path d="M467.26,-1367.7C466.93,-1359.98 466.53,-1350.71 466.16,-1342.11" fill="none" stroke="gray"/>
   <polygon fill="gray" points="469.66,-1341.95 465.73,-1332.1 462.66,-1342.25 469.66,-1341.95" stroke="gray"/>
  </g>
  <!-- 160 -->
  <g class="node" id="node17">
   <title>
    160
   </title>
   <g id="a_node17">
    <a target="_parent" xlink:href="https://leetcode-cn.com/problems/intersection-of-two-linked-lists" xlink:title="160. 相交链表">
     <polygon fill="none" points="507,-1260 415,-1260 415,-1224 507,-1224 507,-1260" stroke="greenyellow"/>
     <text font-family="Microsoft YaHei" font-size="12.00" text-anchor="middle" x="461" y="-1238.9">
      160. 相交链表
     </text>
    </a>
   </g>
  </g>
  <!-- 141&#45;&gt;160 -->
  <g class="edge" id="edge16">
   <title>
    141-&gt;160
   </title>
   <path d="M464.01,-1295.7C463.57,-1287.98 463.04,-1278.71 462.55,-1270.11" fill="none" stroke="gray"/>
   <polygon fill="gray" points="466.04,-1269.89 461.98,-1260.1 459.05,-1270.29 466.04,-1269.89" stroke="gray"/>
  </g>
  <!-- 21 -->
  <g class="node" id="node18">
   <title>
    21
   </title>
   <g id="a_node18">
    <a target="_parent" xlink:href="https://leetcode-cn.com/problems/merge-two-sorted-lists" xlink:title="21. 合并两个有序链表">
     <polygon fill="none" points="392.5,-1188 259.5,-1188 259.5,-1152 392.5,-1152 392.5,-1188" stroke="greenyellow"/>
     <text font-family="Microsoft YaHei" font-size="12.00" text-anchor="middle" x="326" y="-1166.9">
      21. 合并两个有序链表
     </text>
    </a>
   </g>
  </g>
  <!-- 160&#45;&gt;21 -->
  <g class="edge" id="edge17">
   <title>
    160-&gt;21
   </title>
   <path d="M427.98,-1223.88C409.92,-1214.51 387.35,-1202.81 368.05,-1192.8" fill="none" stroke="gray"/>
   <polygon fill="gray" points="369.64,-1189.69 359.15,-1188.19 366.42,-1195.9 369.64,-1189.69" stroke="gray"/>
  </g>
  <!-- 976 -->
  <g class="node" id="node19">
   <title>
    976
   </title>
   <g id="a_node19">
    <a target="_parent" xlink:href="https://leetcode-cn.com/problems/largest-perimeter-triangle" xlink:title="976. 三角形的最大周长">
     <polygon fill="none" points="377,-1116 237,-1116 237,-1080 377,-1080 377,-1116" stroke="greenyellow"/>
     <text font-family="Microsoft YaHei" font-size="12.00" text-anchor="middle" x="307" y="-1094.9">
      976. 三角形的最大周长
     </text>
    </a>
   </g>
  </g>
  <!-- 21&#45;&gt;976 -->
  <g class="edge" id="edge18">
   <title>
    21-&gt;976
   </title>
   <path d="M321.3,-1151.7C319.19,-1143.9 316.64,-1134.51 314.28,-1125.83" fill="none" stroke="gray"/>
   <polygon fill="gray" points="317.64,-1124.84 311.64,-1116.1 310.88,-1126.67 317.64,-1124.84" stroke="gray"/>
  </g>
  <!-- 206 -->
  <g class="node" id="node20">
   <title>
    206
   </title>
   <g id="a_node20">
    <a target="_parent" xlink:href="https://leetcode-cn.com/problems/reverse-linked-list" xlink:title="206. 反转链表">
     <polygon fill="none" points="343,-1044 251,-1044 251,-1008 343,-1008 343,-1044" stroke="greenyellow"/>
     <text font-family="Microsoft YaHei" font-size="12.00" text-anchor="middle" x="297" y="-1022.9">
      206. 反转链表
     </text>
    </a>
   </g>
  </g>
  <!-- 976&#45;&gt;206 -->
  <g class="edge" id="edge19">
   <title>
    976-&gt;206
   </title>
   <path d="M304.53,-1079.7C303.43,-1071.98 302.1,-1062.71 300.87,-1054.11" fill="none" stroke="gray"/>
   <polygon fill="gray" points="304.32,-1053.51 299.44,-1044.1 297.39,-1054.5 304.32,-1053.51" stroke="gray"/>
  </g>
  <!-- 206&#45;&gt;1290 -->
  <g class="edge" id="edge20">
   <title>
    206-&gt;1290
   </title>
   <path d="M294.53,-1007.7C293.43,-999.98 292.1,-990.71 290.87,-982.11" fill="none" stroke="gray"/>
   <polygon fill="gray" points="294.32,-981.51 289.44,-972.1 287.39,-982.5 294.32,-981.51" stroke="gray"/>
  </g>
  <!-- 707 -->
  <g class="node" id="node22">
   <title>
    707
   </title>
   <g id="a_node22">
    <a target="_parent" xlink:href="https://leetcode-cn.com/problems/design-linked-list" xlink:title="707. 设计链表">
     <polygon fill="none" points="644,-1476 552,-1476 552,-1440 644,-1440 644,-1476" stroke="orange"/>
     <text font-family="Microsoft YaHei" font-size="12.00" text-anchor="middle" x="598" y="-1454.9">
      707. 设计链表
     </text>
    </a>
   </g>
  </g>
  <!-- 中等题&#45;&gt;707 -->
  <g class="edge" id="edge22">
   <title>
    中等题-&gt;707
   </title>
   <path d="M582.19,-1511.7C584.53,-1503.9 587.35,-1494.51 589.95,-1485.83" fill="none" stroke="gray"/>
   <polygon fill="gray" points="593.35,-1486.69 592.87,-1476.1 586.64,-1484.68 593.35,-1486.69" stroke="gray"/>
  </g>
  <!-- 1669 -->
  <g class="node" id="node23">
   <title>
    1669
   </title>
   <g id="a_node23">
    <a target="_parent" xlink:href="https://leetcode-cn.com/problems/merge-in-between-linked-lists" xlink:title="1669. 合并两个链表">
     <polygon fill="none" points="666,-1404 544,-1404 544,-1368 666,-1368 666,-1404" stroke="orange"/>
     <text font-family="Microsoft YaHei" font-size="12.00" text-anchor="middle" x="605" y="-1382.9">
      1669. 合并两个链表
     </text>
    </a>
   </g>
  </g>
  <!-- 707&#45;&gt;1669 -->
  <g class="edge" id="edge23">
   <title>
    707-&gt;1669
   </title>
   <path d="M599.73,-1439.7C600.5,-1431.98 601.43,-1422.71 602.29,-1414.11" fill="none" stroke="gray"/>
   <polygon fill="gray" points="605.78,-1414.4 603.29,-1404.1 598.81,-1413.71 605.78,-1414.4" stroke="gray"/>
  </g>
  <!-- 61 -->
  <g class="node" id="node24">
   <title>
    61
   </title>
   <g id="a_node24">
    <a target="_parent" xlink:href="https://leetcode-cn.com/problems/rotate-list" xlink:title="61. 旋转链表">
     <polygon fill="none" points="643.5,-1332 558.5,-1332 558.5,-1296 643.5,-1296 643.5,-1332" stroke="orange"/>
     <text font-family="Microsoft YaHei" font-size="12.00" text-anchor="middle" x="601" y="-1310.9">
      61. 旋转链表
     </text>
    </a>
   </g>
  </g>
  <!-- 1669&#45;&gt;61 -->
  <g class="edge" id="edge24">
   <title>
    1669-&gt;61
   </title>
   <path d="M604.01,-1367.7C603.57,-1359.98 603.04,-1350.71 602.55,-1342.11" fill="none" stroke="gray"/>
   <polygon fill="gray" points="606.04,-1341.89 601.98,-1332.1 599.05,-1342.29 606.04,-1341.89" stroke="gray"/>
  </g>
  <!-- 1367 -->
  <g class="node" id="node25">
   <title>
    1367
   </title>
   <g id="a_node25">
    <a target="_parent" xlink:href="https://leetcode-cn.com/problems/linked-list-in-binary-tree" xlink:title="1367. 二叉树中的列表">
     <polygon fill="none" points="665,-1260 531,-1260 531,-1224 665,-1224 665,-1260" stroke="orange"/>
     <text font-family="Microsoft YaHei" font-size="12.00" text-anchor="middle" x="598" y="-1238.9">
      1367. 二叉树中的列表
     </text>
    </a>
   </g>
   <g transform="translate(657.0, -1266.0) scale(0.3)">
    <circle cx="24" cy="24" fill="#4CAF50" r="21"/>
    <polygon fill="#CCFF90" points="34.6,14.6 21,28.2 15.4,22.6 12.6,25.4 21,33.8 37.4,17.4"/>
   </g>
  </g>
  <!-- 61&#45;&gt;1367 -->
  <g class="edge" id="edge25">
   <title>
    61-&gt;1367
   </title>
   <path d="M600.26,-1295.7C599.93,-1287.98 599.53,-1278.71 599.16,-1270.11" fill="none" stroke="gray"/>
   <polygon fill="gray" points="602.66,-1269.95 598.73,-1260.1 595.66,-1270.25 602.66,-1269.95" stroke="gray"/>
  </g>
  <!-- 1171 -->
  <g class="node" id="node26">
   <title>
    1171
   </title>
   <g id="a_node26">
    <a target="_parent" xlink:href="https://leetcode-cn.com/problems/remove-zero-sum-consecutive-nodes-from-linked-list" xlink:title="1171. 从链表中删去总和值为零的连续节点">
     <polygon fill="none" points="692,-1188 450,-1188 450,-1152 692,-1152 692,-1188" stroke="orange"/>
     <text font-family="Microsoft YaHei" font-size="12.00" text-anchor="middle" x="571" y="-1166.9">
      1171. 从链表中删去总和值为零的连续节点
     </text>
    </a>
   </g>
  </g>
  <!-- 1367&#45;&gt;1171 -->
  <g class="edge" id="edge26">
   <title>
    1367-&gt;1171
   </title>
   <path d="M591.33,-1223.7C588.29,-1215.81 584.62,-1206.3 581.24,-1197.55" fill="none" stroke="gray"/>
   <polygon fill="gray" points="584.46,-1196.17 577.6,-1188.1 577.93,-1198.69 584.46,-1196.17" stroke="gray"/>
  </g>
  <!-- 92 -->
  <g class="node" id="node27">
   <title>
    92
   </title>
   <g id="a_node27">
    <a target="_parent" xlink:href="https://leetcode-cn.com/problems/reverse-linked-list-ii" xlink:title="92. 反转链表 II">
     <polygon fill="none" points="620,-1116 524,-1116 524,-1080 620,-1080 620,-1116" stroke="orange"/>
     <text font-family="Microsoft YaHei" font-size="12.00" text-anchor="middle" x="572" y="-1094.9">
      92. 反转链表 II
     </text>
    </a>
   </g>
  </g>
  <!-- 1171&#45;&gt;92 -->
  <g class="edge" id="edge27">
   <title>
    1171-&gt;92
   </title>
   <path d="M571.25,-1151.7C571.36,-1143.98 571.49,-1134.71 571.61,-1126.11" fill="none" stroke="gray"/>
   <polygon fill="gray" points="575.11,-1126.15 571.76,-1116.1 568.11,-1126.05 575.11,-1126.15" stroke="gray"/>
  </g>
  <!-- 430 -->
  <g class="node" id="node28">
   <title>
    430
   </title>
   <g id="a_node28">
    <a target="_parent" xlink:href="https://leetcode-cn.com/problems/flatten-a-multilevel-doubly-linked-list" xlink:title="430. 扁平化多级双向链表">
     <polygon fill="none" points="648,-1044 496,-1044 496,-1008 648,-1008 648,-1044" stroke="orange"/>
     <text font-family="Microsoft YaHei" font-size="12.00" text-anchor="middle" x="572" y="-1022.9">
      430. 扁平化多级双向链表
     </text>
    </a>
   </g>
  </g>
  <!-- 92&#45;&gt;430 -->
  <g class="edge" id="edge28">
   <title>
    92-&gt;430
   </title>
   <path d="M572,-1079.7C572,-1071.98 572,-1062.71 572,-1054.11" fill="none" stroke="gray"/>
   <polygon fill="gray" points="575.5,-1054.1 572,-1044.1 568.5,-1054.1 575.5,-1054.1" stroke="gray"/>
  </g>
  <!-- 1670 -->
  <g class="node" id="node29">
   <title>
    1670
   </title>
   <g id="a_node29">
    <a target="_parent" xlink:href="https://leetcode-cn.com/problems/design-front-middle-back-queue" xlink:title="1670. 设计前中后队列">
     <polygon fill="none" points="640,-972 506,-972 506,-936 640,-936 640,-972" stroke="orange"/>
     <text font-family="Microsoft YaHei" font-size="12.00" text-anchor="middle" x="573" y="-950.9">
      1670. 设计前中后队列
     </text>
    </a>
   </g>
  </g>
  <!-- 430&#45;&gt;1670 -->
  <g class="edge" id="edge29">
   <title>
    430-&gt;1670
   </title>
   <path d="M572.25,-1007.7C572.36,-999.98 572.49,-990.71 572.61,-982.11" fill="none" stroke="gray"/>
   <polygon fill="gray" points="576.11,-982.15 572.76,-972.1 569.11,-982.05 576.11,-982.15" stroke="gray"/>
  </g>
  <!-- 142 -->
  <g class="node" id="node30">
   <title>
    142
   </title>
   <g id="a_node30">
    <a target="_parent" xlink:href="https://leetcode-cn.com/problems/linked-list-cycle-ii" xlink:title="142. 环形链表 II">
     <polygon fill="none" points="628.5,-900 525.5,-900 525.5,-864 628.5,-864 628.5,-900" stroke="orange"/>
     <text font-family="Microsoft YaHei" font-size="12.00" text-anchor="middle" x="577" y="-878.9">
      142. 环形链表 II
     </text>
    </a>
   </g>
  </g>
  <!-- 1670&#45;&gt;142 -->
  <g class="edge" id="edge30">
   <title>
    1670-&gt;142
   </title>
   <path d="M573.99,-935.7C574.43,-927.98 574.96,-918.71 575.45,-910.11" fill="none" stroke="gray"/>
   <polygon fill="gray" points="578.95,-910.29 576.02,-900.1 571.96,-909.89 578.95,-910.29" stroke="gray"/>
  </g>
  <!-- 725 -->
  <g class="node" id="node31">
   <title>
    725
   </title>
   <g id="a_node31">
    <a target="_parent" xlink:href="https://leetcode-cn.com/problems/split-linked-list-in-parts" xlink:title="725. 分隔链表">
     <polygon fill="none" points="630,-828 538,-828 538,-792 630,-792 630,-828" stroke="orange"/>
     <text font-family="Microsoft YaHei" font-size="12.00" text-anchor="middle" x="584" y="-806.9">
      725. 分隔链表
     </text>
    </a>
   </g>
  </g>
  <!-- 142&#45;&gt;725 -->
  <g class="edge" id="edge31">
   <title>
    142-&gt;725
   </title>
   <path d="M578.73,-863.7C579.5,-855.98 580.43,-846.71 581.29,-838.11" fill="none" stroke="gray"/>
   <polygon fill="gray" points="584.78,-838.4 582.29,-828.1 577.81,-837.71 584.78,-838.4" stroke="gray"/>
  </g>
  <!-- 1019 -->
  <g class="node" id="node32">
   <title>
    1019
   </title>
   <g id="a_node32">
    <a target="_parent" xlink:href="https://leetcode-cn.com/problems/next-greater-node-in-linked-list" xlink:title="1019. 链表中的下一个更大节点">
     <polygon fill="none" points="690,-756 508,-756 508,-720 690,-720 690,-756" stroke="orange"/>
     <text font-family="Microsoft YaHei" font-size="12.00" text-anchor="middle" x="599" y="-734.9">
      1019. 链表中的下一个更大节点
     </text>
    </a>
   </g>
  </g>
  <!-- 725&#45;&gt;1019 -->
  <g class="edge" id="edge32">
   <title>
    725-&gt;1019
   </title>
   <path d="M587.71,-791.7C589.36,-783.98 591.35,-774.71 593.19,-766.11" fill="none" stroke="gray"/>
   <polygon fill="gray" points="596.66,-766.62 595.33,-756.1 589.82,-765.15 596.66,-766.62" stroke="gray"/>
  </g>
  <!-- 445 -->
  <g class="node" id="node33">
   <title>
    445
   </title>
   <g id="a_node33">
    <a target="_parent" xlink:href="https://leetcode-cn.com/problems/add-two-numbers-ii" xlink:title="445. 两数相加 II">
     <polygon fill="none" points="650.5,-684 547.5,-684 547.5,-648 650.5,-648 650.5,-684" stroke="orange"/>
     <text font-family="Microsoft YaHei" font-size="12.00" text-anchor="middle" x="599" y="-662.9">
      445. 两数相加 II
     </text>
    </a>
   </g>
  </g>
  <!-- 1019&#45;&gt;445 -->
  <g class="edge" id="edge33">
   <title>
    1019-&gt;445
   </title>
   <path d="M599,-719.7C599,-711.98 599,-702.71 599,-694.11" fill="none" stroke="gray"/>
   <polygon fill="gray" points="602.5,-694.1 599,-684.1 595.5,-694.1 602.5,-694.1" stroke="gray"/>
  </g>
  <!-- 817 -->
  <g class="node" id="node34">
   <title>
    817
   </title>
   <g id="a_node34">
    <a target="_parent" xlink:href="https://leetcode-cn.com/problems/linked-list-components" xlink:title="817. 链表组件">
     <polygon fill="none" points="645,-612 553,-612 553,-576 645,-576 645,-612" stroke="orange"/>
     <text font-family="Microsoft YaHei" font-size="12.00" text-anchor="middle" x="599" y="-590.9">
      817. 链表组件
     </text>
    </a>
   </g>
  </g>
  <!-- 445&#45;&gt;817 -->
  <g class="edge" id="edge34">
   <title>
    445-&gt;817
   </title>
   <path d="M599,-647.7C599,-639.98 599,-630.71 599,-622.11" fill="none" stroke="gray"/>
   <polygon fill="gray" points="602.5,-622.1 599,-612.1 595.5,-622.1 602.5,-622.1" stroke="gray"/>
  </g>
  <!-- 143 -->
  <g class="node" id="node35">
   <title>
    143
   </title>
   <g id="a_node35">
    <a target="_parent" xlink:href="https://leetcode-cn.com/problems/reorder-list" xlink:title="143. 重排链表">
     <polygon fill="none" points="645,-540 553,-540 553,-504 645,-504 645,-540" stroke="orange"/>
     <text font-family="Microsoft YaHei" font-size="12.00" text-anchor="middle" x="599" y="-518.9">
      143. 重排链表
     </text>
    </a>
   </g>
  </g>
  <!-- 817&#45;&gt;143 -->
  <g class="edge" id="edge35">
   <title>
    817-&gt;143
   </title>
   <path d="M599,-575.7C599,-567.98 599,-558.71 599,-550.11" fill="none" stroke="gray"/>
   <polygon fill="gray" points="602.5,-550.1 599,-540.1 595.5,-550.1 602.5,-550.1" stroke="gray"/>
  </g>
  <!-- 86 -->
  <g class="node" id="node36">
   <title>
    86
   </title>
   <g id="a_node36">
    <a target="_parent" xlink:href="https://leetcode-cn.com/problems/partition-list" xlink:title="86. 分隔链表">
     <polygon fill="none" points="641.5,-468 556.5,-468 556.5,-432 641.5,-432 641.5,-468" stroke="orange"/>
     <text font-family="Microsoft YaHei" font-size="12.00" text-anchor="middle" x="599" y="-446.9">
      86. 分隔链表
     </text>
    </a>
   </g>
  </g>
  <!-- 143&#45;&gt;86 -->
  <g class="edge" id="edge36">
   <title>
    143-&gt;86
   </title>
   <path d="M599,-503.7C599,-495.98 599,-486.71 599,-478.11" fill="none" stroke="gray"/>
   <polygon fill="gray" points="602.5,-478.1 599,-468.1 595.5,-478.1 602.5,-478.1" stroke="gray"/>
  </g>
  <!-- 328 -->
  <g class="node" id="node37">
   <title>
    328
   </title>
   <g id="a_node37">
    <a target="_parent" xlink:href="https://leetcode-cn.com/problems/odd-even-linked-list" xlink:title="328. 奇偶链表">
     <polygon fill="none" points="646,-396 554,-396 554,-360 646,-360 646,-396" stroke="orange"/>
     <text font-family="Microsoft YaHei" font-size="12.00" text-anchor="middle" x="600" y="-374.9">
      328. 奇偶链表
     </text>
    </a>
   </g>
  </g>
  <!-- 86&#45;&gt;328 -->
  <g class="edge" id="edge37">
   <title>
    86-&gt;328
   </title>
   <path d="M599.25,-431.7C599.36,-423.98 599.49,-414.71 599.61,-406.11" fill="none" stroke="gray"/>
   <polygon fill="gray" points="603.11,-406.15 599.76,-396.1 596.11,-406.05 603.11,-406.15" stroke="gray"/>
  </g>
  <!-- 147 -->
  <g class="node" id="node38">
   <title>
    147
   </title>
   <g id="a_node38">
    <a target="_parent" xlink:href="https://leetcode-cn.com/problems/insertion-sort-list" xlink:title="147. 对链表进行插入排序">
     <polygon fill="none" points="677,-324 525,-324 525,-288 677,-288 677,-324" stroke="orange"/>
     <text font-family="Microsoft YaHei" font-size="12.00" text-anchor="middle" x="601" y="-302.9">
      147. 对链表进行插入排序
     </text>
    </a>
   </g>
  </g>
  <!-- 328&#45;&gt;147 -->
  <g class="edge" id="edge38">
   <title>
    328-&gt;147
   </title>
   <path d="M600.25,-359.7C600.36,-351.98 600.49,-342.71 600.61,-334.11" fill="none" stroke="gray"/>
   <polygon fill="gray" points="604.11,-334.15 600.76,-324.1 597.11,-334.05 604.11,-334.15" stroke="gray"/>
  </g>
  <!-- 148 -->
  <g class="node" id="node39">
   <title>
    148
   </title>
   <g id="a_node39">
    <a target="_parent" xlink:href="https://leetcode-cn.com/problems/sort-list" xlink:title="148. 排序链表">
     <polygon fill="none" points="650,-252 558,-252 558,-216 650,-216 650,-252" stroke="orange"/>
     <text font-family="Microsoft YaHei" font-size="12.00" text-anchor="middle" x="604" y="-230.9">
      148. 排序链表
     </text>
    </a>
   </g>
  </g>
  <!-- 147&#45;&gt;148 -->
  <g class="edge" id="edge39">
   <title>
    147-&gt;148
   </title>
   <path d="M601.74,-287.7C602.07,-279.98 602.47,-270.71 602.84,-262.11" fill="none" stroke="gray"/>
   <polygon fill="gray" points="606.34,-262.25 603.27,-252.1 599.34,-261.95 606.34,-262.25" stroke="gray"/>
  </g>
  <!-- 1721 -->
  <g class="node" id="node40">
   <title>
    1721
   </title>
   <g id="a_node40">
    <a target="_parent" xlink:href="https://leetcode-cn.com/problems/swapping-nodes-in-a-linked-list" xlink:title="1721. 交换链表中的节点">
     <polygon fill="none" points="683,-180 537,-180 537,-144 683,-144 683,-180" stroke="orange"/>
     <text font-family="Microsoft YaHei" font-size="12.00" text-anchor="middle" x="610" y="-158.9">
      1721. 交换链表中的节点
     </text>
    </a>
   </g>
  </g>
  <!-- 148&#45;&gt;1721 -->
  <g class="edge" id="edge40">
   <title>
    148-&gt;1721
   </title>
   <path d="M605.48,-215.7C606.14,-207.98 606.94,-198.71 607.68,-190.11" fill="none" stroke="gray"/>
   <polygon fill="gray" points="611.17,-190.37 608.53,-180.1 604.19,-189.77 611.17,-190.37" stroke="gray"/>
  </g>
  <!-- 24 -->
  <g class="node" id="node41">
   <title>
    24
   </title>
   <g id="a_node41">
    <a target="_parent" xlink:href="https://leetcode-cn.com/problems/swap-nodes-in-pairs" xlink:title="24. 两两交换链表中的节点">
     <polygon fill="none" points="690.5,-108 533.5,-108 533.5,-72 690.5,-72 690.5,-108" stroke="orange"/>
     <text font-family="Microsoft YaHei" font-size="12.00" text-anchor="middle" x="612" y="-86.9">
      24. 两两交换链表中的节点
     </text>
    </a>
   </g>
  </g>
  <!-- 1721&#45;&gt;24 -->
  <g class="edge" id="edge41">
   <title>
    1721-&gt;24
   </title>
   <path d="M610.49,-143.7C610.71,-135.98 610.98,-126.71 611.23,-118.11" fill="none" stroke="gray"/>
   <polygon fill="gray" points="614.72,-118.2 611.51,-108.1 607.73,-118 614.72,-118.2" stroke="gray"/>
  </g>
  <!-- 109 -->
  <g class="node" id="node42">
   <title>
    109
   </title>
   <g id="a_node42">
    <a target="_parent" xlink:href="https://leetcode-cn.com/problems/convert-sorted-list-to-binary-search-tree" xlink:title="109. 有序链表转换二叉搜索树">
     <polygon fill="none" points="753,-36 577,-36 577,0 753,0 753,-36" stroke="orange"/>
     <text font-family="Microsoft YaHei" font-size="12.00" text-anchor="middle" x="665" y="-14.9">
      109. 有序链表转换二叉搜索树
     </text>
    </a>
   </g>
  </g>
  <!-- 24&#45;&gt;109 -->
  <g class="edge" id="edge42">
   <title>
    24-&gt;109
   </title>
   <path d="M625.1,-71.7C631.39,-63.39 639.05,-53.28 645.96,-44.14" fill="none" stroke="gray"/>
   <polygon fill="gray" points="648.8,-46.19 652.05,-36.1 643.22,-41.96 648.8,-46.19" stroke="gray"/>
  </g>
  <!-- 109&#45;&gt;1669 -->
  <g class="edge" id="edge43">
   <title>
    109-&gt;1669
   </title>
   <path d="M678.24,-36.31C685.3,-46.28 693.62,-59.32 699,-72 714.87,-109.42 720,-120.36 720,-161 720,-1243 720,-1243 720,-1243 720,-1294.03 674.59,-1337 640.84,-1361.89" fill="none" stroke="gray"/>
   <polygon fill="gray" points="638.64,-1359.16 632.55,-1367.82 642.72,-1364.85 638.64,-1359.16" stroke="gray"/>
  </g>
  <!-- 23 -->
  <g class="node" id="node44">
   <title>
    23
   </title>
   <g id="a_node44">
    <a target="_parent" xlink:href="https://leetcode-cn.com/problems/merge-k-sorted-lists" xlink:title="23. 合并K个升序链表">
     <polygon fill="none" points="805,-1476 677,-1476 677,-1440 805,-1440 805,-1476" stroke="red"/>
     <text font-family="Microsoft YaHei" font-size="12.00" text-anchor="middle" x="741" y="-1454.9">
      23. 合并K个升序链表
     </text>
    </a>
   </g>
  </g>
  <!-- 困难题&#45;&gt;23 -->
  <g class="edge" id="edge45">
   <title>
    困难题-&gt;23
   </title>
   <path d="M703.36,-1511.7C709.23,-1503.47 716.37,-1493.48 722.84,-1484.42" fill="none" stroke="gray"/>
   <polygon fill="gray" points="725.82,-1486.28 728.78,-1476.1 720.12,-1482.21 725.82,-1486.28" stroke="gray"/>
  </g>
  <!-- 25 -->
  <g class="node" id="node45">
   <title>
    25
   </title>
   <g id="a_node45">
    <a target="_parent" xlink:href="https://leetcode-cn.com/problems/reverse-nodes-in-k-group" xlink:title="25. K 个一组翻转链表">
     <polygon fill="none" points="816,-1404 684,-1404 684,-1368 816,-1368 816,-1404" stroke="red"/>
     <text font-family="Microsoft YaHei" font-size="12.00" text-anchor="middle" x="750" y="-1382.9">
      25. K 个一组翻转链表
     </text>
    </a>
   </g>
  </g>
  <!-- 23&#45;&gt;25 -->
  <g class="edge" id="edge46">
   <title>
    23-&gt;25
   </title>
   <path d="M743.22,-1439.7C744.22,-1431.98 745.41,-1422.71 746.51,-1414.11" fill="none" stroke="gray"/>
   <polygon fill="gray" points="750,-1414.47 747.8,-1404.1 743.05,-1413.58 750,-1414.47" stroke="gray"/>
  </g>
 </g>
</svg>