<?xml version="1.0" encoding="utf-8"?>
<!DOCTYPE svg PUBLIC "-//W3C//DTD SVG 1.1//EN" "http://www.w3.org/Graphics/SVG/1.1/DTD/svg11.dtd">
<!-- Generated by graphviz version 2.47.0 (20210316.0004)
 -->
<!-- Title: stones Pages: 1 -->
<svg height="742pt" viewBox="0.00 0.00 972.5 742.0" width="973pt" xmlns="http://www.w3.org/2000/svg" xmlns:xlink="http://www.w3.org/1999/xlink">
 <g class="graph" id="graph0" transform="scale(1 1) rotate(0) translate(4 688)">
  <title>
   stones
  </title>
  <polygon fill="white" points="-4,4 -4,-688 918.5,-688 918.5,4 -4,4" stroke="transparent"/>
  <!-- Leetcode&#45;链表 -->
  <g class="node" id="node1">
   <title>
    Leetcode-链表
   </title>
   <g id="a_node1">
    <a target="_parent" xlink:href="https://leetcode-cn.com/tag/linked-list" xlink:title="Leetcode-链表(35)">
     <polygon fill="orangered" points="399,-684 260,-684 260,-648 399,-648 399,-684" stroke="lightgrey"/>
     <text fill="white" font-family="Microsoft YaHei" font-size="14.00" text-anchor="middle" x="329.5" y="-662.3">
      Leetcode-链表(35)
     </text>
    </a>
   </g>
  </g>
  <!-- 链表第一题 -->
  <g class="node" id="node2">
   <title>
    链表第一题
   </title>
   <polygon fill="lightslategray" points="102,-612 11,-612 11,-576 102,-576 102,-612" stroke="lightgrey"/>
   <text fill="white" font-family="Microsoft YaHei" font-size="12.00" text-anchor="middle" x="56.5" y="-590.9">
    链表第一题(1)
   </text>
  </g>
  <!-- Leetcode&#45;链表&#45;&gt;链表第一题 -->
  <g class="edge" id="edge1">
   <title>
    Leetcode-链表-&gt;链表第一题
   </title>
   <path d="M259.72,-648.8C217.31,-638.72 162.13,-625.21 113.5,-612 113.04,-611.87 112.58,-611.75 112.11,-611.62" fill="none" stroke="lightgrey"/>
   <polygon fill="lightgrey" points="112.75,-608.17 102.18,-608.84 110.86,-614.91 112.75,-608.17" stroke="lightgrey"/>
  </g>
  <!-- 反转链表 -->
  <g class="node" id="node4">
   <title>
    反转链表
   </title>
   <polygon fill="lightslategray" points="202,-612 123,-612 123,-576 202,-576 202,-612" stroke="lightgrey"/>
   <text fill="white" font-family="Microsoft YaHei" font-size="12.00" text-anchor="middle" x="162.5" y="-590.9">
    反转链表(6)
   </text>
  </g>
  <!-- Leetcode&#45;链表&#45;&gt;反转链表 -->
  <g class="edge" id="edge3">
   <title>
    Leetcode-链表-&gt;反转链表
   </title>
   <path d="M288.65,-647.88C265.37,-638.12 236.06,-625.83 211.55,-615.56" fill="none" stroke="lightgrey"/>
   <polygon fill="lightgrey" points="212.64,-612.22 202.07,-611.59 209.94,-618.68 212.64,-612.22" stroke="lightgrey"/>
  </g>
  <!-- 构建新链表 -->
  <g class="node" id="node11">
   <title>
    构建新链表
   </title>
   <polygon fill="lightslategray" points="315,-612 224,-612 224,-576 315,-576 315,-612" stroke="lightgrey"/>
   <text fill="white" font-family="Microsoft YaHei" font-size="12.00" text-anchor="middle" x="269.5" y="-590.9">
    构建新链表(8)
   </text>
  </g>
  <!-- Leetcode&#45;链表&#45;&gt;构建新链表 -->
  <g class="edge" id="edge10">
   <title>
    Leetcode-链表-&gt;构建新链表
   </title>
   <path d="M314.67,-647.7C307.48,-639.3 298.7,-629.07 290.81,-619.86" fill="none" stroke="lightgrey"/>
   <polygon fill="lightgrey" points="293.33,-617.42 284.16,-612.1 288.01,-621.97 293.33,-617.42" stroke="lightgrey"/>
  </g>
  <!-- 链表和其他算法 -->
  <g class="node" id="node20">
   <title>
    链表和其他算法
   </title>
   <polygon fill="lightslategray" points="450,-612 335,-612 335,-576 450,-576 450,-612" stroke="lightgrey"/>
   <text fill="white" font-family="Microsoft YaHei" font-size="12.00" text-anchor="middle" x="392.5" y="-590.9">
    链表和其他算法(7)
   </text>
  </g>
  <!-- Leetcode&#45;链表&#45;&gt;链表和其他算法 -->
  <g class="edge" id="edge19">
   <title>
    Leetcode-链表-&gt;链表和其他算法
   </title>
   <path d="M345.07,-647.7C352.7,-639.22 362.02,-628.86 370.38,-619.58" fill="none" stroke="lightgrey"/>
   <polygon fill="lightgrey" points="373.02,-621.88 377.11,-612.1 367.81,-617.2 373.02,-621.88" stroke="lightgrey"/>
  </g>
  <!-- 快慢指针 -->
  <g class="node" id="node28">
   <title>
    快慢指针
   </title>
   <polygon fill="lightslategray" points="568,-612 489,-612 489,-576 568,-576 568,-612" stroke="lightgrey"/>
   <text fill="white" font-family="Microsoft YaHei" font-size="12.00" text-anchor="middle" x="528.5" y="-590.9">
    快慢指针(8)
   </text>
  </g>
  <!-- Leetcode&#45;链表&#45;&gt;快慢指针 -->
  <g class="edge" id="edge27">
   <title>
    Leetcode-链表-&gt;快慢指针
   </title>
   <path d="M377.93,-647.97C408.65,-637.16 448.3,-623.21 479.2,-612.34" fill="none" stroke="lightgrey"/>
   <polygon fill="lightgrey" points="480.63,-615.55 488.9,-608.93 478.3,-608.95 480.63,-615.55" stroke="lightgrey"/>
  </g>
  <!-- 删除链表 -->
  <g class="node" id="node37">
   <title>
    删除链表
   </title>
   <polygon fill="lightslategray" points="703,-612 624,-612 624,-576 703,-576 703,-612" stroke="lightgrey"/>
   <text fill="white" font-family="Microsoft YaHei" font-size="12.00" text-anchor="middle" x="663.5" y="-590.9">
    删除链表(5)
   </text>
  </g>
  <!-- Leetcode&#45;链表&#45;&gt;删除链表 -->
  <g class="edge" id="edge36">
   <title>
    Leetcode-链表-&gt;删除链表
   </title>
   <path d="M399.11,-650.41C463.32,-636.95 557.05,-617.31 613.94,-605.39" fill="none" stroke="lightgrey"/>
   <polygon fill="lightgrey" points="614.71,-608.8 623.78,-603.32 613.27,-601.95 614.71,-608.8" stroke="lightgrey"/>
  </g>
  <!-- 707 -->
  <g class="node" id="node3">
   <title>
    707
   </title>
   <g id="a_node3">
    <a target="_parent" xlink:href="https://leetcode-cn.com/problems/design-linked-list" xlink:title="707. 设计链表">
     <polygon fill="none" points="97.5,-540 5.5,-540 5.5,-504 97.5,-504 97.5,-540" stroke="orange"/>
     <text font-family="Microsoft YaHei" font-size="12.00" text-anchor="middle" x="51.5" y="-518.9">
      707. 设计链表
     </text>
    </a>
   </g>
   <g transform="translate(89.5, -546.0) scale(0.3)">
    <circle cx="24" cy="24" fill="#4caf50" r="21"/>
    <polygon fill="#ccff90" points="34.6,14.6 21,28.2 15.4,22.6 12.6,25.4 21,33.8 37.4,17.4"/>
   </g>
  </g>
  <!-- 链表第一题&#45;&gt;707 -->
  <g class="edge" id="edge2">
   <title>
    链表第一题-&gt;707
   </title>
   <path d="M55.26,-575.7C54.71,-567.98 54.05,-558.71 53.44,-550.11" fill="none" stroke="lightgrey"/>
   <polygon fill="lightgrey" points="56.93,-549.83 52.72,-540.1 49.94,-550.33 56.93,-549.83" stroke="lightgrey"/>
  </g>
  <!-- 206 -->
  <g class="node" id="node5">
   <title>
    206
   </title>
   <g id="a_node5">
    <a target="_parent" xlink:href="https://leetcode-cn.com/problems/reverse-linked-list" xlink:title="206. 反转链表">
     <polygon fill="none" points="207.5,-540 115.5,-540 115.5,-504 207.5,-504 207.5,-540" stroke="greenyellow"/>
     <text font-family="Microsoft YaHei" font-size="12.00" text-anchor="middle" x="161.5" y="-518.9">
      206. 反转链表
     </text>
    </a>
   </g>
   <g transform="translate(199.5, -546.0) scale(0.3)">
    <circle cx="24" cy="24" fill="#4caf50" r="21"/>
    <polygon fill="#ccff90" points="34.6,14.6 21,28.2 15.4,22.6 12.6,25.4 21,33.8 37.4,17.4"/>
   </g>
  </g>
  <!-- 反转链表&#45;&gt;206 -->
  <g class="edge" id="edge4">
   <title>
    反转链表-&gt;206
   </title>
   <path d="M162.25,-575.7C162.14,-567.98 162.01,-558.71 161.89,-550.11" fill="none" stroke="lightgrey"/>
   <polygon fill="lightgrey" points="165.39,-550.05 161.74,-540.1 158.39,-550.15 165.39,-550.05" stroke="lightgrey"/>
  </g>
  <!-- 24 -->
  <g class="node" id="node6">
   <title>
    24
   </title>
   <g id="a_node6">
    <a target="_parent" xlink:href="https://leetcode-cn.com/problems/swap-nodes-in-pairs" xlink:title="24. 两两交换链表中的节点">
     <polygon fill="none" points="157,-468 0,-468 0,-432 157,-432 157,-468" stroke="orange"/>
     <text font-family="Microsoft YaHei" font-size="12.00" text-anchor="middle" x="78.5" y="-446.9">
      24. 两两交换链表中的节点
     </text>
    </a>
   </g>
   <g transform="translate(149.0, -474.0) scale(0.3)">
    <circle cx="24" cy="24" fill="#4caf50" r="21"/>
    <polygon fill="#ccff90" points="34.6,14.6 21,28.2 15.4,22.6 12.6,25.4 21,33.8 37.4,17.4"/>
   </g>
  </g>
  <!-- 206&#45;&gt;24 -->
  <g class="edge" id="edge5">
   <title>
    206-&gt;24
   </title>
   <path d="M140.98,-503.7C130.63,-494.97 117.91,-484.24 106.66,-474.75" fill="none" stroke="lightgrey"/>
   <polygon fill="lightgrey" points="108.68,-471.88 98.78,-468.1 104.17,-477.23 108.68,-471.88" stroke="lightgrey"/>
  </g>
  <!-- 25 -->
  <g class="node" id="node7">
   <title>
    25
   </title>
   <g id="a_node7">
    <a target="_parent" xlink:href="https://leetcode-cn.com/problems/reverse-nodes-in-k-group" xlink:title="25. K 个一组翻转链表">
     <polygon fill="none" points="140.5,-396 8.5,-396 8.5,-360 140.5,-360 140.5,-396" stroke="red"/>
     <text font-family="Microsoft YaHei" font-size="12.00" text-anchor="middle" x="74.5" y="-374.9">
      25. K 个一组翻转链表
     </text>
    </a>
   </g>
   <g transform="translate(132.5, -402.0) scale(0.3)">
    <circle cx="24" cy="24" fill="#4caf50" r="21"/>
    <polygon fill="#ccff90" points="34.6,14.6 21,28.2 15.4,22.6 12.6,25.4 21,33.8 37.4,17.4"/>
   </g>
  </g>
  <!-- 24&#45;&gt;25 -->
  <g class="edge" id="edge6">
   <title>
    24-&gt;25
   </title>
   <path d="M77.51,-431.7C77.07,-423.98 76.54,-414.71 76.05,-406.11" fill="none" stroke="lightgrey"/>
   <polygon fill="lightgrey" points="79.54,-405.89 75.48,-396.1 72.55,-406.29 79.54,-405.89" stroke="lightgrey"/>
  </g>
  <!-- 92 -->
  <g class="node" id="node8">
   <title>
    92
   </title>
   <g id="a_node8">
    <a target="_parent" xlink:href="https://leetcode-cn.com/problems/reverse-linked-list-ii" xlink:title="92. 反转链表 II">
     <polygon fill="none" points="115.5,-324 19.5,-324 19.5,-288 115.5,-288 115.5,-324" stroke="orange"/>
     <text font-family="Microsoft YaHei" font-size="12.00" text-anchor="middle" x="67.5" y="-302.9">
      92. 反转链表 II
     </text>
    </a>
   </g>
   <g transform="translate(107.5, -330.0) scale(0.3)">
    <circle cx="24" cy="24" fill="#4caf50" r="21"/>
    <polygon fill="#ccff90" points="34.6,14.6 21,28.2 15.4,22.6 12.6,25.4 21,33.8 37.4,17.4"/>
   </g>
   <g transform="translate(106.5, -297.0)">
    <symbol id="flask" viewBox="0 0 448 512">
     <path d="M437.2 403.5L320 215V64h8c13.3 0 24-10.7 24-24V24c0-13.3-10.7-24-24-24H120c-13.3 0-24 10.7-24 24v16c0 13.3 10.7 24 24 24h8v151L10.8 403.5C-18.5 450.6 15.3 512 70.9 512h306.2c55.7 0 89.4-61.5 60.1-108.5zM137.9 320l48.2-77.6c3.7-5.2 5.8-11.6 5.8-18.4V64h64v160c0 6.9 2.2 13.2 5.8 18.4l48.2 77.6h-172z" fill="#1389fd"/>
    </symbol>
    <a href="https://github.com/acm-clan/algorithm-stone/blob/main/user/leetcode/92.反转链表 II.md">
     <use height="18" href="#flask" width="18"/>
    </a>
   </g>
  </g>
  <!-- 25&#45;&gt;92 -->
  <g class="edge" id="edge7">
   <title>
    25-&gt;92
   </title>
   <path d="M72.77,-359.7C72,-351.98 71.07,-342.71 70.21,-334.11" fill="none" stroke="lightgrey"/>
   <polygon fill="lightgrey" points="73.69,-333.71 69.21,-324.1 66.72,-334.4 73.69,-333.71" stroke="lightgrey"/>
  </g>
  <!-- 234 -->
  <g class="node" id="node9">
   <title>
    234
   </title>
   <g id="a_node9">
    <a target="_parent" xlink:href="https://leetcode-cn.com/problems/palindrome-linked-list" xlink:title="234. 回文链表">
     <polygon fill="none" points="113.5,-252 21.5,-252 21.5,-216 113.5,-216 113.5,-252" stroke="greenyellow"/>
     <text font-family="Microsoft YaHei" font-size="12.00" text-anchor="middle" x="67.5" y="-230.9">
      234. 回文链表
     </text>
    </a>
   </g>
   <g transform="translate(105.5, -258.0) scale(0.3)">
    <circle cx="24" cy="24" fill="#4caf50" r="21"/>
    <polygon fill="#ccff90" points="34.6,14.6 21,28.2 15.4,22.6 12.6,25.4 21,33.8 37.4,17.4"/>
   </g>
  </g>
  <!-- 92&#45;&gt;234 -->
  <g class="edge" id="edge8">
   <title>
    92-&gt;234
   </title>
   <path d="M67.5,-287.7C67.5,-279.98 67.5,-270.71 67.5,-262.11" fill="none" stroke="lightgrey"/>
   <polygon fill="lightgrey" points="71,-262.1 67.5,-252.1 64,-262.1 71,-262.1" stroke="lightgrey"/>
  </g>
  <!-- 143 -->
  <g class="node" id="node10">
   <title>
    143
   </title>
   <g id="a_node10">
    <a target="_parent" xlink:href="https://leetcode-cn.com/problems/reorder-list" xlink:title="143. 重排链表">
     <polygon fill="none" points="113.5,-180 21.5,-180 21.5,-144 113.5,-144 113.5,-180" stroke="orange"/>
     <text font-family="Microsoft YaHei" font-size="12.00" text-anchor="middle" x="67.5" y="-158.9">
      143. 重排链表
     </text>
    </a>
   </g>
   <g transform="translate(105.5, -186.0) scale(0.3)">
    <circle cx="24" cy="24" fill="#4caf50" r="21"/>
    <polygon fill="#ccff90" points="34.6,14.6 21,28.2 15.4,22.6 12.6,25.4 21,33.8 37.4,17.4"/>
   </g>
  </g>
  <!-- 234&#45;&gt;143 -->
  <g class="edge" id="edge9">
   <title>
    234-&gt;143
   </title>
   <path d="M67.5,-215.7C67.5,-207.98 67.5,-198.71 67.5,-190.11" fill="none" stroke="lightgrey"/>
   <polygon fill="lightgrey" points="71,-190.1 67.5,-180.1 64,-190.1 71,-190.1" stroke="lightgrey"/>
  </g>
  <!-- 2 -->
  <g class="node" id="node12">
   <title>
    2
   </title>
   <g id="a_node12">
    <a target="_parent" xlink:href="https://leetcode-cn.com/problems/add-two-numbers" xlink:title="2. 两数相加">
     <polygon fill="none" points="303.5,-540 225.5,-540 225.5,-504 303.5,-504 303.5,-540" stroke="orange"/>
     <text font-family="Microsoft YaHei" font-size="12.00" text-anchor="middle" x="264.5" y="-518.9">
      2. 两数相加
     </text>
    </a>
   </g>
   <g transform="translate(295.5, -546.0) scale(0.3)">
    <circle cx="24" cy="24" fill="#4caf50" r="21"/>
    <polygon fill="#ccff90" points="34.6,14.6 21,28.2 15.4,22.6 12.6,25.4 21,33.8 37.4,17.4"/>
   </g>
  </g>
  <!-- 构建新链表&#45;&gt;2 -->
  <g class="edge" id="edge11">
   <title>
    构建新链表-&gt;2
   </title>
   <path d="M268.26,-575.7C267.71,-567.98 267.05,-558.71 266.44,-550.11" fill="none" stroke="lightgrey"/>
   <polygon fill="lightgrey" points="269.93,-549.83 265.72,-540.1 262.94,-550.33 269.93,-549.83" stroke="lightgrey"/>
  </g>
  <!-- 21 -->
  <g class="node" id="node13">
   <title>
    21
   </title>
   <g id="a_node13">
    <a target="_parent" xlink:href="https://leetcode-cn.com/problems/merge-two-sorted-lists" xlink:title="21. 合并两个有序链表">
     <polygon fill="none" points="323,-468 190,-468 190,-432 323,-432 323,-468" stroke="greenyellow"/>
     <text font-family="Microsoft YaHei" font-size="12.00" text-anchor="middle" x="256.5" y="-446.9">
      21. 合并两个有序链表
     </text>
    </a>
   </g>
   <g transform="translate(315.0, -474.0) scale(0.3)">
    <circle cx="24" cy="24" fill="#4caf50" r="21"/>
    <polygon fill="#ccff90" points="34.6,14.6 21,28.2 15.4,22.6 12.6,25.4 21,33.8 37.4,17.4"/>
   </g>
  </g>
  <!-- 2&#45;&gt;21 -->
  <g class="edge" id="edge12">
   <title>
    2-&gt;21
   </title>
   <path d="M262.52,-503.7C261.64,-495.98 260.58,-486.71 259.6,-478.11" fill="none" stroke="lightgrey"/>
   <polygon fill="lightgrey" points="263.07,-477.64 258.45,-468.1 256.11,-478.44 263.07,-477.64" stroke="lightgrey"/>
  </g>
  <!-- 445 -->
  <g class="node" id="node14">
   <title>
    445
   </title>
   <g id="a_node14">
    <a target="_parent" xlink:href="https://leetcode-cn.com/problems/add-two-numbers-ii" xlink:title="445. 两数相加 II">
     <polygon fill="none" points="265,-396 162,-396 162,-360 265,-360 265,-396" stroke="orange"/>
     <text font-family="Microsoft YaHei" font-size="12.00" text-anchor="middle" x="213.5" y="-374.9">
      445. 两数相加 II
     </text>
    </a>
   </g>
   <g transform="translate(257.0, -402.0) scale(0.3)">
    <circle cx="24" cy="24" fill="#4caf50" r="21"/>
    <polygon fill="#ccff90" points="34.6,14.6 21,28.2 15.4,22.6 12.6,25.4 21,33.8 37.4,17.4"/>
   </g>
  </g>
  <!-- 21&#45;&gt;445 -->
  <g class="edge" id="edge13">
   <title>
    21-&gt;445
   </title>
   <path d="M245.87,-431.7C240.87,-423.56 234.81,-413.69 229.29,-404.7" fill="none" stroke="lightgrey"/>
   <polygon fill="lightgrey" points="232.22,-402.79 224.01,-396.1 226.26,-406.46 232.22,-402.79" stroke="lightgrey"/>
  </g>
  <!-- 430 -->
  <g class="node" id="node15">
   <title>
    430
   </title>
   <g id="a_node15">
    <a target="_parent" xlink:href="https://leetcode-cn.com/problems/flatten-a-multilevel-doubly-linked-list" xlink:title="430. 扁平化多级双向链表">
     <polygon fill="none" points="285.5,-324 133.5,-324 133.5,-288 285.5,-288 285.5,-324" stroke="orange"/>
     <text font-family="Microsoft YaHei" font-size="12.00" text-anchor="middle" x="209.5" y="-302.9">
      430. 扁平化多级双向链表
     </text>
    </a>
   </g>
   <g transform="translate(277.5, -330.0) scale(0.3)">
    <circle cx="24" cy="24" fill="#4caf50" r="21"/>
    <polygon fill="#ccff90" points="34.6,14.6 21,28.2 15.4,22.6 12.6,25.4 21,33.8 37.4,17.4"/>
   </g>
  </g>
  <!-- 445&#45;&gt;430 -->
  <g class="edge" id="edge14">
   <title>
    445-&gt;430
   </title>
   <path d="M212.51,-359.7C212.07,-351.98 211.54,-342.71 211.05,-334.11" fill="none" stroke="lightgrey"/>
   <polygon fill="lightgrey" points="214.54,-333.89 210.48,-324.1 207.55,-334.29 214.54,-333.89" stroke="lightgrey"/>
  </g>
  <!-- 86 -->
  <g class="node" id="node16">
   <title>
    86
   </title>
   <g id="a_node16">
    <a target="_parent" xlink:href="https://leetcode-cn.com/problems/partition-list" xlink:title="86. 分隔链表">
     <polygon fill="none" points="252,-252 167,-252 167,-216 252,-216 252,-252" stroke="orange"/>
     <text font-family="Microsoft YaHei" font-size="12.00" text-anchor="middle" x="209.5" y="-230.9">
      86. 分隔链表
     </text>
    </a>
   </g>
   <g transform="translate(244.0, -258.0) scale(0.3)">
    <circle cx="24" cy="24" fill="#4caf50" r="21"/>
    <polygon fill="#ccff90" points="34.6,14.6 21,28.2 15.4,22.6 12.6,25.4 21,33.8 37.4,17.4"/>
   </g>
  </g>
  <!-- 430&#45;&gt;86 -->
  <g class="edge" id="edge15">
   <title>
    430-&gt;86
   </title>
   <path d="M209.5,-287.7C209.5,-279.98 209.5,-270.71 209.5,-262.11" fill="none" stroke="lightgrey"/>
   <polygon fill="lightgrey" points="213,-262.1 209.5,-252.1 206,-262.1 213,-262.1" stroke="lightgrey"/>
  </g>
  <!-- 328 -->
  <g class="node" id="node17">
   <title>
    328
   </title>
   <g id="a_node17">
    <a target="_parent" xlink:href="https://leetcode-cn.com/problems/odd-even-linked-list" xlink:title="328. 奇偶链表">
     <polygon fill="none" points="255.5,-180 163.5,-180 163.5,-144 255.5,-144 255.5,-180" stroke="orange"/>
     <text font-family="Microsoft YaHei" font-size="12.00" text-anchor="middle" x="209.5" y="-158.9">
      328. 奇偶链表
     </text>
    </a>
   </g>
   <g transform="translate(247.5, -186.0) scale(0.3)">
    <circle cx="24" cy="24" fill="#4caf50" r="21"/>
    <polygon fill="#ccff90" points="34.6,14.6 21,28.2 15.4,22.6 12.6,25.4 21,33.8 37.4,17.4"/>
   </g>
  </g>
  <!-- 86&#45;&gt;328 -->
  <g class="edge" id="edge16">
   <title>
    86-&gt;328
   </title>
   <path d="M209.5,-215.7C209.5,-207.98 209.5,-198.71 209.5,-190.11" fill="none" stroke="lightgrey"/>
   <polygon fill="lightgrey" points="213,-190.1 209.5,-180.1 206,-190.1 213,-190.1" stroke="lightgrey"/>
  </g>
  <!-- 725 -->
  <g class="node" id="node18">
   <title>
    725
   </title>
   <g id="a_node18">
    <a target="_parent" xlink:href="https://leetcode-cn.com/problems/split-linked-list-in-parts" xlink:title="725. 分隔链表">
     <polygon fill="none" points="255.5,-108 163.5,-108 163.5,-72 255.5,-72 255.5,-108" stroke="orange"/>
     <text font-family="Microsoft YaHei" font-size="12.00" text-anchor="middle" x="209.5" y="-86.9">
      725. 分隔链表
     </text>
    </a>
   </g>
   <g transform="translate(247.5, -114.0) scale(0.3)">
    <circle cx="24" cy="24" fill="#4caf50" r="21"/>
    <polygon fill="#ccff90" points="34.6,14.6 21,28.2 15.4,22.6 12.6,25.4 21,33.8 37.4,17.4"/>
   </g>
  </g>
  <!-- 328&#45;&gt;725 -->
  <g class="edge" id="edge17">
   <title>
    328-&gt;725
   </title>
   <path d="M209.5,-143.7C209.5,-135.98 209.5,-126.71 209.5,-118.11" fill="none" stroke="lightgrey"/>
   <polygon fill="lightgrey" points="213,-118.1 209.5,-108.1 206,-118.1 213,-118.1" stroke="lightgrey"/>
  </g>
  <!-- 1669 -->
  <g class="node" id="node19">
   <title>
    1669
   </title>
   <g id="a_node19">
    <a target="_parent" xlink:href="https://leetcode-cn.com/problems/merge-in-between-linked-lists" xlink:title="1669. 合并两个链表">
     <polygon fill="none" points="270.5,-36 148.5,-36 148.5,0 270.5,0 270.5,-36" stroke="orange"/>
     <text font-family="Microsoft YaHei" font-size="12.00" text-anchor="middle" x="209.5" y="-14.9">
      1669. 合并两个链表
     </text>
    </a>
   </g>
   <g transform="translate(262.5, -42.0) scale(0.3)">
    <circle cx="24" cy="24" fill="#4caf50" r="21"/>
    <polygon fill="#ccff90" points="34.6,14.6 21,28.2 15.4,22.6 12.6,25.4 21,33.8 37.4,17.4"/>
   </g>
  </g>
  <!-- 725&#45;&gt;1669 -->
  <g class="edge" id="edge18">
   <title>
    725-&gt;1669
   </title>
   <path d="M209.5,-71.7C209.5,-63.98 209.5,-54.71 209.5,-46.11" fill="none" stroke="lightgrey"/>
   <polygon fill="lightgrey" points="213,-46.1 209.5,-36.1 206,-46.1 213,-46.1" stroke="lightgrey"/>
  </g>
  <!-- 1290 -->
  <g class="node" id="node21">
   <title>
    1290
   </title>
   <g id="a_node21">
    <a target="_parent" xlink:href="https://leetcode-cn.com/problems/convert-binary-number-in-a-linked-list-to-integer" xlink:title="1290. 二进制链表转整数">
     <polygon fill="none" points="467.5,-540 321.5,-540 321.5,-504 467.5,-504 467.5,-540" stroke="greenyellow"/>
     <text font-family="Microsoft YaHei" font-size="12.00" text-anchor="middle" x="394.5" y="-518.9">
      1290. 二进制链表转整数
     </text>
    </a>
   </g>
   <g transform="translate(459.5, -546.0) scale(0.3)">
    <circle cx="24" cy="24" fill="#4caf50" r="21"/>
    <polygon fill="#ccff90" points="34.6,14.6 21,28.2 15.4,22.6 12.6,25.4 21,33.8 37.4,17.4"/>
   </g>
  </g>
  <!-- 链表和其他算法&#45;&gt;1290 -->
  <g class="edge" id="edge20">
   <title>
    链表和其他算法-&gt;1290
   </title>
   <path d="M392.99,-575.7C393.21,-567.98 393.48,-558.71 393.73,-550.11" fill="none" stroke="lightgrey"/>
   <polygon fill="lightgrey" points="397.22,-550.2 394.01,-540.1 390.23,-550 397.22,-550.2" stroke="lightgrey"/>
  </g>
  <!-- 817 -->
  <g class="node" id="node22">
   <title>
    817
   </title>
   <g id="a_node22">
    <a target="_parent" xlink:href="https://leetcode-cn.com/problems/linked-list-components" xlink:title="817. 链表组件">
     <polygon fill="none" points="440.5,-468 348.5,-468 348.5,-432 440.5,-432 440.5,-468" stroke="orange"/>
     <text font-family="Microsoft YaHei" font-size="12.00" text-anchor="middle" x="394.5" y="-446.9">
      817. 链表组件
     </text>
    </a>
   </g>
   <g transform="translate(432.5, -474.0) scale(0.3)">
    <circle cx="24" cy="24" fill="#4caf50" r="21"/>
    <polygon fill="#ccff90" points="34.6,14.6 21,28.2 15.4,22.6 12.6,25.4 21,33.8 37.4,17.4"/>
   </g>
  </g>
  <!-- 1290&#45;&gt;817 -->
  <g class="edge" id="edge21">
   <title>
    1290-&gt;817
   </title>
   <path d="M394.5,-503.7C394.5,-495.98 394.5,-486.71 394.5,-478.11" fill="none" stroke="lightgrey"/>
   <polygon fill="lightgrey" points="398,-478.1 394.5,-468.1 391,-478.1 398,-478.1" stroke="lightgrey"/>
  </g>
  <!-- 1367 -->
  <g class="node" id="node23">
   <title>
    1367
   </title>
   <g id="a_node23">
    <a target="_parent" xlink:href="https://leetcode-cn.com/problems/linked-list-in-binary-tree" xlink:title="1367. 二叉树中的列表">
     <polygon fill="none" points="461.5,-396 327.5,-396 327.5,-360 461.5,-360 461.5,-396" stroke="orange"/>
     <text font-family="Microsoft YaHei" font-size="12.00" text-anchor="middle" x="394.5" y="-374.9">
      1367. 二叉树中的列表
     </text>
    </a>
   </g>
   <g transform="translate(453.5, -402.0) scale(0.3)">
    <circle cx="24" cy="24" fill="#4caf50" r="21"/>
    <polygon fill="#ccff90" points="34.6,14.6 21,28.2 15.4,22.6 12.6,25.4 21,33.8 37.4,17.4"/>
   </g>
  </g>
  <!-- 817&#45;&gt;1367 -->
  <g class="edge" id="edge22">
   <title>
    817-&gt;1367
   </title>
   <path d="M394.5,-431.7C394.5,-423.98 394.5,-414.71 394.5,-406.11" fill="none" stroke="lightgrey"/>
   <polygon fill="lightgrey" points="398,-406.1 394.5,-396.1 391,-406.1 398,-406.1" stroke="lightgrey"/>
  </g>
  <!-- 1019 -->
  <g class="node" id="node24">
   <title>
    1019
   </title>
   <g id="a_node24">
    <a target="_parent" xlink:href="https://leetcode-cn.com/problems/next-greater-node-in-linked-list" xlink:title="1019. 链表中的下一个更大节点">
     <polygon fill="none" points="485.5,-324 303.5,-324 303.5,-288 485.5,-288 485.5,-324" stroke="orange"/>
     <text font-family="Microsoft YaHei" font-size="12.00" text-anchor="middle" x="394.5" y="-302.9">
      1019. 链表中的下一个更大节点
     </text>
    </a>
   </g>
   <g transform="translate(477.5, -330.0) scale(0.3)">
    <circle cx="24" cy="24" fill="#4caf50" r="21"/>
    <polygon fill="#ccff90" points="34.6,14.6 21,28.2 15.4,22.6 12.6,25.4 21,33.8 37.4,17.4"/>
   </g>
  </g>
  <!-- 1367&#45;&gt;1019 -->
  <g class="edge" id="edge23">
   <title>
    1367-&gt;1019
   </title>
   <path d="M394.5,-359.7C394.5,-351.98 394.5,-342.71 394.5,-334.11" fill="none" stroke="lightgrey"/>
   <polygon fill="lightgrey" points="398,-334.1 394.5,-324.1 391,-334.1 398,-334.1" stroke="lightgrey"/>
  </g>
  <!-- 147 -->
  <g class="node" id="node25">
   <title>
    147
   </title>
   <g id="a_node25">
    <a target="_parent" xlink:href="https://leetcode-cn.com/problems/insertion-sort-list" xlink:title="147. 对链表进行插入排序">
     <polygon fill="none" points="470.5,-252 318.5,-252 318.5,-216 470.5,-216 470.5,-252" stroke="orange"/>
     <text font-family="Microsoft YaHei" font-size="12.00" text-anchor="middle" x="394.5" y="-230.9">
      147. 对链表进行插入排序
     </text>
    </a>
   </g>
   <g transform="translate(462.5, -258.0) scale(0.3)">
    <circle cx="24" cy="24" fill="#4caf50" r="21"/>
    <polygon fill="#ccff90" points="34.6,14.6 21,28.2 15.4,22.6 12.6,25.4 21,33.8 37.4,17.4"/>
   </g>
  </g>
  <!-- 1019&#45;&gt;147 -->
  <g class="edge" id="edge24">
   <title>
    1019-&gt;147
   </title>
   <path d="M394.5,-287.7C394.5,-279.98 394.5,-270.71 394.5,-262.11" fill="none" stroke="lightgrey"/>
   <polygon fill="lightgrey" points="398,-262.1 394.5,-252.1 391,-262.1 398,-262.1" stroke="lightgrey"/>
  </g>
  <!-- 148 -->
  <g class="node" id="node26">
   <title>
    148
   </title>
   <g id="a_node26">
    <a target="_parent" xlink:href="https://leetcode-cn.com/problems/sort-list" xlink:title="148. 排序链表">
     <polygon fill="none" points="440.5,-180 348.5,-180 348.5,-144 440.5,-144 440.5,-180" stroke="orange"/>
     <text font-family="Microsoft YaHei" font-size="12.00" text-anchor="middle" x="394.5" y="-158.9">
      148. 排序链表
     </text>
    </a>
   </g>
   <g transform="translate(432.5, -186.0) scale(0.3)">
    <circle cx="24" cy="24" fill="#4caf50" r="21"/>
    <polygon fill="#ccff90" points="34.6,14.6 21,28.2 15.4,22.6 12.6,25.4 21,33.8 37.4,17.4"/>
   </g>
  </g>
  <!-- 147&#45;&gt;148 -->
  <g class="edge" id="edge25">
   <title>
    147-&gt;148
   </title>
   <path d="M394.5,-215.7C394.5,-207.98 394.5,-198.71 394.5,-190.11" fill="none" stroke="lightgrey"/>
   <polygon fill="lightgrey" points="398,-190.1 394.5,-180.1 391,-190.1 398,-190.1" stroke="lightgrey"/>
  </g>
  <!-- 138 -->
  <g class="node" id="node27">
   <title>
    138
   </title>
   <g id="a_node27">
    <a target="_parent" xlink:href="https://leetcode-cn.com/problems/copy-list-with-random-pointer" xlink:title="138. 复制带随机指针的链表">
     <polygon fill="none" points="476.5,-108 312.5,-108 312.5,-72 476.5,-72 476.5,-108" stroke="orange"/>
     <text font-family="Microsoft YaHei" font-size="12.00" text-anchor="middle" x="394.5" y="-86.9">
      138. 复制带随机指针的链表
     </text>
    </a>
   </g>
   <g transform="translate(468.5, -114.0) scale(0.3)">
    <circle cx="24" cy="24" fill="#4caf50" r="21"/>
    <polygon fill="#ccff90" points="34.6,14.6 21,28.2 15.4,22.6 12.6,25.4 21,33.8 37.4,17.4"/>
   </g>
  </g>
  <!-- 148&#45;&gt;138 -->
  <g class="edge" id="edge26">
   <title>
    148-&gt;138
   </title>
   <path d="M394.5,-143.7C394.5,-135.98 394.5,-126.71 394.5,-118.11" fill="none" stroke="lightgrey"/>
   <polygon fill="lightgrey" points="398,-118.1 394.5,-108.1 391,-118.1 398,-118.1" stroke="lightgrey"/>
  </g>
  <!-- 876 -->
  <g class="node" id="node29">
   <title>
    876
   </title>
   <g id="a_node29">
    <a target="_parent" xlink:href="https://leetcode-cn.com/problems/middle-of-the-linked-list" xlink:title="876. 链表的中间结点">
     <polygon fill="none" points="626.5,-540 498.5,-540 498.5,-504 626.5,-504 626.5,-540" stroke="greenyellow"/>
     <text font-family="Microsoft YaHei" font-size="12.00" text-anchor="middle" x="562.5" y="-518.9">
      876. 链表的中间结点
     </text>
    </a>
   </g>
   <g transform="translate(618.5, -546.0) scale(0.3)">
    <circle cx="24" cy="24" fill="#4caf50" r="21"/>
    <polygon fill="#ccff90" points="34.6,14.6 21,28.2 15.4,22.6 12.6,25.4 21,33.8 37.4,17.4"/>
   </g>
  </g>
  <!-- 快慢指针&#45;&gt;876 -->
  <g class="edge" id="edge28">
   <title>
    快慢指针-&gt;876
   </title>
   <path d="M536.9,-575.7C540.77,-567.73 545.45,-558.1 549.74,-549.26" fill="none" stroke="lightgrey"/>
   <polygon fill="lightgrey" points="552.97,-550.63 554.19,-540.1 546.67,-547.57 552.97,-550.63" stroke="lightgrey"/>
  </g>
  <!-- 141 -->
  <g class="node" id="node30">
   <title>
    141
   </title>
   <g id="a_node30">
    <a target="_parent" xlink:href="https://leetcode-cn.com/problems/linked-list-cycle" xlink:title="141. 环形链表">
     <polygon fill="none" points="615.5,-468 523.5,-468 523.5,-432 615.5,-432 615.5,-468" stroke="greenyellow"/>
     <text font-family="Microsoft YaHei" font-size="12.00" text-anchor="middle" x="569.5" y="-446.9">
      141. 环形链表
     </text>
    </a>
   </g>
   <g transform="translate(607.5, -474.0) scale(0.3)">
    <circle cx="24" cy="24" fill="#4caf50" r="21"/>
    <polygon fill="#ccff90" points="34.6,14.6 21,28.2 15.4,22.6 12.6,25.4 21,33.8 37.4,17.4"/>
   </g>
  </g>
  <!-- 876&#45;&gt;141 -->
  <g class="edge" id="edge29">
   <title>
    876-&gt;141
   </title>
   <path d="M564.23,-503.7C565,-495.98 565.93,-486.71 566.79,-478.11" fill="none" stroke="lightgrey"/>
   <polygon fill="lightgrey" points="570.28,-478.4 567.79,-468.1 563.31,-477.71 570.28,-478.4" stroke="lightgrey"/>
  </g>
  <!-- 19 -->
  <g class="node" id="node31">
   <title>
    19
   </title>
   <g id="a_node31">
    <a target="_parent" xlink:href="https://leetcode-cn.com/problems/remove-nth-node-from-end-of-list" xlink:title="19. 删除链表的倒数第 N 个结点">
     <polygon fill="none" points="668.5,-396 482.5,-396 482.5,-360 668.5,-360 668.5,-396" stroke="orange"/>
     <text font-family="Microsoft YaHei" font-size="12.00" text-anchor="middle" x="575.5" y="-374.9">
      19. 删除链表的倒数第 N 个结点
     </text>
    </a>
   </g>
   <g transform="translate(660.5, -402.0) scale(0.3)">
    <circle cx="24" cy="24" fill="#4caf50" r="21"/>
    <polygon fill="#ccff90" points="34.6,14.6 21,28.2 15.4,22.6 12.6,25.4 21,33.8 37.4,17.4"/>
   </g>
  </g>
  <!-- 141&#45;&gt;19 -->
  <g class="edge" id="edge30">
   <title>
    141-&gt;19
   </title>
   <path d="M570.98,-431.7C571.64,-423.98 572.44,-414.71 573.18,-406.11" fill="none" stroke="lightgrey"/>
   <polygon fill="lightgrey" points="576.67,-406.37 574.03,-396.1 569.69,-405.77 576.67,-406.37" stroke="lightgrey"/>
  </g>
  <!-- 109 -->
  <g class="node" id="node32">
   <title>
    109
   </title>
   <g id="a_node32">
    <a target="_parent" xlink:href="https://leetcode-cn.com/problems/convert-sorted-list-to-binary-search-tree" xlink:title="109. 有序链表转换二叉搜索树">
     <polygon fill="none" points="679.5,-324 503.5,-324 503.5,-288 679.5,-288 679.5,-324" stroke="orange"/>
     <text font-family="Microsoft YaHei" font-size="12.00" text-anchor="middle" x="591.5" y="-302.9">
      109. 有序链表转换二叉搜索树
     </text>
    </a>
   </g>
   <g transform="translate(671.5, -330.0) scale(0.3)">
    <circle cx="24" cy="24" fill="#4caf50" r="21"/>
    <polygon fill="#ccff90" points="34.6,14.6 21,28.2 15.4,22.6 12.6,25.4 21,33.8 37.4,17.4"/>
   </g>
  </g>
  <!-- 19&#45;&gt;109 -->
  <g class="edge" id="edge31">
   <title>
    19-&gt;109
   </title>
   <path d="M579.46,-359.7C581.22,-351.98 583.34,-342.71 585.3,-334.11" fill="none" stroke="lightgrey"/>
   <polygon fill="lightgrey" points="588.77,-334.63 587.59,-324.1 581.95,-333.07 588.77,-334.63" stroke="lightgrey"/>
  </g>
  <!-- 61 -->
  <g class="node" id="node33">
   <title>
    61
   </title>
   <g id="a_node33">
    <a target="_parent" xlink:href="https://leetcode-cn.com/problems/rotate-list" xlink:title="61. 旋转链表">
     <polygon fill="none" points="634,-252 549,-252 549,-216 634,-216 634,-252" stroke="orange"/>
     <text font-family="Microsoft YaHei" font-size="12.00" text-anchor="middle" x="591.5" y="-230.9">
      61. 旋转链表
     </text>
    </a>
   </g>
   <g transform="translate(626.0, -258.0) scale(0.3)">
    <circle cx="24" cy="24" fill="#4caf50" r="21"/>
    <polygon fill="#ccff90" points="34.6,14.6 21,28.2 15.4,22.6 12.6,25.4 21,33.8 37.4,17.4"/>
   </g>
  </g>
  <!-- 109&#45;&gt;61 -->
  <g class="edge" id="edge32">
   <title>
    109-&gt;61
   </title>
   <path d="M591.5,-287.7C591.5,-279.98 591.5,-270.71 591.5,-262.11" fill="none" stroke="lightgrey"/>
   <polygon fill="lightgrey" points="595,-262.1 591.5,-252.1 588,-262.1 595,-262.1" stroke="lightgrey"/>
  </g>
  <!-- 1721 -->
  <g class="node" id="node34">
   <title>
    1721
   </title>
   <g id="a_node34">
    <a target="_parent" xlink:href="https://leetcode-cn.com/problems/swapping-nodes-in-a-linked-list" xlink:title="1721. 交换链表中的节点">
     <polygon fill="none" points="664.5,-180 518.5,-180 518.5,-144 664.5,-144 664.5,-180" stroke="orange"/>
     <text font-family="Microsoft YaHei" font-size="12.00" text-anchor="middle" x="591.5" y="-158.9">
      1721. 交换链表中的节点
     </text>
    </a>
   </g>
   <g transform="translate(656.5, -186.0) scale(0.3)">
    <circle cx="24" cy="24" fill="#4caf50" r="21"/>
    <polygon fill="#ccff90" points="34.6,14.6 21,28.2 15.4,22.6 12.6,25.4 21,33.8 37.4,17.4"/>
   </g>
  </g>
  <!-- 61&#45;&gt;1721 -->
  <g class="edge" id="edge33">
   <title>
    61-&gt;1721
   </title>
   <path d="M591.5,-215.7C591.5,-207.98 591.5,-198.71 591.5,-190.11" fill="none" stroke="lightgrey"/>
   <polygon fill="lightgrey" points="595,-190.1 591.5,-180.1 588,-190.1 595,-190.1" stroke="lightgrey"/>
  </g>
  <!-- 160 -->
  <g class="node" id="node35">
   <title>
    160
   </title>
   <g id="a_node35">
    <a target="_parent" xlink:href="https://leetcode-cn.com/problems/intersection-of-two-linked-lists" xlink:title="160. 相交链表">
     <polygon fill="none" points="637.5,-108 545.5,-108 545.5,-72 637.5,-72 637.5,-108" stroke="greenyellow"/>
     <text font-family="Microsoft YaHei" font-size="12.00" text-anchor="middle" x="591.5" y="-86.9">
      160. 相交链表
     </text>
    </a>
   </g>
   <g transform="translate(629.5, -114.0) scale(0.3)">
    <circle cx="24" cy="24" fill="#4caf50" r="21"/>
    <polygon fill="#ccff90" points="34.6,14.6 21,28.2 15.4,22.6 12.6,25.4 21,33.8 37.4,17.4"/>
   </g>
   <g transform="translate(628.5, -81.0)">
    <symbol id="flask" viewBox="0 0 448 512">
     <path d="M437.2 403.5L320 215V64h8c13.3 0 24-10.7 24-24V24c0-13.3-10.7-24-24-24H120c-13.3 0-24 10.7-24 24v16c0 13.3 10.7 24 24 24h8v151L10.8 403.5C-18.5 450.6 15.3 512 70.9 512h306.2c55.7 0 89.4-61.5 60.1-108.5zM137.9 320l48.2-77.6c3.7-5.2 5.8-11.6 5.8-18.4V64h64v160c0 6.9 2.2 13.2 5.8 18.4l48.2 77.6h-172z" fill="#1389fd"/>
    </symbol>
    <a href="https://github.com/acm-clan/algorithm-stone/blob/main/user/leetcode/160.相交链表.md">
     <use height="18" href="#flask" width="18"/>
    </a>
   </g>
  </g>
  <!-- 1721&#45;&gt;160 -->
  <g class="edge" id="edge34">
   <title>
    1721-&gt;160
   </title>
   <path d="M591.5,-143.7C591.5,-135.98 591.5,-126.71 591.5,-118.11" fill="none" stroke="lightgrey"/>
   <polygon fill="lightgrey" points="595,-118.1 591.5,-108.1 588,-118.1 595,-118.1" stroke="lightgrey"/>
  </g>
  <!-- 142 -->
  <g class="node" id="node36">
   <title>
    142
   </title>
   <g id="a_node36">
    <a target="_parent" xlink:href="https://leetcode-cn.com/problems/linked-list-cycle-ii" xlink:title="142. 环形链表 II">
     <polygon fill="none" points="643,-36 540,-36 540,0 643,0 643,-36" stroke="orange"/>
     <text font-family="Microsoft YaHei" font-size="12.00" text-anchor="middle" x="591.5" y="-14.9">
      142. 环形链表 II
     </text>
    </a>
   </g>
   <g transform="translate(635.0, -42.0) scale(0.3)">
    <circle cx="24" cy="24" fill="#4caf50" r="21"/>
    <polygon fill="#ccff90" points="34.6,14.6 21,28.2 15.4,22.6 12.6,25.4 21,33.8 37.4,17.4"/>
   </g>
   <g transform="translate(634.0, -9.0)">
    <symbol id="flask" viewBox="0 0 448 512">
     <path d="M437.2 403.5L320 215V64h8c13.3 0 24-10.7 24-24V24c0-13.3-10.7-24-24-24H120c-13.3 0-24 10.7-24 24v16c0 13.3 10.7 24 24 24h8v151L10.8 403.5C-18.5 450.6 15.3 512 70.9 512h306.2c55.7 0 89.4-61.5 60.1-108.5zM137.9 320l48.2-77.6c3.7-5.2 5.8-11.6 5.8-18.4V64h64v160c0 6.9 2.2 13.2 5.8 18.4l48.2 77.6h-172z" fill="#1389fd"/>
    </symbol>
    <a href="https://github.com/acm-clan/algorithm-stone/blob/main/user/leetcode/142. 环形链表 II.md">
     <use height="18" href="#flask" width="18"/>
    </a>
   </g>
  </g>
  <!-- 160&#45;&gt;142 -->
  <g class="edge" id="edge35">
   <title>
    160-&gt;142
   </title>
   <path d="M591.5,-71.7C591.5,-63.98 591.5,-54.71 591.5,-46.11" fill="none" stroke="lightgrey"/>
   <polygon fill="lightgrey" points="595,-46.1 591.5,-36.1 588,-46.1 595,-46.1" stroke="lightgrey"/>
  </g>
  <!-- 237 -->
  <g class="node" id="node38">
   <title>
    237
   </title>
   <g id="a_node38">
    <a target="_parent" xlink:href="https://leetcode-cn.com/problems/delete-node-in-a-linked-list" xlink:title="237. 删除链表中的节点">
     <polygon fill="none" points="819.5,-540 679.5,-540 679.5,-504 819.5,-504 819.5,-540" stroke="greenyellow"/>
     <text font-family="Microsoft YaHei" font-size="12.00" text-anchor="middle" x="749.5" y="-518.9">
      237. 删除链表中的节点
     </text>
    </a>
   </g>
   <g transform="translate(811.5, -546.0) scale(0.3)">
    <circle cx="24" cy="24" fill="#4caf50" r="21"/>
    <polygon fill="#ccff90" points="34.6,14.6 21,28.2 15.4,22.6 12.6,25.4 21,33.8 37.4,17.4"/>
   </g>
  </g>
  <!-- 删除链表&#45;&gt;237 -->
  <g class="edge" id="edge37">
   <title>
    删除链表-&gt;237
   </title>
   <path d="M684.76,-575.7C695.59,-566.88 708.92,-556.03 720.66,-546.47" fill="none" stroke="lightgrey"/>
   <polygon fill="lightgrey" points="722.94,-549.13 728.49,-540.1 718.52,-543.7 722.94,-549.13" stroke="lightgrey"/>
  </g>
  <!-- 203 -->
  <g class="node" id="node39">
   <title>
    203
   </title>
   <g id="a_node39">
    <a target="_parent" xlink:href="https://leetcode-cn.com/problems/remove-linked-list-elements" xlink:title="203. 移除链表元素">
     <polygon fill="none" points="825.5,-468 709.5,-468 709.5,-432 825.5,-432 825.5,-468" stroke="greenyellow"/>
     <text font-family="Microsoft YaHei" font-size="12.00" text-anchor="middle" x="767.5" y="-446.9">
      203. 移除链表元素
     </text>
    </a>
   </g>
   <g transform="translate(817.5, -474.0) scale(0.3)">
    <circle cx="24" cy="24" fill="#4caf50" r="21"/>
    <polygon fill="#ccff90" points="34.6,14.6 21,28.2 15.4,22.6 12.6,25.4 21,33.8 37.4,17.4"/>
   </g>
  </g>
  <!-- 237&#45;&gt;203 -->
  <g class="edge" id="edge38">
   <title>
    237-&gt;203
   </title>
   <path d="M753.95,-503.7C755.95,-495.9 758.37,-486.51 760.6,-477.83" fill="none" stroke="lightgrey"/>
   <polygon fill="lightgrey" points="764,-478.66 763.1,-468.1 757.22,-476.92 764,-478.66" stroke="lightgrey"/>
  </g>
  <!-- 83 -->
  <g class="node" id="node40">
   <title>
    83
   </title>
   <g id="a_node40">
    <a target="_parent" xlink:href="https://leetcode-cn.com/problems/remove-duplicates-from-sorted-list" xlink:title="83. 删除排序链表中的重复元素">
     <polygon fill="none" points="876,-396 695,-396 695,-360 876,-360 876,-396" stroke="greenyellow"/>
     <text font-family="Microsoft YaHei" font-size="12.00" text-anchor="middle" x="785.5" y="-374.9">
      83. 删除排序链表中的重复元素
     </text>
    </a>
   </g>
   <g transform="translate(868.0, -402.0) scale(0.3)">
    <circle cx="24" cy="24" fill="#4caf50" r="21"/>
    <polygon fill="#ccff90" points="34.6,14.6 21,28.2 15.4,22.6 12.6,25.4 21,33.8 37.4,17.4"/>
   </g>
  </g>
  <!-- 203&#45;&gt;83 -->
  <g class="edge" id="edge39">
   <title>
    203-&gt;83
   </title>
   <path d="M771.95,-431.7C773.95,-423.9 776.37,-414.51 778.6,-405.83" fill="none" stroke="lightgrey"/>
   <polygon fill="lightgrey" points="782,-406.66 781.1,-396.1 775.22,-404.92 782,-406.66" stroke="lightgrey"/>
  </g>
  <!-- 82 -->
  <g class="node" id="node41">
   <title>
    82
   </title>
   <g id="a_node41">
    <a target="_parent" xlink:href="https://leetcode-cn.com/problems/remove-duplicates-from-sorted-list-ii" xlink:title="82. 删除排序链表中的重复元素 II">
     <polygon fill="none" points="889.5,-324 697.5,-324 697.5,-288 889.5,-288 889.5,-324" stroke="orange"/>
     <text font-family="Microsoft YaHei" font-size="12.00" text-anchor="middle" x="793.5" y="-302.9">
      82. 删除排序链表中的重复元素 II
     </text>
    </a>
   </g>
   <g transform="translate(881.5, -330.0) scale(0.3)">
    <circle cx="24" cy="24" fill="#4caf50" r="21"/>
    <polygon fill="#ccff90" points="34.6,14.6 21,28.2 15.4,22.6 12.6,25.4 21,33.8 37.4,17.4"/>
   </g>
  </g>
  <!-- 83&#45;&gt;82 -->
  <g class="edge" id="edge40">
   <title>
    83-&gt;82
   </title>
   <path d="M787.48,-359.7C788.36,-351.98 789.42,-342.71 790.4,-334.11" fill="none" stroke="lightgrey"/>
   <polygon fill="lightgrey" points="793.89,-334.44 791.55,-324.1 786.93,-333.64 793.89,-334.44" stroke="lightgrey"/>
  </g>
  <!-- 1171 -->
  <g class="node" id="node42">
   <title>
    1171
   </title>
   <g id="a_node42">
    <a target="_parent" xlink:href="https://leetcode-cn.com/problems/remove-zero-sum-consecutive-nodes-from-linked-list" xlink:title="1171. 从链表中删去总和值为零的连续节点">
     <polygon fill="none" points="914.5,-252 672.5,-252 672.5,-216 914.5,-216 914.5,-252" stroke="orange"/>
     <text font-family="Microsoft YaHei" font-size="12.00" text-anchor="middle" x="793.5" y="-230.9">
      1171. 从链表中删去总和值为零的连续节点
     </text>
    </a>
   </g>
   <g transform="translate(906.5, -258.0) scale(0.3)">
    <circle cx="24" cy="24" fill="#4caf50" r="21"/>
    <polygon fill="#ccff90" points="34.6,14.6 21,28.2 15.4,22.6 12.6,25.4 21,33.8 37.4,17.4"/>
   </g>
  </g>
  <!-- 82&#45;&gt;1171 -->
  <g class="edge" id="edge41">
   <title>
    82-&gt;1171
   </title>
   <path d="M793.5,-287.7C793.5,-279.98 793.5,-270.71 793.5,-262.11" fill="none" stroke="lightgrey"/>
   <polygon fill="lightgrey" points="797,-262.1 793.5,-252.1 790,-262.1 797,-262.1" stroke="lightgrey"/>
  </g>
  <g class="key">
   <defs>
    <filter height="1.2" id="solid" width="1.2" x="-0.1" y="-0.1">
     <feFlood flood-color="#ccff90" result="bg"/>
     <feMerge>
      <feMergeNode in="bg"/>
      <feMergeNode in="SourceGraphic"/>
     </feMerge>
    </filter>
   </defs>
   <text filter="url(#solid)" font-family="Microsoft YaHei" font-size="10.00" text-anchor="middle" x="51.5" y="-499.0">
    链表增删改查
   </text>
  </g>
  <g class="key">
   <defs>
    <filter height="1.2" id="solid" width="1.2" x="-0.1" y="-0.1">
     <feFlood flood-color="#ccff90" result="bg"/>
     <feMerge>
      <feMergeNode in="bg"/>
      <feMergeNode in="SourceGraphic"/>
     </feMerge>
    </filter>
   </defs>
   <text filter="url(#solid)" font-family="Microsoft YaHei" font-size="10.00" text-anchor="middle" x="67.5" y="-139.0">
    快慢指针
   </text>
  </g>
  <g class="key">
   <defs>
    <filter height="1.2" id="solid" width="1.2" x="-0.1" y="-0.1">
     <feFlood flood-color="#ccff90" result="bg"/>
     <feMerge>
      <feMergeNode in="bg"/>
      <feMergeNode in="SourceGraphic"/>
     </feMerge>
    </filter>
   </defs>
   <text filter="url(#solid)" font-family="Microsoft YaHei" font-size="10.00" text-anchor="middle" x="394.5" y="-499.0">
    位运算
   </text>
  </g>
  <g class="key">
   <defs>
    <filter height="1.2" id="solid" width="1.2" x="-0.1" y="-0.1">
     <feFlood flood-color="#ccff90" result="bg"/>
     <feMerge>
      <feMergeNode in="bg"/>
      <feMergeNode in="SourceGraphic"/>
     </feMerge>
    </filter>
   </defs>
   <text filter="url(#solid)" font-family="Microsoft YaHei" font-size="10.00" text-anchor="middle" x="394.5" y="-427.0">
    set
   </text>
  </g>
  <g class="key">
   <defs>
    <filter height="1.2" id="solid" width="1.2" x="-0.1" y="-0.1">
     <feFlood flood-color="#ccff90" result="bg"/>
     <feMerge>
      <feMergeNode in="bg"/>
      <feMergeNode in="SourceGraphic"/>
     </feMerge>
    </filter>
   </defs>
   <text filter="url(#solid)" font-family="Microsoft YaHei" font-size="10.00" text-anchor="middle" x="394.5" y="-355.0">
    二叉树搜索
   </text>
  </g>
  <g class="key">
   <defs>
    <filter height="1.2" id="solid" width="1.2" x="-0.1" y="-0.1">
     <feFlood flood-color="#ccff90" result="bg"/>
     <feMerge>
      <feMergeNode in="bg"/>
      <feMergeNode in="SourceGraphic"/>
     </feMerge>
    </filter>
   </defs>
   <text filter="url(#solid)" font-family="Microsoft YaHei" font-size="10.00" text-anchor="middle" x="394.5" y="-283.0">
    单调栈
   </text>
  </g>
  <g class="key">
   <defs>
    <filter height="1.2" id="solid" width="1.2" x="-0.1" y="-0.1">
     <feFlood flood-color="#ccff90" result="bg"/>
     <feMerge>
      <feMergeNode in="bg"/>
      <feMergeNode in="SourceGraphic"/>
     </feMerge>
    </filter>
   </defs>
   <text filter="url(#solid)" font-family="Microsoft YaHei" font-size="10.00" text-anchor="middle" x="394.5" y="-211.0">
    插入排序
   </text>
  </g>
  <g class="key">
   <defs>
    <filter height="1.2" id="solid" width="1.2" x="-0.1" y="-0.1">
     <feFlood flood-color="#ccff90" result="bg"/>
     <feMerge>
      <feMergeNode in="bg"/>
      <feMergeNode in="SourceGraphic"/>
     </feMerge>
    </filter>
   </defs>
   <text filter="url(#solid)" font-family="Microsoft YaHei" font-size="10.00" text-anchor="middle" x="394.5" y="-139.0">
    添加非递归的方法
   </text>
  </g>
  <g class="key">
   <defs>
    <filter height="1.2" id="solid" width="1.2" x="-0.1" y="-0.1">
     <feFlood flood-color="#ccff90" result="bg"/>
     <feMerge>
      <feMergeNode in="bg"/>
      <feMergeNode in="SourceGraphic"/>
     </feMerge>
    </filter>
   </defs>
   <text filter="url(#solid)" font-family="Microsoft YaHei" font-size="10.00" text-anchor="middle" x="394.5" y="-67.0">
    map映射
   </text>
  </g>
  <g class="key">
   <defs>
    <filter height="1.2" id="solid" width="1.2" x="-0.1" y="-0.1">
     <feFlood flood-color="#ccff90" result="bg"/>
     <feMerge>
      <feMergeNode in="bg"/>
      <feMergeNode in="SourceGraphic"/>
     </feMerge>
    </filter>
   </defs>
   <text filter="url(#solid)" font-family="Microsoft YaHei" font-size="10.00" text-anchor="middle" x="591.5" y="-67.0">
    路程相等
   </text>
  </g>
  <g class="key">
   <defs>
    <filter height="1.2" id="solid" width="1.2" x="-0.1" y="-0.1">
     <feFlood flood-color="#ccff90" result="bg"/>
     <feMerge>
      <feMergeNode in="bg"/>
      <feMergeNode in="SourceGraphic"/>
     </feMerge>
    </filter>
   </defs>
   <text filter="url(#solid)" font-family="Microsoft YaHei" font-size="10.00" text-anchor="middle" x="591.5" y="5.0">
    公式推理
   </text>
  </g>
  <g class="key">
   <defs>
    <filter height="1.2" id="solid" width="1.2" x="-0.1" y="-0.1">
     <feFlood flood-color="#ccff90" result="bg"/>
     <feMerge>
      <feMergeNode in="bg"/>
      <feMergeNode in="SourceGraphic"/>
     </feMerge>
    </filter>
   </defs>
   <text filter="url(#solid)" font-family="Microsoft YaHei" font-size="10.00" text-anchor="middle" x="749.5" y="-499.0">
    简单删除
   </text>
  </g>
  <g class="key">
   <defs>
    <filter height="1.2" id="solid" width="1.2" x="-0.1" y="-0.1">
     <feFlood flood-color="#ccff90" result="bg"/>
     <feMerge>
      <feMergeNode in="bg"/>
      <feMergeNode in="SourceGraphic"/>
     </feMerge>
    </filter>
   </defs>
   <text filter="url(#solid)" font-family="Microsoft YaHei" font-size="10.00" text-anchor="middle" x="767.5" y="-427.0">
    删除多个
   </text>
  </g>
  <g class="key">
   <defs>
    <filter height="1.2" id="solid" width="1.2" x="-0.1" y="-0.1">
     <feFlood flood-color="#ccff90" result="bg"/>
     <feMerge>
      <feMergeNode in="bg"/>
      <feMergeNode in="SourceGraphic"/>
     </feMerge>
    </filter>
   </defs>
   <text filter="url(#solid)" font-family="Microsoft YaHei" font-size="10.00" text-anchor="middle" x="793.5" y="-211.0">
    区间和
   </text>
  </g>
 </g>
</svg>