<?xml version="1.0" encoding="utf-8"?>
<!DOCTYPE svg PUBLIC "-//W3C//DTD SVG 1.1//EN" "http://www.w3.org/Graphics/SVG/1.1/DTD/svg11.dtd">
<!-- Generated by graphviz version 2.46.1 (20210213.1702)
 -->
<!-- Title: stones Pages: 1 -->
<svg height="742pt" viewBox="0.00 0.00 415.0 742.0" width="415pt" xmlns="http://www.w3.org/2000/svg" xmlns:xlink="http://www.w3.org/1999/xlink">
 <g class="graph" id="graph0" transform="scale(1 1) rotate(0) translate(4 688)">
  <title>
   stones
  </title>
  <polygon fill="white" points="-4,4 -4,-688 361,-688 361,4 -4,4" stroke="transparent"/>
  <!-- Leetcode&#45;堆栈队列 -->
  <g class="node" id="node1">
   <title>
    Leetcode-堆栈队列
   </title>
   <g id="a_node1">
    <a target="_parent" xlink:href="https://leetcode-cn.com/tag/" xlink:title="Leetcode-堆栈队列(10)">
     <polygon fill="orangered" points="249.5,-684 81.5,-684 81.5,-648 249.5,-648 249.5,-684" stroke="lightgrey"/>
     <text fill="white" font-family="Microsoft YaHei" font-size="14.00" text-anchor="middle" x="165.5" y="-662.3">
      Leetcode-堆栈队列(10)
     </text>
    </a>
   </g>
  </g>
  <!-- 堆 -->
  <g class="node" id="node2">
   <title>
    堆
   </title>
   <polygon fill="lightslategray" points="156.5,-612 102.5,-612 102.5,-576 156.5,-576 156.5,-612" stroke="lightgrey"/>
   <text fill="white" font-family="Microsoft YaHei" font-size="12.00" text-anchor="middle" x="129.5" y="-590.9">
    堆(2)
   </text>
  </g>
  <!-- Leetcode&#45;堆栈队列&#45;&gt;堆 -->
  <g class="edge" id="edge1">
   <title>
    Leetcode-堆栈队列-&gt;堆
   </title>
   <path d="M156.6,-647.7C152.5,-639.73 147.55,-630.1 143.01,-621.26" fill="none" stroke="lightgrey"/>
   <polygon fill="lightgrey" points="145.98,-619.4 138.3,-612.1 139.76,-622.6 145.98,-619.4" stroke="lightgrey"/>
  </g>
  <!-- 队列 -->
  <g class="node" id="node5">
   <title>
    队列
   </title>
   <polygon fill="lightslategray" points="253,-612 198,-612 198,-576 253,-576 253,-612" stroke="lightgrey"/>
   <text fill="white" font-family="Microsoft YaHei" font-size="12.00" text-anchor="middle" x="225.5" y="-590.9">
    队列(8)
   </text>
  </g>
  <!-- Leetcode&#45;堆栈队列&#45;&gt;队列 -->
  <g class="edge" id="edge4">
   <title>
    Leetcode-堆栈队列-&gt;队列
   </title>
   <path d="M180.33,-647.7C187.52,-639.3 196.3,-629.07 204.19,-619.86" fill="none" stroke="lightgrey"/>
   <polygon fill="lightgrey" points="206.99,-621.97 210.84,-612.1 201.67,-617.42 206.99,-621.97" stroke="lightgrey"/>
  </g>
  <!-- 703 -->
  <g class="node" id="node3">
   <title>
    703
   </title>
   <g id="a_node3">
    <a target="_parent" xlink:href="https://leetcode-cn.com/problems/kth-largest-element-in-a-stream" xlink:title="703. 数据流中的第 K 大元素">
     <polygon fill="none" points="167,-540 0,-540 0,-504 167,-504 167,-540" stroke="greenyellow"/>
     <text font-family="Microsoft YaHei" font-size="12.00" text-anchor="middle" x="83.5" y="-518.9">
      703. 数据流中的第 K 大元素
     </text>
    </a>
   </g>
   <g transform="translate(159.0, -546.0) scale(0.3)">
    <circle cx="24" cy="24" fill="#4caf50" r="21"/>
    <polygon fill="#ccff90" points="34.6,14.6 21,28.2 15.4,22.6 12.6,25.4 21,33.8 37.4,17.4"/>
   </g>
  </g>
  <!-- 堆&#45;&gt;703 -->
  <g class="edge" id="edge2">
   <title>
    堆-&gt;703
   </title>
   <path d="M118.13,-575.7C112.78,-567.56 106.3,-557.69 100.39,-548.7" fill="none" stroke="lightgrey"/>
   <polygon fill="lightgrey" points="103.16,-546.54 94.74,-540.1 97.31,-550.38 103.16,-546.54" stroke="lightgrey"/>
  </g>
  <!-- 1046 -->
  <g class="node" id="node4">
   <title>
    1046
   </title>
   <g id="a_node4">
    <a target="_parent" xlink:href="https://leetcode-cn.com/problems/last-stone-weight" xlink:title="1046. 最后一块石头的重量">
     <polygon fill="none" points="162.5,-468 4.5,-468 4.5,-432 162.5,-432 162.5,-468" stroke="greenyellow"/>
     <text font-family="Microsoft YaHei" font-size="12.00" text-anchor="middle" x="83.5" y="-446.9">
      1046. 最后一块石头的重量
     </text>
    </a>
   </g>
  </g>
  <!-- 703&#45;&gt;1046 -->
  <g class="edge" id="edge3">
   <title>
    703-&gt;1046
   </title>
   <path d="M83.5,-503.7C83.5,-495.98 83.5,-486.71 83.5,-478.11" fill="none" stroke="lightgrey"/>
   <polygon fill="lightgrey" points="87,-478.1 83.5,-468.1 80,-478.1 87,-478.1" stroke="lightgrey"/>
  </g>
  <!-- 933 -->
  <g class="node" id="node6">
   <title>
    933
   </title>
   <g id="a_node6">
    <a target="_parent" xlink:href="https://leetcode-cn.com/problems/number-of-recent-calls" xlink:title="933. 最近的请求次数">
     <polygon fill="none" points="313.5,-540 185.5,-540 185.5,-504 313.5,-504 313.5,-540" stroke="greenyellow"/>
     <text font-family="Microsoft YaHei" font-size="12.00" text-anchor="middle" x="249.5" y="-518.9">
      933. 最近的请求次数
     </text>
    </a>
   </g>
   <g transform="translate(305.5, -546.0) scale(0.3)">
    <circle cx="24" cy="24" fill="#4caf50" r="21"/>
    <polygon fill="#ccff90" points="34.6,14.6 21,28.2 15.4,22.6 12.6,25.4 21,33.8 37.4,17.4"/>
   </g>
  </g>
  <!-- 队列&#45;&gt;933 -->
  <g class="edge" id="edge5">
   <title>
    队列-&gt;933
   </title>
   <path d="M231.43,-575.7C234.11,-567.9 237.33,-558.51 240.3,-549.83" fill="none" stroke="lightgrey"/>
   <polygon fill="lightgrey" points="243.7,-550.7 243.64,-540.1 237.08,-548.43 243.7,-550.7" stroke="lightgrey"/>
  </g>
  <!-- 622 -->
  <g class="node" id="node7">
   <title>
    622
   </title>
   <g id="a_node7">
    <a target="_parent" xlink:href="https://leetcode-cn.com/problems/design-circular-queue" xlink:title="622. 设计循环队列">
     <polygon fill="none" points="307.5,-468 191.5,-468 191.5,-432 307.5,-432 307.5,-468" stroke="orange"/>
     <text font-family="Microsoft YaHei" font-size="12.00" text-anchor="middle" x="249.5" y="-446.9">
      622. 设计循环队列
     </text>
    </a>
   </g>
   <g transform="translate(299.5, -474.0) scale(0.3)">
    <circle cx="24" cy="24" fill="#4caf50" r="21"/>
    <polygon fill="#ccff90" points="34.6,14.6 21,28.2 15.4,22.6 12.6,25.4 21,33.8 37.4,17.4"/>
   </g>
  </g>
  <!-- 933&#45;&gt;622 -->
  <g class="edge" id="edge6">
   <title>
    933-&gt;622
   </title>
   <path d="M249.5,-503.7C249.5,-495.98 249.5,-486.71 249.5,-478.11" fill="none" stroke="lightgrey"/>
   <polygon fill="lightgrey" points="253,-478.1 249.5,-468.1 246,-478.1 253,-478.1" stroke="lightgrey"/>
  </g>
  <!-- 641 -->
  <g class="node" id="node8">
   <title>
    641
   </title>
   <g id="a_node8">
    <a target="_parent" xlink:href="https://leetcode-cn.com/problems/design-circular-deque" xlink:title="641. 设计循环双端队列">
     <polygon fill="none" points="319.5,-396 179.5,-396 179.5,-360 319.5,-360 319.5,-396" stroke="orange"/>
     <text font-family="Microsoft YaHei" font-size="12.00" text-anchor="middle" x="249.5" y="-374.9">
      641. 设计循环双端队列
     </text>
    </a>
   </g>
   <g transform="translate(311.5, -402.0) scale(0.3)">
    <circle cx="24" cy="24" fill="#4caf50" r="21"/>
    <polygon fill="#ccff90" points="34.6,14.6 21,28.2 15.4,22.6 12.6,25.4 21,33.8 37.4,17.4"/>
   </g>
  </g>
  <!-- 622&#45;&gt;641 -->
  <g class="edge" id="edge7">
   <title>
    622-&gt;641
   </title>
   <path d="M249.5,-431.7C249.5,-423.98 249.5,-414.71 249.5,-406.11" fill="none" stroke="lightgrey"/>
   <polygon fill="lightgrey" points="253,-406.1 249.5,-396.1 246,-406.1 253,-406.1" stroke="lightgrey"/>
  </g>
  <!-- 199 -->
  <g class="node" id="node9">
   <title>
    199
   </title>
   <g id="a_node9">
    <a target="_parent" xlink:href="https://leetcode-cn.com/problems/binary-tree-right-side-view" xlink:title="199. 二叉树的右视图">
     <polygon fill="none" points="313.5,-324 185.5,-324 185.5,-288 313.5,-288 313.5,-324" stroke="orange"/>
     <text font-family="Microsoft YaHei" font-size="12.00" text-anchor="middle" x="249.5" y="-302.9">
      199. 二叉树的右视图
     </text>
    </a>
   </g>
   <g transform="translate(305.5, -330.0) scale(0.3)">
    <circle cx="24" cy="24" fill="#4caf50" r="21"/>
    <polygon fill="#ccff90" points="34.6,14.6 21,28.2 15.4,22.6 12.6,25.4 21,33.8 37.4,17.4"/>
   </g>
  </g>
  <!-- 641&#45;&gt;199 -->
  <g class="edge" id="edge8">
   <title>
    641-&gt;199
   </title>
   <path d="M249.5,-359.7C249.5,-351.98 249.5,-342.71 249.5,-334.11" fill="none" stroke="lightgrey"/>
   <polygon fill="lightgrey" points="253,-334.1 249.5,-324.1 246,-334.1 253,-334.1" stroke="lightgrey"/>
  </g>
  <!-- 621 -->
  <g class="node" id="node10">
   <title>
    621
   </title>
   <g id="a_node10">
    <a target="_parent" xlink:href="https://leetcode-cn.com/problems/task-scheduler" xlink:title="621. 任务调度器">
     <polygon fill="none" points="301.5,-252 197.5,-252 197.5,-216 301.5,-216 301.5,-252" stroke="orange"/>
     <text font-family="Microsoft YaHei" font-size="12.00" text-anchor="middle" x="249.5" y="-230.9">
      621. 任务调度器
     </text>
    </a>
   </g>
   <g transform="translate(293.5, -258.0) scale(0.3)">
    <circle cx="24" cy="24" fill="#4caf50" r="21"/>
    <polygon fill="#ccff90" points="34.6,14.6 21,28.2 15.4,22.6 12.6,25.4 21,33.8 37.4,17.4"/>
   </g>
   <g transform="translate(292.5, -225.0)">
    <symbol id="flask" viewBox="0 0 448 512">
     <path d="M437.2 403.5L320 215V64h8c13.3 0 24-10.7 24-24V24c0-13.3-10.7-24-24-24H120c-13.3 0-24 10.7-24 24v16c0 13.3 10.7 24 24 24h8v151L10.8 403.5C-18.5 450.6 15.3 512 70.9 512h306.2c55.7 0 89.4-61.5 60.1-108.5zM137.9 320l48.2-77.6c3.7-5.2 5.8-11.6 5.8-18.4V64h64v160c0 6.9 2.2 13.2 5.8 18.4l48.2 77.6h-172z" fill="#1389fd"/>
    </symbol>
    <a href="https://github.com/acm-clan/algorithm-stone/blob/main/user/leetcode/621.任务调度器.md">
     <use height="18" href="#flask" width="18"/>
    </a>
   </g>
  </g>
  <!-- 199&#45;&gt;621 -->
  <g class="edge" id="edge9">
   <title>
    199-&gt;621
   </title>
   <path d="M249.5,-287.7C249.5,-279.98 249.5,-270.71 249.5,-262.11" fill="none" stroke="lightgrey"/>
   <polygon fill="lightgrey" points="253,-262.1 249.5,-252.1 246,-262.1 253,-262.1" stroke="lightgrey"/>
  </g>
  <!-- 1673 -->
  <g class="node" id="node11">
   <title>
    1673
   </title>
   <g id="a_node11">
    <a target="_parent" xlink:href="https://leetcode-cn.com/problems/find-the-most-competitive-subsequence" xlink:title="1673. 找出最具竞争力的子序列">
     <polygon fill="none" points="340.5,-180 158.5,-180 158.5,-144 340.5,-144 340.5,-180" stroke="orange"/>
     <text font-family="Microsoft YaHei" font-size="12.00" text-anchor="middle" x="249.5" y="-158.9">
      1673. 找出最具竞争力的子序列
     </text>
    </a>
   </g>
   <g transform="translate(332.5, -186.0) scale(0.3)">
    <circle cx="24" cy="24" fill="#4caf50" r="21"/>
    <polygon fill="#ccff90" points="34.6,14.6 21,28.2 15.4,22.6 12.6,25.4 21,33.8 37.4,17.4"/>
   </g>
  </g>
  <!-- 621&#45;&gt;1673 -->
  <g class="edge" id="edge10">
   <title>
    621-&gt;1673
   </title>
   <path d="M249.5,-215.7C249.5,-207.98 249.5,-198.71 249.5,-190.11" fill="none" stroke="lightgrey"/>
   <polygon fill="lightgrey" points="253,-190.1 249.5,-180.1 246,-190.1 253,-190.1" stroke="lightgrey"/>
  </g>
  <!-- 862 -->
  <g class="node" id="node12">
   <title>
    862
   </title>
   <g id="a_node12">
    <a target="_parent" xlink:href="https://leetcode-cn.com/problems/shortest-subarray-with-sum-at-least-k" xlink:title="862. 和至少为 K 的最短子数组">
     <polygon fill="none" points="339,-108 160,-108 160,-72 339,-72 339,-108" stroke="red"/>
     <text font-family="Microsoft YaHei" font-size="12.00" text-anchor="middle" x="249.5" y="-86.9">
      862. 和至少为 K 的最短子数组
     </text>
    </a>
   </g>
  </g>
  <!-- 1673&#45;&gt;862 -->
  <g class="edge" id="edge11">
   <title>
    1673-&gt;862
   </title>
   <path d="M249.5,-143.7C249.5,-135.98 249.5,-126.71 249.5,-118.11" fill="none" stroke="lightgrey"/>
   <polygon fill="lightgrey" points="253,-118.1 249.5,-108.1 246,-118.1 253,-118.1" stroke="lightgrey"/>
  </g>
  <!-- 363 -->
  <g class="node" id="node13">
   <title>
    363
   </title>
   <g id="a_node13">
    <a target="_parent" xlink:href="https://leetcode-cn.com/problems/max-sum-of-rectangle-no-larger-than-k" xlink:title="363. 矩形区域不超过 K 的最大数值和">
     <polygon fill="none" points="357,-36 142,-36 142,0 357,0 357,-36" stroke="red"/>
     <text font-family="Microsoft YaHei" font-size="12.00" text-anchor="middle" x="249.5" y="-14.9">
      363. 矩形区域不超过 K 的最大数值和
     </text>
    </a>
   </g>
  </g>
  <!-- 862&#45;&gt;363 -->
  <g class="edge" id="edge12">
   <title>
    862-&gt;363
   </title>
   <path d="M249.5,-71.7C249.5,-63.98 249.5,-54.71 249.5,-46.11" fill="none" stroke="lightgrey"/>
   <polygon fill="lightgrey" points="253,-46.1 249.5,-36.1 246,-46.1 253,-46.1" stroke="lightgrey"/>
  </g>
  <g class="key">
   <defs>
    <filter height="1.2" id="solid" width="1.2" x="-0.1" y="-0.1">
     <feFlood flood-color="#ccff90" result="bg"/>
     <feMerge>
      <feMergeNode in="bg"/>
      <feMergeNode in="SourceGraphic"/>
     </feMerge>
    </filter>
   </defs>
   <text filter="url(#solid)" font-family="Microsoft YaHei" font-size="10.00" text-anchor="middle" x="249.5" y="-427.0">
    基础题
   </text>
  </g>
  <g class="key">
   <defs>
    <filter height="1.2" id="solid" width="1.2" x="-0.1" y="-0.1">
     <feFlood flood-color="#ccff90" result="bg"/>
     <feMerge>
      <feMergeNode in="bg"/>
      <feMergeNode in="SourceGraphic"/>
     </feMerge>
    </filter>
   </defs>
   <text filter="url(#solid)" font-family="Microsoft YaHei" font-size="10.00" text-anchor="middle" x="249.5" y="-355.0">
    基础题
   </text>
  </g>
  <g class="key">
   <defs>
    <filter height="1.2" id="solid" width="1.2" x="-0.1" y="-0.1">
     <feFlood flood-color="#ccff90" result="bg"/>
     <feMerge>
      <feMergeNode in="bg"/>
      <feMergeNode in="SourceGraphic"/>
     </feMerge>
    </filter>
   </defs>
   <text filter="url(#solid)" font-family="Microsoft YaHei" font-size="10.00" text-anchor="middle" x="249.5" y="-283.0">
    树的层次遍历
   </text>
  </g>
  <g class="key">
   <defs>
    <filter height="1.2" id="solid" width="1.2" x="-0.1" y="-0.1">
     <feFlood flood-color="#ccff90" result="bg"/>
     <feMerge>
      <feMergeNode in="bg"/>
      <feMergeNode in="SourceGraphic"/>
     </feMerge>
    </filter>
   </defs>
   <text filter="url(#solid)" font-family="Microsoft YaHei" font-size="10.00" text-anchor="middle" x="249.5" y="-211.0">
    贪心难
   </text>
  </g>
 </g>
</svg>