<?xml version="1.0" encoding="utf-8"?>
<!DOCTYPE svg PUBLIC "-//W3C//DTD SVG 1.1//EN" "http://www.w3.org/Graphics/SVG/1.1/DTD/svg11.dtd">
<!-- Generated by graphviz version 2.46.1 (20210213.1702)
 -->
<!-- Title: stones Pages: 1 -->
<svg height="300pt" viewBox="0.00 0.00 193.00 260.00" width="193pt" xmlns="http://www.w3.org/2000/svg" xmlns:xlink="http://www.w3.org/1999/xlink">
 <g class="graph" id="graph0" transform="scale(1 1) rotate(0) translate(4 256)">
  <title>
   stones
  </title>
  <polygon fill="white" points="-4,4 -4,-256 189,-256 189,4 -4,4" stroke="transparent"/>
  <!-- Leetcode&#45;小众题 -->
  <g class="node" id="node1">
   <title>
    Leetcode-小众题
   </title>
   <g id="a_node1">
    <a target="_parent" xlink:href="https://leetcode-cn.com/tag/" xlink:title="Leetcode-小众题(2)">
     <polygon fill="orangered" points="165,-252 20,-252 20,-216 165,-216 165,-252" stroke="lightgrey"/>
     <text fill="white" font-family="Microsoft YaHei" font-size="14.00" text-anchor="middle" x="92.5" y="-230.3">
      Leetcode-小众题(2)
     </text>
    </a>
   </g>
  </g>
  <!-- 拒绝采样 -->
  <g class="node" id="node2">
   <title>
    拒绝采样
   </title>
   <polygon fill="lightslategray" points="132,-180 53,-180 53,-144 132,-144 132,-180" stroke="lightgrey"/>
   <text fill="white" font-family="Microsoft YaHei" font-size="12.00" text-anchor="middle" x="92.5" y="-158.9">
    拒绝采样(2)
   </text>
  </g>
  <!-- Leetcode&#45;小众题&#45;&gt;拒绝采样 -->
  <g class="edge" id="edge1">
   <title>
    Leetcode-小众题-&gt;拒绝采样
   </title>
   <path d="M92.5,-215.7C92.5,-207.98 92.5,-198.71 92.5,-190.11" fill="none" stroke="lightgrey"/>
   <polygon fill="lightgrey" points="96,-190.1 92.5,-180.1 89,-190.1 96,-190.1" stroke="lightgrey"/>
  </g>
  <!-- 470 -->
  <g class="node" id="node3">
   <title>
    470
   </title>
   <g id="a_node3">
    <a target="_parent" xlink:href="https://leetcode-cn.com/problems/implement-rand10-using-rand7" xlink:title="470. 用 Rand7() 实现 Rand10()">
     <polygon fill="none" points="185,-108 0,-108 0,-72 185,-72 185,-108" stroke="orange"/>
     <text font-family="Microsoft YaHei" font-size="12.00" text-anchor="middle" x="92.5" y="-86.9">
      470. 用 Rand7() 实现 Rand10()
     </text>
    </a>
   </g>
   <g transform="translate(177.0, -114.0) scale(0.3)">
    <circle cx="24" cy="24" fill="#4caf50" r="21"/>
    <polygon fill="#ccff90" points="34.6,14.6 21,28.2 15.4,22.6 12.6,25.4 21,33.8 37.4,17.4"/>
   </g>
   <g transform="translate(172.0, -81.0) scale(0.01)">
    <symbol id="flask" viewBox="0 0 448 512">
     <path d="M437.2 403.5L320 215V64h8c13.3 0 24-10.7 24-24V24c0-13.3-10.7-24-24-24H120c-13.3 0-24 10.7-24 24v16c0 13.3 10.7 24 24 24h8v151L10.8 403.5C-18.5 450.6 15.3 512 70.9 512h306.2c55.7 0 89.4-61.5 60.1-108.5zM137.9 320l48.2-77.6c3.7-5.2 5.8-11.6 5.8-18.4V64h64v160c0 6.9 2.2 13.2 5.8 18.4l48.2 77.6h-172z" fill="#1389fd"/>
    </symbol>
    <a href="https://github.com/acm-clan/algorithm-stone/blob/main/user/leetcode/470.用-rand-7-实现-rand-10.md">
     <use href="#flask"/>
    </a>
   </g>
  </g>
  <!-- 拒绝采样&#45;&gt;470 -->
  <g class="edge" id="edge2">
   <title>
    拒绝采样-&gt;470
   </title>
   <path d="M92.5,-143.7C92.5,-135.98 92.5,-126.71 92.5,-118.11" fill="none" stroke="lightgrey"/>
   <polygon fill="lightgrey" points="96,-118.1 92.5,-108.1 89,-118.1 96,-118.1" stroke="lightgrey"/>
  </g>
  <!-- 478 -->
  <g class="node" id="node4">
   <title>
    478
   </title>
   <g id="a_node4">
    <a target="_parent" xlink:href="https://leetcode-cn.com/problems/generate-random-point-in-a-circle" xlink:title="478. 在圆内随机生成点">
     <polygon fill="none" points="162.5,-36 22.5,-36 22.5,0 162.5,0 162.5,-36" stroke="orange"/>
     <text font-family="Microsoft YaHei" font-size="12.00" text-anchor="middle" x="92.5" y="-14.9">
      478. 在圆内随机生成点
     </text>
    </a>
   </g>
   <g transform="translate(154.5, -42.0) scale(0.3)">
    <circle cx="24" cy="24" fill="#4caf50" r="21"/>
    <polygon fill="#ccff90" points="34.6,14.6 21,28.2 15.4,22.6 12.6,25.4 21,33.8 37.4,17.4"/>
   </g>
   <g transform="translate(149.5, -9.0) scale(0.01)">
    <symbol id="flask" viewBox="0 0 448 512">
     <path d="M437.2 403.5L320 215V64h8c13.3 0 24-10.7 24-24V24c0-13.3-10.7-24-24-24H120c-13.3 0-24 10.7-24 24v16c0 13.3 10.7 24 24 24h8v151L10.8 403.5C-18.5 450.6 15.3 512 70.9 512h306.2c55.7 0 89.4-61.5 60.1-108.5zM137.9 320l48.2-77.6c3.7-5.2 5.8-11.6 5.8-18.4V64h64v160c0 6.9 2.2 13.2 5.8 18.4l48.2 77.6h-172z" fill="#1389fd"/>
    </symbol>
    <a href="https://github.com/acm-clan/algorithm-stone/blob/main/user/leetcode/478.在圆内随机生成点.md">
     <use href="#flask"/>
    </a>
   </g>
  </g>
  <!-- 470&#45;&gt;478 -->
  <g class="edge" id="edge3">
   <title>
    470-&gt;478
   </title>
   <path d="M92.5,-71.7C92.5,-63.98 92.5,-54.71 92.5,-46.11" fill="none" stroke="lightgrey"/>
   <polygon fill="lightgrey" points="96,-46.1 92.5,-36.1 89,-46.1 96,-46.1" stroke="lightgrey"/>
  </g>
  <g class="key">
   <defs>
    <filter height="1.2" id="solid" width="1.2" x="-0.1" y="-0.1">
     <feFlood flood-color="#ccff90" result="bg"/>
     <feMerge>
      <feMergeNode in="bg"/>
      <feMergeNode in="SourceGraphic"/>
     </feMerge>
    </filter>
   </defs>
   <text filter="url(#solid)" font-family="Microsoft YaHei" font-size="10.00" text-anchor="middle" x="92.5" y="-67.0">
    随机数重新分配
   </text>
  </g>
  <g class="key">
   <defs>
    <filter height="1.2" id="solid" width="1.2" x="-0.1" y="-0.1">
     <feFlood flood-color="#ccff90" result="bg"/>
     <feMerge>
      <feMergeNode in="bg"/>
      <feMergeNode in="SourceGraphic"/>
     </feMerge>
    </filter>
   </defs>
   <text filter="url(#solid)" font-family="Microsoft YaHei" font-size="10.00" text-anchor="middle" x="92.5" y="5.0">
    随机圆内点
   </text>
  </g>
 </g>
</svg>