<?xml version="1.0" encoding="utf-8"?>
<!DOCTYPE svg PUBLIC "-//W3C//DTD SVG 1.1//EN" "http://www.w3.org/Graphics/SVG/1.1/DTD/svg11.dtd">
<!-- Generated by graphviz version 2.46.1 (20210213.1702)
 -->
<!-- Title: stones Pages: 1 -->
<svg height="454pt" viewBox="0.00 0.00 711.5 454.0" width="712pt" xmlns="http://www.w3.org/2000/svg" xmlns:xlink="http://www.w3.org/1999/xlink">
 <g class="graph" id="graph0" transform="scale(1 1) rotate(0) translate(4 400)">
  <title>
   stones
  </title>
  <polygon fill="white" points="-4,4 -4,-400 657.5,-400 657.5,4 -4,4" stroke="transparent"/>
  <!-- Leetcode&#45;小众题 -->
  <g class="node" id="node1">
   <title>
    Leetcode-小众题
   </title>
   <g id="a_node1">
    <a target="_parent" xlink:href="https://leetcode-cn.com/tag/" xlink:title="Leetcode-小众题(9)">
     <polygon fill="orangered" points="400,-396 255,-396 255,-360 400,-360 400,-396" stroke="lightgrey"/>
     <text fill="white" font-family="Microsoft YaHei" font-size="14.00" text-anchor="middle" x="327.5" y="-374.3">
      Leetcode-小众题(9)
     </text>
    </a>
   </g>
  </g>
  <!-- 拒绝采样 -->
  <g class="node" id="node2">
   <title>
    拒绝采样
   </title>
   <polygon fill="lightslategray" points="177,-324 98,-324 98,-288 177,-288 177,-324" stroke="lightgrey"/>
   <text fill="white" font-family="Microsoft YaHei" font-size="12.00" text-anchor="middle" x="137.5" y="-302.9">
    拒绝采样(2)
   </text>
  </g>
  <!-- Leetcode&#45;小众题&#45;&gt;拒绝采样 -->
  <g class="edge" id="edge1">
   <title>
    Leetcode-小众题-&gt;拒绝采样
   </title>
   <path d="M281.02,-359.88C252.4,-349.33 215.74,-335.82 186.64,-325.1" fill="none" stroke="lightgrey"/>
   <polygon fill="lightgrey" points="187.67,-321.75 177.08,-321.58 185.25,-328.32 187.67,-321.75" stroke="lightgrey"/>
  </g>
  <!-- 蓄水池采样 -->
  <g class="node" id="node5">
   <title>
    蓄水池采样
   </title>
   <polygon fill="lightslategray" points="319,-324 228,-324 228,-288 319,-288 319,-324" stroke="lightgrey"/>
   <text fill="white" font-family="Microsoft YaHei" font-size="12.00" text-anchor="middle" x="273.5" y="-302.9">
    蓄水池采样(2)
   </text>
  </g>
  <!-- Leetcode&#45;小众题&#45;&gt;蓄水池采样 -->
  <g class="edge" id="edge4">
   <title>
    Leetcode-小众题-&gt;蓄水池采样
   </title>
   <path d="M314.15,-359.7C307.74,-351.39 299.94,-341.28 292.89,-332.14" fill="none" stroke="lightgrey"/>
   <polygon fill="lightgrey" points="295.57,-329.88 286.69,-324.1 290.03,-334.16 295.57,-329.88" stroke="lightgrey"/>
  </g>
  <!-- 记忆化搜索 -->
  <g class="node" id="node8">
   <title>
    记忆化搜索
   </title>
   <polygon fill="lightslategray" points="452,-324 361,-324 361,-288 452,-288 452,-324" stroke="lightgrey"/>
   <text fill="white" font-family="Microsoft YaHei" font-size="12.00" text-anchor="middle" x="406.5" y="-302.9">
    记忆化搜索(1)
   </text>
  </g>
  <!-- Leetcode&#45;小众题&#45;&gt;记忆化搜索 -->
  <g class="edge" id="edge7">
   <title>
    Leetcode-小众题-&gt;记忆化搜索
   </title>
   <path d="M347.03,-359.7C356.88,-350.97 368.99,-340.24 379.7,-330.75" fill="none" stroke="lightgrey"/>
   <polygon fill="lightgrey" points="382.03,-333.36 387.2,-324.1 377.39,-328.12 382.03,-333.36" stroke="lightgrey"/>
  </g>
  <!-- 扫描线 -->
  <g class="node" id="node10">
   <title>
    扫描线
   </title>
   <polygon fill="lightslategray" points="584,-324 517,-324 517,-288 584,-288 584,-324" stroke="lightgrey"/>
   <text fill="white" font-family="Microsoft YaHei" font-size="12.00" text-anchor="middle" x="550.5" y="-302.9">
    扫描线(4)
   </text>
  </g>
  <!-- Leetcode&#45;小众题&#45;&gt;扫描线 -->
  <g class="edge" id="edge9">
   <title>
    Leetcode-小众题-&gt;扫描线
   </title>
   <path d="M381.77,-359.97C420.3,-347.87 471.35,-331.85 507.17,-320.6" fill="none" stroke="lightgrey"/>
   <polygon fill="lightgrey" points="508.35,-323.9 516.84,-317.56 506.25,-317.22 508.35,-323.9" stroke="lightgrey"/>
  </g>
  <!-- 470 -->
  <g class="node" id="node3">
   <title>
    470
   </title>
   <g id="a_node3">
    <a target="_parent" xlink:href="https://leetcode-cn.com/problems/implement-rand10-using-rand7" xlink:title="470. 用 Rand7() 实现 Rand10()">
     <polygon fill="none" points="185,-252 0,-252 0,-216 185,-216 185,-252" stroke="orange"/>
     <text font-family="Microsoft YaHei" font-size="12.00" text-anchor="middle" x="92.5" y="-230.9">
      470. 用 Rand7() 实现 Rand10()
     </text>
    </a>
   </g>
   <g transform="translate(177.0, -258.0) scale(0.3)">
    <circle cx="24" cy="24" fill="#4caf50" r="21"/>
    <polygon fill="#ccff90" points="34.6,14.6 21,28.2 15.4,22.6 12.6,25.4 21,33.8 37.4,17.4"/>
   </g>
   <g transform="translate(176.0, -225.0)">
    <symbol id="flask" viewBox="0 0 448 512">
     <path d="M437.2 403.5L320 215V64h8c13.3 0 24-10.7 24-24V24c0-13.3-10.7-24-24-24H120c-13.3 0-24 10.7-24 24v16c0 13.3 10.7 24 24 24h8v151L10.8 403.5C-18.5 450.6 15.3 512 70.9 512h306.2c55.7 0 89.4-61.5 60.1-108.5zM137.9 320l48.2-77.6c3.7-5.2 5.8-11.6 5.8-18.4V64h64v160c0 6.9 2.2 13.2 5.8 18.4l48.2 77.6h-172z" fill="#1389fd"/>
    </symbol>
    <a href="https://github.com/acm-clan/algorithm-stone/blob/main/user/leetcode/470.用-rand-7-实现-rand-10.md">
     <use height="18" href="#flask" width="18"/>
    </a>
   </g>
  </g>
  <!-- 拒绝采样&#45;&gt;470 -->
  <g class="edge" id="edge2">
   <title>
    拒绝采样-&gt;470
   </title>
   <path d="M126.38,-287.7C121.14,-279.56 114.8,-269.69 109.02,-260.7" fill="none" stroke="lightgrey"/>
   <polygon fill="lightgrey" points="111.85,-258.62 103.5,-252.1 105.96,-262.41 111.85,-258.62" stroke="lightgrey"/>
  </g>
  <!-- 478 -->
  <g class="node" id="node4">
   <title>
    478
   </title>
   <g id="a_node4">
    <a target="_parent" xlink:href="https://leetcode-cn.com/problems/generate-random-point-in-a-circle" xlink:title="478. 在圆内随机生成点">
     <polygon fill="none" points="162.5,-180 22.5,-180 22.5,-144 162.5,-144 162.5,-180" stroke="orange"/>
     <text font-family="Microsoft YaHei" font-size="12.00" text-anchor="middle" x="92.5" y="-158.9">
      478. 在圆内随机生成点
     </text>
    </a>
   </g>
   <g transform="translate(154.5, -186.0) scale(0.3)">
    <circle cx="24" cy="24" fill="#4caf50" r="21"/>
    <polygon fill="#ccff90" points="34.6,14.6 21,28.2 15.4,22.6 12.6,25.4 21,33.8 37.4,17.4"/>
   </g>
   <g transform="translate(153.5, -153.0)">
    <symbol id="flask" viewBox="0 0 448 512">
     <path d="M437.2 403.5L320 215V64h8c13.3 0 24-10.7 24-24V24c0-13.3-10.7-24-24-24H120c-13.3 0-24 10.7-24 24v16c0 13.3 10.7 24 24 24h8v151L10.8 403.5C-18.5 450.6 15.3 512 70.9 512h306.2c55.7 0 89.4-61.5 60.1-108.5zM137.9 320l48.2-77.6c3.7-5.2 5.8-11.6 5.8-18.4V64h64v160c0 6.9 2.2 13.2 5.8 18.4l48.2 77.6h-172z" fill="#1389fd"/>
    </symbol>
    <a href="https://github.com/acm-clan/algorithm-stone/blob/main/user/leetcode/478.在圆内随机生成点.md">
     <use height="18" href="#flask" width="18"/>
    </a>
   </g>
  </g>
  <!-- 470&#45;&gt;478 -->
  <g class="edge" id="edge3">
   <title>
    470-&gt;478
   </title>
   <path d="M92.5,-215.7C92.5,-207.98 92.5,-198.71 92.5,-190.11" fill="none" stroke="lightgrey"/>
   <polygon fill="lightgrey" points="96,-190.1 92.5,-180.1 89,-190.1 96,-190.1" stroke="lightgrey"/>
  </g>
  <!-- 382 -->
  <g class="node" id="node6">
   <title>
    382
   </title>
   <g id="a_node6">
    <a target="_parent" xlink:href="https://leetcode-cn.com/problems/linked-list-random-node" xlink:title="382. 链表随机节点">
     <polygon fill="none" points="319.5,-252 203.5,-252 203.5,-216 319.5,-216 319.5,-252" stroke="orange"/>
     <text font-family="Microsoft YaHei" font-size="12.00" text-anchor="middle" x="261.5" y="-230.9">
      382. 链表随机节点
     </text>
    </a>
   </g>
   <g transform="translate(311.5, -258.0) scale(0.3)">
    <circle cx="24" cy="24" fill="#4caf50" r="21"/>
    <polygon fill="#ccff90" points="34.6,14.6 21,28.2 15.4,22.6 12.6,25.4 21,33.8 37.4,17.4"/>
   </g>
  </g>
  <!-- 蓄水池采样&#45;&gt;382 -->
  <g class="edge" id="edge5">
   <title>
    蓄水池采样-&gt;382
   </title>
   <path d="M270.53,-287.7C269.21,-279.98 267.62,-270.71 266.15,-262.11" fill="none" stroke="lightgrey"/>
   <polygon fill="lightgrey" points="269.57,-261.37 264.43,-252.1 262.67,-262.55 269.57,-261.37" stroke="lightgrey"/>
  </g>
  <!-- 398 -->
  <g class="node" id="node7">
   <title>
    398
   </title>
   <g id="a_node7">
    <a target="_parent" xlink:href="https://leetcode-cn.com/problems/random-pick-index" xlink:title="398. 随机数索引">
     <polygon fill="none" points="313.5,-180 209.5,-180 209.5,-144 313.5,-144 313.5,-180" stroke="orange"/>
     <text font-family="Microsoft YaHei" font-size="12.00" text-anchor="middle" x="261.5" y="-158.9">
      398. 随机数索引
     </text>
    </a>
   </g>
   <g transform="translate(305.5, -186.0) scale(0.3)">
    <circle cx="24" cy="24" fill="#4caf50" r="21"/>
    <polygon fill="#ccff90" points="34.6,14.6 21,28.2 15.4,22.6 12.6,25.4 21,33.8 37.4,17.4"/>
   </g>
  </g>
  <!-- 382&#45;&gt;398 -->
  <g class="edge" id="edge6">
   <title>
    382-&gt;398
   </title>
   <path d="M261.5,-215.7C261.5,-207.98 261.5,-198.71 261.5,-190.11" fill="none" stroke="lightgrey"/>
   <polygon fill="lightgrey" points="265,-190.1 261.5,-180.1 258,-190.1 265,-190.1" stroke="lightgrey"/>
  </g>
  <!-- 329 -->
  <g class="node" id="node9">
   <title>
    329
   </title>
   <g id="a_node9">
    <a target="_parent" xlink:href="https://leetcode-cn.com/problems/longest-increasing-path-in-a-matrix" xlink:title="329. 矩阵中的最长递增路径">
     <polygon fill="none" points="501.5,-252 337.5,-252 337.5,-216 501.5,-216 501.5,-252" stroke="red"/>
     <text font-family="Microsoft YaHei" font-size="12.00" text-anchor="middle" x="419.5" y="-230.9">
      329. 矩阵中的最长递增路径
     </text>
    </a>
   </g>
  </g>
  <!-- 记忆化搜索&#45;&gt;329 -->
  <g class="edge" id="edge8">
   <title>
    记忆化搜索-&gt;329
   </title>
   <path d="M409.71,-287.7C411.15,-279.98 412.87,-270.71 414.46,-262.11" fill="none" stroke="lightgrey"/>
   <polygon fill="lightgrey" points="417.94,-262.58 416.32,-252.1 411.06,-261.3 417.94,-262.58" stroke="lightgrey"/>
  </g>
  <!-- 1288 -->
  <g class="node" id="node11">
   <title>
    1288
   </title>
   <g id="a_node11">
    <a target="_parent" xlink:href="https://leetcode-cn.com/problems/remove-covered-intervals" xlink:title="1288. 删除被覆盖区间">
     <polygon fill="none" points="653.5,-252 519.5,-252 519.5,-216 653.5,-216 653.5,-252" stroke="orange"/>
     <text font-family="Microsoft YaHei" font-size="12.00" text-anchor="middle" x="586.5" y="-230.9">
      1288. 删除被覆盖区间
     </text>
    </a>
   </g>
   <g transform="translate(645.5, -258.0) scale(0.3)">
    <circle cx="24" cy="24" fill="#4caf50" r="21"/>
    <polygon fill="#ccff90" points="34.6,14.6 21,28.2 15.4,22.6 12.6,25.4 21,33.8 37.4,17.4"/>
   </g>
  </g>
  <!-- 扫描线&#45;&gt;1288 -->
  <g class="edge" id="edge10">
   <title>
    扫描线-&gt;1288
   </title>
   <path d="M559.4,-287.7C563.5,-279.73 568.45,-270.1 572.99,-261.26" fill="none" stroke="lightgrey"/>
   <polygon fill="lightgrey" points="576.24,-262.6 577.7,-252.1 570.02,-259.4 576.24,-262.6" stroke="lightgrey"/>
  </g>
  <!-- 218 -->
  <g class="node" id="node12">
   <title>
    218
   </title>
   <g id="a_node12">
    <a target="_parent" xlink:href="https://leetcode-cn.com/problems/the-skyline-problem" xlink:title="218. 天际线问题">
     <polygon fill="none" points="638.5,-180 534.5,-180 534.5,-144 638.5,-144 638.5,-180" stroke="red"/>
     <text font-family="Microsoft YaHei" font-size="12.00" text-anchor="middle" x="586.5" y="-158.9">
      218. 天际线问题
     </text>
    </a>
   </g>
  </g>
  <!-- 1288&#45;&gt;218 -->
  <g class="edge" id="edge11">
   <title>
    1288-&gt;218
   </title>
   <path d="M586.5,-215.7C586.5,-207.98 586.5,-198.71 586.5,-190.11" fill="none" stroke="lightgrey"/>
   <polygon fill="lightgrey" points="590,-190.1 586.5,-180.1 583,-190.1 590,-190.1" stroke="lightgrey"/>
  </g>
  <!-- 391 -->
  <g class="node" id="node13">
   <title>
    391
   </title>
   <g id="a_node13">
    <a target="_parent" xlink:href="https://leetcode-cn.com/problems/perfect-rectangle" xlink:title="391. 完美矩形">
     <polygon fill="none" points="632.5,-108 540.5,-108 540.5,-72 632.5,-72 632.5,-108" stroke="red"/>
     <text font-family="Microsoft YaHei" font-size="12.00" text-anchor="middle" x="586.5" y="-86.9">
      391. 完美矩形
     </text>
    </a>
   </g>
  </g>
  <!-- 218&#45;&gt;391 -->
  <g class="edge" id="edge12">
   <title>
    218-&gt;391
   </title>
   <path d="M586.5,-143.7C586.5,-135.98 586.5,-126.71 586.5,-118.11" fill="none" stroke="lightgrey"/>
   <polygon fill="lightgrey" points="590,-118.1 586.5,-108.1 583,-118.1 590,-118.1" stroke="lightgrey"/>
  </g>
  <!-- 850 -->
  <g class="node" id="node14">
   <title>
    850
   </title>
   <g id="a_node14">
    <a target="_parent" xlink:href="https://leetcode-cn.com/problems/rectangle-area-ii" xlink:title="850. 矩形面积 II">
     <polygon fill="none" points="638,-36 535,-36 535,0 638,0 638,-36" stroke="red"/>
     <text font-family="Microsoft YaHei" font-size="12.00" text-anchor="middle" x="586.5" y="-14.9">
      850. 矩形面积 II
     </text>
    </a>
   </g>
  </g>
  <!-- 391&#45;&gt;850 -->
  <g class="edge" id="edge13">
   <title>
    391-&gt;850
   </title>
   <path d="M586.5,-71.7C586.5,-63.98 586.5,-54.71 586.5,-46.11" fill="none" stroke="lightgrey"/>
   <polygon fill="lightgrey" points="590,-46.1 586.5,-36.1 583,-46.1 590,-46.1" stroke="lightgrey"/>
  </g>
  <g class="key">
   <defs>
    <filter height="1.2" id="solid" width="1.2" x="-0.1" y="-0.1">
     <feFlood flood-color="#ccff90" result="bg"/>
     <feMerge>
      <feMergeNode in="bg"/>
      <feMergeNode in="SourceGraphic"/>
     </feMerge>
    </filter>
   </defs>
   <text filter="url(#solid)" font-family="Microsoft YaHei" font-size="10.00" text-anchor="middle" x="92.5" y="-211.0">
    随机数重新分配
   </text>
  </g>
  <g class="key">
   <defs>
    <filter height="1.2" id="solid" width="1.2" x="-0.1" y="-0.1">
     <feFlood flood-color="#ccff90" result="bg"/>
     <feMerge>
      <feMergeNode in="bg"/>
      <feMergeNode in="SourceGraphic"/>
     </feMerge>
    </filter>
   </defs>
   <text filter="url(#solid)" font-family="Microsoft YaHei" font-size="10.00" text-anchor="middle" x="92.5" y="-139.0">
    随机圆内点
   </text>
  </g>
  <g class="key">
   <defs>
    <filter height="1.2" id="solid" width="1.2" x="-0.1" y="-0.1">
     <feFlood flood-color="#ccff90" result="bg"/>
     <feMerge>
      <feMergeNode in="bg"/>
      <feMergeNode in="SourceGraphic"/>
     </feMerge>
    </filter>
   </defs>
   <text filter="url(#solid)" font-family="Microsoft YaHei" font-size="10.00" text-anchor="middle" x="261.5" y="-211.0">
    蓄水池采样入门
   </text>
  </g>
  <g class="key">
   <defs>
    <filter height="1.2" id="solid" width="1.2" x="-0.1" y="-0.1">
     <feFlood flood-color="#ccff90" result="bg"/>
     <feMerge>
      <feMergeNode in="bg"/>
      <feMergeNode in="SourceGraphic"/>
     </feMerge>
    </filter>
   </defs>
   <text filter="url(#solid)" font-family="Microsoft YaHei" font-size="10.00" text-anchor="middle" x="261.5" y="-139.0">
    蓄水池采样扩展
   </text>
  </g>
  <g class="key">
   <defs>
    <filter height="1.2" id="solid" width="1.2" x="-0.1" y="-0.1">
     <feFlood flood-color="#ccff90" result="bg"/>
     <feMerge>
      <feMergeNode in="bg"/>
      <feMergeNode in="SourceGraphic"/>
     </feMerge>
    </filter>
   </defs>
   <text filter="url(#solid)" font-family="Microsoft YaHei" font-size="10.00" text-anchor="middle" x="419.5" y="-211.0">
    DFS与记忆化
   </text>
  </g>
 </g>
</svg>