<?xml version="1.0" encoding="utf-8"?>
<!DOCTYPE svg PUBLIC "-//W3C//DTD SVG 1.1//EN" "http://www.w3.org/Graphics/SVG/1.1/DTD/svg11.dtd">
<!-- Generated by graphviz version 2.46.1 (20210213.1702)
 -->
<!-- Title: stones Pages: 1 -->
<svg height="404pt" viewBox="0.00 0.00 482.00 404.00" width="482pt" xmlns="http://www.w3.org/2000/svg" xmlns:xlink="http://www.w3.org/1999/xlink">
 <g class="graph" id="graph0" transform="scale(1 1) rotate(0) translate(4 400)">
  <title>
   stones
  </title>
  <polygon fill="white" points="-4,4 -4,-400 478,-400 478,4 -4,4" stroke="transparent"/>
  <!-- Leetcode&#45;链表 -->
  <g class="node" id="node1">
   <title>
    Leetcode-链表
   </title>
   <g id="a_node1">
    <a target="_parent" xlink:href="https://leetcode-cn.com/tag/linked-list" xlink:title="Leetcode-链表(7)">
     <polygon fill="orangered" points="319.5,-396 188.5,-396 188.5,-360 319.5,-360 319.5,-396" stroke="lightgrey"/>
     <text fill="white" font-family="Microsoft YaHei" font-size="14.00" text-anchor="middle" x="254" y="-374.3">
      Leetcode-链表(7)
     </text>
    </a>
   </g>
  </g>
  <!-- 遍历链表 -->
  <g class="node" id="node2">
   <title>
    遍历链表
   </title>
   <polygon fill="lightslategray" points="126.5,-324 47.5,-324 47.5,-288 126.5,-288 126.5,-324" stroke="lightgrey"/>
   <text fill="white" font-family="Microsoft YaHei" font-size="12.00" text-anchor="middle" x="87" y="-302.9">
    遍历链表(1)
   </text>
  </g>
  <!-- Leetcode&#45;链表&#45;&gt;遍历链表 -->
  <g class="edge" id="edge1">
   <title>
    Leetcode-链表-&gt;遍历链表
   </title>
   <path d="M213.15,-359.88C189.87,-350.12 160.56,-337.83 136.05,-327.56" fill="none" stroke="lightgrey"/>
   <polygon fill="lightgrey" points="137.14,-324.22 126.57,-323.59 134.44,-330.68 137.14,-324.22" stroke="lightgrey"/>
  </g>
  <!-- 构建新链表 -->
  <g class="node" id="node4">
   <title>
    构建新链表
   </title>
   <polygon fill="lightslategray" points="248.5,-324 157.5,-324 157.5,-288 248.5,-288 248.5,-324" stroke="lightgrey"/>
   <text fill="white" font-family="Microsoft YaHei" font-size="12.00" text-anchor="middle" x="203" y="-302.9">
    构建新链表(2)
   </text>
  </g>
  <!-- Leetcode&#45;链表&#45;&gt;构建新链表 -->
  <g class="edge" id="edge3">
   <title>
    Leetcode-链表-&gt;构建新链表
   </title>
   <path d="M241.39,-359.7C235.4,-351.47 228.12,-341.48 221.52,-332.42" fill="none" stroke="lightgrey"/>
   <polygon fill="lightgrey" points="224.18,-330.13 215.46,-324.1 218.52,-334.25 224.18,-330.13" stroke="lightgrey"/>
  </g>
  <!-- 删除链表 -->
  <g class="node" id="node7">
   <title>
    删除链表
   </title>
   <polygon fill="lightslategray" points="345.5,-324 266.5,-324 266.5,-288 345.5,-288 345.5,-324" stroke="lightgrey"/>
   <text fill="white" font-family="Microsoft YaHei" font-size="12.00" text-anchor="middle" x="306" y="-302.9">
    删除链表(4)
   </text>
  </g>
  <!-- Leetcode&#45;链表&#45;&gt;删除链表 -->
  <g class="edge" id="edge6">
   <title>
    Leetcode-链表-&gt;删除链表
   </title>
   <path d="M266.85,-359.7C273.03,-351.39 280.54,-341.28 287.32,-332.14" fill="none" stroke="lightgrey"/>
   <polygon fill="lightgrey" points="290.14,-334.22 293.29,-324.1 284.52,-330.04 290.14,-334.22" stroke="lightgrey"/>
  </g>
  <!-- 合并链表 -->
  <g class="node" id="node12">
   <title>
    合并链表
   </title>
   <polygon fill="lightslategray" points="442.5,-324 363.5,-324 363.5,-288 442.5,-288 442.5,-324" stroke="lightgrey"/>
   <text fill="white" font-family="Microsoft YaHei" font-size="12.00" text-anchor="middle" x="403" y="-302.9">
    合并链表(0)
   </text>
  </g>
  <!-- Leetcode&#45;链表&#45;&gt;合并链表 -->
  <g class="edge" id="edge11">
   <title>
    Leetcode-链表-&gt;合并链表
   </title>
   <path d="M290.45,-359.88C310.64,-350.39 335.92,-338.51 357.41,-328.42" fill="none" stroke="lightgrey"/>
   <polygon fill="lightgrey" points="359.11,-331.49 366.67,-324.07 356.13,-325.15 359.11,-331.49" stroke="lightgrey"/>
  </g>
  <!-- 1290 -->
  <g class="node" id="node3">
   <title>
    1290
   </title>
   <g id="a_node3">
    <a target="_parent" xlink:href="https://leetcode-cn.com/problems/convert-binary-number-in-a-linked-list-to-integer" xlink:title="1290. 二进制链表转整数">
     <polygon fill="none" points="146,-252 0,-252 0,-216 146,-216 146,-252" stroke="greenyellow"/>
     <text font-family="Microsoft YaHei" font-size="12.00" text-anchor="middle" x="73" y="-230.9">
      1290. 二进制链表转整数
     </text>
    </a>
   </g>
   <g transform="translate(138.0, -258.0) scale(0.3)">
    <circle cx="24" cy="24" fill="#4caf50" r="21"/>
    <polygon fill="#ccff90" points="34.6,14.6 21,28.2 15.4,22.6 12.6,25.4 21,33.8 37.4,17.4"/>
   </g>
  </g>
  <!-- 遍历链表&#45;&gt;1290 -->
  <g class="edge" id="edge2">
   <title>
    遍历链表-&gt;1290
   </title>
   <path d="M83.54,-287.7C82,-279.98 80.14,-270.71 78.42,-262.11" fill="none" stroke="lightgrey"/>
   <polygon fill="lightgrey" points="81.81,-261.22 76.42,-252.1 74.95,-262.6 81.81,-261.22" stroke="lightgrey"/>
  </g>
  <!-- 2 -->
  <g class="node" id="node5">
   <title>
    2
   </title>
   <g id="a_node5">
    <a target="_parent" xlink:href="https://leetcode-cn.com/problems/add-two-numbers" xlink:title="2. 两数相加">
     <polygon fill="none" points="242,-252 164,-252 164,-216 242,-216 242,-252" stroke="orange"/>
     <text font-family="Microsoft YaHei" font-size="12.00" text-anchor="middle" x="203" y="-230.9">
      2. 两数相加
     </text>
    </a>
   </g>
  </g>
  <!-- 构建新链表&#45;&gt;2 -->
  <g class="edge" id="edge4">
   <title>
    构建新链表-&gt;2
   </title>
   <path d="M203,-287.7C203,-279.98 203,-270.71 203,-262.11" fill="none" stroke="lightgrey"/>
   <polygon fill="lightgrey" points="206.5,-262.1 203,-252.1 199.5,-262.1 206.5,-262.1" stroke="lightgrey"/>
  </g>
  <!-- 138 -->
  <g class="node" id="node6">
   <title>
    138
   </title>
   <g id="a_node6">
    <a target="_parent" xlink:href="https://leetcode-cn.com/problems/copy-list-with-random-pointer" xlink:title="138. 复制带随机指针的链表">
     <polygon fill="none" points="269,-180 105,-180 105,-144 269,-144 269,-180" stroke="orange"/>
     <text font-family="Microsoft YaHei" font-size="12.00" text-anchor="middle" x="187" y="-158.9">
      138. 复制带随机指针的链表
     </text>
    </a>
   </g>
  </g>
  <!-- 2&#45;&gt;138 -->
  <g class="edge" id="edge5">
   <title>
    2-&gt;138
   </title>
   <path d="M199.04,-215.7C197.28,-207.98 195.16,-198.71 193.2,-190.11" fill="none" stroke="lightgrey"/>
   <polygon fill="lightgrey" points="196.55,-189.07 190.91,-180.1 189.73,-190.63 196.55,-189.07" stroke="lightgrey"/>
  </g>
  <!-- 237 -->
  <g class="node" id="node8">
   <title>
    237
   </title>
   <g id="a_node8">
    <a target="_parent" xlink:href="https://leetcode-cn.com/problems/delete-node-in-a-linked-list" xlink:title="237. 删除链表中的节点">
     <polygon fill="none" points="432,-252 292,-252 292,-216 432,-216 432,-252" stroke="greenyellow"/>
     <text font-family="Microsoft YaHei" font-size="12.00" text-anchor="middle" x="362" y="-230.9">
      237. 删除链表中的节点
     </text>
    </a>
   </g>
  </g>
  <!-- 删除链表&#45;&gt;237 -->
  <g class="edge" id="edge7">
   <title>
    删除链表-&gt;237
   </title>
   <path d="M319.84,-287.7C326.49,-279.39 334.58,-269.28 341.89,-260.14" fill="none" stroke="lightgrey"/>
   <polygon fill="lightgrey" points="344.8,-262.1 348.32,-252.1 339.34,-257.73 344.8,-262.1" stroke="lightgrey"/>
  </g>
  <!-- 83 -->
  <g class="node" id="node9">
   <title>
    83
   </title>
   <g id="a_node9">
    <a target="_parent" xlink:href="https://leetcode-cn.com/problems/remove-duplicates-from-sorted-list" xlink:title="83. 删除排序链表中的重复元素">
     <polygon fill="none" points="468.5,-180 287.5,-180 287.5,-144 468.5,-144 468.5,-180" stroke="greenyellow"/>
     <text font-family="Microsoft YaHei" font-size="12.00" text-anchor="middle" x="378" y="-158.9">
      83. 删除排序链表中的重复元素
     </text>
    </a>
   </g>
   <g transform="translate(460.5, -186.0) scale(0.3)">
    <circle cx="24" cy="24" fill="#4caf50" r="21"/>
    <polygon fill="#ccff90" points="34.6,14.6 21,28.2 15.4,22.6 12.6,25.4 21,33.8 37.4,17.4"/>
   </g>
  </g>
  <!-- 237&#45;&gt;83 -->
  <g class="edge" id="edge8">
   <title>
    237-&gt;83
   </title>
   <path d="M365.96,-215.7C367.72,-207.98 369.84,-198.71 371.8,-190.11" fill="none" stroke="lightgrey"/>
   <polygon fill="lightgrey" points="375.27,-190.63 374.09,-180.1 368.45,-189.07 375.27,-190.63" stroke="lightgrey"/>
  </g>
  <!-- 82 -->
  <g class="node" id="node10">
   <title>
    82
   </title>
   <g id="a_node10">
    <a target="_parent" xlink:href="https://leetcode-cn.com/problems/remove-duplicates-from-sorted-list-ii" xlink:title="82. 删除排序链表中的重复元素 II">
     <polygon fill="none" points="474,-108 282,-108 282,-72 474,-72 474,-108" stroke="orange"/>
     <text font-family="Microsoft YaHei" font-size="12.00" text-anchor="middle" x="378" y="-86.9">
      82. 删除排序链表中的重复元素 II
     </text>
    </a>
   </g>
   <g transform="translate(466.0, -114.0) scale(0.3)">
    <circle cx="24" cy="24" fill="#4caf50" r="21"/>
    <polygon fill="#ccff90" points="34.6,14.6 21,28.2 15.4,22.6 12.6,25.4 21,33.8 37.4,17.4"/>
   </g>
  </g>
  <!-- 83&#45;&gt;82 -->
  <g class="edge" id="edge9">
   <title>
    83-&gt;82
   </title>
   <path d="M378,-143.7C378,-135.98 378,-126.71 378,-118.11" fill="none" stroke="lightgrey"/>
   <polygon fill="lightgrey" points="381.5,-118.1 378,-108.1 374.5,-118.1 381.5,-118.1" stroke="lightgrey"/>
  </g>
  <!-- 19 -->
  <g class="node" id="node11">
   <title>
    19
   </title>
   <g id="a_node11">
    <a target="_parent" xlink:href="https://leetcode-cn.com/problems/remove-nth-node-from-end-of-list" xlink:title="19. 删除链表的倒数第 N 个结点">
     <polygon fill="none" points="471,-36 285,-36 285,0 471,0 471,-36" stroke="orange"/>
     <text font-family="Microsoft YaHei" font-size="12.00" text-anchor="middle" x="378" y="-14.9">
      19. 删除链表的倒数第 N 个结点
     </text>
    </a>
   </g>
   <g transform="translate(463.0, -42.0) scale(0.3)">
    <circle cx="24" cy="24" fill="#4caf50" r="21"/>
    <polygon fill="#ccff90" points="34.6,14.6 21,28.2 15.4,22.6 12.6,25.4 21,33.8 37.4,17.4"/>
   </g>
  </g>
  <!-- 82&#45;&gt;19 -->
  <g class="edge" id="edge10">
   <title>
    82-&gt;19
   </title>
   <path d="M378,-71.7C378,-63.98 378,-54.71 378,-46.11" fill="none" stroke="lightgrey"/>
   <polygon fill="lightgrey" points="381.5,-46.1 378,-36.1 374.5,-46.1 381.5,-46.1" stroke="lightgrey"/>
  </g>
  <g class="key">
   <defs>
    <filter height="1.2" id="solid" width="1.2" x="-0.1" y="-0.1">
     <feFlood flood-color="#ccff90" result="bg"/>
     <feMerge>
      <feMergeNode in="bg"/>
      <feMergeNode in="SourceGraphic"/>
     </feMerge>
    </filter>
   </defs>
   <text filter="url(#solid)" font-family="Microsoft YaHei" font-size="10.00" text-anchor="middle" x="362.0" y="-211.0">
    简单删除
   </text>
  </g>
 </g>
</svg>