<?xml version="1.0" encoding="utf-8"?>
<!DOCTYPE svg PUBLIC "-//W3C//DTD SVG 1.1//EN" "http://www.w3.org/Graphics/SVG/1.1/DTD/svg11.dtd">
<!-- Generated by graphviz version 2.46.1 (20210213.1702)
 -->
<!-- Title: stones Pages: 1 -->
<svg height="958pt" viewBox="0.00 0.00 455.5 958.0" width="456pt" xmlns="http://www.w3.org/2000/svg" xmlns:xlink="http://www.w3.org/1999/xlink">
 <g class="graph" id="graph0" transform="scale(1 1) rotate(0) translate(4 904)">
  <title>
   stones
  </title>
  <polygon fill="white" points="-4,4 -4,-904 401.5,-904 401.5,4 -4,4" stroke="transparent"/>
  <!-- Leetcode&#45;堆栈队列 -->
  <g class="node" id="node1">
   <title>
    Leetcode-堆栈队列
   </title>
   <g id="a_node1">
    <a target="_parent" xlink:href="https://leetcode-cn.com/tag/" xlink:title="Leetcode-堆栈队列(19)">
     <polygon fill="orangered" points="279,-900 111,-900 111,-864 279,-864 279,-900" stroke="lightgrey"/>
     <text fill="white" font-family="Microsoft YaHei" font-size="14.00" text-anchor="middle" x="195" y="-878.3">
      Leetcode-堆栈队列(19)
     </text>
    </a>
   </g>
  </g>
  <!-- 堆 -->
  <g class="node" id="node2">
   <title>
    堆
   </title>
   <polygon fill="lightslategray" points="186,-828 132,-828 132,-792 186,-792 186,-828" stroke="lightgrey"/>
   <text fill="white" font-family="Microsoft YaHei" font-size="12.00" text-anchor="middle" x="159" y="-806.9">
    堆(11)
   </text>
  </g>
  <!-- Leetcode&#45;堆栈队列&#45;&gt;堆 -->
  <g class="edge" id="edge1">
   <title>
    Leetcode-堆栈队列-&gt;堆
   </title>
   <path d="M186.1,-863.7C182,-855.73 177.05,-846.1 172.51,-837.26" fill="none" stroke="lightgrey"/>
   <polygon fill="lightgrey" points="175.48,-835.4 167.8,-828.1 169.26,-838.6 175.48,-835.4" stroke="lightgrey"/>
  </g>
  <!-- 队列 -->
  <g class="node" id="node14">
   <title>
    队列
   </title>
   <polygon fill="lightslategray" points="281.5,-828 226.5,-828 226.5,-792 281.5,-792 281.5,-828" stroke="lightgrey"/>
   <text fill="white" font-family="Microsoft YaHei" font-size="12.00" text-anchor="middle" x="254" y="-806.9">
    队列(8)
   </text>
  </g>
  <!-- Leetcode&#45;堆栈队列&#45;&gt;队列 -->
  <g class="edge" id="edge13">
   <title>
    Leetcode-堆栈队列-&gt;队列
   </title>
   <path d="M209.58,-863.7C216.66,-855.3 225.28,-845.07 233.05,-835.86" fill="none" stroke="lightgrey"/>
   <polygon fill="lightgrey" points="235.81,-838.01 239.58,-828.1 230.46,-833.49 235.81,-838.01" stroke="lightgrey"/>
  </g>
  <!-- 1046 -->
  <g class="node" id="node3">
   <title>
    1046
   </title>
   <g id="a_node3">
    <a target="_parent" xlink:href="https://leetcode-cn.com/problems/last-stone-weight" xlink:title="1046. 最后一块石头的重量">
     <polygon fill="none" points="194,-756 36,-756 36,-720 194,-720 194,-756" stroke="greenyellow"/>
     <text font-family="Microsoft YaHei" font-size="12.00" text-anchor="middle" x="115" y="-734.9">
      1046. 最后一块石头的重量
     </text>
    </a>
   </g>
   <g transform="translate(186.0, -762.0) scale(0.3)">
    <circle cx="24" cy="24" fill="#4caf50" r="21"/>
    <polygon fill="#ccff90" points="34.6,14.6 21,28.2 15.4,22.6 12.6,25.4 21,33.8 37.4,17.4"/>
   </g>
  </g>
  <!-- 堆&#45;&gt;1046 -->
  <g class="edge" id="edge2">
   <title>
    堆-&gt;1046
   </title>
   <path d="M148.12,-791.7C143.01,-783.56 136.8,-773.69 131.16,-764.7" fill="none" stroke="lightgrey"/>
   <polygon fill="lightgrey" points="134.04,-762.71 125.75,-756.1 128.11,-766.43 134.04,-762.71" stroke="lightgrey"/>
  </g>
  <!-- 215 -->
  <g class="node" id="node4">
   <title>
    215
   </title>
   <g id="a_node4">
    <a target="_parent" xlink:href="https://leetcode-cn.com/problems/kth-largest-element-in-an-array" xlink:title="215. 数组中的第K个最大元素">
     <polygon fill="none" points="200.5,-684 29.5,-684 29.5,-648 200.5,-648 200.5,-684" stroke="orange"/>
     <text font-family="Microsoft YaHei" font-size="12.00" text-anchor="middle" x="115" y="-662.9">
      215. 数组中的第K个最大元素
     </text>
    </a>
   </g>
   <g transform="translate(192.5, -690.0) scale(0.3)">
    <circle cx="24" cy="24" fill="#4caf50" r="21"/>
    <polygon fill="#ccff90" points="34.6,14.6 21,28.2 15.4,22.6 12.6,25.4 21,33.8 37.4,17.4"/>
   </g>
  </g>
  <!-- 1046&#45;&gt;215 -->
  <g class="edge" id="edge3">
   <title>
    1046-&gt;215
   </title>
   <path d="M115,-719.7C115,-711.98 115,-702.71 115,-694.11" fill="none" stroke="lightgrey"/>
   <polygon fill="lightgrey" points="118.5,-694.1 115,-684.1 111.5,-694.1 118.5,-694.1" stroke="lightgrey"/>
  </g>
  <!-- 703 -->
  <g class="node" id="node5">
   <title>
    703
   </title>
   <g id="a_node5">
    <a target="_parent" xlink:href="https://leetcode-cn.com/problems/kth-largest-element-in-a-stream" xlink:title="703. 数据流中的第 K 大元素">
     <polygon fill="none" points="193.5,-612 26.5,-612 26.5,-576 193.5,-576 193.5,-612" stroke="greenyellow"/>
     <text font-family="Microsoft YaHei" font-size="12.00" text-anchor="middle" x="110" y="-590.9">
      703. 数据流中的第 K 大元素
     </text>
    </a>
   </g>
   <g transform="translate(185.5, -618.0) scale(0.3)">
    <circle cx="24" cy="24" fill="#4caf50" r="21"/>
    <polygon fill="#ccff90" points="34.6,14.6 21,28.2 15.4,22.6 12.6,25.4 21,33.8 37.4,17.4"/>
   </g>
  </g>
  <!-- 215&#45;&gt;703 -->
  <g class="edge" id="edge4">
   <title>
    215-&gt;703
   </title>
   <path d="M113.76,-647.7C113.21,-639.98 112.55,-630.71 111.94,-622.11" fill="none" stroke="lightgrey"/>
   <polygon fill="lightgrey" points="115.43,-621.83 111.22,-612.1 108.44,-622.33 115.43,-621.83" stroke="lightgrey"/>
  </g>
  <!-- 355 -->
  <g class="node" id="node6">
   <title>
    355
   </title>
   <g id="a_node6">
    <a target="_parent" xlink:href="https://leetcode-cn.com/problems/design-twitter" xlink:title="355. 设计推特">
     <polygon fill="none" points="154,-540 62,-540 62,-504 154,-504 154,-540" stroke="orange"/>
     <text font-family="Microsoft YaHei" font-size="12.00" text-anchor="middle" x="108" y="-518.9">
      355. 设计推特
     </text>
    </a>
   </g>
   <g transform="translate(146.0, -546.0) scale(0.3)">
    <circle cx="24" cy="24" fill="#4caf50" r="21"/>
    <polygon fill="#ccff90" points="34.6,14.6 21,28.2 15.4,22.6 12.6,25.4 21,33.8 37.4,17.4"/>
   </g>
  </g>
  <!-- 703&#45;&gt;355 -->
  <g class="edge" id="edge5">
   <title>
    703-&gt;355
   </title>
   <path d="M109.51,-575.7C109.29,-567.98 109.02,-558.71 108.77,-550.11" fill="none" stroke="lightgrey"/>
   <polygon fill="lightgrey" points="112.27,-550 108.49,-540.1 105.28,-550.2 112.27,-550" stroke="lightgrey"/>
  </g>
  <!-- 451 -->
  <g class="node" id="node7">
   <title>
    451
   </title>
   <g id="a_node7">
    <a target="_parent" xlink:href="https://leetcode-cn.com/problems/sort-characters-by-frequency" xlink:title="451. 根据字符出现频率排序">
     <polygon fill="none" points="186,-468 22,-468 22,-432 186,-432 186,-468" stroke="orange"/>
     <text font-family="Microsoft YaHei" font-size="12.00" text-anchor="middle" x="104" y="-446.9">
      451. 根据字符出现频率排序
     </text>
    </a>
   </g>
   <g transform="translate(178.0, -474.0) scale(0.3)">
    <circle cx="24" cy="24" fill="#4caf50" r="21"/>
    <polygon fill="#ccff90" points="34.6,14.6 21,28.2 15.4,22.6 12.6,25.4 21,33.8 37.4,17.4"/>
   </g>
  </g>
  <!-- 355&#45;&gt;451 -->
  <g class="edge" id="edge6">
   <title>
    355-&gt;451
   </title>
   <path d="M107.01,-503.7C106.57,-495.98 106.04,-486.71 105.55,-478.11" fill="none" stroke="lightgrey"/>
   <polygon fill="lightgrey" points="109.04,-477.89 104.98,-468.1 102.05,-478.29 109.04,-477.89" stroke="lightgrey"/>
  </g>
  <!-- 373 -->
  <g class="node" id="node8">
   <title>
    373
   </title>
   <g id="a_node8">
    <a target="_parent" xlink:href="https://leetcode-cn.com/problems/find-k-pairs-with-smallest-sums" xlink:title="373. 查找和最小的K对数字">
     <polygon fill="none" points="175.5,-396 16.5,-396 16.5,-360 175.5,-360 175.5,-396" stroke="orange"/>
     <text font-family="Microsoft YaHei" font-size="12.00" text-anchor="middle" x="96" y="-374.9">
      373. 查找和最小的K对数字
     </text>
    </a>
   </g>
   <g transform="translate(167.5, -402.0) scale(0.3)">
    <circle cx="24" cy="24" fill="#4caf50" r="21"/>
    <polygon fill="#ccff90" points="34.6,14.6 21,28.2 15.4,22.6 12.6,25.4 21,33.8 37.4,17.4"/>
   </g>
  </g>
  <!-- 451&#45;&gt;373 -->
  <g class="edge" id="edge7">
   <title>
    451-&gt;373
   </title>
   <path d="M102.02,-431.7C101.14,-423.98 100.08,-414.71 99.1,-406.11" fill="none" stroke="lightgrey"/>
   <polygon fill="lightgrey" points="102.57,-405.64 97.95,-396.1 95.61,-406.44 102.57,-405.64" stroke="lightgrey"/>
  </g>
  <!-- 692 -->
  <g class="node" id="node9">
   <title>
    692
   </title>
   <g id="a_node9">
    <a target="_parent" xlink:href="https://leetcode-cn.com/problems/top-k-frequent-words" xlink:title="692. 前K个高频单词">
     <polygon fill="none" points="152.5,-324 29.5,-324 29.5,-288 152.5,-288 152.5,-324" stroke="orange"/>
     <text font-family="Microsoft YaHei" font-size="12.00" text-anchor="middle" x="91" y="-302.9">
      692. 前K个高频单词
     </text>
    </a>
   </g>
   <g transform="translate(144.5, -330.0) scale(0.3)">
    <circle cx="24" cy="24" fill="#4caf50" r="21"/>
    <polygon fill="#ccff90" points="34.6,14.6 21,28.2 15.4,22.6 12.6,25.4 21,33.8 37.4,17.4"/>
   </g>
  </g>
  <!-- 373&#45;&gt;692 -->
  <g class="edge" id="edge8">
   <title>
    373-&gt;692
   </title>
   <path d="M94.76,-359.7C94.21,-351.98 93.55,-342.71 92.94,-334.11" fill="none" stroke="lightgrey"/>
   <polygon fill="lightgrey" points="96.43,-333.83 92.22,-324.1 89.44,-334.33 96.43,-333.83" stroke="lightgrey"/>
  </g>
  <!-- 659 -->
  <g class="node" id="node10">
   <title>
    659
   </title>
   <g id="a_node10">
    <a target="_parent" xlink:href="https://leetcode-cn.com/problems/split-array-into-consecutive-subsequences" xlink:title="659. 分割数组为连续子序列">
     <polygon fill="none" points="164,-252 0,-252 0,-216 164,-216 164,-252" stroke="orange"/>
     <text font-family="Microsoft YaHei" font-size="12.00" text-anchor="middle" x="82" y="-230.9">
      659. 分割数组为连续子序列
     </text>
    </a>
   </g>
   <g transform="translate(156.0, -258.0) scale(0.3)">
    <circle cx="24" cy="24" fill="#4caf50" r="21"/>
    <polygon fill="#ccff90" points="34.6,14.6 21,28.2 15.4,22.6 12.6,25.4 21,33.8 37.4,17.4"/>
   </g>
  </g>
  <!-- 692&#45;&gt;659 -->
  <g class="edge" id="edge9">
   <title>
    692-&gt;659
   </title>
   <path d="M88.78,-287.7C87.78,-279.98 86.59,-270.71 85.49,-262.11" fill="none" stroke="lightgrey"/>
   <polygon fill="lightgrey" points="88.95,-261.58 84.2,-252.1 82,-262.47 88.95,-261.58" stroke="lightgrey"/>
  </g>
  <!-- 347 -->
  <g class="node" id="node11">
   <title>
    347
   </title>
   <g id="a_node11">
    <a target="_parent" xlink:href="https://leetcode-cn.com/problems/top-k-frequent-elements" xlink:title="347. 前 K 个高频元素">
     <polygon fill="none" points="147.5,-180 16.5,-180 16.5,-144 147.5,-144 147.5,-180" stroke="orange"/>
     <text font-family="Microsoft YaHei" font-size="12.00" text-anchor="middle" x="82" y="-158.9">
      347. 前 K 个高频元素
     </text>
    </a>
   </g>
   <g transform="translate(139.5, -186.0) scale(0.3)">
    <circle cx="24" cy="24" fill="#4caf50" r="21"/>
    <polygon fill="#ccff90" points="34.6,14.6 21,28.2 15.4,22.6 12.6,25.4 21,33.8 37.4,17.4"/>
   </g>
  </g>
  <!-- 659&#45;&gt;347 -->
  <g class="edge" id="edge10">
   <title>
    659-&gt;347
   </title>
   <path d="M82,-215.7C82,-207.98 82,-198.71 82,-190.11" fill="none" stroke="lightgrey"/>
   <polygon fill="lightgrey" points="85.5,-190.1 82,-180.1 78.5,-190.1 85.5,-190.1" stroke="lightgrey"/>
  </g>
  <!-- 313 -->
  <g class="node" id="node12">
   <title>
    313
   </title>
   <g id="a_node12">
    <a target="_parent" xlink:href="https://leetcode-cn.com/problems/super-ugly-number" xlink:title="313. 超级丑数">
     <polygon fill="none" points="128,-108 36,-108 36,-72 128,-72 128,-108" stroke="orange"/>
     <text font-family="Microsoft YaHei" font-size="12.00" text-anchor="middle" x="82" y="-86.9">
      313. 超级丑数
     </text>
    </a>
   </g>
   <g transform="translate(120.0, -114.0) scale(0.3)">
    <circle cx="24" cy="24" fill="#4caf50" r="21"/>
    <polygon fill="#ccff90" points="34.6,14.6 21,28.2 15.4,22.6 12.6,25.4 21,33.8 37.4,17.4"/>
   </g>
   <g transform="translate(119.0, -81.0)">
    <symbol id="flask" viewBox="0 0 448 512">
     <path d="M437.2 403.5L320 215V64h8c13.3 0 24-10.7 24-24V24c0-13.3-10.7-24-24-24H120c-13.3 0-24 10.7-24 24v16c0 13.3 10.7 24 24 24h8v151L10.8 403.5C-18.5 450.6 15.3 512 70.9 512h306.2c55.7 0 89.4-61.5 60.1-108.5zM137.9 320l48.2-77.6c3.7-5.2 5.8-11.6 5.8-18.4V64h64v160c0 6.9 2.2 13.2 5.8 18.4l48.2 77.6h-172z" fill="#1389fd"/>
    </symbol>
    <a href="https://github.com/acm-clan/algorithm-stone/blob/main/user/leetcode/313.超级丑数.md">
     <use height="18" href="#flask" width="18"/>
    </a>
   </g>
  </g>
  <!-- 347&#45;&gt;313 -->
  <g class="edge" id="edge11">
   <title>
    347-&gt;313
   </title>
   <path d="M82,-143.7C82,-135.98 82,-126.71 82,-118.11" fill="none" stroke="lightgrey"/>
   <polygon fill="lightgrey" points="85.5,-118.1 82,-108.1 78.5,-118.1 85.5,-118.1" stroke="lightgrey"/>
  </g>
  <!-- 767 -->
  <g class="node" id="node13">
   <title>
    767
   </title>
   <g id="a_node13">
    <a target="_parent" xlink:href="https://leetcode-cn.com/problems/reorganize-string" xlink:title="767. 重构字符串">
     <polygon fill="none" points="134,-36 30,-36 30,0 134,0 134,-36" stroke="orange"/>
     <text font-family="Microsoft YaHei" font-size="12.00" text-anchor="middle" x="82" y="-14.9">
      767. 重构字符串
     </text>
    </a>
   </g>
   <g transform="translate(126.0, -42.0) scale(0.3)">
    <circle cx="24" cy="24" fill="#4caf50" r="21"/>
    <polygon fill="#ccff90" points="34.6,14.6 21,28.2 15.4,22.6 12.6,25.4 21,33.8 37.4,17.4"/>
   </g>
  </g>
  <!-- 313&#45;&gt;767 -->
  <g class="edge" id="edge12">
   <title>
    313-&gt;767
   </title>
   <path d="M82,-71.7C82,-63.98 82,-54.71 82,-46.11" fill="none" stroke="lightgrey"/>
   <polygon fill="lightgrey" points="85.5,-46.1 82,-36.1 78.5,-46.1 85.5,-46.1" stroke="lightgrey"/>
  </g>
  <!-- 933 -->
  <g class="node" id="node15">
   <title>
    933
   </title>
   <g id="a_node15">
    <a target="_parent" xlink:href="https://leetcode-cn.com/problems/number-of-recent-calls" xlink:title="933. 最近的请求次数">
     <polygon fill="none" points="340,-756 212,-756 212,-720 340,-720 340,-756" stroke="greenyellow"/>
     <text font-family="Microsoft YaHei" font-size="12.00" text-anchor="middle" x="276" y="-734.9">
      933. 最近的请求次数
     </text>
    </a>
   </g>
   <g transform="translate(332.0, -762.0) scale(0.3)">
    <circle cx="24" cy="24" fill="#4caf50" r="21"/>
    <polygon fill="#ccff90" points="34.6,14.6 21,28.2 15.4,22.6 12.6,25.4 21,33.8 37.4,17.4"/>
   </g>
  </g>
  <!-- 队列&#45;&gt;933 -->
  <g class="edge" id="edge14">
   <title>
    队列-&gt;933
   </title>
   <path d="M259.44,-791.7C261.89,-783.9 264.84,-774.51 267.57,-765.83" fill="none" stroke="lightgrey"/>
   <polygon fill="lightgrey" points="270.96,-766.69 270.62,-756.1 264.29,-764.59 270.96,-766.69" stroke="lightgrey"/>
  </g>
  <!-- 622 -->
  <g class="node" id="node16">
   <title>
    622
   </title>
   <g id="a_node16">
    <a target="_parent" xlink:href="https://leetcode-cn.com/problems/design-circular-queue" xlink:title="622. 设计循环队列">
     <polygon fill="none" points="337,-684 221,-684 221,-648 337,-648 337,-684" stroke="orange"/>
     <text font-family="Microsoft YaHei" font-size="12.00" text-anchor="middle" x="279" y="-662.9">
      622. 设计循环队列
     </text>
    </a>
   </g>
   <g transform="translate(329.0, -690.0) scale(0.3)">
    <circle cx="24" cy="24" fill="#4caf50" r="21"/>
    <polygon fill="#ccff90" points="34.6,14.6 21,28.2 15.4,22.6 12.6,25.4 21,33.8 37.4,17.4"/>
   </g>
  </g>
  <!-- 933&#45;&gt;622 -->
  <g class="edge" id="edge15">
   <title>
    933-&gt;622
   </title>
   <path d="M276.74,-719.7C277.07,-711.98 277.47,-702.71 277.84,-694.11" fill="none" stroke="lightgrey"/>
   <polygon fill="lightgrey" points="281.34,-694.25 278.27,-684.1 274.34,-693.95 281.34,-694.25" stroke="lightgrey"/>
  </g>
  <!-- 641 -->
  <g class="node" id="node17">
   <title>
    641
   </title>
   <g id="a_node17">
    <a target="_parent" xlink:href="https://leetcode-cn.com/problems/design-circular-deque" xlink:title="641. 设计循环双端队列">
     <polygon fill="none" points="353,-612 213,-612 213,-576 353,-576 353,-612" stroke="orange"/>
     <text font-family="Microsoft YaHei" font-size="12.00" text-anchor="middle" x="283" y="-590.9">
      641. 设计循环双端队列
     </text>
    </a>
   </g>
   <g transform="translate(345.0, -618.0) scale(0.3)">
    <circle cx="24" cy="24" fill="#4caf50" r="21"/>
    <polygon fill="#ccff90" points="34.6,14.6 21,28.2 15.4,22.6 12.6,25.4 21,33.8 37.4,17.4"/>
   </g>
  </g>
  <!-- 622&#45;&gt;641 -->
  <g class="edge" id="edge16">
   <title>
    622-&gt;641
   </title>
   <path d="M279.99,-647.7C280.43,-639.98 280.96,-630.71 281.45,-622.11" fill="none" stroke="lightgrey"/>
   <polygon fill="lightgrey" points="284.95,-622.29 282.02,-612.1 277.96,-621.89 284.95,-622.29" stroke="lightgrey"/>
  </g>
  <!-- 199 -->
  <g class="node" id="node18">
   <title>
    199
   </title>
   <g id="a_node18">
    <a target="_parent" xlink:href="https://leetcode-cn.com/problems/binary-tree-right-side-view" xlink:title="199. 二叉树的右视图">
     <polygon fill="none" points="348,-540 220,-540 220,-504 348,-504 348,-540" stroke="orange"/>
     <text font-family="Microsoft YaHei" font-size="12.00" text-anchor="middle" x="284" y="-518.9">
      199. 二叉树的右视图
     </text>
    </a>
   </g>
   <g transform="translate(340.0, -546.0) scale(0.3)">
    <circle cx="24" cy="24" fill="#4caf50" r="21"/>
    <polygon fill="#ccff90" points="34.6,14.6 21,28.2 15.4,22.6 12.6,25.4 21,33.8 37.4,17.4"/>
   </g>
  </g>
  <!-- 641&#45;&gt;199 -->
  <g class="edge" id="edge17">
   <title>
    641-&gt;199
   </title>
   <path d="M283.25,-575.7C283.36,-567.98 283.49,-558.71 283.61,-550.11" fill="none" stroke="lightgrey"/>
   <polygon fill="lightgrey" points="287.11,-550.15 283.76,-540.1 280.11,-550.05 287.11,-550.15" stroke="lightgrey"/>
  </g>
  <!-- 621 -->
  <g class="node" id="node19">
   <title>
    621
   </title>
   <g id="a_node19">
    <a target="_parent" xlink:href="https://leetcode-cn.com/problems/task-scheduler" xlink:title="621. 任务调度器">
     <polygon fill="none" points="337,-468 233,-468 233,-432 337,-432 337,-468" stroke="orange"/>
     <text font-family="Microsoft YaHei" font-size="12.00" text-anchor="middle" x="285" y="-446.9">
      621. 任务调度器
     </text>
    </a>
   </g>
   <g transform="translate(329.0, -474.0) scale(0.3)">
    <circle cx="24" cy="24" fill="#4caf50" r="21"/>
    <polygon fill="#ccff90" points="34.6,14.6 21,28.2 15.4,22.6 12.6,25.4 21,33.8 37.4,17.4"/>
   </g>
   <g transform="translate(328.0, -441.0)">
    <symbol id="flask" viewBox="0 0 448 512">
     <path d="M437.2 403.5L320 215V64h8c13.3 0 24-10.7 24-24V24c0-13.3-10.7-24-24-24H120c-13.3 0-24 10.7-24 24v16c0 13.3 10.7 24 24 24h8v151L10.8 403.5C-18.5 450.6 15.3 512 70.9 512h306.2c55.7 0 89.4-61.5 60.1-108.5zM137.9 320l48.2-77.6c3.7-5.2 5.8-11.6 5.8-18.4V64h64v160c0 6.9 2.2 13.2 5.8 18.4l48.2 77.6h-172z" fill="#1389fd"/>
    </symbol>
    <a href="https://github.com/acm-clan/algorithm-stone/blob/main/user/leetcode/621.任务调度器.md">
     <use height="18" href="#flask" width="18"/>
    </a>
   </g>
  </g>
  <!-- 199&#45;&gt;621 -->
  <g class="edge" id="edge18">
   <title>
    199-&gt;621
   </title>
   <path d="M284.25,-503.7C284.36,-495.98 284.49,-486.71 284.61,-478.11" fill="none" stroke="lightgrey"/>
   <polygon fill="lightgrey" points="288.11,-478.15 284.76,-468.1 281.11,-478.05 288.11,-478.15" stroke="lightgrey"/>
  </g>
  <!-- 1673 -->
  <g class="node" id="node20">
   <title>
    1673
   </title>
   <g id="a_node20">
    <a target="_parent" xlink:href="https://leetcode-cn.com/problems/find-the-most-competitive-subsequence" xlink:title="1673. 找出最具竞争力的子序列">
     <polygon fill="none" points="378,-396 196,-396 196,-360 378,-360 378,-396" stroke="orange"/>
     <text font-family="Microsoft YaHei" font-size="12.00" text-anchor="middle" x="287" y="-374.9">
      1673. 找出最具竞争力的子序列
     </text>
    </a>
   </g>
   <g transform="translate(370.0, -402.0) scale(0.3)">
    <circle cx="24" cy="24" fill="#4caf50" r="21"/>
    <polygon fill="#ccff90" points="34.6,14.6 21,28.2 15.4,22.6 12.6,25.4 21,33.8 37.4,17.4"/>
   </g>
  </g>
  <!-- 621&#45;&gt;1673 -->
  <g class="edge" id="edge19">
   <title>
    621-&gt;1673
   </title>
   <path d="M285.49,-431.7C285.71,-423.98 285.98,-414.71 286.23,-406.11" fill="none" stroke="lightgrey"/>
   <polygon fill="lightgrey" points="289.72,-406.2 286.51,-396.1 282.73,-406 289.72,-406.2" stroke="lightgrey"/>
  </g>
  <!-- 862 -->
  <g class="node" id="node21">
   <title>
    862
   </title>
   <g id="a_node21">
    <a target="_parent" xlink:href="https://leetcode-cn.com/problems/shortest-subarray-with-sum-at-least-k" xlink:title="862. 和至少为 K 的最短子数组">
     <polygon fill="none" points="377.5,-324 198.5,-324 198.5,-288 377.5,-288 377.5,-324" stroke="red"/>
     <text font-family="Microsoft YaHei" font-size="12.00" text-anchor="middle" x="288" y="-302.9">
      862. 和至少为 K 的最短子数组
     </text>
    </a>
   </g>
  </g>
  <!-- 1673&#45;&gt;862 -->
  <g class="edge" id="edge20">
   <title>
    1673-&gt;862
   </title>
   <path d="M287.25,-359.7C287.36,-351.98 287.49,-342.71 287.61,-334.11" fill="none" stroke="lightgrey"/>
   <polygon fill="lightgrey" points="291.11,-334.15 287.76,-324.1 284.11,-334.05 291.11,-334.15" stroke="lightgrey"/>
  </g>
  <!-- 363 -->
  <g class="node" id="node22">
   <title>
    363
   </title>
   <g id="a_node22">
    <a target="_parent" xlink:href="https://leetcode-cn.com/problems/max-sum-of-rectangle-no-larger-than-k" xlink:title="363. 矩形区域不超过 K 的最大数值和">
     <polygon fill="none" points="397.5,-252 182.5,-252 182.5,-216 397.5,-216 397.5,-252" stroke="red"/>
     <text font-family="Microsoft YaHei" font-size="12.00" text-anchor="middle" x="290" y="-230.9">
      363. 矩形区域不超过 K 的最大数值和
     </text>
    </a>
   </g>
  </g>
  <!-- 862&#45;&gt;363 -->
  <g class="edge" id="edge21">
   <title>
    862-&gt;363
   </title>
   <path d="M288.49,-287.7C288.71,-279.98 288.98,-270.71 289.23,-262.11" fill="none" stroke="lightgrey"/>
   <polygon fill="lightgrey" points="292.72,-262.2 289.51,-252.1 285.73,-262 292.72,-262.2" stroke="lightgrey"/>
  </g>
  <g class="key">
   <defs>
    <filter height="1.2" id="solid" width="1.2" x="-0.1" y="-0.1">
     <feFlood flood-color="#ccff90" result="bg"/>
     <feMerge>
      <feMergeNode in="bg"/>
      <feMergeNode in="SourceGraphic"/>
     </feMerge>
    </filter>
   </defs>
   <text filter="url(#solid)" font-family="Microsoft YaHei" font-size="10.00" text-anchor="middle" x="115.0" y="-715.0">
    优先级队列
   </text>
  </g>
  <g class="key">
   <defs>
    <filter height="1.2" id="solid" width="1.2" x="-0.1" y="-0.1">
     <feFlood flood-color="#ccff90" result="bg"/>
     <feMerge>
      <feMergeNode in="bg"/>
      <feMergeNode in="SourceGraphic"/>
     </feMerge>
    </filter>
   </defs>
   <text filter="url(#solid)" font-family="Microsoft YaHei" font-size="10.00" text-anchor="middle" x="115.0" y="-643.0">
    优先级队列
   </text>
  </g>
  <g class="key">
   <defs>
    <filter height="1.2" id="solid" width="1.2" x="-0.1" y="-0.1">
     <feFlood flood-color="#ccff90" result="bg"/>
     <feMerge>
      <feMergeNode in="bg"/>
      <feMergeNode in="SourceGraphic"/>
     </feMerge>
    </filter>
   </defs>
   <text filter="url(#solid)" font-family="Microsoft YaHei" font-size="10.00" text-anchor="middle" x="110.0" y="-571.0">
    优先级队列
   </text>
  </g>
  <g class="key">
   <defs>
    <filter height="1.2" id="solid" width="1.2" x="-0.1" y="-0.1">
     <feFlood flood-color="#ccff90" result="bg"/>
     <feMerge>
      <feMergeNode in="bg"/>
      <feMergeNode in="SourceGraphic"/>
     </feMerge>
    </filter>
   </defs>
   <text filter="url(#solid)" font-family="Microsoft YaHei" font-size="10.00" text-anchor="middle" x="108.0" y="-499.0">
    STL与排序
   </text>
  </g>
  <g class="key">
   <defs>
    <filter height="1.2" id="solid" width="1.2" x="-0.1" y="-0.1">
     <feFlood flood-color="#ccff90" result="bg"/>
     <feMerge>
      <feMergeNode in="bg"/>
      <feMergeNode in="SourceGraphic"/>
     </feMerge>
    </filter>
   </defs>
   <text filter="url(#solid)" font-family="Microsoft YaHei" font-size="10.00" text-anchor="middle" x="104.0" y="-427.0">
    桶排序
   </text>
  </g>
  <g class="key">
   <defs>
    <filter height="1.2" id="solid" width="1.2" x="-0.1" y="-0.1">
     <feFlood flood-color="#ccff90" result="bg"/>
     <feMerge>
      <feMergeNode in="bg"/>
      <feMergeNode in="SourceGraphic"/>
     </feMerge>
    </filter>
   </defs>
   <text filter="url(#solid)" font-family="Microsoft YaHei" font-size="10.00" text-anchor="middle" x="96.0" y="-355.0">
    带附加信息的优先级队列
   </text>
  </g>
  <g class="key">
   <defs>
    <filter height="1.2" id="solid" width="1.2" x="-0.1" y="-0.1">
     <feFlood flood-color="#ccff90" result="bg"/>
     <feMerge>
      <feMergeNode in="bg"/>
      <feMergeNode in="SourceGraphic"/>
     </feMerge>
    </filter>
   </defs>
   <text filter="url(#solid)" font-family="Microsoft YaHei" font-size="10.00" text-anchor="middle" x="91.0" y="-283.0">
    hash与优先级队列
   </text>
  </g>
  <g class="key">
   <defs>
    <filter height="1.2" id="solid" width="1.2" x="-0.1" y="-0.1">
     <feFlood flood-color="#ccff90" result="bg"/>
     <feMerge>
      <feMergeNode in="bg"/>
      <feMergeNode in="SourceGraphic"/>
     </feMerge>
    </filter>
   </defs>
   <text filter="url(#solid)" font-family="Microsoft YaHei" font-size="10.00" text-anchor="middle" x="82.0" y="-211.0">
    hash与优先级队列
   </text>
  </g>
  <g class="key">
   <defs>
    <filter height="1.2" id="solid" width="1.2" x="-0.1" y="-0.1">
     <feFlood flood-color="#ccff90" result="bg"/>
     <feMerge>
      <feMergeNode in="bg"/>
      <feMergeNode in="SourceGraphic"/>
     </feMerge>
    </filter>
   </defs>
   <text filter="url(#solid)" font-family="Microsoft YaHei" font-size="10.00" text-anchor="middle" x="82.0" y="-139.0">
    带权重的优先级队列
   </text>
  </g>
  <g class="key">
   <defs>
    <filter height="1.2" id="solid" width="1.2" x="-0.1" y="-0.1">
     <feFlood flood-color="#ccff90" result="bg"/>
     <feMerge>
      <feMergeNode in="bg"/>
      <feMergeNode in="SourceGraphic"/>
     </feMerge>
    </filter>
   </defs>
   <text filter="url(#solid)" font-family="Microsoft YaHei" font-size="10.00" text-anchor="middle" x="82.0" y="-67.0">
    丑数变体
   </text>
  </g>
  <g class="key">
   <defs>
    <filter height="1.2" id="solid" width="1.2" x="-0.1" y="-0.1">
     <feFlood flood-color="#ccff90" result="bg"/>
     <feMerge>
      <feMergeNode in="bg"/>
      <feMergeNode in="SourceGraphic"/>
     </feMerge>
    </filter>
   </defs>
   <text filter="url(#solid)" font-family="Microsoft YaHei" font-size="10.00" text-anchor="middle" x="82.0" y="5.0">
    优先级队列
   </text>
  </g>
  <g class="key">
   <defs>
    <filter height="1.2" id="solid" width="1.2" x="-0.1" y="-0.1">
     <feFlood flood-color="#ccff90" result="bg"/>
     <feMerge>
      <feMergeNode in="bg"/>
      <feMergeNode in="SourceGraphic"/>
     </feMerge>
    </filter>
   </defs>
   <text filter="url(#solid)" font-family="Microsoft YaHei" font-size="10.00" text-anchor="middle" x="279.0" y="-643.0">
    基础题
   </text>
  </g>
  <g class="key">
   <defs>
    <filter height="1.2" id="solid" width="1.2" x="-0.1" y="-0.1">
     <feFlood flood-color="#ccff90" result="bg"/>
     <feMerge>
      <feMergeNode in="bg"/>
      <feMergeNode in="SourceGraphic"/>
     </feMerge>
    </filter>
   </defs>
   <text filter="url(#solid)" font-family="Microsoft YaHei" font-size="10.00" text-anchor="middle" x="283.0" y="-571.0">
    基础题
   </text>
  </g>
  <g class="key">
   <defs>
    <filter height="1.2" id="solid" width="1.2" x="-0.1" y="-0.1">
     <feFlood flood-color="#ccff90" result="bg"/>
     <feMerge>
      <feMergeNode in="bg"/>
      <feMergeNode in="SourceGraphic"/>
     </feMerge>
    </filter>
   </defs>
   <text filter="url(#solid)" font-family="Microsoft YaHei" font-size="10.00" text-anchor="middle" x="284.0" y="-499.0">
    树的层次遍历
   </text>
  </g>
  <g class="key">
   <defs>
    <filter height="1.2" id="solid" width="1.2" x="-0.1" y="-0.1">
     <feFlood flood-color="#ccff90" result="bg"/>
     <feMerge>
      <feMergeNode in="bg"/>
      <feMergeNode in="SourceGraphic"/>
     </feMerge>
    </filter>
   </defs>
   <text filter="url(#solid)" font-family="Microsoft YaHei" font-size="10.00" text-anchor="middle" x="285.0" y="-427.0">
    贪心难
   </text>
  </g>
 </g>
</svg>