<?xml version="1.0" encoding="utf-8"?>
<!DOCTYPE svg PUBLIC "-//W3C//DTD SVG 1.1//EN" "http://www.w3.org/Graphics/SVG/1.1/DTD/svg11.dtd">
<!-- Generated by graphviz version 2.46.1 (20210213.1702)
 -->
<!-- Title: stones Pages: 1 -->
<svg height="598pt" viewBox="0.00 0.00 637.0 598.0" width="637pt" xmlns="http://www.w3.org/2000/svg" xmlns:xlink="http://www.w3.org/1999/xlink">
 <g class="graph" id="graph0" transform="scale(1 1) rotate(0) translate(4 544)">
  <title>
   stones
  </title>
  <polygon fill="white" points="-4,4 -4,-544 583,-544 583,4 -4,4" stroke="transparent"/>
  <!-- Leetcode&#45;链表 -->
  <g class="node" id="node1">
   <title>
    Leetcode-链表
   </title>
   <g id="a_node1">
    <a target="_parent" xlink:href="https://leetcode-cn.com/tag/linked-list" xlink:title="Leetcode-链表(13)">
     <polygon fill="orangered" points="348.5,-540 209.5,-540 209.5,-504 348.5,-504 348.5,-540" stroke="lightgrey"/>
     <text fill="white" font-family="Microsoft YaHei" font-size="14.00" text-anchor="middle" x="279" y="-518.3">
      Leetcode-链表(13)
     </text>
    </a>
   </g>
  </g>
  <!-- 遍历链表 -->
  <g class="node" id="node2">
   <title>
    遍历链表
   </title>
   <polygon fill="lightslategray" points="150.5,-468 71.5,-468 71.5,-432 150.5,-432 150.5,-468" stroke="lightgrey"/>
   <text fill="white" font-family="Microsoft YaHei" font-size="12.00" text-anchor="middle" x="111" y="-446.9">
    遍历链表(2)
   </text>
  </g>
  <!-- Leetcode&#45;链表&#45;&gt;遍历链表 -->
  <g class="edge" id="edge1">
   <title>
    Leetcode-链表-&gt;遍历链表
   </title>
   <path d="M237.9,-503.88C214.41,-494.09 184.79,-481.74 160.07,-471.45" fill="none" stroke="lightgrey"/>
   <polygon fill="lightgrey" points="161.09,-468.08 150.52,-467.47 158.4,-474.54 161.09,-468.08" stroke="lightgrey"/>
  </g>
  <!-- 反转链表 -->
  <g class="node" id="node5">
   <title>
    反转链表
   </title>
   <polygon fill="lightslategray" points="267.5,-468 188.5,-468 188.5,-432 267.5,-432 267.5,-468" stroke="lightgrey"/>
   <text fill="white" font-family="Microsoft YaHei" font-size="12.00" text-anchor="middle" x="228" y="-446.9">
    反转链表(2)
   </text>
  </g>
  <!-- Leetcode&#45;链表&#45;&gt;反转链表 -->
  <g class="edge" id="edge4">
   <title>
    Leetcode-链表-&gt;反转链表
   </title>
   <path d="M266.39,-503.7C260.4,-495.47 253.12,-485.48 246.52,-476.42" fill="none" stroke="lightgrey"/>
   <polygon fill="lightgrey" points="249.18,-474.13 240.46,-468.1 243.52,-478.25 249.18,-474.13" stroke="lightgrey"/>
  </g>
  <!-- 构建新链表 -->
  <g class="node" id="node8">
   <title>
    构建新链表
   </title>
   <polygon fill="lightslategray" points="376.5,-468 285.5,-468 285.5,-432 376.5,-432 376.5,-468" stroke="lightgrey"/>
   <text fill="white" font-family="Microsoft YaHei" font-size="12.00" text-anchor="middle" x="331" y="-446.9">
    构建新链表(3)
   </text>
  </g>
  <!-- Leetcode&#45;链表&#45;&gt;构建新链表 -->
  <g class="edge" id="edge7">
   <title>
    Leetcode-链表-&gt;构建新链表
   </title>
   <path d="M291.85,-503.7C298.03,-495.39 305.54,-485.28 312.32,-476.14" fill="none" stroke="lightgrey"/>
   <polygon fill="lightgrey" points="315.14,-478.22 318.29,-468.1 309.52,-474.04 315.14,-478.22" stroke="lightgrey"/>
  </g>
  <!-- 删除链表 -->
  <g class="node" id="node11">
   <title>
    删除链表
   </title>
   <polygon fill="lightslategray" points="485.5,-468 406.5,-468 406.5,-432 485.5,-432 485.5,-468" stroke="lightgrey"/>
   <text fill="white" font-family="Microsoft YaHei" font-size="12.00" text-anchor="middle" x="446" y="-446.9">
    删除链表(6)
   </text>
  </g>
  <!-- Leetcode&#45;链表&#45;&gt;删除链表 -->
  <g class="edge" id="edge11">
   <title>
    Leetcode-链表-&gt;删除链表
   </title>
   <path d="M319.85,-503.88C343.13,-494.12 372.44,-481.83 396.95,-471.56" fill="none" stroke="lightgrey"/>
   <polygon fill="lightgrey" points="398.56,-474.68 406.43,-467.59 395.86,-468.22 398.56,-474.68" stroke="lightgrey"/>
  </g>
  <!-- 1290 -->
  <g class="node" id="node3">
   <title>
    1290
   </title>
   <g id="a_node3">
    <a target="_parent" xlink:href="https://leetcode-cn.com/problems/convert-binary-number-in-a-linked-list-to-integer" xlink:title="1290. 二进制链表转整数">
     <polygon fill="none" points="164,-396 18,-396 18,-360 164,-360 164,-396" stroke="greenyellow"/>
     <text font-family="Microsoft YaHei" font-size="12.00" text-anchor="middle" x="91" y="-374.9">
      1290. 二进制链表转整数
     </text>
    </a>
   </g>
   <g transform="translate(156.0, -402.0) scale(0.3)">
    <circle cx="24" cy="24" fill="#4caf50" r="21"/>
    <polygon fill="#ccff90" points="34.6,14.6 21,28.2 15.4,22.6 12.6,25.4 21,33.8 37.4,17.4"/>
   </g>
  </g>
  <!-- 遍历链表&#45;&gt;1290 -->
  <g class="edge" id="edge2">
   <title>
    遍历链表-&gt;1290
   </title>
   <path d="M106.06,-431.7C103.83,-423.9 101.15,-414.51 98.67,-405.83" fill="none" stroke="lightgrey"/>
   <polygon fill="lightgrey" points="102,-404.76 95.89,-396.1 95.27,-406.68 102,-404.76" stroke="lightgrey"/>
  </g>
  <!-- 1019 -->
  <g class="node" id="node4">
   <title>
    1019
   </title>
   <g id="a_node4">
    <a target="_parent" xlink:href="https://leetcode-cn.com/problems/next-greater-node-in-linked-list" xlink:title="1019. 链表中的下一个更大节点">
     <polygon fill="none" points="182,-324 0,-324 0,-288 182,-288 182,-324" stroke="orange"/>
     <text font-family="Microsoft YaHei" font-size="12.00" text-anchor="middle" x="91" y="-302.9">
      1019. 链表中的下一个更大节点
     </text>
    </a>
   </g>
   <g transform="translate(174.0, -330.0) scale(0.3)">
    <circle cx="24" cy="24" fill="#4caf50" r="21"/>
    <polygon fill="#ccff90" points="34.6,14.6 21,28.2 15.4,22.6 12.6,25.4 21,33.8 37.4,17.4"/>
   </g>
  </g>
  <!-- 1290&#45;&gt;1019 -->
  <g class="edge" id="edge3">
   <title>
    1290-&gt;1019
   </title>
   <path d="M91,-359.7C91,-351.98 91,-342.71 91,-334.11" fill="none" stroke="lightgrey"/>
   <polygon fill="lightgrey" points="94.5,-334.1 91,-324.1 87.5,-334.1 94.5,-334.1" stroke="lightgrey"/>
  </g>
  <!-- 206 -->
  <g class="node" id="node6">
   <title>
    206
   </title>
   <g id="a_node6">
    <a target="_parent" xlink:href="https://leetcode-cn.com/problems/reverse-linked-list" xlink:title="206. 反转链表">
     <polygon fill="none" points="274,-396 182,-396 182,-360 274,-360 274,-396" stroke="greenyellow"/>
     <text font-family="Microsoft YaHei" font-size="12.00" text-anchor="middle" x="228" y="-374.9">
      206. 反转链表
     </text>
    </a>
   </g>
  </g>
  <!-- 反转链表&#45;&gt;206 -->
  <g class="edge" id="edge5">
   <title>
    反转链表-&gt;206
   </title>
   <path d="M228,-431.7C228,-423.98 228,-414.71 228,-406.11" fill="none" stroke="lightgrey"/>
   <polygon fill="lightgrey" points="231.5,-406.1 228,-396.1 224.5,-406.1 231.5,-406.1" stroke="lightgrey"/>
  </g>
  <!-- 445 -->
  <g class="node" id="node7">
   <title>
    445
   </title>
   <g id="a_node7">
    <a target="_parent" xlink:href="https://leetcode-cn.com/problems/add-two-numbers-ii" xlink:title="445. 两数相加 II">
     <polygon fill="none" points="310.5,-324 207.5,-324 207.5,-288 310.5,-288 310.5,-324" stroke="orange"/>
     <text font-family="Microsoft YaHei" font-size="12.00" text-anchor="middle" x="259" y="-302.9">
      445. 两数相加 II
     </text>
    </a>
   </g>
   <g transform="translate(302.5, -330.0) scale(0.3)">
    <circle cx="24" cy="24" fill="#4caf50" r="21"/>
    <polygon fill="#ccff90" points="34.6,14.6 21,28.2 15.4,22.6 12.6,25.4 21,33.8 37.4,17.4"/>
   </g>
  </g>
  <!-- 206&#45;&gt;445 -->
  <g class="edge" id="edge6">
   <title>
    206-&gt;445
   </title>
   <path d="M235.66,-359.7C239.19,-351.73 243.46,-342.1 247.37,-333.26" fill="none" stroke="lightgrey"/>
   <polygon fill="lightgrey" points="250.58,-334.67 251.43,-324.1 244.18,-331.83 250.58,-334.67" stroke="lightgrey"/>
  </g>
  <!-- 138 -->
  <g class="node" id="node10">
   <title>
    138
   </title>
   <g id="a_node10">
    <a target="_parent" xlink:href="https://leetcode-cn.com/problems/copy-list-with-random-pointer" xlink:title="138. 复制带随机指针的链表">
     <polygon fill="none" points="341,-252 177,-252 177,-216 341,-216 341,-252" stroke="orange"/>
     <text font-family="Microsoft YaHei" font-size="12.00" text-anchor="middle" x="259" y="-230.9">
      138. 复制带随机指针的链表
     </text>
    </a>
   </g>
  </g>
  <!-- 445&#45;&gt;138 -->
  <g class="edge" id="edge10">
   <title>
    445-&gt;138
   </title>
   <path d="M259,-287.7C259,-279.98 259,-270.71 259,-262.11" fill="none" stroke="lightgrey"/>
   <polygon fill="lightgrey" points="262.5,-262.1 259,-252.1 255.5,-262.1 262.5,-262.1" stroke="lightgrey"/>
  </g>
  <!-- 2 -->
  <g class="node" id="node9">
   <title>
    2
   </title>
   <g id="a_node9">
    <a target="_parent" xlink:href="https://leetcode-cn.com/problems/add-two-numbers" xlink:title="2. 两数相加">
     <polygon fill="none" points="370,-396 292,-396 292,-360 370,-360 370,-396" stroke="orange"/>
     <text font-family="Microsoft YaHei" font-size="12.00" text-anchor="middle" x="331" y="-374.9">
      2. 两数相加
     </text>
    </a>
   </g>
  </g>
  <!-- 构建新链表&#45;&gt;2 -->
  <g class="edge" id="edge8">
   <title>
    构建新链表-&gt;2
   </title>
   <path d="M331,-431.7C331,-423.98 331,-414.71 331,-406.11" fill="none" stroke="lightgrey"/>
   <polygon fill="lightgrey" points="334.5,-406.1 331,-396.1 327.5,-406.1 334.5,-406.1" stroke="lightgrey"/>
  </g>
  <!-- 2&#45;&gt;445 -->
  <g class="edge" id="edge9">
   <title>
    2-&gt;445
   </title>
   <path d="M313.2,-359.7C304.4,-351.14 293.62,-340.66 284,-331.3" fill="none" stroke="lightgrey"/>
   <polygon fill="lightgrey" points="286.2,-328.57 276.59,-324.1 281.32,-333.58 286.2,-328.57" stroke="lightgrey"/>
  </g>
  <!-- 237 -->
  <g class="node" id="node12">
   <title>
    237
   </title>
   <g id="a_node12">
    <a target="_parent" xlink:href="https://leetcode-cn.com/problems/delete-node-in-a-linked-list" xlink:title="237. 删除链表中的节点">
     <polygon fill="none" points="528,-396 388,-396 388,-360 528,-360 528,-396" stroke="greenyellow"/>
     <text font-family="Microsoft YaHei" font-size="12.00" text-anchor="middle" x="458" y="-374.9">
      237. 删除链表中的节点
     </text>
    </a>
   </g>
  </g>
  <!-- 删除链表&#45;&gt;237 -->
  <g class="edge" id="edge12">
   <title>
    删除链表-&gt;237
   </title>
   <path d="M448.97,-431.7C450.29,-423.98 451.88,-414.71 453.35,-406.11" fill="none" stroke="lightgrey"/>
   <polygon fill="lightgrey" points="456.83,-406.55 455.07,-396.1 449.93,-405.37 456.83,-406.55" stroke="lightgrey"/>
  </g>
  <!-- 203 -->
  <g class="node" id="node13">
   <title>
    203
   </title>
   <g id="a_node13">
    <a target="_parent" xlink:href="https://leetcode-cn.com/problems/remove-linked-list-elements" xlink:title="203. 移除链表元素">
     <polygon fill="none" points="516,-324 400,-324 400,-288 516,-288 516,-324" stroke="greenyellow"/>
     <text font-family="Microsoft YaHei" font-size="12.00" text-anchor="middle" x="458" y="-302.9">
      203. 移除链表元素
     </text>
    </a>
   </g>
   <g transform="translate(508.0, -330.0) scale(0.3)">
    <circle cx="24" cy="24" fill="#4caf50" r="21"/>
    <polygon fill="#ccff90" points="34.6,14.6 21,28.2 15.4,22.6 12.6,25.4 21,33.8 37.4,17.4"/>
   </g>
  </g>
  <!-- 237&#45;&gt;203 -->
  <g class="edge" id="edge13">
   <title>
    237-&gt;203
   </title>
   <path d="M458,-359.7C458,-351.98 458,-342.71 458,-334.11" fill="none" stroke="lightgrey"/>
   <polygon fill="lightgrey" points="461.5,-334.1 458,-324.1 454.5,-334.1 461.5,-334.1" stroke="lightgrey"/>
  </g>
  <!-- 83 -->
  <g class="node" id="node14">
   <title>
    83
   </title>
   <g id="a_node14">
    <a target="_parent" xlink:href="https://leetcode-cn.com/problems/remove-duplicates-from-sorted-list" xlink:title="83. 删除排序链表中的重复元素">
     <polygon fill="none" points="548.5,-252 367.5,-252 367.5,-216 548.5,-216 548.5,-252" stroke="greenyellow"/>
     <text font-family="Microsoft YaHei" font-size="12.00" text-anchor="middle" x="458" y="-230.9">
      83. 删除排序链表中的重复元素
     </text>
    </a>
   </g>
   <g transform="translate(540.5, -258.0) scale(0.3)">
    <circle cx="24" cy="24" fill="#4caf50" r="21"/>
    <polygon fill="#ccff90" points="34.6,14.6 21,28.2 15.4,22.6 12.6,25.4 21,33.8 37.4,17.4"/>
   </g>
  </g>
  <!-- 203&#45;&gt;83 -->
  <g class="edge" id="edge14">
   <title>
    203-&gt;83
   </title>
   <path d="M458,-287.7C458,-279.98 458,-270.71 458,-262.11" fill="none" stroke="lightgrey"/>
   <polygon fill="lightgrey" points="461.5,-262.1 458,-252.1 454.5,-262.1 461.5,-262.1" stroke="lightgrey"/>
  </g>
  <!-- 82 -->
  <g class="node" id="node15">
   <title>
    82
   </title>
   <g id="a_node15">
    <a target="_parent" xlink:href="https://leetcode-cn.com/problems/remove-duplicates-from-sorted-list-ii" xlink:title="82. 删除排序链表中的重复元素 II">
     <polygon fill="none" points="554,-180 362,-180 362,-144 554,-144 554,-180" stroke="orange"/>
     <text font-family="Microsoft YaHei" font-size="12.00" text-anchor="middle" x="458" y="-158.9">
      82. 删除排序链表中的重复元素 II
     </text>
    </a>
   </g>
   <g transform="translate(546.0, -186.0) scale(0.3)">
    <circle cx="24" cy="24" fill="#4caf50" r="21"/>
    <polygon fill="#ccff90" points="34.6,14.6 21,28.2 15.4,22.6 12.6,25.4 21,33.8 37.4,17.4"/>
   </g>
  </g>
  <!-- 83&#45;&gt;82 -->
  <g class="edge" id="edge15">
   <title>
    83-&gt;82
   </title>
   <path d="M458,-215.7C458,-207.98 458,-198.71 458,-190.11" fill="none" stroke="lightgrey"/>
   <polygon fill="lightgrey" points="461.5,-190.1 458,-180.1 454.5,-190.1 461.5,-190.1" stroke="lightgrey"/>
  </g>
  <!-- 19 -->
  <g class="node" id="node16">
   <title>
    19
   </title>
   <g id="a_node16">
    <a target="_parent" xlink:href="https://leetcode-cn.com/problems/remove-nth-node-from-end-of-list" xlink:title="19. 删除链表的倒数第 N 个结点">
     <polygon fill="none" points="551,-108 365,-108 365,-72 551,-72 551,-108" stroke="orange"/>
     <text font-family="Microsoft YaHei" font-size="12.00" text-anchor="middle" x="458" y="-86.9">
      19. 删除链表的倒数第 N 个结点
     </text>
    </a>
   </g>
   <g transform="translate(543.0, -114.0) scale(0.3)">
    <circle cx="24" cy="24" fill="#4caf50" r="21"/>
    <polygon fill="#ccff90" points="34.6,14.6 21,28.2 15.4,22.6 12.6,25.4 21,33.8 37.4,17.4"/>
   </g>
  </g>
  <!-- 82&#45;&gt;19 -->
  <g class="edge" id="edge16">
   <title>
    82-&gt;19
   </title>
   <path d="M458,-143.7C458,-135.98 458,-126.71 458,-118.11" fill="none" stroke="lightgrey"/>
   <polygon fill="lightgrey" points="461.5,-118.1 458,-108.1 454.5,-118.1 461.5,-118.1" stroke="lightgrey"/>
  </g>
  <!-- 1171 -->
  <g class="node" id="node17">
   <title>
    1171
   </title>
   <g id="a_node17">
    <a target="_parent" xlink:href="https://leetcode-cn.com/problems/remove-zero-sum-consecutive-nodes-from-linked-list" xlink:title="1171. 从链表中删去总和值为零的连续节点">
     <polygon fill="none" points="579,-36 337,-36 337,0 579,0 579,-36" stroke="orange"/>
     <text font-family="Microsoft YaHei" font-size="12.00" text-anchor="middle" x="458" y="-14.9">
      1171. 从链表中删去总和值为零的连续节点
     </text>
    </a>
   </g>
  </g>
  <!-- 19&#45;&gt;1171 -->
  <g class="edge" id="edge17">
   <title>
    19-&gt;1171
   </title>
   <path d="M458,-71.7C458,-63.98 458,-54.71 458,-46.11" fill="none" stroke="lightgrey"/>
   <polygon fill="lightgrey" points="461.5,-46.1 458,-36.1 454.5,-46.1 461.5,-46.1" stroke="lightgrey"/>
  </g>
  <g class="key">
   <defs>
    <filter height="1.2" id="solid" width="1.2" x="-0.1" y="-0.1">
     <feFlood flood-color="#ccff90" result="bg"/>
     <feMerge>
      <feMergeNode in="bg"/>
      <feMergeNode in="SourceGraphic"/>
     </feMerge>
    </filter>
   </defs>
   <text filter="url(#solid)" font-family="Microsoft YaHei" font-size="10.00" text-anchor="middle" x="91.0" y="-355.0">
    位运算
   </text>
  </g>
  <g class="key">
   <defs>
    <filter height="1.2" id="solid" width="1.2" x="-0.1" y="-0.1">
     <feFlood flood-color="#ccff90" result="bg"/>
     <feMerge>
      <feMergeNode in="bg"/>
      <feMergeNode in="SourceGraphic"/>
     </feMerge>
    </filter>
   </defs>
   <text filter="url(#solid)" font-family="Microsoft YaHei" font-size="10.00" text-anchor="middle" x="458.0" y="-355.0">
    简单删除
   </text>
  </g>
 </g>
</svg>