<?xml version="1.0" encoding="utf-8"?>
<!DOCTYPE svg PUBLIC "-//W3C//DTD SVG 1.1//EN" "http://www.w3.org/Graphics/SVG/1.1/DTD/svg11.dtd">
<!-- Generated by graphviz version 2.46.1 (20210213.1702)
 -->
<!-- Title: stones Pages: 1 -->
<svg height="670pt" viewBox="0.00 0.00 1348.5 670.0" width="1349pt" xmlns="http://www.w3.org/2000/svg" xmlns:xlink="http://www.w3.org/1999/xlink">
 <g class="graph" id="graph0" transform="scale(1 1) rotate(0) translate(4 616)">
  <title>
   stones
  </title>
  <polygon fill="white" points="-4,4 -4,-616 1294.5,-616 1294.5,4 -4,4" stroke="transparent"/>
  <!-- Leetcode&#45;小众题 -->
  <g class="node" id="node1">
   <title>
    Leetcode-小众题
   </title>
   <g id="a_node1">
    <a target="_parent" xlink:href="https://leetcode-cn.com/tag/" xlink:title="Leetcode-小众题(42)">
     <polygon fill="orangered" points="558.5,-612 404.5,-612 404.5,-576 558.5,-576 558.5,-612" stroke="lightgrey"/>
     <text fill="white" font-family="Microsoft YaHei" font-size="14.00" text-anchor="middle" x="481.5" y="-590.3">
      Leetcode-小众题(42)
     </text>
    </a>
   </g>
  </g>
  <!-- 拒绝采样 -->
  <g class="node" id="node2">
   <title>
    拒绝采样
   </title>
   <polygon fill="lightslategray" points="129,-540 50,-540 50,-504 129,-504 129,-540" stroke="lightgrey"/>
   <text fill="white" font-family="Microsoft YaHei" font-size="12.00" text-anchor="middle" x="89.5" y="-518.9">
    拒绝采样(2)
   </text>
  </g>
  <!-- Leetcode&#45;小众题&#45;&gt;拒绝采样 -->
  <g class="edge" id="edge1">
   <title>
    Leetcode-小众题-&gt;拒绝采样
   </title>
   <path d="M404.16,-585.28C336.23,-577.55 234.75,-563.68 138.98,-540.14" fill="none" stroke="lightgrey"/>
   <polygon fill="lightgrey" points="139.69,-536.71 129.14,-537.68 137.99,-543.5 139.69,-536.71" stroke="lightgrey"/>
  </g>
  <!-- 随机数 -->
  <g class="node" id="node5">
   <title>
    随机数
   </title>
   <polygon fill="lightslategray" points="214,-540 147,-540 147,-504 214,-504 214,-540" stroke="lightgrey"/>
   <text fill="white" font-family="Microsoft YaHei" font-size="12.00" text-anchor="middle" x="180.5" y="-518.9">
    随机数(6)
   </text>
  </g>
  <!-- Leetcode&#45;小众题&#45;&gt;随机数 -->
  <g class="edge" id="edge4">
   <title>
    Leetcode-小众题-&gt;随机数
   </title>
   <path d="M404.37,-581.02C354.82,-572.45 289.09,-559.43 223.85,-540.16" fill="none" stroke="lightgrey"/>
   <polygon fill="lightgrey" points="224.82,-536.8 214.24,-537.27 222.81,-543.5 224.82,-536.8" stroke="lightgrey"/>
  </g>
  <!-- 蓄水池采样 -->
  <g class="node" id="node10">
   <title>
    蓄水池采样
   </title>
   <polygon fill="lightslategray" points="323,-540 232,-540 232,-504 323,-504 323,-540" stroke="lightgrey"/>
   <text fill="white" font-family="Microsoft YaHei" font-size="12.00" text-anchor="middle" x="277.5" y="-518.9">
    蓄水池采样(2)
   </text>
  </g>
  <!-- Leetcode&#45;小众题&#45;&gt;蓄水池采样 -->
  <g class="edge" id="edge11">
   <title>
    Leetcode-小众题-&gt;蓄水池采样
   </title>
   <path d="M431.86,-575.97C401.95,-565.7 363.81,-552.62 332.92,-542.02" fill="none" stroke="lightgrey"/>
   <polygon fill="lightgrey" points="333.77,-538.61 323.17,-538.67 331.49,-545.23 333.77,-538.61" stroke="lightgrey"/>
  </g>
  <!-- 记忆化搜索 -->
  <g class="node" id="node13">
   <title>
    记忆化搜索
   </title>
   <polygon fill="lightslategray" points="397,-396 306,-396 306,-360 397,-360 397,-396" stroke="lightgrey"/>
   <text fill="white" font-family="Microsoft YaHei" font-size="12.00" text-anchor="middle" x="351.5" y="-374.9">
    记忆化搜索(1)
   </text>
  </g>
  <!-- Leetcode&#45;小众题&#45;&gt;记忆化搜索 -->
  <g class="edge" id="edge14">
   <title>
    Leetcode-小众题-&gt;记忆化搜索
   </title>
   <path d="M434.31,-575.85C417.26,-567.47 399.32,-555.72 387.5,-540 357.76,-500.44 351.77,-440.93 351.01,-406.43" fill="none" stroke="lightgrey"/>
   <polygon fill="lightgrey" points="354.51,-406.13 350.93,-396.16 347.51,-406.19 354.51,-406.13" stroke="lightgrey"/>
  </g>
  <!-- 扫描线 -->
  <g class="node" id="node15">
   <title>
    扫描线
   </title>
   <polygon fill="lightslategray" points="569,-540 502,-540 502,-504 569,-504 569,-540" stroke="lightgrey"/>
   <text fill="white" font-family="Microsoft YaHei" font-size="12.00" text-anchor="middle" x="535.5" y="-518.9">
    扫描线(4)
   </text>
  </g>
  <!-- Leetcode&#45;小众题&#45;&gt;扫描线 -->
  <g class="edge" id="edge16">
   <title>
    Leetcode-小众题-&gt;扫描线
   </title>
   <path d="M494.85,-575.7C501.26,-567.39 509.06,-557.28 516.11,-548.14" fill="none" stroke="lightgrey"/>
   <polygon fill="lightgrey" points="518.97,-550.16 522.31,-540.1 513.43,-545.88 518.97,-550.16" stroke="lightgrey"/>
  </g>
  <!-- 拓扑排序 -->
  <g class="node" id="node20">
   <title>
    拓扑排序
   </title>
   <polygon fill="lightslategray" points="476,-540 397,-540 397,-504 476,-504 476,-540" stroke="lightgrey"/>
   <text fill="white" font-family="Microsoft YaHei" font-size="12.00" text-anchor="middle" x="436.5" y="-518.9">
    拓扑排序(4)
   </text>
  </g>
  <!-- Leetcode&#45;小众题&#45;&gt;拓扑排序 -->
  <g class="edge" id="edge21">
   <title>
    Leetcode-小众题-&gt;拓扑排序
   </title>
   <path d="M470.38,-575.7C465.14,-567.56 458.8,-557.69 453.02,-548.7" fill="none" stroke="lightgrey"/>
   <polygon fill="lightgrey" points="455.85,-546.62 447.5,-540.1 449.96,-550.41 455.85,-546.62" stroke="lightgrey"/>
  </g>
  <!-- 二分查找树 -->
  <g class="node" id="node24">
   <title>
    二分查找树
   </title>
   <polygon fill="lightslategray" points="891,-540 800,-540 800,-504 891,-504 891,-540" stroke="lightgrey"/>
   <text fill="white" font-family="Microsoft YaHei" font-size="12.00" text-anchor="middle" x="845.5" y="-518.9">
    二分查找树(4)
   </text>
  </g>
  <!-- Leetcode&#45;小众题&#45;&gt;二分查找树 -->
  <g class="edge" id="edge26">
   <title>
    Leetcode-小众题-&gt;二分查找树
   </title>
   <path d="M558.7,-578.15C628.08,-564.81 728.3,-545.54 790.04,-533.66" fill="none" stroke="lightgrey"/>
   <polygon fill="lightgrey" points="790.83,-537.08 799.99,-531.75 789.5,-530.2 790.83,-537.08" stroke="lightgrey"/>
  </g>
  <!-- 树状数组 -->
  <g class="node" id="node29">
   <title>
    树状数组
   </title>
   <polygon fill="lightslategray" points="711,-540 632,-540 632,-504 711,-504 711,-540" stroke="lightgrey"/>
   <text fill="white" font-family="Microsoft YaHei" font-size="12.00" text-anchor="middle" x="671.5" y="-518.9">
    树状数组(6)
   </text>
  </g>
  <!-- Leetcode&#45;小众题&#45;&gt;树状数组 -->
  <g class="edge" id="edge31">
   <title>
    Leetcode-小众题-&gt;树状数组
   </title>
   <path d="M527.98,-575.88C556.6,-565.33 593.26,-551.82 622.36,-541.1" fill="none" stroke="lightgrey"/>
   <polygon fill="lightgrey" points="623.75,-544.32 631.92,-537.58 621.33,-537.75 623.75,-544.32" stroke="lightgrey"/>
  </g>
  <!-- 智商题 -->
  <g class="node" id="node35">
   <title>
    智商题
   </title>
   <polygon fill="lightslategray" points="1043,-540 976,-540 976,-504 1043,-504 1043,-540" stroke="lightgrey"/>
   <text fill="white" font-family="Microsoft YaHei" font-size="12.00" text-anchor="middle" x="1009.5" y="-518.9">
    智商题(7)
   </text>
  </g>
  <!-- Leetcode&#45;小众题&#45;&gt;智商题 -->
  <g class="edge" id="edge38">
   <title>
    Leetcode-小众题-&gt;智商题
   </title>
   <path d="M558.62,-583.86C642.57,-573.76 780.7,-556.71 899.5,-540 921.34,-536.93 945.56,-533.22 965.71,-530.05" fill="none" stroke="lightgrey"/>
   <polygon fill="lightgrey" points="966.5,-533.47 975.83,-528.45 965.41,-526.55 966.5,-533.47" stroke="lightgrey"/>
  </g>
  <!-- 最小最大值 -->
  <g class="node" id="node43">
   <title>
    最小最大值
   </title>
   <polygon fill="lightslategray" points="1202,-540 1111,-540 1111,-504 1202,-504 1202,-540" stroke="lightgrey"/>
   <text fill="white" font-family="Microsoft YaHei" font-size="12.00" text-anchor="middle" x="1156.5" y="-518.9">
    最小最大值(6)
   </text>
  </g>
  <!-- Leetcode&#45;小众题&#45;&gt;最小最大值 -->
  <g class="edge" id="edge46">
   <title>
    Leetcode-小众题-&gt;最小最大值
   </title>
   <path d="M558.66,-587.49C668.41,-579.28 875.76,-562.37 1051.5,-540 1067.5,-537.96 1084.81,-535.34 1100.67,-532.76" fill="none" stroke="lightgrey"/>
   <polygon fill="lightgrey" points="1101.56,-536.16 1110.86,-531.08 1100.42,-529.25 1101.56,-536.16" stroke="lightgrey"/>
  </g>
  <!-- 470 -->
  <g class="node" id="node3">
   <title>
    470
   </title>
   <g id="a_node3">
    <a target="_parent" xlink:href="https://leetcode-cn.com/problems/implement-rand10-using-rand7" xlink:title="470. 用 Rand7() 实现 Rand10()">
     <polygon fill="none" points="185,-468 0,-468 0,-432 185,-432 185,-468" stroke="orange"/>
     <text font-family="Microsoft YaHei" font-size="12.00" text-anchor="middle" x="92.5" y="-446.9">
      470. 用 Rand7() 实现 Rand10()
     </text>
    </a>
   </g>
   <g transform="translate(177.0, -474.0) scale(0.3)">
    <circle cx="24" cy="24" fill="#4caf50" r="21"/>
    <polygon fill="#ccff90" points="34.6,14.6 21,28.2 15.4,22.6 12.6,25.4 21,33.8 37.4,17.4"/>
   </g>
   <g transform="translate(176.0, -441.0)">
    <symbol id="flask" viewBox="0 0 448 512">
     <path d="M437.2 403.5L320 215V64h8c13.3 0 24-10.7 24-24V24c0-13.3-10.7-24-24-24H120c-13.3 0-24 10.7-24 24v16c0 13.3 10.7 24 24 24h8v151L10.8 403.5C-18.5 450.6 15.3 512 70.9 512h306.2c55.7 0 89.4-61.5 60.1-108.5zM137.9 320l48.2-77.6c3.7-5.2 5.8-11.6 5.8-18.4V64h64v160c0 6.9 2.2 13.2 5.8 18.4l48.2 77.6h-172z" fill="#1389fd"/>
    </symbol>
    <a href="https://github.com/acm-clan/algorithm-stone/blob/main/user/leetcode/470.用-rand-7-实现-rand-10.md">
     <use height="18" href="#flask" width="18"/>
    </a>
   </g>
  </g>
  <!-- 拒绝采样&#45;&gt;470 -->
  <g class="edge" id="edge2">
   <title>
    拒绝采样-&gt;470
   </title>
   <path d="M90.24,-503.7C90.57,-495.98 90.97,-486.71 91.34,-478.11" fill="none" stroke="lightgrey"/>
   <polygon fill="lightgrey" points="94.84,-478.25 91.77,-468.1 87.84,-477.95 94.84,-478.25" stroke="lightgrey"/>
  </g>
  <!-- 478 -->
  <g class="node" id="node4">
   <title>
    478
   </title>
   <g id="a_node4">
    <a target="_parent" xlink:href="https://leetcode-cn.com/problems/generate-random-point-in-a-circle" xlink:title="478. 在圆内随机生成点">
     <polygon fill="none" points="162.5,-396 22.5,-396 22.5,-360 162.5,-360 162.5,-396" stroke="orange"/>
     <text font-family="Microsoft YaHei" font-size="12.00" text-anchor="middle" x="92.5" y="-374.9">
      478. 在圆内随机生成点
     </text>
    </a>
   </g>
   <g transform="translate(154.5, -402.0) scale(0.3)">
    <circle cx="24" cy="24" fill="#4caf50" r="21"/>
    <polygon fill="#ccff90" points="34.6,14.6 21,28.2 15.4,22.6 12.6,25.4 21,33.8 37.4,17.4"/>
   </g>
   <g transform="translate(153.5, -369.0)">
    <symbol id="flask" viewBox="0 0 448 512">
     <path d="M437.2 403.5L320 215V64h8c13.3 0 24-10.7 24-24V24c0-13.3-10.7-24-24-24H120c-13.3 0-24 10.7-24 24v16c0 13.3 10.7 24 24 24h8v151L10.8 403.5C-18.5 450.6 15.3 512 70.9 512h306.2c55.7 0 89.4-61.5 60.1-108.5zM137.9 320l48.2-77.6c3.7-5.2 5.8-11.6 5.8-18.4V64h64v160c0 6.9 2.2 13.2 5.8 18.4l48.2 77.6h-172z" fill="#1389fd"/>
    </symbol>
    <a href="https://github.com/acm-clan/algorithm-stone/blob/main/user/leetcode/478.在圆内随机生成点.md">
     <use height="18" href="#flask" width="18"/>
    </a>
   </g>
  </g>
  <!-- 470&#45;&gt;478 -->
  <g class="edge" id="edge3">
   <title>
    470-&gt;478
   </title>
   <path d="M86.58,-431.7C85.79,-423.98 85.56,-414.71 85.9,-406.11" fill="none" stroke="lightgrey"/>
   <polygon fill="lightgrey" points="89.4,-406.32 86.6,-396.1 82.42,-405.84 89.4,-406.32" stroke="lightgrey"/>
  </g>
  <!-- 470&#45;&gt;478 -->
  <g class="edge" id="edge6">
   <title>
    470-&gt;478
   </title>
   <path d="M98.42,-431.7C99.21,-423.98 99.44,-414.71 99.1,-406.11" fill="none" stroke="lightgrey"/>
   <polygon fill="lightgrey" points="102.58,-405.84 98.4,-396.1 95.6,-406.32 102.58,-405.84" stroke="lightgrey"/>
  </g>
  <!-- 497 -->
  <g class="node" id="node6">
   <title>
    497
   </title>
   <g id="a_node6">
    <a target="_parent" xlink:href="https://leetcode-cn.com/problems/random-point-in-non-overlapping-rectangles" xlink:title="497. 非重叠矩形中的随机点">
     <polygon fill="none" points="174.5,-324 10.5,-324 10.5,-288 174.5,-288 174.5,-324" stroke="orange"/>
     <text font-family="Microsoft YaHei" font-size="12.00" text-anchor="middle" x="92.5" y="-302.9">
      497. 非重叠矩形中的随机点
     </text>
    </a>
   </g>
  </g>
  <!-- 478&#45;&gt;497 -->
  <g class="edge" id="edge7">
   <title>
    478-&gt;497
   </title>
   <path d="M92.5,-359.7C92.5,-351.98 92.5,-342.71 92.5,-334.11" fill="none" stroke="lightgrey"/>
   <polygon fill="lightgrey" points="96,-334.1 92.5,-324.1 89,-334.1 96,-334.1" stroke="lightgrey"/>
  </g>
  <!-- 随机数&#45;&gt;470 -->
  <g class="edge" id="edge5">
   <title>
    随机数-&gt;470
   </title>
   <path d="M158.75,-503.7C147.66,-494.88 134.03,-484.03 122.01,-474.47" fill="none" stroke="lightgrey"/>
   <polygon fill="lightgrey" points="124.01,-471.59 114,-468.1 119.65,-477.07 124.01,-471.59" stroke="lightgrey"/>
  </g>
  <!-- 519 -->
  <g class="node" id="node7">
   <title>
    519
   </title>
   <g id="a_node7">
    <a target="_parent" xlink:href="https://leetcode-cn.com/problems/random-flip-matrix" xlink:title="519. 随机翻转矩阵">
     <polygon fill="none" points="150.5,-252 34.5,-252 34.5,-216 150.5,-216 150.5,-252" stroke="orange"/>
     <text font-family="Microsoft YaHei" font-size="12.00" text-anchor="middle" x="92.5" y="-230.9">
      519. 随机翻转矩阵
     </text>
    </a>
   </g>
  </g>
  <!-- 497&#45;&gt;519 -->
  <g class="edge" id="edge8">
   <title>
    497-&gt;519
   </title>
   <path d="M92.5,-287.7C92.5,-279.98 92.5,-270.71 92.5,-262.11" fill="none" stroke="lightgrey"/>
   <polygon fill="lightgrey" points="96,-262.1 92.5,-252.1 89,-262.1 96,-262.1" stroke="lightgrey"/>
  </g>
  <!-- 528 -->
  <g class="node" id="node8">
   <title>
    528
   </title>
   <g id="a_node8">
    <a target="_parent" xlink:href="https://leetcode-cn.com/problems/random-pick-with-weight" xlink:title="528. 按权重随机选择">
     <polygon fill="none" points="156.5,-180 28.5,-180 28.5,-144 156.5,-144 156.5,-180" stroke="orange"/>
     <text font-family="Microsoft YaHei" font-size="12.00" text-anchor="middle" x="92.5" y="-158.9">
      528. 按权重随机选择
     </text>
    </a>
   </g>
  </g>
  <!-- 519&#45;&gt;528 -->
  <g class="edge" id="edge9">
   <title>
    519-&gt;528
   </title>
   <path d="M92.5,-215.7C92.5,-207.98 92.5,-198.71 92.5,-190.11" fill="none" stroke="lightgrey"/>
   <polygon fill="lightgrey" points="96,-190.1 92.5,-180.1 89,-190.1 96,-190.1" stroke="lightgrey"/>
  </g>
  <!-- 710 -->
  <g class="node" id="node9">
   <title>
    710
   </title>
   <g id="a_node9">
    <a target="_parent" xlink:href="https://leetcode-cn.com/problems/random-pick-with-blacklist" xlink:title="710. 黑名单中的随机数">
     <polygon fill="none" points="162.5,-108 22.5,-108 22.5,-72 162.5,-72 162.5,-108" stroke="red"/>
     <text font-family="Microsoft YaHei" font-size="12.00" text-anchor="middle" x="92.5" y="-86.9">
      710. 黑名单中的随机数
     </text>
    </a>
   </g>
  </g>
  <!-- 528&#45;&gt;710 -->
  <g class="edge" id="edge10">
   <title>
    528-&gt;710
   </title>
   <path d="M92.5,-143.7C92.5,-135.98 92.5,-126.71 92.5,-118.11" fill="none" stroke="lightgrey"/>
   <polygon fill="lightgrey" points="96,-118.1 92.5,-108.1 89,-118.1 96,-118.1" stroke="lightgrey"/>
  </g>
  <!-- 382 -->
  <g class="node" id="node11">
   <title>
    382
   </title>
   <g id="a_node11">
    <a target="_parent" xlink:href="https://leetcode-cn.com/problems/linked-list-random-node" xlink:title="382. 链表随机节点">
     <polygon fill="none" points="321.5,-468 205.5,-468 205.5,-432 321.5,-432 321.5,-468" stroke="orange"/>
     <text font-family="Microsoft YaHei" font-size="12.00" text-anchor="middle" x="263.5" y="-446.9">
      382. 链表随机节点
     </text>
    </a>
   </g>
   <g transform="translate(313.5, -474.0) scale(0.3)">
    <circle cx="24" cy="24" fill="#4caf50" r="21"/>
    <polygon fill="#ccff90" points="34.6,14.6 21,28.2 15.4,22.6 12.6,25.4 21,33.8 37.4,17.4"/>
   </g>
  </g>
  <!-- 蓄水池采样&#45;&gt;382 -->
  <g class="edge" id="edge12">
   <title>
    蓄水池采样-&gt;382
   </title>
   <path d="M274.04,-503.7C272.5,-495.98 270.64,-486.71 268.92,-478.11" fill="none" stroke="lightgrey"/>
   <polygon fill="lightgrey" points="272.31,-477.22 266.92,-468.1 265.45,-478.6 272.31,-477.22" stroke="lightgrey"/>
  </g>
  <!-- 398 -->
  <g class="node" id="node12">
   <title>
    398
   </title>
   <g id="a_node12">
    <a target="_parent" xlink:href="https://leetcode-cn.com/problems/random-pick-index" xlink:title="398. 随机数索引">
     <polygon fill="none" points="287.5,-396 183.5,-396 183.5,-360 287.5,-360 287.5,-396" stroke="orange"/>
     <text font-family="Microsoft YaHei" font-size="12.00" text-anchor="middle" x="235.5" y="-374.9">
      398. 随机数索引
     </text>
    </a>
   </g>
   <g transform="translate(279.5, -402.0) scale(0.3)">
    <circle cx="24" cy="24" fill="#4caf50" r="21"/>
    <polygon fill="#ccff90" points="34.6,14.6 21,28.2 15.4,22.6 12.6,25.4 21,33.8 37.4,17.4"/>
   </g>
  </g>
  <!-- 382&#45;&gt;398 -->
  <g class="edge" id="edge13">
   <title>
    382-&gt;398
   </title>
   <path d="M256.58,-431.7C253.43,-423.81 249.62,-414.3 246.12,-405.55" fill="none" stroke="lightgrey"/>
   <polygon fill="lightgrey" points="249.31,-404.09 242.34,-396.1 242.81,-406.69 249.31,-404.09" stroke="lightgrey"/>
  </g>
  <!-- 329 -->
  <g class="node" id="node14">
   <title>
    329
   </title>
   <g id="a_node14">
    <a target="_parent" xlink:href="https://leetcode-cn.com/problems/longest-increasing-path-in-a-matrix" xlink:title="329. 矩阵中的最长递增路径">
     <polygon fill="none" points="435.5,-324 271.5,-324 271.5,-288 435.5,-288 435.5,-324" stroke="red"/>
     <text font-family="Microsoft YaHei" font-size="12.00" text-anchor="middle" x="353.5" y="-302.9">
      329. 矩阵中的最长递增路径
     </text>
    </a>
   </g>
  </g>
  <!-- 记忆化搜索&#45;&gt;329 -->
  <g class="edge" id="edge15">
   <title>
    记忆化搜索-&gt;329
   </title>
   <path d="M351.99,-359.7C352.21,-351.98 352.48,-342.71 352.73,-334.11" fill="none" stroke="lightgrey"/>
   <polygon fill="lightgrey" points="356.22,-334.2 353.01,-324.1 349.23,-334 356.22,-334.2" stroke="lightgrey"/>
  </g>
  <!-- 1203 -->
  <g class="node" id="node23">
   <title>
    1203
   </title>
   <g id="a_node23">
    <a target="_parent" xlink:href="https://leetcode-cn.com/problems/sort-items-by-groups-respecting-dependencies" xlink:title="1203. 项目管理">
     <polygon fill="none" points="402.5,-252 304.5,-252 304.5,-216 402.5,-216 402.5,-252" stroke="red"/>
     <text font-family="Microsoft YaHei" font-size="12.00" text-anchor="middle" x="353.5" y="-230.9">
      1203. 项目管理
     </text>
    </a>
   </g>
  </g>
  <!-- 329&#45;&gt;1203 -->
  <g class="edge" id="edge25">
   <title>
    329-&gt;1203
   </title>
   <path d="M353.5,-287.7C353.5,-279.98 353.5,-270.71 353.5,-262.11" fill="none" stroke="lightgrey"/>
   <polygon fill="lightgrey" points="357,-262.1 353.5,-252.1 350,-262.1 357,-262.1" stroke="lightgrey"/>
  </g>
  <!-- 1288 -->
  <g class="node" id="node16">
   <title>
    1288
   </title>
   <g id="a_node16">
    <a target="_parent" xlink:href="https://leetcode-cn.com/problems/remove-covered-intervals" xlink:title="1288. 删除被覆盖区间">
     <polygon fill="none" points="611.5,-468 477.5,-468 477.5,-432 611.5,-432 611.5,-468" stroke="orange"/>
     <text font-family="Microsoft YaHei" font-size="12.00" text-anchor="middle" x="544.5" y="-446.9">
      1288. 删除被覆盖区间
     </text>
    </a>
   </g>
   <g transform="translate(603.5, -474.0) scale(0.3)">
    <circle cx="24" cy="24" fill="#4caf50" r="21"/>
    <polygon fill="#ccff90" points="34.6,14.6 21,28.2 15.4,22.6 12.6,25.4 21,33.8 37.4,17.4"/>
   </g>
  </g>
  <!-- 扫描线&#45;&gt;1288 -->
  <g class="edge" id="edge17">
   <title>
    扫描线-&gt;1288
   </title>
   <path d="M537.72,-503.7C538.72,-495.98 539.91,-486.71 541.01,-478.11" fill="none" stroke="lightgrey"/>
   <polygon fill="lightgrey" points="544.5,-478.47 542.3,-468.1 537.55,-477.58 544.5,-478.47" stroke="lightgrey"/>
  </g>
  <!-- 218 -->
  <g class="node" id="node17">
   <title>
    218
   </title>
   <g id="a_node17">
    <a target="_parent" xlink:href="https://leetcode-cn.com/problems/the-skyline-problem" xlink:title="218. 天际线问题">
     <polygon fill="none" points="768.5,-396 664.5,-396 664.5,-360 768.5,-360 768.5,-396" stroke="red"/>
     <text font-family="Microsoft YaHei" font-size="12.00" text-anchor="middle" x="716.5" y="-374.9">
      218. 天际线问题
     </text>
    </a>
   </g>
   <g transform="translate(760.5, -402.0) scale(0.3)">
    <circle cx="24" cy="24" fill="#4caf50" r="21"/>
    <polygon fill="#ccff90" points="34.6,14.6 21,28.2 15.4,22.6 12.6,25.4 21,33.8 37.4,17.4"/>
   </g>
  </g>
  <!-- 1288&#45;&gt;218 -->
  <g class="edge" id="edge18">
   <title>
    1288-&gt;218
   </title>
   <path d="M586.58,-431.88C610.3,-422.22 640.12,-410.09 665.2,-399.88" fill="none" stroke="lightgrey"/>
   <polygon fill="lightgrey" points="666.62,-403.08 674.56,-396.07 663.98,-396.6 666.62,-403.08" stroke="lightgrey"/>
  </g>
  <!-- 391 -->
  <g class="node" id="node18">
   <title>
    391
   </title>
   <g id="a_node18">
    <a target="_parent" xlink:href="https://leetcode-cn.com/problems/perfect-rectangle" xlink:title="391. 完美矩形">
     <polygon fill="none" points="765.5,-324 673.5,-324 673.5,-288 765.5,-288 765.5,-324" stroke="red"/>
     <text font-family="Microsoft YaHei" font-size="12.00" text-anchor="middle" x="719.5" y="-302.9">
      391. 完美矩形
     </text>
    </a>
   </g>
  </g>
  <!-- 218&#45;&gt;391 -->
  <g class="edge" id="edge19">
   <title>
    218-&gt;391
   </title>
   <path d="M717.24,-359.7C717.57,-351.98 717.97,-342.71 718.34,-334.11" fill="none" stroke="lightgrey"/>
   <polygon fill="lightgrey" points="721.84,-334.25 718.77,-324.1 714.84,-333.95 721.84,-334.25" stroke="lightgrey"/>
  </g>
  <!-- 315 -->
  <g class="node" id="node31">
   <title>
    315
   </title>
   <g id="a_node31">
    <a target="_parent" xlink:href="https://leetcode-cn.com/problems/count-of-smaller-numbers-after-self" xlink:title="315. 计算右侧小于当前元素的个数">
     <polygon fill="none" points="655.5,-324 455.5,-324 455.5,-288 655.5,-288 655.5,-324" stroke="red"/>
     <text font-family="Microsoft YaHei" font-size="12.00" text-anchor="middle" x="555.5" y="-302.9">
      315. 计算右侧小于当前元素的个数
     </text>
    </a>
   </g>
  </g>
  <!-- 218&#45;&gt;315 -->
  <g class="edge" id="edge34">
   <title>
    218-&gt;315
   </title>
   <path d="M677.11,-359.88C655.11,-350.31 627.49,-338.3 604.14,-328.15" fill="none" stroke="lightgrey"/>
   <polygon fill="lightgrey" points="605.32,-324.85 594.76,-324.07 602.53,-331.27 605.32,-324.85" stroke="lightgrey"/>
  </g>
  <!-- 850 -->
  <g class="node" id="node19">
   <title>
    850
   </title>
   <g id="a_node19">
    <a target="_parent" xlink:href="https://leetcode-cn.com/problems/rectangle-area-ii" xlink:title="850. 矩形面积 II">
     <polygon fill="none" points="771,-252 668,-252 668,-216 771,-216 771,-252" stroke="red"/>
     <text font-family="Microsoft YaHei" font-size="12.00" text-anchor="middle" x="719.5" y="-230.9">
      850. 矩形面积 II
     </text>
    </a>
   </g>
  </g>
  <!-- 391&#45;&gt;850 -->
  <g class="edge" id="edge20">
   <title>
    391-&gt;850
   </title>
   <path d="M719.5,-287.7C719.5,-279.98 719.5,-270.71 719.5,-262.11" fill="none" stroke="lightgrey"/>
   <polygon fill="lightgrey" points="723,-262.1 719.5,-252.1 716,-262.1 723,-262.1" stroke="lightgrey"/>
  </g>
  <!-- 207 -->
  <g class="node" id="node21">
   <title>
    207
   </title>
   <g id="a_node21">
    <a target="_parent" xlink:href="https://leetcode-cn.com/problems/course-schedule" xlink:title="207. 课程表">
     <polygon fill="none" points="459.5,-468 379.5,-468 379.5,-432 459.5,-432 459.5,-468" stroke="orange"/>
     <text font-family="Microsoft YaHei" font-size="12.00" text-anchor="middle" x="419.5" y="-446.9">
      207. 课程表
     </text>
    </a>
   </g>
  </g>
  <!-- 拓扑排序&#45;&gt;207 -->
  <g class="edge" id="edge22">
   <title>
    拓扑排序-&gt;207
   </title>
   <path d="M432.3,-503.7C430.4,-495.9 428.12,-486.51 426.02,-477.83" fill="none" stroke="lightgrey"/>
   <polygon fill="lightgrey" points="429.42,-477 423.65,-468.1 422.61,-478.65 429.42,-477" stroke="lightgrey"/>
  </g>
  <!-- 210 -->
  <g class="node" id="node22">
   <title>
    210
   </title>
   <g id="a_node22">
    <a target="_parent" xlink:href="https://leetcode-cn.com/problems/course-schedule-ii" xlink:title="210. 课程表 II">
     <polygon fill="none" points="506,-396 415,-396 415,-360 506,-360 506,-396" stroke="orange"/>
     <text font-family="Microsoft YaHei" font-size="12.00" text-anchor="middle" x="460.5" y="-374.9">
      210. 课程表 II
     </text>
    </a>
   </g>
  </g>
  <!-- 207&#45;&gt;210 -->
  <g class="edge" id="edge23">
   <title>
    207-&gt;210
   </title>
   <path d="M429.63,-431.7C434.35,-423.64 440.06,-413.89 445.28,-404.98" fill="none" stroke="lightgrey"/>
   <polygon fill="lightgrey" points="448.45,-406.5 450.48,-396.1 442.41,-402.96 448.45,-406.5" stroke="lightgrey"/>
  </g>
  <!-- 210&#45;&gt;329 -->
  <g class="edge" id="edge24">
   <title>
    210-&gt;329
   </title>
   <path d="M434.32,-359.88C420.46,-350.81 403.26,-339.55 388.29,-329.76" fill="none" stroke="lightgrey"/>
   <polygon fill="lightgrey" points="390.06,-326.74 379.78,-324.19 386.23,-332.59 390.06,-326.74" stroke="lightgrey"/>
  </g>
  <!-- 538 -->
  <g class="node" id="node25">
   <title>
    538
   </title>
   <g id="a_node25">
    <a target="_parent" xlink:href="https://leetcode-cn.com/problems/convert-bst-to-greater-tree" xlink:title="538. 把二叉搜索树转换为累加树">
     <polygon fill="none" points="1011.5,-468 823.5,-468 823.5,-432 1011.5,-432 1011.5,-468" stroke="orange"/>
     <text font-family="Microsoft YaHei" font-size="12.00" text-anchor="middle" x="917.5" y="-446.9">
      538. 把二叉搜索树转换为累加树
     </text>
    </a>
   </g>
  </g>
  <!-- 二分查找树&#45;&gt;538 -->
  <g class="edge" id="edge27">
   <title>
    二分查找树-&gt;538
   </title>
   <path d="M863.3,-503.7C872.1,-495.14 882.88,-484.66 892.5,-475.3" fill="none" stroke="lightgrey"/>
   <polygon fill="lightgrey" points="895.18,-477.58 899.91,-468.1 890.3,-472.57 895.18,-477.58" stroke="lightgrey"/>
  </g>
  <!-- 1382 -->
  <g class="node" id="node26">
   <title>
    1382
   </title>
   <g id="a_node26">
    <a target="_parent" xlink:href="https://leetcode-cn.com/problems/balance-a-binary-search-tree" xlink:title="1382. 将二叉搜索树变平衡">
     <polygon fill="none" points="980.5,-396 822.5,-396 822.5,-360 980.5,-360 980.5,-396" stroke="orange"/>
     <text font-family="Microsoft YaHei" font-size="12.00" text-anchor="middle" x="901.5" y="-374.9">
      1382. 将二叉搜索树变平衡
     </text>
    </a>
   </g>
  </g>
  <!-- 538&#45;&gt;1382 -->
  <g class="edge" id="edge28">
   <title>
    538-&gt;1382
   </title>
   <path d="M913.54,-431.7C911.78,-423.98 909.66,-414.71 907.7,-406.11" fill="none" stroke="lightgrey"/>
   <polygon fill="lightgrey" points="911.05,-405.07 905.41,-396.1 904.23,-406.63 911.05,-405.07" stroke="lightgrey"/>
  </g>
  <!-- 1038 -->
  <g class="node" id="node27">
   <title>
    1038
   </title>
   <g id="a_node27">
    <a target="_parent" xlink:href="https://leetcode-cn.com/problems/binary-search-tree-to-greater-sum-tree" xlink:title="1038. 把二叉搜索树转换为累加树">
     <polygon fill="none" points="986.5,-324 792.5,-324 792.5,-288 986.5,-288 986.5,-324" stroke="orange"/>
     <text font-family="Microsoft YaHei" font-size="12.00" text-anchor="middle" x="889.5" y="-302.9">
      1038. 把二叉搜索树转换为累加树
     </text>
    </a>
   </g>
  </g>
  <!-- 1382&#45;&gt;1038 -->
  <g class="edge" id="edge29">
   <title>
    1382-&gt;1038
   </title>
   <path d="M898.53,-359.7C897.21,-351.98 895.62,-342.71 894.15,-334.11" fill="none" stroke="lightgrey"/>
   <polygon fill="lightgrey" points="897.57,-333.37 892.43,-324.1 890.67,-334.55 897.57,-333.37" stroke="lightgrey"/>
  </g>
  <!-- 1373 -->
  <g class="node" id="node28">
   <title>
    1373
   </title>
   <g id="a_node28">
    <a target="_parent" xlink:href="https://leetcode-cn.com/problems/maximum-sum-bst-in-binary-tree" xlink:title="1373. 二叉搜索子树的最大键值和">
     <polygon fill="none" points="986.5,-252 792.5,-252 792.5,-216 986.5,-216 986.5,-252" stroke="red"/>
     <text font-family="Microsoft YaHei" font-size="12.00" text-anchor="middle" x="889.5" y="-230.9">
      1373. 二叉搜索子树的最大键值和
     </text>
    </a>
   </g>
  </g>
  <!-- 1038&#45;&gt;1373 -->
  <g class="edge" id="edge30">
   <title>
    1038-&gt;1373
   </title>
   <path d="M889.5,-287.7C889.5,-279.98 889.5,-270.71 889.5,-262.11" fill="none" stroke="lightgrey"/>
   <polygon fill="lightgrey" points="893,-262.1 889.5,-252.1 886,-262.1 893,-262.1" stroke="lightgrey"/>
  </g>
  <!-- 307 -->
  <g class="node" id="node30">
   <title>
    307
   </title>
   <g id="a_node30">
    <a target="_parent" xlink:href="https://leetcode-cn.com/problems/range-sum-query-mutable" xlink:title="307. 区域和检索 - 数组可修改">
     <polygon fill="none" points="805.5,-468 629.5,-468 629.5,-432 805.5,-432 805.5,-468" stroke="orange"/>
     <text font-family="Microsoft YaHei" font-size="12.00" text-anchor="middle" x="717.5" y="-446.9">
      307. 区域和检索 - 数组可修改
     </text>
    </a>
   </g>
  </g>
  <!-- 树状数组&#45;&gt;307 -->
  <g class="edge" id="edge32">
   <title>
    树状数组-&gt;307
   </title>
   <path d="M682.87,-503.7C688.22,-495.56 694.7,-485.69 700.61,-476.7" fill="none" stroke="lightgrey"/>
   <polygon fill="lightgrey" points="703.69,-478.38 706.26,-468.1 697.84,-474.54 703.69,-478.38" stroke="lightgrey"/>
  </g>
  <!-- 307&#45;&gt;218 -->
  <g class="edge" id="edge33">
   <title>
    307-&gt;218
   </title>
   <path d="M717.25,-431.7C717.14,-423.98 717.01,-414.71 716.89,-406.11" fill="none" stroke="lightgrey"/>
   <polygon fill="lightgrey" points="720.39,-406.05 716.74,-396.1 713.39,-406.15 720.39,-406.05" stroke="lightgrey"/>
  </g>
  <!-- 327 -->
  <g class="node" id="node32">
   <title>
    327
   </title>
   <g id="a_node32">
    <a target="_parent" xlink:href="https://leetcode-cn.com/problems/count-of-range-sum" xlink:title="327. 区间和的个数">
     <polygon fill="none" points="613.5,-252 497.5,-252 497.5,-216 613.5,-216 613.5,-252" stroke="red"/>
     <text font-family="Microsoft YaHei" font-size="12.00" text-anchor="middle" x="555.5" y="-230.9">
      327. 区间和的个数
     </text>
    </a>
   </g>
  </g>
  <!-- 315&#45;&gt;327 -->
  <g class="edge" id="edge35">
   <title>
    315-&gt;327
   </title>
   <path d="M555.5,-287.7C555.5,-279.98 555.5,-270.71 555.5,-262.11" fill="none" stroke="lightgrey"/>
   <polygon fill="lightgrey" points="559,-262.1 555.5,-252.1 552,-262.1 559,-262.1" stroke="lightgrey"/>
  </g>
  <!-- 493 -->
  <g class="node" id="node33">
   <title>
    493
   </title>
   <g id="a_node33">
    <a target="_parent" xlink:href="https://leetcode-cn.com/problems/reverse-pairs" xlink:title="493. 翻转对">
     <polygon fill="none" points="595.5,-180 515.5,-180 515.5,-144 595.5,-144 595.5,-180" stroke="red"/>
     <text font-family="Microsoft YaHei" font-size="12.00" text-anchor="middle" x="555.5" y="-158.9">
      493. 翻转对
     </text>
    </a>
   </g>
  </g>
  <!-- 327&#45;&gt;493 -->
  <g class="edge" id="edge36">
   <title>
    327-&gt;493
   </title>
   <path d="M555.5,-215.7C555.5,-207.98 555.5,-198.71 555.5,-190.11" fill="none" stroke="lightgrey"/>
   <polygon fill="lightgrey" points="559,-190.1 555.5,-180.1 552,-190.1 559,-190.1" stroke="lightgrey"/>
  </g>
  <!-- 1649 -->
  <g class="node" id="node34">
   <title>
    1649
   </title>
   <g id="a_node34">
    <a target="_parent" xlink:href="https://leetcode-cn.com/problems/create-sorted-array-through-instructions" xlink:title="1649. 通过指令创建有序数组">
     <polygon fill="none" points="640.5,-108 470.5,-108 470.5,-72 640.5,-72 640.5,-108" stroke="red"/>
     <text font-family="Microsoft YaHei" font-size="12.00" text-anchor="middle" x="555.5" y="-86.9">
      1649. 通过指令创建有序数组
     </text>
    </a>
   </g>
  </g>
  <!-- 493&#45;&gt;1649 -->
  <g class="edge" id="edge37">
   <title>
    493-&gt;1649
   </title>
   <path d="M555.5,-143.7C555.5,-135.98 555.5,-126.71 555.5,-118.11" fill="none" stroke="lightgrey"/>
   <polygon fill="lightgrey" points="559,-118.1 555.5,-108.1 552,-118.1 559,-118.1" stroke="lightgrey"/>
  </g>
  <!-- 292 -->
  <g class="node" id="node36">
   <title>
    292
   </title>
   <g id="a_node36">
    <a target="_parent" xlink:href="https://leetcode-cn.com/problems/nim-game" xlink:title="292. Nim 游戏">
     <polygon fill="none" points="1125,-468 1030,-468 1030,-432 1125,-432 1125,-468" stroke="greenyellow"/>
     <text font-family="Microsoft YaHei" font-size="12.00" text-anchor="middle" x="1077.5" y="-446.9">
      292. Nim 游戏
     </text>
    </a>
   </g>
  </g>
  <!-- 智商题&#45;&gt;292 -->
  <g class="edge" id="edge39">
   <title>
    智商题-&gt;292
   </title>
   <path d="M1026.31,-503.7C1034.63,-495.14 1044.81,-484.66 1053.89,-475.3" fill="none" stroke="lightgrey"/>
   <polygon fill="lightgrey" points="1056.43,-477.72 1060.88,-468.1 1051.41,-472.84 1056.43,-477.72" stroke="lightgrey"/>
  </g>
  <!-- 521 -->
  <g class="node" id="node37">
   <title>
    521
   </title>
   <g id="a_node37">
    <a target="_parent" xlink:href="https://leetcode-cn.com/problems/longest-uncommon-subsequence-i" xlink:title="521. 最长特殊序列 Ⅰ">
     <polygon fill="none" points="1143,-396 1012,-396 1012,-360 1143,-360 1143,-396" stroke="greenyellow"/>
     <text font-family="Microsoft YaHei" font-size="12.00" text-anchor="middle" x="1077.5" y="-374.9">
      521. 最长特殊序列 Ⅰ
     </text>
    </a>
   </g>
  </g>
  <!-- 292&#45;&gt;521 -->
  <g class="edge" id="edge40">
   <title>
    292-&gt;521
   </title>
   <path d="M1077.5,-431.7C1077.5,-423.98 1077.5,-414.71 1077.5,-406.11" fill="none" stroke="lightgrey"/>
   <polygon fill="lightgrey" points="1081,-406.1 1077.5,-396.1 1074,-406.1 1081,-406.1" stroke="lightgrey"/>
  </g>
  <!-- 1033 -->
  <g class="node" id="node38">
   <title>
    1033
   </title>
   <g id="a_node38">
    <a target="_parent" xlink:href="https://leetcode-cn.com/problems/moving-stones-until-consecutive" xlink:title="1033. 移动石子直到连续">
     <polygon fill="none" points="1150.5,-324 1004.5,-324 1004.5,-288 1150.5,-288 1150.5,-324" stroke="greenyellow"/>
     <text font-family="Microsoft YaHei" font-size="12.00" text-anchor="middle" x="1077.5" y="-302.9">
      1033. 移动石子直到连续
     </text>
    </a>
   </g>
  </g>
  <!-- 521&#45;&gt;1033 -->
  <g class="edge" id="edge41">
   <title>
    521-&gt;1033
   </title>
   <path d="M1077.5,-359.7C1077.5,-351.98 1077.5,-342.71 1077.5,-334.11" fill="none" stroke="lightgrey"/>
   <polygon fill="lightgrey" points="1081,-334.1 1077.5,-324.1 1074,-334.1 1081,-334.1" stroke="lightgrey"/>
  </g>
  <!-- 319 -->
  <g class="node" id="node39">
   <title>
    319
   </title>
   <g id="a_node39">
    <a target="_parent" xlink:href="https://leetcode-cn.com/problems/bulb-switcher" xlink:title="319. 灯泡开关">
     <polygon fill="none" points="1110.5,-252 1018.5,-252 1018.5,-216 1110.5,-216 1110.5,-252" stroke="orange"/>
     <text font-family="Microsoft YaHei" font-size="12.00" text-anchor="middle" x="1064.5" y="-230.9">
      319. 灯泡开关
     </text>
    </a>
   </g>
  </g>
  <!-- 1033&#45;&gt;319 -->
  <g class="edge" id="edge42">
   <title>
    1033-&gt;319
   </title>
   <path d="M1074.29,-287.7C1072.85,-279.98 1071.13,-270.71 1069.54,-262.11" fill="none" stroke="lightgrey"/>
   <polygon fill="lightgrey" points="1072.94,-261.3 1067.68,-252.1 1066.06,-262.58 1072.94,-261.3" stroke="lightgrey"/>
  </g>
  <!-- 777 -->
  <g class="node" id="node40">
   <title>
    777
   </title>
   <g id="a_node40">
    <a target="_parent" xlink:href="https://leetcode-cn.com/problems/swap-adjacent-in-lr-string" xlink:title="777. 在LR字符串中交换相邻字符">
     <polygon fill="none" points="1156,-180 967,-180 967,-144 1156,-144 1156,-180" stroke="orange"/>
     <text font-family="Microsoft YaHei" font-size="12.00" text-anchor="middle" x="1061.5" y="-158.9">
      777. 在LR字符串中交换相邻字符
     </text>
    </a>
   </g>
  </g>
  <!-- 319&#45;&gt;777 -->
  <g class="edge" id="edge43">
   <title>
    319-&gt;777
   </title>
   <path d="M1063.76,-215.7C1063.43,-207.98 1063.03,-198.71 1062.66,-190.11" fill="none" stroke="lightgrey"/>
   <polygon fill="lightgrey" points="1066.16,-189.95 1062.23,-180.1 1059.16,-190.25 1066.16,-189.95" stroke="lightgrey"/>
  </g>
  <!-- 1227 -->
  <g class="node" id="node41">
   <title>
    1227
   </title>
   <g id="a_node41">
    <a target="_parent" xlink:href="https://leetcode-cn.com/problems/airplane-seat-assignment-probability" xlink:title="1227. 飞机座位分配概率">
     <polygon fill="none" points="1134.5,-108 988.5,-108 988.5,-72 1134.5,-72 1134.5,-108" stroke="orange"/>
     <text font-family="Microsoft YaHei" font-size="12.00" text-anchor="middle" x="1061.5" y="-86.9">
      1227. 飞机座位分配概率
     </text>
    </a>
   </g>
  </g>
  <!-- 777&#45;&gt;1227 -->
  <g class="edge" id="edge44">
   <title>
    777-&gt;1227
   </title>
   <path d="M1061.5,-143.7C1061.5,-135.98 1061.5,-126.71 1061.5,-118.11" fill="none" stroke="lightgrey"/>
   <polygon fill="lightgrey" points="1065,-118.1 1061.5,-108.1 1058,-118.1 1065,-118.1" stroke="lightgrey"/>
  </g>
  <!-- 1503 -->
  <g class="node" id="node42">
   <title>
    1503
   </title>
   <g id="a_node42">
    <a target="_parent" xlink:href="https://leetcode-cn.com/problems/last-moment-before-all-ants-fall-out-of-a-plank" xlink:title="1503. 所有蚂蚁掉下来前的最后一刻">
     <polygon fill="none" points="1164.5,-36 958.5,-36 958.5,0 1164.5,0 1164.5,-36" stroke="orange"/>
     <text font-family="Microsoft YaHei" font-size="12.00" text-anchor="middle" x="1061.5" y="-14.9">
      1503. 所有蚂蚁掉下来前的最后一刻
     </text>
    </a>
   </g>
  </g>
  <!-- 1227&#45;&gt;1503 -->
  <g class="edge" id="edge45">
   <title>
    1227-&gt;1503
   </title>
   <path d="M1061.5,-71.7C1061.5,-63.98 1061.5,-54.71 1061.5,-46.11" fill="none" stroke="lightgrey"/>
   <polygon fill="lightgrey" points="1065,-46.1 1061.5,-36.1 1058,-46.1 1065,-46.1" stroke="lightgrey"/>
  </g>
  <!-- 375 -->
  <g class="node" id="node44">
   <title>
    375
   </title>
   <g id="a_node44">
    <a target="_parent" xlink:href="https://leetcode-cn.com/problems/guess-number-higher-or-lower-ii" xlink:title="375. 猜数字大小 II">
     <polygon fill="none" points="1266,-468 1151,-468 1151,-432 1266,-432 1266,-468" stroke="orange"/>
     <text font-family="Microsoft YaHei" font-size="12.00" text-anchor="middle" x="1208.5" y="-446.9">
      375. 猜数字大小 II
     </text>
    </a>
   </g>
  </g>
  <!-- 最小最大值&#45;&gt;375 -->
  <g class="edge" id="edge47">
   <title>
    最小最大值-&gt;375
   </title>
   <path d="M1169.35,-503.7C1175.53,-495.39 1183.04,-485.28 1189.82,-476.14" fill="none" stroke="lightgrey"/>
   <polygon fill="lightgrey" points="1192.64,-478.22 1195.79,-468.1 1187.02,-474.04 1192.64,-478.22" stroke="lightgrey"/>
  </g>
  <!-- 464 -->
  <g class="node" id="node45">
   <title>
    464
   </title>
   <g id="a_node45">
    <a target="_parent" xlink:href="https://leetcode-cn.com/problems/can-i-win" xlink:title="464. 我能赢吗">
     <polygon fill="none" points="1261.5,-396 1169.5,-396 1169.5,-360 1261.5,-360 1261.5,-396" stroke="orange"/>
     <text font-family="Microsoft YaHei" font-size="12.00" text-anchor="middle" x="1215.5" y="-374.9">
      464. 我能赢吗
     </text>
    </a>
   </g>
  </g>
  <!-- 375&#45;&gt;464 -->
  <g class="edge" id="edge48">
   <title>
    375-&gt;464
   </title>
   <path d="M1210.23,-431.7C1211,-423.98 1211.93,-414.71 1212.79,-406.11" fill="none" stroke="lightgrey"/>
   <polygon fill="lightgrey" points="1216.28,-406.4 1213.79,-396.1 1209.31,-405.71 1216.28,-406.4" stroke="lightgrey"/>
  </g>
  <!-- 486 -->
  <g class="node" id="node46">
   <title>
    486
   </title>
   <g id="a_node46">
    <a target="_parent" xlink:href="https://leetcode-cn.com/problems/predict-the-winner" xlink:title="486. 预测赢家">
     <polygon fill="none" points="1270.5,-324 1178.5,-324 1178.5,-288 1270.5,-288 1270.5,-324" stroke="orange"/>
     <text font-family="Microsoft YaHei" font-size="12.00" text-anchor="middle" x="1224.5" y="-302.9">
      486. 预测赢家
     </text>
    </a>
   </g>
  </g>
  <!-- 464&#45;&gt;486 -->
  <g class="edge" id="edge49">
   <title>
    464-&gt;486
   </title>
   <path d="M1217.72,-359.7C1218.72,-351.98 1219.91,-342.71 1221.01,-334.11" fill="none" stroke="lightgrey"/>
   <polygon fill="lightgrey" points="1224.5,-334.47 1222.3,-324.1 1217.55,-333.58 1224.5,-334.47" stroke="lightgrey"/>
  </g>
  <!-- 877 -->
  <g class="node" id="node47">
   <title>
    877
   </title>
   <g id="a_node47">
    <a target="_parent" xlink:href="https://leetcode-cn.com/problems/stone-game" xlink:title="877. 石子游戏">
     <polygon fill="none" points="1273.5,-252 1181.5,-252 1181.5,-216 1273.5,-216 1273.5,-252" stroke="orange"/>
     <text font-family="Microsoft YaHei" font-size="12.00" text-anchor="middle" x="1227.5" y="-230.9">
      877. 石子游戏
     </text>
    </a>
   </g>
  </g>
  <!-- 486&#45;&gt;877 -->
  <g class="edge" id="edge50">
   <title>
    486-&gt;877
   </title>
   <path d="M1225.24,-287.7C1225.57,-279.98 1225.97,-270.71 1226.34,-262.11" fill="none" stroke="lightgrey"/>
   <polygon fill="lightgrey" points="1229.84,-262.25 1226.77,-252.1 1222.84,-261.95 1229.84,-262.25" stroke="lightgrey"/>
  </g>
  <!-- 843 -->
  <g class="node" id="node48">
   <title>
    843
   </title>
   <g id="a_node48">
    <a target="_parent" xlink:href="https://leetcode-cn.com/problems/guess-the-word" xlink:title="843. 猜猜这个单词">
     <polygon fill="none" points="1290.5,-180 1174.5,-180 1174.5,-144 1290.5,-144 1290.5,-180" stroke="red"/>
     <text font-family="Microsoft YaHei" font-size="12.00" text-anchor="middle" x="1232.5" y="-158.9">
      843. 猜猜这个单词
     </text>
    </a>
   </g>
  </g>
  <!-- 877&#45;&gt;843 -->
  <g class="edge" id="edge51">
   <title>
    877-&gt;843
   </title>
   <path d="M1228.74,-215.7C1229.29,-207.98 1229.95,-198.71 1230.56,-190.11" fill="none" stroke="lightgrey"/>
   <polygon fill="lightgrey" points="1234.06,-190.33 1231.28,-180.1 1227.07,-189.83 1234.06,-190.33" stroke="lightgrey"/>
  </g>
  <!-- 913 -->
  <g class="node" id="node49">
   <title>
    913
   </title>
   <g id="a_node49">
    <a target="_parent" xlink:href="https://leetcode-cn.com/problems/cat-and-mouse" xlink:title="913. 猫和老鼠">
     <polygon fill="none" points="1278.5,-108 1186.5,-108 1186.5,-72 1278.5,-72 1278.5,-108" stroke="red"/>
     <text font-family="Microsoft YaHei" font-size="12.00" text-anchor="middle" x="1232.5" y="-86.9">
      913. 猫和老鼠
     </text>
    </a>
   </g>
  </g>
  <!-- 843&#45;&gt;913 -->
  <g class="edge" id="edge52">
   <title>
    843-&gt;913
   </title>
   <path d="M1232.5,-143.7C1232.5,-135.98 1232.5,-126.71 1232.5,-118.11" fill="none" stroke="lightgrey"/>
   <polygon fill="lightgrey" points="1236,-118.1 1232.5,-108.1 1229,-118.1 1236,-118.1" stroke="lightgrey"/>
  </g>
  <g class="key">
   <defs>
    <filter height="1.2" id="solid" width="1.2" x="-0.1" y="-0.1">
     <feFlood flood-color="#ccff90" result="bg"/>
     <feMerge>
      <feMergeNode in="bg"/>
      <feMergeNode in="SourceGraphic"/>
     </feMerge>
    </filter>
   </defs>
   <text filter="url(#solid)" font-family="Microsoft YaHei" font-size="10.00" text-anchor="middle" x="263.5" y="-427.0">
    蓄水池采样入门
   </text>
  </g>
  <g class="key">
   <defs>
    <filter height="1.2" id="solid" width="1.2" x="-0.1" y="-0.1">
     <feFlood flood-color="#ccff90" result="bg"/>
     <feMerge>
      <feMergeNode in="bg"/>
      <feMergeNode in="SourceGraphic"/>
     </feMerge>
    </filter>
   </defs>
   <text filter="url(#solid)" font-family="Microsoft YaHei" font-size="10.00" text-anchor="middle" x="235.5" y="-355.0">
    蓄水池采样扩展
   </text>
  </g>
 </g>
</svg>