<?xml version="1.0" encoding="utf-8"?>
<!DOCTYPE svg PUBLIC "-//W3C//DTD SVG 1.1//EN" "http://www.w3.org/Graphics/SVG/1.1/DTD/svg11.dtd">
<!-- Generated by graphviz version 2.46.1 (20210213.1702)
 -->
<!-- Title: stones Pages: 1 -->
<svg height="598pt" viewBox="0.00 0.00 943.0 598.0" width="943pt" xmlns="http://www.w3.org/2000/svg" xmlns:xlink="http://www.w3.org/1999/xlink">
 <g class="graph" id="graph0" transform="scale(1 1) rotate(0) translate(4 544)">
  <title>
   stones
  </title>
  <polygon fill="white" points="-4,4 -4,-544 889,-544 889,4 -4,4" stroke="transparent"/>
  <!-- Leetcode&#45;链表 -->
  <g class="node" id="node1">
   <title>
    Leetcode-链表
   </title>
   <g id="a_node1">
    <a target="_parent" xlink:href="https://leetcode-cn.com/tag/linked-list" xlink:title="Leetcode-链表(26)">
     <polygon fill="orangered" points="393.5,-540 254.5,-540 254.5,-504 393.5,-504 393.5,-540" stroke="lightgrey"/>
     <text fill="white" font-family="Microsoft YaHei" font-size="14.00" text-anchor="middle" x="324" y="-518.3">
      Leetcode-链表(26)
     </text>
    </a>
   </g>
  </g>
  <!-- 链表第一题 -->
  <g class="node" id="node2">
   <title>
    链表第一题
   </title>
   <polygon fill="lightslategray" points="96.5,-468 5.5,-468 5.5,-432 96.5,-432 96.5,-468" stroke="lightgrey"/>
   <text fill="white" font-family="Microsoft YaHei" font-size="12.00" text-anchor="middle" x="51" y="-446.9">
    链表第一题(1)
   </text>
  </g>
  <!-- Leetcode&#45;链表&#45;&gt;链表第一题 -->
  <g class="edge" id="edge1">
   <title>
    Leetcode-链表-&gt;链表第一题
   </title>
   <path d="M254.22,-504.8C211.81,-494.72 156.63,-481.21 108,-468 107.54,-467.87 107.08,-467.75 106.61,-467.62" fill="none" stroke="lightgrey"/>
   <polygon fill="lightgrey" points="107.25,-464.17 96.68,-464.84 105.36,-470.91 107.25,-464.17" stroke="lightgrey"/>
  </g>
  <!-- 反转链表 -->
  <g class="node" id="node4">
   <title>
    反转链表
   </title>
   <polygon fill="lightslategray" points="196.5,-468 117.5,-468 117.5,-432 196.5,-432 196.5,-468" stroke="lightgrey"/>
   <text fill="white" font-family="Microsoft YaHei" font-size="12.00" text-anchor="middle" x="157" y="-446.9">
    反转链表(4)
   </text>
  </g>
  <!-- Leetcode&#45;链表&#45;&gt;反转链表 -->
  <g class="edge" id="edge3">
   <title>
    Leetcode-链表-&gt;反转链表
   </title>
   <path d="M283.15,-503.88C259.87,-494.12 230.56,-481.83 206.05,-471.56" fill="none" stroke="lightgrey"/>
   <polygon fill="lightgrey" points="207.14,-468.22 196.57,-467.59 204.44,-474.68 207.14,-468.22" stroke="lightgrey"/>
  </g>
  <!-- 构建新链表 -->
  <g class="node" id="node9">
   <title>
    构建新链表
   </title>
   <polygon fill="lightslategray" points="309.5,-468 218.5,-468 218.5,-432 309.5,-432 309.5,-468" stroke="lightgrey"/>
   <text fill="white" font-family="Microsoft YaHei" font-size="12.00" text-anchor="middle" x="264" y="-446.9">
    构建新链表(5)
   </text>
  </g>
  <!-- Leetcode&#45;链表&#45;&gt;构建新链表 -->
  <g class="edge" id="edge8">
   <title>
    Leetcode-链表-&gt;构建新链表
   </title>
   <path d="M309.17,-503.7C301.98,-495.3 293.2,-485.07 285.31,-475.86" fill="none" stroke="lightgrey"/>
   <polygon fill="lightgrey" points="287.83,-473.42 278.66,-468.1 282.51,-477.97 287.83,-473.42" stroke="lightgrey"/>
  </g>
  <!-- 链表和其他算法 -->
  <g class="node" id="node15">
   <title>
    链表和其他算法
   </title>
   <polygon fill="lightslategray" points="444.5,-468 329.5,-468 329.5,-432 444.5,-432 444.5,-468" stroke="lightgrey"/>
   <text fill="white" font-family="Microsoft YaHei" font-size="12.00" text-anchor="middle" x="387" y="-446.9">
    链表和其他算法(5)
   </text>
  </g>
  <!-- Leetcode&#45;链表&#45;&gt;链表和其他算法 -->
  <g class="edge" id="edge14">
   <title>
    Leetcode-链表-&gt;链表和其他算法
   </title>
   <path d="M339.57,-503.7C347.2,-495.22 356.52,-484.86 364.88,-475.58" fill="none" stroke="lightgrey"/>
   <polygon fill="lightgrey" points="367.52,-477.88 371.61,-468.1 362.31,-473.2 367.52,-477.88" stroke="lightgrey"/>
  </g>
  <!-- 快慢指针 -->
  <g class="node" id="node21">
   <title>
    快慢指针
   </title>
   <polygon fill="lightslategray" points="562.5,-468 483.5,-468 483.5,-432 562.5,-432 562.5,-468" stroke="lightgrey"/>
   <text fill="white" font-family="Microsoft YaHei" font-size="12.00" text-anchor="middle" x="523" y="-446.9">
    快慢指针(6)
   </text>
  </g>
  <!-- Leetcode&#45;链表&#45;&gt;快慢指针 -->
  <g class="edge" id="edge20">
   <title>
    Leetcode-链表-&gt;快慢指针
   </title>
   <path d="M372.43,-503.97C403.15,-493.16 442.8,-479.21 473.7,-468.34" fill="none" stroke="lightgrey"/>
   <polygon fill="lightgrey" points="475.13,-471.55 483.4,-464.93 472.8,-464.95 475.13,-471.55" stroke="lightgrey"/>
  </g>
  <!-- 删除链表 -->
  <g class="node" id="node28">
   <title>
    删除链表
   </title>
   <polygon fill="lightslategray" points="697.5,-468 618.5,-468 618.5,-432 697.5,-432 697.5,-468" stroke="lightgrey"/>
   <text fill="white" font-family="Microsoft YaHei" font-size="12.00" text-anchor="middle" x="658" y="-446.9">
    删除链表(5)
   </text>
  </g>
  <!-- Leetcode&#45;链表&#45;&gt;删除链表 -->
  <g class="edge" id="edge27">
   <title>
    Leetcode-链表-&gt;删除链表
   </title>
   <path d="M393.61,-506.41C457.82,-492.95 551.55,-473.31 608.44,-461.39" fill="none" stroke="lightgrey"/>
   <polygon fill="lightgrey" points="609.21,-464.8 618.28,-459.32 607.77,-457.95 609.21,-464.8" stroke="lightgrey"/>
  </g>
  <!-- 707 -->
  <g class="node" id="node3">
   <title>
    707
   </title>
   <g id="a_node3">
    <a target="_parent" xlink:href="https://leetcode-cn.com/problems/design-linked-list" xlink:title="707. 设计链表">
     <polygon fill="none" points="92,-396 0,-396 0,-360 92,-360 92,-396" stroke="orange"/>
     <text font-family="Microsoft YaHei" font-size="12.00" text-anchor="middle" x="46" y="-374.9">
      707. 设计链表
     </text>
    </a>
   </g>
   <g transform="translate(84.0, -402.0) scale(0.3)">
    <circle cx="24" cy="24" fill="#4caf50" r="21"/>
    <polygon fill="#ccff90" points="34.6,14.6 21,28.2 15.4,22.6 12.6,25.4 21,33.8 37.4,17.4"/>
   </g>
  </g>
  <!-- 链表第一题&#45;&gt;707 -->
  <g class="edge" id="edge2">
   <title>
    链表第一题-&gt;707
   </title>
   <path d="M49.76,-431.7C49.21,-423.98 48.55,-414.71 47.94,-406.11" fill="none" stroke="lightgrey"/>
   <polygon fill="lightgrey" points="51.43,-405.83 47.22,-396.1 44.44,-406.33 51.43,-405.83" stroke="lightgrey"/>
  </g>
  <!-- 206 -->
  <g class="node" id="node5">
   <title>
    206
   </title>
   <g id="a_node5">
    <a target="_parent" xlink:href="https://leetcode-cn.com/problems/reverse-linked-list" xlink:title="206. 反转链表">
     <polygon fill="none" points="202,-396 110,-396 110,-360 202,-360 202,-396" stroke="greenyellow"/>
     <text font-family="Microsoft YaHei" font-size="12.00" text-anchor="middle" x="156" y="-374.9">
      206. 反转链表
     </text>
    </a>
   </g>
   <g transform="translate(194.0, -402.0) scale(0.3)">
    <circle cx="24" cy="24" fill="#4caf50" r="21"/>
    <polygon fill="#ccff90" points="34.6,14.6 21,28.2 15.4,22.6 12.6,25.4 21,33.8 37.4,17.4"/>
   </g>
  </g>
  <!-- 反转链表&#45;&gt;206 -->
  <g class="edge" id="edge4">
   <title>
    反转链表-&gt;206
   </title>
   <path d="M156.75,-431.7C156.64,-423.98 156.51,-414.71 156.39,-406.11" fill="none" stroke="lightgrey"/>
   <polygon fill="lightgrey" points="159.89,-406.05 156.24,-396.1 152.89,-406.15 159.89,-406.05" stroke="lightgrey"/>
  </g>
  <!-- 24 -->
  <g class="node" id="node6">
   <title>
    24
   </title>
   <g id="a_node6">
    <a target="_parent" xlink:href="https://leetcode-cn.com/problems/swap-nodes-in-pairs" xlink:title="24. 两两交换链表中的节点">
     <polygon fill="none" points="158.5,-324 1.5,-324 1.5,-288 158.5,-288 158.5,-324" stroke="orange"/>
     <text font-family="Microsoft YaHei" font-size="12.00" text-anchor="middle" x="80" y="-302.9">
      24. 两两交换链表中的节点
     </text>
    </a>
   </g>
   <g transform="translate(150.5, -330.0) scale(0.3)">
    <circle cx="24" cy="24" fill="#4caf50" r="21"/>
    <polygon fill="#ccff90" points="34.6,14.6 21,28.2 15.4,22.6 12.6,25.4 21,33.8 37.4,17.4"/>
   </g>
  </g>
  <!-- 206&#45;&gt;24 -->
  <g class="edge" id="edge5">
   <title>
    206-&gt;24
   </title>
   <path d="M137.21,-359.7C127.83,-351.05 116.32,-340.45 106.09,-331.03" fill="none" stroke="lightgrey"/>
   <polygon fill="lightgrey" points="108.3,-328.3 98.57,-324.1 103.55,-333.45 108.3,-328.3" stroke="lightgrey"/>
  </g>
  <!-- 92 -->
  <g class="node" id="node7">
   <title>
    92
   </title>
   <g id="a_node7">
    <a target="_parent" xlink:href="https://leetcode-cn.com/problems/reverse-linked-list-ii" xlink:title="92. 反转链表 II">
     <polygon fill="none" points="128,-252 32,-252 32,-216 128,-216 128,-252" stroke="orange"/>
     <text font-family="Microsoft YaHei" font-size="12.00" text-anchor="middle" x="80" y="-230.9">
      92. 反转链表 II
     </text>
    </a>
   </g>
   <g transform="translate(120.0, -258.0) scale(0.3)">
    <circle cx="24" cy="24" fill="#4caf50" r="21"/>
    <polygon fill="#ccff90" points="34.6,14.6 21,28.2 15.4,22.6 12.6,25.4 21,33.8 37.4,17.4"/>
   </g>
   <g transform="translate(119.0, -225.0)">
    <symbol id="flask" viewBox="0 0 448 512">
     <path d="M437.2 403.5L320 215V64h8c13.3 0 24-10.7 24-24V24c0-13.3-10.7-24-24-24H120c-13.3 0-24 10.7-24 24v16c0 13.3 10.7 24 24 24h8v151L10.8 403.5C-18.5 450.6 15.3 512 70.9 512h306.2c55.7 0 89.4-61.5 60.1-108.5zM137.9 320l48.2-77.6c3.7-5.2 5.8-11.6 5.8-18.4V64h64v160c0 6.9 2.2 13.2 5.8 18.4l48.2 77.6h-172z" fill="#1389fd"/>
    </symbol>
    <a href="https://github.com/acm-clan/algorithm-stone/blob/main/user/leetcode/92.反转链表 II.md">
     <use height="18" href="#flask" width="18"/>
    </a>
   </g>
  </g>
  <!-- 24&#45;&gt;92 -->
  <g class="edge" id="edge6">
   <title>
    24-&gt;92
   </title>
   <path d="M80,-287.7C80,-279.98 80,-270.71 80,-262.11" fill="none" stroke="lightgrey"/>
   <polygon fill="lightgrey" points="83.5,-262.1 80,-252.1 76.5,-262.1 83.5,-262.1" stroke="lightgrey"/>
  </g>
  <!-- 25 -->
  <g class="node" id="node8">
   <title>
    25
   </title>
   <g id="a_node8">
    <a target="_parent" xlink:href="https://leetcode-cn.com/problems/reverse-nodes-in-k-group" xlink:title="25. K 个一组翻转链表">
     <polygon fill="none" points="146,-180 14,-180 14,-144 146,-144 146,-180" stroke="red"/>
     <text font-family="Microsoft YaHei" font-size="12.00" text-anchor="middle" x="80" y="-158.9">
      25. K 个一组翻转链表
     </text>
    </a>
   </g>
   <g transform="translate(138.0, -186.0) scale(0.3)">
    <circle cx="24" cy="24" fill="#4caf50" r="21"/>
    <polygon fill="#ccff90" points="34.6,14.6 21,28.2 15.4,22.6 12.6,25.4 21,33.8 37.4,17.4"/>
   </g>
  </g>
  <!-- 92&#45;&gt;25 -->
  <g class="edge" id="edge7">
   <title>
    92-&gt;25
   </title>
   <path d="M80,-215.7C80,-207.98 80,-198.71 80,-190.11" fill="none" stroke="lightgrey"/>
   <polygon fill="lightgrey" points="83.5,-190.1 80,-180.1 76.5,-190.1 83.5,-190.1" stroke="lightgrey"/>
  </g>
  <!-- 2 -->
  <g class="node" id="node10">
   <title>
    2
   </title>
   <g id="a_node10">
    <a target="_parent" xlink:href="https://leetcode-cn.com/problems/add-two-numbers" xlink:title="2. 两数相加">
     <polygon fill="none" points="298,-396 220,-396 220,-360 298,-360 298,-396" stroke="orange"/>
     <text font-family="Microsoft YaHei" font-size="12.00" text-anchor="middle" x="259" y="-374.9">
      2. 两数相加
     </text>
    </a>
   </g>
   <g transform="translate(290.0, -402.0) scale(0.3)">
    <circle cx="24" cy="24" fill="#4caf50" r="21"/>
    <polygon fill="#ccff90" points="34.6,14.6 21,28.2 15.4,22.6 12.6,25.4 21,33.8 37.4,17.4"/>
   </g>
  </g>
  <!-- 构建新链表&#45;&gt;2 -->
  <g class="edge" id="edge9">
   <title>
    构建新链表-&gt;2
   </title>
   <path d="M262.76,-431.7C262.21,-423.98 261.55,-414.71 260.94,-406.11" fill="none" stroke="lightgrey"/>
   <polygon fill="lightgrey" points="264.43,-405.83 260.22,-396.1 257.44,-406.33 264.43,-405.83" stroke="lightgrey"/>
  </g>
  <!-- 445 -->
  <g class="node" id="node11">
   <title>
    445
   </title>
   <g id="a_node11">
    <a target="_parent" xlink:href="https://leetcode-cn.com/problems/add-two-numbers-ii" xlink:title="445. 两数相加 II">
     <polygon fill="none" points="279.5,-324 176.5,-324 176.5,-288 279.5,-288 279.5,-324" stroke="orange"/>
     <text font-family="Microsoft YaHei" font-size="12.00" text-anchor="middle" x="228" y="-302.9">
      445. 两数相加 II
     </text>
    </a>
   </g>
   <g transform="translate(271.5, -330.0) scale(0.3)">
    <circle cx="24" cy="24" fill="#4caf50" r="21"/>
    <polygon fill="#ccff90" points="34.6,14.6 21,28.2 15.4,22.6 12.6,25.4 21,33.8 37.4,17.4"/>
   </g>
  </g>
  <!-- 2&#45;&gt;445 -->
  <g class="edge" id="edge10">
   <title>
    2-&gt;445
   </title>
   <path d="M251.34,-359.7C247.81,-351.73 243.54,-342.1 239.63,-333.26" fill="none" stroke="lightgrey"/>
   <polygon fill="lightgrey" points="242.82,-331.83 235.57,-324.1 236.42,-334.67 242.82,-331.83" stroke="lightgrey"/>
  </g>
  <!-- 86 -->
  <g class="node" id="node12">
   <title>
    86
   </title>
   <g id="a_node12">
    <a target="_parent" xlink:href="https://leetcode-cn.com/problems/partition-list" xlink:title="86. 分隔链表">
     <polygon fill="none" points="269.5,-252 184.5,-252 184.5,-216 269.5,-216 269.5,-252" stroke="orange"/>
     <text font-family="Microsoft YaHei" font-size="12.00" text-anchor="middle" x="227" y="-230.9">
      86. 分隔链表
     </text>
    </a>
   </g>
   <g transform="translate(261.5, -258.0) scale(0.3)">
    <circle cx="24" cy="24" fill="#4caf50" r="21"/>
    <polygon fill="#ccff90" points="34.6,14.6 21,28.2 15.4,22.6 12.6,25.4 21,33.8 37.4,17.4"/>
   </g>
  </g>
  <!-- 445&#45;&gt;86 -->
  <g class="edge" id="edge11">
   <title>
    445-&gt;86
   </title>
   <path d="M227.75,-287.7C227.64,-279.98 227.51,-270.71 227.39,-262.11" fill="none" stroke="lightgrey"/>
   <polygon fill="lightgrey" points="230.89,-262.05 227.24,-252.1 223.89,-262.15 230.89,-262.05" stroke="lightgrey"/>
  </g>
  <!-- 328 -->
  <g class="node" id="node13">
   <title>
    328
   </title>
   <g id="a_node13">
    <a target="_parent" xlink:href="https://leetcode-cn.com/problems/odd-even-linked-list" xlink:title="328. 奇偶链表">
     <polygon fill="none" points="272,-180 180,-180 180,-144 272,-144 272,-180" stroke="orange"/>
     <text font-family="Microsoft YaHei" font-size="12.00" text-anchor="middle" x="226" y="-158.9">
      328. 奇偶链表
     </text>
    </a>
   </g>
   <g transform="translate(264.0, -186.0) scale(0.3)">
    <circle cx="24" cy="24" fill="#4caf50" r="21"/>
    <polygon fill="#ccff90" points="34.6,14.6 21,28.2 15.4,22.6 12.6,25.4 21,33.8 37.4,17.4"/>
   </g>
  </g>
  <!-- 86&#45;&gt;328 -->
  <g class="edge" id="edge12">
   <title>
    86-&gt;328
   </title>
   <path d="M226.75,-215.7C226.64,-207.98 226.51,-198.71 226.39,-190.11" fill="none" stroke="lightgrey"/>
   <polygon fill="lightgrey" points="229.89,-190.05 226.24,-180.1 222.89,-190.15 229.89,-190.05" stroke="lightgrey"/>
  </g>
  <!-- 1669 -->
  <g class="node" id="node14">
   <title>
    1669
   </title>
   <g id="a_node14">
    <a target="_parent" xlink:href="https://leetcode-cn.com/problems/merge-in-between-linked-lists" xlink:title="1669. 合并两个链表">
     <polygon fill="none" points="279,-108 157,-108 157,-72 279,-72 279,-108" stroke="orange"/>
     <text font-family="Microsoft YaHei" font-size="12.00" text-anchor="middle" x="218" y="-86.9">
      1669. 合并两个链表
     </text>
    </a>
   </g>
   <g transform="translate(271.0, -114.0) scale(0.3)">
    <circle cx="24" cy="24" fill="#4caf50" r="21"/>
    <polygon fill="#ccff90" points="34.6,14.6 21,28.2 15.4,22.6 12.6,25.4 21,33.8 37.4,17.4"/>
   </g>
  </g>
  <!-- 328&#45;&gt;1669 -->
  <g class="edge" id="edge13">
   <title>
    328-&gt;1669
   </title>
   <path d="M224.02,-143.7C223.14,-135.98 222.08,-126.71 221.1,-118.11" fill="none" stroke="lightgrey"/>
   <polygon fill="lightgrey" points="224.57,-117.64 219.95,-108.1 217.61,-118.44 224.57,-117.64" stroke="lightgrey"/>
  </g>
  <!-- 1290 -->
  <g class="node" id="node16">
   <title>
    1290
   </title>
   <g id="a_node16">
    <a target="_parent" xlink:href="https://leetcode-cn.com/problems/convert-binary-number-in-a-linked-list-to-integer" xlink:title="1290. 二进制链表转整数">
     <polygon fill="none" points="462,-396 316,-396 316,-360 462,-360 462,-396" stroke="greenyellow"/>
     <text font-family="Microsoft YaHei" font-size="12.00" text-anchor="middle" x="389" y="-374.9">
      1290. 二进制链表转整数
     </text>
    </a>
   </g>
   <g transform="translate(454.0, -402.0) scale(0.3)">
    <circle cx="24" cy="24" fill="#4caf50" r="21"/>
    <polygon fill="#ccff90" points="34.6,14.6 21,28.2 15.4,22.6 12.6,25.4 21,33.8 37.4,17.4"/>
   </g>
  </g>
  <!-- 链表和其他算法&#45;&gt;1290 -->
  <g class="edge" id="edge15">
   <title>
    链表和其他算法-&gt;1290
   </title>
   <path d="M387.49,-431.7C387.71,-423.98 387.98,-414.71 388.23,-406.11" fill="none" stroke="lightgrey"/>
   <polygon fill="lightgrey" points="391.72,-406.2 388.51,-396.1 384.73,-406 391.72,-406.2" stroke="lightgrey"/>
  </g>
  <!-- 1019 -->
  <g class="node" id="node17">
   <title>
    1019
   </title>
   <g id="a_node17">
    <a target="_parent" xlink:href="https://leetcode-cn.com/problems/next-greater-node-in-linked-list" xlink:title="1019. 链表中的下一个更大节点">
     <polygon fill="none" points="480,-324 298,-324 298,-288 480,-288 480,-324" stroke="orange"/>
     <text font-family="Microsoft YaHei" font-size="12.00" text-anchor="middle" x="389" y="-302.9">
      1019. 链表中的下一个更大节点
     </text>
    </a>
   </g>
   <g transform="translate(472.0, -330.0) scale(0.3)">
    <circle cx="24" cy="24" fill="#4caf50" r="21"/>
    <polygon fill="#ccff90" points="34.6,14.6 21,28.2 15.4,22.6 12.6,25.4 21,33.8 37.4,17.4"/>
   </g>
  </g>
  <!-- 1290&#45;&gt;1019 -->
  <g class="edge" id="edge16">
   <title>
    1290-&gt;1019
   </title>
   <path d="M389,-359.7C389,-351.98 389,-342.71 389,-334.11" fill="none" stroke="lightgrey"/>
   <polygon fill="lightgrey" points="392.5,-334.1 389,-324.1 385.5,-334.1 392.5,-334.1" stroke="lightgrey"/>
  </g>
  <!-- 147 -->
  <g class="node" id="node18">
   <title>
    147
   </title>
   <g id="a_node18">
    <a target="_parent" xlink:href="https://leetcode-cn.com/problems/insertion-sort-list" xlink:title="147. 对链表进行插入排序">
     <polygon fill="none" points="465,-252 313,-252 313,-216 465,-216 465,-252" stroke="orange"/>
     <text font-family="Microsoft YaHei" font-size="12.00" text-anchor="middle" x="389" y="-230.9">
      147. 对链表进行插入排序
     </text>
    </a>
   </g>
   <g transform="translate(457.0, -258.0) scale(0.3)">
    <circle cx="24" cy="24" fill="#4caf50" r="21"/>
    <polygon fill="#ccff90" points="34.6,14.6 21,28.2 15.4,22.6 12.6,25.4 21,33.8 37.4,17.4"/>
   </g>
  </g>
  <!-- 1019&#45;&gt;147 -->
  <g class="edge" id="edge17">
   <title>
    1019-&gt;147
   </title>
   <path d="M389,-287.7C389,-279.98 389,-270.71 389,-262.11" fill="none" stroke="lightgrey"/>
   <polygon fill="lightgrey" points="392.5,-262.1 389,-252.1 385.5,-262.1 392.5,-262.1" stroke="lightgrey"/>
  </g>
  <!-- 148 -->
  <g class="node" id="node19">
   <title>
    148
   </title>
   <g id="a_node19">
    <a target="_parent" xlink:href="https://leetcode-cn.com/problems/sort-list" xlink:title="148. 排序链表">
     <polygon fill="none" points="433,-180 341,-180 341,-144 433,-144 433,-180" stroke="orange"/>
     <text font-family="Microsoft YaHei" font-size="12.00" text-anchor="middle" x="387" y="-158.9">
      148. 排序链表
     </text>
    </a>
   </g>
   <g transform="translate(425.0, -186.0) scale(0.3)">
    <circle cx="24" cy="24" fill="#4caf50" r="21"/>
    <polygon fill="#ccff90" points="34.6,14.6 21,28.2 15.4,22.6 12.6,25.4 21,33.8 37.4,17.4"/>
   </g>
  </g>
  <!-- 147&#45;&gt;148 -->
  <g class="edge" id="edge18">
   <title>
    147-&gt;148
   </title>
   <path d="M388.51,-215.7C388.29,-207.98 388.02,-198.71 387.77,-190.11" fill="none" stroke="lightgrey"/>
   <polygon fill="lightgrey" points="391.27,-190 387.49,-180.1 384.28,-190.2 391.27,-190" stroke="lightgrey"/>
  </g>
  <!-- 138 -->
  <g class="node" id="node20">
   <title>
    138
   </title>
   <g id="a_node20">
    <a target="_parent" xlink:href="https://leetcode-cn.com/problems/copy-list-with-random-pointer" xlink:title="138. 复制带随机指针的链表">
     <polygon fill="none" points="461,-108 297,-108 297,-72 461,-72 461,-108" stroke="orange"/>
     <text font-family="Microsoft YaHei" font-size="12.00" text-anchor="middle" x="379" y="-86.9">
      138. 复制带随机指针的链表
     </text>
    </a>
   </g>
   <g transform="translate(453.0, -114.0) scale(0.3)">
    <circle cx="24" cy="24" fill="#4caf50" r="21"/>
    <polygon fill="#ccff90" points="34.6,14.6 21,28.2 15.4,22.6 12.6,25.4 21,33.8 37.4,17.4"/>
   </g>
  </g>
  <!-- 148&#45;&gt;138 -->
  <g class="edge" id="edge19">
   <title>
    148-&gt;138
   </title>
   <path d="M385.02,-143.7C384.14,-135.98 383.08,-126.71 382.1,-118.11" fill="none" stroke="lightgrey"/>
   <polygon fill="lightgrey" points="385.57,-117.64 380.95,-108.1 378.61,-118.44 385.57,-117.64" stroke="lightgrey"/>
  </g>
  <!-- 876 -->
  <g class="node" id="node22">
   <title>
    876
   </title>
   <g id="a_node22">
    <a target="_parent" xlink:href="https://leetcode-cn.com/problems/middle-of-the-linked-list" xlink:title="876. 链表的中间结点">
     <polygon fill="none" points="612,-396 484,-396 484,-360 612,-360 612,-396" stroke="greenyellow"/>
     <text font-family="Microsoft YaHei" font-size="12.00" text-anchor="middle" x="548" y="-374.9">
      876. 链表的中间结点
     </text>
    </a>
   </g>
   <g transform="translate(604.0, -402.0) scale(0.3)">
    <circle cx="24" cy="24" fill="#4caf50" r="21"/>
    <polygon fill="#ccff90" points="34.6,14.6 21,28.2 15.4,22.6 12.6,25.4 21,33.8 37.4,17.4"/>
   </g>
  </g>
  <!-- 快慢指针&#45;&gt;876 -->
  <g class="edge" id="edge21">
   <title>
    快慢指针-&gt;876
   </title>
   <path d="M529.18,-431.7C532,-423.81 535.39,-414.3 538.52,-405.55" fill="none" stroke="lightgrey"/>
   <polygon fill="lightgrey" points="541.82,-406.7 541.89,-396.1 535.23,-404.34 541.82,-406.7" stroke="lightgrey"/>
  </g>
  <!-- 141 -->
  <g class="node" id="node23">
   <title>
    141
   </title>
   <g id="a_node23">
    <a target="_parent" xlink:href="https://leetcode-cn.com/problems/linked-list-cycle" xlink:title="141. 环形链表">
     <polygon fill="none" points="596,-324 504,-324 504,-288 596,-288 596,-324" stroke="greenyellow"/>
     <text font-family="Microsoft YaHei" font-size="12.00" text-anchor="middle" x="550" y="-302.9">
      141. 环形链表
     </text>
    </a>
   </g>
   <g transform="translate(588.0, -330.0) scale(0.3)">
    <circle cx="24" cy="24" fill="#4caf50" r="21"/>
    <polygon fill="#ccff90" points="34.6,14.6 21,28.2 15.4,22.6 12.6,25.4 21,33.8 37.4,17.4"/>
   </g>
  </g>
  <!-- 876&#45;&gt;141 -->
  <g class="edge" id="edge22">
   <title>
    876-&gt;141
   </title>
   <path d="M548.49,-359.7C548.71,-351.98 548.98,-342.71 549.23,-334.11" fill="none" stroke="lightgrey"/>
   <polygon fill="lightgrey" points="552.72,-334.2 549.51,-324.1 545.73,-334 552.72,-334.2" stroke="lightgrey"/>
  </g>
  <!-- 61 -->
  <g class="node" id="node24">
   <title>
    61
   </title>
   <g id="a_node24">
    <a target="_parent" xlink:href="https://leetcode-cn.com/problems/rotate-list" xlink:title="61. 旋转链表">
     <polygon fill="none" points="594.5,-252 509.5,-252 509.5,-216 594.5,-216 594.5,-252" stroke="orange"/>
     <text font-family="Microsoft YaHei" font-size="12.00" text-anchor="middle" x="552" y="-230.9">
      61. 旋转链表
     </text>
    </a>
   </g>
   <g transform="translate(586.5, -258.0) scale(0.3)">
    <circle cx="24" cy="24" fill="#4caf50" r="21"/>
    <polygon fill="#ccff90" points="34.6,14.6 21,28.2 15.4,22.6 12.6,25.4 21,33.8 37.4,17.4"/>
   </g>
  </g>
  <!-- 141&#45;&gt;61 -->
  <g class="edge" id="edge23">
   <title>
    141-&gt;61
   </title>
   <path d="M550.49,-287.7C550.71,-279.98 550.98,-270.71 551.23,-262.11" fill="none" stroke="lightgrey"/>
   <polygon fill="lightgrey" points="554.72,-262.2 551.51,-252.1 547.73,-262 554.72,-262.2" stroke="lightgrey"/>
  </g>
  <!-- 19 -->
  <g class="node" id="node25">
   <title>
    19
   </title>
   <g id="a_node25">
    <a target="_parent" xlink:href="https://leetcode-cn.com/problems/remove-nth-node-from-end-of-list" xlink:title="19. 删除链表的倒数第 N 个结点">
     <polygon fill="none" points="645,-180 459,-180 459,-144 645,-144 645,-180" stroke="orange"/>
     <text font-family="Microsoft YaHei" font-size="12.00" text-anchor="middle" x="552" y="-158.9">
      19. 删除链表的倒数第 N 个结点
     </text>
    </a>
   </g>
   <g transform="translate(637.0, -186.0) scale(0.3)">
    <circle cx="24" cy="24" fill="#4caf50" r="21"/>
    <polygon fill="#ccff90" points="34.6,14.6 21,28.2 15.4,22.6 12.6,25.4 21,33.8 37.4,17.4"/>
   </g>
  </g>
  <!-- 61&#45;&gt;19 -->
  <g class="edge" id="edge24">
   <title>
    61-&gt;19
   </title>
   <path d="M552,-215.7C552,-207.98 552,-198.71 552,-190.11" fill="none" stroke="lightgrey"/>
   <polygon fill="lightgrey" points="555.5,-190.1 552,-180.1 548.5,-190.1 555.5,-190.1" stroke="lightgrey"/>
  </g>
  <!-- 1721 -->
  <g class="node" id="node26">
   <title>
    1721
   </title>
   <g id="a_node26">
    <a target="_parent" xlink:href="https://leetcode-cn.com/problems/swapping-nodes-in-a-linked-list" xlink:title="1721. 交换链表中的节点">
     <polygon fill="none" points="625,-108 479,-108 479,-72 625,-72 625,-108" stroke="orange"/>
     <text font-family="Microsoft YaHei" font-size="12.00" text-anchor="middle" x="552" y="-86.9">
      1721. 交换链表中的节点
     </text>
    </a>
   </g>
   <g transform="translate(617.0, -114.0) scale(0.3)">
    <circle cx="24" cy="24" fill="#4caf50" r="21"/>
    <polygon fill="#ccff90" points="34.6,14.6 21,28.2 15.4,22.6 12.6,25.4 21,33.8 37.4,17.4"/>
   </g>
  </g>
  <!-- 19&#45;&gt;1721 -->
  <g class="edge" id="edge25">
   <title>
    19-&gt;1721
   </title>
   <path d="M552,-143.7C552,-135.98 552,-126.71 552,-118.11" fill="none" stroke="lightgrey"/>
   <polygon fill="lightgrey" points="555.5,-118.1 552,-108.1 548.5,-118.1 555.5,-118.1" stroke="lightgrey"/>
  </g>
  <!-- 142 -->
  <g class="node" id="node27">
   <title>
    142
   </title>
   <g id="a_node27">
    <a target="_parent" xlink:href="https://leetcode-cn.com/problems/linked-list-cycle-ii" xlink:title="142. 环形链表 II">
     <polygon fill="none" points="603.5,-36 500.5,-36 500.5,0 603.5,0 603.5,-36" stroke="orange"/>
     <text font-family="Microsoft YaHei" font-size="12.00" text-anchor="middle" x="552" y="-14.9">
      142. 环形链表 II
     </text>
    </a>
   </g>
   <g transform="translate(595.5, -42.0) scale(0.3)">
    <circle cx="24" cy="24" fill="#4caf50" r="21"/>
    <polygon fill="#ccff90" points="34.6,14.6 21,28.2 15.4,22.6 12.6,25.4 21,33.8 37.4,17.4"/>
   </g>
   <g transform="translate(594.5, -9.0)">
    <symbol id="flask" viewBox="0 0 448 512">
     <path d="M437.2 403.5L320 215V64h8c13.3 0 24-10.7 24-24V24c0-13.3-10.7-24-24-24H120c-13.3 0-24 10.7-24 24v16c0 13.3 10.7 24 24 24h8v151L10.8 403.5C-18.5 450.6 15.3 512 70.9 512h306.2c55.7 0 89.4-61.5 60.1-108.5zM137.9 320l48.2-77.6c3.7-5.2 5.8-11.6 5.8-18.4V64h64v160c0 6.9 2.2 13.2 5.8 18.4l48.2 77.6h-172z" fill="#1389fd"/>
    </symbol>
    <a href="https://github.com/acm-clan/algorithm-stone/blob/main/user/leetcode/142. 环形链表 II.md">
     <use height="18" href="#flask" width="18"/>
    </a>
   </g>
  </g>
  <!-- 1721&#45;&gt;142 -->
  <g class="edge" id="edge26">
   <title>
    1721-&gt;142
   </title>
   <path d="M552,-71.7C552,-63.98 552,-54.71 552,-46.11" fill="none" stroke="lightgrey"/>
   <polygon fill="lightgrey" points="555.5,-46.1 552,-36.1 548.5,-46.1 555.5,-46.1" stroke="lightgrey"/>
  </g>
  <!-- 237 -->
  <g class="node" id="node29">
   <title>
    237
   </title>
   <g id="a_node29">
    <a target="_parent" xlink:href="https://leetcode-cn.com/problems/delete-node-in-a-linked-list" xlink:title="237. 删除链表中的节点">
     <polygon fill="none" points="772,-396 632,-396 632,-360 772,-360 772,-396" stroke="greenyellow"/>
     <text font-family="Microsoft YaHei" font-size="12.00" text-anchor="middle" x="702" y="-374.9">
      237. 删除链表中的节点
     </text>
    </a>
   </g>
   <g transform="translate(764.0, -402.0) scale(0.3)">
    <circle cx="24" cy="24" fill="#4caf50" r="21"/>
    <polygon fill="#ccff90" points="34.6,14.6 21,28.2 15.4,22.6 12.6,25.4 21,33.8 37.4,17.4"/>
   </g>
  </g>
  <!-- 删除链表&#45;&gt;237 -->
  <g class="edge" id="edge28">
   <title>
    删除链表-&gt;237
   </title>
   <path d="M668.88,-431.7C673.99,-423.56 680.2,-413.69 685.84,-404.7" fill="none" stroke="lightgrey"/>
   <polygon fill="lightgrey" points="688.89,-406.43 691.25,-396.1 682.96,-402.71 688.89,-406.43" stroke="lightgrey"/>
  </g>
  <!-- 203 -->
  <g class="node" id="node30">
   <title>
    203
   </title>
   <g id="a_node30">
    <a target="_parent" xlink:href="https://leetcode-cn.com/problems/remove-linked-list-elements" xlink:title="203. 移除链表元素">
     <polygon fill="none" points="761,-324 645,-324 645,-288 761,-288 761,-324" stroke="greenyellow"/>
     <text font-family="Microsoft YaHei" font-size="12.00" text-anchor="middle" x="703" y="-302.9">
      203. 移除链表元素
     </text>
    </a>
   </g>
   <g transform="translate(753.0, -330.0) scale(0.3)">
    <circle cx="24" cy="24" fill="#4caf50" r="21"/>
    <polygon fill="#ccff90" points="34.6,14.6 21,28.2 15.4,22.6 12.6,25.4 21,33.8 37.4,17.4"/>
   </g>
  </g>
  <!-- 237&#45;&gt;203 -->
  <g class="edge" id="edge29">
   <title>
    237-&gt;203
   </title>
   <path d="M702.25,-359.7C702.36,-351.98 702.49,-342.71 702.61,-334.11" fill="none" stroke="lightgrey"/>
   <polygon fill="lightgrey" points="706.11,-334.15 702.76,-324.1 699.11,-334.05 706.11,-334.15" stroke="lightgrey"/>
  </g>
  <!-- 83 -->
  <g class="node" id="node31">
   <title>
    83
   </title>
   <g id="a_node31">
    <a target="_parent" xlink:href="https://leetcode-cn.com/problems/remove-duplicates-from-sorted-list" xlink:title="83. 删除排序链表中的重复元素">
     <polygon fill="none" points="793.5,-252 612.5,-252 612.5,-216 793.5,-216 793.5,-252" stroke="greenyellow"/>
     <text font-family="Microsoft YaHei" font-size="12.00" text-anchor="middle" x="703" y="-230.9">
      83. 删除排序链表中的重复元素
     </text>
    </a>
   </g>
   <g transform="translate(785.5, -258.0) scale(0.3)">
    <circle cx="24" cy="24" fill="#4caf50" r="21"/>
    <polygon fill="#ccff90" points="34.6,14.6 21,28.2 15.4,22.6 12.6,25.4 21,33.8 37.4,17.4"/>
   </g>
  </g>
  <!-- 203&#45;&gt;83 -->
  <g class="edge" id="edge30">
   <title>
    203-&gt;83
   </title>
   <path d="M703,-287.7C703,-279.98 703,-270.71 703,-262.11" fill="none" stroke="lightgrey"/>
   <polygon fill="lightgrey" points="706.5,-262.1 703,-252.1 699.5,-262.1 706.5,-262.1" stroke="lightgrey"/>
  </g>
  <!-- 82 -->
  <g class="node" id="node32">
   <title>
    82
   </title>
   <g id="a_node32">
    <a target="_parent" xlink:href="https://leetcode-cn.com/problems/remove-duplicates-from-sorted-list-ii" xlink:title="82. 删除排序链表中的重复元素 II">
     <polygon fill="none" points="858,-180 666,-180 666,-144 858,-144 858,-180" stroke="orange"/>
     <text font-family="Microsoft YaHei" font-size="12.00" text-anchor="middle" x="762" y="-158.9">
      82. 删除排序链表中的重复元素 II
     </text>
    </a>
   </g>
   <g transform="translate(850.0, -186.0) scale(0.3)">
    <circle cx="24" cy="24" fill="#4caf50" r="21"/>
    <polygon fill="#ccff90" points="34.6,14.6 21,28.2 15.4,22.6 12.6,25.4 21,33.8 37.4,17.4"/>
   </g>
  </g>
  <!-- 83&#45;&gt;82 -->
  <g class="edge" id="edge31">
   <title>
    83-&gt;82
   </title>
   <path d="M717.58,-215.7C724.66,-207.3 733.28,-197.07 741.05,-187.86" fill="none" stroke="lightgrey"/>
   <polygon fill="lightgrey" points="743.81,-190.01 747.58,-180.1 738.46,-185.49 743.81,-190.01" stroke="lightgrey"/>
  </g>
  <!-- 1171 -->
  <g class="node" id="node33">
   <title>
    1171
   </title>
   <g id="a_node33">
    <a target="_parent" xlink:href="https://leetcode-cn.com/problems/remove-zero-sum-consecutive-nodes-from-linked-list" xlink:title="1171. 从链表中删去总和值为零的连续节点">
     <polygon fill="none" points="885,-108 643,-108 643,-72 885,-72 885,-108" stroke="orange"/>
     <text font-family="Microsoft YaHei" font-size="12.00" text-anchor="middle" x="764" y="-86.9">
      1171. 从链表中删去总和值为零的连续节点
     </text>
    </a>
   </g>
   <g transform="translate(877.0, -114.0) scale(0.3)">
    <circle cx="24" cy="24" fill="#4caf50" r="21"/>
    <polygon fill="#ccff90" points="34.6,14.6 21,28.2 15.4,22.6 12.6,25.4 21,33.8 37.4,17.4"/>
   </g>
  </g>
  <!-- 82&#45;&gt;1171 -->
  <g class="edge" id="edge32">
   <title>
    82-&gt;1171
   </title>
   <path d="M762.49,-143.7C762.71,-135.98 762.98,-126.71 763.23,-118.11" fill="none" stroke="lightgrey"/>
   <polygon fill="lightgrey" points="766.72,-118.2 763.51,-108.1 759.73,-118 766.72,-118.2" stroke="lightgrey"/>
  </g>
  <g class="key">
   <defs>
    <filter height="1.2" id="solid" width="1.2" x="-0.1" y="-0.1">
     <feFlood flood-color="#ccff90" result="bg"/>
     <feMerge>
      <feMergeNode in="bg"/>
      <feMergeNode in="SourceGraphic"/>
     </feMerge>
    </filter>
   </defs>
   <text filter="url(#solid)" font-family="Microsoft YaHei" font-size="10.00" text-anchor="middle" x="46.0" y="-355.0">
    链表增删改查
   </text>
  </g>
  <g class="key">
   <defs>
    <filter height="1.2" id="solid" width="1.2" x="-0.1" y="-0.1">
     <feFlood flood-color="#ccff90" result="bg"/>
     <feMerge>
      <feMergeNode in="bg"/>
      <feMergeNode in="SourceGraphic"/>
     </feMerge>
    </filter>
   </defs>
   <text filter="url(#solid)" font-family="Microsoft YaHei" font-size="10.00" text-anchor="middle" x="389.0" y="-355.0">
    位运算
   </text>
  </g>
  <g class="key">
   <defs>
    <filter height="1.2" id="solid" width="1.2" x="-0.1" y="-0.1">
     <feFlood flood-color="#ccff90" result="bg"/>
     <feMerge>
      <feMergeNode in="bg"/>
      <feMergeNode in="SourceGraphic"/>
     </feMerge>
    </filter>
   </defs>
   <text filter="url(#solid)" font-family="Microsoft YaHei" font-size="10.00" text-anchor="middle" x="389.0" y="-283.0">
    单调栈
   </text>
  </g>
  <g class="key">
   <defs>
    <filter height="1.2" id="solid" width="1.2" x="-0.1" y="-0.1">
     <feFlood flood-color="#ccff90" result="bg"/>
     <feMerge>
      <feMergeNode in="bg"/>
      <feMergeNode in="SourceGraphic"/>
     </feMerge>
    </filter>
   </defs>
   <text filter="url(#solid)" font-family="Microsoft YaHei" font-size="10.00" text-anchor="middle" x="389.0" y="-211.0">
    插入排序
   </text>
  </g>
  <g class="key">
   <defs>
    <filter height="1.2" id="solid" width="1.2" x="-0.1" y="-0.1">
     <feFlood flood-color="#ccff90" result="bg"/>
     <feMerge>
      <feMergeNode in="bg"/>
      <feMergeNode in="SourceGraphic"/>
     </feMerge>
    </filter>
   </defs>
   <text filter="url(#solid)" font-family="Microsoft YaHei" font-size="10.00" text-anchor="middle" x="387.0" y="-139.0">
    添加非递归的方法
   </text>
  </g>
  <g class="key">
   <defs>
    <filter height="1.2" id="solid" width="1.2" x="-0.1" y="-0.1">
     <feFlood flood-color="#ccff90" result="bg"/>
     <feMerge>
      <feMergeNode in="bg"/>
      <feMergeNode in="SourceGraphic"/>
     </feMerge>
    </filter>
   </defs>
   <text filter="url(#solid)" font-family="Microsoft YaHei" font-size="10.00" text-anchor="middle" x="379.0" y="-67.0">
    map映射
   </text>
  </g>
  <g class="key">
   <defs>
    <filter height="1.2" id="solid" width="1.2" x="-0.1" y="-0.1">
     <feFlood flood-color="#ccff90" result="bg"/>
     <feMerge>
      <feMergeNode in="bg"/>
      <feMergeNode in="SourceGraphic"/>
     </feMerge>
    </filter>
   </defs>
   <text filter="url(#solid)" font-family="Microsoft YaHei" font-size="10.00" text-anchor="middle" x="552.0" y="5.0">
    公式推理
   </text>
  </g>
  <g class="key">
   <defs>
    <filter height="1.2" id="solid" width="1.2" x="-0.1" y="-0.1">
     <feFlood flood-color="#ccff90" result="bg"/>
     <feMerge>
      <feMergeNode in="bg"/>
      <feMergeNode in="SourceGraphic"/>
     </feMerge>
    </filter>
   </defs>
   <text filter="url(#solid)" font-family="Microsoft YaHei" font-size="10.00" text-anchor="middle" x="702.0" y="-355.0">
    简单删除
   </text>
  </g>
  <g class="key">
   <defs>
    <filter height="1.2" id="solid" width="1.2" x="-0.1" y="-0.1">
     <feFlood flood-color="#ccff90" result="bg"/>
     <feMerge>
      <feMergeNode in="bg"/>
      <feMergeNode in="SourceGraphic"/>
     </feMerge>
    </filter>
   </defs>
   <text filter="url(#solid)" font-family="Microsoft YaHei" font-size="10.00" text-anchor="middle" x="703.0" y="-283.0">
    删除多个
   </text>
  </g>
  <g class="key">
   <defs>
    <filter height="1.2" id="solid" width="1.2" x="-0.1" y="-0.1">
     <feFlood flood-color="#ccff90" result="bg"/>
     <feMerge>
      <feMergeNode in="bg"/>
      <feMergeNode in="SourceGraphic"/>
     </feMerge>
    </filter>
   </defs>
   <text filter="url(#solid)" font-family="Microsoft YaHei" font-size="10.00" text-anchor="middle" x="764.0" y="-67.0">
    区间和
   </text>
  </g>
 </g>
</svg>