<?xml version="1.0" encoding="utf-8"?>
<!DOCTYPE svg PUBLIC "-//W3C//DTD SVG 1.1//EN" "http://www.w3.org/Graphics/SVG/1.1/DTD/svg11.dtd">
<!-- Generated by graphviz version 2.46.1 (20210213.1702)
 -->
<!-- Title: stones Pages: 1 -->
<svg height="670pt" viewBox="0.00 0.00 1415.5 670.0" width="1416pt" xmlns="http://www.w3.org/2000/svg" xmlns:xlink="http://www.w3.org/1999/xlink">
 <g class="graph" id="graph0" transform="scale(1 1) rotate(0) translate(4 616)">
  <title>
   stones
  </title>
  <polygon fill="white" points="-4,4 -4,-616 1361.5,-616 1361.5,4 -4,4" stroke="transparent"/>
  <!-- Leetcode&#45;小众题 -->
  <g class="node" id="node1">
   <title>
    Leetcode-小众题
   </title>
   <g id="a_node1">
    <a target="_parent" xlink:href="https://leetcode-cn.com/tag/" xlink:title="Leetcode-小众题(43)">
     <polygon fill="orangered" points="618.5,-612 464.5,-612 464.5,-576 618.5,-576 618.5,-612" stroke="lightgrey"/>
     <text fill="white" font-family="Microsoft YaHei" font-size="14.00" text-anchor="middle" x="541.5" y="-590.3">
      Leetcode-小众题(43)
     </text>
    </a>
   </g>
  </g>
  <!-- 拒绝采样 -->
  <g class="node" id="node2">
   <title>
    拒绝采样
   </title>
   <polygon fill="lightslategray" points="154,-540 75,-540 75,-504 154,-504 154,-540" stroke="lightgrey"/>
   <text fill="white" font-family="Microsoft YaHei" font-size="12.00" text-anchor="middle" x="114.5" y="-518.9">
    拒绝采样(2)
   </text>
  </g>
  <!-- Leetcode&#45;小众题&#45;&gt;拒绝采样 -->
  <g class="edge" id="edge1">
   <title>
    Leetcode-小众题-&gt;拒绝采样
   </title>
   <path d="M464.47,-584.62C390.26,-575.88 275.06,-560.59 176.5,-540 172.38,-539.14 168.13,-538.16 163.88,-537.13" fill="none" stroke="lightgrey"/>
   <polygon fill="lightgrey" points="164.57,-533.69 154.01,-534.62 162.84,-540.47 164.57,-533.69" stroke="lightgrey"/>
  </g>
  <!-- 随机数 -->
  <g class="node" id="node5">
   <title>
    随机数
   </title>
   <polygon fill="lightslategray" points="253,-540 186,-540 186,-504 253,-504 253,-540" stroke="lightgrey"/>
   <text fill="white" font-family="Microsoft YaHei" font-size="12.00" text-anchor="middle" x="219.5" y="-518.9">
    随机数(6)
   </text>
  </g>
  <!-- Leetcode&#45;小众题&#45;&gt;随机数 -->
  <g class="edge" id="edge4">
   <title>
    Leetcode-小众题-&gt;随机数
   </title>
   <path d="M464.34,-581.03C409.3,-571.77 333.77,-557.56 268.5,-540 266.61,-539.49 264.69,-538.95 262.75,-538.37" fill="none" stroke="lightgrey"/>
   <polygon fill="lightgrey" points="263.63,-534.98 253.04,-535.34 261.54,-541.67 263.63,-534.98" stroke="lightgrey"/>
  </g>
  <!-- 蓄水池采样 -->
  <g class="node" id="node10">
   <title>
    蓄水池采样
   </title>
   <polygon fill="lightslategray" points="369,-540 278,-540 278,-504 369,-504 369,-540" stroke="lightgrey"/>
   <text fill="white" font-family="Microsoft YaHei" font-size="12.00" text-anchor="middle" x="323.5" y="-518.9">
    蓄水池采样(2)
   </text>
  </g>
  <!-- Leetcode&#45;小众题&#45;&gt;蓄水池采样 -->
  <g class="edge" id="edge11">
   <title>
    Leetcode-小众题-&gt;蓄水池采样
   </title>
   <path d="M488.45,-575.97C455.18,-565.28 412.38,-551.54 378.71,-540.73" fill="none" stroke="lightgrey"/>
   <polygon fill="lightgrey" points="379.62,-537.34 369.03,-537.62 377.48,-544.01 379.62,-537.34" stroke="lightgrey"/>
  </g>
  <!-- 记忆化搜索 -->
  <g class="node" id="node13">
   <title>
    记忆化搜索
   </title>
   <polygon fill="lightslategray" points="429,-468 338,-468 338,-432 429,-432 429,-468" stroke="lightgrey"/>
   <text fill="white" font-family="Microsoft YaHei" font-size="12.00" text-anchor="middle" x="383.5" y="-446.9">
    记忆化搜索(1)
   </text>
  </g>
  <!-- Leetcode&#45;小众题&#45;&gt;记忆化搜索 -->
  <g class="edge" id="edge14">
   <title>
    Leetcode-小众题-&gt;记忆化搜索
   </title>
   <path d="M500.54,-575.95C482.11,-567 460.87,-554.8 444.5,-540 424.56,-521.97 407.8,-496.19 396.93,-477.01" fill="none" stroke="lightgrey"/>
   <polygon fill="lightgrey" points="399.96,-475.26 392.08,-468.18 393.83,-478.63 399.96,-475.26" stroke="lightgrey"/>
  </g>
  <!-- 扫描线 -->
  <g class="node" id="node15">
   <title>
    扫描线
   </title>
   <polygon fill="lightslategray" points="792,-540 725,-540 725,-504 792,-504 792,-540" stroke="lightgrey"/>
   <text fill="white" font-family="Microsoft YaHei" font-size="12.00" text-anchor="middle" x="758.5" y="-518.9">
    扫描线(4)
   </text>
  </g>
  <!-- Leetcode&#45;小众题&#45;&gt;扫描线 -->
  <g class="edge" id="edge16">
   <title>
    Leetcode-小众题-&gt;扫描线
   </title>
   <path d="M594.31,-575.97C631.3,-564.03 680.15,-548.27 714.92,-537.06" fill="none" stroke="lightgrey"/>
   <polygon fill="lightgrey" points="716.34,-540.28 724.79,-533.88 714.19,-533.61 716.34,-540.28" stroke="lightgrey"/>
  </g>
  <!-- 拓扑排序 -->
  <g class="node" id="node20">
   <title>
    拓扑排序
   </title>
   <polygon fill="lightslategray" points="533,-540 454,-540 454,-504 533,-504 533,-540" stroke="lightgrey"/>
   <text fill="white" font-family="Microsoft YaHei" font-size="12.00" text-anchor="middle" x="493.5" y="-518.9">
    拓扑排序(4)
   </text>
  </g>
  <!-- Leetcode&#45;小众题&#45;&gt;拓扑排序 -->
  <g class="edge" id="edge21">
   <title>
    Leetcode-小众题-&gt;拓扑排序
   </title>
   <path d="M529.63,-575.7C524,-567.47 517.15,-557.48 510.93,-548.42" fill="none" stroke="lightgrey"/>
   <polygon fill="lightgrey" points="513.77,-546.37 505.23,-540.1 508,-550.33 513.77,-546.37" stroke="lightgrey"/>
  </g>
  <!-- 二分查找树 -->
  <g class="node" id="node24">
   <title>
    二分查找树
   </title>
   <polygon fill="lightslategray" points="952,-540 861,-540 861,-504 952,-504 952,-540" stroke="lightgrey"/>
   <text fill="white" font-family="Microsoft YaHei" font-size="12.00" text-anchor="middle" x="906.5" y="-518.9">
    二分查找树(4)
   </text>
  </g>
  <!-- Leetcode&#45;小众题&#45;&gt;二分查找树 -->
  <g class="edge" id="edge26">
   <title>
    Leetcode-小众题-&gt;二分查找树
   </title>
   <path d="M618.91,-578.15C688.48,-564.81 788.98,-545.54 850.89,-533.66" fill="none" stroke="lightgrey"/>
   <polygon fill="lightgrey" points="851.7,-537.07 860.86,-531.75 850.38,-530.2 851.7,-537.07" stroke="lightgrey"/>
  </g>
  <!-- 树状数组 -->
  <g class="node" id="node29">
   <title>
    树状数组
   </title>
   <polygon fill="lightslategray" points="654,-540 575,-540 575,-504 654,-504 654,-540" stroke="lightgrey"/>
   <text fill="white" font-family="Microsoft YaHei" font-size="12.00" text-anchor="middle" x="614.5" y="-518.9">
    树状数组(6)
   </text>
  </g>
  <!-- Leetcode&#45;小众题&#45;&gt;树状数组 -->
  <g class="edge" id="edge31">
   <title>
    Leetcode-小众题-&gt;树状数组
   </title>
   <path d="M559.54,-575.7C568.56,-567.05 579.62,-556.45 589.44,-547.03" fill="none" stroke="lightgrey"/>
   <polygon fill="lightgrey" points="591.87,-549.55 596.66,-540.1 587.02,-544.5 591.87,-549.55" stroke="lightgrey"/>
  </g>
  <!-- 智商题 -->
  <g class="node" id="node35">
   <title>
    智商题
   </title>
   <polygon fill="lightslategray" points="1062,-540 995,-540 995,-504 1062,-504 1062,-540" stroke="lightgrey"/>
   <text fill="white" font-family="Microsoft YaHei" font-size="12.00" text-anchor="middle" x="1028.5" y="-518.9">
    智商题(7)
   </text>
  </g>
  <!-- Leetcode&#45;小众题&#45;&gt;智商题 -->
  <g class="edge" id="edge38">
   <title>
    Leetcode-小众题-&gt;智商题
   </title>
   <path d="M618.58,-586.14C703.16,-577.95 842.71,-562.48 961.5,-540 969.21,-538.54 977.35,-536.72 985.2,-534.81" fill="none" stroke="lightgrey"/>
   <polygon fill="lightgrey" points="986.09,-538.2 994.94,-532.38 984.39,-531.41 986.09,-538.2" stroke="lightgrey"/>
  </g>
  <!-- 最小最大值 -->
  <g class="node" id="node43">
   <title>
    最小最大值
   </title>
   <polygon fill="lightslategray" points="1184,-540 1093,-540 1093,-504 1184,-504 1184,-540" stroke="lightgrey"/>
   <text fill="white" font-family="Microsoft YaHei" font-size="12.00" text-anchor="middle" x="1138.5" y="-518.9">
    最小最大值(7)
   </text>
  </g>
  <!-- Leetcode&#45;小众题&#45;&gt;最小最大值 -->
  <g class="edge" id="edge46">
   <title>
    Leetcode-小众题-&gt;最小最大值
   </title>
   <path d="M618.79,-588.88C722.43,-582.55 911.89,-568.07 1071.5,-540 1075.31,-539.33 1079.23,-538.56 1083.16,-537.72" fill="none" stroke="lightgrey"/>
   <polygon fill="lightgrey" points="1083.93,-541.14 1092.92,-535.53 1082.4,-534.31 1083.93,-541.14" stroke="lightgrey"/>
  </g>
  <!-- 470 -->
  <g class="node" id="node3">
   <title>
    470
   </title>
   <g id="a_node3">
    <a target="_parent" xlink:href="https://leetcode-cn.com/problems/implement-rand10-using-rand7" xlink:title="470. 用 Rand7() 实现 Rand10()">
     <polygon fill="none" points="185,-468 0,-468 0,-432 185,-432 185,-468" stroke="orange"/>
     <text font-family="Microsoft YaHei" font-size="12.00" text-anchor="middle" x="92.5" y="-446.9">
      470. 用 Rand7() 实现 Rand10()
     </text>
    </a>
   </g>
   <g transform="translate(177.0, -474.0) scale(0.3)">
    <circle cx="24" cy="24" fill="#4caf50" r="21"/>
    <polygon fill="#ccff90" points="34.6,14.6 21,28.2 15.4,22.6 12.6,25.4 21,33.8 37.4,17.4"/>
   </g>
   <g transform="translate(176.0, -441.0)">
    <symbol id="flask" viewBox="0 0 448 512">
     <path d="M437.2 403.5L320 215V64h8c13.3 0 24-10.7 24-24V24c0-13.3-10.7-24-24-24H120c-13.3 0-24 10.7-24 24v16c0 13.3 10.7 24 24 24h8v151L10.8 403.5C-18.5 450.6 15.3 512 70.9 512h306.2c55.7 0 89.4-61.5 60.1-108.5zM137.9 320l48.2-77.6c3.7-5.2 5.8-11.6 5.8-18.4V64h64v160c0 6.9 2.2 13.2 5.8 18.4l48.2 77.6h-172z" fill="#1389fd"/>
    </symbol>
    <a href="https://github.com/acm-clan/algorithm-stone/blob/main/user/leetcode/470.用-rand-7-实现-rand-10.md">
     <use height="18" href="#flask" width="18"/>
    </a>
   </g>
  </g>
  <!-- 拒绝采样&#45;&gt;470 -->
  <g class="edge" id="edge2">
   <title>
    拒绝采样-&gt;470
   </title>
   <path d="M109.06,-503.7C106.61,-495.9 103.66,-486.51 100.93,-477.83" fill="none" stroke="lightgrey"/>
   <polygon fill="lightgrey" points="104.21,-476.59 97.88,-468.1 97.54,-478.69 104.21,-476.59" stroke="lightgrey"/>
  </g>
  <!-- 478 -->
  <g class="node" id="node4">
   <title>
    478
   </title>
   <g id="a_node4">
    <a target="_parent" xlink:href="https://leetcode-cn.com/problems/generate-random-point-in-a-circle" xlink:title="478. 在圆内随机生成点">
     <polygon fill="none" points="162.5,-396 22.5,-396 22.5,-360 162.5,-360 162.5,-396" stroke="orange"/>
     <text font-family="Microsoft YaHei" font-size="12.00" text-anchor="middle" x="92.5" y="-374.9">
      478. 在圆内随机生成点
     </text>
    </a>
   </g>
   <g transform="translate(154.5, -402.0) scale(0.3)">
    <circle cx="24" cy="24" fill="#4caf50" r="21"/>
    <polygon fill="#ccff90" points="34.6,14.6 21,28.2 15.4,22.6 12.6,25.4 21,33.8 37.4,17.4"/>
   </g>
   <g transform="translate(153.5, -369.0)">
    <symbol id="flask" viewBox="0 0 448 512">
     <path d="M437.2 403.5L320 215V64h8c13.3 0 24-10.7 24-24V24c0-13.3-10.7-24-24-24H120c-13.3 0-24 10.7-24 24v16c0 13.3 10.7 24 24 24h8v151L10.8 403.5C-18.5 450.6 15.3 512 70.9 512h306.2c55.7 0 89.4-61.5 60.1-108.5zM137.9 320l48.2-77.6c3.7-5.2 5.8-11.6 5.8-18.4V64h64v160c0 6.9 2.2 13.2 5.8 18.4l48.2 77.6h-172z" fill="#1389fd"/>
    </symbol>
    <a href="https://github.com/acm-clan/algorithm-stone/blob/main/user/leetcode/478.在圆内随机生成点.md">
     <use height="18" href="#flask" width="18"/>
    </a>
   </g>
  </g>
  <!-- 470&#45;&gt;478 -->
  <g class="edge" id="edge3">
   <title>
    470-&gt;478
   </title>
   <path d="M86.58,-431.7C85.79,-423.98 85.56,-414.71 85.9,-406.11" fill="none" stroke="lightgrey"/>
   <polygon fill="lightgrey" points="89.4,-406.32 86.6,-396.1 82.42,-405.84 89.4,-406.32" stroke="lightgrey"/>
  </g>
  <!-- 470&#45;&gt;478 -->
  <g class="edge" id="edge6">
   <title>
    470-&gt;478
   </title>
   <path d="M98.42,-431.7C99.21,-423.98 99.44,-414.71 99.1,-406.11" fill="none" stroke="lightgrey"/>
   <polygon fill="lightgrey" points="102.58,-405.84 98.4,-396.1 95.6,-406.32 102.58,-405.84" stroke="lightgrey"/>
  </g>
  <!-- 497 -->
  <g class="node" id="node6">
   <title>
    497
   </title>
   <g id="a_node6">
    <a target="_parent" xlink:href="https://leetcode-cn.com/problems/random-point-in-non-overlapping-rectangles" xlink:title="497. 非重叠矩形中的随机点">
     <polygon fill="none" points="174.5,-324 10.5,-324 10.5,-288 174.5,-288 174.5,-324" stroke="orange"/>
     <text font-family="Microsoft YaHei" font-size="12.00" text-anchor="middle" x="92.5" y="-302.9">
      497. 非重叠矩形中的随机点
     </text>
    </a>
   </g>
  </g>
  <!-- 478&#45;&gt;497 -->
  <g class="edge" id="edge7">
   <title>
    478-&gt;497
   </title>
   <path d="M92.5,-359.7C92.5,-351.98 92.5,-342.71 92.5,-334.11" fill="none" stroke="lightgrey"/>
   <polygon fill="lightgrey" points="96,-334.1 92.5,-324.1 89,-334.1 96,-334.1" stroke="lightgrey"/>
  </g>
  <!-- 随机数&#45;&gt;470 -->
  <g class="edge" id="edge5">
   <title>
    随机数-&gt;470
   </title>
   <path d="M188.43,-503.88C171.67,-494.64 150.79,-483.13 132.8,-473.21" fill="none" stroke="lightgrey"/>
   <polygon fill="lightgrey" points="134.13,-469.95 123.69,-468.19 130.76,-476.08 134.13,-469.95" stroke="lightgrey"/>
  </g>
  <!-- 519 -->
  <g class="node" id="node7">
   <title>
    519
   </title>
   <g id="a_node7">
    <a target="_parent" xlink:href="https://leetcode-cn.com/problems/random-flip-matrix" xlink:title="519. 随机翻转矩阵">
     <polygon fill="none" points="150.5,-252 34.5,-252 34.5,-216 150.5,-216 150.5,-252" stroke="orange"/>
     <text font-family="Microsoft YaHei" font-size="12.00" text-anchor="middle" x="92.5" y="-230.9">
      519. 随机翻转矩阵
     </text>
    </a>
   </g>
  </g>
  <!-- 497&#45;&gt;519 -->
  <g class="edge" id="edge8">
   <title>
    497-&gt;519
   </title>
   <path d="M92.5,-287.7C92.5,-279.98 92.5,-270.71 92.5,-262.11" fill="none" stroke="lightgrey"/>
   <polygon fill="lightgrey" points="96,-262.1 92.5,-252.1 89,-262.1 96,-262.1" stroke="lightgrey"/>
  </g>
  <!-- 528 -->
  <g class="node" id="node8">
   <title>
    528
   </title>
   <g id="a_node8">
    <a target="_parent" xlink:href="https://leetcode-cn.com/problems/random-pick-with-weight" xlink:title="528. 按权重随机选择">
     <polygon fill="none" points="156.5,-180 28.5,-180 28.5,-144 156.5,-144 156.5,-180" stroke="orange"/>
     <text font-family="Microsoft YaHei" font-size="12.00" text-anchor="middle" x="92.5" y="-158.9">
      528. 按权重随机选择
     </text>
    </a>
   </g>
  </g>
  <!-- 519&#45;&gt;528 -->
  <g class="edge" id="edge9">
   <title>
    519-&gt;528
   </title>
   <path d="M92.5,-215.7C92.5,-207.98 92.5,-198.71 92.5,-190.11" fill="none" stroke="lightgrey"/>
   <polygon fill="lightgrey" points="96,-190.1 92.5,-180.1 89,-190.1 96,-190.1" stroke="lightgrey"/>
  </g>
  <!-- 710 -->
  <g class="node" id="node9">
   <title>
    710
   </title>
   <g id="a_node9">
    <a target="_parent" xlink:href="https://leetcode-cn.com/problems/random-pick-with-blacklist" xlink:title="710. 黑名单中的随机数">
     <polygon fill="none" points="162.5,-108 22.5,-108 22.5,-72 162.5,-72 162.5,-108" stroke="red"/>
     <text font-family="Microsoft YaHei" font-size="12.00" text-anchor="middle" x="92.5" y="-86.9">
      710. 黑名单中的随机数
     </text>
    </a>
   </g>
  </g>
  <!-- 528&#45;&gt;710 -->
  <g class="edge" id="edge10">
   <title>
    528-&gt;710
   </title>
   <path d="M92.5,-143.7C92.5,-135.98 92.5,-126.71 92.5,-118.11" fill="none" stroke="lightgrey"/>
   <polygon fill="lightgrey" points="96,-118.1 92.5,-108.1 89,-118.1 96,-118.1" stroke="lightgrey"/>
  </g>
  <!-- 382 -->
  <g class="node" id="node11">
   <title>
    382
   </title>
   <g id="a_node11">
    <a target="_parent" xlink:href="https://leetcode-cn.com/problems/linked-list-random-node" xlink:title="382. 链表随机节点">
     <polygon fill="none" points="319.5,-468 203.5,-468 203.5,-432 319.5,-432 319.5,-468" stroke="orange"/>
     <text font-family="Microsoft YaHei" font-size="12.00" text-anchor="middle" x="261.5" y="-446.9">
      382. 链表随机节点
     </text>
    </a>
   </g>
   <g transform="translate(311.5, -474.0) scale(0.3)">
    <circle cx="24" cy="24" fill="#4caf50" r="21"/>
    <polygon fill="#ccff90" points="34.6,14.6 21,28.2 15.4,22.6 12.6,25.4 21,33.8 37.4,17.4"/>
   </g>
  </g>
  <!-- 蓄水池采样&#45;&gt;382 -->
  <g class="edge" id="edge12">
   <title>
    蓄水池采样-&gt;382
   </title>
   <path d="M308.17,-503.7C300.74,-495.3 291.68,-485.07 283.52,-475.86" fill="none" stroke="lightgrey"/>
   <polygon fill="lightgrey" points="285.9,-473.27 276.65,-468.1 280.66,-477.91 285.9,-473.27" stroke="lightgrey"/>
  </g>
  <!-- 398 -->
  <g class="node" id="node12">
   <title>
    398
   </title>
   <g id="a_node12">
    <a target="_parent" xlink:href="https://leetcode-cn.com/problems/random-pick-index" xlink:title="398. 随机数索引">
     <polygon fill="none" points="313.5,-396 209.5,-396 209.5,-360 313.5,-360 313.5,-396" stroke="orange"/>
     <text font-family="Microsoft YaHei" font-size="12.00" text-anchor="middle" x="261.5" y="-374.9">
      398. 随机数索引
     </text>
    </a>
   </g>
   <g transform="translate(305.5, -402.0) scale(0.3)">
    <circle cx="24" cy="24" fill="#4caf50" r="21"/>
    <polygon fill="#ccff90" points="34.6,14.6 21,28.2 15.4,22.6 12.6,25.4 21,33.8 37.4,17.4"/>
   </g>
  </g>
  <!-- 382&#45;&gt;398 -->
  <g class="edge" id="edge13">
   <title>
    382-&gt;398
   </title>
   <path d="M261.5,-431.7C261.5,-423.98 261.5,-414.71 261.5,-406.11" fill="none" stroke="lightgrey"/>
   <polygon fill="lightgrey" points="265,-406.1 261.5,-396.1 258,-406.1 265,-406.1" stroke="lightgrey"/>
  </g>
  <!-- 329 -->
  <g class="node" id="node14">
   <title>
    329
   </title>
   <g id="a_node14">
    <a target="_parent" xlink:href="https://leetcode-cn.com/problems/longest-increasing-path-in-a-matrix" xlink:title="329. 矩阵中的最长递增路径">
     <polygon fill="none" points="479.5,-324 315.5,-324 315.5,-288 479.5,-288 479.5,-324" stroke="red"/>
     <text font-family="Microsoft YaHei" font-size="12.00" text-anchor="middle" x="397.5" y="-302.9">
      329. 矩阵中的最长递增路径
     </text>
    </a>
   </g>
  </g>
  <!-- 记忆化搜索&#45;&gt;329 -->
  <g class="edge" id="edge15">
   <title>
    记忆化搜索-&gt;329
   </title>
   <path d="M385.19,-431.87C387.57,-407.67 391.96,-363.21 394.8,-334.39" fill="none" stroke="lightgrey"/>
   <polygon fill="lightgrey" points="398.31,-334.48 395.81,-324.19 391.34,-333.8 398.31,-334.48" stroke="lightgrey"/>
  </g>
  <!-- 1203 -->
  <g class="node" id="node23">
   <title>
    1203
   </title>
   <g id="a_node23">
    <a target="_parent" xlink:href="https://leetcode-cn.com/problems/sort-items-by-groups-respecting-dependencies" xlink:title="1203. 项目管理">
     <polygon fill="none" points="446.5,-252 348.5,-252 348.5,-216 446.5,-216 446.5,-252" stroke="red"/>
     <text font-family="Microsoft YaHei" font-size="12.00" text-anchor="middle" x="397.5" y="-230.9">
      1203. 项目管理
     </text>
    </a>
   </g>
  </g>
  <!-- 329&#45;&gt;1203 -->
  <g class="edge" id="edge25">
   <title>
    329-&gt;1203
   </title>
   <path d="M397.5,-287.7C397.5,-279.98 397.5,-270.71 397.5,-262.11" fill="none" stroke="lightgrey"/>
   <polygon fill="lightgrey" points="401,-262.1 397.5,-252.1 394,-262.1 401,-262.1" stroke="lightgrey"/>
  </g>
  <!-- 1288 -->
  <g class="node" id="node16">
   <title>
    1288
   </title>
   <g id="a_node16">
    <a target="_parent" xlink:href="https://leetcode-cn.com/problems/remove-covered-intervals" xlink:title="1288. 删除被覆盖区间">
     <polygon fill="none" points="873.5,-468 739.5,-468 739.5,-432 873.5,-432 873.5,-468" stroke="orange"/>
     <text font-family="Microsoft YaHei" font-size="12.00" text-anchor="middle" x="806.5" y="-446.9">
      1288. 删除被覆盖区间
     </text>
    </a>
   </g>
   <g transform="translate(865.5, -474.0) scale(0.3)">
    <circle cx="24" cy="24" fill="#4caf50" r="21"/>
    <polygon fill="#ccff90" points="34.6,14.6 21,28.2 15.4,22.6 12.6,25.4 21,33.8 37.4,17.4"/>
   </g>
  </g>
  <!-- 扫描线&#45;&gt;1288 -->
  <g class="edge" id="edge17">
   <title>
    扫描线-&gt;1288
   </title>
   <path d="M770.37,-503.7C776,-495.47 782.85,-485.48 789.07,-476.42" fill="none" stroke="lightgrey"/>
   <polygon fill="lightgrey" points="792,-478.33 794.77,-468.1 786.23,-474.37 792,-478.33" stroke="lightgrey"/>
  </g>
  <!-- 218 -->
  <g class="node" id="node17">
   <title>
    218
   </title>
   <g id="a_node17">
    <a target="_parent" xlink:href="https://leetcode-cn.com/problems/the-skyline-problem" xlink:title="218. 天际线问题">
     <polygon fill="none" points="759.5,-396 655.5,-396 655.5,-360 759.5,-360 759.5,-396" stroke="red"/>
     <text font-family="Microsoft YaHei" font-size="12.00" text-anchor="middle" x="707.5" y="-374.9">
      218. 天际线问题
     </text>
    </a>
   </g>
  </g>
  <!-- 1288&#45;&gt;218 -->
  <g class="edge" id="edge18">
   <title>
    1288-&gt;218
   </title>
   <path d="M782.28,-431.88C769.58,-422.89 753.84,-411.76 740.08,-402.03" fill="none" stroke="lightgrey"/>
   <polygon fill="lightgrey" points="742,-399.11 731.81,-396.19 737.96,-404.82 742,-399.11" stroke="lightgrey"/>
  </g>
  <!-- 391 -->
  <g class="node" id="node18">
   <title>
    391
   </title>
   <g id="a_node18">
    <a target="_parent" xlink:href="https://leetcode-cn.com/problems/perfect-rectangle" xlink:title="391. 完美矩形">
     <polygon fill="none" points="828.5,-324 736.5,-324 736.5,-288 828.5,-288 828.5,-324" stroke="red"/>
     <text font-family="Microsoft YaHei" font-size="12.00" text-anchor="middle" x="782.5" y="-302.9">
      391. 完美矩形
     </text>
    </a>
   </g>
  </g>
  <!-- 218&#45;&gt;391 -->
  <g class="edge" id="edge19">
   <title>
    218-&gt;391
   </title>
   <path d="M726.04,-359.7C735.3,-351.05 746.66,-340.45 756.76,-331.03" fill="none" stroke="lightgrey"/>
   <polygon fill="lightgrey" points="759.25,-333.49 764.17,-324.1 754.48,-328.37 759.25,-333.49" stroke="lightgrey"/>
  </g>
  <!-- 315 -->
  <g class="node" id="node31">
   <title>
    315
   </title>
   <g id="a_node31">
    <a target="_parent" xlink:href="https://leetcode-cn.com/problems/count-of-smaller-numbers-after-self" xlink:title="315. 计算右侧小于当前元素的个数">
     <polygon fill="none" points="718.5,-324 518.5,-324 518.5,-288 718.5,-288 718.5,-324" stroke="red"/>
     <text font-family="Microsoft YaHei" font-size="12.00" text-anchor="middle" x="618.5" y="-302.9">
      315. 计算右侧小于当前元素的个数
     </text>
    </a>
   </g>
  </g>
  <!-- 218&#45;&gt;315 -->
  <g class="edge" id="edge34">
   <title>
    218-&gt;315
   </title>
   <path d="M685.5,-359.7C674.29,-350.88 660.5,-340.03 648.35,-330.47" fill="none" stroke="lightgrey"/>
   <polygon fill="lightgrey" points="650.27,-327.54 640.25,-324.1 645.94,-333.04 650.27,-327.54" stroke="lightgrey"/>
  </g>
  <!-- 850 -->
  <g class="node" id="node19">
   <title>
    850
   </title>
   <g id="a_node19">
    <a target="_parent" xlink:href="https://leetcode-cn.com/problems/rectangle-area-ii" xlink:title="850. 矩形面积 II">
     <polygon fill="none" points="834,-252 731,-252 731,-216 834,-216 834,-252" stroke="red"/>
     <text font-family="Microsoft YaHei" font-size="12.00" text-anchor="middle" x="782.5" y="-230.9">
      850. 矩形面积 II
     </text>
    </a>
   </g>
  </g>
  <!-- 391&#45;&gt;850 -->
  <g class="edge" id="edge20">
   <title>
    391-&gt;850
   </title>
   <path d="M782.5,-287.7C782.5,-279.98 782.5,-270.71 782.5,-262.11" fill="none" stroke="lightgrey"/>
   <polygon fill="lightgrey" points="786,-262.1 782.5,-252.1 779,-262.1 786,-262.1" stroke="lightgrey"/>
  </g>
  <!-- 207 -->
  <g class="node" id="node21">
   <title>
    207
   </title>
   <g id="a_node21">
    <a target="_parent" xlink:href="https://leetcode-cn.com/problems/course-schedule" xlink:title="207. 课程表">
     <polygon fill="none" points="527.5,-468 447.5,-468 447.5,-432 527.5,-432 527.5,-468" stroke="orange"/>
     <text font-family="Microsoft YaHei" font-size="12.00" text-anchor="middle" x="487.5" y="-446.9">
      207. 课程表
     </text>
    </a>
   </g>
  </g>
  <!-- 拓扑排序&#45;&gt;207 -->
  <g class="edge" id="edge22">
   <title>
    拓扑排序-&gt;207
   </title>
   <path d="M492.02,-503.7C491.36,-495.98 490.56,-486.71 489.82,-478.11" fill="none" stroke="lightgrey"/>
   <polygon fill="lightgrey" points="493.31,-477.77 488.97,-468.1 486.33,-478.37 493.31,-477.77" stroke="lightgrey"/>
  </g>
  <!-- 210 -->
  <g class="node" id="node22">
   <title>
    210
   </title>
   <g id="a_node22">
    <a target="_parent" xlink:href="https://leetcode-cn.com/problems/course-schedule-ii" xlink:title="210. 课程表 II">
     <polygon fill="none" points="518,-396 427,-396 427,-360 518,-360 518,-396" stroke="orange"/>
     <text font-family="Microsoft YaHei" font-size="12.00" text-anchor="middle" x="472.5" y="-374.9">
      210. 课程表 II
     </text>
    </a>
   </g>
  </g>
  <!-- 207&#45;&gt;210 -->
  <g class="edge" id="edge23">
   <title>
    207-&gt;210
   </title>
   <path d="M483.79,-431.7C482.14,-423.98 480.15,-414.71 478.31,-406.11" fill="none" stroke="lightgrey"/>
   <polygon fill="lightgrey" points="481.68,-405.15 476.17,-396.1 474.84,-406.62 481.68,-405.15" stroke="lightgrey"/>
  </g>
  <!-- 210&#45;&gt;329 -->
  <g class="edge" id="edge24">
   <title>
    210-&gt;329
   </title>
   <path d="M453.96,-359.7C444.7,-351.05 433.34,-340.45 423.24,-331.03" fill="none" stroke="lightgrey"/>
   <polygon fill="lightgrey" points="425.52,-328.37 415.83,-324.1 420.75,-333.49 425.52,-328.37" stroke="lightgrey"/>
  </g>
  <!-- 538 -->
  <g class="node" id="node25">
   <title>
    538
   </title>
   <g id="a_node25">
    <a target="_parent" xlink:href="https://leetcode-cn.com/problems/convert-bst-to-greater-tree" xlink:title="538. 把二叉搜索树转换为累加树">
     <polygon fill="none" points="1079.5,-468 891.5,-468 891.5,-432 1079.5,-432 1079.5,-468" stroke="orange"/>
     <text font-family="Microsoft YaHei" font-size="12.00" text-anchor="middle" x="985.5" y="-446.9">
      538. 把二叉搜索树转换为累加树
     </text>
    </a>
   </g>
  </g>
  <!-- 二分查找树&#45;&gt;538 -->
  <g class="edge" id="edge27">
   <title>
    二分查找树-&gt;538
   </title>
   <path d="M926.03,-503.7C935.88,-494.97 947.99,-484.24 958.7,-474.75" fill="none" stroke="lightgrey"/>
   <polygon fill="lightgrey" points="961.03,-477.36 966.2,-468.1 956.39,-472.12 961.03,-477.36" stroke="lightgrey"/>
  </g>
  <!-- 1382 -->
  <g class="node" id="node26">
   <title>
    1382
   </title>
   <g id="a_node26">
    <a target="_parent" xlink:href="https://leetcode-cn.com/problems/balance-a-binary-search-tree" xlink:title="1382. 将二叉搜索树变平衡">
     <polygon fill="none" points="1048.5,-396 890.5,-396 890.5,-360 1048.5,-360 1048.5,-396" stroke="orange"/>
     <text font-family="Microsoft YaHei" font-size="12.00" text-anchor="middle" x="969.5" y="-374.9">
      1382. 将二叉搜索树变平衡
     </text>
    </a>
   </g>
  </g>
  <!-- 538&#45;&gt;1382 -->
  <g class="edge" id="edge28">
   <title>
    538-&gt;1382
   </title>
   <path d="M981.54,-431.7C979.78,-423.98 977.66,-414.71 975.7,-406.11" fill="none" stroke="lightgrey"/>
   <polygon fill="lightgrey" points="979.05,-405.07 973.41,-396.1 972.23,-406.63 979.05,-405.07" stroke="lightgrey"/>
  </g>
  <!-- 1038 -->
  <g class="node" id="node27">
   <title>
    1038
   </title>
   <g id="a_node27">
    <a target="_parent" xlink:href="https://leetcode-cn.com/problems/binary-search-tree-to-greater-sum-tree" xlink:title="1038. 把二叉搜索树转换为累加树">
     <polygon fill="none" points="1054.5,-324 860.5,-324 860.5,-288 1054.5,-288 1054.5,-324" stroke="orange"/>
     <text font-family="Microsoft YaHei" font-size="12.00" text-anchor="middle" x="957.5" y="-302.9">
      1038. 把二叉搜索树转换为累加树
     </text>
    </a>
   </g>
  </g>
  <!-- 1382&#45;&gt;1038 -->
  <g class="edge" id="edge29">
   <title>
    1382-&gt;1038
   </title>
   <path d="M966.53,-359.7C965.21,-351.98 963.62,-342.71 962.15,-334.11" fill="none" stroke="lightgrey"/>
   <polygon fill="lightgrey" points="965.57,-333.37 960.43,-324.1 958.67,-334.55 965.57,-333.37" stroke="lightgrey"/>
  </g>
  <!-- 1373 -->
  <g class="node" id="node28">
   <title>
    1373
   </title>
   <g id="a_node28">
    <a target="_parent" xlink:href="https://leetcode-cn.com/problems/maximum-sum-bst-in-binary-tree" xlink:title="1373. 二叉搜索子树的最大键值和">
     <polygon fill="none" points="1054.5,-252 860.5,-252 860.5,-216 1054.5,-216 1054.5,-252" stroke="red"/>
     <text font-family="Microsoft YaHei" font-size="12.00" text-anchor="middle" x="957.5" y="-230.9">
      1373. 二叉搜索子树的最大键值和
     </text>
    </a>
   </g>
  </g>
  <!-- 1038&#45;&gt;1373 -->
  <g class="edge" id="edge30">
   <title>
    1038-&gt;1373
   </title>
   <path d="M957.5,-287.7C957.5,-279.98 957.5,-270.71 957.5,-262.11" fill="none" stroke="lightgrey"/>
   <polygon fill="lightgrey" points="961,-262.1 957.5,-252.1 954,-262.1 961,-262.1" stroke="lightgrey"/>
  </g>
  <!-- 307 -->
  <g class="node" id="node30">
   <title>
    307
   </title>
   <g id="a_node30">
    <a target="_parent" xlink:href="https://leetcode-cn.com/problems/range-sum-query-mutable" xlink:title="307. 区域和检索 - 数组可修改">
     <polygon fill="none" points="721.5,-468 545.5,-468 545.5,-432 721.5,-432 721.5,-468" stroke="orange"/>
     <text font-family="Microsoft YaHei" font-size="12.00" text-anchor="middle" x="633.5" y="-446.9">
      307. 区域和检索 - 数组可修改
     </text>
    </a>
   </g>
  </g>
  <!-- 树状数组&#45;&gt;307 -->
  <g class="edge" id="edge32">
   <title>
    树状数组-&gt;307
   </title>
   <path d="M619.2,-503.7C621.31,-495.9 623.86,-486.51 626.22,-477.83" fill="none" stroke="lightgrey"/>
   <polygon fill="lightgrey" points="629.62,-478.67 628.86,-468.1 622.86,-476.84 629.62,-478.67" stroke="lightgrey"/>
  </g>
  <!-- 307&#45;&gt;218 -->
  <g class="edge" id="edge33">
   <title>
    307-&gt;218
   </title>
   <path d="M651.79,-431.7C660.93,-423.05 672.14,-412.45 682.1,-403.03" fill="none" stroke="lightgrey"/>
   <polygon fill="lightgrey" points="684.56,-405.52 689.42,-396.1 679.75,-400.43 684.56,-405.52" stroke="lightgrey"/>
  </g>
  <!-- 327 -->
  <g class="node" id="node32">
   <title>
    327
   </title>
   <g id="a_node32">
    <a target="_parent" xlink:href="https://leetcode-cn.com/problems/count-of-range-sum" xlink:title="327. 区间和的个数">
     <polygon fill="none" points="676.5,-252 560.5,-252 560.5,-216 676.5,-216 676.5,-252" stroke="red"/>
     <text font-family="Microsoft YaHei" font-size="12.00" text-anchor="middle" x="618.5" y="-230.9">
      327. 区间和的个数
     </text>
    </a>
   </g>
  </g>
  <!-- 315&#45;&gt;327 -->
  <g class="edge" id="edge35">
   <title>
    315-&gt;327
   </title>
   <path d="M618.5,-287.7C618.5,-279.98 618.5,-270.71 618.5,-262.11" fill="none" stroke="lightgrey"/>
   <polygon fill="lightgrey" points="622,-262.1 618.5,-252.1 615,-262.1 622,-262.1" stroke="lightgrey"/>
  </g>
  <!-- 493 -->
  <g class="node" id="node33">
   <title>
    493
   </title>
   <g id="a_node33">
    <a target="_parent" xlink:href="https://leetcode-cn.com/problems/reverse-pairs" xlink:title="493. 翻转对">
     <polygon fill="none" points="658.5,-180 578.5,-180 578.5,-144 658.5,-144 658.5,-180" stroke="red"/>
     <text font-family="Microsoft YaHei" font-size="12.00" text-anchor="middle" x="618.5" y="-158.9">
      493. 翻转对
     </text>
    </a>
   </g>
  </g>
  <!-- 327&#45;&gt;493 -->
  <g class="edge" id="edge36">
   <title>
    327-&gt;493
   </title>
   <path d="M618.5,-215.7C618.5,-207.98 618.5,-198.71 618.5,-190.11" fill="none" stroke="lightgrey"/>
   <polygon fill="lightgrey" points="622,-190.1 618.5,-180.1 615,-190.1 622,-190.1" stroke="lightgrey"/>
  </g>
  <!-- 1649 -->
  <g class="node" id="node34">
   <title>
    1649
   </title>
   <g id="a_node34">
    <a target="_parent" xlink:href="https://leetcode-cn.com/problems/create-sorted-array-through-instructions" xlink:title="1649. 通过指令创建有序数组">
     <polygon fill="none" points="703.5,-108 533.5,-108 533.5,-72 703.5,-72 703.5,-108" stroke="red"/>
     <text font-family="Microsoft YaHei" font-size="12.00" text-anchor="middle" x="618.5" y="-86.9">
      1649. 通过指令创建有序数组
     </text>
    </a>
   </g>
  </g>
  <!-- 493&#45;&gt;1649 -->
  <g class="edge" id="edge37">
   <title>
    493-&gt;1649
   </title>
   <path d="M618.5,-143.7C618.5,-135.98 618.5,-126.71 618.5,-118.11" fill="none" stroke="lightgrey"/>
   <polygon fill="lightgrey" points="622,-118.1 618.5,-108.1 615,-118.1 622,-118.1" stroke="lightgrey"/>
  </g>
  <!-- 292 -->
  <g class="node" id="node36">
   <title>
    292
   </title>
   <g id="a_node36">
    <a target="_parent" xlink:href="https://leetcode-cn.com/problems/nim-game" xlink:title="292. Nim 游戏">
     <polygon fill="none" points="1193,-468 1098,-468 1098,-432 1193,-432 1193,-468" stroke="greenyellow"/>
     <text font-family="Microsoft YaHei" font-size="12.00" text-anchor="middle" x="1145.5" y="-446.9">
      292. Nim 游戏
     </text>
    </a>
   </g>
  </g>
  <!-- 智商题&#45;&gt;292 -->
  <g class="edge" id="edge39">
   <title>
    智商题-&gt;292
   </title>
   <path d="M1057.12,-503.88C1072.42,-494.72 1091.44,-483.34 1107.92,-473.48" fill="none" stroke="lightgrey"/>
   <polygon fill="lightgrey" points="1109.98,-476.33 1116.77,-468.19 1106.39,-470.32 1109.98,-476.33" stroke="lightgrey"/>
  </g>
  <!-- 521 -->
  <g class="node" id="node37">
   <title>
    521
   </title>
   <g id="a_node37">
    <a target="_parent" xlink:href="https://leetcode-cn.com/problems/longest-uncommon-subsequence-i" xlink:title="521. 最长特殊序列 Ⅰ">
     <polygon fill="none" points="1211,-396 1080,-396 1080,-360 1211,-360 1211,-396" stroke="greenyellow"/>
     <text font-family="Microsoft YaHei" font-size="12.00" text-anchor="middle" x="1145.5" y="-374.9">
      521. 最长特殊序列 Ⅰ
     </text>
    </a>
   </g>
  </g>
  <!-- 292&#45;&gt;521 -->
  <g class="edge" id="edge40">
   <title>
    292-&gt;521
   </title>
   <path d="M1145.5,-431.7C1145.5,-423.98 1145.5,-414.71 1145.5,-406.11" fill="none" stroke="lightgrey"/>
   <polygon fill="lightgrey" points="1149,-406.1 1145.5,-396.1 1142,-406.1 1149,-406.1" stroke="lightgrey"/>
  </g>
  <!-- 375 -->
  <g class="node" id="node44">
   <title>
    375
   </title>
   <g id="a_node44">
    <a target="_parent" xlink:href="https://leetcode-cn.com/problems/guess-number-higher-or-lower-ii" xlink:title="375. 猜数字大小 II">
     <polygon fill="none" points="1346,-396 1231,-396 1231,-360 1346,-360 1346,-396" stroke="orange"/>
     <text font-family="Microsoft YaHei" font-size="12.00" text-anchor="middle" x="1288.5" y="-374.9">
      375. 猜数字大小 II
     </text>
    </a>
   </g>
  </g>
  <!-- 292&#45;&gt;375 -->
  <g class="edge" id="edge48">
   <title>
    292-&gt;375
   </title>
   <path d="M1180.48,-431.88C1199.7,-422.47 1223.73,-410.71 1244.24,-400.67" fill="none" stroke="lightgrey"/>
   <polygon fill="lightgrey" points="1245.94,-403.73 1253.38,-396.19 1242.86,-397.44 1245.94,-403.73" stroke="lightgrey"/>
  </g>
  <!-- 1033 -->
  <g class="node" id="node38">
   <title>
    1033
   </title>
   <g id="a_node38">
    <a target="_parent" xlink:href="https://leetcode-cn.com/problems/moving-stones-until-consecutive" xlink:title="1033. 移动石子直到连续">
     <polygon fill="none" points="1218.5,-324 1072.5,-324 1072.5,-288 1218.5,-288 1218.5,-324" stroke="greenyellow"/>
     <text font-family="Microsoft YaHei" font-size="12.00" text-anchor="middle" x="1145.5" y="-302.9">
      1033. 移动石子直到连续
     </text>
    </a>
   </g>
  </g>
  <!-- 521&#45;&gt;1033 -->
  <g class="edge" id="edge41">
   <title>
    521-&gt;1033
   </title>
   <path d="M1145.5,-359.7C1145.5,-351.98 1145.5,-342.71 1145.5,-334.11" fill="none" stroke="lightgrey"/>
   <polygon fill="lightgrey" points="1149,-334.1 1145.5,-324.1 1142,-334.1 1149,-334.1" stroke="lightgrey"/>
  </g>
  <!-- 319 -->
  <g class="node" id="node39">
   <title>
    319
   </title>
   <g id="a_node39">
    <a target="_parent" xlink:href="https://leetcode-cn.com/problems/bulb-switcher" xlink:title="319. 灯泡开关">
     <polygon fill="none" points="1181.5,-252 1089.5,-252 1089.5,-216 1181.5,-216 1181.5,-252" stroke="orange"/>
     <text font-family="Microsoft YaHei" font-size="12.00" text-anchor="middle" x="1135.5" y="-230.9">
      319. 灯泡开关
     </text>
    </a>
   </g>
  </g>
  <!-- 1033&#45;&gt;319 -->
  <g class="edge" id="edge42">
   <title>
    1033-&gt;319
   </title>
   <path d="M1143.03,-287.7C1141.93,-279.98 1140.6,-270.71 1139.37,-262.11" fill="none" stroke="lightgrey"/>
   <polygon fill="lightgrey" points="1142.82,-261.51 1137.94,-252.1 1135.89,-262.5 1142.82,-261.51" stroke="lightgrey"/>
  </g>
  <!-- 777 -->
  <g class="node" id="node40">
   <title>
    777
   </title>
   <g id="a_node40">
    <a target="_parent" xlink:href="https://leetcode-cn.com/problems/swap-adjacent-in-lr-string" xlink:title="777. 在LR字符串中交换相邻字符">
     <polygon fill="none" points="1229,-180 1040,-180 1040,-144 1229,-144 1229,-180" stroke="orange"/>
     <text font-family="Microsoft YaHei" font-size="12.00" text-anchor="middle" x="1134.5" y="-158.9">
      777. 在LR字符串中交换相邻字符
     </text>
    </a>
   </g>
  </g>
  <!-- 319&#45;&gt;777 -->
  <g class="edge" id="edge43">
   <title>
    319-&gt;777
   </title>
   <path d="M1135.25,-215.7C1135.14,-207.98 1135.01,-198.71 1134.89,-190.11" fill="none" stroke="lightgrey"/>
   <polygon fill="lightgrey" points="1138.39,-190.05 1134.74,-180.1 1131.39,-190.15 1138.39,-190.05" stroke="lightgrey"/>
  </g>
  <!-- 1227 -->
  <g class="node" id="node41">
   <title>
    1227
   </title>
   <g id="a_node41">
    <a target="_parent" xlink:href="https://leetcode-cn.com/problems/airplane-seat-assignment-probability" xlink:title="1227. 飞机座位分配概率">
     <polygon fill="none" points="1206.5,-108 1060.5,-108 1060.5,-72 1206.5,-72 1206.5,-108" stroke="orange"/>
     <text font-family="Microsoft YaHei" font-size="12.00" text-anchor="middle" x="1133.5" y="-86.9">
      1227. 飞机座位分配概率
     </text>
    </a>
   </g>
  </g>
  <!-- 777&#45;&gt;1227 -->
  <g class="edge" id="edge44">
   <title>
    777-&gt;1227
   </title>
   <path d="M1134.25,-143.7C1134.14,-135.98 1134.01,-126.71 1133.89,-118.11" fill="none" stroke="lightgrey"/>
   <polygon fill="lightgrey" points="1137.39,-118.05 1133.74,-108.1 1130.39,-118.15 1137.39,-118.05" stroke="lightgrey"/>
  </g>
  <!-- 1503 -->
  <g class="node" id="node42">
   <title>
    1503
   </title>
   <g id="a_node42">
    <a target="_parent" xlink:href="https://leetcode-cn.com/problems/last-moment-before-all-ants-fall-out-of-a-plank" xlink:title="1503. 所有蚂蚁掉下来前的最后一刻">
     <polygon fill="none" points="1236.5,-36 1030.5,-36 1030.5,0 1236.5,0 1236.5,-36" stroke="orange"/>
     <text font-family="Microsoft YaHei" font-size="12.00" text-anchor="middle" x="1133.5" y="-14.9">
      1503. 所有蚂蚁掉下来前的最后一刻
     </text>
    </a>
   </g>
  </g>
  <!-- 1227&#45;&gt;1503 -->
  <g class="edge" id="edge45">
   <title>
    1227-&gt;1503
   </title>
   <path d="M1133.5,-71.7C1133.5,-63.98 1133.5,-54.71 1133.5,-46.11" fill="none" stroke="lightgrey"/>
   <polygon fill="lightgrey" points="1137,-46.1 1133.5,-36.1 1130,-46.1 1137,-46.1" stroke="lightgrey"/>
  </g>
  <!-- 最小最大值&#45;&gt;292 -->
  <g class="edge" id="edge47">
   <title>
    最小最大值-&gt;292
   </title>
   <path d="M1140.23,-503.7C1141,-495.98 1141.93,-486.71 1142.79,-478.11" fill="none" stroke="lightgrey"/>
   <polygon fill="lightgrey" points="1146.28,-478.4 1143.79,-468.1 1139.31,-477.71 1146.28,-478.4" stroke="lightgrey"/>
  </g>
  <!-- 464 -->
  <g class="node" id="node45">
   <title>
    464
   </title>
   <g id="a_node45">
    <a target="_parent" xlink:href="https://leetcode-cn.com/problems/can-i-win" xlink:title="464. 我能赢吗">
     <polygon fill="none" points="1339.5,-324 1247.5,-324 1247.5,-288 1339.5,-288 1339.5,-324" stroke="orange"/>
     <text font-family="Microsoft YaHei" font-size="12.00" text-anchor="middle" x="1293.5" y="-302.9">
      464. 我能赢吗
     </text>
    </a>
   </g>
  </g>
  <!-- 375&#45;&gt;464 -->
  <g class="edge" id="edge49">
   <title>
    375-&gt;464
   </title>
   <path d="M1289.74,-359.7C1290.29,-351.98 1290.95,-342.71 1291.56,-334.11" fill="none" stroke="lightgrey"/>
   <polygon fill="lightgrey" points="1295.06,-334.33 1292.28,-324.1 1288.07,-333.83 1295.06,-334.33" stroke="lightgrey"/>
  </g>
  <!-- 486 -->
  <g class="node" id="node46">
   <title>
    486
   </title>
   <g id="a_node46">
    <a target="_parent" xlink:href="https://leetcode-cn.com/problems/predict-the-winner" xlink:title="486. 预测赢家">
     <polygon fill="none" points="1340.5,-252 1248.5,-252 1248.5,-216 1340.5,-216 1340.5,-252" stroke="orange"/>
     <text font-family="Microsoft YaHei" font-size="12.00" text-anchor="middle" x="1294.5" y="-230.9">
      486. 预测赢家
     </text>
    </a>
   </g>
  </g>
  <!-- 464&#45;&gt;486 -->
  <g class="edge" id="edge50">
   <title>
    464-&gt;486
   </title>
   <path d="M1293.75,-287.7C1293.86,-279.98 1293.99,-270.71 1294.11,-262.11" fill="none" stroke="lightgrey"/>
   <polygon fill="lightgrey" points="1297.61,-262.15 1294.26,-252.1 1290.61,-262.05 1297.61,-262.15" stroke="lightgrey"/>
  </g>
  <!-- 877 -->
  <g class="node" id="node47">
   <title>
    877
   </title>
   <g id="a_node47">
    <a target="_parent" xlink:href="https://leetcode-cn.com/problems/stone-game" xlink:title="877. 石子游戏">
     <polygon fill="none" points="1341.5,-180 1249.5,-180 1249.5,-144 1341.5,-144 1341.5,-180" stroke="orange"/>
     <text font-family="Microsoft YaHei" font-size="12.00" text-anchor="middle" x="1295.5" y="-158.9">
      877. 石子游戏
     </text>
    </a>
   </g>
  </g>
  <!-- 486&#45;&gt;877 -->
  <g class="edge" id="edge51">
   <title>
    486-&gt;877
   </title>
   <path d="M1294.75,-215.7C1294.86,-207.98 1294.99,-198.71 1295.11,-190.11" fill="none" stroke="lightgrey"/>
   <polygon fill="lightgrey" points="1298.61,-190.15 1295.26,-180.1 1291.61,-190.05 1298.61,-190.15" stroke="lightgrey"/>
  </g>
  <!-- 843 -->
  <g class="node" id="node48">
   <title>
    843
   </title>
   <g id="a_node48">
    <a target="_parent" xlink:href="https://leetcode-cn.com/problems/guess-the-word" xlink:title="843. 猜猜这个单词">
     <polygon fill="none" points="1357.5,-108 1241.5,-108 1241.5,-72 1357.5,-72 1357.5,-108" stroke="red"/>
     <text font-family="Microsoft YaHei" font-size="12.00" text-anchor="middle" x="1299.5" y="-86.9">
      843. 猜猜这个单词
     </text>
    </a>
   </g>
  </g>
  <!-- 877&#45;&gt;843 -->
  <g class="edge" id="edge52">
   <title>
    877-&gt;843
   </title>
   <path d="M1296.49,-143.7C1296.93,-135.98 1297.46,-126.71 1297.95,-118.11" fill="none" stroke="lightgrey"/>
   <polygon fill="lightgrey" points="1301.45,-118.29 1298.52,-108.1 1294.46,-117.89 1301.45,-118.29" stroke="lightgrey"/>
  </g>
  <!-- 913 -->
  <g class="node" id="node49">
   <title>
    913
   </title>
   <g id="a_node49">
    <a target="_parent" xlink:href="https://leetcode-cn.com/problems/cat-and-mouse" xlink:title="913. 猫和老鼠">
     <polygon fill="none" points="1346.5,-36 1254.5,-36 1254.5,0 1346.5,0 1346.5,-36" stroke="red"/>
     <text font-family="Microsoft YaHei" font-size="12.00" text-anchor="middle" x="1300.5" y="-14.9">
      913. 猫和老鼠
     </text>
    </a>
   </g>
  </g>
  <!-- 843&#45;&gt;913 -->
  <g class="edge" id="edge53">
   <title>
    843-&gt;913
   </title>
   <path d="M1299.75,-71.7C1299.86,-63.98 1299.99,-54.71 1300.11,-46.11" fill="none" stroke="lightgrey"/>
   <polygon fill="lightgrey" points="1303.61,-46.15 1300.26,-36.1 1296.61,-46.05 1303.61,-46.15" stroke="lightgrey"/>
  </g>
  <g class="key">
   <defs>
    <filter height="1.2" id="solid" width="1.2" x="-0.1" y="-0.1">
     <feFlood flood-color="#ccff90" result="bg"/>
     <feMerge>
      <feMergeNode in="bg"/>
      <feMergeNode in="SourceGraphic"/>
     </feMerge>
    </filter>
   </defs>
   <text filter="url(#solid)" font-family="Microsoft YaHei" font-size="10.00" text-anchor="middle" x="261.5" y="-427.0">
    蓄水池采样入门
   </text>
  </g>
  <g class="key">
   <defs>
    <filter height="1.2" id="solid" width="1.2" x="-0.1" y="-0.1">
     <feFlood flood-color="#ccff90" result="bg"/>
     <feMerge>
      <feMergeNode in="bg"/>
      <feMergeNode in="SourceGraphic"/>
     </feMerge>
    </filter>
   </defs>
   <text filter="url(#solid)" font-family="Microsoft YaHei" font-size="10.00" text-anchor="middle" x="261.5" y="-355.0">
    蓄水池采样扩展
   </text>
  </g>
 </g>
</svg>