<?xml version="1.0" encoding="utf-8"?>
<!DOCTYPE svg PUBLIC "-//W3C//DTD SVG 1.1//EN" "http://www.w3.org/Graphics/SVG/1.1/DTD/svg11.dtd">
<!-- Generated by graphviz version 2.50.0 (20211204.2007)
 -->
<!-- Title: stones Pages: 1 -->
<svg height="382pt" viewBox="0.00 0.00 203.0 382.0" width="203pt" xmlns="http://www.w3.org/2000/svg" xmlns:xlink="http://www.w3.org/1999/xlink">
 <g class="graph" id="graph0" transform="scale(1 1) rotate(0) translate(4 328)">
  <title>
   stones
  </title>
  <polygon fill="white" points="-4,4 -4,-328 149,-328 149,4 -4,4" stroke="transparent"/>
  <!-- Leetcode&#45;并查集 -->
  <g class="node" id="node1">
   <title>
    Leetcode-并查集
   </title>
   <g id="a_node1">
    <a target="_parent" xlink:href="https://leetcode-cn.com/tag/union-find" xlink:title="Leetcode-并查集(3)">
     <polygon fill="orangered" points="145,-324 0,-324 0,-288 145,-288 145,-324" stroke="lightgrey"/>
     <text fill="white" font-family="Microsoft YaHei" font-size="14.00" text-anchor="middle" x="72.5" y="-302.3">
      Leetcode-并查集(3)
     </text>
    </a>
   </g>
  </g>
  <!-- 并查集与搜索 -->
  <g class="node" id="node2">
   <title>
    并查集与搜索
   </title>
   <polygon fill="lightslategray" points="124,-252 21,-252 21,-216 124,-216 124,-252" stroke="lightgrey"/>
   <text fill="white" font-family="Microsoft YaHei" font-size="12.00" text-anchor="middle" x="72.5" y="-230.9">
    并查集与搜索(3)
   </text>
  </g>
  <!-- Leetcode&#45;并查集&#45;&gt;并查集与搜索 -->
  <g class="edge" id="edge1">
   <title>
    Leetcode-并查集-&gt;并查集与搜索
   </title>
   <path d="M72.5,-287.7C72.5,-279.98 72.5,-270.71 72.5,-262.11" fill="none" stroke="lightgrey"/>
   <polygon fill="lightgrey" points="76,-262.1 72.5,-252.1 69,-262.1 76,-262.1" stroke="lightgrey"/>
  </g>
  <!-- 130 -->
  <g class="node" id="node3">
   <title>
    130
   </title>
   <g id="a_node3">
    <a target="_parent" xlink:href="https://leetcode-cn.com/problems/surrounded-regions" xlink:title="130. 被围绕的区域">
     <polygon fill="none" points="130.5,-180 14.5,-180 14.5,-144 130.5,-144 130.5,-180" stroke="orange"/>
     <text font-family="Microsoft YaHei" font-size="12.00" text-anchor="middle" x="72.5" y="-158.9">
      130. 被围绕的区域
     </text>
    </a>
   </g>
   <g transform="translate(122.5, -186.0) scale(0.3)">
    <circle cx="24" cy="24" fill="#4caf50" r="21"/>
    <polygon fill="#ccff90" points="34.6,14.6 21,28.2 15.4,22.6 12.6,25.4 21,33.8 37.4,17.4"/>
   </g>
  </g>
  <!-- 并查集与搜索&#45;&gt;130 -->
  <g class="edge" id="edge2">
   <title>
    并查集与搜索-&gt;130
   </title>
   <path d="M72.5,-215.7C72.5,-207.98 72.5,-198.71 72.5,-190.11" fill="none" stroke="lightgrey"/>
   <polygon fill="lightgrey" points="76,-190.1 72.5,-180.1 69,-190.1 76,-190.1" stroke="lightgrey"/>
  </g>
  <!-- 200 -->
  <g class="node" id="node4">
   <title>
    200
   </title>
   <g id="a_node4">
    <a target="_parent" xlink:href="https://leetcode-cn.com/problems/number-of-islands" xlink:title="200. 岛屿数量">
     <polygon fill="none" points="118.5,-108 26.5,-108 26.5,-72 118.5,-72 118.5,-108" stroke="orange"/>
     <text font-family="Microsoft YaHei" font-size="12.00" text-anchor="middle" x="72.5" y="-86.9">
      200. 岛屿数量
     </text>
    </a>
   </g>
   <g transform="translate(110.5, -114.0) scale(0.3)">
    <circle cx="24" cy="24" fill="#4caf50" r="21"/>
    <polygon fill="#ccff90" points="34.6,14.6 21,28.2 15.4,22.6 12.6,25.4 21,33.8 37.4,17.4"/>
   </g>
  </g>
  <!-- 130&#45;&gt;200 -->
  <g class="edge" id="edge3">
   <title>
    130-&gt;200
   </title>
   <path d="M72.5,-143.7C72.5,-135.98 72.5,-126.71 72.5,-118.11" fill="none" stroke="lightgrey"/>
   <polygon fill="lightgrey" points="76,-118.1 72.5,-108.1 69,-118.1 76,-118.1" stroke="lightgrey"/>
  </g>
  <!-- 547 -->
  <g class="node" id="node5">
   <title>
    547
   </title>
   <g id="a_node5">
    <a target="_parent" xlink:href="https://leetcode-cn.com/problems/number-of-provinces" xlink:title="547. 省份数量">
     <polygon fill="none" points="118.5,-36 26.5,-36 26.5,0 118.5,0 118.5,-36" stroke="orange"/>
     <text font-family="Microsoft YaHei" font-size="12.00" text-anchor="middle" x="72.5" y="-14.9">
      547. 省份数量
     </text>
    </a>
   </g>
   <g transform="translate(110.5, -42.0) scale(0.3)">
    <circle cx="24" cy="24" fill="#4caf50" r="21"/>
    <polygon fill="#ccff90" points="34.6,14.6 21,28.2 15.4,22.6 12.6,25.4 21,33.8 37.4,17.4"/>
   </g>
  </g>
  <!-- 200&#45;&gt;547 -->
  <g class="edge" id="edge4">
   <title>
    200-&gt;547
   </title>
   <path d="M72.5,-71.7C72.5,-63.98 72.5,-54.71 72.5,-46.11" fill="none" stroke="lightgrey"/>
   <polygon fill="lightgrey" points="76,-46.1 72.5,-36.1 69,-46.1 76,-46.1" stroke="lightgrey"/>
  </g>
  <g class="key">
   <defs>
    <filter height="1.2" id="solid" width="1.2" x="-0.1" y="-0.1">
     <feFlood flood-color="#ccff90" result="bg"/>
     <feMerge>
      <feMergeNode in="bg"/>
      <feMergeNode in="SourceGraphic"/>
     </feMerge>
    </filter>
   </defs>
   <text filter="url(#solid)" font-family="Microsoft YaHei" font-size="10.00" text-anchor="middle" x="72.5" y="5.0">
    基本题
   </text>
  </g>
 </g>
</svg>