<?xml version="1.0" encoding="utf-8"?>
<!DOCTYPE svg PUBLIC "-//W3C//DTD SVG 1.1//EN" "http://www.w3.org/Graphics/SVG/1.1/DTD/svg11.dtd">
<!-- Generated by graphviz version 2.46.1 (20210213.1702)
 -->
<!-- Title: stones Pages: 1 -->
<svg height="670pt" viewBox="0.00 0.00 945.0 670.0" width="945pt" xmlns="http://www.w3.org/2000/svg" xmlns:xlink="http://www.w3.org/1999/xlink">
 <g class="graph" id="graph0" transform="scale(1 1) rotate(0) translate(4 616)">
  <title>
   stones
  </title>
  <polygon fill="white" points="-4,4 -4,-616 891,-616 891,4 -4,4" stroke="transparent"/>
  <!-- Leetcode&#45;链表 -->
  <g class="node" id="node1">
   <title>
    Leetcode-链表
   </title>
   <g id="a_node1">
    <a target="_parent" xlink:href="https://leetcode-cn.com/tag/linked-list" xlink:title="Leetcode-链表(30)">
     <polygon fill="orangered" points="393.5,-612 254.5,-612 254.5,-576 393.5,-576 393.5,-612" stroke="lightgrey"/>
     <text fill="white" font-family="Microsoft YaHei" font-size="14.00" text-anchor="middle" x="324" y="-590.3">
      Leetcode-链表(30)
     </text>
    </a>
   </g>
  </g>
  <!-- 链表第一题 -->
  <g class="node" id="node2">
   <title>
    链表第一题
   </title>
   <polygon fill="lightslategray" points="96.5,-540 5.5,-540 5.5,-504 96.5,-504 96.5,-540" stroke="lightgrey"/>
   <text fill="white" font-family="Microsoft YaHei" font-size="12.00" text-anchor="middle" x="51" y="-518.9">
    链表第一题(1)
   </text>
  </g>
  <!-- Leetcode&#45;链表&#45;&gt;链表第一题 -->
  <g class="edge" id="edge1">
   <title>
    Leetcode-链表-&gt;链表第一题
   </title>
   <path d="M254.22,-576.8C211.81,-566.72 156.63,-553.21 108,-540 107.54,-539.87 107.08,-539.75 106.61,-539.62" fill="none" stroke="lightgrey"/>
   <polygon fill="lightgrey" points="107.25,-536.17 96.68,-536.84 105.36,-542.91 107.25,-536.17" stroke="lightgrey"/>
  </g>
  <!-- 反转链表 -->
  <g class="node" id="node4">
   <title>
    反转链表
   </title>
   <polygon fill="lightslategray" points="196.5,-540 117.5,-540 117.5,-504 196.5,-504 196.5,-540" stroke="lightgrey"/>
   <text fill="white" font-family="Microsoft YaHei" font-size="12.00" text-anchor="middle" x="157" y="-518.9">
    反转链表(5)
   </text>
  </g>
  <!-- Leetcode&#45;链表&#45;&gt;反转链表 -->
  <g class="edge" id="edge3">
   <title>
    Leetcode-链表-&gt;反转链表
   </title>
   <path d="M283.15,-575.88C259.87,-566.12 230.56,-553.83 206.05,-543.56" fill="none" stroke="lightgrey"/>
   <polygon fill="lightgrey" points="207.14,-540.22 196.57,-539.59 204.44,-546.68 207.14,-540.22" stroke="lightgrey"/>
  </g>
  <!-- 构建新链表 -->
  <g class="node" id="node10">
   <title>
    构建新链表
   </title>
   <polygon fill="lightslategray" points="309.5,-540 218.5,-540 218.5,-504 309.5,-504 309.5,-540" stroke="lightgrey"/>
   <text fill="white" font-family="Microsoft YaHei" font-size="12.00" text-anchor="middle" x="264" y="-518.9">
    构建新链表(6)
   </text>
  </g>
  <!-- Leetcode&#45;链表&#45;&gt;构建新链表 -->
  <g class="edge" id="edge9">
   <title>
    Leetcode-链表-&gt;构建新链表
   </title>
   <path d="M309.17,-575.7C301.98,-567.3 293.2,-557.07 285.31,-547.86" fill="none" stroke="lightgrey"/>
   <polygon fill="lightgrey" points="287.83,-545.42 278.66,-540.1 282.51,-549.97 287.83,-545.42" stroke="lightgrey"/>
  </g>
  <!-- 链表和其他算法 -->
  <g class="node" id="node17">
   <title>
    链表和其他算法
   </title>
   <polygon fill="lightslategray" points="444.5,-540 329.5,-540 329.5,-504 444.5,-504 444.5,-540" stroke="lightgrey"/>
   <text fill="white" font-family="Microsoft YaHei" font-size="12.00" text-anchor="middle" x="387" y="-518.9">
    链表和其他算法(6)
   </text>
  </g>
  <!-- Leetcode&#45;链表&#45;&gt;链表和其他算法 -->
  <g class="edge" id="edge16">
   <title>
    Leetcode-链表-&gt;链表和其他算法
   </title>
   <path d="M339.57,-575.7C347.2,-567.22 356.52,-556.86 364.88,-547.58" fill="none" stroke="lightgrey"/>
   <polygon fill="lightgrey" points="367.52,-549.88 371.61,-540.1 362.31,-545.2 367.52,-549.88" stroke="lightgrey"/>
  </g>
  <!-- 快慢指针 -->
  <g class="node" id="node24">
   <title>
    快慢指针
   </title>
   <polygon fill="lightslategray" points="562.5,-540 483.5,-540 483.5,-504 562.5,-504 562.5,-540" stroke="lightgrey"/>
   <text fill="white" font-family="Microsoft YaHei" font-size="12.00" text-anchor="middle" x="523" y="-518.9">
    快慢指针(7)
   </text>
  </g>
  <!-- Leetcode&#45;链表&#45;&gt;快慢指针 -->
  <g class="edge" id="edge23">
   <title>
    Leetcode-链表-&gt;快慢指针
   </title>
   <path d="M372.43,-575.97C403.15,-565.16 442.8,-551.21 473.7,-540.34" fill="none" stroke="lightgrey"/>
   <polygon fill="lightgrey" points="475.13,-543.55 483.4,-536.93 472.8,-536.95 475.13,-543.55" stroke="lightgrey"/>
  </g>
  <!-- 删除链表 -->
  <g class="node" id="node32">
   <title>
    删除链表
   </title>
   <polygon fill="lightslategray" points="697.5,-540 618.5,-540 618.5,-504 697.5,-504 697.5,-540" stroke="lightgrey"/>
   <text fill="white" font-family="Microsoft YaHei" font-size="12.00" text-anchor="middle" x="658" y="-518.9">
    删除链表(5)
   </text>
  </g>
  <!-- Leetcode&#45;链表&#45;&gt;删除链表 -->
  <g class="edge" id="edge31">
   <title>
    Leetcode-链表-&gt;删除链表
   </title>
   <path d="M393.61,-578.41C457.82,-564.95 551.55,-545.31 608.44,-533.39" fill="none" stroke="lightgrey"/>
   <polygon fill="lightgrey" points="609.21,-536.8 618.28,-531.32 607.77,-529.95 609.21,-536.8" stroke="lightgrey"/>
  </g>
  <!-- 707 -->
  <g class="node" id="node3">
   <title>
    707
   </title>
   <g id="a_node3">
    <a target="_parent" xlink:href="https://leetcode-cn.com/problems/design-linked-list" xlink:title="707. 设计链表">
     <polygon fill="none" points="92,-468 0,-468 0,-432 92,-432 92,-468" stroke="orange"/>
     <text font-family="Microsoft YaHei" font-size="12.00" text-anchor="middle" x="46" y="-446.9">
      707. 设计链表
     </text>
    </a>
   </g>
   <g transform="translate(84.0, -474.0) scale(0.3)">
    <circle cx="24" cy="24" fill="#4caf50" r="21"/>
    <polygon fill="#ccff90" points="34.6,14.6 21,28.2 15.4,22.6 12.6,25.4 21,33.8 37.4,17.4"/>
   </g>
  </g>
  <!-- 链表第一题&#45;&gt;707 -->
  <g class="edge" id="edge2">
   <title>
    链表第一题-&gt;707
   </title>
   <path d="M49.76,-503.7C49.21,-495.98 48.55,-486.71 47.94,-478.11" fill="none" stroke="lightgrey"/>
   <polygon fill="lightgrey" points="51.43,-477.83 47.22,-468.1 44.44,-478.33 51.43,-477.83" stroke="lightgrey"/>
  </g>
  <!-- 206 -->
  <g class="node" id="node5">
   <title>
    206
   </title>
   <g id="a_node5">
    <a target="_parent" xlink:href="https://leetcode-cn.com/problems/reverse-linked-list" xlink:title="206. 反转链表">
     <polygon fill="none" points="202,-468 110,-468 110,-432 202,-432 202,-468" stroke="greenyellow"/>
     <text font-family="Microsoft YaHei" font-size="12.00" text-anchor="middle" x="156" y="-446.9">
      206. 反转链表
     </text>
    </a>
   </g>
   <g transform="translate(194.0, -474.0) scale(0.3)">
    <circle cx="24" cy="24" fill="#4caf50" r="21"/>
    <polygon fill="#ccff90" points="34.6,14.6 21,28.2 15.4,22.6 12.6,25.4 21,33.8 37.4,17.4"/>
   </g>
  </g>
  <!-- 反转链表&#45;&gt;206 -->
  <g class="edge" id="edge4">
   <title>
    反转链表-&gt;206
   </title>
   <path d="M156.75,-503.7C156.64,-495.98 156.51,-486.71 156.39,-478.11" fill="none" stroke="lightgrey"/>
   <polygon fill="lightgrey" points="159.89,-478.05 156.24,-468.1 152.89,-478.15 159.89,-478.05" stroke="lightgrey"/>
  </g>
  <!-- 24 -->
  <g class="node" id="node6">
   <title>
    24
   </title>
   <g id="a_node6">
    <a target="_parent" xlink:href="https://leetcode-cn.com/problems/swap-nodes-in-pairs" xlink:title="24. 两两交换链表中的节点">
     <polygon fill="none" points="171.5,-396 14.5,-396 14.5,-360 171.5,-360 171.5,-396" stroke="orange"/>
     <text font-family="Microsoft YaHei" font-size="12.00" text-anchor="middle" x="93" y="-374.9">
      24. 两两交换链表中的节点
     </text>
    </a>
   </g>
   <g transform="translate(163.5, -402.0) scale(0.3)">
    <circle cx="24" cy="24" fill="#4caf50" r="21"/>
    <polygon fill="#ccff90" points="34.6,14.6 21,28.2 15.4,22.6 12.6,25.4 21,33.8 37.4,17.4"/>
   </g>
  </g>
  <!-- 206&#45;&gt;24 -->
  <g class="edge" id="edge5">
   <title>
    206-&gt;24
   </title>
   <path d="M140.43,-431.7C132.8,-423.22 123.48,-412.86 115.12,-403.58" fill="none" stroke="lightgrey"/>
   <polygon fill="lightgrey" points="117.69,-401.2 108.39,-396.1 112.48,-405.88 117.69,-401.2" stroke="lightgrey"/>
  </g>
  <!-- 25 -->
  <g class="node" id="node7">
   <title>
    25
   </title>
   <g id="a_node7">
    <a target="_parent" xlink:href="https://leetcode-cn.com/problems/reverse-nodes-in-k-group" xlink:title="25. K 个一组翻转链表">
     <polygon fill="none" points="158,-324 26,-324 26,-288 158,-288 158,-324" stroke="red"/>
     <text font-family="Microsoft YaHei" font-size="12.00" text-anchor="middle" x="92" y="-302.9">
      25. K 个一组翻转链表
     </text>
    </a>
   </g>
   <g transform="translate(150.0, -330.0) scale(0.3)">
    <circle cx="24" cy="24" fill="#4caf50" r="21"/>
    <polygon fill="#ccff90" points="34.6,14.6 21,28.2 15.4,22.6 12.6,25.4 21,33.8 37.4,17.4"/>
   </g>
  </g>
  <!-- 24&#45;&gt;25 -->
  <g class="edge" id="edge6">
   <title>
    24-&gt;25
   </title>
   <path d="M92.75,-359.7C92.64,-351.98 92.51,-342.71 92.39,-334.11" fill="none" stroke="lightgrey"/>
   <polygon fill="lightgrey" points="95.89,-334.05 92.24,-324.1 88.89,-334.15 95.89,-334.05" stroke="lightgrey"/>
  </g>
  <!-- 92 -->
  <g class="node" id="node8">
   <title>
    92
   </title>
   <g id="a_node8">
    <a target="_parent" xlink:href="https://leetcode-cn.com/problems/reverse-linked-list-ii" xlink:title="92. 反转链表 II">
     <polygon fill="none" points="140,-252 44,-252 44,-216 140,-216 140,-252" stroke="orange"/>
     <text font-family="Microsoft YaHei" font-size="12.00" text-anchor="middle" x="92" y="-230.9">
      92. 反转链表 II
     </text>
    </a>
   </g>
   <g transform="translate(132.0, -258.0) scale(0.3)">
    <circle cx="24" cy="24" fill="#4caf50" r="21"/>
    <polygon fill="#ccff90" points="34.6,14.6 21,28.2 15.4,22.6 12.6,25.4 21,33.8 37.4,17.4"/>
   </g>
   <g transform="translate(131.0, -225.0)">
    <symbol id="flask" viewBox="0 0 448 512">
     <path d="M437.2 403.5L320 215V64h8c13.3 0 24-10.7 24-24V24c0-13.3-10.7-24-24-24H120c-13.3 0-24 10.7-24 24v16c0 13.3 10.7 24 24 24h8v151L10.8 403.5C-18.5 450.6 15.3 512 70.9 512h306.2c55.7 0 89.4-61.5 60.1-108.5zM137.9 320l48.2-77.6c3.7-5.2 5.8-11.6 5.8-18.4V64h64v160c0 6.9 2.2 13.2 5.8 18.4l48.2 77.6h-172z" fill="#1389fd"/>
    </symbol>
    <a href="https://github.com/acm-clan/algorithm-stone/blob/main/user/leetcode/92.反转链表 II.md">
     <use height="18" href="#flask" width="18"/>
    </a>
   </g>
  </g>
  <!-- 25&#45;&gt;92 -->
  <g class="edge" id="edge7">
   <title>
    25-&gt;92
   </title>
   <path d="M92,-287.7C92,-279.98 92,-270.71 92,-262.11" fill="none" stroke="lightgrey"/>
   <polygon fill="lightgrey" points="95.5,-262.1 92,-252.1 88.5,-262.1 95.5,-262.1" stroke="lightgrey"/>
  </g>
  <!-- 143 -->
  <g class="node" id="node9">
   <title>
    143
   </title>
   <g id="a_node9">
    <a target="_parent" xlink:href="https://leetcode-cn.com/problems/reorder-list" xlink:title="143. 重排链表">
     <polygon fill="none" points="138,-180 46,-180 46,-144 138,-144 138,-180" stroke="orange"/>
     <text font-family="Microsoft YaHei" font-size="12.00" text-anchor="middle" x="92" y="-158.9">
      143. 重排链表
     </text>
    </a>
   </g>
   <g transform="translate(130.0, -186.0) scale(0.3)">
    <circle cx="24" cy="24" fill="#4caf50" r="21"/>
    <polygon fill="#ccff90" points="34.6,14.6 21,28.2 15.4,22.6 12.6,25.4 21,33.8 37.4,17.4"/>
   </g>
  </g>
  <!-- 92&#45;&gt;143 -->
  <g class="edge" id="edge8">
   <title>
    92-&gt;143
   </title>
   <path d="M92,-215.7C92,-207.98 92,-198.71 92,-190.11" fill="none" stroke="lightgrey"/>
   <polygon fill="lightgrey" points="95.5,-190.1 92,-180.1 88.5,-190.1 95.5,-190.1" stroke="lightgrey"/>
  </g>
  <!-- 2 -->
  <g class="node" id="node11">
   <title>
    2
   </title>
   <g id="a_node11">
    <a target="_parent" xlink:href="https://leetcode-cn.com/problems/add-two-numbers" xlink:title="2. 两数相加">
     <polygon fill="none" points="298,-468 220,-468 220,-432 298,-432 298,-468" stroke="orange"/>
     <text font-family="Microsoft YaHei" font-size="12.00" text-anchor="middle" x="259" y="-446.9">
      2. 两数相加
     </text>
    </a>
   </g>
   <g transform="translate(290.0, -474.0) scale(0.3)">
    <circle cx="24" cy="24" fill="#4caf50" r="21"/>
    <polygon fill="#ccff90" points="34.6,14.6 21,28.2 15.4,22.6 12.6,25.4 21,33.8 37.4,17.4"/>
   </g>
  </g>
  <!-- 构建新链表&#45;&gt;2 -->
  <g class="edge" id="edge10">
   <title>
    构建新链表-&gt;2
   </title>
   <path d="M262.76,-503.7C262.21,-495.98 261.55,-486.71 260.94,-478.11" fill="none" stroke="lightgrey"/>
   <polygon fill="lightgrey" points="264.43,-477.83 260.22,-468.1 257.44,-478.33 264.43,-477.83" stroke="lightgrey"/>
  </g>
  <!-- 21 -->
  <g class="node" id="node12">
   <title>
    21
   </title>
   <g id="a_node12">
    <a target="_parent" xlink:href="https://leetcode-cn.com/problems/merge-two-sorted-lists" xlink:title="21. 合并两个有序链表">
     <polygon fill="none" points="323.5,-396 190.5,-396 190.5,-360 323.5,-360 323.5,-396" stroke="greenyellow"/>
     <text font-family="Microsoft YaHei" font-size="12.00" text-anchor="middle" x="257" y="-374.9">
      21. 合并两个有序链表
     </text>
    </a>
   </g>
   <g transform="translate(315.5, -402.0) scale(0.3)">
    <circle cx="24" cy="24" fill="#4caf50" r="21"/>
    <polygon fill="#ccff90" points="34.6,14.6 21,28.2 15.4,22.6 12.6,25.4 21,33.8 37.4,17.4"/>
   </g>
  </g>
  <!-- 2&#45;&gt;21 -->
  <g class="edge" id="edge11">
   <title>
    2-&gt;21
   </title>
   <path d="M258.51,-431.7C258.29,-423.98 258.02,-414.71 257.77,-406.11" fill="none" stroke="lightgrey"/>
   <polygon fill="lightgrey" points="261.27,-406 257.49,-396.1 254.28,-406.2 261.27,-406" stroke="lightgrey"/>
  </g>
  <!-- 445 -->
  <g class="node" id="node13">
   <title>
    445
   </title>
   <g id="a_node13">
    <a target="_parent" xlink:href="https://leetcode-cn.com/problems/add-two-numbers-ii" xlink:title="445. 两数相加 II">
     <polygon fill="none" points="279.5,-324 176.5,-324 176.5,-288 279.5,-288 279.5,-324" stroke="orange"/>
     <text font-family="Microsoft YaHei" font-size="12.00" text-anchor="middle" x="228" y="-302.9">
      445. 两数相加 II
     </text>
    </a>
   </g>
   <g transform="translate(271.5, -330.0) scale(0.3)">
    <circle cx="24" cy="24" fill="#4caf50" r="21"/>
    <polygon fill="#ccff90" points="34.6,14.6 21,28.2 15.4,22.6 12.6,25.4 21,33.8 37.4,17.4"/>
   </g>
  </g>
  <!-- 21&#45;&gt;445 -->
  <g class="edge" id="edge12">
   <title>
    21-&gt;445
   </title>
   <path d="M249.83,-359.7C246.57,-351.81 242.63,-342.3 239,-333.55" fill="none" stroke="lightgrey"/>
   <polygon fill="lightgrey" points="242.15,-332 235.09,-324.1 235.68,-334.68 242.15,-332" stroke="lightgrey"/>
  </g>
  <!-- 86 -->
  <g class="node" id="node14">
   <title>
    86
   </title>
   <g id="a_node14">
    <a target="_parent" xlink:href="https://leetcode-cn.com/problems/partition-list" xlink:title="86. 分隔链表">
     <polygon fill="none" points="262.5,-252 177.5,-252 177.5,-216 262.5,-216 262.5,-252" stroke="orange"/>
     <text font-family="Microsoft YaHei" font-size="12.00" text-anchor="middle" x="220" y="-230.9">
      86. 分隔链表
     </text>
    </a>
   </g>
   <g transform="translate(254.5, -258.0) scale(0.3)">
    <circle cx="24" cy="24" fill="#4caf50" r="21"/>
    <polygon fill="#ccff90" points="34.6,14.6 21,28.2 15.4,22.6 12.6,25.4 21,33.8 37.4,17.4"/>
   </g>
  </g>
  <!-- 445&#45;&gt;86 -->
  <g class="edge" id="edge13">
   <title>
    445-&gt;86
   </title>
   <path d="M226.02,-287.7C225.14,-279.98 224.08,-270.71 223.1,-262.11" fill="none" stroke="lightgrey"/>
   <polygon fill="lightgrey" points="226.57,-261.64 221.95,-252.1 219.61,-262.44 226.57,-261.64" stroke="lightgrey"/>
  </g>
  <!-- 328 -->
  <g class="node" id="node15">
   <title>
    328
   </title>
   <g id="a_node15">
    <a target="_parent" xlink:href="https://leetcode-cn.com/problems/odd-even-linked-list" xlink:title="328. 奇偶链表">
     <polygon fill="none" points="258,-180 166,-180 166,-144 258,-144 258,-180" stroke="orange"/>
     <text font-family="Microsoft YaHei" font-size="12.00" text-anchor="middle" x="212" y="-158.9">
      328. 奇偶链表
     </text>
    </a>
   </g>
   <g transform="translate(250.0, -186.0) scale(0.3)">
    <circle cx="24" cy="24" fill="#4caf50" r="21"/>
    <polygon fill="#ccff90" points="34.6,14.6 21,28.2 15.4,22.6 12.6,25.4 21,33.8 37.4,17.4"/>
   </g>
  </g>
  <!-- 86&#45;&gt;328 -->
  <g class="edge" id="edge14">
   <title>
    86-&gt;328
   </title>
   <path d="M218.02,-215.7C217.14,-207.98 216.08,-198.71 215.1,-190.11" fill="none" stroke="lightgrey"/>
   <polygon fill="lightgrey" points="218.57,-189.64 213.95,-180.1 211.61,-190.44 218.57,-189.64" stroke="lightgrey"/>
  </g>
  <!-- 1669 -->
  <g class="node" id="node16">
   <title>
    1669
   </title>
   <g id="a_node16">
    <a target="_parent" xlink:href="https://leetcode-cn.com/problems/merge-in-between-linked-lists" xlink:title="1669. 合并两个链表">
     <polygon fill="none" points="271,-108 149,-108 149,-72 271,-72 271,-108" stroke="orange"/>
     <text font-family="Microsoft YaHei" font-size="12.00" text-anchor="middle" x="210" y="-86.9">
      1669. 合并两个链表
     </text>
    </a>
   </g>
   <g transform="translate(263.0, -114.0) scale(0.3)">
    <circle cx="24" cy="24" fill="#4caf50" r="21"/>
    <polygon fill="#ccff90" points="34.6,14.6 21,28.2 15.4,22.6 12.6,25.4 21,33.8 37.4,17.4"/>
   </g>
  </g>
  <!-- 328&#45;&gt;1669 -->
  <g class="edge" id="edge15">
   <title>
    328-&gt;1669
   </title>
   <path d="M211.51,-143.7C211.29,-135.98 211.02,-126.71 210.77,-118.11" fill="none" stroke="lightgrey"/>
   <polygon fill="lightgrey" points="214.27,-118 210.49,-108.1 207.28,-118.2 214.27,-118" stroke="lightgrey"/>
  </g>
  <!-- 1290 -->
  <g class="node" id="node18">
   <title>
    1290
   </title>
   <g id="a_node18">
    <a target="_parent" xlink:href="https://leetcode-cn.com/problems/convert-binary-number-in-a-linked-list-to-integer" xlink:title="1290. 二进制链表转整数">
     <polygon fill="none" points="462,-468 316,-468 316,-432 462,-432 462,-468" stroke="greenyellow"/>
     <text font-family="Microsoft YaHei" font-size="12.00" text-anchor="middle" x="389" y="-446.9">
      1290. 二进制链表转整数
     </text>
    </a>
   </g>
   <g transform="translate(454.0, -474.0) scale(0.3)">
    <circle cx="24" cy="24" fill="#4caf50" r="21"/>
    <polygon fill="#ccff90" points="34.6,14.6 21,28.2 15.4,22.6 12.6,25.4 21,33.8 37.4,17.4"/>
   </g>
  </g>
  <!-- 链表和其他算法&#45;&gt;1290 -->
  <g class="edge" id="edge17">
   <title>
    链表和其他算法-&gt;1290
   </title>
   <path d="M387.49,-503.7C387.71,-495.98 387.98,-486.71 388.23,-478.11" fill="none" stroke="lightgrey"/>
   <polygon fill="lightgrey" points="391.72,-478.2 388.51,-468.1 384.73,-478 391.72,-478.2" stroke="lightgrey"/>
  </g>
  <!-- 817 -->
  <g class="node" id="node19">
   <title>
    817
   </title>
   <g id="a_node19">
    <a target="_parent" xlink:href="https://leetcode-cn.com/problems/linked-list-components" xlink:title="817. 链表组件">
     <polygon fill="none" points="435,-396 343,-396 343,-360 435,-360 435,-396" stroke="orange"/>
     <text font-family="Microsoft YaHei" font-size="12.00" text-anchor="middle" x="389" y="-374.9">
      817. 链表组件
     </text>
    </a>
   </g>
   <g transform="translate(427.0, -402.0) scale(0.3)">
    <circle cx="24" cy="24" fill="#4caf50" r="21"/>
    <polygon fill="#ccff90" points="34.6,14.6 21,28.2 15.4,22.6 12.6,25.4 21,33.8 37.4,17.4"/>
   </g>
  </g>
  <!-- 1290&#45;&gt;817 -->
  <g class="edge" id="edge18">
   <title>
    1290-&gt;817
   </title>
   <path d="M389,-431.7C389,-423.98 389,-414.71 389,-406.11" fill="none" stroke="lightgrey"/>
   <polygon fill="lightgrey" points="392.5,-406.1 389,-396.1 385.5,-406.1 392.5,-406.1" stroke="lightgrey"/>
  </g>
  <!-- 1019 -->
  <g class="node" id="node20">
   <title>
    1019
   </title>
   <g id="a_node20">
    <a target="_parent" xlink:href="https://leetcode-cn.com/problems/next-greater-node-in-linked-list" xlink:title="1019. 链表中的下一个更大节点">
     <polygon fill="none" points="480,-324 298,-324 298,-288 480,-288 480,-324" stroke="orange"/>
     <text font-family="Microsoft YaHei" font-size="12.00" text-anchor="middle" x="389" y="-302.9">
      1019. 链表中的下一个更大节点
     </text>
    </a>
   </g>
   <g transform="translate(472.0, -330.0) scale(0.3)">
    <circle cx="24" cy="24" fill="#4caf50" r="21"/>
    <polygon fill="#ccff90" points="34.6,14.6 21,28.2 15.4,22.6 12.6,25.4 21,33.8 37.4,17.4"/>
   </g>
  </g>
  <!-- 817&#45;&gt;1019 -->
  <g class="edge" id="edge19">
   <title>
    817-&gt;1019
   </title>
   <path d="M389,-359.7C389,-351.98 389,-342.71 389,-334.11" fill="none" stroke="lightgrey"/>
   <polygon fill="lightgrey" points="392.5,-334.1 389,-324.1 385.5,-334.1 392.5,-334.1" stroke="lightgrey"/>
  </g>
  <!-- 147 -->
  <g class="node" id="node21">
   <title>
    147
   </title>
   <g id="a_node21">
    <a target="_parent" xlink:href="https://leetcode-cn.com/problems/insertion-sort-list" xlink:title="147. 对链表进行插入排序">
     <polygon fill="none" points="445,-252 293,-252 293,-216 445,-216 445,-252" stroke="orange"/>
     <text font-family="Microsoft YaHei" font-size="12.00" text-anchor="middle" x="369" y="-230.9">
      147. 对链表进行插入排序
     </text>
    </a>
   </g>
   <g transform="translate(437.0, -258.0) scale(0.3)">
    <circle cx="24" cy="24" fill="#4caf50" r="21"/>
    <polygon fill="#ccff90" points="34.6,14.6 21,28.2 15.4,22.6 12.6,25.4 21,33.8 37.4,17.4"/>
   </g>
  </g>
  <!-- 1019&#45;&gt;147 -->
  <g class="edge" id="edge20">
   <title>
    1019-&gt;147
   </title>
   <path d="M384.06,-287.7C381.83,-279.9 379.15,-270.51 376.67,-261.83" fill="none" stroke="lightgrey"/>
   <polygon fill="lightgrey" points="380,-260.76 373.89,-252.1 373.27,-262.68 380,-260.76" stroke="lightgrey"/>
  </g>
  <!-- 148 -->
  <g class="node" id="node22">
   <title>
    148
   </title>
   <g id="a_node22">
    <a target="_parent" xlink:href="https://leetcode-cn.com/problems/sort-list" xlink:title="148. 排序链表">
     <polygon fill="none" points="416,-180 324,-180 324,-144 416,-144 416,-180" stroke="orange"/>
     <text font-family="Microsoft YaHei" font-size="12.00" text-anchor="middle" x="370" y="-158.9">
      148. 排序链表
     </text>
    </a>
   </g>
   <g transform="translate(408.0, -186.0) scale(0.3)">
    <circle cx="24" cy="24" fill="#4caf50" r="21"/>
    <polygon fill="#ccff90" points="34.6,14.6 21,28.2 15.4,22.6 12.6,25.4 21,33.8 37.4,17.4"/>
   </g>
  </g>
  <!-- 147&#45;&gt;148 -->
  <g class="edge" id="edge21">
   <title>
    147-&gt;148
   </title>
   <path d="M369.25,-215.7C369.36,-207.98 369.49,-198.71 369.61,-190.11" fill="none" stroke="lightgrey"/>
   <polygon fill="lightgrey" points="373.11,-190.15 369.76,-180.1 366.11,-190.05 373.11,-190.15" stroke="lightgrey"/>
  </g>
  <!-- 138 -->
  <g class="node" id="node23">
   <title>
    138
   </title>
   <g id="a_node23">
    <a target="_parent" xlink:href="https://leetcode-cn.com/problems/copy-list-with-random-pointer" xlink:title="138. 复制带随机指针的链表">
     <polygon fill="none" points="453,-108 289,-108 289,-72 453,-72 453,-108" stroke="orange"/>
     <text font-family="Microsoft YaHei" font-size="12.00" text-anchor="middle" x="371" y="-86.9">
      138. 复制带随机指针的链表
     </text>
    </a>
   </g>
   <g transform="translate(445.0, -114.0) scale(0.3)">
    <circle cx="24" cy="24" fill="#4caf50" r="21"/>
    <polygon fill="#ccff90" points="34.6,14.6 21,28.2 15.4,22.6 12.6,25.4 21,33.8 37.4,17.4"/>
   </g>
  </g>
  <!-- 148&#45;&gt;138 -->
  <g class="edge" id="edge22">
   <title>
    148-&gt;138
   </title>
   <path d="M370.25,-143.7C370.36,-135.98 370.49,-126.71 370.61,-118.11" fill="none" stroke="lightgrey"/>
   <polygon fill="lightgrey" points="374.11,-118.15 370.76,-108.1 367.11,-118.05 374.11,-118.15" stroke="lightgrey"/>
  </g>
  <!-- 876 -->
  <g class="node" id="node25">
   <title>
    876
   </title>
   <g id="a_node25">
    <a target="_parent" xlink:href="https://leetcode-cn.com/problems/middle-of-the-linked-list" xlink:title="876. 链表的中间结点">
     <polygon fill="none" points="615,-468 487,-468 487,-432 615,-432 615,-468" stroke="greenyellow"/>
     <text font-family="Microsoft YaHei" font-size="12.00" text-anchor="middle" x="551" y="-446.9">
      876. 链表的中间结点
     </text>
    </a>
   </g>
   <g transform="translate(607.0, -474.0) scale(0.3)">
    <circle cx="24" cy="24" fill="#4caf50" r="21"/>
    <polygon fill="#ccff90" points="34.6,14.6 21,28.2 15.4,22.6 12.6,25.4 21,33.8 37.4,17.4"/>
   </g>
  </g>
  <!-- 快慢指针&#45;&gt;876 -->
  <g class="edge" id="edge24">
   <title>
    快慢指针-&gt;876
   </title>
   <path d="M529.92,-503.7C533.07,-495.81 536.88,-486.3 540.38,-477.55" fill="none" stroke="lightgrey"/>
   <polygon fill="lightgrey" points="543.69,-478.69 544.16,-468.1 537.19,-476.09 543.69,-478.69" stroke="lightgrey"/>
  </g>
  <!-- 141 -->
  <g class="node" id="node26">
   <title>
    141
   </title>
   <g id="a_node26">
    <a target="_parent" xlink:href="https://leetcode-cn.com/problems/linked-list-cycle" xlink:title="141. 环形链表">
     <polygon fill="none" points="600,-396 508,-396 508,-360 600,-360 600,-396" stroke="greenyellow"/>
     <text font-family="Microsoft YaHei" font-size="12.00" text-anchor="middle" x="554" y="-374.9">
      141. 环形链表
     </text>
    </a>
   </g>
   <g transform="translate(592.0, -402.0) scale(0.3)">
    <circle cx="24" cy="24" fill="#4caf50" r="21"/>
    <polygon fill="#ccff90" points="34.6,14.6 21,28.2 15.4,22.6 12.6,25.4 21,33.8 37.4,17.4"/>
   </g>
  </g>
  <!-- 876&#45;&gt;141 -->
  <g class="edge" id="edge25">
   <title>
    876-&gt;141
   </title>
   <path d="M551.74,-431.7C552.07,-423.98 552.47,-414.71 552.84,-406.11" fill="none" stroke="lightgrey"/>
   <polygon fill="lightgrey" points="556.34,-406.25 553.27,-396.1 549.34,-405.95 556.34,-406.25" stroke="lightgrey"/>
  </g>
  <!-- 61 -->
  <g class="node" id="node27">
   <title>
    61
   </title>
   <g id="a_node27">
    <a target="_parent" xlink:href="https://leetcode-cn.com/problems/rotate-list" xlink:title="61. 旋转链表">
     <polygon fill="none" points="598.5,-324 513.5,-324 513.5,-288 598.5,-288 598.5,-324" stroke="orange"/>
     <text font-family="Microsoft YaHei" font-size="12.00" text-anchor="middle" x="556" y="-302.9">
      61. 旋转链表
     </text>
    </a>
   </g>
   <g transform="translate(590.5, -330.0) scale(0.3)">
    <circle cx="24" cy="24" fill="#4caf50" r="21"/>
    <polygon fill="#ccff90" points="34.6,14.6 21,28.2 15.4,22.6 12.6,25.4 21,33.8 37.4,17.4"/>
   </g>
  </g>
  <!-- 141&#45;&gt;61 -->
  <g class="edge" id="edge26">
   <title>
    141-&gt;61
   </title>
   <path d="M554.49,-359.7C554.71,-351.98 554.98,-342.71 555.23,-334.11" fill="none" stroke="lightgrey"/>
   <polygon fill="lightgrey" points="558.72,-334.2 555.51,-324.1 551.73,-334 558.72,-334.2" stroke="lightgrey"/>
  </g>
  <!-- 19 -->
  <g class="node" id="node28">
   <title>
    19
   </title>
   <g id="a_node28">
    <a target="_parent" xlink:href="https://leetcode-cn.com/problems/remove-nth-node-from-end-of-list" xlink:title="19. 删除链表的倒数第 N 个结点">
     <polygon fill="none" points="649,-252 463,-252 463,-216 649,-216 649,-252" stroke="orange"/>
     <text font-family="Microsoft YaHei" font-size="12.00" text-anchor="middle" x="556" y="-230.9">
      19. 删除链表的倒数第 N 个结点
     </text>
    </a>
   </g>
   <g transform="translate(641.0, -258.0) scale(0.3)">
    <circle cx="24" cy="24" fill="#4caf50" r="21"/>
    <polygon fill="#ccff90" points="34.6,14.6 21,28.2 15.4,22.6 12.6,25.4 21,33.8 37.4,17.4"/>
   </g>
  </g>
  <!-- 61&#45;&gt;19 -->
  <g class="edge" id="edge27">
   <title>
    61-&gt;19
   </title>
   <path d="M556,-287.7C556,-279.98 556,-270.71 556,-262.11" fill="none" stroke="lightgrey"/>
   <polygon fill="lightgrey" points="559.5,-262.1 556,-252.1 552.5,-262.1 559.5,-262.1" stroke="lightgrey"/>
  </g>
  <!-- 1721 -->
  <g class="node" id="node29">
   <title>
    1721
   </title>
   <g id="a_node29">
    <a target="_parent" xlink:href="https://leetcode-cn.com/problems/swapping-nodes-in-a-linked-list" xlink:title="1721. 交换链表中的节点">
     <polygon fill="none" points="627,-180 481,-180 481,-144 627,-144 627,-180" stroke="orange"/>
     <text font-family="Microsoft YaHei" font-size="12.00" text-anchor="middle" x="554" y="-158.9">
      1721. 交换链表中的节点
     </text>
    </a>
   </g>
   <g transform="translate(619.0, -186.0) scale(0.3)">
    <circle cx="24" cy="24" fill="#4caf50" r="21"/>
    <polygon fill="#ccff90" points="34.6,14.6 21,28.2 15.4,22.6 12.6,25.4 21,33.8 37.4,17.4"/>
   </g>
  </g>
  <!-- 19&#45;&gt;1721 -->
  <g class="edge" id="edge28">
   <title>
    19-&gt;1721
   </title>
   <path d="M555.51,-215.7C555.29,-207.98 555.02,-198.71 554.77,-190.11" fill="none" stroke="lightgrey"/>
   <polygon fill="lightgrey" points="558.27,-190 554.49,-180.1 551.28,-190.2 558.27,-190" stroke="lightgrey"/>
  </g>
  <!-- 160 -->
  <g class="node" id="node30">
   <title>
    160
   </title>
   <g id="a_node30">
    <a target="_parent" xlink:href="https://leetcode-cn.com/problems/intersection-of-two-linked-lists" xlink:title="160. 相交链表">
     <polygon fill="none" points="600,-108 508,-108 508,-72 600,-72 600,-108" stroke="greenyellow"/>
     <text font-family="Microsoft YaHei" font-size="12.00" text-anchor="middle" x="554" y="-86.9">
      160. 相交链表
     </text>
    </a>
   </g>
   <g transform="translate(592.0, -114.0) scale(0.3)">
    <circle cx="24" cy="24" fill="#4caf50" r="21"/>
    <polygon fill="#ccff90" points="34.6,14.6 21,28.2 15.4,22.6 12.6,25.4 21,33.8 37.4,17.4"/>
   </g>
   <g transform="translate(591.0, -81.0)">
    <symbol id="flask" viewBox="0 0 448 512">
     <path d="M437.2 403.5L320 215V64h8c13.3 0 24-10.7 24-24V24c0-13.3-10.7-24-24-24H120c-13.3 0-24 10.7-24 24v16c0 13.3 10.7 24 24 24h8v151L10.8 403.5C-18.5 450.6 15.3 512 70.9 512h306.2c55.7 0 89.4-61.5 60.1-108.5zM137.9 320l48.2-77.6c3.7-5.2 5.8-11.6 5.8-18.4V64h64v160c0 6.9 2.2 13.2 5.8 18.4l48.2 77.6h-172z" fill="#1389fd"/>
    </symbol>
    <a href="https://github.com/acm-clan/algorithm-stone/blob/main/user/leetcode/160.相交链表.md">
     <use height="18" href="#flask" width="18"/>
    </a>
   </g>
  </g>
  <!-- 1721&#45;&gt;160 -->
  <g class="edge" id="edge29">
   <title>
    1721-&gt;160
   </title>
   <path d="M554,-143.7C554,-135.98 554,-126.71 554,-118.11" fill="none" stroke="lightgrey"/>
   <polygon fill="lightgrey" points="557.5,-118.1 554,-108.1 550.5,-118.1 557.5,-118.1" stroke="lightgrey"/>
  </g>
  <!-- 142 -->
  <g class="node" id="node31">
   <title>
    142
   </title>
   <g id="a_node31">
    <a target="_parent" xlink:href="https://leetcode-cn.com/problems/linked-list-cycle-ii" xlink:title="142. 环形链表 II">
     <polygon fill="none" points="605.5,-36 502.5,-36 502.5,0 605.5,0 605.5,-36" stroke="orange"/>
     <text font-family="Microsoft YaHei" font-size="12.00" text-anchor="middle" x="554" y="-14.9">
      142. 环形链表 II
     </text>
    </a>
   </g>
   <g transform="translate(597.5, -42.0) scale(0.3)">
    <circle cx="24" cy="24" fill="#4caf50" r="21"/>
    <polygon fill="#ccff90" points="34.6,14.6 21,28.2 15.4,22.6 12.6,25.4 21,33.8 37.4,17.4"/>
   </g>
   <g transform="translate(596.5, -9.0)">
    <symbol id="flask" viewBox="0 0 448 512">
     <path d="M437.2 403.5L320 215V64h8c13.3 0 24-10.7 24-24V24c0-13.3-10.7-24-24-24H120c-13.3 0-24 10.7-24 24v16c0 13.3 10.7 24 24 24h8v151L10.8 403.5C-18.5 450.6 15.3 512 70.9 512h306.2c55.7 0 89.4-61.5 60.1-108.5zM137.9 320l48.2-77.6c3.7-5.2 5.8-11.6 5.8-18.4V64h64v160c0 6.9 2.2 13.2 5.8 18.4l48.2 77.6h-172z" fill="#1389fd"/>
    </symbol>
    <a href="https://github.com/acm-clan/algorithm-stone/blob/main/user/leetcode/142. 环形链表 II.md">
     <use height="18" href="#flask" width="18"/>
    </a>
   </g>
  </g>
  <!-- 160&#45;&gt;142 -->
  <g class="edge" id="edge30">
   <title>
    160-&gt;142
   </title>
   <path d="M554,-71.7C554,-63.98 554,-54.71 554,-46.11" fill="none" stroke="lightgrey"/>
   <polygon fill="lightgrey" points="557.5,-46.1 554,-36.1 550.5,-46.1 557.5,-46.1" stroke="lightgrey"/>
  </g>
  <!-- 237 -->
  <g class="node" id="node33">
   <title>
    237
   </title>
   <g id="a_node33">
    <a target="_parent" xlink:href="https://leetcode-cn.com/problems/delete-node-in-a-linked-list" xlink:title="237. 删除链表中的节点">
     <polygon fill="none" points="776,-468 636,-468 636,-432 776,-432 776,-468" stroke="greenyellow"/>
     <text font-family="Microsoft YaHei" font-size="12.00" text-anchor="middle" x="706" y="-446.9">
      237. 删除链表中的节点
     </text>
    </a>
   </g>
   <g transform="translate(768.0, -474.0) scale(0.3)">
    <circle cx="24" cy="24" fill="#4caf50" r="21"/>
    <polygon fill="#ccff90" points="34.6,14.6 21,28.2 15.4,22.6 12.6,25.4 21,33.8 37.4,17.4"/>
   </g>
  </g>
  <!-- 删除链表&#45;&gt;237 -->
  <g class="edge" id="edge32">
   <title>
    删除链表-&gt;237
   </title>
   <path d="M669.87,-503.7C675.5,-495.47 682.35,-485.48 688.57,-476.42" fill="none" stroke="lightgrey"/>
   <polygon fill="lightgrey" points="691.5,-478.33 694.27,-468.1 685.73,-474.37 691.5,-478.33" stroke="lightgrey"/>
  </g>
  <!-- 203 -->
  <g class="node" id="node34">
   <title>
    203
   </title>
   <g id="a_node34">
    <a target="_parent" xlink:href="https://leetcode-cn.com/problems/remove-linked-list-elements" xlink:title="203. 移除链表元素">
     <polygon fill="none" points="764,-396 648,-396 648,-360 764,-360 764,-396" stroke="greenyellow"/>
     <text font-family="Microsoft YaHei" font-size="12.00" text-anchor="middle" x="706" y="-374.9">
      203. 移除链表元素
     </text>
    </a>
   </g>
   <g transform="translate(756.0, -402.0) scale(0.3)">
    <circle cx="24" cy="24" fill="#4caf50" r="21"/>
    <polygon fill="#ccff90" points="34.6,14.6 21,28.2 15.4,22.6 12.6,25.4 21,33.8 37.4,17.4"/>
   </g>
  </g>
  <!-- 237&#45;&gt;203 -->
  <g class="edge" id="edge33">
   <title>
    237-&gt;203
   </title>
   <path d="M706,-431.7C706,-423.98 706,-414.71 706,-406.11" fill="none" stroke="lightgrey"/>
   <polygon fill="lightgrey" points="709.5,-406.1 706,-396.1 702.5,-406.1 709.5,-406.1" stroke="lightgrey"/>
  </g>
  <!-- 83 -->
  <g class="node" id="node35">
   <title>
    83
   </title>
   <g id="a_node35">
    <a target="_parent" xlink:href="https://leetcode-cn.com/problems/remove-duplicates-from-sorted-list" xlink:title="83. 删除排序链表中的重复元素">
     <polygon fill="none" points="798.5,-324 617.5,-324 617.5,-288 798.5,-288 798.5,-324" stroke="greenyellow"/>
     <text font-family="Microsoft YaHei" font-size="12.00" text-anchor="middle" x="708" y="-302.9">
      83. 删除排序链表中的重复元素
     </text>
    </a>
   </g>
   <g transform="translate(790.5, -330.0) scale(0.3)">
    <circle cx="24" cy="24" fill="#4caf50" r="21"/>
    <polygon fill="#ccff90" points="34.6,14.6 21,28.2 15.4,22.6 12.6,25.4 21,33.8 37.4,17.4"/>
   </g>
  </g>
  <!-- 203&#45;&gt;83 -->
  <g class="edge" id="edge34">
   <title>
    203-&gt;83
   </title>
   <path d="M706.49,-359.7C706.71,-351.98 706.98,-342.71 707.23,-334.11" fill="none" stroke="lightgrey"/>
   <polygon fill="lightgrey" points="710.72,-334.2 707.51,-324.1 703.73,-334 710.72,-334.2" stroke="lightgrey"/>
  </g>
  <!-- 82 -->
  <g class="node" id="node36">
   <title>
    82
   </title>
   <g id="a_node36">
    <a target="_parent" xlink:href="https://leetcode-cn.com/problems/remove-duplicates-from-sorted-list-ii" xlink:title="82. 删除排序链表中的重复元素 II">
     <polygon fill="none" points="861,-252 669,-252 669,-216 861,-216 861,-252" stroke="orange"/>
     <text font-family="Microsoft YaHei" font-size="12.00" text-anchor="middle" x="765" y="-230.9">
      82. 删除排序链表中的重复元素 II
     </text>
    </a>
   </g>
   <g transform="translate(853.0, -258.0) scale(0.3)">
    <circle cx="24" cy="24" fill="#4caf50" r="21"/>
    <polygon fill="#ccff90" points="34.6,14.6 21,28.2 15.4,22.6 12.6,25.4 21,33.8 37.4,17.4"/>
   </g>
  </g>
  <!-- 83&#45;&gt;82 -->
  <g class="edge" id="edge35">
   <title>
    83-&gt;82
   </title>
   <path d="M722.09,-287.7C728.92,-279.3 737.26,-269.07 744.76,-259.86" fill="none" stroke="lightgrey"/>
   <polygon fill="lightgrey" points="747.47,-262.07 751.07,-252.1 742.04,-257.65 747.47,-262.07" stroke="lightgrey"/>
  </g>
  <!-- 1171 -->
  <g class="node" id="node37">
   <title>
    1171
   </title>
   <g id="a_node37">
    <a target="_parent" xlink:href="https://leetcode-cn.com/problems/remove-zero-sum-consecutive-nodes-from-linked-list" xlink:title="1171. 从链表中删去总和值为零的连续节点">
     <polygon fill="none" points="887,-180 645,-180 645,-144 887,-144 887,-180" stroke="orange"/>
     <text font-family="Microsoft YaHei" font-size="12.00" text-anchor="middle" x="766" y="-158.9">
      1171. 从链表中删去总和值为零的连续节点
     </text>
    </a>
   </g>
   <g transform="translate(879.0, -186.0) scale(0.3)">
    <circle cx="24" cy="24" fill="#4caf50" r="21"/>
    <polygon fill="#ccff90" points="34.6,14.6 21,28.2 15.4,22.6 12.6,25.4 21,33.8 37.4,17.4"/>
   </g>
  </g>
  <!-- 82&#45;&gt;1171 -->
  <g class="edge" id="edge36">
   <title>
    82-&gt;1171
   </title>
   <path d="M765.25,-215.7C765.36,-207.98 765.49,-198.71 765.61,-190.11" fill="none" stroke="lightgrey"/>
   <polygon fill="lightgrey" points="769.11,-190.15 765.76,-180.1 762.11,-190.05 769.11,-190.15" stroke="lightgrey"/>
  </g>
  <g class="key">
   <defs>
    <filter height="1.2" id="solid" width="1.2" x="-0.1" y="-0.1">
     <feFlood flood-color="#ccff90" result="bg"/>
     <feMerge>
      <feMergeNode in="bg"/>
      <feMergeNode in="SourceGraphic"/>
     </feMerge>
    </filter>
   </defs>
   <text filter="url(#solid)" font-family="Microsoft YaHei" font-size="10.00" text-anchor="middle" x="46.0" y="-427.0">
    链表增删改查
   </text>
  </g>
  <g class="key">
   <defs>
    <filter height="1.2" id="solid" width="1.2" x="-0.1" y="-0.1">
     <feFlood flood-color="#ccff90" result="bg"/>
     <feMerge>
      <feMergeNode in="bg"/>
      <feMergeNode in="SourceGraphic"/>
     </feMerge>
    </filter>
   </defs>
   <text filter="url(#solid)" font-family="Microsoft YaHei" font-size="10.00" text-anchor="middle" x="92.0" y="-139.0">
    快慢指针
   </text>
  </g>
  <g class="key">
   <defs>
    <filter height="1.2" id="solid" width="1.2" x="-0.1" y="-0.1">
     <feFlood flood-color="#ccff90" result="bg"/>
     <feMerge>
      <feMergeNode in="bg"/>
      <feMergeNode in="SourceGraphic"/>
     </feMerge>
    </filter>
   </defs>
   <text filter="url(#solid)" font-family="Microsoft YaHei" font-size="10.00" text-anchor="middle" x="389.0" y="-427.0">
    位运算
   </text>
  </g>
  <g class="key">
   <defs>
    <filter height="1.2" id="solid" width="1.2" x="-0.1" y="-0.1">
     <feFlood flood-color="#ccff90" result="bg"/>
     <feMerge>
      <feMergeNode in="bg"/>
      <feMergeNode in="SourceGraphic"/>
     </feMerge>
    </filter>
   </defs>
   <text filter="url(#solid)" font-family="Microsoft YaHei" font-size="10.00" text-anchor="middle" x="389.0" y="-283.0">
    单调栈
   </text>
  </g>
  <g class="key">
   <defs>
    <filter height="1.2" id="solid" width="1.2" x="-0.1" y="-0.1">
     <feFlood flood-color="#ccff90" result="bg"/>
     <feMerge>
      <feMergeNode in="bg"/>
      <feMergeNode in="SourceGraphic"/>
     </feMerge>
    </filter>
   </defs>
   <text filter="url(#solid)" font-family="Microsoft YaHei" font-size="10.00" text-anchor="middle" x="369.0" y="-211.0">
    插入排序
   </text>
  </g>
  <g class="key">
   <defs>
    <filter height="1.2" id="solid" width="1.2" x="-0.1" y="-0.1">
     <feFlood flood-color="#ccff90" result="bg"/>
     <feMerge>
      <feMergeNode in="bg"/>
      <feMergeNode in="SourceGraphic"/>
     </feMerge>
    </filter>
   </defs>
   <text filter="url(#solid)" font-family="Microsoft YaHei" font-size="10.00" text-anchor="middle" x="370.0" y="-139.0">
    添加非递归的方法
   </text>
  </g>
  <g class="key">
   <defs>
    <filter height="1.2" id="solid" width="1.2" x="-0.1" y="-0.1">
     <feFlood flood-color="#ccff90" result="bg"/>
     <feMerge>
      <feMergeNode in="bg"/>
      <feMergeNode in="SourceGraphic"/>
     </feMerge>
    </filter>
   </defs>
   <text filter="url(#solid)" font-family="Microsoft YaHei" font-size="10.00" text-anchor="middle" x="371.0" y="-67.0">
    map映射
   </text>
  </g>
  <g class="key">
   <defs>
    <filter height="1.2" id="solid" width="1.2" x="-0.1" y="-0.1">
     <feFlood flood-color="#ccff90" result="bg"/>
     <feMerge>
      <feMergeNode in="bg"/>
      <feMergeNode in="SourceGraphic"/>
     </feMerge>
    </filter>
   </defs>
   <text filter="url(#solid)" font-family="Microsoft YaHei" font-size="10.00" text-anchor="middle" x="554.0" y="5.0">
    公式推理
   </text>
  </g>
  <g class="key">
   <defs>
    <filter height="1.2" id="solid" width="1.2" x="-0.1" y="-0.1">
     <feFlood flood-color="#ccff90" result="bg"/>
     <feMerge>
      <feMergeNode in="bg"/>
      <feMergeNode in="SourceGraphic"/>
     </feMerge>
    </filter>
   </defs>
   <text filter="url(#solid)" font-family="Microsoft YaHei" font-size="10.00" text-anchor="middle" x="706.0" y="-427.0">
    简单删除
   </text>
  </g>
  <g class="key">
   <defs>
    <filter height="1.2" id="solid" width="1.2" x="-0.1" y="-0.1">
     <feFlood flood-color="#ccff90" result="bg"/>
     <feMerge>
      <feMergeNode in="bg"/>
      <feMergeNode in="SourceGraphic"/>
     </feMerge>
    </filter>
   </defs>
   <text filter="url(#solid)" font-family="Microsoft YaHei" font-size="10.00" text-anchor="middle" x="706.0" y="-355.0">
    删除多个
   </text>
  </g>
  <g class="key">
   <defs>
    <filter height="1.2" id="solid" width="1.2" x="-0.1" y="-0.1">
     <feFlood flood-color="#ccff90" result="bg"/>
     <feMerge>
      <feMergeNode in="bg"/>
      <feMergeNode in="SourceGraphic"/>
     </feMerge>
    </filter>
   </defs>
   <text filter="url(#solid)" font-family="Microsoft YaHei" font-size="10.00" text-anchor="middle" x="766.0" y="-139.0">
    区间和
   </text>
  </g>
 </g>
</svg>