<?xml version="1.0" encoding="utf-8"?>
<!DOCTYPE svg PUBLIC "-//W3C//DTD SVG 1.1//EN" "http://www.w3.org/Graphics/SVG/1.1/DTD/svg11.dtd">
<!-- Generated by graphviz version 2.46.1 (20210213.1702)
 -->
<!-- Title: stones Pages: 1 -->
<svg height="598pt" viewBox="0.00 0.00 1072.5 598.0" width="1073pt" xmlns="http://www.w3.org/2000/svg" xmlns:xlink="http://www.w3.org/1999/xlink">
 <g class="graph" id="graph0" transform="scale(1 1) rotate(0) translate(4 544)">
  <title>
   stones
  </title>
  <polygon fill="white" points="-4,4 -4,-544 1018.5,-544 1018.5,4 -4,4" stroke="transparent"/>
  <!-- Leetcode&#45;小众题 -->
  <g class="node" id="node1">
   <title>
    Leetcode-小众题
   </title>
   <g id="a_node1">
    <a target="_parent" xlink:href="https://leetcode-cn.com/tag/" xlink:title="Leetcode-小众题(29)">
     <polygon fill="orangered" points="462.5,-540 308.5,-540 308.5,-504 462.5,-504 462.5,-540" stroke="lightgrey"/>
     <text fill="white" font-family="Microsoft YaHei" font-size="14.00" text-anchor="middle" x="385.5" y="-518.3">
      Leetcode-小众题(29)
     </text>
    </a>
   </g>
  </g>
  <!-- 拒绝采样 -->
  <g class="node" id="node2">
   <title>
    拒绝采样
   </title>
   <polygon fill="lightslategray" points="129,-468 50,-468 50,-432 129,-432 129,-468" stroke="lightgrey"/>
   <text fill="white" font-family="Microsoft YaHei" font-size="12.00" text-anchor="middle" x="89.5" y="-446.9">
    拒绝采样(2)
   </text>
  </g>
  <!-- Leetcode&#45;小众题&#45;&gt;拒绝采样 -->
  <g class="edge" id="edge1">
   <title>
    Leetcode-小众题-&gt;拒绝采样
   </title>
   <path d="M308.34,-507.19C261.58,-498.19 200.62,-485.37 139.07,-468.28" fill="none" stroke="lightgrey"/>
   <polygon fill="lightgrey" points="139.76,-464.84 129.18,-465.5 137.86,-471.58 139.76,-464.84" stroke="lightgrey"/>
  </g>
  <!-- 随机数 -->
  <g class="node" id="node5">
   <title>
    随机数
   </title>
   <polygon fill="lightslategray" points="214,-468 147,-468 147,-432 214,-432 214,-468" stroke="lightgrey"/>
   <text fill="white" font-family="Microsoft YaHei" font-size="12.00" text-anchor="middle" x="180.5" y="-446.9">
    随机数(6)
   </text>
  </g>
  <!-- Leetcode&#45;小众题&#45;&gt;随机数 -->
  <g class="edge" id="edge4">
   <title>
    Leetcode-小众题-&gt;随机数
   </title>
   <path d="M329.72,-503.93C300.43,-494.72 263.79,-482.82 223.98,-468.44" fill="none" stroke="lightgrey"/>
   <polygon fill="lightgrey" points="224.94,-465.07 214.35,-464.94 222.55,-471.65 224.94,-465.07" stroke="lightgrey"/>
  </g>
  <!-- 蓄水池采样 -->
  <g class="node" id="node10">
   <title>
    蓄水池采样
   </title>
   <polygon fill="lightslategray" points="323,-468 232,-468 232,-432 323,-432 323,-468" stroke="lightgrey"/>
   <text fill="white" font-family="Microsoft YaHei" font-size="12.00" text-anchor="middle" x="277.5" y="-446.9">
    蓄水池采样(2)
   </text>
  </g>
  <!-- Leetcode&#45;小众题&#45;&gt;蓄水池采样 -->
  <g class="edge" id="edge11">
   <title>
    Leetcode-小众题-&gt;蓄水池采样
   </title>
   <path d="M359.08,-503.88C345.09,-494.81 327.72,-483.55 312.61,-473.76" fill="none" stroke="lightgrey"/>
   <polygon fill="lightgrey" points="314.32,-470.69 304.02,-468.19 310.51,-476.57 314.32,-470.69" stroke="lightgrey"/>
  </g>
  <!-- 记忆化搜索 -->
  <g class="node" id="node13">
   <title>
    记忆化搜索
   </title>
   <polygon fill="lightslategray" points="397,-324 306,-324 306,-288 397,-288 397,-324" stroke="lightgrey"/>
   <text fill="white" font-family="Microsoft YaHei" font-size="12.00" text-anchor="middle" x="351.5" y="-302.9">
    记忆化搜索(1)
   </text>
  </g>
  <!-- Leetcode&#45;小众题&#45;&gt;记忆化搜索 -->
  <g class="edge" id="edge14">
   <title>
    Leetcode-小众题-&gt;记忆化搜索
   </title>
   <path d="M379.94,-503.98C376.76,-493.67 372.93,-480.19 370.5,-468 361.21,-421.38 355.91,-366.19 353.38,-334.04" fill="none" stroke="lightgrey"/>
   <polygon fill="lightgrey" points="356.87,-333.77 352.62,-324.06 349.89,-334.3 356.87,-333.77" stroke="lightgrey"/>
  </g>
  <!-- 扫描线 -->
  <g class="node" id="node15">
   <title>
    扫描线
   </title>
   <polygon fill="lightslategray" points="561,-468 494,-468 494,-432 561,-432 561,-468" stroke="lightgrey"/>
   <text fill="white" font-family="Microsoft YaHei" font-size="12.00" text-anchor="middle" x="527.5" y="-446.9">
    扫描线(4)
   </text>
  </g>
  <!-- Leetcode&#45;小众题&#45;&gt;扫描线 -->
  <g class="edge" id="edge16">
   <title>
    Leetcode-小众题-&gt;扫描线
   </title>
   <path d="M420.24,-503.88C439.6,-494.33 463.89,-482.36 484.46,-472.22" fill="none" stroke="lightgrey"/>
   <polygon fill="lightgrey" points="486.19,-475.27 493.61,-467.71 483.09,-468.99 486.19,-475.27" stroke="lightgrey"/>
  </g>
  <!-- 拓扑排序 -->
  <g class="node" id="node20">
   <title>
    拓扑排序
   </title>
   <polygon fill="lightslategray" points="459,-468 380,-468 380,-432 459,-432 459,-468" stroke="lightgrey"/>
   <text fill="white" font-family="Microsoft YaHei" font-size="12.00" text-anchor="middle" x="419.5" y="-446.9">
    拓扑排序(4)
   </text>
  </g>
  <!-- Leetcode&#45;小众题&#45;&gt;拓扑排序 -->
  <g class="edge" id="edge21">
   <title>
    Leetcode-小众题-&gt;拓扑排序
   </title>
   <path d="M393.9,-503.7C397.77,-495.73 402.45,-486.1 406.74,-477.26" fill="none" stroke="lightgrey"/>
   <polygon fill="lightgrey" points="409.97,-478.63 411.19,-468.1 403.67,-475.57 409.97,-478.63" stroke="lightgrey"/>
  </g>
  <!-- 二分查找树 -->
  <g class="node" id="node24">
   <title>
    二分查找树
   </title>
   <polygon fill="lightslategray" points="889,-468 798,-468 798,-432 889,-432 889,-468" stroke="lightgrey"/>
   <text fill="white" font-family="Microsoft YaHei" font-size="12.00" text-anchor="middle" x="843.5" y="-446.9">
    二分查找树(4)
   </text>
  </g>
  <!-- Leetcode&#45;小众题&#45;&gt;二分查找树 -->
  <g class="edge" id="edge26">
   <title>
    Leetcode-小众题-&gt;二分查找树
   </title>
   <path d="M462.68,-509.2C554.72,-495.14 706.33,-471.96 787.72,-459.53" fill="none" stroke="lightgrey"/>
   <polygon fill="lightgrey" points="788.41,-462.96 797.77,-457.99 787.35,-456.04 788.41,-462.96" stroke="lightgrey"/>
  </g>
  <!-- 树状数组 -->
  <g class="node" id="node29">
   <title>
    树状数组
   </title>
   <polygon fill="lightslategray" points="707,-468 628,-468 628,-432 707,-432 707,-468" stroke="lightgrey"/>
   <text fill="white" font-family="Microsoft YaHei" font-size="12.00" text-anchor="middle" x="667.5" y="-446.9">
    树状数组(6)
   </text>
  </g>
  <!-- Leetcode&#45;小众题&#45;&gt;树状数组 -->
  <g class="edge" id="edge31">
   <title>
    Leetcode-小众题-&gt;树状数组
   </title>
   <path d="M454.12,-503.97C504.75,-491.4 572.45,-474.59 617.9,-463.31" fill="none" stroke="lightgrey"/>
   <polygon fill="lightgrey" points="618.95,-466.66 627.81,-460.85 617.26,-459.87 618.95,-466.66" stroke="lightgrey"/>
  </g>
  <!-- 470 -->
  <g class="node" id="node3">
   <title>
    470
   </title>
   <g id="a_node3">
    <a target="_parent" xlink:href="https://leetcode-cn.com/problems/implement-rand10-using-rand7" xlink:title="470. 用 Rand7() 实现 Rand10()">
     <polygon fill="none" points="185,-396 0,-396 0,-360 185,-360 185,-396" stroke="orange"/>
     <text font-family="Microsoft YaHei" font-size="12.00" text-anchor="middle" x="92.5" y="-374.9">
      470. 用 Rand7() 实现 Rand10()
     </text>
    </a>
   </g>
   <g transform="translate(177.0, -402.0) scale(0.3)">
    <circle cx="24" cy="24" fill="#4caf50" r="21"/>
    <polygon fill="#ccff90" points="34.6,14.6 21,28.2 15.4,22.6 12.6,25.4 21,33.8 37.4,17.4"/>
   </g>
   <g transform="translate(176.0, -369.0)">
    <symbol id="flask" viewBox="0 0 448 512">
     <path d="M437.2 403.5L320 215V64h8c13.3 0 24-10.7 24-24V24c0-13.3-10.7-24-24-24H120c-13.3 0-24 10.7-24 24v16c0 13.3 10.7 24 24 24h8v151L10.8 403.5C-18.5 450.6 15.3 512 70.9 512h306.2c55.7 0 89.4-61.5 60.1-108.5zM137.9 320l48.2-77.6c3.7-5.2 5.8-11.6 5.8-18.4V64h64v160c0 6.9 2.2 13.2 5.8 18.4l48.2 77.6h-172z" fill="#1389fd"/>
    </symbol>
    <a href="https://github.com/acm-clan/algorithm-stone/blob/main/user/leetcode/470.用-rand-7-实现-rand-10.md">
     <use height="18" href="#flask" width="18"/>
    </a>
   </g>
  </g>
  <!-- 拒绝采样&#45;&gt;470 -->
  <g class="edge" id="edge2">
   <title>
    拒绝采样-&gt;470
   </title>
   <path d="M90.24,-431.7C90.57,-423.98 90.97,-414.71 91.34,-406.11" fill="none" stroke="lightgrey"/>
   <polygon fill="lightgrey" points="94.84,-406.25 91.77,-396.1 87.84,-405.95 94.84,-406.25" stroke="lightgrey"/>
  </g>
  <!-- 478 -->
  <g class="node" id="node4">
   <title>
    478
   </title>
   <g id="a_node4">
    <a target="_parent" xlink:href="https://leetcode-cn.com/problems/generate-random-point-in-a-circle" xlink:title="478. 在圆内随机生成点">
     <polygon fill="none" points="162.5,-324 22.5,-324 22.5,-288 162.5,-288 162.5,-324" stroke="orange"/>
     <text font-family="Microsoft YaHei" font-size="12.00" text-anchor="middle" x="92.5" y="-302.9">
      478. 在圆内随机生成点
     </text>
    </a>
   </g>
   <g transform="translate(154.5, -330.0) scale(0.3)">
    <circle cx="24" cy="24" fill="#4caf50" r="21"/>
    <polygon fill="#ccff90" points="34.6,14.6 21,28.2 15.4,22.6 12.6,25.4 21,33.8 37.4,17.4"/>
   </g>
   <g transform="translate(153.5, -297.0)">
    <symbol id="flask" viewBox="0 0 448 512">
     <path d="M437.2 403.5L320 215V64h8c13.3 0 24-10.7 24-24V24c0-13.3-10.7-24-24-24H120c-13.3 0-24 10.7-24 24v16c0 13.3 10.7 24 24 24h8v151L10.8 403.5C-18.5 450.6 15.3 512 70.9 512h306.2c55.7 0 89.4-61.5 60.1-108.5zM137.9 320l48.2-77.6c3.7-5.2 5.8-11.6 5.8-18.4V64h64v160c0 6.9 2.2 13.2 5.8 18.4l48.2 77.6h-172z" fill="#1389fd"/>
    </symbol>
    <a href="https://github.com/acm-clan/algorithm-stone/blob/main/user/leetcode/478.在圆内随机生成点.md">
     <use height="18" href="#flask" width="18"/>
    </a>
   </g>
  </g>
  <!-- 470&#45;&gt;478 -->
  <g class="edge" id="edge3">
   <title>
    470-&gt;478
   </title>
   <path d="M86.58,-359.7C85.79,-351.98 85.56,-342.71 85.9,-334.11" fill="none" stroke="lightgrey"/>
   <polygon fill="lightgrey" points="89.4,-334.32 86.6,-324.1 82.42,-333.84 89.4,-334.32" stroke="lightgrey"/>
  </g>
  <!-- 470&#45;&gt;478 -->
  <g class="edge" id="edge6">
   <title>
    470-&gt;478
   </title>
   <path d="M98.42,-359.7C99.21,-351.98 99.44,-342.71 99.1,-334.11" fill="none" stroke="lightgrey"/>
   <polygon fill="lightgrey" points="102.58,-333.84 98.4,-324.1 95.6,-334.32 102.58,-333.84" stroke="lightgrey"/>
  </g>
  <!-- 497 -->
  <g class="node" id="node6">
   <title>
    497
   </title>
   <g id="a_node6">
    <a target="_parent" xlink:href="https://leetcode-cn.com/problems/random-point-in-non-overlapping-rectangles" xlink:title="497. 非重叠矩形中的随机点">
     <polygon fill="none" points="174.5,-252 10.5,-252 10.5,-216 174.5,-216 174.5,-252" stroke="orange"/>
     <text font-family="Microsoft YaHei" font-size="12.00" text-anchor="middle" x="92.5" y="-230.9">
      497. 非重叠矩形中的随机点
     </text>
    </a>
   </g>
  </g>
  <!-- 478&#45;&gt;497 -->
  <g class="edge" id="edge7">
   <title>
    478-&gt;497
   </title>
   <path d="M92.5,-287.7C92.5,-279.98 92.5,-270.71 92.5,-262.11" fill="none" stroke="lightgrey"/>
   <polygon fill="lightgrey" points="96,-262.1 92.5,-252.1 89,-262.1 96,-262.1" stroke="lightgrey"/>
  </g>
  <!-- 随机数&#45;&gt;470 -->
  <g class="edge" id="edge5">
   <title>
    随机数-&gt;470
   </title>
   <path d="M158.75,-431.7C147.66,-422.88 134.03,-412.03 122.01,-402.47" fill="none" stroke="lightgrey"/>
   <polygon fill="lightgrey" points="124.01,-399.59 114,-396.1 119.65,-405.07 124.01,-399.59" stroke="lightgrey"/>
  </g>
  <!-- 519 -->
  <g class="node" id="node7">
   <title>
    519
   </title>
   <g id="a_node7">
    <a target="_parent" xlink:href="https://leetcode-cn.com/problems/random-flip-matrix" xlink:title="519. 随机翻转矩阵">
     <polygon fill="none" points="150.5,-180 34.5,-180 34.5,-144 150.5,-144 150.5,-180" stroke="orange"/>
     <text font-family="Microsoft YaHei" font-size="12.00" text-anchor="middle" x="92.5" y="-158.9">
      519. 随机翻转矩阵
     </text>
    </a>
   </g>
  </g>
  <!-- 497&#45;&gt;519 -->
  <g class="edge" id="edge8">
   <title>
    497-&gt;519
   </title>
   <path d="M92.5,-215.7C92.5,-207.98 92.5,-198.71 92.5,-190.11" fill="none" stroke="lightgrey"/>
   <polygon fill="lightgrey" points="96,-190.1 92.5,-180.1 89,-190.1 96,-190.1" stroke="lightgrey"/>
  </g>
  <!-- 528 -->
  <g class="node" id="node8">
   <title>
    528
   </title>
   <g id="a_node8">
    <a target="_parent" xlink:href="https://leetcode-cn.com/problems/random-pick-with-weight" xlink:title="528. 按权重随机选择">
     <polygon fill="none" points="156.5,-108 28.5,-108 28.5,-72 156.5,-72 156.5,-108" stroke="orange"/>
     <text font-family="Microsoft YaHei" font-size="12.00" text-anchor="middle" x="92.5" y="-86.9">
      528. 按权重随机选择
     </text>
    </a>
   </g>
  </g>
  <!-- 519&#45;&gt;528 -->
  <g class="edge" id="edge9">
   <title>
    519-&gt;528
   </title>
   <path d="M92.5,-143.7C92.5,-135.98 92.5,-126.71 92.5,-118.11" fill="none" stroke="lightgrey"/>
   <polygon fill="lightgrey" points="96,-118.1 92.5,-108.1 89,-118.1 96,-118.1" stroke="lightgrey"/>
  </g>
  <!-- 710 -->
  <g class="node" id="node9">
   <title>
    710
   </title>
   <g id="a_node9">
    <a target="_parent" xlink:href="https://leetcode-cn.com/problems/random-pick-with-blacklist" xlink:title="710. 黑名单中的随机数">
     <polygon fill="none" points="162.5,-36 22.5,-36 22.5,0 162.5,0 162.5,-36" stroke="red"/>
     <text font-family="Microsoft YaHei" font-size="12.00" text-anchor="middle" x="92.5" y="-14.9">
      710. 黑名单中的随机数
     </text>
    </a>
   </g>
  </g>
  <!-- 528&#45;&gt;710 -->
  <g class="edge" id="edge10">
   <title>
    528-&gt;710
   </title>
   <path d="M92.5,-71.7C92.5,-63.98 92.5,-54.71 92.5,-46.11" fill="none" stroke="lightgrey"/>
   <polygon fill="lightgrey" points="96,-46.1 92.5,-36.1 89,-46.1 96,-46.1" stroke="lightgrey"/>
  </g>
  <!-- 382 -->
  <g class="node" id="node11">
   <title>
    382
   </title>
   <g id="a_node11">
    <a target="_parent" xlink:href="https://leetcode-cn.com/problems/linked-list-random-node" xlink:title="382. 链表随机节点">
     <polygon fill="none" points="321.5,-396 205.5,-396 205.5,-360 321.5,-360 321.5,-396" stroke="orange"/>
     <text font-family="Microsoft YaHei" font-size="12.00" text-anchor="middle" x="263.5" y="-374.9">
      382. 链表随机节点
     </text>
    </a>
   </g>
   <g transform="translate(313.5, -402.0) scale(0.3)">
    <circle cx="24" cy="24" fill="#4caf50" r="21"/>
    <polygon fill="#ccff90" points="34.6,14.6 21,28.2 15.4,22.6 12.6,25.4 21,33.8 37.4,17.4"/>
   </g>
  </g>
  <!-- 蓄水池采样&#45;&gt;382 -->
  <g class="edge" id="edge12">
   <title>
    蓄水池采样-&gt;382
   </title>
   <path d="M274.04,-431.7C272.5,-423.98 270.64,-414.71 268.92,-406.11" fill="none" stroke="lightgrey"/>
   <polygon fill="lightgrey" points="272.31,-405.22 266.92,-396.1 265.45,-406.6 272.31,-405.22" stroke="lightgrey"/>
  </g>
  <!-- 398 -->
  <g class="node" id="node12">
   <title>
    398
   </title>
   <g id="a_node12">
    <a target="_parent" xlink:href="https://leetcode-cn.com/problems/random-pick-index" xlink:title="398. 随机数索引">
     <polygon fill="none" points="287.5,-324 183.5,-324 183.5,-288 287.5,-288 287.5,-324" stroke="orange"/>
     <text font-family="Microsoft YaHei" font-size="12.00" text-anchor="middle" x="235.5" y="-302.9">
      398. 随机数索引
     </text>
    </a>
   </g>
   <g transform="translate(279.5, -330.0) scale(0.3)">
    <circle cx="24" cy="24" fill="#4caf50" r="21"/>
    <polygon fill="#ccff90" points="34.6,14.6 21,28.2 15.4,22.6 12.6,25.4 21,33.8 37.4,17.4"/>
   </g>
  </g>
  <!-- 382&#45;&gt;398 -->
  <g class="edge" id="edge13">
   <title>
    382-&gt;398
   </title>
   <path d="M256.58,-359.7C253.43,-351.81 249.62,-342.3 246.12,-333.55" fill="none" stroke="lightgrey"/>
   <polygon fill="lightgrey" points="249.31,-332.09 242.34,-324.1 242.81,-334.69 249.31,-332.09" stroke="lightgrey"/>
  </g>
  <!-- 329 -->
  <g class="node" id="node14">
   <title>
    329
   </title>
   <g id="a_node14">
    <a target="_parent" xlink:href="https://leetcode-cn.com/problems/longest-increasing-path-in-a-matrix" xlink:title="329. 矩阵中的最长递增路径">
     <polygon fill="none" points="450.5,-252 286.5,-252 286.5,-216 450.5,-216 450.5,-252" stroke="red"/>
     <text font-family="Microsoft YaHei" font-size="12.00" text-anchor="middle" x="368.5" y="-230.9">
      329. 矩阵中的最长递增路径
     </text>
    </a>
   </g>
  </g>
  <!-- 记忆化搜索&#45;&gt;329 -->
  <g class="edge" id="edge15">
   <title>
    记忆化搜索-&gt;329
   </title>
   <path d="M355.7,-287.7C357.6,-279.9 359.88,-270.51 361.98,-261.83" fill="none" stroke="lightgrey"/>
   <polygon fill="lightgrey" points="365.39,-262.65 364.35,-252.1 358.58,-261 365.39,-262.65" stroke="lightgrey"/>
  </g>
  <!-- 1203 -->
  <g class="node" id="node23">
   <title>
    1203
   </title>
   <g id="a_node23">
    <a target="_parent" xlink:href="https://leetcode-cn.com/problems/sort-items-by-groups-respecting-dependencies" xlink:title="1203. 项目管理">
     <polygon fill="none" points="417.5,-180 319.5,-180 319.5,-144 417.5,-144 417.5,-180" stroke="red"/>
     <text font-family="Microsoft YaHei" font-size="12.00" text-anchor="middle" x="368.5" y="-158.9">
      1203. 项目管理
     </text>
    </a>
   </g>
  </g>
  <!-- 329&#45;&gt;1203 -->
  <g class="edge" id="edge25">
   <title>
    329-&gt;1203
   </title>
   <path d="M368.5,-215.7C368.5,-207.98 368.5,-198.71 368.5,-190.11" fill="none" stroke="lightgrey"/>
   <polygon fill="lightgrey" points="372,-190.1 368.5,-180.1 365,-190.1 372,-190.1" stroke="lightgrey"/>
  </g>
  <!-- 1288 -->
  <g class="node" id="node16">
   <title>
    1288
   </title>
   <g id="a_node16">
    <a target="_parent" xlink:href="https://leetcode-cn.com/problems/remove-covered-intervals" xlink:title="1288. 删除被覆盖区间">
     <polygon fill="none" points="611.5,-396 477.5,-396 477.5,-360 611.5,-360 611.5,-396" stroke="orange"/>
     <text font-family="Microsoft YaHei" font-size="12.00" text-anchor="middle" x="544.5" y="-374.9">
      1288. 删除被覆盖区间
     </text>
    </a>
   </g>
   <g transform="translate(603.5, -402.0) scale(0.3)">
    <circle cx="24" cy="24" fill="#4caf50" r="21"/>
    <polygon fill="#ccff90" points="34.6,14.6 21,28.2 15.4,22.6 12.6,25.4 21,33.8 37.4,17.4"/>
   </g>
  </g>
  <!-- 扫描线&#45;&gt;1288 -->
  <g class="edge" id="edge17">
   <title>
    扫描线-&gt;1288
   </title>
   <path d="M531.7,-431.7C533.6,-423.9 535.88,-414.51 537.98,-405.83" fill="none" stroke="lightgrey"/>
   <polygon fill="lightgrey" points="541.39,-406.65 540.35,-396.1 534.58,-405 541.39,-406.65" stroke="lightgrey"/>
  </g>
  <!-- 218 -->
  <g class="node" id="node17">
   <title>
    218
   </title>
   <g id="a_node17">
    <a target="_parent" xlink:href="https://leetcode-cn.com/problems/the-skyline-problem" xlink:title="218. 天际线问题">
     <polygon fill="none" points="715.5,-324 611.5,-324 611.5,-288 715.5,-288 715.5,-324" stroke="red"/>
     <text font-family="Microsoft YaHei" font-size="12.00" text-anchor="middle" x="663.5" y="-302.9">
      218. 天际线问题
     </text>
    </a>
   </g>
  </g>
  <!-- 1288&#45;&gt;218 -->
  <g class="edge" id="edge18">
   <title>
    1288-&gt;218
   </title>
   <path d="M573.61,-359.88C589.17,-350.72 608.52,-339.34 625.28,-329.48" fill="none" stroke="lightgrey"/>
   <polygon fill="lightgrey" points="627.43,-332.28 634.28,-324.19 623.88,-326.24 627.43,-332.28" stroke="lightgrey"/>
  </g>
  <!-- 391 -->
  <g class="node" id="node18">
   <title>
    391
   </title>
   <g id="a_node18">
    <a target="_parent" xlink:href="https://leetcode-cn.com/problems/perfect-rectangle" xlink:title="391. 完美矩形">
     <polygon fill="none" points="779.5,-252 687.5,-252 687.5,-216 779.5,-216 779.5,-252" stroke="red"/>
     <text font-family="Microsoft YaHei" font-size="12.00" text-anchor="middle" x="733.5" y="-230.9">
      391. 完美矩形
     </text>
    </a>
   </g>
  </g>
  <!-- 218&#45;&gt;391 -->
  <g class="edge" id="edge19">
   <title>
    218-&gt;391
   </title>
   <path d="M680.8,-287.7C689.36,-279.14 699.84,-268.66 709.2,-259.3" fill="none" stroke="lightgrey"/>
   <polygon fill="lightgrey" points="711.8,-261.65 716.4,-252.1 706.85,-256.7 711.8,-261.65" stroke="lightgrey"/>
  </g>
  <!-- 315 -->
  <g class="node" id="node31">
   <title>
    315
   </title>
   <g id="a_node31">
    <a target="_parent" xlink:href="https://leetcode-cn.com/problems/count-of-smaller-numbers-after-self" xlink:title="315. 计算右侧小于当前元素的个数">
     <polygon fill="none" points="669.5,-252 469.5,-252 469.5,-216 669.5,-216 669.5,-252" stroke="red"/>
     <text font-family="Microsoft YaHei" font-size="12.00" text-anchor="middle" x="569.5" y="-230.9">
      315. 计算右侧小于当前元素的个数
     </text>
    </a>
   </g>
  </g>
  <!-- 218&#45;&gt;315 -->
  <g class="edge" id="edge34">
   <title>
    218-&gt;315
   </title>
   <path d="M640.26,-287.7C628.31,-278.8 613.58,-267.82 600.65,-258.2" fill="none" stroke="lightgrey"/>
   <polygon fill="lightgrey" points="602.58,-255.27 592.47,-252.1 598.4,-260.88 602.58,-255.27" stroke="lightgrey"/>
  </g>
  <!-- 850 -->
  <g class="node" id="node19">
   <title>
    850
   </title>
   <g id="a_node19">
    <a target="_parent" xlink:href="https://leetcode-cn.com/problems/rectangle-area-ii" xlink:title="850. 矩形面积 II">
     <polygon fill="none" points="785,-180 682,-180 682,-144 785,-144 785,-180" stroke="red"/>
     <text font-family="Microsoft YaHei" font-size="12.00" text-anchor="middle" x="733.5" y="-158.9">
      850. 矩形面积 II
     </text>
    </a>
   </g>
  </g>
  <!-- 391&#45;&gt;850 -->
  <g class="edge" id="edge20">
   <title>
    391-&gt;850
   </title>
   <path d="M733.5,-215.7C733.5,-207.98 733.5,-198.71 733.5,-190.11" fill="none" stroke="lightgrey"/>
   <polygon fill="lightgrey" points="737,-190.1 733.5,-180.1 730,-190.1 737,-190.1" stroke="lightgrey"/>
  </g>
  <!-- 207 -->
  <g class="node" id="node21">
   <title>
    207
   </title>
   <g id="a_node21">
    <a target="_parent" xlink:href="https://leetcode-cn.com/problems/course-schedule" xlink:title="207. 课程表">
     <polygon fill="none" points="459.5,-396 379.5,-396 379.5,-360 459.5,-360 459.5,-396" stroke="orange"/>
     <text font-family="Microsoft YaHei" font-size="12.00" text-anchor="middle" x="419.5" y="-374.9">
      207. 课程表
     </text>
    </a>
   </g>
  </g>
  <!-- 拓扑排序&#45;&gt;207 -->
  <g class="edge" id="edge22">
   <title>
    拓扑排序-&gt;207
   </title>
   <path d="M419.5,-431.7C419.5,-423.98 419.5,-414.71 419.5,-406.11" fill="none" stroke="lightgrey"/>
   <polygon fill="lightgrey" points="423,-406.1 419.5,-396.1 416,-406.1 423,-406.1" stroke="lightgrey"/>
  </g>
  <!-- 210 -->
  <g class="node" id="node22">
   <title>
    210
   </title>
   <g id="a_node22">
    <a target="_parent" xlink:href="https://leetcode-cn.com/problems/course-schedule-ii" xlink:title="210. 课程表 II">
     <polygon fill="none" points="506,-324 415,-324 415,-288 506,-288 506,-324" stroke="orange"/>
     <text font-family="Microsoft YaHei" font-size="12.00" text-anchor="middle" x="460.5" y="-302.9">
      210. 课程表 II
     </text>
    </a>
   </g>
  </g>
  <!-- 207&#45;&gt;210 -->
  <g class="edge" id="edge23">
   <title>
    207-&gt;210
   </title>
   <path d="M429.63,-359.7C434.35,-351.64 440.06,-341.89 445.28,-332.98" fill="none" stroke="lightgrey"/>
   <polygon fill="lightgrey" points="448.45,-334.5 450.48,-324.1 442.41,-330.96 448.45,-334.5" stroke="lightgrey"/>
  </g>
  <!-- 210&#45;&gt;329 -->
  <g class="edge" id="edge24">
   <title>
    210-&gt;329
   </title>
   <path d="M437.76,-287.7C426.06,-278.8 411.64,-267.82 398.99,-258.2" fill="none" stroke="lightgrey"/>
   <polygon fill="lightgrey" points="401.06,-255.37 390.98,-252.1 396.82,-260.94 401.06,-255.37" stroke="lightgrey"/>
  </g>
  <!-- 538 -->
  <g class="node" id="node25">
   <title>
    538
   </title>
   <g id="a_node25">
    <a target="_parent" xlink:href="https://leetcode-cn.com/problems/convert-bst-to-greater-tree" xlink:title="538. 把二叉搜索树转换为累加树">
     <polygon fill="none" points="1011.5,-396 823.5,-396 823.5,-360 1011.5,-360 1011.5,-396" stroke="orange"/>
     <text font-family="Microsoft YaHei" font-size="12.00" text-anchor="middle" x="917.5" y="-374.9">
      538. 把二叉搜索树转换为累加树
     </text>
    </a>
   </g>
  </g>
  <!-- 二分查找树&#45;&gt;538 -->
  <g class="edge" id="edge27">
   <title>
    二分查找树-&gt;538
   </title>
   <path d="M861.79,-431.7C870.93,-423.05 882.14,-412.45 892.1,-403.03" fill="none" stroke="lightgrey"/>
   <polygon fill="lightgrey" points="894.56,-405.52 899.42,-396.1 889.75,-400.43 894.56,-405.52" stroke="lightgrey"/>
  </g>
  <!-- 1382 -->
  <g class="node" id="node26">
   <title>
    1382
   </title>
   <g id="a_node26">
    <a target="_parent" xlink:href="https://leetcode-cn.com/problems/balance-a-binary-search-tree" xlink:title="1382. 将二叉搜索树变平衡">
     <polygon fill="none" points="996.5,-324 838.5,-324 838.5,-288 996.5,-288 996.5,-324" stroke="orange"/>
     <text font-family="Microsoft YaHei" font-size="12.00" text-anchor="middle" x="917.5" y="-302.9">
      1382. 将二叉搜索树变平衡
     </text>
    </a>
   </g>
  </g>
  <!-- 538&#45;&gt;1382 -->
  <g class="edge" id="edge28">
   <title>
    538-&gt;1382
   </title>
   <path d="M917.5,-359.7C917.5,-351.98 917.5,-342.71 917.5,-334.11" fill="none" stroke="lightgrey"/>
   <polygon fill="lightgrey" points="921,-334.1 917.5,-324.1 914,-334.1 921,-334.1" stroke="lightgrey"/>
  </g>
  <!-- 1038 -->
  <g class="node" id="node27">
   <title>
    1038
   </title>
   <g id="a_node27">
    <a target="_parent" xlink:href="https://leetcode-cn.com/problems/binary-search-tree-to-greater-sum-tree" xlink:title="1038. 把二叉搜索树转换为累加树">
     <polygon fill="none" points="1014.5,-252 820.5,-252 820.5,-216 1014.5,-216 1014.5,-252" stroke="orange"/>
     <text font-family="Microsoft YaHei" font-size="12.00" text-anchor="middle" x="917.5" y="-230.9">
      1038. 把二叉搜索树转换为累加树
     </text>
    </a>
   </g>
  </g>
  <!-- 1382&#45;&gt;1038 -->
  <g class="edge" id="edge29">
   <title>
    1382-&gt;1038
   </title>
   <path d="M917.5,-287.7C917.5,-279.98 917.5,-270.71 917.5,-262.11" fill="none" stroke="lightgrey"/>
   <polygon fill="lightgrey" points="921,-262.1 917.5,-252.1 914,-262.1 921,-262.1" stroke="lightgrey"/>
  </g>
  <!-- 1373 -->
  <g class="node" id="node28">
   <title>
    1373
   </title>
   <g id="a_node28">
    <a target="_parent" xlink:href="https://leetcode-cn.com/problems/maximum-sum-bst-in-binary-tree" xlink:title="1373. 二叉搜索子树的最大键值和">
     <polygon fill="none" points="1014.5,-180 820.5,-180 820.5,-144 1014.5,-144 1014.5,-180" stroke="red"/>
     <text font-family="Microsoft YaHei" font-size="12.00" text-anchor="middle" x="917.5" y="-158.9">
      1373. 二叉搜索子树的最大键值和
     </text>
    </a>
   </g>
  </g>
  <!-- 1038&#45;&gt;1373 -->
  <g class="edge" id="edge30">
   <title>
    1038-&gt;1373
   </title>
   <path d="M917.5,-215.7C917.5,-207.98 917.5,-198.71 917.5,-190.11" fill="none" stroke="lightgrey"/>
   <polygon fill="lightgrey" points="921,-190.1 917.5,-180.1 914,-190.1 921,-190.1" stroke="lightgrey"/>
  </g>
  <!-- 307 -->
  <g class="node" id="node30">
   <title>
    307
   </title>
   <g id="a_node30">
    <a target="_parent" xlink:href="https://leetcode-cn.com/problems/range-sum-query-mutable" xlink:title="307. 区域和检索 - 数组可修改">
     <polygon fill="none" points="805.5,-396 629.5,-396 629.5,-360 805.5,-360 805.5,-396" stroke="orange"/>
     <text font-family="Microsoft YaHei" font-size="12.00" text-anchor="middle" x="717.5" y="-374.9">
      307. 区域和检索 - 数组可修改
     </text>
    </a>
   </g>
  </g>
  <!-- 树状数组&#45;&gt;307 -->
  <g class="edge" id="edge32">
   <title>
    树状数组-&gt;307
   </title>
   <path d="M679.86,-431.7C685.73,-423.47 692.87,-413.48 699.34,-404.42" fill="none" stroke="lightgrey"/>
   <polygon fill="lightgrey" points="702.32,-406.28 705.28,-396.1 696.62,-402.21 702.32,-406.28" stroke="lightgrey"/>
  </g>
  <!-- 307&#45;&gt;218 -->
  <g class="edge" id="edge33">
   <title>
    307-&gt;218
   </title>
   <path d="M704.15,-359.7C697.74,-351.39 689.94,-341.28 682.89,-332.14" fill="none" stroke="lightgrey"/>
   <polygon fill="lightgrey" points="685.57,-329.88 676.69,-324.1 680.03,-334.16 685.57,-329.88" stroke="lightgrey"/>
  </g>
  <!-- 327 -->
  <g class="node" id="node32">
   <title>
    327
   </title>
   <g id="a_node32">
    <a target="_parent" xlink:href="https://leetcode-cn.com/problems/count-of-range-sum" xlink:title="327. 区间和的个数">
     <polygon fill="none" points="627.5,-180 511.5,-180 511.5,-144 627.5,-144 627.5,-180" stroke="red"/>
     <text font-family="Microsoft YaHei" font-size="12.00" text-anchor="middle" x="569.5" y="-158.9">
      327. 区间和的个数
     </text>
    </a>
   </g>
  </g>
  <!-- 315&#45;&gt;327 -->
  <g class="edge" id="edge35">
   <title>
    315-&gt;327
   </title>
   <path d="M569.5,-215.7C569.5,-207.98 569.5,-198.71 569.5,-190.11" fill="none" stroke="lightgrey"/>
   <polygon fill="lightgrey" points="573,-190.1 569.5,-180.1 566,-190.1 573,-190.1" stroke="lightgrey"/>
  </g>
  <!-- 493 -->
  <g class="node" id="node33">
   <title>
    493
   </title>
   <g id="a_node33">
    <a target="_parent" xlink:href="https://leetcode-cn.com/problems/reverse-pairs" xlink:title="493. 翻转对">
     <polygon fill="none" points="609.5,-108 529.5,-108 529.5,-72 609.5,-72 609.5,-108" stroke="red"/>
     <text font-family="Microsoft YaHei" font-size="12.00" text-anchor="middle" x="569.5" y="-86.9">
      493. 翻转对
     </text>
    </a>
   </g>
  </g>
  <!-- 327&#45;&gt;493 -->
  <g class="edge" id="edge36">
   <title>
    327-&gt;493
   </title>
   <path d="M569.5,-143.7C569.5,-135.98 569.5,-126.71 569.5,-118.11" fill="none" stroke="lightgrey"/>
   <polygon fill="lightgrey" points="573,-118.1 569.5,-108.1 566,-118.1 573,-118.1" stroke="lightgrey"/>
  </g>
  <!-- 1649 -->
  <g class="node" id="node34">
   <title>
    1649
   </title>
   <g id="a_node34">
    <a target="_parent" xlink:href="https://leetcode-cn.com/problems/create-sorted-array-through-instructions" xlink:title="1649. 通过指令创建有序数组">
     <polygon fill="none" points="654.5,-36 484.5,-36 484.5,0 654.5,0 654.5,-36" stroke="red"/>
     <text font-family="Microsoft YaHei" font-size="12.00" text-anchor="middle" x="569.5" y="-14.9">
      1649. 通过指令创建有序数组
     </text>
    </a>
   </g>
  </g>
  <!-- 493&#45;&gt;1649 -->
  <g class="edge" id="edge37">
   <title>
    493-&gt;1649
   </title>
   <path d="M569.5,-71.7C569.5,-63.98 569.5,-54.71 569.5,-46.11" fill="none" stroke="lightgrey"/>
   <polygon fill="lightgrey" points="573,-46.1 569.5,-36.1 566,-46.1 573,-46.1" stroke="lightgrey"/>
  </g>
  <g class="key">
   <defs>
    <filter height="1.2" id="solid" width="1.2" x="-0.1" y="-0.1">
     <feFlood flood-color="#ccff90" result="bg"/>
     <feMerge>
      <feMergeNode in="bg"/>
      <feMergeNode in="SourceGraphic"/>
     </feMerge>
    </filter>
   </defs>
   <text filter="url(#solid)" font-family="Microsoft YaHei" font-size="10.00" text-anchor="middle" x="263.5" y="-355.0">
    蓄水池采样入门
   </text>
  </g>
  <g class="key">
   <defs>
    <filter height="1.2" id="solid" width="1.2" x="-0.1" y="-0.1">
     <feFlood flood-color="#ccff90" result="bg"/>
     <feMerge>
      <feMergeNode in="bg"/>
      <feMergeNode in="SourceGraphic"/>
     </feMerge>
    </filter>
   </defs>
   <text filter="url(#solid)" font-family="Microsoft YaHei" font-size="10.00" text-anchor="middle" x="235.5" y="-283.0">
    蓄水池采样扩展
   </text>
  </g>
 </g>
</svg>