<?xml version="1.0" encoding="utf-8"?>
<!DOCTYPE svg PUBLIC "-//W3C//DTD SVG 1.1//EN" "http://www.w3.org/Graphics/SVG/1.1/DTD/svg11.dtd">
<!-- Generated by graphviz version 2.46.1 (20210213.1702)
 -->
<!-- Title: stones Pages: 1 -->
<svg height="1390pt" viewBox="0.00 0.00 704.0 1390.0" width="704pt" xmlns="http://www.w3.org/2000/svg" xmlns:xlink="http://www.w3.org/1999/xlink">
 <g class="graph" id="graph0" transform="scale(1 1) rotate(0) translate(4 1336)">
  <title>
   stones
  </title>
  <polygon fill="white" points="-4,4 -4,-1336 650,-1336 650,4 -4,4" stroke="transparent"/>
  <!-- Leetcode&#45;堆栈队列 -->
  <g class="node" id="node1">
   <title>
    Leetcode-堆栈队列
   </title>
   <g id="a_node1">
    <a target="_parent" xlink:href="https://leetcode-cn.com/tag/" xlink:title="Leetcode-堆栈队列(32)">
     <polygon fill="orangered" points="432.5,-1332 264.5,-1332 264.5,-1296 432.5,-1296 432.5,-1332" stroke="lightgrey"/>
     <text fill="white" font-family="Microsoft YaHei" font-size="14.00" text-anchor="middle" x="348.5" y="-1310.3">
      Leetcode-堆栈队列(32)
     </text>
    </a>
   </g>
  </g>
  <!-- 堆 -->
  <g class="node" id="node2">
   <title>
    堆
   </title>
   <polygon fill="lightslategray" points="192.5,-1260 138.5,-1260 138.5,-1224 192.5,-1224 192.5,-1260" stroke="lightgrey"/>
   <text fill="white" font-family="Microsoft YaHei" font-size="12.00" text-anchor="middle" x="165.5" y="-1238.9">
    堆(17)
   </text>
  </g>
  <!-- Leetcode&#45;堆栈队列&#45;&gt;堆 -->
  <g class="edge" id="edge1">
   <title>
    Leetcode-堆栈队列-&gt;堆
   </title>
   <path d="M303.73,-1295.88C272.46,-1283.91 231.22,-1268.14 201.95,-1256.94" fill="none" stroke="lightgrey"/>
   <polygon fill="lightgrey" points="203.1,-1253.64 192.51,-1253.33 200.6,-1260.17 203.1,-1253.64" stroke="lightgrey"/>
  </g>
  <!-- 堆与Dijkstra算法 -->
  <g class="node" id="node20">
   <title>
    堆与Dijkstra算法
   </title>
   <polygon fill="lightslategray" points="356.5,-1260 234.5,-1260 234.5,-1224 356.5,-1224 356.5,-1260" stroke="lightgrey"/>
   <text fill="white" font-family="Microsoft YaHei" font-size="12.00" text-anchor="middle" x="295.5" y="-1238.9">
    堆与Dijkstra算法(2)
   </text>
  </g>
  <!-- Leetcode&#45;堆栈队列&#45;&gt;堆与Dijkstra算法 -->
  <g class="edge" id="edge19">
   <title>
    Leetcode-堆栈队列-&gt;堆与Dijkstra算法
   </title>
   <path d="M335.4,-1295.7C329.11,-1287.39 321.45,-1277.28 314.54,-1268.14" fill="none" stroke="lightgrey"/>
   <polygon fill="lightgrey" points="317.28,-1265.96 308.45,-1260.1 311.7,-1270.19 317.28,-1265.96" stroke="lightgrey"/>
  </g>
  <!-- 队列 -->
  <g class="node" id="node23">
   <title>
    队列
   </title>
   <polygon fill="lightslategray" points="446,-1260 391,-1260 391,-1224 446,-1224 446,-1260" stroke="lightgrey"/>
   <text fill="white" font-family="Microsoft YaHei" font-size="12.00" text-anchor="middle" x="418.5" y="-1238.9">
    队列(8)
   </text>
  </g>
  <!-- Leetcode&#45;堆栈队列&#45;&gt;队列 -->
  <g class="edge" id="edge22">
   <title>
    Leetcode-堆栈队列-&gt;队列
   </title>
   <path d="M365.8,-1295.7C374.36,-1287.14 384.84,-1276.66 394.2,-1267.3" fill="none" stroke="lightgrey"/>
   <polygon fill="lightgrey" points="396.8,-1269.65 401.4,-1260.1 391.85,-1264.7 396.8,-1269.65" stroke="lightgrey"/>
  </g>
  <!-- 栈 -->
  <g class="node" id="node32">
   <title>
    栈
   </title>
   <polygon fill="lightslategray" points="555.5,-1260 501.5,-1260 501.5,-1224 555.5,-1224 555.5,-1260" stroke="lightgrey"/>
   <text fill="white" font-family="Microsoft YaHei" font-size="12.00" text-anchor="middle" x="528.5" y="-1238.9">
    栈(5)
   </text>
  </g>
  <!-- Leetcode&#45;堆栈队列&#45;&gt;栈 -->
  <g class="edge" id="edge31">
   <title>
    Leetcode-堆栈队列-&gt;栈
   </title>
   <path d="M392.53,-1295.88C422.98,-1284.04 463.01,-1268.47 491.75,-1257.29" fill="none" stroke="lightgrey"/>
   <polygon fill="lightgrey" points="493.35,-1260.42 501.4,-1253.54 490.82,-1253.9 493.35,-1260.42" stroke="lightgrey"/>
  </g>
  <!-- 1046 -->
  <g class="node" id="node3">
   <title>
    1046
   </title>
   <g id="a_node3">
    <a target="_parent" xlink:href="https://leetcode-cn.com/problems/last-stone-weight" xlink:title="1046. 最后一块石头的重量">
     <polygon fill="none" points="191.5,-1188 33.5,-1188 33.5,-1152 191.5,-1152 191.5,-1188" stroke="greenyellow"/>
     <text font-family="Microsoft YaHei" font-size="12.00" text-anchor="middle" x="112.5" y="-1166.9">
      1046. 最后一块石头的重量
     </text>
    </a>
   </g>
   <g transform="translate(183.5, -1194.0) scale(0.3)">
    <circle cx="24" cy="24" fill="#4caf50" r="21"/>
    <polygon fill="#ccff90" points="34.6,14.6 21,28.2 15.4,22.6 12.6,25.4 21,33.8 37.4,17.4"/>
   </g>
  </g>
  <!-- 堆&#45;&gt;1046 -->
  <g class="edge" id="edge2">
   <title>
    堆-&gt;1046
   </title>
   <path d="M152.4,-1223.7C146.11,-1215.39 138.45,-1205.28 131.54,-1196.14" fill="none" stroke="lightgrey"/>
   <polygon fill="lightgrey" points="134.28,-1193.96 125.45,-1188.1 128.7,-1198.19 134.28,-1193.96" stroke="lightgrey"/>
  </g>
  <!-- 215 -->
  <g class="node" id="node4">
   <title>
    215
   </title>
   <g id="a_node4">
    <a target="_parent" xlink:href="https://leetcode-cn.com/problems/kth-largest-element-in-an-array" xlink:title="215. 数组中的第K个最大元素">
     <polygon fill="none" points="171,-1116 0,-1116 0,-1080 171,-1080 171,-1116" stroke="orange"/>
     <text font-family="Microsoft YaHei" font-size="12.00" text-anchor="middle" x="85.5" y="-1094.9">
      215. 数组中的第K个最大元素
     </text>
    </a>
   </g>
   <g transform="translate(163.0, -1122.0) scale(0.3)">
    <circle cx="24" cy="24" fill="#4caf50" r="21"/>
    <polygon fill="#ccff90" points="34.6,14.6 21,28.2 15.4,22.6 12.6,25.4 21,33.8 37.4,17.4"/>
   </g>
  </g>
  <!-- 1046&#45;&gt;215 -->
  <g class="edge" id="edge3">
   <title>
    1046-&gt;215
   </title>
   <path d="M105.83,-1151.7C102.79,-1143.81 99.12,-1134.3 95.74,-1125.55" fill="none" stroke="lightgrey"/>
   <polygon fill="lightgrey" points="98.96,-1124.17 92.1,-1116.1 92.43,-1126.69 98.96,-1124.17" stroke="lightgrey"/>
  </g>
  <!-- 703 -->
  <g class="node" id="node5">
   <title>
    703
   </title>
   <g id="a_node5">
    <a target="_parent" xlink:href="https://leetcode-cn.com/problems/kth-largest-element-in-a-stream" xlink:title="703. 数据流中的第 K 大元素">
     <polygon fill="none" points="169,-1044 2,-1044 2,-1008 169,-1008 169,-1044" stroke="greenyellow"/>
     <text font-family="Microsoft YaHei" font-size="12.00" text-anchor="middle" x="85.5" y="-1022.9">
      703. 数据流中的第 K 大元素
     </text>
    </a>
   </g>
   <g transform="translate(161.0, -1050.0) scale(0.3)">
    <circle cx="24" cy="24" fill="#4caf50" r="21"/>
    <polygon fill="#ccff90" points="34.6,14.6 21,28.2 15.4,22.6 12.6,25.4 21,33.8 37.4,17.4"/>
   </g>
  </g>
  <!-- 215&#45;&gt;703 -->
  <g class="edge" id="edge4">
   <title>
    215-&gt;703
   </title>
   <path d="M85.5,-1079.7C85.5,-1071.98 85.5,-1062.71 85.5,-1054.11" fill="none" stroke="lightgrey"/>
   <polygon fill="lightgrey" points="89,-1054.1 85.5,-1044.1 82,-1054.1 89,-1054.1" stroke="lightgrey"/>
  </g>
  <!-- 973 -->
  <g class="node" id="node6">
   <title>
    973
   </title>
   <g id="a_node6">
    <a target="_parent" xlink:href="https://leetcode-cn.com/problems/k-closest-points-to-origin" xlink:title="973. 最接近原点的 K 个点">
     <polygon fill="none" points="163,-972 8,-972 8,-936 163,-936 163,-972" stroke="orange"/>
     <text font-family="Microsoft YaHei" font-size="12.00" text-anchor="middle" x="85.5" y="-950.9">
      973. 最接近原点的 K 个点
     </text>
    </a>
   </g>
   <g transform="translate(155.0, -978.0) scale(0.3)">
    <circle cx="24" cy="24" fill="#4caf50" r="21"/>
    <polygon fill="#ccff90" points="34.6,14.6 21,28.2 15.4,22.6 12.6,25.4 21,33.8 37.4,17.4"/>
   </g>
  </g>
  <!-- 703&#45;&gt;973 -->
  <g class="edge" id="edge5">
   <title>
    703-&gt;973
   </title>
   <path d="M85.5,-1007.7C85.5,-999.98 85.5,-990.71 85.5,-982.11" fill="none" stroke="lightgrey"/>
   <polygon fill="lightgrey" points="89,-982.1 85.5,-972.1 82,-982.1 89,-982.1" stroke="lightgrey"/>
  </g>
  <!-- 355 -->
  <g class="node" id="node7">
   <title>
    355
   </title>
   <g id="a_node7">
    <a target="_parent" xlink:href="https://leetcode-cn.com/problems/design-twitter" xlink:title="355. 设计推特">
     <polygon fill="none" points="131.5,-900 39.5,-900 39.5,-864 131.5,-864 131.5,-900" stroke="orange"/>
     <text font-family="Microsoft YaHei" font-size="12.00" text-anchor="middle" x="85.5" y="-878.9">
      355. 设计推特
     </text>
    </a>
   </g>
   <g transform="translate(123.5, -906.0) scale(0.3)">
    <circle cx="24" cy="24" fill="#4caf50" r="21"/>
    <polygon fill="#ccff90" points="34.6,14.6 21,28.2 15.4,22.6 12.6,25.4 21,33.8 37.4,17.4"/>
   </g>
  </g>
  <!-- 973&#45;&gt;355 -->
  <g class="edge" id="edge6">
   <title>
    973-&gt;355
   </title>
   <path d="M85.5,-935.7C85.5,-927.98 85.5,-918.71 85.5,-910.11" fill="none" stroke="lightgrey"/>
   <polygon fill="lightgrey" points="89,-910.1 85.5,-900.1 82,-910.1 89,-910.1" stroke="lightgrey"/>
  </g>
  <!-- 451 -->
  <g class="node" id="node8">
   <title>
    451
   </title>
   <g id="a_node8">
    <a target="_parent" xlink:href="https://leetcode-cn.com/problems/sort-characters-by-frequency" xlink:title="451. 根据字符出现频率排序">
     <polygon fill="none" points="167.5,-828 3.5,-828 3.5,-792 167.5,-792 167.5,-828" stroke="orange"/>
     <text font-family="Microsoft YaHei" font-size="12.00" text-anchor="middle" x="85.5" y="-806.9">
      451. 根据字符出现频率排序
     </text>
    </a>
   </g>
   <g transform="translate(159.5, -834.0) scale(0.3)">
    <circle cx="24" cy="24" fill="#4caf50" r="21"/>
    <polygon fill="#ccff90" points="34.6,14.6 21,28.2 15.4,22.6 12.6,25.4 21,33.8 37.4,17.4"/>
   </g>
  </g>
  <!-- 355&#45;&gt;451 -->
  <g class="edge" id="edge7">
   <title>
    355-&gt;451
   </title>
   <path d="M85.5,-863.7C85.5,-855.98 85.5,-846.71 85.5,-838.11" fill="none" stroke="lightgrey"/>
   <polygon fill="lightgrey" points="89,-838.1 85.5,-828.1 82,-838.1 89,-838.1" stroke="lightgrey"/>
  </g>
  <!-- 373 -->
  <g class="node" id="node9">
   <title>
    373
   </title>
   <g id="a_node9">
    <a target="_parent" xlink:href="https://leetcode-cn.com/problems/find-k-pairs-with-smallest-sums" xlink:title="373. 查找和最小的K对数字">
     <polygon fill="none" points="165,-756 6,-756 6,-720 165,-720 165,-756" stroke="orange"/>
     <text font-family="Microsoft YaHei" font-size="12.00" text-anchor="middle" x="85.5" y="-734.9">
      373. 查找和最小的K对数字
     </text>
    </a>
   </g>
   <g transform="translate(157.0, -762.0) scale(0.3)">
    <circle cx="24" cy="24" fill="#4caf50" r="21"/>
    <polygon fill="#ccff90" points="34.6,14.6 21,28.2 15.4,22.6 12.6,25.4 21,33.8 37.4,17.4"/>
   </g>
  </g>
  <!-- 451&#45;&gt;373 -->
  <g class="edge" id="edge8">
   <title>
    451-&gt;373
   </title>
   <path d="M85.5,-791.7C85.5,-783.98 85.5,-774.71 85.5,-766.11" fill="none" stroke="lightgrey"/>
   <polygon fill="lightgrey" points="89,-766.1 85.5,-756.1 82,-766.1 89,-766.1" stroke="lightgrey"/>
  </g>
  <!-- 692 -->
  <g class="node" id="node10">
   <title>
    692
   </title>
   <g id="a_node10">
    <a target="_parent" xlink:href="https://leetcode-cn.com/problems/top-k-frequent-words" xlink:title="692. 前K个高频单词">
     <polygon fill="none" points="147,-684 24,-684 24,-648 147,-648 147,-684" stroke="orange"/>
     <text font-family="Microsoft YaHei" font-size="12.00" text-anchor="middle" x="85.5" y="-662.9">
      692. 前K个高频单词
     </text>
    </a>
   </g>
   <g transform="translate(139.0, -690.0) scale(0.3)">
    <circle cx="24" cy="24" fill="#4caf50" r="21"/>
    <polygon fill="#ccff90" points="34.6,14.6 21,28.2 15.4,22.6 12.6,25.4 21,33.8 37.4,17.4"/>
   </g>
  </g>
  <!-- 373&#45;&gt;692 -->
  <g class="edge" id="edge9">
   <title>
    373-&gt;692
   </title>
   <path d="M85.5,-719.7C85.5,-711.98 85.5,-702.71 85.5,-694.11" fill="none" stroke="lightgrey"/>
   <polygon fill="lightgrey" points="89,-694.1 85.5,-684.1 82,-694.1 89,-694.1" stroke="lightgrey"/>
  </g>
  <!-- 659 -->
  <g class="node" id="node11">
   <title>
    659
   </title>
   <g id="a_node11">
    <a target="_parent" xlink:href="https://leetcode-cn.com/problems/split-array-into-consecutive-subsequences" xlink:title="659. 分割数组为连续子序列">
     <polygon fill="none" points="167.5,-612 3.5,-612 3.5,-576 167.5,-576 167.5,-612" stroke="orange"/>
     <text font-family="Microsoft YaHei" font-size="12.00" text-anchor="middle" x="85.5" y="-590.9">
      659. 分割数组为连续子序列
     </text>
    </a>
   </g>
   <g transform="translate(159.5, -618.0) scale(0.3)">
    <circle cx="24" cy="24" fill="#4caf50" r="21"/>
    <polygon fill="#ccff90" points="34.6,14.6 21,28.2 15.4,22.6 12.6,25.4 21,33.8 37.4,17.4"/>
   </g>
  </g>
  <!-- 692&#45;&gt;659 -->
  <g class="edge" id="edge10">
   <title>
    692-&gt;659
   </title>
   <path d="M85.5,-647.7C85.5,-639.98 85.5,-630.71 85.5,-622.11" fill="none" stroke="lightgrey"/>
   <polygon fill="lightgrey" points="89,-622.1 85.5,-612.1 82,-622.1 89,-622.1" stroke="lightgrey"/>
  </g>
  <!-- 347 -->
  <g class="node" id="node12">
   <title>
    347
   </title>
   <g id="a_node12">
    <a target="_parent" xlink:href="https://leetcode-cn.com/problems/top-k-frequent-elements" xlink:title="347. 前 K 个高频元素">
     <polygon fill="none" points="151,-540 20,-540 20,-504 151,-504 151,-540" stroke="orange"/>
     <text font-family="Microsoft YaHei" font-size="12.00" text-anchor="middle" x="85.5" y="-518.9">
      347. 前 K 个高频元素
     </text>
    </a>
   </g>
   <g transform="translate(143.0, -546.0) scale(0.3)">
    <circle cx="24" cy="24" fill="#4caf50" r="21"/>
    <polygon fill="#ccff90" points="34.6,14.6 21,28.2 15.4,22.6 12.6,25.4 21,33.8 37.4,17.4"/>
   </g>
  </g>
  <!-- 659&#45;&gt;347 -->
  <g class="edge" id="edge11">
   <title>
    659-&gt;347
   </title>
   <path d="M85.5,-575.7C85.5,-567.98 85.5,-558.71 85.5,-550.11" fill="none" stroke="lightgrey"/>
   <polygon fill="lightgrey" points="89,-550.1 85.5,-540.1 82,-550.1 89,-550.1" stroke="lightgrey"/>
  </g>
  <!-- 1642 -->
  <g class="node" id="node13">
   <title>
    1642
   </title>
   <g id="a_node13">
    <a target="_parent" xlink:href="https://leetcode-cn.com/problems/furthest-building-you-can-reach" xlink:title="1642. 可以到达的最远建筑">
     <polygon fill="none" points="164.5,-468 6.5,-468 6.5,-432 164.5,-432 164.5,-468" stroke="orange"/>
     <text font-family="Microsoft YaHei" font-size="12.00" text-anchor="middle" x="85.5" y="-446.9">
      1642. 可以到达的最远建筑
     </text>
    </a>
   </g>
   <g transform="translate(156.5, -474.0) scale(0.3)">
    <circle cx="24" cy="24" fill="#4caf50" r="21"/>
    <polygon fill="#ccff90" points="34.6,14.6 21,28.2 15.4,22.6 12.6,25.4 21,33.8 37.4,17.4"/>
   </g>
  </g>
  <!-- 347&#45;&gt;1642 -->
  <g class="edge" id="edge12">
   <title>
    347-&gt;1642
   </title>
   <path d="M85.5,-503.7C85.5,-495.98 85.5,-486.71 85.5,-478.11" fill="none" stroke="lightgrey"/>
   <polygon fill="lightgrey" points="89,-478.1 85.5,-468.1 82,-478.1 89,-478.1" stroke="lightgrey"/>
  </g>
  <!-- 1753 -->
  <g class="node" id="node14">
   <title>
    1753
   </title>
   <g id="a_node14">
    <a target="_parent" xlink:href="https://leetcode-cn.com/problems/maximum-score-from-removing-stones" xlink:title="1753. 移除石子的最大得分">
     <polygon fill="none" points="164.5,-396 6.5,-396 6.5,-360 164.5,-360 164.5,-396" stroke="orange"/>
     <text font-family="Microsoft YaHei" font-size="12.00" text-anchor="middle" x="85.5" y="-374.9">
      1753. 移除石子的最大得分
     </text>
    </a>
   </g>
   <g transform="translate(156.5, -402.0) scale(0.3)">
    <circle cx="24" cy="24" fill="#4caf50" r="21"/>
    <polygon fill="#ccff90" points="34.6,14.6 21,28.2 15.4,22.6 12.6,25.4 21,33.8 37.4,17.4"/>
   </g>
  </g>
  <!-- 1642&#45;&gt;1753 -->
  <g class="edge" id="edge13">
   <title>
    1642-&gt;1753
   </title>
   <path d="M85.5,-431.7C85.5,-423.98 85.5,-414.71 85.5,-406.11" fill="none" stroke="lightgrey"/>
   <polygon fill="lightgrey" points="89,-406.1 85.5,-396.1 82,-406.1 89,-406.1" stroke="lightgrey"/>
  </g>
  <!-- 1705 -->
  <g class="node" id="node15">
   <title>
    1705
   </title>
   <g id="a_node15">
    <a target="_parent" xlink:href="https://leetcode-cn.com/problems/maximum-number-of-eaten-apples" xlink:title="1705. 吃苹果的最大数目">
     <polygon fill="none" points="158.5,-324 12.5,-324 12.5,-288 158.5,-288 158.5,-324" stroke="orange"/>
     <text font-family="Microsoft YaHei" font-size="12.00" text-anchor="middle" x="85.5" y="-302.9">
      1705. 吃苹果的最大数目
     </text>
    </a>
   </g>
   <g transform="translate(150.5, -330.0) scale(0.3)">
    <circle cx="24" cy="24" fill="#4caf50" r="21"/>
    <polygon fill="#ccff90" points="34.6,14.6 21,28.2 15.4,22.6 12.6,25.4 21,33.8 37.4,17.4"/>
   </g>
  </g>
  <!-- 1753&#45;&gt;1705 -->
  <g class="edge" id="edge14">
   <title>
    1753-&gt;1705
   </title>
   <path d="M85.5,-359.7C85.5,-351.98 85.5,-342.71 85.5,-334.11" fill="none" stroke="lightgrey"/>
   <polygon fill="lightgrey" points="89,-334.1 85.5,-324.1 82,-334.1 89,-334.1" stroke="lightgrey"/>
  </g>
  <!-- 313 -->
  <g class="node" id="node16">
   <title>
    313
   </title>
   <g id="a_node16">
    <a target="_parent" xlink:href="https://leetcode-cn.com/problems/super-ugly-number" xlink:title="313. 超级丑数">
     <polygon fill="none" points="131.5,-252 39.5,-252 39.5,-216 131.5,-216 131.5,-252" stroke="orange"/>
     <text font-family="Microsoft YaHei" font-size="12.00" text-anchor="middle" x="85.5" y="-230.9">
      313. 超级丑数
     </text>
    </a>
   </g>
   <g transform="translate(123.5, -258.0) scale(0.3)">
    <circle cx="24" cy="24" fill="#4caf50" r="21"/>
    <polygon fill="#ccff90" points="34.6,14.6 21,28.2 15.4,22.6 12.6,25.4 21,33.8 37.4,17.4"/>
   </g>
   <g transform="translate(122.5, -225.0)">
    <symbol id="flask" viewBox="0 0 448 512">
     <path d="M437.2 403.5L320 215V64h8c13.3 0 24-10.7 24-24V24c0-13.3-10.7-24-24-24H120c-13.3 0-24 10.7-24 24v16c0 13.3 10.7 24 24 24h8v151L10.8 403.5C-18.5 450.6 15.3 512 70.9 512h306.2c55.7 0 89.4-61.5 60.1-108.5zM137.9 320l48.2-77.6c3.7-5.2 5.8-11.6 5.8-18.4V64h64v160c0 6.9 2.2 13.2 5.8 18.4l48.2 77.6h-172z" fill="#1389fd"/>
    </symbol>
    <a href="https://github.com/acm-clan/algorithm-stone/blob/main/user/leetcode/313.超级丑数.md">
     <use height="18" href="#flask" width="18"/>
    </a>
   </g>
  </g>
  <!-- 1705&#45;&gt;313 -->
  <g class="edge" id="edge15">
   <title>
    1705-&gt;313
   </title>
   <path d="M85.5,-287.7C85.5,-279.98 85.5,-270.71 85.5,-262.11" fill="none" stroke="lightgrey"/>
   <polygon fill="lightgrey" points="89,-262.1 85.5,-252.1 82,-262.1 89,-262.1" stroke="lightgrey"/>
  </g>
  <!-- 767 -->
  <g class="node" id="node17">
   <title>
    767
   </title>
   <g id="a_node17">
    <a target="_parent" xlink:href="https://leetcode-cn.com/problems/reorganize-string" xlink:title="767. 重构字符串">
     <polygon fill="none" points="137.5,-180 33.5,-180 33.5,-144 137.5,-144 137.5,-180" stroke="orange"/>
     <text font-family="Microsoft YaHei" font-size="12.00" text-anchor="middle" x="85.5" y="-158.9">
      767. 重构字符串
     </text>
    </a>
   </g>
   <g transform="translate(129.5, -186.0) scale(0.3)">
    <circle cx="24" cy="24" fill="#4caf50" r="21"/>
    <polygon fill="#ccff90" points="34.6,14.6 21,28.2 15.4,22.6 12.6,25.4 21,33.8 37.4,17.4"/>
   </g>
  </g>
  <!-- 313&#45;&gt;767 -->
  <g class="edge" id="edge16">
   <title>
    313-&gt;767
   </title>
   <path d="M85.5,-215.7C85.5,-207.98 85.5,-198.71 85.5,-190.11" fill="none" stroke="lightgrey"/>
   <polygon fill="lightgrey" points="89,-190.1 85.5,-180.1 82,-190.1 89,-190.1" stroke="lightgrey"/>
  </g>
  <!-- 1054 -->
  <g class="node" id="node18">
   <title>
    1054
   </title>
   <g id="a_node18">
    <a target="_parent" xlink:href="https://leetcode-cn.com/problems/distant-barcodes" xlink:title="1054. 距离相等的条形码">
     <polygon fill="none" points="158.5,-108 12.5,-108 12.5,-72 158.5,-72 158.5,-108" stroke="orange"/>
     <text font-family="Microsoft YaHei" font-size="12.00" text-anchor="middle" x="85.5" y="-86.9">
      1054. 距离相等的条形码
     </text>
    </a>
   </g>
   <g transform="translate(150.5, -114.0) scale(0.3)">
    <circle cx="24" cy="24" fill="#4caf50" r="21"/>
    <polygon fill="#ccff90" points="34.6,14.6 21,28.2 15.4,22.6 12.6,25.4 21,33.8 37.4,17.4"/>
   </g>
  </g>
  <!-- 767&#45;&gt;1054 -->
  <g class="edge" id="edge17">
   <title>
    767-&gt;1054
   </title>
   <path d="M85.5,-143.7C85.5,-135.98 85.5,-126.71 85.5,-118.11" fill="none" stroke="lightgrey"/>
   <polygon fill="lightgrey" points="89,-118.1 85.5,-108.1 82,-118.1 89,-118.1" stroke="lightgrey"/>
  </g>
  <!-- 23 -->
  <g class="node" id="node19">
   <title>
    23
   </title>
   <g id="a_node19">
    <a target="_parent" xlink:href="https://leetcode-cn.com/problems/merge-k-sorted-lists" xlink:title="23. 合并K个升序链表">
     <polygon fill="none" points="149.5,-36 21.5,-36 21.5,0 149.5,0 149.5,-36" stroke="red"/>
     <text font-family="Microsoft YaHei" font-size="12.00" text-anchor="middle" x="85.5" y="-14.9">
      23. 合并K个升序链表
     </text>
    </a>
   </g>
   <g transform="translate(141.5, -42.0) scale(0.3)">
    <circle cx="24" cy="24" fill="#4caf50" r="21"/>
    <polygon fill="#ccff90" points="34.6,14.6 21,28.2 15.4,22.6 12.6,25.4 21,33.8 37.4,17.4"/>
   </g>
  </g>
  <!-- 1054&#45;&gt;23 -->
  <g class="edge" id="edge18">
   <title>
    1054-&gt;23
   </title>
   <path d="M85.5,-71.7C85.5,-63.98 85.5,-54.71 85.5,-46.11" fill="none" stroke="lightgrey"/>
   <polygon fill="lightgrey" points="89,-46.1 85.5,-36.1 82,-46.1 89,-46.1" stroke="lightgrey"/>
  </g>
  <!-- 743 -->
  <g class="node" id="node21">
   <title>
    743
   </title>
   <g id="a_node21">
    <a target="_parent" xlink:href="https://leetcode-cn.com/problems/network-delay-time" xlink:title="743. 网络延迟时间">
     <polygon fill="none" points="343.5,-1188 227.5,-1188 227.5,-1152 343.5,-1152 343.5,-1188" stroke="orange"/>
     <text font-family="Microsoft YaHei" font-size="12.00" text-anchor="middle" x="285.5" y="-1166.9">
      743. 网络延迟时间
     </text>
    </a>
   </g>
   <g transform="translate(335.5, -1194.0) scale(0.3)">
    <circle cx="24" cy="24" fill="#4caf50" r="21"/>
    <polygon fill="#ccff90" points="34.6,14.6 21,28.2 15.4,22.6 12.6,25.4 21,33.8 37.4,17.4"/>
   </g>
  </g>
  <!-- 堆与Dijkstra算法&#45;&gt;743 -->
  <g class="edge" id="edge20">
   <title>
    堆与Dijkstra算法-&gt;743
   </title>
   <path d="M293.03,-1223.7C291.93,-1215.98 290.6,-1206.71 289.37,-1198.11" fill="none" stroke="lightgrey"/>
   <polygon fill="lightgrey" points="292.82,-1197.51 287.94,-1188.1 285.89,-1198.5 292.82,-1197.51" stroke="lightgrey"/>
  </g>
  <!-- 787 -->
  <g class="node" id="node22">
   <title>
    787
   </title>
   <g id="a_node22">
    <a target="_parent" xlink:href="https://leetcode-cn.com/problems/cheapest-flights-within-k-stops" xlink:title="787. K 站中转内最便宜的航班">
     <polygon fill="none" points="364,-1116 189,-1116 189,-1080 364,-1080 364,-1116" stroke="orange"/>
     <text font-family="Microsoft YaHei" font-size="12.00" text-anchor="middle" x="276.5" y="-1094.9">
      787. K 站中转内最便宜的航班
     </text>
    </a>
   </g>
   <g transform="translate(356.0, -1122.0) scale(0.3)">
    <circle cx="24" cy="24" fill="#4caf50" r="21"/>
    <polygon fill="#ccff90" points="34.6,14.6 21,28.2 15.4,22.6 12.6,25.4 21,33.8 37.4,17.4"/>
   </g>
  </g>
  <!-- 743&#45;&gt;787 -->
  <g class="edge" id="edge21">
   <title>
    743-&gt;787
   </title>
   <path d="M283.28,-1151.7C282.28,-1143.98 281.09,-1134.71 279.99,-1126.11" fill="none" stroke="lightgrey"/>
   <polygon fill="lightgrey" points="283.45,-1125.58 278.7,-1116.1 276.5,-1126.47 283.45,-1125.58" stroke="lightgrey"/>
  </g>
  <!-- 933 -->
  <g class="node" id="node24">
   <title>
    933
   </title>
   <g id="a_node24">
    <a target="_parent" xlink:href="https://leetcode-cn.com/problems/number-of-recent-calls" xlink:title="933. 最近的请求次数">
     <polygon fill="none" points="493.5,-1188 365.5,-1188 365.5,-1152 493.5,-1152 493.5,-1188" stroke="greenyellow"/>
     <text font-family="Microsoft YaHei" font-size="12.00" text-anchor="middle" x="429.5" y="-1166.9">
      933. 最近的请求次数
     </text>
    </a>
   </g>
   <g transform="translate(485.5, -1194.0) scale(0.3)">
    <circle cx="24" cy="24" fill="#4caf50" r="21"/>
    <polygon fill="#ccff90" points="34.6,14.6 21,28.2 15.4,22.6 12.6,25.4 21,33.8 37.4,17.4"/>
   </g>
  </g>
  <!-- 队列&#45;&gt;933 -->
  <g class="edge" id="edge23">
   <title>
    队列-&gt;933
   </title>
   <path d="M421.22,-1223.7C422.43,-1215.98 423.89,-1206.71 425.24,-1198.11" fill="none" stroke="lightgrey"/>
   <polygon fill="lightgrey" points="428.72,-1198.53 426.81,-1188.1 421.8,-1197.44 428.72,-1198.53" stroke="lightgrey"/>
  </g>
  <!-- 622 -->
  <g class="node" id="node25">
   <title>
    622
   </title>
   <g id="a_node25">
    <a target="_parent" xlink:href="https://leetcode-cn.com/problems/design-circular-queue" xlink:title="622. 设计循环队列">
     <polygon fill="none" points="498.5,-1116 382.5,-1116 382.5,-1080 498.5,-1080 498.5,-1116" stroke="orange"/>
     <text font-family="Microsoft YaHei" font-size="12.00" text-anchor="middle" x="440.5" y="-1094.9">
      622. 设计循环队列
     </text>
    </a>
   </g>
   <g transform="translate(490.5, -1122.0) scale(0.3)">
    <circle cx="24" cy="24" fill="#4caf50" r="21"/>
    <polygon fill="#ccff90" points="34.6,14.6 21,28.2 15.4,22.6 12.6,25.4 21,33.8 37.4,17.4"/>
   </g>
  </g>
  <!-- 933&#45;&gt;622 -->
  <g class="edge" id="edge24">
   <title>
    933-&gt;622
   </title>
   <path d="M432.22,-1151.7C433.43,-1143.98 434.89,-1134.71 436.24,-1126.11" fill="none" stroke="lightgrey"/>
   <polygon fill="lightgrey" points="439.72,-1126.53 437.81,-1116.1 432.8,-1125.44 439.72,-1126.53" stroke="lightgrey"/>
  </g>
  <!-- 641 -->
  <g class="node" id="node26">
   <title>
    641
   </title>
   <g id="a_node26">
    <a target="_parent" xlink:href="https://leetcode-cn.com/problems/design-circular-deque" xlink:title="641. 设计循环双端队列">
     <polygon fill="none" points="502.5,-1044 362.5,-1044 362.5,-1008 502.5,-1008 502.5,-1044" stroke="orange"/>
     <text font-family="Microsoft YaHei" font-size="12.00" text-anchor="middle" x="432.5" y="-1022.9">
      641. 设计循环双端队列
     </text>
    </a>
   </g>
   <g transform="translate(494.5, -1050.0) scale(0.3)">
    <circle cx="24" cy="24" fill="#4caf50" r="21"/>
    <polygon fill="#ccff90" points="34.6,14.6 21,28.2 15.4,22.6 12.6,25.4 21,33.8 37.4,17.4"/>
   </g>
  </g>
  <!-- 622&#45;&gt;641 -->
  <g class="edge" id="edge25">
   <title>
    622-&gt;641
   </title>
   <path d="M438.52,-1079.7C437.64,-1071.98 436.58,-1062.71 435.6,-1054.11" fill="none" stroke="lightgrey"/>
   <polygon fill="lightgrey" points="439.07,-1053.64 434.45,-1044.1 432.11,-1054.44 439.07,-1053.64" stroke="lightgrey"/>
  </g>
  <!-- 199 -->
  <g class="node" id="node27">
   <title>
    199
   </title>
   <g id="a_node27">
    <a target="_parent" xlink:href="https://leetcode-cn.com/problems/binary-tree-right-side-view" xlink:title="199. 二叉树的右视图">
     <polygon fill="none" points="496.5,-972 368.5,-972 368.5,-936 496.5,-936 496.5,-972" stroke="orange"/>
     <text font-family="Microsoft YaHei" font-size="12.00" text-anchor="middle" x="432.5" y="-950.9">
      199. 二叉树的右视图
     </text>
    </a>
   </g>
   <g transform="translate(488.5, -978.0) scale(0.3)">
    <circle cx="24" cy="24" fill="#4caf50" r="21"/>
    <polygon fill="#ccff90" points="34.6,14.6 21,28.2 15.4,22.6 12.6,25.4 21,33.8 37.4,17.4"/>
   </g>
  </g>
  <!-- 641&#45;&gt;199 -->
  <g class="edge" id="edge26">
   <title>
    641-&gt;199
   </title>
   <path d="M432.5,-1007.7C432.5,-999.98 432.5,-990.71 432.5,-982.11" fill="none" stroke="lightgrey"/>
   <polygon fill="lightgrey" points="436,-982.1 432.5,-972.1 429,-982.1 436,-982.1" stroke="lightgrey"/>
  </g>
  <!-- 621 -->
  <g class="node" id="node28">
   <title>
    621
   </title>
   <g id="a_node28">
    <a target="_parent" xlink:href="https://leetcode-cn.com/problems/task-scheduler" xlink:title="621. 任务调度器">
     <polygon fill="none" points="484.5,-900 380.5,-900 380.5,-864 484.5,-864 484.5,-900" stroke="orange"/>
     <text font-family="Microsoft YaHei" font-size="12.00" text-anchor="middle" x="432.5" y="-878.9">
      621. 任务调度器
     </text>
    </a>
   </g>
   <g transform="translate(476.5, -906.0) scale(0.3)">
    <circle cx="24" cy="24" fill="#4caf50" r="21"/>
    <polygon fill="#ccff90" points="34.6,14.6 21,28.2 15.4,22.6 12.6,25.4 21,33.8 37.4,17.4"/>
   </g>
   <g transform="translate(475.5, -873.0)">
    <symbol id="flask" viewBox="0 0 448 512">
     <path d="M437.2 403.5L320 215V64h8c13.3 0 24-10.7 24-24V24c0-13.3-10.7-24-24-24H120c-13.3 0-24 10.7-24 24v16c0 13.3 10.7 24 24 24h8v151L10.8 403.5C-18.5 450.6 15.3 512 70.9 512h306.2c55.7 0 89.4-61.5 60.1-108.5zM137.9 320l48.2-77.6c3.7-5.2 5.8-11.6 5.8-18.4V64h64v160c0 6.9 2.2 13.2 5.8 18.4l48.2 77.6h-172z" fill="#1389fd"/>
    </symbol>
    <a href="https://github.com/acm-clan/algorithm-stone/blob/main/user/leetcode/621.任务调度器.md">
     <use height="18" href="#flask" width="18"/>
    </a>
   </g>
  </g>
  <!-- 199&#45;&gt;621 -->
  <g class="edge" id="edge27">
   <title>
    199-&gt;621
   </title>
   <path d="M432.5,-935.7C432.5,-927.98 432.5,-918.71 432.5,-910.11" fill="none" stroke="lightgrey"/>
   <polygon fill="lightgrey" points="436,-910.1 432.5,-900.1 429,-910.1 436,-910.1" stroke="lightgrey"/>
  </g>
  <!-- 1673 -->
  <g class="node" id="node29">
   <title>
    1673
   </title>
   <g id="a_node29">
    <a target="_parent" xlink:href="https://leetcode-cn.com/problems/find-the-most-competitive-subsequence" xlink:title="1673. 找出最具竞争力的子序列">
     <polygon fill="none" points="523.5,-828 341.5,-828 341.5,-792 523.5,-792 523.5,-828" stroke="orange"/>
     <text font-family="Microsoft YaHei" font-size="12.00" text-anchor="middle" x="432.5" y="-806.9">
      1673. 找出最具竞争力的子序列
     </text>
    </a>
   </g>
   <g transform="translate(515.5, -834.0) scale(0.3)">
    <circle cx="24" cy="24" fill="#4caf50" r="21"/>
    <polygon fill="#ccff90" points="34.6,14.6 21,28.2 15.4,22.6 12.6,25.4 21,33.8 37.4,17.4"/>
   </g>
  </g>
  <!-- 621&#45;&gt;1673 -->
  <g class="edge" id="edge28">
   <title>
    621-&gt;1673
   </title>
   <path d="M432.5,-863.7C432.5,-855.98 432.5,-846.71 432.5,-838.11" fill="none" stroke="lightgrey"/>
   <polygon fill="lightgrey" points="436,-838.1 432.5,-828.1 429,-838.1 436,-838.1" stroke="lightgrey"/>
  </g>
  <!-- 862 -->
  <g class="node" id="node30">
   <title>
    862
   </title>
   <g id="a_node30">
    <a target="_parent" xlink:href="https://leetcode-cn.com/problems/shortest-subarray-with-sum-at-least-k" xlink:title="862. 和至少为 K 的最短子数组">
     <polygon fill="none" points="522,-756 343,-756 343,-720 522,-720 522,-756" stroke="red"/>
     <text font-family="Microsoft YaHei" font-size="12.00" text-anchor="middle" x="432.5" y="-734.9">
      862. 和至少为 K 的最短子数组
     </text>
    </a>
   </g>
  </g>
  <!-- 1673&#45;&gt;862 -->
  <g class="edge" id="edge29">
   <title>
    1673-&gt;862
   </title>
   <path d="M432.5,-791.7C432.5,-783.98 432.5,-774.71 432.5,-766.11" fill="none" stroke="lightgrey"/>
   <polygon fill="lightgrey" points="436,-766.1 432.5,-756.1 429,-766.1 436,-766.1" stroke="lightgrey"/>
  </g>
  <!-- 363 -->
  <g class="node" id="node31">
   <title>
    363
   </title>
   <g id="a_node31">
    <a target="_parent" xlink:href="https://leetcode-cn.com/problems/max-sum-of-rectangle-no-larger-than-k" xlink:title="363. 矩形区域不超过 K 的最大数值和">
     <polygon fill="none" points="540,-684 325,-684 325,-648 540,-648 540,-684" stroke="red"/>
     <text font-family="Microsoft YaHei" font-size="12.00" text-anchor="middle" x="432.5" y="-662.9">
      363. 矩形区域不超过 K 的最大数值和
     </text>
    </a>
   </g>
  </g>
  <!-- 862&#45;&gt;363 -->
  <g class="edge" id="edge30">
   <title>
    862-&gt;363
   </title>
   <path d="M432.5,-719.7C432.5,-711.98 432.5,-702.71 432.5,-694.11" fill="none" stroke="lightgrey"/>
   <polygon fill="lightgrey" points="436,-694.1 432.5,-684.1 429,-694.1 436,-694.1" stroke="lightgrey"/>
  </g>
  <!-- 20 -->
  <g class="node" id="node33">
   <title>
    20
   </title>
   <g id="a_node33">
    <a target="_parent" xlink:href="https://leetcode-cn.com/problems/valid-parentheses" xlink:title="20. 有效的括号">
     <polygon fill="none" points="611,-1188 514,-1188 514,-1152 611,-1152 611,-1188" stroke="greenyellow"/>
     <text font-family="Microsoft YaHei" font-size="12.00" text-anchor="middle" x="562.5" y="-1166.9">
      20. 有效的括号
     </text>
    </a>
   </g>
  </g>
  <!-- 栈&#45;&gt;20 -->
  <g class="edge" id="edge32">
   <title>
    栈-&gt;20
   </title>
   <path d="M536.9,-1223.7C540.77,-1215.73 545.45,-1206.1 549.74,-1197.26" fill="none" stroke="lightgrey"/>
   <polygon fill="lightgrey" points="552.97,-1198.63 554.19,-1188.1 546.67,-1195.57 552.97,-1198.63" stroke="lightgrey"/>
  </g>
  <!-- 155 -->
  <g class="node" id="node34">
   <title>
    155
   </title>
   <g id="a_node34">
    <a target="_parent" xlink:href="https://leetcode-cn.com/problems/min-stack" xlink:title="155. 最小栈">
     <polygon fill="none" points="611.5,-1116 531.5,-1116 531.5,-1080 611.5,-1080 611.5,-1116" stroke="greenyellow"/>
     <text font-family="Microsoft YaHei" font-size="12.00" text-anchor="middle" x="571.5" y="-1094.9">
      155. 最小栈
     </text>
    </a>
   </g>
   <g transform="translate(603.5, -1122.0) scale(0.3)">
    <circle cx="24" cy="24" fill="#4caf50" r="21"/>
    <polygon fill="#ccff90" points="34.6,14.6 21,28.2 15.4,22.6 12.6,25.4 21,33.8 37.4,17.4"/>
   </g>
  </g>
  <!-- 20&#45;&gt;155 -->
  <g class="edge" id="edge33">
   <title>
    20-&gt;155
   </title>
   <path d="M564.72,-1151.7C565.72,-1143.98 566.91,-1134.71 568.01,-1126.11" fill="none" stroke="lightgrey"/>
   <polygon fill="lightgrey" points="571.5,-1126.47 569.3,-1116.1 564.55,-1125.58 571.5,-1126.47" stroke="lightgrey"/>
  </g>
  <!-- 225 -->
  <g class="node" id="node35">
   <title>
    225
   </title>
   <g id="a_node35">
    <a target="_parent" xlink:href="https://leetcode-cn.com/problems/implement-stack-using-queues" xlink:title="225. 用队列实现栈">
     <polygon fill="none" points="636.5,-1044 520.5,-1044 520.5,-1008 636.5,-1008 636.5,-1044" stroke="greenyellow"/>
     <text font-family="Microsoft YaHei" font-size="12.00" text-anchor="middle" x="578.5" y="-1022.9">
      225. 用队列实现栈
     </text>
    </a>
   </g>
   <g transform="translate(628.5, -1050.0) scale(0.3)">
    <circle cx="24" cy="24" fill="#4caf50" r="21"/>
    <polygon fill="#ccff90" points="34.6,14.6 21,28.2 15.4,22.6 12.6,25.4 21,33.8 37.4,17.4"/>
   </g>
  </g>
  <!-- 155&#45;&gt;225 -->
  <g class="edge" id="edge34">
   <title>
    155-&gt;225
   </title>
   <path d="M573.23,-1079.7C574,-1071.98 574.93,-1062.71 575.79,-1054.11" fill="none" stroke="lightgrey"/>
   <polygon fill="lightgrey" points="579.28,-1054.4 576.79,-1044.1 572.31,-1053.71 579.28,-1054.4" stroke="lightgrey"/>
  </g>
  <!-- 232 -->
  <g class="node" id="node36">
   <title>
    232
   </title>
   <g id="a_node36">
    <a target="_parent" xlink:href="https://leetcode-cn.com/problems/implement-queue-using-stacks" xlink:title="232. 用栈实现队列">
     <polygon fill="none" points="636.5,-972 520.5,-972 520.5,-936 636.5,-936 636.5,-972" stroke="greenyellow"/>
     <text font-family="Microsoft YaHei" font-size="12.00" text-anchor="middle" x="578.5" y="-950.9">
      232. 用栈实现队列
     </text>
    </a>
   </g>
  </g>
  <!-- 225&#45;&gt;232 -->
  <g class="edge" id="edge35">
   <title>
    225-&gt;232
   </title>
   <path d="M578.5,-1007.7C578.5,-999.98 578.5,-990.71 578.5,-982.11" fill="none" stroke="lightgrey"/>
   <polygon fill="lightgrey" points="582,-982.1 578.5,-972.1 575,-982.1 582,-982.1" stroke="lightgrey"/>
  </g>
  <!-- 496 -->
  <g class="node" id="node37">
   <title>
    496
   </title>
   <g id="a_node37">
    <a target="_parent" xlink:href="https://leetcode-cn.com/problems/next-greater-element-i" xlink:title="496. 下一个更大元素 I">
     <polygon fill="none" points="646,-900 511,-900 511,-864 646,-864 646,-900" stroke="greenyellow"/>
     <text font-family="Microsoft YaHei" font-size="12.00" text-anchor="middle" x="578.5" y="-878.9">
      496. 下一个更大元素 I
     </text>
    </a>
   </g>
   <g transform="translate(638.0, -906.0) scale(0.3)">
    <circle cx="24" cy="24" fill="#4caf50" r="21"/>
    <polygon fill="#ccff90" points="34.6,14.6 21,28.2 15.4,22.6 12.6,25.4 21,33.8 37.4,17.4"/>
   </g>
  </g>
  <!-- 232&#45;&gt;496 -->
  <g class="edge" id="edge36">
   <title>
    232-&gt;496
   </title>
   <path d="M578.5,-935.7C578.5,-927.98 578.5,-918.71 578.5,-910.11" fill="none" stroke="lightgrey"/>
   <polygon fill="lightgrey" points="582,-910.1 578.5,-900.1 575,-910.1 582,-910.1" stroke="lightgrey"/>
  </g>
  <g class="key">
   <defs>
    <filter height="1.2" id="solid" width="1.2" x="-0.1" y="-0.1">
     <feFlood flood-color="#ccff90" result="bg"/>
     <feMerge>
      <feMergeNode in="bg"/>
      <feMergeNode in="SourceGraphic"/>
     </feMerge>
    </filter>
   </defs>
   <text filter="url(#solid)" font-family="Microsoft YaHei" font-size="10.00" text-anchor="middle" x="112.5" y="-1147.0">
    优先级队列
   </text>
  </g>
  <g class="key">
   <defs>
    <filter height="1.2" id="solid" width="1.2" x="-0.1" y="-0.1">
     <feFlood flood-color="#ccff90" result="bg"/>
     <feMerge>
      <feMergeNode in="bg"/>
      <feMergeNode in="SourceGraphic"/>
     </feMerge>
    </filter>
   </defs>
   <text filter="url(#solid)" font-family="Microsoft YaHei" font-size="10.00" text-anchor="middle" x="85.5" y="-1075.0">
    优先级队列
   </text>
  </g>
  <g class="key">
   <defs>
    <filter height="1.2" id="solid" width="1.2" x="-0.1" y="-0.1">
     <feFlood flood-color="#ccff90" result="bg"/>
     <feMerge>
      <feMergeNode in="bg"/>
      <feMergeNode in="SourceGraphic"/>
     </feMerge>
    </filter>
   </defs>
   <text filter="url(#solid)" font-family="Microsoft YaHei" font-size="10.00" text-anchor="middle" x="85.5" y="-1003.0">
    优先级队列
   </text>
  </g>
  <g class="key">
   <defs>
    <filter height="1.2" id="solid" width="1.2" x="-0.1" y="-0.1">
     <feFlood flood-color="#ccff90" result="bg"/>
     <feMerge>
      <feMergeNode in="bg"/>
      <feMergeNode in="SourceGraphic"/>
     </feMerge>
    </filter>
   </defs>
   <text filter="url(#solid)" font-family="Microsoft YaHei" font-size="10.00" text-anchor="middle" x="85.5" y="-931.0">
    优先级队列
   </text>
  </g>
  <g class="key">
   <defs>
    <filter height="1.2" id="solid" width="1.2" x="-0.1" y="-0.1">
     <feFlood flood-color="#ccff90" result="bg"/>
     <feMerge>
      <feMergeNode in="bg"/>
      <feMergeNode in="SourceGraphic"/>
     </feMerge>
    </filter>
   </defs>
   <text filter="url(#solid)" font-family="Microsoft YaHei" font-size="10.00" text-anchor="middle" x="85.5" y="-859.0">
    STL与排序
   </text>
  </g>
  <g class="key">
   <defs>
    <filter height="1.2" id="solid" width="1.2" x="-0.1" y="-0.1">
     <feFlood flood-color="#ccff90" result="bg"/>
     <feMerge>
      <feMergeNode in="bg"/>
      <feMergeNode in="SourceGraphic"/>
     </feMerge>
    </filter>
   </defs>
   <text filter="url(#solid)" font-family="Microsoft YaHei" font-size="10.00" text-anchor="middle" x="85.5" y="-787.0">
    桶排序
   </text>
  </g>
  <g class="key">
   <defs>
    <filter height="1.2" id="solid" width="1.2" x="-0.1" y="-0.1">
     <feFlood flood-color="#ccff90" result="bg"/>
     <feMerge>
      <feMergeNode in="bg"/>
      <feMergeNode in="SourceGraphic"/>
     </feMerge>
    </filter>
   </defs>
   <text filter="url(#solid)" font-family="Microsoft YaHei" font-size="10.00" text-anchor="middle" x="85.5" y="-715.0">
    带附加信息的优先级队列
   </text>
  </g>
  <g class="key">
   <defs>
    <filter height="1.2" id="solid" width="1.2" x="-0.1" y="-0.1">
     <feFlood flood-color="#ccff90" result="bg"/>
     <feMerge>
      <feMergeNode in="bg"/>
      <feMergeNode in="SourceGraphic"/>
     </feMerge>
    </filter>
   </defs>
   <text filter="url(#solid)" font-family="Microsoft YaHei" font-size="10.00" text-anchor="middle" x="85.5" y="-643.0">
    hash与优先级队列
   </text>
  </g>
  <g class="key">
   <defs>
    <filter height="1.2" id="solid" width="1.2" x="-0.1" y="-0.1">
     <feFlood flood-color="#ccff90" result="bg"/>
     <feMerge>
      <feMergeNode in="bg"/>
      <feMergeNode in="SourceGraphic"/>
     </feMerge>
    </filter>
   </defs>
   <text filter="url(#solid)" font-family="Microsoft YaHei" font-size="10.00" text-anchor="middle" x="85.5" y="-571.0">
    hash与优先级队列
   </text>
  </g>
  <g class="key">
   <defs>
    <filter height="1.2" id="solid" width="1.2" x="-0.1" y="-0.1">
     <feFlood flood-color="#ccff90" result="bg"/>
     <feMerge>
      <feMergeNode in="bg"/>
      <feMergeNode in="SourceGraphic"/>
     </feMerge>
    </filter>
   </defs>
   <text filter="url(#solid)" font-family="Microsoft YaHei" font-size="10.00" text-anchor="middle" x="85.5" y="-499.0">
    带权重的优先级队列
   </text>
  </g>
  <g class="key">
   <defs>
    <filter height="1.2" id="solid" width="1.2" x="-0.1" y="-0.1">
     <feFlood flood-color="#ccff90" result="bg"/>
     <feMerge>
      <feMergeNode in="bg"/>
      <feMergeNode in="SourceGraphic"/>
     </feMerge>
    </filter>
   </defs>
   <text filter="url(#solid)" font-family="Microsoft YaHei" font-size="10.00" text-anchor="middle" x="85.5" y="-427.0">
    多个选择的优先级队列
   </text>
  </g>
  <g class="key">
   <defs>
    <filter height="1.2" id="solid" width="1.2" x="-0.1" y="-0.1">
     <feFlood flood-color="#ccff90" result="bg"/>
     <feMerge>
      <feMergeNode in="bg"/>
      <feMergeNode in="SourceGraphic"/>
     </feMerge>
    </filter>
   </defs>
   <text filter="url(#solid)" font-family="Microsoft YaHei" font-size="10.00" text-anchor="middle" x="85.5" y="-355.0">
    3个选2个
   </text>
  </g>
  <g class="key">
   <defs>
    <filter height="1.2" id="solid" width="1.2" x="-0.1" y="-0.1">
     <feFlood flood-color="#ccff90" result="bg"/>
     <feMerge>
      <feMergeNode in="bg"/>
      <feMergeNode in="SourceGraphic"/>
     </feMerge>
    </filter>
   </defs>
   <text filter="url(#solid)" font-family="Microsoft YaHei" font-size="10.00" text-anchor="middle" x="85.5" y="-283.0">
    贪心与堆
   </text>
  </g>
  <g class="key">
   <defs>
    <filter height="1.2" id="solid" width="1.2" x="-0.1" y="-0.1">
     <feFlood flood-color="#ccff90" result="bg"/>
     <feMerge>
      <feMergeNode in="bg"/>
      <feMergeNode in="SourceGraphic"/>
     </feMerge>
    </filter>
   </defs>
   <text filter="url(#solid)" font-family="Microsoft YaHei" font-size="10.00" text-anchor="middle" x="85.5" y="-211.0">
    丑数变体
   </text>
  </g>
  <g class="key">
   <defs>
    <filter height="1.2" id="solid" width="1.2" x="-0.1" y="-0.1">
     <feFlood flood-color="#ccff90" result="bg"/>
     <feMerge>
      <feMergeNode in="bg"/>
      <feMergeNode in="SourceGraphic"/>
     </feMerge>
    </filter>
   </defs>
   <text filter="url(#solid)" font-family="Microsoft YaHei" font-size="10.00" text-anchor="middle" x="85.5" y="-139.0">
    优先级队列
   </text>
  </g>
  <g class="key">
   <defs>
    <filter height="1.2" id="solid" width="1.2" x="-0.1" y="-0.1">
     <feFlood flood-color="#ccff90" result="bg"/>
     <feMerge>
      <feMergeNode in="bg"/>
      <feMergeNode in="SourceGraphic"/>
     </feMerge>
    </filter>
   </defs>
   <text filter="url(#solid)" font-family="Microsoft YaHei" font-size="10.00" text-anchor="middle" x="85.5" y="-67.0">
    767变体
   </text>
  </g>
  <g class="key">
   <defs>
    <filter height="1.2" id="solid" width="1.2" x="-0.1" y="-0.1">
     <feFlood flood-color="#ccff90" result="bg"/>
     <feMerge>
      <feMergeNode in="bg"/>
      <feMergeNode in="SourceGraphic"/>
     </feMerge>
    </filter>
   </defs>
   <text filter="url(#solid)" font-family="Microsoft YaHei" font-size="10.00" text-anchor="middle" x="85.5" y="5.0">
    优先队列合并列表
   </text>
  </g>
  <g class="key">
   <defs>
    <filter height="1.2" id="solid" width="1.2" x="-0.1" y="-0.1">
     <feFlood flood-color="#ccff90" result="bg"/>
     <feMerge>
      <feMergeNode in="bg"/>
      <feMergeNode in="SourceGraphic"/>
     </feMerge>
    </filter>
   </defs>
   <text filter="url(#solid)" font-family="Microsoft YaHei" font-size="10.00" text-anchor="middle" x="440.5" y="-1075.0">
    基础题
   </text>
  </g>
  <g class="key">
   <defs>
    <filter height="1.2" id="solid" width="1.2" x="-0.1" y="-0.1">
     <feFlood flood-color="#ccff90" result="bg"/>
     <feMerge>
      <feMergeNode in="bg"/>
      <feMergeNode in="SourceGraphic"/>
     </feMerge>
    </filter>
   </defs>
   <text filter="url(#solid)" font-family="Microsoft YaHei" font-size="10.00" text-anchor="middle" x="432.5" y="-1003.0">
    基础题
   </text>
  </g>
  <g class="key">
   <defs>
    <filter height="1.2" id="solid" width="1.2" x="-0.1" y="-0.1">
     <feFlood flood-color="#ccff90" result="bg"/>
     <feMerge>
      <feMergeNode in="bg"/>
      <feMergeNode in="SourceGraphic"/>
     </feMerge>
    </filter>
   </defs>
   <text filter="url(#solid)" font-family="Microsoft YaHei" font-size="10.00" text-anchor="middle" x="432.5" y="-931.0">
    树的层次遍历
   </text>
  </g>
  <g class="key">
   <defs>
    <filter height="1.2" id="solid" width="1.2" x="-0.1" y="-0.1">
     <feFlood flood-color="#ccff90" result="bg"/>
     <feMerge>
      <feMergeNode in="bg"/>
      <feMergeNode in="SourceGraphic"/>
     </feMerge>
    </filter>
   </defs>
   <text filter="url(#solid)" font-family="Microsoft YaHei" font-size="10.00" text-anchor="middle" x="432.5" y="-859.0">
    贪心难
   </text>
  </g>
  <g class="key">
   <defs>
    <filter height="1.2" id="solid" width="1.2" x="-0.1" y="-0.1">
     <feFlood flood-color="#ccff90" result="bg"/>
     <feMerge>
      <feMergeNode in="bg"/>
      <feMergeNode in="SourceGraphic"/>
     </feMerge>
    </filter>
   </defs>
   <text filter="url(#solid)" font-family="Microsoft YaHei" font-size="10.00" text-anchor="middle" x="571.5" y="-1075.0">
    巧妙利用栈的特性
   </text>
  </g>
  <g class="key">
   <defs>
    <filter height="1.2" id="solid" width="1.2" x="-0.1" y="-0.1">
     <feFlood flood-color="#ccff90" result="bg"/>
     <feMerge>
      <feMergeNode in="bg"/>
      <feMergeNode in="SourceGraphic"/>
     </feMerge>
    </filter>
   </defs>
   <text filter="url(#solid)" font-family="Microsoft YaHei" font-size="10.00" text-anchor="middle" x="578.5" y="-1003.0">
    栈与队列
   </text>
  </g>
  <g class="key">
   <defs>
    <filter height="1.2" id="solid" width="1.2" x="-0.1" y="-0.1">
     <feFlood flood-color="#ccff90" result="bg"/>
     <feMerge>
      <feMergeNode in="bg"/>
      <feMergeNode in="SourceGraphic"/>
     </feMerge>
    </filter>
   </defs>
   <text filter="url(#solid)" font-family="Microsoft YaHei" font-size="10.00" text-anchor="middle" x="578.5" y="-931.0">
    栈与队列
   </text>
  </g>
  <g class="key">
   <defs>
    <filter height="1.2" id="solid" width="1.2" x="-0.1" y="-0.1">
     <feFlood flood-color="#ccff90" result="bg"/>
     <feMerge>
      <feMergeNode in="bg"/>
      <feMergeNode in="SourceGraphic"/>
     </feMerge>
    </filter>
   </defs>
   <text filter="url(#solid)" font-family="Microsoft YaHei" font-size="10.00" text-anchor="middle" x="578.5" y="-859.0">
    单调栈
   </text>
  </g>
 </g>
</svg>