<?xml version="1.0" encoding="utf-8"?>
<!DOCTYPE svg PUBLIC "-//W3C//DTD SVG 1.1//EN" "http://www.w3.org/Graphics/SVG/1.1/DTD/svg11.dtd">
<!-- Generated by graphviz version 2.46.1 (20210213.1702)
 -->
<!-- Title: stones Pages: 1 -->
<svg height="598pt" viewBox="0.00 0.00 921.5 598.0" width="922pt" xmlns="http://www.w3.org/2000/svg" xmlns:xlink="http://www.w3.org/1999/xlink">
 <g class="graph" id="graph0" transform="scale(1 1) rotate(0) translate(4 544)">
  <title>
   stones
  </title>
  <polygon fill="white" points="-4,4 -4,-544 867.5,-544 867.5,4 -4,4" stroke="transparent"/>
  <!-- Leetcode&#45;链表 -->
  <g class="node" id="node1">
   <title>
    Leetcode-链表
   </title>
   <g id="a_node1">
    <a target="_parent" xlink:href="https://leetcode-cn.com/tag/linked-list" xlink:title="Leetcode-链表(20)">
     <polygon fill="orangered" points="457,-540 318,-540 318,-504 457,-504 457,-540" stroke="lightgrey"/>
     <text fill="white" font-family="Microsoft YaHei" font-size="14.00" text-anchor="middle" x="387.5" y="-518.3">
      Leetcode-链表(20)
     </text>
    </a>
   </g>
  </g>
  <!-- 反转链表 -->
  <g class="node" id="node2">
   <title>
    反转链表
   </title>
   <polygon fill="lightslategray" points="178,-468 99,-468 99,-432 178,-432 178,-468" stroke="lightgrey"/>
   <text fill="white" font-family="Microsoft YaHei" font-size="12.00" text-anchor="middle" x="138.5" y="-446.9">
    反转链表(3)
   </text>
  </g>
  <!-- Leetcode&#45;链表&#45;&gt;反转链表 -->
  <g class="edge" id="edge1">
   <title>
    Leetcode-链表-&gt;反转链表
   </title>
   <path d="M326.91,-503.97C284.31,-491.99 228.01,-476.16 188.08,-464.94" fill="none" stroke="lightgrey"/>
   <polygon fill="lightgrey" points="188.88,-461.53 178.3,-462.19 186.98,-468.27 188.88,-461.53" stroke="lightgrey"/>
  </g>
  <!-- 构建新链表 -->
  <g class="node" id="node6">
   <title>
    构建新链表
   </title>
   <polygon fill="lightslategray" points="316,-468 225,-468 225,-432 316,-432 316,-468" stroke="lightgrey"/>
   <text fill="white" font-family="Microsoft YaHei" font-size="12.00" text-anchor="middle" x="270.5" y="-446.9">
    构建新链表(3)
   </text>
  </g>
  <!-- Leetcode&#45;链表&#45;&gt;构建新链表 -->
  <g class="edge" id="edge5">
   <title>
    Leetcode-链表-&gt;构建新链表
   </title>
   <path d="M358.88,-503.88C343.58,-494.72 324.56,-483.34 308.08,-473.48" fill="none" stroke="lightgrey"/>
   <polygon fill="lightgrey" points="309.61,-470.32 299.23,-468.19 306.02,-476.33 309.61,-470.32" stroke="lightgrey"/>
  </g>
  <!-- 遍历链表 -->
  <g class="node" id="node10">
   <title>
    遍历链表
   </title>
   <polygon fill="lightslategray" points="427,-468 348,-468 348,-432 427,-432 427,-468" stroke="lightgrey"/>
   <text fill="white" font-family="Microsoft YaHei" font-size="12.00" text-anchor="middle" x="387.5" y="-446.9">
    遍历链表(3)
   </text>
  </g>
  <!-- Leetcode&#45;链表&#45;&gt;遍历链表 -->
  <g class="edge" id="edge9">
   <title>
    Leetcode-链表-&gt;遍历链表
   </title>
   <path d="M387.5,-503.7C387.5,-495.98 387.5,-486.71 387.5,-478.11" fill="none" stroke="lightgrey"/>
   <polygon fill="lightgrey" points="391,-478.1 387.5,-468.1 384,-478.1 391,-478.1" stroke="lightgrey"/>
  </g>
  <!-- 快慢指针 -->
  <g class="node" id="node14">
   <title>
    快慢指针
   </title>
   <polygon fill="lightslategray" points="553,-468 474,-468 474,-432 553,-432 553,-468" stroke="lightgrey"/>
   <text fill="white" font-family="Microsoft YaHei" font-size="12.00" text-anchor="middle" x="513.5" y="-446.9">
    快慢指针(6)
   </text>
  </g>
  <!-- Leetcode&#45;链表&#45;&gt;快慢指针 -->
  <g class="edge" id="edge13">
   <title>
    Leetcode-链表-&gt;快慢指针
   </title>
   <path d="M418.32,-503.88C434.95,-494.64 455.66,-483.13 473.52,-473.21" fill="none" stroke="lightgrey"/>
   <polygon fill="lightgrey" points="475.52,-476.11 482.56,-468.19 472.12,-469.99 475.52,-476.11" stroke="lightgrey"/>
  </g>
  <!-- 删除链表 -->
  <g class="node" id="node21">
   <title>
    删除链表
   </title>
   <polygon fill="lightslategray" points="692,-468 613,-468 613,-432 692,-432 692,-468" stroke="lightgrey"/>
   <text fill="white" font-family="Microsoft YaHei" font-size="12.00" text-anchor="middle" x="652.5" y="-446.9">
    删除链表(5)
   </text>
  </g>
  <!-- Leetcode&#45;链表&#45;&gt;删除链表 -->
  <g class="edge" id="edge20">
   <title>
    Leetcode-链表-&gt;删除链表
   </title>
   <path d="M451.99,-503.97C498.51,-491.68 560.38,-475.33 603.03,-464.07" fill="none" stroke="lightgrey"/>
   <polygon fill="lightgrey" points="604.12,-467.4 612.89,-461.46 602.33,-460.63 604.12,-467.4" stroke="lightgrey"/>
  </g>
  <!-- 206 -->
  <g class="node" id="node3">
   <title>
    206
   </title>
   <g id="a_node3">
    <a target="_parent" xlink:href="https://leetcode-cn.com/problems/reverse-linked-list" xlink:title="206. 反转链表">
     <polygon fill="none" points="162.5,-396 70.5,-396 70.5,-360 162.5,-360 162.5,-396" stroke="greenyellow"/>
     <text font-family="Microsoft YaHei" font-size="12.00" text-anchor="middle" x="116.5" y="-374.9">
      206. 反转链表
     </text>
    </a>
   </g>
   <g transform="translate(154.5, -402.0) scale(0.3)">
    <circle cx="24" cy="24" fill="#4caf50" r="21"/>
    <polygon fill="#ccff90" points="34.6,14.6 21,28.2 15.4,22.6 12.6,25.4 21,33.8 37.4,17.4"/>
   </g>
  </g>
  <!-- 反转链表&#45;&gt;206 -->
  <g class="edge" id="edge2">
   <title>
    反转链表-&gt;206
   </title>
   <path d="M133.06,-431.7C130.61,-423.9 127.66,-414.51 124.93,-405.83" fill="none" stroke="lightgrey"/>
   <polygon fill="lightgrey" points="128.21,-404.59 121.88,-396.1 121.54,-406.69 128.21,-404.59" stroke="lightgrey"/>
  </g>
  <!-- 24 -->
  <g class="node" id="node4">
   <title>
    24
   </title>
   <g id="a_node4">
    <a target="_parent" xlink:href="https://leetcode-cn.com/problems/swap-nodes-in-pairs" xlink:title="24. 两两交换链表中的节点">
     <polygon fill="none" points="157,-324 0,-324 0,-288 157,-288 157,-324" stroke="orange"/>
     <text font-family="Microsoft YaHei" font-size="12.00" text-anchor="middle" x="78.5" y="-302.9">
      24. 两两交换链表中的节点
     </text>
    </a>
   </g>
   <g transform="translate(149.0, -330.0) scale(0.3)">
    <circle cx="24" cy="24" fill="#4caf50" r="21"/>
    <polygon fill="#ccff90" points="34.6,14.6 21,28.2 15.4,22.6 12.6,25.4 21,33.8 37.4,17.4"/>
   </g>
  </g>
  <!-- 206&#45;&gt;24 -->
  <g class="edge" id="edge3">
   <title>
    206-&gt;24
   </title>
   <path d="M107.11,-359.7C102.74,-351.64 97.44,-341.89 92.6,-332.98" fill="none" stroke="lightgrey"/>
   <polygon fill="lightgrey" points="95.63,-331.22 87.79,-324.1 89.48,-334.56 95.63,-331.22" stroke="lightgrey"/>
  </g>
  <!-- 92 -->
  <g class="node" id="node5">
   <title>
    92
   </title>
   <g id="a_node5">
    <a target="_parent" xlink:href="https://leetcode-cn.com/problems/reverse-linked-list-ii" xlink:title="92. 反转链表 II">
     <polygon fill="none" points="126.5,-252 30.5,-252 30.5,-216 126.5,-216 126.5,-252" stroke="orange"/>
     <text font-family="Microsoft YaHei" font-size="12.00" text-anchor="middle" x="78.5" y="-230.9">
      92. 反转链表 II
     </text>
    </a>
   </g>
   <g transform="translate(118.5, -258.0) scale(0.3)">
    <circle cx="24" cy="24" fill="#4caf50" r="21"/>
    <polygon fill="#ccff90" points="34.6,14.6 21,28.2 15.4,22.6 12.6,25.4 21,33.8 37.4,17.4"/>
   </g>
   <g transform="translate(117.5, -225.0)">
    <symbol id="flask" viewBox="0 0 448 512">
     <path d="M437.2 403.5L320 215V64h8c13.3 0 24-10.7 24-24V24c0-13.3-10.7-24-24-24H120c-13.3 0-24 10.7-24 24v16c0 13.3 10.7 24 24 24h8v151L10.8 403.5C-18.5 450.6 15.3 512 70.9 512h306.2c55.7 0 89.4-61.5 60.1-108.5zM137.9 320l48.2-77.6c3.7-5.2 5.8-11.6 5.8-18.4V64h64v160c0 6.9 2.2 13.2 5.8 18.4l48.2 77.6h-172z" fill="#1389fd"/>
    </symbol>
    <a href="https://github.com/acm-clan/algorithm-stone/blob/main/user/leetcode/92.反转链表 II.md">
     <use height="18" href="#flask" width="18"/>
    </a>
   </g>
  </g>
  <!-- 24&#45;&gt;92 -->
  <g class="edge" id="edge4">
   <title>
    24-&gt;92
   </title>
   <path d="M78.5,-287.7C78.5,-279.98 78.5,-270.71 78.5,-262.11" fill="none" stroke="lightgrey"/>
   <polygon fill="lightgrey" points="82,-262.1 78.5,-252.1 75,-262.1 82,-262.1" stroke="lightgrey"/>
  </g>
  <!-- 2 -->
  <g class="node" id="node7">
   <title>
    2
   </title>
   <g id="a_node7">
    <a target="_parent" xlink:href="https://leetcode-cn.com/problems/add-two-numbers" xlink:title="2. 两数相加">
     <polygon fill="none" points="280.5,-396 202.5,-396 202.5,-360 280.5,-360 280.5,-396" stroke="orange"/>
     <text font-family="Microsoft YaHei" font-size="12.00" text-anchor="middle" x="241.5" y="-374.9">
      2. 两数相加
     </text>
    </a>
   </g>
  </g>
  <!-- 构建新链表&#45;&gt;2 -->
  <g class="edge" id="edge6">
   <title>
    构建新链表-&gt;2
   </title>
   <path d="M263.33,-431.7C260.07,-423.81 256.13,-414.3 252.5,-405.55" fill="none" stroke="lightgrey"/>
   <polygon fill="lightgrey" points="255.65,-404 248.59,-396.1 249.18,-406.68 255.65,-404" stroke="lightgrey"/>
  </g>
  <!-- 445 -->
  <g class="node" id="node8">
   <title>
    445
   </title>
   <g id="a_node8">
    <a target="_parent" xlink:href="https://leetcode-cn.com/problems/add-two-numbers-ii" xlink:title="445. 两数相加 II">
     <polygon fill="none" points="278,-324 175,-324 175,-288 278,-288 278,-324" stroke="orange"/>
     <text font-family="Microsoft YaHei" font-size="12.00" text-anchor="middle" x="226.5" y="-302.9">
      445. 两数相加 II
     </text>
    </a>
   </g>
   <g transform="translate(270.0, -330.0) scale(0.3)">
    <circle cx="24" cy="24" fill="#4caf50" r="21"/>
    <polygon fill="#ccff90" points="34.6,14.6 21,28.2 15.4,22.6 12.6,25.4 21,33.8 37.4,17.4"/>
   </g>
  </g>
  <!-- 2&#45;&gt;445 -->
  <g class="edge" id="edge7">
   <title>
    2-&gt;445
   </title>
   <path d="M237.79,-359.7C236.14,-351.98 234.15,-342.71 232.31,-334.11" fill="none" stroke="lightgrey"/>
   <polygon fill="lightgrey" points="235.68,-333.15 230.17,-324.1 228.84,-334.62 235.68,-333.15" stroke="lightgrey"/>
  </g>
  <!-- 1669 -->
  <g class="node" id="node9">
   <title>
    1669
   </title>
   <g id="a_node9">
    <a target="_parent" xlink:href="https://leetcode-cn.com/problems/merge-in-between-linked-lists" xlink:title="1669. 合并两个链表">
     <polygon fill="none" points="287.5,-252 165.5,-252 165.5,-216 287.5,-216 287.5,-252" stroke="orange"/>
     <text font-family="Microsoft YaHei" font-size="12.00" text-anchor="middle" x="226.5" y="-230.9">
      1669. 合并两个链表
     </text>
    </a>
   </g>
   <g transform="translate(279.5, -258.0) scale(0.3)">
    <circle cx="24" cy="24" fill="#4caf50" r="21"/>
    <polygon fill="#ccff90" points="34.6,14.6 21,28.2 15.4,22.6 12.6,25.4 21,33.8 37.4,17.4"/>
   </g>
  </g>
  <!-- 445&#45;&gt;1669 -->
  <g class="edge" id="edge8">
   <title>
    445-&gt;1669
   </title>
   <path d="M226.5,-287.7C226.5,-279.98 226.5,-270.71 226.5,-262.11" fill="none" stroke="lightgrey"/>
   <polygon fill="lightgrey" points="230,-262.1 226.5,-252.1 223,-262.1 230,-262.1" stroke="lightgrey"/>
  </g>
  <!-- 1290 -->
  <g class="node" id="node11">
   <title>
    1290
   </title>
   <g id="a_node11">
    <a target="_parent" xlink:href="https://leetcode-cn.com/problems/convert-binary-number-in-a-linked-list-to-integer" xlink:title="1290. 二进制链表转整数">
     <polygon fill="none" points="460.5,-396 314.5,-396 314.5,-360 460.5,-360 460.5,-396" stroke="greenyellow"/>
     <text font-family="Microsoft YaHei" font-size="12.00" text-anchor="middle" x="387.5" y="-374.9">
      1290. 二进制链表转整数
     </text>
    </a>
   </g>
   <g transform="translate(452.5, -402.0) scale(0.3)">
    <circle cx="24" cy="24" fill="#4caf50" r="21"/>
    <polygon fill="#ccff90" points="34.6,14.6 21,28.2 15.4,22.6 12.6,25.4 21,33.8 37.4,17.4"/>
   </g>
  </g>
  <!-- 遍历链表&#45;&gt;1290 -->
  <g class="edge" id="edge10">
   <title>
    遍历链表-&gt;1290
   </title>
   <path d="M387.5,-431.7C387.5,-423.98 387.5,-414.71 387.5,-406.11" fill="none" stroke="lightgrey"/>
   <polygon fill="lightgrey" points="391,-406.1 387.5,-396.1 384,-406.1 391,-406.1" stroke="lightgrey"/>
  </g>
  <!-- 1019 -->
  <g class="node" id="node12">
   <title>
    1019
   </title>
   <g id="a_node12">
    <a target="_parent" xlink:href="https://leetcode-cn.com/problems/next-greater-node-in-linked-list" xlink:title="1019. 链表中的下一个更大节点">
     <polygon fill="none" points="478.5,-324 296.5,-324 296.5,-288 478.5,-288 478.5,-324" stroke="orange"/>
     <text font-family="Microsoft YaHei" font-size="12.00" text-anchor="middle" x="387.5" y="-302.9">
      1019. 链表中的下一个更大节点
     </text>
    </a>
   </g>
   <g transform="translate(470.5, -330.0) scale(0.3)">
    <circle cx="24" cy="24" fill="#4caf50" r="21"/>
    <polygon fill="#ccff90" points="34.6,14.6 21,28.2 15.4,22.6 12.6,25.4 21,33.8 37.4,17.4"/>
   </g>
  </g>
  <!-- 1290&#45;&gt;1019 -->
  <g class="edge" id="edge11">
   <title>
    1290-&gt;1019
   </title>
   <path d="M387.5,-359.7C387.5,-351.98 387.5,-342.71 387.5,-334.11" fill="none" stroke="lightgrey"/>
   <polygon fill="lightgrey" points="391,-334.1 387.5,-324.1 384,-334.1 391,-334.1" stroke="lightgrey"/>
  </g>
  <!-- 138 -->
  <g class="node" id="node13">
   <title>
    138
   </title>
   <g id="a_node13">
    <a target="_parent" xlink:href="https://leetcode-cn.com/problems/copy-list-with-random-pointer" xlink:title="138. 复制带随机指针的链表">
     <polygon fill="none" points="469.5,-252 305.5,-252 305.5,-216 469.5,-216 469.5,-252" stroke="orange"/>
     <text font-family="Microsoft YaHei" font-size="12.00" text-anchor="middle" x="387.5" y="-230.9">
      138. 复制带随机指针的链表
     </text>
    </a>
   </g>
  </g>
  <!-- 1019&#45;&gt;138 -->
  <g class="edge" id="edge12">
   <title>
    1019-&gt;138
   </title>
   <path d="M387.5,-287.7C387.5,-279.98 387.5,-270.71 387.5,-262.11" fill="none" stroke="lightgrey"/>
   <polygon fill="lightgrey" points="391,-262.1 387.5,-252.1 384,-262.1 391,-262.1" stroke="lightgrey"/>
  </g>
  <!-- 876 -->
  <g class="node" id="node15">
   <title>
    876
   </title>
   <g id="a_node15">
    <a target="_parent" xlink:href="https://leetcode-cn.com/problems/middle-of-the-linked-list" xlink:title="876. 链表的中间结点">
     <polygon fill="none" points="606.5,-396 478.5,-396 478.5,-360 606.5,-360 606.5,-396" stroke="greenyellow"/>
     <text font-family="Microsoft YaHei" font-size="12.00" text-anchor="middle" x="542.5" y="-374.9">
      876. 链表的中间结点
     </text>
    </a>
   </g>
   <g transform="translate(598.5, -402.0) scale(0.3)">
    <circle cx="24" cy="24" fill="#4caf50" r="21"/>
    <polygon fill="#ccff90" points="34.6,14.6 21,28.2 15.4,22.6 12.6,25.4 21,33.8 37.4,17.4"/>
   </g>
  </g>
  <!-- 快慢指针&#45;&gt;876 -->
  <g class="edge" id="edge14">
   <title>
    快慢指针-&gt;876
   </title>
   <path d="M520.67,-431.7C523.93,-423.81 527.87,-414.3 531.5,-405.55" fill="none" stroke="lightgrey"/>
   <polygon fill="lightgrey" points="534.82,-406.68 535.41,-396.1 528.35,-404 534.82,-406.68" stroke="lightgrey"/>
  </g>
  <!-- 141 -->
  <g class="node" id="node16">
   <title>
    141
   </title>
   <g id="a_node16">
    <a target="_parent" xlink:href="https://leetcode-cn.com/problems/linked-list-cycle" xlink:title="141. 环形链表">
     <polygon fill="none" points="588.5,-324 496.5,-324 496.5,-288 588.5,-288 588.5,-324" stroke="greenyellow"/>
     <text font-family="Microsoft YaHei" font-size="12.00" text-anchor="middle" x="542.5" y="-302.9">
      141. 环形链表
     </text>
    </a>
   </g>
   <g transform="translate(580.5, -330.0) scale(0.3)">
    <circle cx="24" cy="24" fill="#4caf50" r="21"/>
    <polygon fill="#ccff90" points="34.6,14.6 21,28.2 15.4,22.6 12.6,25.4 21,33.8 37.4,17.4"/>
   </g>
  </g>
  <!-- 876&#45;&gt;141 -->
  <g class="edge" id="edge15">
   <title>
    876-&gt;141
   </title>
   <path d="M542.5,-359.7C542.5,-351.98 542.5,-342.71 542.5,-334.11" fill="none" stroke="lightgrey"/>
   <polygon fill="lightgrey" points="546,-334.1 542.5,-324.1 539,-334.1 546,-334.1" stroke="lightgrey"/>
  </g>
  <!-- 61 -->
  <g class="node" id="node17">
   <title>
    61
   </title>
   <g id="a_node17">
    <a target="_parent" xlink:href="https://leetcode-cn.com/problems/rotate-list" xlink:title="61. 旋转链表">
     <polygon fill="none" points="579,-252 494,-252 494,-216 579,-216 579,-252" stroke="orange"/>
     <text font-family="Microsoft YaHei" font-size="12.00" text-anchor="middle" x="536.5" y="-230.9">
      61. 旋转链表
     </text>
    </a>
   </g>
   <g transform="translate(571.0, -258.0) scale(0.3)">
    <circle cx="24" cy="24" fill="#4caf50" r="21"/>
    <polygon fill="#ccff90" points="34.6,14.6 21,28.2 15.4,22.6 12.6,25.4 21,33.8 37.4,17.4"/>
   </g>
  </g>
  <!-- 141&#45;&gt;61 -->
  <g class="edge" id="edge16">
   <title>
    141-&gt;61
   </title>
   <path d="M541.02,-287.7C540.36,-279.98 539.56,-270.71 538.82,-262.11" fill="none" stroke="lightgrey"/>
   <polygon fill="lightgrey" points="542.31,-261.77 537.97,-252.1 535.33,-262.37 542.31,-261.77" stroke="lightgrey"/>
  </g>
  <!-- 19 -->
  <g class="node" id="node18">
   <title>
    19
   </title>
   <g id="a_node18">
    <a target="_parent" xlink:href="https://leetcode-cn.com/problems/remove-nth-node-from-end-of-list" xlink:title="19. 删除链表的倒数第 N 个结点">
     <polygon fill="none" points="625.5,-180 439.5,-180 439.5,-144 625.5,-144 625.5,-180" stroke="orange"/>
     <text font-family="Microsoft YaHei" font-size="12.00" text-anchor="middle" x="532.5" y="-158.9">
      19. 删除链表的倒数第 N 个结点
     </text>
    </a>
   </g>
   <g transform="translate(617.5, -186.0) scale(0.3)">
    <circle cx="24" cy="24" fill="#4caf50" r="21"/>
    <polygon fill="#ccff90" points="34.6,14.6 21,28.2 15.4,22.6 12.6,25.4 21,33.8 37.4,17.4"/>
   </g>
  </g>
  <!-- 61&#45;&gt;19 -->
  <g class="edge" id="edge17">
   <title>
    61-&gt;19
   </title>
   <path d="M535.51,-215.7C535.07,-207.98 534.54,-198.71 534.05,-190.11" fill="none" stroke="lightgrey"/>
   <polygon fill="lightgrey" points="537.54,-189.89 533.48,-180.1 530.55,-190.29 537.54,-189.89" stroke="lightgrey"/>
  </g>
  <!-- 1721 -->
  <g class="node" id="node19">
   <title>
    1721
   </title>
   <g id="a_node19">
    <a target="_parent" xlink:href="https://leetcode-cn.com/problems/swapping-nodes-in-a-linked-list" xlink:title="1721. 交换链表中的节点">
     <polygon fill="none" points="603.5,-108 457.5,-108 457.5,-72 603.5,-72 603.5,-108" stroke="orange"/>
     <text font-family="Microsoft YaHei" font-size="12.00" text-anchor="middle" x="530.5" y="-86.9">
      1721. 交换链表中的节点
     </text>
    </a>
   </g>
   <g transform="translate(595.5, -114.0) scale(0.3)">
    <circle cx="24" cy="24" fill="#4caf50" r="21"/>
    <polygon fill="#ccff90" points="34.6,14.6 21,28.2 15.4,22.6 12.6,25.4 21,33.8 37.4,17.4"/>
   </g>
  </g>
  <!-- 19&#45;&gt;1721 -->
  <g class="edge" id="edge18">
   <title>
    19-&gt;1721
   </title>
   <path d="M532.01,-143.7C531.79,-135.98 531.52,-126.71 531.27,-118.11" fill="none" stroke="lightgrey"/>
   <polygon fill="lightgrey" points="534.77,-118 530.99,-108.1 527.78,-118.2 534.77,-118" stroke="lightgrey"/>
  </g>
  <!-- 142 -->
  <g class="node" id="node20">
   <title>
    142
   </title>
   <g id="a_node20">
    <a target="_parent" xlink:href="https://leetcode-cn.com/problems/linked-list-cycle-ii" xlink:title="142. 环形链表 II">
     <polygon fill="none" points="582,-36 479,-36 479,0 582,0 582,-36" stroke="orange"/>
     <text font-family="Microsoft YaHei" font-size="12.00" text-anchor="middle" x="530.5" y="-14.9">
      142. 环形链表 II
     </text>
    </a>
   </g>
   <g transform="translate(574.0, -42.0) scale(0.3)">
    <circle cx="24" cy="24" fill="#4caf50" r="21"/>
    <polygon fill="#ccff90" points="34.6,14.6 21,28.2 15.4,22.6 12.6,25.4 21,33.8 37.4,17.4"/>
   </g>
   <g transform="translate(573.0, -9.0)">
    <symbol id="flask" viewBox="0 0 448 512">
     <path d="M437.2 403.5L320 215V64h8c13.3 0 24-10.7 24-24V24c0-13.3-10.7-24-24-24H120c-13.3 0-24 10.7-24 24v16c0 13.3 10.7 24 24 24h8v151L10.8 403.5C-18.5 450.6 15.3 512 70.9 512h306.2c55.7 0 89.4-61.5 60.1-108.5zM137.9 320l48.2-77.6c3.7-5.2 5.8-11.6 5.8-18.4V64h64v160c0 6.9 2.2 13.2 5.8 18.4l48.2 77.6h-172z" fill="#1389fd"/>
    </symbol>
    <a href="https://github.com/acm-clan/algorithm-stone/blob/main/user/leetcode/142. 环形链表 II.md">
     <use height="18" href="#flask" width="18"/>
    </a>
   </g>
  </g>
  <!-- 1721&#45;&gt;142 -->
  <g class="edge" id="edge19">
   <title>
    1721-&gt;142
   </title>
   <path d="M530.5,-71.7C530.5,-63.98 530.5,-54.71 530.5,-46.11" fill="none" stroke="lightgrey"/>
   <polygon fill="lightgrey" points="534,-46.1 530.5,-36.1 527,-46.1 534,-46.1" stroke="lightgrey"/>
  </g>
  <!-- 237 -->
  <g class="node" id="node22">
   <title>
    237
   </title>
   <g id="a_node22">
    <a target="_parent" xlink:href="https://leetcode-cn.com/problems/delete-node-in-a-linked-list" xlink:title="237. 删除链表中的节点">
     <polygon fill="none" points="778.5,-396 638.5,-396 638.5,-360 778.5,-360 778.5,-396" stroke="greenyellow"/>
     <text font-family="Microsoft YaHei" font-size="12.00" text-anchor="middle" x="708.5" y="-374.9">
      237. 删除链表中的节点
     </text>
    </a>
   </g>
  </g>
  <!-- 删除链表&#45;&gt;237 -->
  <g class="edge" id="edge21">
   <title>
    删除链表-&gt;237
   </title>
   <path d="M666.34,-431.7C672.99,-423.39 681.08,-413.28 688.39,-404.14" fill="none" stroke="lightgrey"/>
   <polygon fill="lightgrey" points="691.3,-406.1 694.82,-396.1 685.84,-401.73 691.3,-406.1" stroke="lightgrey"/>
  </g>
  <!-- 203 -->
  <g class="node" id="node23">
   <title>
    203
   </title>
   <g id="a_node23">
    <a target="_parent" xlink:href="https://leetcode-cn.com/problems/remove-linked-list-elements" xlink:title="203. 移除链表元素">
     <polygon fill="none" points="794.5,-324 678.5,-324 678.5,-288 794.5,-288 794.5,-324" stroke="greenyellow"/>
     <text font-family="Microsoft YaHei" font-size="12.00" text-anchor="middle" x="736.5" y="-302.9">
      203. 移除链表元素
     </text>
    </a>
   </g>
   <g transform="translate(786.5, -330.0) scale(0.3)">
    <circle cx="24" cy="24" fill="#4caf50" r="21"/>
    <polygon fill="#ccff90" points="34.6,14.6 21,28.2 15.4,22.6 12.6,25.4 21,33.8 37.4,17.4"/>
   </g>
  </g>
  <!-- 237&#45;&gt;203 -->
  <g class="edge" id="edge22">
   <title>
    237-&gt;203
   </title>
   <path d="M715.42,-359.7C718.57,-351.81 722.38,-342.3 725.88,-333.55" fill="none" stroke="lightgrey"/>
   <polygon fill="lightgrey" points="729.19,-334.69 729.66,-324.1 722.69,-332.09 729.19,-334.69" stroke="lightgrey"/>
  </g>
  <!-- 83 -->
  <g class="node" id="node24">
   <title>
    83
   </title>
   <g id="a_node24">
    <a target="_parent" xlink:href="https://leetcode-cn.com/problems/remove-duplicates-from-sorted-list" xlink:title="83. 删除排序链表中的重复元素">
     <polygon fill="none" points="829,-252 648,-252 648,-216 829,-216 829,-252" stroke="greenyellow"/>
     <text font-family="Microsoft YaHei" font-size="12.00" text-anchor="middle" x="738.5" y="-230.9">
      83. 删除排序链表中的重复元素
     </text>
    </a>
   </g>
   <g transform="translate(821.0, -258.0) scale(0.3)">
    <circle cx="24" cy="24" fill="#4caf50" r="21"/>
    <polygon fill="#ccff90" points="34.6,14.6 21,28.2 15.4,22.6 12.6,25.4 21,33.8 37.4,17.4"/>
   </g>
  </g>
  <!-- 203&#45;&gt;83 -->
  <g class="edge" id="edge23">
   <title>
    203-&gt;83
   </title>
   <path d="M736.99,-287.7C737.21,-279.98 737.48,-270.71 737.73,-262.11" fill="none" stroke="lightgrey"/>
   <polygon fill="lightgrey" points="741.22,-262.2 738.01,-252.1 734.23,-262 741.22,-262.2" stroke="lightgrey"/>
  </g>
  <!-- 82 -->
  <g class="node" id="node25">
   <title>
    82
   </title>
   <g id="a_node25">
    <a target="_parent" xlink:href="https://leetcode-cn.com/problems/remove-duplicates-from-sorted-list-ii" xlink:title="82. 删除排序链表中的重复元素 II">
     <polygon fill="none" points="836.5,-180 644.5,-180 644.5,-144 836.5,-144 836.5,-180" stroke="orange"/>
     <text font-family="Microsoft YaHei" font-size="12.00" text-anchor="middle" x="740.5" y="-158.9">
      82. 删除排序链表中的重复元素 II
     </text>
    </a>
   </g>
   <g transform="translate(828.5, -186.0) scale(0.3)">
    <circle cx="24" cy="24" fill="#4caf50" r="21"/>
    <polygon fill="#ccff90" points="34.6,14.6 21,28.2 15.4,22.6 12.6,25.4 21,33.8 37.4,17.4"/>
   </g>
  </g>
  <!-- 83&#45;&gt;82 -->
  <g class="edge" id="edge24">
   <title>
    83-&gt;82
   </title>
   <path d="M738.99,-215.7C739.21,-207.98 739.48,-198.71 739.73,-190.11" fill="none" stroke="lightgrey"/>
   <polygon fill="lightgrey" points="743.22,-190.2 740.01,-180.1 736.23,-190 743.22,-190.2" stroke="lightgrey"/>
  </g>
  <!-- 1171 -->
  <g class="node" id="node26">
   <title>
    1171
   </title>
   <g id="a_node26">
    <a target="_parent" xlink:href="https://leetcode-cn.com/problems/remove-zero-sum-consecutive-nodes-from-linked-list" xlink:title="1171. 从链表中删去总和值为零的连续节点">
     <polygon fill="none" points="863.5,-108 621.5,-108 621.5,-72 863.5,-72 863.5,-108" stroke="orange"/>
     <text font-family="Microsoft YaHei" font-size="12.00" text-anchor="middle" x="742.5" y="-86.9">
      1171. 从链表中删去总和值为零的连续节点
     </text>
    </a>
   </g>
  </g>
  <!-- 82&#45;&gt;1171 -->
  <g class="edge" id="edge25">
   <title>
    82-&gt;1171
   </title>
   <path d="M740.99,-143.7C741.21,-135.98 741.48,-126.71 741.73,-118.11" fill="none" stroke="lightgrey"/>
   <polygon fill="lightgrey" points="745.22,-118.2 742.01,-108.1 738.23,-118 745.22,-118.2" stroke="lightgrey"/>
  </g>
  <g class="key">
   <defs>
    <filter height="1.2" id="solid" width="1.2" x="-0.1" y="-0.1">
     <feFlood flood-color="#ccff90" result="bg"/>
     <feMerge>
      <feMergeNode in="bg"/>
      <feMergeNode in="SourceGraphic"/>
     </feMerge>
    </filter>
   </defs>
   <text filter="url(#solid)" font-family="Microsoft YaHei" font-size="10.00" text-anchor="middle" x="387.5" y="-355.0">
    位运算
   </text>
  </g>
  <g class="key">
   <defs>
    <filter height="1.2" id="solid" width="1.2" x="-0.1" y="-0.1">
     <feFlood flood-color="#ccff90" result="bg"/>
     <feMerge>
      <feMergeNode in="bg"/>
      <feMergeNode in="SourceGraphic"/>
     </feMerge>
    </filter>
   </defs>
   <text filter="url(#solid)" font-family="Microsoft YaHei" font-size="10.00" text-anchor="middle" x="530.5" y="5.0">
    公式推理
   </text>
  </g>
  <g class="key">
   <defs>
    <filter height="1.2" id="solid" width="1.2" x="-0.1" y="-0.1">
     <feFlood flood-color="#ccff90" result="bg"/>
     <feMerge>
      <feMergeNode in="bg"/>
      <feMergeNode in="SourceGraphic"/>
     </feMerge>
    </filter>
   </defs>
   <text filter="url(#solid)" font-family="Microsoft YaHei" font-size="10.00" text-anchor="middle" x="708.5" y="-355.0">
    简单删除
   </text>
  </g>
  <g class="key">
   <defs>
    <filter height="1.2" id="solid" width="1.2" x="-0.1" y="-0.1">
     <feFlood flood-color="#ccff90" result="bg"/>
     <feMerge>
      <feMergeNode in="bg"/>
      <feMergeNode in="SourceGraphic"/>
     </feMerge>
    </filter>
   </defs>
   <text filter="url(#solid)" font-family="Microsoft YaHei" font-size="10.00" text-anchor="middle" x="736.5" y="-283.0">
    删除多个
   </text>
  </g>
 </g>
</svg>