<?xml version="1.0" encoding="UTF-8" standalone="no"?>
<!DOCTYPE svg PUBLIC "-//W3C//DTD SVG 1.1//EN"
 "http://www.w3.org/Graphics/SVG/1.1/DTD/svg11.dtd">
<!-- Generated by graphviz version 2.46.1 (20210213.1702)
 -->
<!-- Title: stones Pages: 1 -->
<svg width="479pt" height="1124pt"
 viewBox="0.00 0.00 479.00 1124.00" xmlns="http://www.w3.org/2000/svg" xmlns:xlink="http://www.w3.org/1999/xlink">
<g id="graph0" class="graph" transform="scale(1 1) rotate(0) translate(4 1120)">
<title>stones</title>
<polygon fill="white" stroke="transparent" points="-4,4 -4,-1120 475,-1120 475,4 -4,4"/>
<!-- Leetcode&#45;并查集 -->
<g id="node1" class="node">
<title>Leetcode&#45;并查集</title>
<g id="a_node1"><a xlink:href="https://leetcode-cn.com/tag/union-find" xlink:title="Leetcode&#45;并查集(28)" target="_parent">
<polygon fill="orangered" stroke="lightgrey" points="342,-1116 188,-1116 188,-1080 342,-1080 342,-1116"/>
<text text-anchor="middle" x="265" y="-1094.3" font-family="Microsoft YaHei" font-size="14.00" fill="white">Leetcode&#45;并查集(28)</text>
</a>
</g>
</g>
<!-- 中等题 -->
<g id="node2" class="node">
<title>中等题</title>
<polygon fill="lightslategray" stroke="lightgrey" points="259,-1044 185,-1044 185,-1008 259,-1008 259,-1044"/>
<text text-anchor="middle" x="222" y="-1022.9" font-family="Microsoft YaHei" font-size="12.00" fill="white">中等题(14)</text>
</g>
<!-- Leetcode&#45;并查集&#45;&gt;中等题 -->
<g id="edge1" class="edge">
<title>Leetcode&#45;并查集&#45;&gt;中等题</title>
<path fill="none" stroke="gray" d="M254.37,-1079.7C249.37,-1071.56 243.31,-1061.69 237.79,-1052.7"/>
<polygon fill="gray" stroke="gray" points="240.72,-1050.79 232.51,-1044.1 234.76,-1054.46 240.72,-1050.79"/>
</g>
<!-- 难题 -->
<g id="node17" class="node">
<title>难题</title>
<polygon fill="lightslategray" stroke="lightgrey" points="351,-1044 289,-1044 289,-1008 351,-1008 351,-1044"/>
<text text-anchor="middle" x="320" y="-1022.9" font-family="Microsoft YaHei" font-size="12.00" fill="white">难题(14)</text>
</g>
<!-- Leetcode&#45;并查集&#45;&gt;难题 -->
<g id="edge16" class="edge">
<title>Leetcode&#45;并查集&#45;&gt;难题</title>
<path fill="none" stroke="gray" d="M278.6,-1079.7C285.12,-1071.39 293.07,-1061.28 300.25,-1052.14"/>
<polygon fill="gray" stroke="gray" points="303.13,-1054.13 306.56,-1044.1 297.63,-1049.81 303.13,-1054.13"/>
</g>
<!-- 130 -->
<g id="node3" class="node">
<title>130</title>
<g id="a_node3"><a xlink:href="https://leetcode-cn.com/problems/surrounded-regions" xlink:title="130. 被围绕的区域" target="_parent">
<polygon fill="none" stroke="orange" points="256,-972 140,-972 140,-936 256,-936 256,-972"/>
<text text-anchor="middle" x="198" y="-950.9" font-family="Microsoft YaHei" font-size="12.00">130. 被围绕的区域</text>
</a>
</g>
</g>
<!-- 中等题&#45;&gt;130 -->
<g id="edge2" class="edge">
<title>中等题&#45;&gt;130</title>
<path fill="none" stroke="gray" d="M216.07,-1007.7C213.39,-999.9 210.17,-990.51 207.2,-981.83"/>
<polygon fill="gray" stroke="gray" points="210.42,-980.43 203.86,-972.1 203.8,-982.7 210.42,-980.43"/>
</g>
<!-- 200 -->
<g id="node4" class="node">
<title>200</title>
<g id="a_node4"><a xlink:href="https://leetcode-cn.com/problems/number-of-islands" xlink:title="200. 岛屿数量" target="_parent">
<polygon fill="none" stroke="orange" points="243,-900 151,-900 151,-864 243,-864 243,-900"/>
<text text-anchor="middle" x="197" y="-878.9" font-family="Microsoft YaHei" font-size="12.00">200. 岛屿数量</text>
</a>
</g>
</g>
<!-- 130&#45;&gt;200 -->
<g id="edge3" class="edge">
<title>130&#45;&gt;200</title>
<path fill="none" stroke="gray" d="M197.75,-935.7C197.64,-927.98 197.51,-918.71 197.39,-910.11"/>
<polygon fill="gray" stroke="gray" points="200.89,-910.05 197.24,-900.1 193.89,-910.15 200.89,-910.05"/>
</g>
<!-- 399 -->
<g id="node5" class="node">
<title>399</title>
<g id="a_node5"><a xlink:href="https://leetcode-cn.com/problems/evaluate-division" xlink:title="399. 除法求值" target="_parent">
<polygon fill="none" stroke="orange" points="240,-828 148,-828 148,-792 240,-792 240,-828"/>
<text text-anchor="middle" x="194" y="-806.9" font-family="Microsoft YaHei" font-size="12.00">399. 除法求值</text>
</a>
</g>
</g>
<!-- 200&#45;&gt;399 -->
<g id="edge4" class="edge">
<title>200&#45;&gt;399</title>
<path fill="none" stroke="gray" d="M196.26,-863.7C195.93,-855.98 195.53,-846.71 195.16,-838.11"/>
<polygon fill="gray" stroke="gray" points="198.66,-837.95 194.73,-828.1 191.66,-838.25 198.66,-837.95"/>
</g>
<!-- 547 -->
<g id="node6" class="node">
<title>547</title>
<g id="a_node6"><a xlink:href="https://leetcode-cn.com/problems/number-of-provinces" xlink:title="547. 省份数量" target="_parent">
<polygon fill="none" stroke="orange" points="234,-756 142,-756 142,-720 234,-720 234,-756"/>
<text text-anchor="middle" x="188" y="-734.9" font-family="Microsoft YaHei" font-size="12.00">547. 省份数量</text>
</a>
</g>
</g>
<!-- 399&#45;&gt;547 -->
<g id="edge5" class="edge">
<title>399&#45;&gt;547</title>
<path fill="none" stroke="gray" d="M192.52,-791.7C191.86,-783.98 191.06,-774.71 190.32,-766.11"/>
<polygon fill="gray" stroke="gray" points="193.81,-765.77 189.47,-756.1 186.83,-766.37 193.81,-765.77"/>
</g>
<!-- 684 -->
<g id="node7" class="node">
<title>684</title>
<g id="a_node7"><a xlink:href="https://leetcode-cn.com/problems/redundant-connection" xlink:title="684. 冗余连接" target="_parent">
<polygon fill="none" stroke="orange" points="227,-684 135,-684 135,-648 227,-648 227,-684"/>
<text text-anchor="middle" x="181" y="-662.9" font-family="Microsoft YaHei" font-size="12.00">684. 冗余连接</text>
</a>
</g>
</g>
<!-- 547&#45;&gt;684 -->
<g id="edge6" class="edge">
<title>547&#45;&gt;684</title>
<path fill="none" stroke="gray" d="M186.27,-719.7C185.5,-711.98 184.57,-702.71 183.71,-694.11"/>
<polygon fill="gray" stroke="gray" points="187.19,-693.71 182.71,-684.1 180.22,-694.4 187.19,-693.71"/>
</g>
<!-- 721 -->
<g id="node8" class="node">
<title>721</title>
<g id="a_node8"><a xlink:href="https://leetcode-cn.com/problems/accounts-merge" xlink:title="721. 账户合并" target="_parent">
<polygon fill="none" stroke="orange" points="214,-612 122,-612 122,-576 214,-576 214,-612"/>
<text text-anchor="middle" x="168" y="-590.9" font-family="Microsoft YaHei" font-size="12.00">721. 账户合并</text>
</a>
</g>
</g>
<!-- 684&#45;&gt;721 -->
<g id="edge7" class="edge">
<title>684&#45;&gt;721</title>
<path fill="none" stroke="gray" d="M177.79,-647.7C176.35,-639.98 174.63,-630.71 173.04,-622.11"/>
<polygon fill="gray" stroke="gray" points="176.44,-621.3 171.18,-612.1 169.56,-622.58 176.44,-621.3"/>
</g>
<!-- 947 -->
<g id="node9" class="node">
<title>947</title>
<g id="a_node9"><a xlink:href="https://leetcode-cn.com/problems/most-stones-removed-with-same-row-or-column" xlink:title="947. 移除最多的同行或同列石头" target="_parent">
<polygon fill="none" stroke="orange" points="235,-540 47,-540 47,-504 235,-504 235,-540"/>
<text text-anchor="middle" x="141" y="-518.9" font-family="Microsoft YaHei" font-size="12.00">947. 移除最多的同行或同列石头</text>
</a>
</g>
</g>
<!-- 721&#45;&gt;947 -->
<g id="edge8" class="edge">
<title>721&#45;&gt;947</title>
<path fill="none" stroke="gray" d="M161.33,-575.7C158.29,-567.81 154.62,-558.3 151.24,-549.55"/>
<polygon fill="gray" stroke="gray" points="154.46,-548.17 147.6,-540.1 147.93,-550.69 154.46,-548.17"/>
</g>
<!-- 959 -->
<g id="node10" class="node">
<title>959</title>
<g id="a_node10"><a xlink:href="https://leetcode-cn.com/problems/regions-cut-by-slashes" xlink:title="959. 由斜杠划分区域" target="_parent">
<polygon fill="none" stroke="orange" points="202,-468 74,-468 74,-432 202,-432 202,-468"/>
<text text-anchor="middle" x="138" y="-446.9" font-family="Microsoft YaHei" font-size="12.00">959. 由斜杠划分区域</text>
</a>
</g>
</g>
<!-- 947&#45;&gt;959 -->
<g id="edge9" class="edge">
<title>947&#45;&gt;959</title>
<path fill="none" stroke="gray" d="M140.26,-503.7C139.93,-495.98 139.53,-486.71 139.16,-478.11"/>
<polygon fill="gray" stroke="gray" points="142.66,-477.95 138.73,-468.1 135.66,-478.25 142.66,-477.95"/>
</g>
<!-- 990 -->
<g id="node11" class="node">
<title>990</title>
<g id="a_node11"><a xlink:href="https://leetcode-cn.com/problems/satisfiability-of-equality-equations" xlink:title="990. 等式方程的可满足性" target="_parent">
<polygon fill="none" stroke="orange" points="208,-396 56,-396 56,-360 208,-360 208,-396"/>
<text text-anchor="middle" x="132" y="-374.9" font-family="Microsoft YaHei" font-size="12.00">990. 等式方程的可满足性</text>
</a>
</g>
</g>
<!-- 959&#45;&gt;990 -->
<g id="edge10" class="edge">
<title>959&#45;&gt;990</title>
<path fill="none" stroke="gray" d="M136.52,-431.7C135.86,-423.98 135.06,-414.71 134.32,-406.11"/>
<polygon fill="gray" stroke="gray" points="137.81,-405.77 133.47,-396.1 130.83,-406.37 137.81,-405.77"/>
</g>
<!-- 1202 -->
<g id="node12" class="node">
<title>1202</title>
<g id="a_node12"><a xlink:href="https://leetcode-cn.com/problems/smallest-string-with-swaps" xlink:title="1202. 交换字符串中的元素" target="_parent">
<polygon fill="none" stroke="orange" points="199,-324 41,-324 41,-288 199,-288 199,-324"/>
<text text-anchor="middle" x="120" y="-302.9" font-family="Microsoft YaHei" font-size="12.00">1202. 交换字符串中的元素</text>
</a>
</g>
</g>
<!-- 990&#45;&gt;1202 -->
<g id="edge11" class="edge">
<title>990&#45;&gt;1202</title>
<path fill="none" stroke="gray" d="M129.03,-359.7C127.71,-351.98 126.12,-342.71 124.65,-334.11"/>
<polygon fill="gray" stroke="gray" points="128.07,-333.37 122.93,-324.1 121.17,-334.55 128.07,-333.37"/>
</g>
<!-- 1319 -->
<g id="node13" class="node">
<title>1319</title>
<g id="a_node13"><a xlink:href="https://leetcode-cn.com/problems/number-of-operations-to-make-network-connected" xlink:title="1319. 连通网络的操作次数" target="_parent">
<polygon fill="none" stroke="orange" points="198,-252 40,-252 40,-216 198,-216 198,-252"/>
<text text-anchor="middle" x="119" y="-230.9" font-family="Microsoft YaHei" font-size="12.00">1319. 连通网络的操作次数</text>
</a>
</g>
</g>
<!-- 1202&#45;&gt;1319 -->
<g id="edge12" class="edge">
<title>1202&#45;&gt;1319</title>
<path fill="none" stroke="gray" d="M119.75,-287.7C119.64,-279.98 119.51,-270.71 119.39,-262.11"/>
<polygon fill="gray" stroke="gray" points="122.89,-262.05 119.24,-252.1 115.89,-262.15 122.89,-262.05"/>
</g>
<!-- 1584 -->
<g id="node14" class="node">
<title>1584</title>
<g id="a_node14"><a xlink:href="https://leetcode-cn.com/problems/min-cost-to-connect-all-points" xlink:title="1584. 连接所有点的最小费用" target="_parent">
<polygon fill="none" stroke="orange" points="203,-180 33,-180 33,-144 203,-144 203,-180"/>
<text text-anchor="middle" x="118" y="-158.9" font-family="Microsoft YaHei" font-size="12.00">1584. 连接所有点的最小费用</text>
</a>
</g>
</g>
<!-- 1319&#45;&gt;1584 -->
<g id="edge13" class="edge">
<title>1319&#45;&gt;1584</title>
<path fill="none" stroke="gray" d="M118.75,-215.7C118.64,-207.98 118.51,-198.71 118.39,-190.11"/>
<polygon fill="gray" stroke="gray" points="121.89,-190.05 118.24,-180.1 114.89,-190.15 121.89,-190.05"/>
</g>
<!-- 1631 -->
<g id="node15" class="node">
<title>1631</title>
<g id="a_node15"><a xlink:href="https://leetcode-cn.com/problems/path-with-minimum-effort" xlink:title="1631. 最小体力消耗路径" target="_parent">
<polygon fill="none" stroke="orange" points="188,-108 42,-108 42,-72 188,-72 188,-108"/>
<text text-anchor="middle" x="115" y="-86.9" font-family="Microsoft YaHei" font-size="12.00">1631. 最小体力消耗路径</text>
</a>
</g>
</g>
<!-- 1584&#45;&gt;1631 -->
<g id="edge14" class="edge">
<title>1584&#45;&gt;1631</title>
<path fill="none" stroke="gray" d="M117.26,-143.7C116.93,-135.98 116.53,-126.71 116.16,-118.11"/>
<polygon fill="gray" stroke="gray" points="119.66,-117.95 115.73,-108.1 112.66,-118.25 119.66,-117.95"/>
</g>
<!-- 1722 -->
<g id="node16" class="node">
<title>1722</title>
<g id="a_node16"><a xlink:href="https://leetcode-cn.com/problems/minimize-hamming-distance-after-swap-operations" xlink:title="1722. 执行交换操作后的最小汉明距离" target="_parent">
<polygon fill="none" stroke="orange" points="218,-36 0,-36 0,0 218,0 218,-36"/>
<text text-anchor="middle" x="109" y="-14.9" font-family="Microsoft YaHei" font-size="12.00">1722. 执行交换操作后的最小汉明距离</text>
</a>
</g>
</g>
<!-- 1631&#45;&gt;1722 -->
<g id="edge15" class="edge">
<title>1631&#45;&gt;1722</title>
<path fill="none" stroke="gray" d="M113.52,-71.7C112.86,-63.98 112.06,-54.71 111.32,-46.11"/>
<polygon fill="gray" stroke="gray" points="114.81,-45.77 110.47,-36.1 107.83,-46.37 114.81,-45.77"/>
</g>
<!-- 128 -->
<g id="node18" class="node">
<title>128</title>
<g id="a_node18"><a xlink:href="https://leetcode-cn.com/problems/longest-consecutive-sequence" xlink:title="128. 最长连续序列" target="_parent">
<polygon fill="none" stroke="red" points="391,-972 275,-972 275,-936 391,-936 391,-972"/>
<text text-anchor="middle" x="333" y="-950.9" font-family="Microsoft YaHei" font-size="12.00">128. 最长连续序列</text>
</a>
</g>
</g>
<!-- 难题&#45;&gt;128 -->
<g id="edge17" class="edge">
<title>难题&#45;&gt;128</title>
<path fill="none" stroke="gray" d="M323.21,-1007.7C324.65,-999.98 326.37,-990.71 327.96,-982.11"/>
<polygon fill="gray" stroke="gray" points="331.44,-982.58 329.82,-972.1 324.56,-981.3 331.44,-982.58"/>
</g>
<!-- 685 -->
<g id="node19" class="node">
<title>685</title>
<g id="a_node19"><a xlink:href="https://leetcode-cn.com/problems/redundant-connection-ii" xlink:title="685. 冗余连接 II" target="_parent">
<polygon fill="none" stroke="red" points="386.5,-900 283.5,-900 283.5,-864 386.5,-864 386.5,-900"/>
<text text-anchor="middle" x="335" y="-878.9" font-family="Microsoft YaHei" font-size="12.00">685. 冗余连接 II</text>
</a>
</g>
</g>
<!-- 128&#45;&gt;685 -->
<g id="edge18" class="edge">
<title>128&#45;&gt;685</title>
<path fill="none" stroke="gray" d="M333.49,-935.7C333.71,-927.98 333.98,-918.71 334.23,-910.11"/>
<polygon fill="gray" stroke="gray" points="337.72,-910.2 334.51,-900.1 330.73,-910 337.72,-910.2"/>
</g>
<!-- 765 -->
<g id="node20" class="node">
<title>765</title>
<g id="a_node20"><a xlink:href="https://leetcode-cn.com/problems/couples-holding-hands" xlink:title="765. 情侣牵手" target="_parent">
<polygon fill="none" stroke="red" points="382,-828 290,-828 290,-792 382,-792 382,-828"/>
<text text-anchor="middle" x="336" y="-806.9" font-family="Microsoft YaHei" font-size="12.00">765. 情侣牵手</text>
</a>
</g>
</g>
<!-- 685&#45;&gt;765 -->
<g id="edge19" class="edge">
<title>685&#45;&gt;765</title>
<path fill="none" stroke="gray" d="M335.25,-863.7C335.36,-855.98 335.49,-846.71 335.61,-838.11"/>
<polygon fill="gray" stroke="gray" points="339.11,-838.15 335.76,-828.1 332.11,-838.05 339.11,-838.15"/>
</g>
<!-- 778 -->
<g id="node21" class="node">
<title>778</title>
<g id="a_node21"><a xlink:href="https://leetcode-cn.com/problems/swim-in-rising-water" xlink:title="778. 水位上升的泳池中游泳" target="_parent">
<polygon fill="none" stroke="red" points="419,-756 255,-756 255,-720 419,-720 419,-756"/>
<text text-anchor="middle" x="337" y="-734.9" font-family="Microsoft YaHei" font-size="12.00">778. 水位上升的泳池中游泳</text>
</a>
</g>
</g>
<!-- 765&#45;&gt;778 -->
<g id="edge20" class="edge">
<title>765&#45;&gt;778</title>
<path fill="none" stroke="gray" d="M336.25,-791.7C336.36,-783.98 336.49,-774.71 336.61,-766.11"/>
<polygon fill="gray" stroke="gray" points="340.11,-766.15 336.76,-756.1 333.11,-766.05 340.11,-766.15"/>
</g>
<!-- 803 -->
<g id="node22" class="node">
<title>803</title>
<g id="a_node22"><a xlink:href="https://leetcode-cn.com/problems/bricks-falling-when-hit" xlink:title="803. 打砖块" target="_parent">
<polygon fill="none" stroke="red" points="378,-684 298,-684 298,-648 378,-648 378,-684"/>
<text text-anchor="middle" x="338" y="-662.9" font-family="Microsoft YaHei" font-size="12.00">803. 打砖块</text>
</a>
</g>
</g>
<!-- 778&#45;&gt;803 -->
<g id="edge21" class="edge">
<title>778&#45;&gt;803</title>
<path fill="none" stroke="gray" d="M337.25,-719.7C337.36,-711.98 337.49,-702.71 337.61,-694.11"/>
<polygon fill="gray" stroke="gray" points="341.11,-694.15 337.76,-684.1 334.11,-694.05 341.11,-694.15"/>
</g>
<!-- 839 -->
<g id="node23" class="node">
<title>839</title>
<g id="a_node23"><a xlink:href="https://leetcode-cn.com/problems/similar-string-groups" xlink:title="839. 相似字符串组" target="_parent">
<polygon fill="none" stroke="red" points="398,-612 282,-612 282,-576 398,-576 398,-612"/>
<text text-anchor="middle" x="340" y="-590.9" font-family="Microsoft YaHei" font-size="12.00">839. 相似字符串组</text>
</a>
</g>
</g>
<!-- 803&#45;&gt;839 -->
<g id="edge22" class="edge">
<title>803&#45;&gt;839</title>
<path fill="none" stroke="gray" d="M338.49,-647.7C338.71,-639.98 338.98,-630.71 339.23,-622.11"/>
<polygon fill="gray" stroke="gray" points="342.72,-622.2 339.51,-612.1 335.73,-622 342.72,-622.2"/>
</g>
<!-- 924 -->
<g id="node24" class="node">
<title>924</title>
<g id="a_node24"><a xlink:href="https://leetcode-cn.com/problems/minimize-malware-spread" xlink:title="924. 尽量减少恶意软件的传播" target="_parent">
<polygon fill="none" stroke="red" points="430,-540 254,-540 254,-504 430,-504 430,-540"/>
<text text-anchor="middle" x="342" y="-518.9" font-family="Microsoft YaHei" font-size="12.00">924. 尽量减少恶意软件的传播</text>
</a>
</g>
</g>
<!-- 839&#45;&gt;924 -->
<g id="edge23" class="edge">
<title>839&#45;&gt;924</title>
<path fill="none" stroke="gray" d="M340.49,-575.7C340.71,-567.98 340.98,-558.71 341.23,-550.11"/>
<polygon fill="gray" stroke="gray" points="344.72,-550.2 341.51,-540.1 337.73,-550 344.72,-550.2"/>
</g>
<!-- 928 -->
<g id="node25" class="node">
<title>928</title>
<g id="a_node25"><a xlink:href="https://leetcode-cn.com/problems/minimize-malware-spread-ii" xlink:title="928. 尽量减少恶意软件的传播 II" target="_parent">
<polygon fill="none" stroke="red" points="435.5,-468 248.5,-468 248.5,-432 435.5,-432 435.5,-468"/>
<text text-anchor="middle" x="342" y="-446.9" font-family="Microsoft YaHei" font-size="12.00">928. 尽量减少恶意软件的传播 II</text>
</a>
</g>
</g>
<!-- 924&#45;&gt;928 -->
<g id="edge24" class="edge">
<title>924&#45;&gt;928</title>
<path fill="none" stroke="gray" d="M342,-503.7C342,-495.98 342,-486.71 342,-478.11"/>
<polygon fill="gray" stroke="gray" points="345.5,-478.1 342,-468.1 338.5,-478.1 345.5,-478.1"/>
</g>
<!-- 952 -->
<g id="node26" class="node">
<title>952</title>
<g id="a_node26"><a xlink:href="https://leetcode-cn.com/problems/largest-component-size-by-common-factor" xlink:title="952. 按公因数计算最大组件大小" target="_parent">
<polygon fill="none" stroke="red" points="437,-396 249,-396 249,-360 437,-360 437,-396"/>
<text text-anchor="middle" x="343" y="-374.9" font-family="Microsoft YaHei" font-size="12.00">952. 按公因数计算最大组件大小</text>
</a>
</g>
</g>
<!-- 928&#45;&gt;952 -->
<g id="edge25" class="edge">
<title>928&#45;&gt;952</title>
<path fill="none" stroke="gray" d="M342.25,-431.7C342.36,-423.98 342.49,-414.71 342.61,-406.11"/>
<polygon fill="gray" stroke="gray" points="346.11,-406.15 342.76,-396.1 339.11,-406.05 346.11,-406.15"/>
</g>
<!-- 1489 -->
<g id="node27" class="node">
<title>1489</title>
<g id="a_node27"><a xlink:href="https://leetcode-cn.com/problems/find-critical-and-pseudo-critical-edges-in-minimum-spanning-tree" xlink:title="1489. 找到最小生成树里的关键边和伪关键边" target="_parent">
<polygon fill="none" stroke="red" points="471,-324 217,-324 217,-288 471,-288 471,-324"/>
<text text-anchor="middle" x="344" y="-302.9" font-family="Microsoft YaHei" font-size="12.00">1489. 找到最小生成树里的关键边和伪关键边</text>
</a>
</g>
</g>
<!-- 952&#45;&gt;1489 -->
<g id="edge26" class="edge">
<title>952&#45;&gt;1489</title>
<path fill="none" stroke="gray" d="M343.25,-359.7C343.36,-351.98 343.49,-342.71 343.61,-334.11"/>
<polygon fill="gray" stroke="gray" points="347.11,-334.15 343.76,-324.1 340.11,-334.05 347.11,-334.15"/>
</g>
<!-- 1579 -->
<g id="node28" class="node">
<title>1579</title>
<g id="a_node28"><a xlink:href="https://leetcode-cn.com/problems/remove-max-number-of-edges-to-keep-graph-fully-traversable" xlink:title="1579. 保证图可完全遍历" target="_parent">
<polygon fill="none" stroke="red" points="417,-252 271,-252 271,-216 417,-216 417,-252"/>
<text text-anchor="middle" x="344" y="-230.9" font-family="Microsoft YaHei" font-size="12.00">1579. 保证图可完全遍历</text>
</a>
</g>
</g>
<!-- 1489&#45;&gt;1579 -->
<g id="edge27" class="edge">
<title>1489&#45;&gt;1579</title>
<path fill="none" stroke="gray" d="M344,-287.7C344,-279.98 344,-270.71 344,-262.11"/>
<polygon fill="gray" stroke="gray" points="347.5,-262.1 344,-252.1 340.5,-262.1 347.5,-262.1"/>
</g>
<!-- 1627 -->
<g id="node29" class="node">
<title>1627</title>
<g id="a_node29"><a xlink:href="https://leetcode-cn.com/problems/graph-connectivity-with-threshold" xlink:title="1627. 带阈值的图连通性" target="_parent">
<polygon fill="none" stroke="red" points="417,-180 271,-180 271,-144 417,-144 417,-180"/>
<text text-anchor="middle" x="344" y="-158.9" font-family="Microsoft YaHei" font-size="12.00">1627. 带阈值的图连通性</text>
</a>
</g>
</g>
<!-- 1579&#45;&gt;1627 -->
<g id="edge28" class="edge">
<title>1579&#45;&gt;1627</title>
<path fill="none" stroke="gray" d="M344,-215.7C344,-207.98 344,-198.71 344,-190.11"/>
<polygon fill="gray" stroke="gray" points="347.5,-190.1 344,-180.1 340.5,-190.1 347.5,-190.1"/>
</g>
<!-- 1632 -->
<g id="node30" class="node">
<title>1632</title>
<g id="a_node30"><a xlink:href="https://leetcode-cn.com/problems/rank-transform-of-a-matrix" xlink:title="1632. 矩阵转换后的秩" target="_parent">
<polygon fill="none" stroke="red" points="411,-108 277,-108 277,-72 411,-72 411,-108"/>
<text text-anchor="middle" x="344" y="-86.9" font-family="Microsoft YaHei" font-size="12.00">1632. 矩阵转换后的秩</text>
</a>
</g>
</g>
<!-- 1627&#45;&gt;1632 -->
<g id="edge29" class="edge">
<title>1627&#45;&gt;1632</title>
<path fill="none" stroke="gray" d="M344,-143.7C344,-135.98 344,-126.71 344,-118.11"/>
<polygon fill="gray" stroke="gray" points="347.5,-118.1 344,-108.1 340.5,-118.1 347.5,-118.1"/>
</g>
<!-- 1697 -->
<g id="node31" class="node">
<title>1697</title>
<g id="a_node31"><a xlink:href="https://leetcode-cn.com/problems/checking-existence-of-edge-length-limited-paths" xlink:title="1697. 检查边长度限制的路径是否存在" target="_parent">
<polygon fill="none" stroke="red" points="454,-36 236,-36 236,0 454,0 454,-36"/>
<text text-anchor="middle" x="345" y="-14.9" font-family="Microsoft YaHei" font-size="12.00">1697. 检查边长度限制的路径是否存在</text>
</a>
</g>
</g>
<!-- 1632&#45;&gt;1697 -->
<g id="edge30" class="edge">
<title>1632&#45;&gt;1697</title>
<path fill="none" stroke="gray" d="M344.25,-71.7C344.36,-63.98 344.49,-54.71 344.61,-46.11"/>
<polygon fill="gray" stroke="gray" points="348.11,-46.15 344.76,-36.1 341.11,-46.05 348.11,-46.15"/>
</g>
</g>
</svg>
