<?xml version="1.0" encoding="utf-8"?>
<!DOCTYPE svg PUBLIC "-//W3C//DTD SVG 1.1//EN" "http://www.w3.org/Graphics/SVG/1.1/DTD/svg11.dtd">
<!-- Generated by graphviz version 2.46.1 (20210213.1702)
 -->
<!-- Title: stones Pages: 1 -->
<svg height="598pt" viewBox="0.00 0.00 935.0 598.0" width="935pt" xmlns="http://www.w3.org/2000/svg" xmlns:xlink="http://www.w3.org/1999/xlink">
 <g class="graph" id="graph0" transform="scale(1 1) rotate(0) translate(4 544)">
  <title>
   stones
  </title>
  <polygon fill="white" points="-4,4 -4,-544 881,-544 881,4 -4,4" stroke="transparent"/>
  <!-- Leetcode&#45;链表 -->
  <g class="node" id="node1">
   <title>
    Leetcode-链表
   </title>
   <g id="a_node1">
    <a target="_parent" xlink:href="https://leetcode-cn.com/tag/linked-list" xlink:title="Leetcode-链表(24)">
     <polygon fill="orangered" points="393.5,-540 254.5,-540 254.5,-504 393.5,-504 393.5,-540" stroke="lightgrey"/>
     <text fill="white" font-family="Microsoft YaHei" font-size="14.00" text-anchor="middle" x="324" y="-518.3">
      Leetcode-链表(24)
     </text>
    </a>
   </g>
  </g>
  <!-- 链表第一题 -->
  <g class="node" id="node2">
   <title>
    链表第一题
   </title>
   <polygon fill="lightslategray" points="96.5,-468 5.5,-468 5.5,-432 96.5,-432 96.5,-468" stroke="lightgrey"/>
   <text fill="white" font-family="Microsoft YaHei" font-size="12.00" text-anchor="middle" x="51" y="-446.9">
    链表第一题(1)
   </text>
  </g>
  <!-- Leetcode&#45;链表&#45;&gt;链表第一题 -->
  <g class="edge" id="edge1">
   <title>
    Leetcode-链表-&gt;链表第一题
   </title>
   <path d="M254.22,-504.8C211.81,-494.72 156.63,-481.21 108,-468 107.54,-467.87 107.08,-467.75 106.61,-467.62" fill="none" stroke="lightgrey"/>
   <polygon fill="lightgrey" points="107.25,-464.17 96.68,-464.84 105.36,-470.91 107.25,-464.17" stroke="lightgrey"/>
  </g>
  <!-- 反转链表 -->
  <g class="node" id="node4">
   <title>
    反转链表
   </title>
   <polygon fill="lightslategray" points="196.5,-468 117.5,-468 117.5,-432 196.5,-432 196.5,-468" stroke="lightgrey"/>
   <text fill="white" font-family="Microsoft YaHei" font-size="12.00" text-anchor="middle" x="157" y="-446.9">
    反转链表(3)
   </text>
  </g>
  <!-- Leetcode&#45;链表&#45;&gt;反转链表 -->
  <g class="edge" id="edge3">
   <title>
    Leetcode-链表-&gt;反转链表
   </title>
   <path d="M283.15,-503.88C259.87,-494.12 230.56,-481.83 206.05,-471.56" fill="none" stroke="lightgrey"/>
   <polygon fill="lightgrey" points="207.14,-468.22 196.57,-467.59 204.44,-474.68 207.14,-468.22" stroke="lightgrey"/>
  </g>
  <!-- 构建新链表 -->
  <g class="node" id="node8">
   <title>
    构建新链表
   </title>
   <polygon fill="lightslategray" points="309.5,-468 218.5,-468 218.5,-432 309.5,-432 309.5,-468" stroke="lightgrey"/>
   <text fill="white" font-family="Microsoft YaHei" font-size="12.00" text-anchor="middle" x="264" y="-446.9">
    构建新链表(4)
   </text>
  </g>
  <!-- Leetcode&#45;链表&#45;&gt;构建新链表 -->
  <g class="edge" id="edge7">
   <title>
    Leetcode-链表-&gt;构建新链表
   </title>
   <path d="M309.17,-503.7C301.98,-495.3 293.2,-485.07 285.31,-475.86" fill="none" stroke="lightgrey"/>
   <polygon fill="lightgrey" points="287.83,-473.42 278.66,-468.1 282.51,-477.97 287.83,-473.42" stroke="lightgrey"/>
  </g>
  <!-- 链表和其他算法 -->
  <g class="node" id="node13">
   <title>
    链表和其他算法
   </title>
   <polygon fill="lightslategray" points="444.5,-468 329.5,-468 329.5,-432 444.5,-432 444.5,-468" stroke="lightgrey"/>
   <text fill="white" font-family="Microsoft YaHei" font-size="12.00" text-anchor="middle" x="387" y="-446.9">
    链表和其他算法(5)
   </text>
  </g>
  <!-- Leetcode&#45;链表&#45;&gt;链表和其他算法 -->
  <g class="edge" id="edge12">
   <title>
    Leetcode-链表-&gt;链表和其他算法
   </title>
   <path d="M339.57,-503.7C347.2,-495.22 356.52,-484.86 364.88,-475.58" fill="none" stroke="lightgrey"/>
   <polygon fill="lightgrey" points="367.52,-477.88 371.61,-468.1 362.31,-473.2 367.52,-477.88" stroke="lightgrey"/>
  </g>
  <!-- 快慢指针 -->
  <g class="node" id="node19">
   <title>
    快慢指针
   </title>
   <polygon fill="lightslategray" points="562.5,-468 483.5,-468 483.5,-432 562.5,-432 562.5,-468" stroke="lightgrey"/>
   <text fill="white" font-family="Microsoft YaHei" font-size="12.00" text-anchor="middle" x="523" y="-446.9">
    快慢指针(6)
   </text>
  </g>
  <!-- Leetcode&#45;链表&#45;&gt;快慢指针 -->
  <g class="edge" id="edge18">
   <title>
    Leetcode-链表-&gt;快慢指针
   </title>
   <path d="M372.43,-503.97C403.15,-493.16 442.8,-479.21 473.7,-468.34" fill="none" stroke="lightgrey"/>
   <polygon fill="lightgrey" points="475.13,-471.55 483.4,-464.93 472.8,-464.95 475.13,-471.55" stroke="lightgrey"/>
  </g>
  <!-- 删除链表 -->
  <g class="node" id="node26">
   <title>
    删除链表
   </title>
   <polygon fill="lightslategray" points="697.5,-468 618.5,-468 618.5,-432 697.5,-432 697.5,-468" stroke="lightgrey"/>
   <text fill="white" font-family="Microsoft YaHei" font-size="12.00" text-anchor="middle" x="658" y="-446.9">
    删除链表(5)
   </text>
  </g>
  <!-- Leetcode&#45;链表&#45;&gt;删除链表 -->
  <g class="edge" id="edge25">
   <title>
    Leetcode-链表-&gt;删除链表
   </title>
   <path d="M393.61,-506.41C457.82,-492.95 551.55,-473.31 608.44,-461.39" fill="none" stroke="lightgrey"/>
   <polygon fill="lightgrey" points="609.21,-464.8 618.28,-459.32 607.77,-457.95 609.21,-464.8" stroke="lightgrey"/>
  </g>
  <!-- 707 -->
  <g class="node" id="node3">
   <title>
    707
   </title>
   <g id="a_node3">
    <a target="_parent" xlink:href="https://leetcode-cn.com/problems/design-linked-list" xlink:title="707. 设计链表">
     <polygon fill="none" points="92,-396 0,-396 0,-360 92,-360 92,-396" stroke="orange"/>
     <text font-family="Microsoft YaHei" font-size="12.00" text-anchor="middle" x="46" y="-374.9">
      707. 设计链表
     </text>
    </a>
   </g>
   <g transform="translate(84.0, -402.0) scale(0.3)">
    <circle cx="24" cy="24" fill="#4caf50" r="21"/>
    <polygon fill="#ccff90" points="34.6,14.6 21,28.2 15.4,22.6 12.6,25.4 21,33.8 37.4,17.4"/>
   </g>
  </g>
  <!-- 链表第一题&#45;&gt;707 -->
  <g class="edge" id="edge2">
   <title>
    链表第一题-&gt;707
   </title>
   <path d="M49.76,-431.7C49.21,-423.98 48.55,-414.71 47.94,-406.11" fill="none" stroke="lightgrey"/>
   <polygon fill="lightgrey" points="51.43,-405.83 47.22,-396.1 44.44,-406.33 51.43,-405.83" stroke="lightgrey"/>
  </g>
  <!-- 206 -->
  <g class="node" id="node5">
   <title>
    206
   </title>
   <g id="a_node5">
    <a target="_parent" xlink:href="https://leetcode-cn.com/problems/reverse-linked-list" xlink:title="206. 反转链表">
     <polygon fill="none" points="202,-396 110,-396 110,-360 202,-360 202,-396" stroke="greenyellow"/>
     <text font-family="Microsoft YaHei" font-size="12.00" text-anchor="middle" x="156" y="-374.9">
      206. 反转链表
     </text>
    </a>
   </g>
   <g transform="translate(194.0, -402.0) scale(0.3)">
    <circle cx="24" cy="24" fill="#4caf50" r="21"/>
    <polygon fill="#ccff90" points="34.6,14.6 21,28.2 15.4,22.6 12.6,25.4 21,33.8 37.4,17.4"/>
   </g>
  </g>
  <!-- 反转链表&#45;&gt;206 -->
  <g class="edge" id="edge4">
   <title>
    反转链表-&gt;206
   </title>
   <path d="M156.75,-431.7C156.64,-423.98 156.51,-414.71 156.39,-406.11" fill="none" stroke="lightgrey"/>
   <polygon fill="lightgrey" points="159.89,-406.05 156.24,-396.1 152.89,-406.15 159.89,-406.05" stroke="lightgrey"/>
  </g>
  <!-- 24 -->
  <g class="node" id="node6">
   <title>
    24
   </title>
   <g id="a_node6">
    <a target="_parent" xlink:href="https://leetcode-cn.com/problems/swap-nodes-in-pairs" xlink:title="24. 两两交换链表中的节点">
     <polygon fill="none" points="158.5,-324 1.5,-324 1.5,-288 158.5,-288 158.5,-324" stroke="orange"/>
     <text font-family="Microsoft YaHei" font-size="12.00" text-anchor="middle" x="80" y="-302.9">
      24. 两两交换链表中的节点
     </text>
    </a>
   </g>
   <g transform="translate(150.5, -330.0) scale(0.3)">
    <circle cx="24" cy="24" fill="#4caf50" r="21"/>
    <polygon fill="#ccff90" points="34.6,14.6 21,28.2 15.4,22.6 12.6,25.4 21,33.8 37.4,17.4"/>
   </g>
  </g>
  <!-- 206&#45;&gt;24 -->
  <g class="edge" id="edge5">
   <title>
    206-&gt;24
   </title>
   <path d="M137.21,-359.7C127.83,-351.05 116.32,-340.45 106.09,-331.03" fill="none" stroke="lightgrey"/>
   <polygon fill="lightgrey" points="108.3,-328.3 98.57,-324.1 103.55,-333.45 108.3,-328.3" stroke="lightgrey"/>
  </g>
  <!-- 92 -->
  <g class="node" id="node7">
   <title>
    92
   </title>
   <g id="a_node7">
    <a target="_parent" xlink:href="https://leetcode-cn.com/problems/reverse-linked-list-ii" xlink:title="92. 反转链表 II">
     <polygon fill="none" points="128,-252 32,-252 32,-216 128,-216 128,-252" stroke="orange"/>
     <text font-family="Microsoft YaHei" font-size="12.00" text-anchor="middle" x="80" y="-230.9">
      92. 反转链表 II
     </text>
    </a>
   </g>
   <g transform="translate(120.0, -258.0) scale(0.3)">
    <circle cx="24" cy="24" fill="#4caf50" r="21"/>
    <polygon fill="#ccff90" points="34.6,14.6 21,28.2 15.4,22.6 12.6,25.4 21,33.8 37.4,17.4"/>
   </g>
   <g transform="translate(119.0, -225.0)">
    <symbol id="flask" viewBox="0 0 448 512">
     <path d="M437.2 403.5L320 215V64h8c13.3 0 24-10.7 24-24V24c0-13.3-10.7-24-24-24H120c-13.3 0-24 10.7-24 24v16c0 13.3 10.7 24 24 24h8v151L10.8 403.5C-18.5 450.6 15.3 512 70.9 512h306.2c55.7 0 89.4-61.5 60.1-108.5zM137.9 320l48.2-77.6c3.7-5.2 5.8-11.6 5.8-18.4V64h64v160c0 6.9 2.2 13.2 5.8 18.4l48.2 77.6h-172z" fill="#1389fd"/>
    </symbol>
    <a href="https://github.com/acm-clan/algorithm-stone/blob/main/user/leetcode/92.反转链表 II.md">
     <use height="18" href="#flask" width="18"/>
    </a>
   </g>
  </g>
  <!-- 24&#45;&gt;92 -->
  <g class="edge" id="edge6">
   <title>
    24-&gt;92
   </title>
   <path d="M80,-287.7C80,-279.98 80,-270.71 80,-262.11" fill="none" stroke="lightgrey"/>
   <polygon fill="lightgrey" points="83.5,-262.1 80,-252.1 76.5,-262.1 83.5,-262.1" stroke="lightgrey"/>
  </g>
  <!-- 2 -->
  <g class="node" id="node9">
   <title>
    2
   </title>
   <g id="a_node9">
    <a target="_parent" xlink:href="https://leetcode-cn.com/problems/add-two-numbers" xlink:title="2. 两数相加">
     <polygon fill="none" points="298,-396 220,-396 220,-360 298,-360 298,-396" stroke="orange"/>
     <text font-family="Microsoft YaHei" font-size="12.00" text-anchor="middle" x="259" y="-374.9">
      2. 两数相加
     </text>
    </a>
   </g>
  </g>
  <!-- 构建新链表&#45;&gt;2 -->
  <g class="edge" id="edge8">
   <title>
    构建新链表-&gt;2
   </title>
   <path d="M262.76,-431.7C262.21,-423.98 261.55,-414.71 260.94,-406.11" fill="none" stroke="lightgrey"/>
   <polygon fill="lightgrey" points="264.43,-405.83 260.22,-396.1 257.44,-406.33 264.43,-405.83" stroke="lightgrey"/>
  </g>
  <!-- 445 -->
  <g class="node" id="node10">
   <title>
    445
   </title>
   <g id="a_node10">
    <a target="_parent" xlink:href="https://leetcode-cn.com/problems/add-two-numbers-ii" xlink:title="445. 两数相加 II">
     <polygon fill="none" points="279.5,-324 176.5,-324 176.5,-288 279.5,-288 279.5,-324" stroke="orange"/>
     <text font-family="Microsoft YaHei" font-size="12.00" text-anchor="middle" x="228" y="-302.9">
      445. 两数相加 II
     </text>
    </a>
   </g>
   <g transform="translate(271.5, -330.0) scale(0.3)">
    <circle cx="24" cy="24" fill="#4caf50" r="21"/>
    <polygon fill="#ccff90" points="34.6,14.6 21,28.2 15.4,22.6 12.6,25.4 21,33.8 37.4,17.4"/>
   </g>
  </g>
  <!-- 2&#45;&gt;445 -->
  <g class="edge" id="edge9">
   <title>
    2-&gt;445
   </title>
   <path d="M251.34,-359.7C247.81,-351.73 243.54,-342.1 239.63,-333.26" fill="none" stroke="lightgrey"/>
   <polygon fill="lightgrey" points="242.82,-331.83 235.57,-324.1 236.42,-334.67 242.82,-331.83" stroke="lightgrey"/>
  </g>
  <!-- 86 -->
  <g class="node" id="node11">
   <title>
    86
   </title>
   <g id="a_node11">
    <a target="_parent" xlink:href="https://leetcode-cn.com/problems/partition-list" xlink:title="86. 分隔链表">
     <polygon fill="none" points="270.5,-252 185.5,-252 185.5,-216 270.5,-216 270.5,-252" stroke="orange"/>
     <text font-family="Microsoft YaHei" font-size="12.00" text-anchor="middle" x="228" y="-230.9">
      86. 分隔链表
     </text>
    </a>
   </g>
   <g transform="translate(262.5, -258.0) scale(0.3)">
    <circle cx="24" cy="24" fill="#4caf50" r="21"/>
    <polygon fill="#ccff90" points="34.6,14.6 21,28.2 15.4,22.6 12.6,25.4 21,33.8 37.4,17.4"/>
   </g>
  </g>
  <!-- 445&#45;&gt;86 -->
  <g class="edge" id="edge10">
   <title>
    445-&gt;86
   </title>
   <path d="M228,-287.7C228,-279.98 228,-270.71 228,-262.11" fill="none" stroke="lightgrey"/>
   <polygon fill="lightgrey" points="231.5,-262.1 228,-252.1 224.5,-262.1 231.5,-262.1" stroke="lightgrey"/>
  </g>
  <!-- 1669 -->
  <g class="node" id="node12">
   <title>
    1669
   </title>
   <g id="a_node12">
    <a target="_parent" xlink:href="https://leetcode-cn.com/problems/merge-in-between-linked-lists" xlink:title="1669. 合并两个链表">
     <polygon fill="none" points="289,-180 167,-180 167,-144 289,-144 289,-180" stroke="orange"/>
     <text font-family="Microsoft YaHei" font-size="12.00" text-anchor="middle" x="228" y="-158.9">
      1669. 合并两个链表
     </text>
    </a>
   </g>
   <g transform="translate(281.0, -186.0) scale(0.3)">
    <circle cx="24" cy="24" fill="#4caf50" r="21"/>
    <polygon fill="#ccff90" points="34.6,14.6 21,28.2 15.4,22.6 12.6,25.4 21,33.8 37.4,17.4"/>
   </g>
  </g>
  <!-- 86&#45;&gt;1669 -->
  <g class="edge" id="edge11">
   <title>
    86-&gt;1669
   </title>
   <path d="M228,-215.7C228,-207.98 228,-198.71 228,-190.11" fill="none" stroke="lightgrey"/>
   <polygon fill="lightgrey" points="231.5,-190.1 228,-180.1 224.5,-190.1 231.5,-190.1" stroke="lightgrey"/>
  </g>
  <!-- 1290 -->
  <g class="node" id="node14">
   <title>
    1290
   </title>
   <g id="a_node14">
    <a target="_parent" xlink:href="https://leetcode-cn.com/problems/convert-binary-number-in-a-linked-list-to-integer" xlink:title="1290. 二进制链表转整数">
     <polygon fill="none" points="462,-396 316,-396 316,-360 462,-360 462,-396" stroke="greenyellow"/>
     <text font-family="Microsoft YaHei" font-size="12.00" text-anchor="middle" x="389" y="-374.9">
      1290. 二进制链表转整数
     </text>
    </a>
   </g>
   <g transform="translate(454.0, -402.0) scale(0.3)">
    <circle cx="24" cy="24" fill="#4caf50" r="21"/>
    <polygon fill="#ccff90" points="34.6,14.6 21,28.2 15.4,22.6 12.6,25.4 21,33.8 37.4,17.4"/>
   </g>
  </g>
  <!-- 链表和其他算法&#45;&gt;1290 -->
  <g class="edge" id="edge13">
   <title>
    链表和其他算法-&gt;1290
   </title>
   <path d="M387.49,-431.7C387.71,-423.98 387.98,-414.71 388.23,-406.11" fill="none" stroke="lightgrey"/>
   <polygon fill="lightgrey" points="391.72,-406.2 388.51,-396.1 384.73,-406 391.72,-406.2" stroke="lightgrey"/>
  </g>
  <!-- 1019 -->
  <g class="node" id="node15">
   <title>
    1019
   </title>
   <g id="a_node15">
    <a target="_parent" xlink:href="https://leetcode-cn.com/problems/next-greater-node-in-linked-list" xlink:title="1019. 链表中的下一个更大节点">
     <polygon fill="none" points="480,-324 298,-324 298,-288 480,-288 480,-324" stroke="orange"/>
     <text font-family="Microsoft YaHei" font-size="12.00" text-anchor="middle" x="389" y="-302.9">
      1019. 链表中的下一个更大节点
     </text>
    </a>
   </g>
   <g transform="translate(472.0, -330.0) scale(0.3)">
    <circle cx="24" cy="24" fill="#4caf50" r="21"/>
    <polygon fill="#ccff90" points="34.6,14.6 21,28.2 15.4,22.6 12.6,25.4 21,33.8 37.4,17.4"/>
   </g>
  </g>
  <!-- 1290&#45;&gt;1019 -->
  <g class="edge" id="edge14">
   <title>
    1290-&gt;1019
   </title>
   <path d="M389,-359.7C389,-351.98 389,-342.71 389,-334.11" fill="none" stroke="lightgrey"/>
   <polygon fill="lightgrey" points="392.5,-334.1 389,-324.1 385.5,-334.1 392.5,-334.1" stroke="lightgrey"/>
  </g>
  <!-- 147 -->
  <g class="node" id="node16">
   <title>
    147
   </title>
   <g id="a_node16">
    <a target="_parent" xlink:href="https://leetcode-cn.com/problems/insertion-sort-list" xlink:title="147. 对链表进行插入排序">
     <polygon fill="none" points="460,-252 308,-252 308,-216 460,-216 460,-252" stroke="orange"/>
     <text font-family="Microsoft YaHei" font-size="12.00" text-anchor="middle" x="384" y="-230.9">
      147. 对链表进行插入排序
     </text>
    </a>
   </g>
   <g transform="translate(452.0, -258.0) scale(0.3)">
    <circle cx="24" cy="24" fill="#4caf50" r="21"/>
    <polygon fill="#ccff90" points="34.6,14.6 21,28.2 15.4,22.6 12.6,25.4 21,33.8 37.4,17.4"/>
   </g>
  </g>
  <!-- 1019&#45;&gt;147 -->
  <g class="edge" id="edge15">
   <title>
    1019-&gt;147
   </title>
   <path d="M387.76,-287.7C387.21,-279.98 386.55,-270.71 385.94,-262.11" fill="none" stroke="lightgrey"/>
   <polygon fill="lightgrey" points="389.43,-261.83 385.22,-252.1 382.44,-262.33 389.43,-261.83" stroke="lightgrey"/>
  </g>
  <!-- 148 -->
  <g class="node" id="node17">
   <title>
    148
   </title>
   <g id="a_node17">
    <a target="_parent" xlink:href="https://leetcode-cn.com/problems/sort-list" xlink:title="148. 排序链表">
     <polygon fill="none" points="425,-180 333,-180 333,-144 425,-144 425,-180" stroke="orange"/>
     <text font-family="Microsoft YaHei" font-size="12.00" text-anchor="middle" x="379" y="-158.9">
      148. 排序链表
     </text>
    </a>
   </g>
   <g transform="translate(417.0, -186.0) scale(0.3)">
    <circle cx="24" cy="24" fill="#4caf50" r="21"/>
    <polygon fill="#ccff90" points="34.6,14.6 21,28.2 15.4,22.6 12.6,25.4 21,33.8 37.4,17.4"/>
   </g>
  </g>
  <!-- 147&#45;&gt;148 -->
  <g class="edge" id="edge16">
   <title>
    147-&gt;148
   </title>
   <path d="M382.76,-215.7C382.21,-207.98 381.55,-198.71 380.94,-190.11" fill="none" stroke="lightgrey"/>
   <polygon fill="lightgrey" points="384.43,-189.83 380.22,-180.1 377.44,-190.33 384.43,-189.83" stroke="lightgrey"/>
  </g>
  <!-- 138 -->
  <g class="node" id="node18">
   <title>
    138
   </title>
   <g id="a_node18">
    <a target="_parent" xlink:href="https://leetcode-cn.com/problems/copy-list-with-random-pointer" xlink:title="138. 复制带随机指针的链表">
     <polygon fill="none" points="453,-108 289,-108 289,-72 453,-72 453,-108" stroke="orange"/>
     <text font-family="Microsoft YaHei" font-size="12.00" text-anchor="middle" x="371" y="-86.9">
      138. 复制带随机指针的链表
     </text>
    </a>
   </g>
   <g transform="translate(445.0, -114.0) scale(0.3)">
    <circle cx="24" cy="24" fill="#4caf50" r="21"/>
    <polygon fill="#ccff90" points="34.6,14.6 21,28.2 15.4,22.6 12.6,25.4 21,33.8 37.4,17.4"/>
   </g>
  </g>
  <!-- 148&#45;&gt;138 -->
  <g class="edge" id="edge17">
   <title>
    148-&gt;138
   </title>
   <path d="M377.02,-143.7C376.14,-135.98 375.08,-126.71 374.1,-118.11" fill="none" stroke="lightgrey"/>
   <polygon fill="lightgrey" points="377.57,-117.64 372.95,-108.1 370.61,-118.44 377.57,-117.64" stroke="lightgrey"/>
  </g>
  <!-- 876 -->
  <g class="node" id="node20">
   <title>
    876
   </title>
   <g id="a_node20">
    <a target="_parent" xlink:href="https://leetcode-cn.com/problems/middle-of-the-linked-list" xlink:title="876. 链表的中间结点">
     <polygon fill="none" points="608,-396 480,-396 480,-360 608,-360 608,-396" stroke="greenyellow"/>
     <text font-family="Microsoft YaHei" font-size="12.00" text-anchor="middle" x="544" y="-374.9">
      876. 链表的中间结点
     </text>
    </a>
   </g>
   <g transform="translate(600.0, -402.0) scale(0.3)">
    <circle cx="24" cy="24" fill="#4caf50" r="21"/>
    <polygon fill="#ccff90" points="34.6,14.6 21,28.2 15.4,22.6 12.6,25.4 21,33.8 37.4,17.4"/>
   </g>
  </g>
  <!-- 快慢指针&#45;&gt;876 -->
  <g class="edge" id="edge19">
   <title>
    快慢指针-&gt;876
   </title>
   <path d="M528.19,-431.7C530.53,-423.9 533.35,-414.51 535.95,-405.83" fill="none" stroke="lightgrey"/>
   <polygon fill="lightgrey" points="539.35,-406.69 538.87,-396.1 532.64,-404.68 539.35,-406.69" stroke="lightgrey"/>
  </g>
  <!-- 141 -->
  <g class="node" id="node21">
   <title>
    141
   </title>
   <g id="a_node21">
    <a target="_parent" xlink:href="https://leetcode-cn.com/problems/linked-list-cycle" xlink:title="141. 环形链表">
     <polygon fill="none" points="590,-324 498,-324 498,-288 590,-288 590,-324" stroke="greenyellow"/>
     <text font-family="Microsoft YaHei" font-size="12.00" text-anchor="middle" x="544" y="-302.9">
      141. 环形链表
     </text>
    </a>
   </g>
   <g transform="translate(582.0, -330.0) scale(0.3)">
    <circle cx="24" cy="24" fill="#4caf50" r="21"/>
    <polygon fill="#ccff90" points="34.6,14.6 21,28.2 15.4,22.6 12.6,25.4 21,33.8 37.4,17.4"/>
   </g>
  </g>
  <!-- 876&#45;&gt;141 -->
  <g class="edge" id="edge20">
   <title>
    876-&gt;141
   </title>
   <path d="M544,-359.7C544,-351.98 544,-342.71 544,-334.11" fill="none" stroke="lightgrey"/>
   <polygon fill="lightgrey" points="547.5,-334.1 544,-324.1 540.5,-334.1 547.5,-334.1" stroke="lightgrey"/>
  </g>
  <!-- 61 -->
  <g class="node" id="node22">
   <title>
    61
   </title>
   <g id="a_node22">
    <a target="_parent" xlink:href="https://leetcode-cn.com/problems/rotate-list" xlink:title="61. 旋转链表">
     <polygon fill="none" points="586.5,-252 501.5,-252 501.5,-216 586.5,-216 586.5,-252" stroke="orange"/>
     <text font-family="Microsoft YaHei" font-size="12.00" text-anchor="middle" x="544" y="-230.9">
      61. 旋转链表
     </text>
    </a>
   </g>
   <g transform="translate(578.5, -258.0) scale(0.3)">
    <circle cx="24" cy="24" fill="#4caf50" r="21"/>
    <polygon fill="#ccff90" points="34.6,14.6 21,28.2 15.4,22.6 12.6,25.4 21,33.8 37.4,17.4"/>
   </g>
  </g>
  <!-- 141&#45;&gt;61 -->
  <g class="edge" id="edge21">
   <title>
    141-&gt;61
   </title>
   <path d="M544,-287.7C544,-279.98 544,-270.71 544,-262.11" fill="none" stroke="lightgrey"/>
   <polygon fill="lightgrey" points="547.5,-262.1 544,-252.1 540.5,-262.1 547.5,-262.1" stroke="lightgrey"/>
  </g>
  <!-- 19 -->
  <g class="node" id="node23">
   <title>
    19
   </title>
   <g id="a_node23">
    <a target="_parent" xlink:href="https://leetcode-cn.com/problems/remove-nth-node-from-end-of-list" xlink:title="19. 删除链表的倒数第 N 个结点">
     <polygon fill="none" points="637,-180 451,-180 451,-144 637,-144 637,-180" stroke="orange"/>
     <text font-family="Microsoft YaHei" font-size="12.00" text-anchor="middle" x="544" y="-158.9">
      19. 删除链表的倒数第 N 个结点
     </text>
    </a>
   </g>
   <g transform="translate(629.0, -186.0) scale(0.3)">
    <circle cx="24" cy="24" fill="#4caf50" r="21"/>
    <polygon fill="#ccff90" points="34.6,14.6 21,28.2 15.4,22.6 12.6,25.4 21,33.8 37.4,17.4"/>
   </g>
  </g>
  <!-- 61&#45;&gt;19 -->
  <g class="edge" id="edge22">
   <title>
    61-&gt;19
   </title>
   <path d="M544,-215.7C544,-207.98 544,-198.71 544,-190.11" fill="none" stroke="lightgrey"/>
   <polygon fill="lightgrey" points="547.5,-190.1 544,-180.1 540.5,-190.1 547.5,-190.1" stroke="lightgrey"/>
  </g>
  <!-- 1721 -->
  <g class="node" id="node24">
   <title>
    1721
   </title>
   <g id="a_node24">
    <a target="_parent" xlink:href="https://leetcode-cn.com/problems/swapping-nodes-in-a-linked-list" xlink:title="1721. 交换链表中的节点">
     <polygon fill="none" points="617,-108 471,-108 471,-72 617,-72 617,-108" stroke="orange"/>
     <text font-family="Microsoft YaHei" font-size="12.00" text-anchor="middle" x="544" y="-86.9">
      1721. 交换链表中的节点
     </text>
    </a>
   </g>
   <g transform="translate(609.0, -114.0) scale(0.3)">
    <circle cx="24" cy="24" fill="#4caf50" r="21"/>
    <polygon fill="#ccff90" points="34.6,14.6 21,28.2 15.4,22.6 12.6,25.4 21,33.8 37.4,17.4"/>
   </g>
  </g>
  <!-- 19&#45;&gt;1721 -->
  <g class="edge" id="edge23">
   <title>
    19-&gt;1721
   </title>
   <path d="M544,-143.7C544,-135.98 544,-126.71 544,-118.11" fill="none" stroke="lightgrey"/>
   <polygon fill="lightgrey" points="547.5,-118.1 544,-108.1 540.5,-118.1 547.5,-118.1" stroke="lightgrey"/>
  </g>
  <!-- 142 -->
  <g class="node" id="node25">
   <title>
    142
   </title>
   <g id="a_node25">
    <a target="_parent" xlink:href="https://leetcode-cn.com/problems/linked-list-cycle-ii" xlink:title="142. 环形链表 II">
     <polygon fill="none" points="595.5,-36 492.5,-36 492.5,0 595.5,0 595.5,-36" stroke="orange"/>
     <text font-family="Microsoft YaHei" font-size="12.00" text-anchor="middle" x="544" y="-14.9">
      142. 环形链表 II
     </text>
    </a>
   </g>
   <g transform="translate(587.5, -42.0) scale(0.3)">
    <circle cx="24" cy="24" fill="#4caf50" r="21"/>
    <polygon fill="#ccff90" points="34.6,14.6 21,28.2 15.4,22.6 12.6,25.4 21,33.8 37.4,17.4"/>
   </g>
   <g transform="translate(586.5, -9.0)">
    <symbol id="flask" viewBox="0 0 448 512">
     <path d="M437.2 403.5L320 215V64h8c13.3 0 24-10.7 24-24V24c0-13.3-10.7-24-24-24H120c-13.3 0-24 10.7-24 24v16c0 13.3 10.7 24 24 24h8v151L10.8 403.5C-18.5 450.6 15.3 512 70.9 512h306.2c55.7 0 89.4-61.5 60.1-108.5zM137.9 320l48.2-77.6c3.7-5.2 5.8-11.6 5.8-18.4V64h64v160c0 6.9 2.2 13.2 5.8 18.4l48.2 77.6h-172z" fill="#1389fd"/>
    </symbol>
    <a href="https://github.com/acm-clan/algorithm-stone/blob/main/user/leetcode/142. 环形链表 II.md">
     <use height="18" href="#flask" width="18"/>
    </a>
   </g>
  </g>
  <!-- 1721&#45;&gt;142 -->
  <g class="edge" id="edge24">
   <title>
    1721-&gt;142
   </title>
   <path d="M544,-71.7C544,-63.98 544,-54.71 544,-46.11" fill="none" stroke="lightgrey"/>
   <polygon fill="lightgrey" points="547.5,-46.1 544,-36.1 540.5,-46.1 547.5,-46.1" stroke="lightgrey"/>
  </g>
  <!-- 237 -->
  <g class="node" id="node27">
   <title>
    237
   </title>
   <g id="a_node27">
    <a target="_parent" xlink:href="https://leetcode-cn.com/problems/delete-node-in-a-linked-list" xlink:title="237. 删除链表中的节点">
     <polygon fill="none" points="796,-396 656,-396 656,-360 796,-360 796,-396" stroke="greenyellow"/>
     <text font-family="Microsoft YaHei" font-size="12.00" text-anchor="middle" x="726" y="-374.9">
      237. 删除链表中的节点
     </text>
    </a>
   </g>
  </g>
  <!-- 删除链表&#45;&gt;237 -->
  <g class="edge" id="edge26">
   <title>
    删除链表-&gt;237
   </title>
   <path d="M674.81,-431.7C683.13,-423.14 693.31,-412.66 702.39,-403.3" fill="none" stroke="lightgrey"/>
   <polygon fill="lightgrey" points="704.93,-405.72 709.38,-396.1 699.91,-400.84 704.93,-405.72" stroke="lightgrey"/>
  </g>
  <!-- 203 -->
  <g class="node" id="node28">
   <title>
    203
   </title>
   <g id="a_node28">
    <a target="_parent" xlink:href="https://leetcode-cn.com/problems/remove-linked-list-elements" xlink:title="203. 移除链表元素">
     <polygon fill="none" points="798,-324 682,-324 682,-288 798,-288 798,-324" stroke="greenyellow"/>
     <text font-family="Microsoft YaHei" font-size="12.00" text-anchor="middle" x="740" y="-302.9">
      203. 移除链表元素
     </text>
    </a>
   </g>
   <g transform="translate(790.0, -330.0) scale(0.3)">
    <circle cx="24" cy="24" fill="#4caf50" r="21"/>
    <polygon fill="#ccff90" points="34.6,14.6 21,28.2 15.4,22.6 12.6,25.4 21,33.8 37.4,17.4"/>
   </g>
  </g>
  <!-- 237&#45;&gt;203 -->
  <g class="edge" id="edge27">
   <title>
    237-&gt;203
   </title>
   <path d="M729.46,-359.7C731,-351.98 732.86,-342.71 734.58,-334.11" fill="none" stroke="lightgrey"/>
   <polygon fill="lightgrey" points="738.05,-334.6 736.58,-324.1 731.19,-333.22 738.05,-334.6" stroke="lightgrey"/>
  </g>
  <!-- 83 -->
  <g class="node" id="node29">
   <title>
    83
   </title>
   <g id="a_node29">
    <a target="_parent" xlink:href="https://leetcode-cn.com/problems/remove-duplicates-from-sorted-list" xlink:title="83. 删除排序链表中的重复元素">
     <polygon fill="none" points="837.5,-252 656.5,-252 656.5,-216 837.5,-216 837.5,-252" stroke="greenyellow"/>
     <text font-family="Microsoft YaHei" font-size="12.00" text-anchor="middle" x="747" y="-230.9">
      83. 删除排序链表中的重复元素
     </text>
    </a>
   </g>
   <g transform="translate(829.5, -258.0) scale(0.3)">
    <circle cx="24" cy="24" fill="#4caf50" r="21"/>
    <polygon fill="#ccff90" points="34.6,14.6 21,28.2 15.4,22.6 12.6,25.4 21,33.8 37.4,17.4"/>
   </g>
  </g>
  <!-- 203&#45;&gt;83 -->
  <g class="edge" id="edge28">
   <title>
    203-&gt;83
   </title>
   <path d="M741.73,-287.7C742.5,-279.98 743.43,-270.71 744.29,-262.11" fill="none" stroke="lightgrey"/>
   <polygon fill="lightgrey" points="747.78,-262.4 745.29,-252.1 740.81,-261.71 747.78,-262.4" stroke="lightgrey"/>
  </g>
  <!-- 82 -->
  <g class="node" id="node30">
   <title>
    82
   </title>
   <g id="a_node30">
    <a target="_parent" xlink:href="https://leetcode-cn.com/problems/remove-duplicates-from-sorted-list-ii" xlink:title="82. 删除排序链表中的重复元素 II">
     <polygon fill="none" points="850,-180 658,-180 658,-144 850,-144 850,-180" stroke="orange"/>
     <text font-family="Microsoft YaHei" font-size="12.00" text-anchor="middle" x="754" y="-158.9">
      82. 删除排序链表中的重复元素 II
     </text>
    </a>
   </g>
   <g transform="translate(842.0, -186.0) scale(0.3)">
    <circle cx="24" cy="24" fill="#4caf50" r="21"/>
    <polygon fill="#ccff90" points="34.6,14.6 21,28.2 15.4,22.6 12.6,25.4 21,33.8 37.4,17.4"/>
   </g>
  </g>
  <!-- 83&#45;&gt;82 -->
  <g class="edge" id="edge29">
   <title>
    83-&gt;82
   </title>
   <path d="M748.73,-215.7C749.5,-207.98 750.43,-198.71 751.29,-190.11" fill="none" stroke="lightgrey"/>
   <polygon fill="lightgrey" points="754.78,-190.4 752.29,-180.1 747.81,-189.71 754.78,-190.4" stroke="lightgrey"/>
  </g>
  <!-- 1171 -->
  <g class="node" id="node31">
   <title>
    1171
   </title>
   <g id="a_node31">
    <a target="_parent" xlink:href="https://leetcode-cn.com/problems/remove-zero-sum-consecutive-nodes-from-linked-list" xlink:title="1171. 从链表中删去总和值为零的连续节点">
     <polygon fill="none" points="877,-108 635,-108 635,-72 877,-72 877,-108" stroke="orange"/>
     <text font-family="Microsoft YaHei" font-size="12.00" text-anchor="middle" x="756" y="-86.9">
      1171. 从链表中删去总和值为零的连续节点
     </text>
    </a>
   </g>
  </g>
  <!-- 82&#45;&gt;1171 -->
  <g class="edge" id="edge30">
   <title>
    82-&gt;1171
   </title>
   <path d="M754.49,-143.7C754.71,-135.98 754.98,-126.71 755.23,-118.11" fill="none" stroke="lightgrey"/>
   <polygon fill="lightgrey" points="758.72,-118.2 755.51,-108.1 751.73,-118 758.72,-118.2" stroke="lightgrey"/>
  </g>
  <g class="key">
   <defs>
    <filter height="1.2" id="solid" width="1.2" x="-0.1" y="-0.1">
     <feFlood flood-color="#ccff90" result="bg"/>
     <feMerge>
      <feMergeNode in="bg"/>
      <feMergeNode in="SourceGraphic"/>
     </feMerge>
    </filter>
   </defs>
   <text filter="url(#solid)" font-family="Microsoft YaHei" font-size="10.00" text-anchor="middle" x="46.0" y="-355.0">
    链表增删改查
   </text>
  </g>
  <g class="key">
   <defs>
    <filter height="1.2" id="solid" width="1.2" x="-0.1" y="-0.1">
     <feFlood flood-color="#ccff90" result="bg"/>
     <feMerge>
      <feMergeNode in="bg"/>
      <feMergeNode in="SourceGraphic"/>
     </feMerge>
    </filter>
   </defs>
   <text filter="url(#solid)" font-family="Microsoft YaHei" font-size="10.00" text-anchor="middle" x="389.0" y="-355.0">
    位运算
   </text>
  </g>
  <g class="key">
   <defs>
    <filter height="1.2" id="solid" width="1.2" x="-0.1" y="-0.1">
     <feFlood flood-color="#ccff90" result="bg"/>
     <feMerge>
      <feMergeNode in="bg"/>
      <feMergeNode in="SourceGraphic"/>
     </feMerge>
    </filter>
   </defs>
   <text filter="url(#solid)" font-family="Microsoft YaHei" font-size="10.00" text-anchor="middle" x="389.0" y="-283.0">
    单调栈
   </text>
  </g>
  <g class="key">
   <defs>
    <filter height="1.2" id="solid" width="1.2" x="-0.1" y="-0.1">
     <feFlood flood-color="#ccff90" result="bg"/>
     <feMerge>
      <feMergeNode in="bg"/>
      <feMergeNode in="SourceGraphic"/>
     </feMerge>
    </filter>
   </defs>
   <text filter="url(#solid)" font-family="Microsoft YaHei" font-size="10.00" text-anchor="middle" x="384.0" y="-211.0">
    插入排序
   </text>
  </g>
  <g class="key">
   <defs>
    <filter height="1.2" id="solid" width="1.2" x="-0.1" y="-0.1">
     <feFlood flood-color="#ccff90" result="bg"/>
     <feMerge>
      <feMergeNode in="bg"/>
      <feMergeNode in="SourceGraphic"/>
     </feMerge>
    </filter>
   </defs>
   <text filter="url(#solid)" font-family="Microsoft YaHei" font-size="10.00" text-anchor="middle" x="379.0" y="-139.0">
    添加非递归的方法
   </text>
  </g>
  <g class="key">
   <defs>
    <filter height="1.2" id="solid" width="1.2" x="-0.1" y="-0.1">
     <feFlood flood-color="#ccff90" result="bg"/>
     <feMerge>
      <feMergeNode in="bg"/>
      <feMergeNode in="SourceGraphic"/>
     </feMerge>
    </filter>
   </defs>
   <text filter="url(#solid)" font-family="Microsoft YaHei" font-size="10.00" text-anchor="middle" x="371.0" y="-67.0">
    map映射
   </text>
  </g>
  <g class="key">
   <defs>
    <filter height="1.2" id="solid" width="1.2" x="-0.1" y="-0.1">
     <feFlood flood-color="#ccff90" result="bg"/>
     <feMerge>
      <feMergeNode in="bg"/>
      <feMergeNode in="SourceGraphic"/>
     </feMerge>
    </filter>
   </defs>
   <text filter="url(#solid)" font-family="Microsoft YaHei" font-size="10.00" text-anchor="middle" x="544.0" y="5.0">
    公式推理
   </text>
  </g>
  <g class="key">
   <defs>
    <filter height="1.2" id="solid" width="1.2" x="-0.1" y="-0.1">
     <feFlood flood-color="#ccff90" result="bg"/>
     <feMerge>
      <feMergeNode in="bg"/>
      <feMergeNode in="SourceGraphic"/>
     </feMerge>
    </filter>
   </defs>
   <text filter="url(#solid)" font-family="Microsoft YaHei" font-size="10.00" text-anchor="middle" x="726.0" y="-355.0">
    简单删除
   </text>
  </g>
  <g class="key">
   <defs>
    <filter height="1.2" id="solid" width="1.2" x="-0.1" y="-0.1">
     <feFlood flood-color="#ccff90" result="bg"/>
     <feMerge>
      <feMergeNode in="bg"/>
      <feMergeNode in="SourceGraphic"/>
     </feMerge>
    </filter>
   </defs>
   <text filter="url(#solid)" font-family="Microsoft YaHei" font-size="10.00" text-anchor="middle" x="740.0" y="-283.0">
    删除多个
   </text>
  </g>
 </g>
</svg>