<?xml version="1.0" encoding="utf-8"?>
<!DOCTYPE svg PUBLIC "-//W3C//DTD SVG 1.1//EN" "http://www.w3.org/Graphics/SVG/1.1/DTD/svg11.dtd">
<!-- Generated by graphviz version 2.46.1 (20210213.1702)
 -->
<!-- Title: stones Pages: 1 -->
<svg height="670pt" viewBox="0.00 0.00 767.0 670.0" width="767pt" xmlns="http://www.w3.org/2000/svg" xmlns:xlink="http://www.w3.org/1999/xlink">
 <g class="graph" id="graph0" transform="scale(1 1) rotate(0) translate(4 616)">
  <title>
   stones
  </title>
  <polygon fill="white" points="-4,4 -4,-616 713,-616 713,4 -4,4" stroke="transparent"/>
  <!-- Leetcode&#45;链表 -->
  <g class="node" id="node1">
   <title>
    Leetcode-链表
   </title>
   <g id="a_node1">
    <a target="_parent" xlink:href="https://leetcode-cn.com/tag/linked-list" xlink:title="Leetcode-链表(15)">
     <polygon fill="orangered" points="408.5,-612 269.5,-612 269.5,-576 408.5,-576 408.5,-612" stroke="lightgrey"/>
     <text fill="white" font-family="Microsoft YaHei" font-size="14.00" text-anchor="middle" x="339" y="-590.3">
      Leetcode-链表(15)
     </text>
    </a>
   </g>
  </g>
  <!-- 遍历链表 -->
  <g class="node" id="node2">
   <title>
    遍历链表
   </title>
   <polygon fill="lightslategray" points="210.5,-540 131.5,-540 131.5,-504 210.5,-504 210.5,-540" stroke="lightgrey"/>
   <text fill="white" font-family="Microsoft YaHei" font-size="12.00" text-anchor="middle" x="171" y="-518.9">
    遍历链表(3)
   </text>
  </g>
  <!-- Leetcode&#45;链表&#45;&gt;遍历链表 -->
  <g class="edge" id="edge1">
   <title>
    Leetcode-链表-&gt;遍历链表
   </title>
   <path d="M297.9,-575.88C274.41,-566.09 244.79,-553.74 220.07,-543.45" fill="none" stroke="lightgrey"/>
   <polygon fill="lightgrey" points="221.09,-540.08 210.52,-539.47 218.4,-546.54 221.09,-540.08" stroke="lightgrey"/>
  </g>
  <!-- 反转链表 -->
  <g class="node" id="node6">
   <title>
    反转链表
   </title>
   <polygon fill="lightslategray" points="327.5,-540 248.5,-540 248.5,-504 327.5,-504 327.5,-540" stroke="lightgrey"/>
   <text fill="white" font-family="Microsoft YaHei" font-size="12.00" text-anchor="middle" x="288" y="-518.9">
    反转链表(2)
   </text>
  </g>
  <!-- Leetcode&#45;链表&#45;&gt;反转链表 -->
  <g class="edge" id="edge5">
   <title>
    Leetcode-链表-&gt;反转链表
   </title>
   <path d="M326.39,-575.7C320.4,-567.47 313.12,-557.48 306.52,-548.42" fill="none" stroke="lightgrey"/>
   <polygon fill="lightgrey" points="309.18,-546.13 300.46,-540.1 303.52,-550.25 309.18,-546.13" stroke="lightgrey"/>
  </g>
  <!-- 构建新链表 -->
  <g class="node" id="node9">
   <title>
    构建新链表
   </title>
   <polygon fill="lightslategray" points="447.5,-540 356.5,-540 356.5,-504 447.5,-504 447.5,-540" stroke="lightgrey"/>
   <text fill="white" font-family="Microsoft YaHei" font-size="12.00" text-anchor="middle" x="402" y="-518.9">
    构建新链表(3)
   </text>
  </g>
  <!-- Leetcode&#45;链表&#45;&gt;构建新链表 -->
  <g class="edge" id="edge8">
   <title>
    Leetcode-链表-&gt;构建新链表
   </title>
   <path d="M354.57,-575.7C362.2,-567.22 371.52,-556.86 379.88,-547.58" fill="none" stroke="lightgrey"/>
   <polygon fill="lightgrey" points="382.52,-549.88 386.61,-540.1 377.31,-545.2 382.52,-549.88" stroke="lightgrey"/>
  </g>
  <!-- 删除链表 -->
  <g class="node" id="node13">
   <title>
    删除链表
   </title>
   <polygon fill="lightslategray" points="567.5,-540 488.5,-540 488.5,-504 567.5,-504 567.5,-540" stroke="lightgrey"/>
   <text fill="white" font-family="Microsoft YaHei" font-size="12.00" text-anchor="middle" x="528" y="-518.9">
    删除链表(7)
   </text>
  </g>
  <!-- Leetcode&#45;链表&#45;&gt;删除链表 -->
  <g class="edge" id="edge12">
   <title>
    Leetcode-链表-&gt;删除链表
   </title>
   <path d="M385.23,-575.88C413.61,-565.37 449.92,-551.92 478.82,-541.21" fill="none" stroke="lightgrey"/>
   <polygon fill="lightgrey" points="480.16,-544.45 488.32,-537.7 477.72,-537.89 480.16,-544.45" stroke="lightgrey"/>
  </g>
  <!-- 1290 -->
  <g class="node" id="node3">
   <title>
    1290
   </title>
   <g id="a_node3">
    <a target="_parent" xlink:href="https://leetcode-cn.com/problems/convert-binary-number-in-a-linked-list-to-integer" xlink:title="1290. 二进制链表转整数">
     <polygon fill="none" points="193,-468 47,-468 47,-432 193,-432 193,-468" stroke="greenyellow"/>
     <text font-family="Microsoft YaHei" font-size="12.00" text-anchor="middle" x="120" y="-446.9">
      1290. 二进制链表转整数
     </text>
    </a>
   </g>
   <g transform="translate(185.0, -474.0) scale(0.3)">
    <circle cx="24" cy="24" fill="#4caf50" r="21"/>
    <polygon fill="#ccff90" points="34.6,14.6 21,28.2 15.4,22.6 12.6,25.4 21,33.8 37.4,17.4"/>
   </g>
  </g>
  <!-- 遍历链表&#45;&gt;1290 -->
  <g class="edge" id="edge2">
   <title>
    遍历链表-&gt;1290
   </title>
   <path d="M158.39,-503.7C152.4,-495.47 145.12,-485.48 138.52,-476.42" fill="none" stroke="lightgrey"/>
   <polygon fill="lightgrey" points="141.18,-474.13 132.46,-468.1 135.52,-478.25 141.18,-474.13" stroke="lightgrey"/>
  </g>
  <!-- 1019 -->
  <g class="node" id="node4">
   <title>
    1019
   </title>
   <g id="a_node4">
    <a target="_parent" xlink:href="https://leetcode-cn.com/problems/next-greater-node-in-linked-list" xlink:title="1019. 链表中的下一个更大节点">
     <polygon fill="none" points="182,-396 0,-396 0,-360 182,-360 182,-396" stroke="orange"/>
     <text font-family="Microsoft YaHei" font-size="12.00" text-anchor="middle" x="91" y="-374.9">
      1019. 链表中的下一个更大节点
     </text>
    </a>
   </g>
   <g transform="translate(174.0, -402.0) scale(0.3)">
    <circle cx="24" cy="24" fill="#4caf50" r="21"/>
    <polygon fill="#ccff90" points="34.6,14.6 21,28.2 15.4,22.6 12.6,25.4 21,33.8 37.4,17.4"/>
   </g>
  </g>
  <!-- 1290&#45;&gt;1019 -->
  <g class="edge" id="edge3">
   <title>
    1290-&gt;1019
   </title>
   <path d="M112.83,-431.7C109.57,-423.81 105.63,-414.3 102,-405.55" fill="none" stroke="lightgrey"/>
   <polygon fill="lightgrey" points="105.15,-404 98.09,-396.1 98.68,-406.68 105.15,-404" stroke="lightgrey"/>
  </g>
  <!-- 138 -->
  <g class="node" id="node5">
   <title>
    138
   </title>
   <g id="a_node5">
    <a target="_parent" xlink:href="https://leetcode-cn.com/problems/copy-list-with-random-pointer" xlink:title="138. 复制带随机指针的链表">
     <polygon fill="none" points="173,-324 9,-324 9,-288 173,-288 173,-324" stroke="orange"/>
     <text font-family="Microsoft YaHei" font-size="12.00" text-anchor="middle" x="91" y="-302.9">
      138. 复制带随机指针的链表
     </text>
    </a>
   </g>
  </g>
  <!-- 1019&#45;&gt;138 -->
  <g class="edge" id="edge4">
   <title>
    1019-&gt;138
   </title>
   <path d="M91,-359.7C91,-351.98 91,-342.71 91,-334.11" fill="none" stroke="lightgrey"/>
   <polygon fill="lightgrey" points="94.5,-334.1 91,-324.1 87.5,-334.1 94.5,-334.1" stroke="lightgrey"/>
  </g>
  <!-- 206 -->
  <g class="node" id="node7">
   <title>
    206
   </title>
   <g id="a_node7">
    <a target="_parent" xlink:href="https://leetcode-cn.com/problems/reverse-linked-list" xlink:title="206. 反转链表">
     <polygon fill="none" points="328,-468 236,-468 236,-432 328,-432 328,-468" stroke="greenyellow"/>
     <text font-family="Microsoft YaHei" font-size="12.00" text-anchor="middle" x="282" y="-446.9">
      206. 反转链表
     </text>
    </a>
   </g>
  </g>
  <!-- 反转链表&#45;&gt;206 -->
  <g class="edge" id="edge6">
   <title>
    反转链表-&gt;206
   </title>
   <path d="M286.52,-503.7C285.86,-495.98 285.06,-486.71 284.32,-478.11" fill="none" stroke="lightgrey"/>
   <polygon fill="lightgrey" points="287.81,-477.77 283.47,-468.1 280.83,-478.37 287.81,-477.77" stroke="lightgrey"/>
  </g>
  <!-- 24 -->
  <g class="node" id="node8">
   <title>
    24
   </title>
   <g id="a_node8">
    <a target="_parent" xlink:href="https://leetcode-cn.com/problems/swap-nodes-in-pairs" xlink:title="24. 两两交换链表中的节点">
     <polygon fill="none" points="357.5,-396 200.5,-396 200.5,-360 357.5,-360 357.5,-396" stroke="orange"/>
     <text font-family="Microsoft YaHei" font-size="12.00" text-anchor="middle" x="279" y="-374.9">
      24. 两两交换链表中的节点
     </text>
    </a>
   </g>
   <g transform="translate(349.5, -402.0) scale(0.3)">
    <circle cx="24" cy="24" fill="#4caf50" r="21"/>
    <polygon fill="#ccff90" points="34.6,14.6 21,28.2 15.4,22.6 12.6,25.4 21,33.8 37.4,17.4"/>
   </g>
  </g>
  <!-- 206&#45;&gt;24 -->
  <g class="edge" id="edge7">
   <title>
    206-&gt;24
   </title>
   <path d="M281.26,-431.7C280.93,-423.98 280.53,-414.71 280.16,-406.11" fill="none" stroke="lightgrey"/>
   <polygon fill="lightgrey" points="283.66,-405.95 279.73,-396.1 276.66,-406.25 283.66,-405.95" stroke="lightgrey"/>
  </g>
  <!-- 2 -->
  <g class="node" id="node10">
   <title>
    2
   </title>
   <g id="a_node10">
    <a target="_parent" xlink:href="https://leetcode-cn.com/problems/add-two-numbers" xlink:title="2. 两数相加">
     <polygon fill="none" points="463,-468 385,-468 385,-432 463,-432 463,-468" stroke="orange"/>
     <text font-family="Microsoft YaHei" font-size="12.00" text-anchor="middle" x="424" y="-446.9">
      2. 两数相加
     </text>
    </a>
   </g>
  </g>
  <!-- 构建新链表&#45;&gt;2 -->
  <g class="edge" id="edge9">
   <title>
    构建新链表-&gt;2
   </title>
   <path d="M407.44,-503.7C409.89,-495.9 412.84,-486.51 415.57,-477.83" fill="none" stroke="lightgrey"/>
   <polygon fill="lightgrey" points="418.96,-478.69 418.62,-468.1 412.29,-476.59 418.96,-478.69" stroke="lightgrey"/>
  </g>
  <!-- 445 -->
  <g class="node" id="node11">
   <title>
    445
   </title>
   <g id="a_node11">
    <a target="_parent" xlink:href="https://leetcode-cn.com/problems/add-two-numbers-ii" xlink:title="445. 两数相加 II">
     <polygon fill="none" points="478.5,-396 375.5,-396 375.5,-360 478.5,-360 478.5,-396" stroke="orange"/>
     <text font-family="Microsoft YaHei" font-size="12.00" text-anchor="middle" x="427" y="-374.9">
      445. 两数相加 II
     </text>
    </a>
   </g>
   <g transform="translate(470.5, -402.0) scale(0.3)">
    <circle cx="24" cy="24" fill="#4caf50" r="21"/>
    <polygon fill="#ccff90" points="34.6,14.6 21,28.2 15.4,22.6 12.6,25.4 21,33.8 37.4,17.4"/>
   </g>
  </g>
  <!-- 2&#45;&gt;445 -->
  <g class="edge" id="edge10">
   <title>
    2-&gt;445
   </title>
   <path d="M424.74,-431.7C425.07,-423.98 425.47,-414.71 425.84,-406.11" fill="none" stroke="lightgrey"/>
   <polygon fill="lightgrey" points="429.34,-406.25 426.27,-396.1 422.34,-405.95 429.34,-406.25" stroke="lightgrey"/>
  </g>
  <!-- 1669 -->
  <g class="node" id="node12">
   <title>
    1669
   </title>
   <g id="a_node12">
    <a target="_parent" xlink:href="https://leetcode-cn.com/problems/merge-in-between-linked-lists" xlink:title="1669. 合并两个链表">
     <polygon fill="none" points="477,-324 355,-324 355,-288 477,-288 477,-324" stroke="orange"/>
     <text font-family="Microsoft YaHei" font-size="12.00" text-anchor="middle" x="416" y="-302.9">
      1669. 合并两个链表
     </text>
    </a>
   </g>
   <g transform="translate(469.0, -330.0) scale(0.3)">
    <circle cx="24" cy="24" fill="#4caf50" r="21"/>
    <polygon fill="#ccff90" points="34.6,14.6 21,28.2 15.4,22.6 12.6,25.4 21,33.8 37.4,17.4"/>
   </g>
  </g>
  <!-- 445&#45;&gt;1669 -->
  <g class="edge" id="edge11">
   <title>
    445-&gt;1669
   </title>
   <path d="M424.28,-359.7C423.07,-351.98 421.61,-342.71 420.26,-334.11" fill="none" stroke="lightgrey"/>
   <polygon fill="lightgrey" points="423.7,-333.44 418.69,-324.1 416.78,-334.53 423.7,-333.44" stroke="lightgrey"/>
  </g>
  <!-- 237 -->
  <g class="node" id="node14">
   <title>
    237
   </title>
   <g id="a_node14">
    <a target="_parent" xlink:href="https://leetcode-cn.com/problems/delete-node-in-a-linked-list" xlink:title="237. 删除链表中的节点">
     <polygon fill="none" points="627,-468 487,-468 487,-432 627,-432 627,-468" stroke="greenyellow"/>
     <text font-family="Microsoft YaHei" font-size="12.00" text-anchor="middle" x="557" y="-446.9">
      237. 删除链表中的节点
     </text>
    </a>
   </g>
  </g>
  <!-- 删除链表&#45;&gt;237 -->
  <g class="edge" id="edge13">
   <title>
    删除链表-&gt;237
   </title>
   <path d="M535.17,-503.7C538.43,-495.81 542.37,-486.3 546,-477.55" fill="none" stroke="lightgrey"/>
   <polygon fill="lightgrey" points="549.32,-478.68 549.91,-468.1 542.85,-476 549.32,-478.68" stroke="lightgrey"/>
  </g>
  <!-- 203 -->
  <g class="node" id="node15">
   <title>
    203
   </title>
   <g id="a_node15">
    <a target="_parent" xlink:href="https://leetcode-cn.com/problems/remove-linked-list-elements" xlink:title="203. 移除链表元素">
     <polygon fill="none" points="635,-396 519,-396 519,-360 635,-360 635,-396" stroke="greenyellow"/>
     <text font-family="Microsoft YaHei" font-size="12.00" text-anchor="middle" x="577" y="-374.9">
      203. 移除链表元素
     </text>
    </a>
   </g>
   <g transform="translate(627.0, -402.0) scale(0.3)">
    <circle cx="24" cy="24" fill="#4caf50" r="21"/>
    <polygon fill="#ccff90" points="34.6,14.6 21,28.2 15.4,22.6 12.6,25.4 21,33.8 37.4,17.4"/>
   </g>
  </g>
  <!-- 237&#45;&gt;203 -->
  <g class="edge" id="edge14">
   <title>
    237-&gt;203
   </title>
   <path d="M561.94,-431.7C564.17,-423.9 566.85,-414.51 569.33,-405.83" fill="none" stroke="lightgrey"/>
   <polygon fill="lightgrey" points="572.73,-406.68 572.11,-396.1 566,-404.76 572.73,-406.68" stroke="lightgrey"/>
  </g>
  <!-- 19 -->
  <g class="node" id="node16">
   <title>
    19
   </title>
   <g id="a_node16">
    <a target="_parent" xlink:href="https://leetcode-cn.com/problems/remove-nth-node-from-end-of-list" xlink:title="19. 删除链表的倒数第 N 个结点">
     <polygon fill="none" points="681,-324 495,-324 495,-288 681,-288 681,-324" stroke="orange"/>
     <text font-family="Microsoft YaHei" font-size="12.00" text-anchor="middle" x="588" y="-302.9">
      19. 删除链表的倒数第 N 个结点
     </text>
    </a>
   </g>
   <g transform="translate(673.0, -330.0) scale(0.3)">
    <circle cx="24" cy="24" fill="#4caf50" r="21"/>
    <polygon fill="#ccff90" points="34.6,14.6 21,28.2 15.4,22.6 12.6,25.4 21,33.8 37.4,17.4"/>
   </g>
  </g>
  <!-- 203&#45;&gt;19 -->
  <g class="edge" id="edge15">
   <title>
    203-&gt;19
   </title>
   <path d="M579.72,-359.7C580.93,-351.98 582.39,-342.71 583.74,-334.11" fill="none" stroke="lightgrey"/>
   <polygon fill="lightgrey" points="587.22,-334.53 585.31,-324.1 580.3,-333.44 587.22,-334.53" stroke="lightgrey"/>
  </g>
  <!-- 1721 -->
  <g class="node" id="node17">
   <title>
    1721
   </title>
   <g id="a_node17">
    <a target="_parent" xlink:href="https://leetcode-cn.com/problems/swapping-nodes-in-a-linked-list" xlink:title="1721. 交换链表中的节点">
     <polygon fill="none" points="661,-252 515,-252 515,-216 661,-216 661,-252" stroke="orange"/>
     <text font-family="Microsoft YaHei" font-size="12.00" text-anchor="middle" x="588" y="-230.9">
      1721. 交换链表中的节点
     </text>
    </a>
   </g>
   <g transform="translate(653.0, -258.0) scale(0.3)">
    <circle cx="24" cy="24" fill="#4caf50" r="21"/>
    <polygon fill="#ccff90" points="34.6,14.6 21,28.2 15.4,22.6 12.6,25.4 21,33.8 37.4,17.4"/>
   </g>
  </g>
  <!-- 19&#45;&gt;1721 -->
  <g class="edge" id="edge16">
   <title>
    19-&gt;1721
   </title>
   <path d="M588,-287.7C588,-279.98 588,-270.71 588,-262.11" fill="none" stroke="lightgrey"/>
   <polygon fill="lightgrey" points="591.5,-262.1 588,-252.1 584.5,-262.1 591.5,-262.1" stroke="lightgrey"/>
  </g>
  <!-- 83 -->
  <g class="node" id="node18">
   <title>
    83
   </title>
   <g id="a_node18">
    <a target="_parent" xlink:href="https://leetcode-cn.com/problems/remove-duplicates-from-sorted-list" xlink:title="83. 删除排序链表中的重复元素">
     <polygon fill="none" points="678.5,-180 497.5,-180 497.5,-144 678.5,-144 678.5,-180" stroke="greenyellow"/>
     <text font-family="Microsoft YaHei" font-size="12.00" text-anchor="middle" x="588" y="-158.9">
      83. 删除排序链表中的重复元素
     </text>
    </a>
   </g>
   <g transform="translate(670.5, -186.0) scale(0.3)">
    <circle cx="24" cy="24" fill="#4caf50" r="21"/>
    <polygon fill="#ccff90" points="34.6,14.6 21,28.2 15.4,22.6 12.6,25.4 21,33.8 37.4,17.4"/>
   </g>
  </g>
  <!-- 1721&#45;&gt;83 -->
  <g class="edge" id="edge17">
   <title>
    1721-&gt;83
   </title>
   <path d="M588,-215.7C588,-207.98 588,-198.71 588,-190.11" fill="none" stroke="lightgrey"/>
   <polygon fill="lightgrey" points="591.5,-190.1 588,-180.1 584.5,-190.1 591.5,-190.1" stroke="lightgrey"/>
  </g>
  <!-- 82 -->
  <g class="node" id="node19">
   <title>
    82
   </title>
   <g id="a_node19">
    <a target="_parent" xlink:href="https://leetcode-cn.com/problems/remove-duplicates-from-sorted-list-ii" xlink:title="82. 删除排序链表中的重复元素 II">
     <polygon fill="none" points="684,-108 492,-108 492,-72 684,-72 684,-108" stroke="orange"/>
     <text font-family="Microsoft YaHei" font-size="12.00" text-anchor="middle" x="588" y="-86.9">
      82. 删除排序链表中的重复元素 II
     </text>
    </a>
   </g>
   <g transform="translate(676.0, -114.0) scale(0.3)">
    <circle cx="24" cy="24" fill="#4caf50" r="21"/>
    <polygon fill="#ccff90" points="34.6,14.6 21,28.2 15.4,22.6 12.6,25.4 21,33.8 37.4,17.4"/>
   </g>
  </g>
  <!-- 83&#45;&gt;82 -->
  <g class="edge" id="edge18">
   <title>
    83-&gt;82
   </title>
   <path d="M588,-143.7C588,-135.98 588,-126.71 588,-118.11" fill="none" stroke="lightgrey"/>
   <polygon fill="lightgrey" points="591.5,-118.1 588,-108.1 584.5,-118.1 591.5,-118.1" stroke="lightgrey"/>
  </g>
  <!-- 1171 -->
  <g class="node" id="node20">
   <title>
    1171
   </title>
   <g id="a_node20">
    <a target="_parent" xlink:href="https://leetcode-cn.com/problems/remove-zero-sum-consecutive-nodes-from-linked-list" xlink:title="1171. 从链表中删去总和值为零的连续节点">
     <polygon fill="none" points="709,-36 467,-36 467,0 709,0 709,-36" stroke="orange"/>
     <text font-family="Microsoft YaHei" font-size="12.00" text-anchor="middle" x="588" y="-14.9">
      1171. 从链表中删去总和值为零的连续节点
     </text>
    </a>
   </g>
  </g>
  <!-- 82&#45;&gt;1171 -->
  <g class="edge" id="edge19">
   <title>
    82-&gt;1171
   </title>
   <path d="M588,-71.7C588,-63.98 588,-54.71 588,-46.11" fill="none" stroke="lightgrey"/>
   <polygon fill="lightgrey" points="591.5,-46.1 588,-36.1 584.5,-46.1 591.5,-46.1" stroke="lightgrey"/>
  </g>
  <g class="key">
   <defs>
    <filter height="1.2" id="solid" width="1.2" x="-0.1" y="-0.1">
     <feFlood flood-color="#ccff90" result="bg"/>
     <feMerge>
      <feMergeNode in="bg"/>
      <feMergeNode in="SourceGraphic"/>
     </feMerge>
    </filter>
   </defs>
   <text filter="url(#solid)" font-family="Microsoft YaHei" font-size="10.00" text-anchor="middle" x="120.0" y="-427.0">
    位运算
   </text>
  </g>
  <g class="key">
   <defs>
    <filter height="1.2" id="solid" width="1.2" x="-0.1" y="-0.1">
     <feFlood flood-color="#ccff90" result="bg"/>
     <feMerge>
      <feMergeNode in="bg"/>
      <feMergeNode in="SourceGraphic"/>
     </feMerge>
    </filter>
   </defs>
   <text filter="url(#solid)" font-family="Microsoft YaHei" font-size="10.00" text-anchor="middle" x="557.0" y="-427.0">
    简单删除
   </text>
  </g>
  <g class="key">
   <defs>
    <filter height="1.2" id="solid" width="1.2" x="-0.1" y="-0.1">
     <feFlood flood-color="#ccff90" result="bg"/>
     <feMerge>
      <feMergeNode in="bg"/>
      <feMergeNode in="SourceGraphic"/>
     </feMerge>
    </filter>
   </defs>
   <text filter="url(#solid)" font-family="Microsoft YaHei" font-size="10.00" text-anchor="middle" x="577.0" y="-355.0">
    删除多个
   </text>
  </g>
  <g class="key">
   <defs>
    <filter height="1.2" id="solid" width="1.2" x="-0.1" y="-0.1">
     <feFlood flood-color="#ccff90" result="bg"/>
     <feMerge>
      <feMergeNode in="bg"/>
      <feMergeNode in="SourceGraphic"/>
     </feMerge>
    </filter>
   </defs>
   <text filter="url(#solid)" font-family="Microsoft YaHei" font-size="10.00" text-anchor="middle" x="588.0" y="-283.0">
    快慢指针
   </text>
  </g>
  <g class="key">
   <defs>
    <filter height="1.2" id="solid" width="1.2" x="-0.1" y="-0.1">
     <feFlood flood-color="#ccff90" result="bg"/>
     <feMerge>
      <feMergeNode in="bg"/>
      <feMergeNode in="SourceGraphic"/>
     </feMerge>
    </filter>
   </defs>
   <text filter="url(#solid)" font-family="Microsoft YaHei" font-size="10.00" text-anchor="middle" x="588.0" y="-211.0">
    快慢指针
   </text>
  </g>
 </g>
</svg>