<?xml version="1.0" encoding="utf-8"?>
<!DOCTYPE svg PUBLIC "-//W3C//DTD SVG 1.1//EN" "http://www.w3.org/Graphics/SVG/1.1/DTD/svg11.dtd">
<!-- Generated by graphviz version 2.46.1 (20210213.1702)
 -->
<!-- Title: stones Pages: 1 -->
<svg height="598pt" viewBox="0.00 0.00 933.5 598.0" width="934pt" xmlns="http://www.w3.org/2000/svg" xmlns:xlink="http://www.w3.org/1999/xlink">
 <g class="graph" id="graph0" transform="scale(1 1) rotate(0) translate(4 544)">
  <title>
   stones
  </title>
  <polygon fill="white" points="-4,4 -4,-544 879.5,-544 879.5,4 -4,4" stroke="transparent"/>
  <!-- Leetcode&#45;链表 -->
  <g class="node" id="node1">
   <title>
    Leetcode-链表
   </title>
   <g id="a_node1">
    <a target="_parent" xlink:href="https://leetcode-cn.com/tag/linked-list" xlink:title="Leetcode-链表(23)">
     <polygon fill="orangered" points="457,-540 318,-540 318,-504 457,-504 457,-540" stroke="lightgrey"/>
     <text fill="white" font-family="Microsoft YaHei" font-size="14.00" text-anchor="middle" x="387.5" y="-518.3">
      Leetcode-链表(23)
     </text>
    </a>
   </g>
  </g>
  <!-- 反转链表 -->
  <g class="node" id="node2">
   <title>
    反转链表
   </title>
   <polygon fill="lightslategray" points="173,-468 94,-468 94,-432 173,-432 173,-468" stroke="lightgrey"/>
   <text fill="white" font-family="Microsoft YaHei" font-size="12.00" text-anchor="middle" x="133.5" y="-446.9">
    反转链表(3)
   </text>
  </g>
  <!-- Leetcode&#45;链表&#45;&gt;反转链表 -->
  <g class="edge" id="edge1">
   <title>
    Leetcode-链表-&gt;反转链表
   </title>
   <path d="M325.69,-503.97C281.87,-491.89 223.85,-475.9 183.06,-464.66" fill="none" stroke="lightgrey"/>
   <polygon fill="lightgrey" points="183.91,-461.26 173.34,-461.98 182.05,-468.01 183.91,-461.26" stroke="lightgrey"/>
  </g>
  <!-- 构建新链表 -->
  <g class="node" id="node6">
   <title>
    构建新链表
   </title>
   <polygon fill="lightslategray" points="302,-468 211,-468 211,-432 302,-432 302,-468" stroke="lightgrey"/>
   <text fill="white" font-family="Microsoft YaHei" font-size="12.00" text-anchor="middle" x="256.5" y="-446.9">
    构建新链表(4)
   </text>
  </g>
  <!-- Leetcode&#45;链表&#45;&gt;构建新链表 -->
  <g class="edge" id="edge5">
   <title>
    Leetcode-链表-&gt;构建新链表
   </title>
   <path d="M355.45,-503.88C338.01,-494.55 316.23,-482.92 297.56,-472.94" fill="none" stroke="lightgrey"/>
   <polygon fill="lightgrey" points="299.14,-469.82 288.67,-468.19 295.84,-475.99 299.14,-469.82" stroke="lightgrey"/>
  </g>
  <!-- 链表和其他算法 -->
  <g class="node" id="node11">
   <title>
    链表和其他算法
   </title>
   <polygon fill="lightslategray" points="445,-468 330,-468 330,-432 445,-432 445,-468" stroke="lightgrey"/>
   <text fill="white" font-family="Microsoft YaHei" font-size="12.00" text-anchor="middle" x="387.5" y="-446.9">
    链表和其他算法(5)
   </text>
  </g>
  <!-- Leetcode&#45;链表&#45;&gt;链表和其他算法 -->
  <g class="edge" id="edge10">
   <title>
    Leetcode-链表-&gt;链表和其他算法
   </title>
   <path d="M387.5,-503.7C387.5,-495.98 387.5,-486.71 387.5,-478.11" fill="none" stroke="lightgrey"/>
   <polygon fill="lightgrey" points="391,-478.1 387.5,-468.1 384,-478.1 391,-478.1" stroke="lightgrey"/>
  </g>
  <!-- 快慢指针 -->
  <g class="node" id="node17">
   <title>
    快慢指针
   </title>
   <polygon fill="lightslategray" points="562,-468 483,-468 483,-432 562,-432 562,-468" stroke="lightgrey"/>
   <text fill="white" font-family="Microsoft YaHei" font-size="12.00" text-anchor="middle" x="522.5" y="-446.9">
    快慢指针(6)
   </text>
  </g>
  <!-- Leetcode&#45;链表&#45;&gt;快慢指针 -->
  <g class="edge" id="edge16">
   <title>
    Leetcode-链表-&gt;快慢指针
   </title>
   <path d="M420.52,-503.88C438.58,-494.51 461.15,-482.81 480.45,-472.8" fill="none" stroke="lightgrey"/>
   <polygon fill="lightgrey" points="482.08,-475.9 489.35,-468.19 478.86,-469.69 482.08,-475.9" stroke="lightgrey"/>
  </g>
  <!-- 删除链表 -->
  <g class="node" id="node24">
   <title>
    删除链表
   </title>
   <polygon fill="lightslategray" points="696,-468 617,-468 617,-432 696,-432 696,-468" stroke="lightgrey"/>
   <text fill="white" font-family="Microsoft YaHei" font-size="12.00" text-anchor="middle" x="656.5" y="-446.9">
    删除链表(5)
   </text>
  </g>
  <!-- Leetcode&#45;链表&#45;&gt;删除链表 -->
  <g class="edge" id="edge23">
   <title>
    Leetcode-链表-&gt;删除链表
   </title>
   <path d="M452.96,-503.97C500.43,-491.61 563.64,-475.17 606.95,-463.89" fill="none" stroke="lightgrey"/>
   <polygon fill="lightgrey" points="607.89,-467.27 616.69,-461.36 606.13,-460.49 607.89,-467.27" stroke="lightgrey"/>
  </g>
  <!-- 206 -->
  <g class="node" id="node3">
   <title>
    206
   </title>
   <g id="a_node3">
    <a target="_parent" xlink:href="https://leetcode-cn.com/problems/reverse-linked-list" xlink:title="206. 反转链表">
     <polygon fill="none" points="162.5,-396 70.5,-396 70.5,-360 162.5,-360 162.5,-396" stroke="greenyellow"/>
     <text font-family="Microsoft YaHei" font-size="12.00" text-anchor="middle" x="116.5" y="-374.9">
      206. 反转链表
     </text>
    </a>
   </g>
   <g transform="translate(154.5, -402.0) scale(0.3)">
    <circle cx="24" cy="24" fill="#4caf50" r="21"/>
    <polygon fill="#ccff90" points="34.6,14.6 21,28.2 15.4,22.6 12.6,25.4 21,33.8 37.4,17.4"/>
   </g>
  </g>
  <!-- 反转链表&#45;&gt;206 -->
  <g class="edge" id="edge2">
   <title>
    反转链表-&gt;206
   </title>
   <path d="M129.3,-431.7C127.4,-423.9 125.12,-414.51 123.02,-405.83" fill="none" stroke="lightgrey"/>
   <polygon fill="lightgrey" points="126.42,-405 120.65,-396.1 119.61,-406.65 126.42,-405" stroke="lightgrey"/>
  </g>
  <!-- 24 -->
  <g class="node" id="node4">
   <title>
    24
   </title>
   <g id="a_node4">
    <a target="_parent" xlink:href="https://leetcode-cn.com/problems/swap-nodes-in-pairs" xlink:title="24. 两两交换链表中的节点">
     <polygon fill="none" points="157,-324 0,-324 0,-288 157,-288 157,-324" stroke="orange"/>
     <text font-family="Microsoft YaHei" font-size="12.00" text-anchor="middle" x="78.5" y="-302.9">
      24. 两两交换链表中的节点
     </text>
    </a>
   </g>
   <g transform="translate(149.0, -330.0) scale(0.3)">
    <circle cx="24" cy="24" fill="#4caf50" r="21"/>
    <polygon fill="#ccff90" points="34.6,14.6 21,28.2 15.4,22.6 12.6,25.4 21,33.8 37.4,17.4"/>
   </g>
  </g>
  <!-- 206&#45;&gt;24 -->
  <g class="edge" id="edge3">
   <title>
    206-&gt;24
   </title>
   <path d="M107.11,-359.7C102.74,-351.64 97.44,-341.89 92.6,-332.98" fill="none" stroke="lightgrey"/>
   <polygon fill="lightgrey" points="95.63,-331.22 87.79,-324.1 89.48,-334.56 95.63,-331.22" stroke="lightgrey"/>
  </g>
  <!-- 92 -->
  <g class="node" id="node5">
   <title>
    92
   </title>
   <g id="a_node5">
    <a target="_parent" xlink:href="https://leetcode-cn.com/problems/reverse-linked-list-ii" xlink:title="92. 反转链表 II">
     <polygon fill="none" points="126.5,-252 30.5,-252 30.5,-216 126.5,-216 126.5,-252" stroke="orange"/>
     <text font-family="Microsoft YaHei" font-size="12.00" text-anchor="middle" x="78.5" y="-230.9">
      92. 反转链表 II
     </text>
    </a>
   </g>
   <g transform="translate(118.5, -258.0) scale(0.3)">
    <circle cx="24" cy="24" fill="#4caf50" r="21"/>
    <polygon fill="#ccff90" points="34.6,14.6 21,28.2 15.4,22.6 12.6,25.4 21,33.8 37.4,17.4"/>
   </g>
   <g transform="translate(117.5, -225.0)">
    <symbol id="flask" viewBox="0 0 448 512">
     <path d="M437.2 403.5L320 215V64h8c13.3 0 24-10.7 24-24V24c0-13.3-10.7-24-24-24H120c-13.3 0-24 10.7-24 24v16c0 13.3 10.7 24 24 24h8v151L10.8 403.5C-18.5 450.6 15.3 512 70.9 512h306.2c55.7 0 89.4-61.5 60.1-108.5zM137.9 320l48.2-77.6c3.7-5.2 5.8-11.6 5.8-18.4V64h64v160c0 6.9 2.2 13.2 5.8 18.4l48.2 77.6h-172z" fill="#1389fd"/>
    </symbol>
    <a href="https://github.com/acm-clan/algorithm-stone/blob/main/user/leetcode/92.反转链表 II.md">
     <use height="18" href="#flask" width="18"/>
    </a>
   </g>
  </g>
  <!-- 24&#45;&gt;92 -->
  <g class="edge" id="edge4">
   <title>
    24-&gt;92
   </title>
   <path d="M78.5,-287.7C78.5,-279.98 78.5,-270.71 78.5,-262.11" fill="none" stroke="lightgrey"/>
   <polygon fill="lightgrey" points="82,-262.1 78.5,-252.1 75,-262.1 82,-262.1" stroke="lightgrey"/>
  </g>
  <!-- 2 -->
  <g class="node" id="node7">
   <title>
    2
   </title>
   <g id="a_node7">
    <a target="_parent" xlink:href="https://leetcode-cn.com/problems/add-two-numbers" xlink:title="2. 两数相加">
     <polygon fill="none" points="280.5,-396 202.5,-396 202.5,-360 280.5,-360 280.5,-396" stroke="orange"/>
     <text font-family="Microsoft YaHei" font-size="12.00" text-anchor="middle" x="241.5" y="-374.9">
      2. 两数相加
     </text>
    </a>
   </g>
  </g>
  <!-- 构建新链表&#45;&gt;2 -->
  <g class="edge" id="edge6">
   <title>
    构建新链表-&gt;2
   </title>
   <path d="M252.79,-431.7C251.14,-423.98 249.15,-414.71 247.31,-406.11" fill="none" stroke="lightgrey"/>
   <polygon fill="lightgrey" points="250.68,-405.15 245.17,-396.1 243.84,-406.62 250.68,-405.15" stroke="lightgrey"/>
  </g>
  <!-- 445 -->
  <g class="node" id="node8">
   <title>
    445
   </title>
   <g id="a_node8">
    <a target="_parent" xlink:href="https://leetcode-cn.com/problems/add-two-numbers-ii" xlink:title="445. 两数相加 II">
     <polygon fill="none" points="278,-324 175,-324 175,-288 278,-288 278,-324" stroke="orange"/>
     <text font-family="Microsoft YaHei" font-size="12.00" text-anchor="middle" x="226.5" y="-302.9">
      445. 两数相加 II
     </text>
    </a>
   </g>
   <g transform="translate(270.0, -330.0) scale(0.3)">
    <circle cx="24" cy="24" fill="#4caf50" r="21"/>
    <polygon fill="#ccff90" points="34.6,14.6 21,28.2 15.4,22.6 12.6,25.4 21,33.8 37.4,17.4"/>
   </g>
  </g>
  <!-- 2&#45;&gt;445 -->
  <g class="edge" id="edge7">
   <title>
    2-&gt;445
   </title>
   <path d="M237.79,-359.7C236.14,-351.98 234.15,-342.71 232.31,-334.11" fill="none" stroke="lightgrey"/>
   <polygon fill="lightgrey" points="235.68,-333.15 230.17,-324.1 228.84,-334.62 235.68,-333.15" stroke="lightgrey"/>
  </g>
  <!-- 86 -->
  <g class="node" id="node9">
   <title>
    86
   </title>
   <g id="a_node9">
    <a target="_parent" xlink:href="https://leetcode-cn.com/problems/partition-list" xlink:title="86. 分隔链表">
     <polygon fill="none" points="269,-252 184,-252 184,-216 269,-216 269,-252" stroke="orange"/>
     <text font-family="Microsoft YaHei" font-size="12.00" text-anchor="middle" x="226.5" y="-230.9">
      86. 分隔链表
     </text>
    </a>
   </g>
   <g transform="translate(261.0, -258.0) scale(0.3)">
    <circle cx="24" cy="24" fill="#4caf50" r="21"/>
    <polygon fill="#ccff90" points="34.6,14.6 21,28.2 15.4,22.6 12.6,25.4 21,33.8 37.4,17.4"/>
   </g>
  </g>
  <!-- 445&#45;&gt;86 -->
  <g class="edge" id="edge8">
   <title>
    445-&gt;86
   </title>
   <path d="M226.5,-287.7C226.5,-279.98 226.5,-270.71 226.5,-262.11" fill="none" stroke="lightgrey"/>
   <polygon fill="lightgrey" points="230,-262.1 226.5,-252.1 223,-262.1 230,-262.1" stroke="lightgrey"/>
  </g>
  <!-- 1669 -->
  <g class="node" id="node10">
   <title>
    1669
   </title>
   <g id="a_node10">
    <a target="_parent" xlink:href="https://leetcode-cn.com/problems/merge-in-between-linked-lists" xlink:title="1669. 合并两个链表">
     <polygon fill="none" points="287.5,-180 165.5,-180 165.5,-144 287.5,-144 287.5,-180" stroke="orange"/>
     <text font-family="Microsoft YaHei" font-size="12.00" text-anchor="middle" x="226.5" y="-158.9">
      1669. 合并两个链表
     </text>
    </a>
   </g>
   <g transform="translate(279.5, -186.0) scale(0.3)">
    <circle cx="24" cy="24" fill="#4caf50" r="21"/>
    <polygon fill="#ccff90" points="34.6,14.6 21,28.2 15.4,22.6 12.6,25.4 21,33.8 37.4,17.4"/>
   </g>
  </g>
  <!-- 86&#45;&gt;1669 -->
  <g class="edge" id="edge9">
   <title>
    86-&gt;1669
   </title>
   <path d="M226.5,-215.7C226.5,-207.98 226.5,-198.71 226.5,-190.11" fill="none" stroke="lightgrey"/>
   <polygon fill="lightgrey" points="230,-190.1 226.5,-180.1 223,-190.1 230,-190.1" stroke="lightgrey"/>
  </g>
  <!-- 1290 -->
  <g class="node" id="node12">
   <title>
    1290
   </title>
   <g id="a_node12">
    <a target="_parent" xlink:href="https://leetcode-cn.com/problems/convert-binary-number-in-a-linked-list-to-integer" xlink:title="1290. 二进制链表转整数">
     <polygon fill="none" points="460.5,-396 314.5,-396 314.5,-360 460.5,-360 460.5,-396" stroke="greenyellow"/>
     <text font-family="Microsoft YaHei" font-size="12.00" text-anchor="middle" x="387.5" y="-374.9">
      1290. 二进制链表转整数
     </text>
    </a>
   </g>
   <g transform="translate(452.5, -402.0) scale(0.3)">
    <circle cx="24" cy="24" fill="#4caf50" r="21"/>
    <polygon fill="#ccff90" points="34.6,14.6 21,28.2 15.4,22.6 12.6,25.4 21,33.8 37.4,17.4"/>
   </g>
  </g>
  <!-- 链表和其他算法&#45;&gt;1290 -->
  <g class="edge" id="edge11">
   <title>
    链表和其他算法-&gt;1290
   </title>
   <path d="M387.5,-431.7C387.5,-423.98 387.5,-414.71 387.5,-406.11" fill="none" stroke="lightgrey"/>
   <polygon fill="lightgrey" points="391,-406.1 387.5,-396.1 384,-406.1 391,-406.1" stroke="lightgrey"/>
  </g>
  <!-- 1019 -->
  <g class="node" id="node13">
   <title>
    1019
   </title>
   <g id="a_node13">
    <a target="_parent" xlink:href="https://leetcode-cn.com/problems/next-greater-node-in-linked-list" xlink:title="1019. 链表中的下一个更大节点">
     <polygon fill="none" points="478.5,-324 296.5,-324 296.5,-288 478.5,-288 478.5,-324" stroke="orange"/>
     <text font-family="Microsoft YaHei" font-size="12.00" text-anchor="middle" x="387.5" y="-302.9">
      1019. 链表中的下一个更大节点
     </text>
    </a>
   </g>
   <g transform="translate(470.5, -330.0) scale(0.3)">
    <circle cx="24" cy="24" fill="#4caf50" r="21"/>
    <polygon fill="#ccff90" points="34.6,14.6 21,28.2 15.4,22.6 12.6,25.4 21,33.8 37.4,17.4"/>
   </g>
  </g>
  <!-- 1290&#45;&gt;1019 -->
  <g class="edge" id="edge12">
   <title>
    1290-&gt;1019
   </title>
   <path d="M387.5,-359.7C387.5,-351.98 387.5,-342.71 387.5,-334.11" fill="none" stroke="lightgrey"/>
   <polygon fill="lightgrey" points="391,-334.1 387.5,-324.1 384,-334.1 391,-334.1" stroke="lightgrey"/>
  </g>
  <!-- 147 -->
  <g class="node" id="node14">
   <title>
    147
   </title>
   <g id="a_node14">
    <a target="_parent" xlink:href="https://leetcode-cn.com/problems/insertion-sort-list" xlink:title="147. 对链表进行插入排序">
     <polygon fill="none" points="458.5,-252 306.5,-252 306.5,-216 458.5,-216 458.5,-252" stroke="orange"/>
     <text font-family="Microsoft YaHei" font-size="12.00" text-anchor="middle" x="382.5" y="-230.9">
      147. 对链表进行插入排序
     </text>
    </a>
   </g>
   <g transform="translate(450.5, -258.0) scale(0.3)">
    <circle cx="24" cy="24" fill="#4caf50" r="21"/>
    <polygon fill="#ccff90" points="34.6,14.6 21,28.2 15.4,22.6 12.6,25.4 21,33.8 37.4,17.4"/>
   </g>
  </g>
  <!-- 1019&#45;&gt;147 -->
  <g class="edge" id="edge13">
   <title>
    1019-&gt;147
   </title>
   <path d="M386.26,-287.7C385.71,-279.98 385.05,-270.71 384.44,-262.11" fill="none" stroke="lightgrey"/>
   <polygon fill="lightgrey" points="387.93,-261.83 383.72,-252.1 380.94,-262.33 387.93,-261.83" stroke="lightgrey"/>
  </g>
  <!-- 148 -->
  <g class="node" id="node15">
   <title>
    148
   </title>
   <g id="a_node15">
    <a target="_parent" xlink:href="https://leetcode-cn.com/problems/sort-list" xlink:title="148. 排序链表">
     <polygon fill="none" points="423.5,-180 331.5,-180 331.5,-144 423.5,-144 423.5,-180" stroke="orange"/>
     <text font-family="Microsoft YaHei" font-size="12.00" text-anchor="middle" x="377.5" y="-158.9">
      148. 排序链表
     </text>
    </a>
   </g>
   <g transform="translate(415.5, -186.0) scale(0.3)">
    <circle cx="24" cy="24" fill="#4caf50" r="21"/>
    <polygon fill="#ccff90" points="34.6,14.6 21,28.2 15.4,22.6 12.6,25.4 21,33.8 37.4,17.4"/>
   </g>
  </g>
  <!-- 147&#45;&gt;148 -->
  <g class="edge" id="edge14">
   <title>
    147-&gt;148
   </title>
   <path d="M381.26,-215.7C380.71,-207.98 380.05,-198.71 379.44,-190.11" fill="none" stroke="lightgrey"/>
   <polygon fill="lightgrey" points="382.93,-189.83 378.72,-180.1 375.94,-190.33 382.93,-189.83" stroke="lightgrey"/>
  </g>
  <!-- 138 -->
  <g class="node" id="node16">
   <title>
    138
   </title>
   <g id="a_node16">
    <a target="_parent" xlink:href="https://leetcode-cn.com/problems/copy-list-with-random-pointer" xlink:title="138. 复制带随机指针的链表">
     <polygon fill="none" points="451.5,-108 287.5,-108 287.5,-72 451.5,-72 451.5,-108" stroke="orange"/>
     <text font-family="Microsoft YaHei" font-size="12.00" text-anchor="middle" x="369.5" y="-86.9">
      138. 复制带随机指针的链表
     </text>
    </a>
   </g>
  </g>
  <!-- 148&#45;&gt;138 -->
  <g class="edge" id="edge15">
   <title>
    148-&gt;138
   </title>
   <path d="M375.52,-143.7C374.64,-135.98 373.58,-126.71 372.6,-118.11" fill="none" stroke="lightgrey"/>
   <polygon fill="lightgrey" points="376.07,-117.64 371.45,-108.1 369.11,-118.44 376.07,-117.64" stroke="lightgrey"/>
  </g>
  <!-- 876 -->
  <g class="node" id="node18">
   <title>
    876
   </title>
   <g id="a_node18">
    <a target="_parent" xlink:href="https://leetcode-cn.com/problems/middle-of-the-linked-list" xlink:title="876. 链表的中间结点">
     <polygon fill="none" points="606.5,-396 478.5,-396 478.5,-360 606.5,-360 606.5,-396" stroke="greenyellow"/>
     <text font-family="Microsoft YaHei" font-size="12.00" text-anchor="middle" x="542.5" y="-374.9">
      876. 链表的中间结点
     </text>
    </a>
   </g>
   <g transform="translate(598.5, -402.0) scale(0.3)">
    <circle cx="24" cy="24" fill="#4caf50" r="21"/>
    <polygon fill="#ccff90" points="34.6,14.6 21,28.2 15.4,22.6 12.6,25.4 21,33.8 37.4,17.4"/>
   </g>
  </g>
  <!-- 快慢指针&#45;&gt;876 -->
  <g class="edge" id="edge17">
   <title>
    快慢指针-&gt;876
   </title>
   <path d="M527.44,-431.7C529.67,-423.9 532.35,-414.51 534.83,-405.83" fill="none" stroke="lightgrey"/>
   <polygon fill="lightgrey" points="538.23,-406.68 537.61,-396.1 531.5,-404.76 538.23,-406.68" stroke="lightgrey"/>
  </g>
  <!-- 141 -->
  <g class="node" id="node19">
   <title>
    141
   </title>
   <g id="a_node19">
    <a target="_parent" xlink:href="https://leetcode-cn.com/problems/linked-list-cycle" xlink:title="141. 环形链表">
     <polygon fill="none" points="588.5,-324 496.5,-324 496.5,-288 588.5,-288 588.5,-324" stroke="greenyellow"/>
     <text font-family="Microsoft YaHei" font-size="12.00" text-anchor="middle" x="542.5" y="-302.9">
      141. 环形链表
     </text>
    </a>
   </g>
   <g transform="translate(580.5, -330.0) scale(0.3)">
    <circle cx="24" cy="24" fill="#4caf50" r="21"/>
    <polygon fill="#ccff90" points="34.6,14.6 21,28.2 15.4,22.6 12.6,25.4 21,33.8 37.4,17.4"/>
   </g>
  </g>
  <!-- 876&#45;&gt;141 -->
  <g class="edge" id="edge18">
   <title>
    876-&gt;141
   </title>
   <path d="M542.5,-359.7C542.5,-351.98 542.5,-342.71 542.5,-334.11" fill="none" stroke="lightgrey"/>
   <polygon fill="lightgrey" points="546,-334.1 542.5,-324.1 539,-334.1 546,-334.1" stroke="lightgrey"/>
  </g>
  <!-- 61 -->
  <g class="node" id="node20">
   <title>
    61
   </title>
   <g id="a_node20">
    <a target="_parent" xlink:href="https://leetcode-cn.com/problems/rotate-list" xlink:title="61. 旋转链表">
     <polygon fill="none" points="585,-252 500,-252 500,-216 585,-216 585,-252" stroke="orange"/>
     <text font-family="Microsoft YaHei" font-size="12.00" text-anchor="middle" x="542.5" y="-230.9">
      61. 旋转链表
     </text>
    </a>
   </g>
   <g transform="translate(577.0, -258.0) scale(0.3)">
    <circle cx="24" cy="24" fill="#4caf50" r="21"/>
    <polygon fill="#ccff90" points="34.6,14.6 21,28.2 15.4,22.6 12.6,25.4 21,33.8 37.4,17.4"/>
   </g>
  </g>
  <!-- 141&#45;&gt;61 -->
  <g class="edge" id="edge19">
   <title>
    141-&gt;61
   </title>
   <path d="M542.5,-287.7C542.5,-279.98 542.5,-270.71 542.5,-262.11" fill="none" stroke="lightgrey"/>
   <polygon fill="lightgrey" points="546,-262.1 542.5,-252.1 539,-262.1 546,-262.1" stroke="lightgrey"/>
  </g>
  <!-- 19 -->
  <g class="node" id="node21">
   <title>
    19
   </title>
   <g id="a_node21">
    <a target="_parent" xlink:href="https://leetcode-cn.com/problems/remove-nth-node-from-end-of-list" xlink:title="19. 删除链表的倒数第 N 个结点">
     <polygon fill="none" points="635.5,-180 449.5,-180 449.5,-144 635.5,-144 635.5,-180" stroke="orange"/>
     <text font-family="Microsoft YaHei" font-size="12.00" text-anchor="middle" x="542.5" y="-158.9">
      19. 删除链表的倒数第 N 个结点
     </text>
    </a>
   </g>
   <g transform="translate(627.5, -186.0) scale(0.3)">
    <circle cx="24" cy="24" fill="#4caf50" r="21"/>
    <polygon fill="#ccff90" points="34.6,14.6 21,28.2 15.4,22.6 12.6,25.4 21,33.8 37.4,17.4"/>
   </g>
  </g>
  <!-- 61&#45;&gt;19 -->
  <g class="edge" id="edge20">
   <title>
    61-&gt;19
   </title>
   <path d="M542.5,-215.7C542.5,-207.98 542.5,-198.71 542.5,-190.11" fill="none" stroke="lightgrey"/>
   <polygon fill="lightgrey" points="546,-190.1 542.5,-180.1 539,-190.1 546,-190.1" stroke="lightgrey"/>
  </g>
  <!-- 1721 -->
  <g class="node" id="node22">
   <title>
    1721
   </title>
   <g id="a_node22">
    <a target="_parent" xlink:href="https://leetcode-cn.com/problems/swapping-nodes-in-a-linked-list" xlink:title="1721. 交换链表中的节点">
     <polygon fill="none" points="615.5,-108 469.5,-108 469.5,-72 615.5,-72 615.5,-108" stroke="orange"/>
     <text font-family="Microsoft YaHei" font-size="12.00" text-anchor="middle" x="542.5" y="-86.9">
      1721. 交换链表中的节点
     </text>
    </a>
   </g>
   <g transform="translate(607.5, -114.0) scale(0.3)">
    <circle cx="24" cy="24" fill="#4caf50" r="21"/>
    <polygon fill="#ccff90" points="34.6,14.6 21,28.2 15.4,22.6 12.6,25.4 21,33.8 37.4,17.4"/>
   </g>
  </g>
  <!-- 19&#45;&gt;1721 -->
  <g class="edge" id="edge21">
   <title>
    19-&gt;1721
   </title>
   <path d="M542.5,-143.7C542.5,-135.98 542.5,-126.71 542.5,-118.11" fill="none" stroke="lightgrey"/>
   <polygon fill="lightgrey" points="546,-118.1 542.5,-108.1 539,-118.1 546,-118.1" stroke="lightgrey"/>
  </g>
  <!-- 142 -->
  <g class="node" id="node23">
   <title>
    142
   </title>
   <g id="a_node23">
    <a target="_parent" xlink:href="https://leetcode-cn.com/problems/linked-list-cycle-ii" xlink:title="142. 环形链表 II">
     <polygon fill="none" points="594,-36 491,-36 491,0 594,0 594,-36" stroke="orange"/>
     <text font-family="Microsoft YaHei" font-size="12.00" text-anchor="middle" x="542.5" y="-14.9">
      142. 环形链表 II
     </text>
    </a>
   </g>
   <g transform="translate(586.0, -42.0) scale(0.3)">
    <circle cx="24" cy="24" fill="#4caf50" r="21"/>
    <polygon fill="#ccff90" points="34.6,14.6 21,28.2 15.4,22.6 12.6,25.4 21,33.8 37.4,17.4"/>
   </g>
   <g transform="translate(585.0, -9.0)">
    <symbol id="flask" viewBox="0 0 448 512">
     <path d="M437.2 403.5L320 215V64h8c13.3 0 24-10.7 24-24V24c0-13.3-10.7-24-24-24H120c-13.3 0-24 10.7-24 24v16c0 13.3 10.7 24 24 24h8v151L10.8 403.5C-18.5 450.6 15.3 512 70.9 512h306.2c55.7 0 89.4-61.5 60.1-108.5zM137.9 320l48.2-77.6c3.7-5.2 5.8-11.6 5.8-18.4V64h64v160c0 6.9 2.2 13.2 5.8 18.4l48.2 77.6h-172z" fill="#1389fd"/>
    </symbol>
    <a href="https://github.com/acm-clan/algorithm-stone/blob/main/user/leetcode/142. 环形链表 II.md">
     <use height="18" href="#flask" width="18"/>
    </a>
   </g>
  </g>
  <!-- 1721&#45;&gt;142 -->
  <g class="edge" id="edge22">
   <title>
    1721-&gt;142
   </title>
   <path d="M542.5,-71.7C542.5,-63.98 542.5,-54.71 542.5,-46.11" fill="none" stroke="lightgrey"/>
   <polygon fill="lightgrey" points="546,-46.1 542.5,-36.1 539,-46.1 546,-46.1" stroke="lightgrey"/>
  </g>
  <!-- 237 -->
  <g class="node" id="node25">
   <title>
    237
   </title>
   <g id="a_node25">
    <a target="_parent" xlink:href="https://leetcode-cn.com/problems/delete-node-in-a-linked-list" xlink:title="237. 删除链表中的节点">
     <polygon fill="none" points="779.5,-396 639.5,-396 639.5,-360 779.5,-360 779.5,-396" stroke="greenyellow"/>
     <text font-family="Microsoft YaHei" font-size="12.00" text-anchor="middle" x="709.5" y="-374.9">
      237. 删除链表中的节点
     </text>
    </a>
   </g>
  </g>
  <!-- 删除链表&#45;&gt;237 -->
  <g class="edge" id="edge24">
   <title>
    删除链表-&gt;237
   </title>
   <path d="M669.6,-431.7C675.89,-423.39 683.55,-413.28 690.46,-404.14" fill="none" stroke="lightgrey"/>
   <polygon fill="lightgrey" points="693.3,-406.19 696.55,-396.1 687.72,-401.96 693.3,-406.19" stroke="lightgrey"/>
  </g>
  <!-- 203 -->
  <g class="node" id="node26">
   <title>
    203
   </title>
   <g id="a_node26">
    <a target="_parent" xlink:href="https://leetcode-cn.com/problems/remove-linked-list-elements" xlink:title="203. 移除链表元素">
     <polygon fill="none" points="797.5,-324 681.5,-324 681.5,-288 797.5,-288 797.5,-324" stroke="greenyellow"/>
     <text font-family="Microsoft YaHei" font-size="12.00" text-anchor="middle" x="739.5" y="-302.9">
      203. 移除链表元素
     </text>
    </a>
   </g>
   <g transform="translate(789.5, -330.0) scale(0.3)">
    <circle cx="24" cy="24" fill="#4caf50" r="21"/>
    <polygon fill="#ccff90" points="34.6,14.6 21,28.2 15.4,22.6 12.6,25.4 21,33.8 37.4,17.4"/>
   </g>
  </g>
  <!-- 237&#45;&gt;203 -->
  <g class="edge" id="edge25">
   <title>
    237-&gt;203
   </title>
   <path d="M716.92,-359.7C720.29,-351.81 724.37,-342.3 728.12,-333.55" fill="none" stroke="lightgrey"/>
   <polygon fill="lightgrey" points="731.45,-334.67 732.17,-324.1 725.01,-331.92 731.45,-334.67" stroke="lightgrey"/>
  </g>
  <!-- 83 -->
  <g class="node" id="node27">
   <title>
    83
   </title>
   <g id="a_node27">
    <a target="_parent" xlink:href="https://leetcode-cn.com/problems/remove-duplicates-from-sorted-list" xlink:title="83. 删除排序链表中的重复元素">
     <polygon fill="none" points="836,-252 655,-252 655,-216 836,-216 836,-252" stroke="greenyellow"/>
     <text font-family="Microsoft YaHei" font-size="12.00" text-anchor="middle" x="745.5" y="-230.9">
      83. 删除排序链表中的重复元素
     </text>
    </a>
   </g>
   <g transform="translate(828.0, -258.0) scale(0.3)">
    <circle cx="24" cy="24" fill="#4caf50" r="21"/>
    <polygon fill="#ccff90" points="34.6,14.6 21,28.2 15.4,22.6 12.6,25.4 21,33.8 37.4,17.4"/>
   </g>
  </g>
  <!-- 203&#45;&gt;83 -->
  <g class="edge" id="edge26">
   <title>
    203-&gt;83
   </title>
   <path d="M740.98,-287.7C741.64,-279.98 742.44,-270.71 743.18,-262.11" fill="none" stroke="lightgrey"/>
   <polygon fill="lightgrey" points="746.67,-262.37 744.03,-252.1 739.69,-261.77 746.67,-262.37" stroke="lightgrey"/>
  </g>
  <!-- 82 -->
  <g class="node" id="node28">
   <title>
    82
   </title>
   <g id="a_node28">
    <a target="_parent" xlink:href="https://leetcode-cn.com/problems/remove-duplicates-from-sorted-list-ii" xlink:title="82. 删除排序链表中的重复元素 II">
     <polygon fill="none" points="848.5,-180 656.5,-180 656.5,-144 848.5,-144 848.5,-180" stroke="orange"/>
     <text font-family="Microsoft YaHei" font-size="12.00" text-anchor="middle" x="752.5" y="-158.9">
      82. 删除排序链表中的重复元素 II
     </text>
    </a>
   </g>
   <g transform="translate(840.5, -186.0) scale(0.3)">
    <circle cx="24" cy="24" fill="#4caf50" r="21"/>
    <polygon fill="#ccff90" points="34.6,14.6 21,28.2 15.4,22.6 12.6,25.4 21,33.8 37.4,17.4"/>
   </g>
  </g>
  <!-- 83&#45;&gt;82 -->
  <g class="edge" id="edge27">
   <title>
    83-&gt;82
   </title>
   <path d="M747.23,-215.7C748,-207.98 748.93,-198.71 749.79,-190.11" fill="none" stroke="lightgrey"/>
   <polygon fill="lightgrey" points="753.28,-190.4 750.79,-180.1 746.31,-189.71 753.28,-190.4" stroke="lightgrey"/>
  </g>
  <!-- 1171 -->
  <g class="node" id="node29">
   <title>
    1171
   </title>
   <g id="a_node29">
    <a target="_parent" xlink:href="https://leetcode-cn.com/problems/remove-zero-sum-consecutive-nodes-from-linked-list" xlink:title="1171. 从链表中删去总和值为零的连续节点">
     <polygon fill="none" points="875.5,-108 633.5,-108 633.5,-72 875.5,-72 875.5,-108" stroke="orange"/>
     <text font-family="Microsoft YaHei" font-size="12.00" text-anchor="middle" x="754.5" y="-86.9">
      1171. 从链表中删去总和值为零的连续节点
     </text>
    </a>
   </g>
  </g>
  <!-- 82&#45;&gt;1171 -->
  <g class="edge" id="edge28">
   <title>
    82-&gt;1171
   </title>
   <path d="M752.99,-143.7C753.21,-135.98 753.48,-126.71 753.73,-118.11" fill="none" stroke="lightgrey"/>
   <polygon fill="lightgrey" points="757.22,-118.2 754.01,-108.1 750.23,-118 757.22,-118.2" stroke="lightgrey"/>
  </g>
  <g class="key">
   <defs>
    <filter height="1.2" id="solid" width="1.2" x="-0.1" y="-0.1">
     <feFlood flood-color="#ccff90" result="bg"/>
     <feMerge>
      <feMergeNode in="bg"/>
      <feMergeNode in="SourceGraphic"/>
     </feMerge>
    </filter>
   </defs>
   <text filter="url(#solid)" font-family="Microsoft YaHei" font-size="10.00" text-anchor="middle" x="387.5" y="-355.0">
    位运算
   </text>
  </g>
  <g class="key">
   <defs>
    <filter height="1.2" id="solid" width="1.2" x="-0.1" y="-0.1">
     <feFlood flood-color="#ccff90" result="bg"/>
     <feMerge>
      <feMergeNode in="bg"/>
      <feMergeNode in="SourceGraphic"/>
     </feMerge>
    </filter>
   </defs>
   <text filter="url(#solid)" font-family="Microsoft YaHei" font-size="10.00" text-anchor="middle" x="382.5" y="-211.0">
    插入排序
   </text>
  </g>
  <g class="key">
   <defs>
    <filter height="1.2" id="solid" width="1.2" x="-0.1" y="-0.1">
     <feFlood flood-color="#ccff90" result="bg"/>
     <feMerge>
      <feMergeNode in="bg"/>
      <feMergeNode in="SourceGraphic"/>
     </feMerge>
    </filter>
   </defs>
   <text filter="url(#solid)" font-family="Microsoft YaHei" font-size="10.00" text-anchor="middle" x="377.5" y="-139.0">
    添加非递归的方法
   </text>
  </g>
  <g class="key">
   <defs>
    <filter height="1.2" id="solid" width="1.2" x="-0.1" y="-0.1">
     <feFlood flood-color="#ccff90" result="bg"/>
     <feMerge>
      <feMergeNode in="bg"/>
      <feMergeNode in="SourceGraphic"/>
     </feMerge>
    </filter>
   </defs>
   <text filter="url(#solid)" font-family="Microsoft YaHei" font-size="10.00" text-anchor="middle" x="369.5" y="-67.0">
    map映射
   </text>
  </g>
  <g class="key">
   <defs>
    <filter height="1.2" id="solid" width="1.2" x="-0.1" y="-0.1">
     <feFlood flood-color="#ccff90" result="bg"/>
     <feMerge>
      <feMergeNode in="bg"/>
      <feMergeNode in="SourceGraphic"/>
     </feMerge>
    </filter>
   </defs>
   <text filter="url(#solid)" font-family="Microsoft YaHei" font-size="10.00" text-anchor="middle" x="542.5" y="5.0">
    公式推理
   </text>
  </g>
  <g class="key">
   <defs>
    <filter height="1.2" id="solid" width="1.2" x="-0.1" y="-0.1">
     <feFlood flood-color="#ccff90" result="bg"/>
     <feMerge>
      <feMergeNode in="bg"/>
      <feMergeNode in="SourceGraphic"/>
     </feMerge>
    </filter>
   </defs>
   <text filter="url(#solid)" font-family="Microsoft YaHei" font-size="10.00" text-anchor="middle" x="709.5" y="-355.0">
    简单删除
   </text>
  </g>
  <g class="key">
   <defs>
    <filter height="1.2" id="solid" width="1.2" x="-0.1" y="-0.1">
     <feFlood flood-color="#ccff90" result="bg"/>
     <feMerge>
      <feMergeNode in="bg"/>
      <feMergeNode in="SourceGraphic"/>
     </feMerge>
    </filter>
   </defs>
   <text filter="url(#solid)" font-family="Microsoft YaHei" font-size="10.00" text-anchor="middle" x="739.5" y="-283.0">
    删除多个
   </text>
  </g>
 </g>
</svg>