<?xml version="1.0" encoding="utf-8"?>
<!DOCTYPE svg PUBLIC "-//W3C//DTD SVG 1.1//EN" "http://www.w3.org/Graphics/SVG/1.1/DTD/svg11.dtd">
<!-- Generated by graphviz version 2.50.0 (20211204.2007)
 -->
<!-- Title: stones Pages: 1 -->
<svg height="742pt" viewBox="0.00 0.00 240.0 742.0" width="240pt" xmlns="http://www.w3.org/2000/svg" xmlns:xlink="http://www.w3.org/1999/xlink">
 <g class="graph" id="graph0" transform="scale(1 1) rotate(0) translate(4 688)">
  <title>
   stones
  </title>
  <polygon fill="white" points="-4,4 -4,-688 186,-688 186,4 -4,4" stroke="transparent"/>
  <!-- Leetcode&#45;几何 -->
  <g class="node" id="node1">
   <title>
    Leetcode-几何
   </title>
   <g id="a_node1">
    <a target="_parent" xlink:href="https://leetcode-cn.com/tag/geometry" xlink:title="Leetcode-几何(9)">
     <polygon fill="orangered" points="156.5,-684 25.5,-684 25.5,-648 156.5,-648 156.5,-684" stroke="lightgrey"/>
     <text fill="white" font-family="Microsoft YaHei" font-size="14.00" text-anchor="middle" x="91" y="-662.3">
      Leetcode-几何(9)
     </text>
    </a>
   </g>
  </g>
  <!-- 892 -->
  <g class="node" id="node2">
   <title>
    892
   </title>
   <g id="a_node2">
    <a target="_parent" xlink:href="https://leetcode-cn.com/problems/surface-area-of-3d-shapes" xlink:title="892. 三维形体的表面积">
     <polygon fill="none" points="161,-612 21,-612 21,-576 161,-576 161,-612" stroke="greenyellow"/>
     <text font-family="Microsoft YaHei" font-size="12.00" text-anchor="middle" x="91" y="-590.9">
      892. 三维形体的表面积
     </text>
    </a>
   </g>
   <g transform="translate(153.0, -618.0) scale(0.3)">
    <circle cx="24" cy="24" fill="#4caf50" r="21"/>
    <polygon fill="#ccff90" points="34.6,14.6 21,28.2 15.4,22.6 12.6,25.4 21,33.8 37.4,17.4"/>
   </g>
  </g>
  <!-- Leetcode&#45;几何&#45;&gt;892 -->
  <g class="edge" id="edge1">
   <title>
    Leetcode-几何-&gt;892
   </title>
   <path d="M91,-647.7C91,-639.98 91,-630.71 91,-622.11" fill="none" stroke="lightgrey"/>
   <polygon fill="lightgrey" points="94.5,-622.1 91,-612.1 87.5,-622.1 94.5,-622.1" stroke="lightgrey"/>
  </g>
  <!-- 1232 -->
  <g class="node" id="node3">
   <title>
    1232
   </title>
   <g id="a_node3">
    <a target="_parent" xlink:href="https://leetcode-cn.com/problems/check-if-it-is-a-straight-line" xlink:title="1232. 缀点成线">
     <polygon fill="none" points="140,-540 42,-540 42,-504 140,-504 140,-540" stroke="greenyellow"/>
     <text font-family="Microsoft YaHei" font-size="12.00" text-anchor="middle" x="91" y="-518.9">
      1232. 缀点成线
     </text>
    </a>
   </g>
   <g transform="translate(132.0, -546.0) scale(0.3)">
    <circle cx="24" cy="24" fill="#4caf50" r="21"/>
    <polygon fill="#ccff90" points="34.6,14.6 21,28.2 15.4,22.6 12.6,25.4 21,33.8 37.4,17.4"/>
   </g>
  </g>
  <!-- 892&#45;&gt;1232 -->
  <g class="edge" id="edge2">
   <title>
    892-&gt;1232
   </title>
   <path d="M91,-575.7C91,-567.98 91,-558.71 91,-550.11" fill="none" stroke="lightgrey"/>
   <polygon fill="lightgrey" points="94.5,-550.1 91,-540.1 87.5,-550.1 94.5,-550.1" stroke="lightgrey"/>
  </g>
  <!-- 1266 -->
  <g class="node" id="node4">
   <title>
    1266
   </title>
   <g id="a_node4">
    <a target="_parent" xlink:href="https://leetcode-cn.com/problems/minimum-time-visiting-all-points" xlink:title="1266. 访问所有点的最小时间">
     <polygon fill="none" points="176,-468 6,-468 6,-432 176,-432 176,-468" stroke="greenyellow"/>
     <text font-family="Microsoft YaHei" font-size="12.00" text-anchor="middle" x="91" y="-446.9">
      1266. 访问所有点的最小时间
     </text>
    </a>
   </g>
   <g transform="translate(168.0, -474.0) scale(0.3)">
    <circle cx="24" cy="24" fill="#4caf50" r="21"/>
    <polygon fill="#ccff90" points="34.6,14.6 21,28.2 15.4,22.6 12.6,25.4 21,33.8 37.4,17.4"/>
   </g>
  </g>
  <!-- 1232&#45;&gt;1266 -->
  <g class="edge" id="edge3">
   <title>
    1232-&gt;1266
   </title>
   <path d="M91,-503.7C91,-495.98 91,-486.71 91,-478.11" fill="none" stroke="lightgrey"/>
   <polygon fill="lightgrey" points="94.5,-478.1 91,-468.1 87.5,-478.1 94.5,-478.1" stroke="lightgrey"/>
  </g>
  <!-- 963 -->
  <g class="node" id="node5">
   <title>
    963
   </title>
   <g id="a_node5">
    <a target="_parent" xlink:href="https://leetcode-cn.com/problems/minimum-area-rectangle-ii" xlink:title="963. 最小面积矩形 II">
     <polygon fill="none" points="154.5,-396 27.5,-396 27.5,-360 154.5,-360 154.5,-396" stroke="orange"/>
     <text font-family="Microsoft YaHei" font-size="12.00" text-anchor="middle" x="91" y="-374.9">
      963. 最小面积矩形 II
     </text>
    </a>
   </g>
   <g transform="translate(146.5, -402.0) scale(0.3)">
    <circle cx="24" cy="24" fill="#4caf50" r="21"/>
    <polygon fill="#ccff90" points="34.6,14.6 21,28.2 15.4,22.6 12.6,25.4 21,33.8 37.4,17.4"/>
   </g>
  </g>
  <!-- 1266&#45;&gt;963 -->
  <g class="edge" id="edge4">
   <title>
    1266-&gt;963
   </title>
   <path d="M91,-431.7C91,-423.98 91,-414.71 91,-406.11" fill="none" stroke="lightgrey"/>
   <polygon fill="lightgrey" points="94.5,-406.1 91,-396.1 87.5,-406.1 94.5,-406.1" stroke="lightgrey"/>
  </g>
  <!-- 1401 -->
  <g class="node" id="node6">
   <title>
    1401
   </title>
   <g id="a_node6">
    <a target="_parent" xlink:href="https://leetcode-cn.com/problems/circle-and-rectangle-overlapping" xlink:title="1401. 圆和矩形是否有重叠">
     <polygon fill="none" points="170,-324 12,-324 12,-288 170,-288 170,-324" stroke="orange"/>
     <text font-family="Microsoft YaHei" font-size="12.00" text-anchor="middle" x="91" y="-302.9">
      1401. 圆和矩形是否有重叠
     </text>
    </a>
   </g>
   <g transform="translate(162.0, -330.0) scale(0.3)">
    <circle cx="24" cy="24" fill="#4caf50" r="21"/>
    <polygon fill="#ccff90" points="34.6,14.6 21,28.2 15.4,22.6 12.6,25.4 21,33.8 37.4,17.4"/>
   </g>
  </g>
  <!-- 963&#45;&gt;1401 -->
  <g class="edge" id="edge5">
   <title>
    963-&gt;1401
   </title>
   <path d="M91,-359.7C91,-351.98 91,-342.71 91,-334.11" fill="none" stroke="lightgrey"/>
   <polygon fill="lightgrey" points="94.5,-334.1 91,-324.1 87.5,-334.1 94.5,-334.1" stroke="lightgrey"/>
  </g>
  <!-- 587 -->
  <g class="node" id="node7">
   <title>
    587
   </title>
   <g id="a_node7">
    <a target="_parent" xlink:href="https://leetcode-cn.com/problems/erect-the-fence" xlink:title="587. 安装栅栏">
     <polygon fill="none" points="137,-252 45,-252 45,-216 137,-216 137,-252" stroke="red"/>
     <text font-family="Microsoft YaHei" font-size="12.00" text-anchor="middle" x="91" y="-230.9">
      587. 安装栅栏
     </text>
    </a>
   </g>
   <g transform="translate(129.0, -258.0) scale(0.3)">
    <circle cx="24" cy="24" fill="#4caf50" r="21"/>
    <polygon fill="#ccff90" points="34.6,14.6 21,28.2 15.4,22.6 12.6,25.4 21,33.8 37.4,17.4"/>
   </g>
  </g>
  <!-- 1401&#45;&gt;587 -->
  <g class="edge" id="edge6">
   <title>
    1401-&gt;587
   </title>
   <path d="M91,-287.7C91,-279.98 91,-270.71 91,-262.11" fill="none" stroke="lightgrey"/>
   <polygon fill="lightgrey" points="94.5,-262.1 91,-252.1 87.5,-262.1 94.5,-262.1" stroke="lightgrey"/>
  </g>
  <!-- 1453 -->
  <g class="node" id="node8">
   <title>
    1453
   </title>
   <g id="a_node8">
    <a target="_parent" xlink:href="https://leetcode-cn.com/problems/maximum-number-of-darts-inside-of-a-circular-dartboard" xlink:title="1453. 圆形靶内的最大飞镖数量">
     <polygon fill="none" points="182,-180 0,-180 0,-144 182,-144 182,-180" stroke="red"/>
     <text font-family="Microsoft YaHei" font-size="12.00" text-anchor="middle" x="91" y="-158.9">
      1453. 圆形靶内的最大飞镖数量
     </text>
    </a>
   </g>
   <g transform="translate(174.0, -186.0) scale(0.3)">
    <circle cx="24" cy="24" fill="#4caf50" r="21"/>
    <polygon fill="#ccff90" points="34.6,14.6 21,28.2 15.4,22.6 12.6,25.4 21,33.8 37.4,17.4"/>
   </g>
  </g>
  <!-- 587&#45;&gt;1453 -->
  <g class="edge" id="edge7">
   <title>
    587-&gt;1453
   </title>
   <path d="M91,-215.7C91,-207.98 91,-198.71 91,-190.11" fill="none" stroke="lightgrey"/>
   <polygon fill="lightgrey" points="94.5,-190.1 91,-180.1 87.5,-190.1 94.5,-190.1" stroke="lightgrey"/>
  </g>
  <!-- 1515 -->
  <g class="node" id="node9">
   <title>
    1515
   </title>
   <g id="a_node9">
    <a target="_parent" xlink:href="https://leetcode-cn.com/problems/best-position-for-a-service-centre" xlink:title="1515. 服务中心的最佳位置">
     <polygon fill="none" points="170,-108 12,-108 12,-72 170,-72 170,-108" stroke="red"/>
     <text font-family="Microsoft YaHei" font-size="12.00" text-anchor="middle" x="91" y="-86.9">
      1515. 服务中心的最佳位置
     </text>
    </a>
   </g>
   <g transform="translate(162.0, -114.0) scale(0.3)">
    <circle cx="24" cy="24" fill="#4caf50" r="21"/>
    <polygon fill="#ccff90" points="34.6,14.6 21,28.2 15.4,22.6 12.6,25.4 21,33.8 37.4,17.4"/>
   </g>
  </g>
  <!-- 1453&#45;&gt;1515 -->
  <g class="edge" id="edge8">
   <title>
    1453-&gt;1515
   </title>
   <path d="M91,-143.7C91,-135.98 91,-126.71 91,-118.11" fill="none" stroke="lightgrey"/>
   <polygon fill="lightgrey" points="94.5,-118.1 91,-108.1 87.5,-118.1 94.5,-118.1" stroke="lightgrey"/>
  </g>
  <!-- 1610 -->
  <g class="node" id="node10">
   <title>
    1610
   </title>
   <g id="a_node10">
    <a target="_parent" xlink:href="https://leetcode-cn.com/problems/maximum-number-of-visible-points" xlink:title="1610. 可见点的最大数目">
     <polygon fill="none" points="164,-36 18,-36 18,0 164,0 164,-36" stroke="red"/>
     <text font-family="Microsoft YaHei" font-size="12.00" text-anchor="middle" x="91" y="-14.9">
      1610. 可见点的最大数目
     </text>
    </a>
   </g>
   <g transform="translate(156.0, -42.0) scale(0.3)">
    <circle cx="24" cy="24" fill="#4caf50" r="21"/>
    <polygon fill="#ccff90" points="34.6,14.6 21,28.2 15.4,22.6 12.6,25.4 21,33.8 37.4,17.4"/>
   </g>
  </g>
  <!-- 1515&#45;&gt;1610 -->
  <g class="edge" id="edge9">
   <title>
    1515-&gt;1610
   </title>
   <path d="M91,-71.7C91,-63.98 91,-54.71 91,-46.11" fill="none" stroke="lightgrey"/>
   <polygon fill="lightgrey" points="94.5,-46.1 91,-36.1 87.5,-46.1 94.5,-46.1" stroke="lightgrey"/>
  </g>
  <g class="key">
   <defs>
    <filter height="1.2" id="solid" width="1.2" x="-0.1" y="-0.1">
     <feFlood flood-color="#ccff90" result="bg"/>
     <feMerge>
      <feMergeNode in="bg"/>
      <feMergeNode in="SourceGraphic"/>
     </feMerge>
    </filter>
   </defs>
   <text filter="url(#solid)" font-family="Microsoft YaHei" font-size="10.00" text-anchor="middle" x="91.0" y="-571.0">
    表面积
   </text>
  </g>
  <g class="key">
   <defs>
    <filter height="1.2" id="solid" width="1.2" x="-0.1" y="-0.1">
     <feFlood flood-color="#ccff90" result="bg"/>
     <feMerge>
      <feMergeNode in="bg"/>
      <feMergeNode in="SourceGraphic"/>
     </feMerge>
    </filter>
   </defs>
   <text filter="url(#solid)" font-family="Microsoft YaHei" font-size="10.00" text-anchor="middle" x="91.0" y="-499.0">
    点与线
   </text>
  </g>
  <g class="key">
   <defs>
    <filter height="1.2" id="solid" width="1.2" x="-0.1" y="-0.1">
     <feFlood flood-color="#ccff90" result="bg"/>
     <feMerge>
      <feMergeNode in="bg"/>
      <feMergeNode in="SourceGraphic"/>
     </feMerge>
    </filter>
   </defs>
   <text filter="url(#solid)" font-family="Microsoft YaHei" font-size="10.00" text-anchor="middle" x="91.0" y="-427.0">
    斜线与直线
   </text>
  </g>
  <g class="key">
   <defs>
    <filter height="1.2" id="solid" width="1.2" x="-0.1" y="-0.1">
     <feFlood flood-color="#ccff90" result="bg"/>
     <feMerge>
      <feMergeNode in="bg"/>
      <feMergeNode in="SourceGraphic"/>
     </feMerge>
    </filter>
   </defs>
   <text filter="url(#solid)" font-family="Microsoft YaHei" font-size="10.00" text-anchor="middle" x="91.0" y="-355.0">
    点与矩形
   </text>
  </g>
  <g class="key">
   <defs>
    <filter height="1.2" id="solid" width="1.2" x="-0.1" y="-0.1">
     <feFlood flood-color="#ccff90" result="bg"/>
     <feMerge>
      <feMergeNode in="bg"/>
      <feMergeNode in="SourceGraphic"/>
     </feMerge>
    </filter>
   </defs>
   <text filter="url(#solid)" font-family="Microsoft YaHei" font-size="10.00" text-anchor="middle" x="91.0" y="-283.0">
    圆与矩形
   </text>
  </g>
  <g class="key">
   <defs>
    <filter height="1.2" id="solid" width="1.2" x="-0.1" y="-0.1">
     <feFlood flood-color="#ccff90" result="bg"/>
     <feMerge>
      <feMergeNode in="bg"/>
      <feMergeNode in="SourceGraphic"/>
     </feMerge>
    </filter>
   </defs>
   <text filter="url(#solid)" font-family="Microsoft YaHei" font-size="10.00" text-anchor="middle" x="91.0" y="-211.0">
    多边形与凸包
   </text>
  </g>
  <g class="key">
   <defs>
    <filter height="1.2" id="solid" width="1.2" x="-0.1" y="-0.1">
     <feFlood flood-color="#ccff90" result="bg"/>
     <feMerge>
      <feMergeNode in="bg"/>
      <feMergeNode in="SourceGraphic"/>
     </feMerge>
    </filter>
   </defs>
   <text filter="url(#solid)" font-family="Microsoft YaHei" font-size="10.00" text-anchor="middle" x="91.0" y="-139.0">
    圆与点
   </text>
  </g>
  <g class="key">
   <defs>
    <filter height="1.2" id="solid" width="1.2" x="-0.1" y="-0.1">
     <feFlood flood-color="#ccff90" result="bg"/>
     <feMerge>
      <feMergeNode in="bg"/>
      <feMergeNode in="SourceGraphic"/>
     </feMerge>
    </filter>
   </defs>
   <text filter="url(#solid)" font-family="Microsoft YaHei" font-size="10.00" text-anchor="middle" x="91.0" y="-67.0">
    凸函数最值
   </text>
  </g>
  <g class="key">
   <defs>
    <filter height="1.2" id="solid" width="1.2" x="-0.1" y="-0.1">
     <feFlood flood-color="#ccff90" result="bg"/>
     <feMerge>
      <feMergeNode in="bg"/>
      <feMergeNode in="SourceGraphic"/>
     </feMerge>
    </filter>
   </defs>
   <text filter="url(#solid)" font-family="Microsoft YaHei" font-size="10.00" text-anchor="middle" x="91.0" y="5.0">
    扇形
   </text>
  </g>
 </g>
</svg>