<?xml version="1.0" encoding="utf-8"?>
<!DOCTYPE svg PUBLIC "-//W3C//DTD SVG 1.1//EN" "http://www.w3.org/Graphics/SVG/1.1/DTD/svg11.dtd">
<!-- Generated by graphviz version 2.46.1 (20210213.1702)
 -->
<!-- Title: stones Pages: 1 -->
<svg height="310pt" viewBox="0.00 0.00 203.0 310.0" width="203pt" xmlns="http://www.w3.org/2000/svg" xmlns:xlink="http://www.w3.org/1999/xlink">
 <g class="graph" id="graph0" transform="scale(1 1) rotate(0) translate(4 256)">
  <title>
   stones
  </title>
  <polygon fill="white" points="-4,4 -4,-256 149,-256 149,4 -4,4" stroke="transparent"/>
  <!-- Leetcode&#45;并查集 -->
  <g class="node" id="node1">
   <title>
    Leetcode-并查集
   </title>
   <g id="a_node1">
    <a target="_parent" xlink:href="https://leetcode-cn.com/tag/union-find" xlink:title="Leetcode-并查集(2)">
     <polygon fill="orangered" points="145,-252 0,-252 0,-216 145,-216 145,-252" stroke="lightgrey"/>
     <text fill="white" font-family="Microsoft YaHei" font-size="14.00" text-anchor="middle" x="72.5" y="-230.3">
      Leetcode-并查集(2)
     </text>
    </a>
   </g>
  </g>
  <!-- 并查集与搜索 -->
  <g class="node" id="node2">
   <title>
    并查集与搜索
   </title>
   <polygon fill="lightslategray" points="124,-180 21,-180 21,-144 124,-144 124,-180" stroke="lightgrey"/>
   <text fill="white" font-family="Microsoft YaHei" font-size="12.00" text-anchor="middle" x="72.5" y="-158.9">
    并查集与搜索(2)
   </text>
  </g>
  <!-- Leetcode&#45;并查集&#45;&gt;并查集与搜索 -->
  <g class="edge" id="edge1">
   <title>
    Leetcode-并查集-&gt;并查集与搜索
   </title>
   <path d="M72.5,-215.7C72.5,-207.98 72.5,-198.71 72.5,-190.11" fill="none" stroke="lightgrey"/>
   <polygon fill="lightgrey" points="76,-190.1 72.5,-180.1 69,-190.1 76,-190.1" stroke="lightgrey"/>
  </g>
  <!-- 130 -->
  <g class="node" id="node3">
   <title>
    130
   </title>
   <g id="a_node3">
    <a target="_parent" xlink:href="https://leetcode-cn.com/problems/surrounded-regions" xlink:title="130. 被围绕的区域">
     <polygon fill="none" points="130.5,-108 14.5,-108 14.5,-72 130.5,-72 130.5,-108" stroke="orange"/>
     <text font-family="Microsoft YaHei" font-size="12.00" text-anchor="middle" x="72.5" y="-86.9">
      130. 被围绕的区域
     </text>
    </a>
   </g>
   <g transform="translate(122.5, -114.0) scale(0.3)">
    <circle cx="24" cy="24" fill="#4caf50" r="21"/>
    <polygon fill="#ccff90" points="34.6,14.6 21,28.2 15.4,22.6 12.6,25.4 21,33.8 37.4,17.4"/>
   </g>
  </g>
  <!-- 并查集与搜索&#45;&gt;130 -->
  <g class="edge" id="edge2">
   <title>
    并查集与搜索-&gt;130
   </title>
   <path d="M72.5,-143.7C72.5,-135.98 72.5,-126.71 72.5,-118.11" fill="none" stroke="lightgrey"/>
   <polygon fill="lightgrey" points="76,-118.1 72.5,-108.1 69,-118.1 76,-118.1" stroke="lightgrey"/>
  </g>
  <!-- 200 -->
  <g class="node" id="node4">
   <title>
    200
   </title>
   <g id="a_node4">
    <a target="_parent" xlink:href="https://leetcode-cn.com/problems/number-of-islands" xlink:title="200. 岛屿数量">
     <polygon fill="none" points="118.5,-36 26.5,-36 26.5,0 118.5,0 118.5,-36" stroke="orange"/>
     <text font-family="Microsoft YaHei" font-size="12.00" text-anchor="middle" x="72.5" y="-14.9">
      200. 岛屿数量
     </text>
    </a>
   </g>
   <g transform="translate(110.5, -42.0) scale(0.3)">
    <circle cx="24" cy="24" fill="#4caf50" r="21"/>
    <polygon fill="#ccff90" points="34.6,14.6 21,28.2 15.4,22.6 12.6,25.4 21,33.8 37.4,17.4"/>
   </g>
  </g>
  <!-- 130&#45;&gt;200 -->
  <g class="edge" id="edge3">
   <title>
    130-&gt;200
   </title>
   <path d="M72.5,-71.7C72.5,-63.98 72.5,-54.71 72.5,-46.11" fill="none" stroke="lightgrey"/>
   <polygon fill="lightgrey" points="76,-46.1 72.5,-36.1 69,-46.1 76,-46.1" stroke="lightgrey"/>
  </g>
 </g>
</svg>