<?xml version="1.0" encoding="utf-8"?>
<!DOCTYPE svg PUBLIC "-//W3C//DTD SVG 1.1//EN" "http://www.w3.org/Graphics/SVG/1.1/DTD/svg11.dtd">
<!-- Generated by graphviz version 2.46.1 (20210213.1702)
 -->
<!-- Title: stones Pages: 1 -->
<svg height="2902pt" viewBox="0.00 0.00 481.0 2902.0" width="481pt" xmlns="http://www.w3.org/2000/svg" xmlns:xlink="http://www.w3.org/1999/xlink">
 <g class="graph" id="graph0" transform="scale(1 1) rotate(0) translate(4 2848)">
  <title>
   stones
  </title>
  <polygon fill="white" points="-4,4 -4,-2848 427,-2848 427,4 -4,4" stroke="transparent"/>
  <!-- Leetcode&#45;栈堆队列 -->
  <g class="node" id="node1">
   <title>
    Leetcode-栈堆队列
   </title>
   <g id="a_node1">
    <a target="_parent" xlink:href="https://leetcode-cn.com/tag/" xlink:title="Leetcode-栈堆队列(46)">
     <polygon fill="orangered" points="272.5,-2844 104.5,-2844 104.5,-2808 272.5,-2808 272.5,-2844" stroke="lightgrey"/>
     <text fill="white" font-family="Microsoft YaHei" font-size="14.00" text-anchor="middle" x="188.5" y="-2822.3">
      Leetcode-栈堆队列(46)
     </text>
    </a>
   </g>
  </g>
  <!-- 堆 -->
  <g class="node" id="node2">
   <title>
    堆
   </title>
   <polygon fill="lightslategray" points="179.5,-2772 125.5,-2772 125.5,-2736 179.5,-2736 179.5,-2772" stroke="lightgrey"/>
   <text fill="white" font-family="Microsoft YaHei" font-size="12.00" text-anchor="middle" x="152.5" y="-2750.9">
    堆(38)
   </text>
  </g>
  <!-- Leetcode&#45;栈堆队列&#45;&gt;堆 -->
  <g class="edge" id="edge1">
   <title>
    Leetcode-栈堆队列-&gt;堆
   </title>
   <path d="M179.6,-2807.7C175.5,-2799.73 170.55,-2790.1 166.01,-2781.26" fill="none" stroke="lightgrey"/>
   <polygon fill="lightgrey" points="168.98,-2779.4 161.3,-2772.1 162.76,-2782.6 168.98,-2779.4" stroke="lightgrey"/>
  </g>
  <!-- 队列 -->
  <g class="node" id="node41">
   <title>
    队列
   </title>
   <polygon fill="lightslategray" points="276,-2772 221,-2772 221,-2736 276,-2736 276,-2772" stroke="lightgrey"/>
   <text fill="white" font-family="Microsoft YaHei" font-size="12.00" text-anchor="middle" x="248.5" y="-2750.9">
    队列(8)
   </text>
  </g>
  <!-- Leetcode&#45;栈堆队列&#45;&gt;队列 -->
  <g class="edge" id="edge40">
   <title>
    Leetcode-栈堆队列-&gt;队列
   </title>
   <path d="M203.33,-2807.7C210.52,-2799.3 219.3,-2789.07 227.19,-2779.86" fill="none" stroke="lightgrey"/>
   <polygon fill="lightgrey" points="229.99,-2781.97 233.84,-2772.1 224.67,-2777.42 229.99,-2781.97" stroke="lightgrey"/>
  </g>
  <!-- 703 -->
  <g class="node" id="node3">
   <title>
    703
   </title>
   <g id="a_node3">
    <a target="_parent" xlink:href="https://leetcode-cn.com/problems/kth-largest-element-in-a-stream" xlink:title="703. 数据流中的第 K 大元素">
     <polygon fill="none" points="190,-2700 23,-2700 23,-2664 190,-2664 190,-2700" stroke="greenyellow"/>
     <text font-family="Microsoft YaHei" font-size="12.00" text-anchor="middle" x="106.5" y="-2678.9">
      703. 数据流中的第 K 大元素
     </text>
    </a>
   </g>
   <g transform="translate(182.0, -2706.0) scale(0.3)">
    <circle cx="24" cy="24" fill="#4caf50" r="21"/>
    <polygon fill="#ccff90" points="34.6,14.6 21,28.2 15.4,22.6 12.6,25.4 21,33.8 37.4,17.4"/>
   </g>
  </g>
  <!-- 堆&#45;&gt;703 -->
  <g class="edge" id="edge2">
   <title>
    堆-&gt;703
   </title>
   <path d="M141.13,-2735.7C135.78,-2727.56 129.3,-2717.69 123.39,-2708.7" fill="none" stroke="lightgrey"/>
   <polygon fill="lightgrey" points="126.16,-2706.54 117.74,-2700.1 120.31,-2710.38 126.16,-2706.54" stroke="lightgrey"/>
  </g>
  <!-- 1046 -->
  <g class="node" id="node4">
   <title>
    1046
   </title>
   <g id="a_node4">
    <a target="_parent" xlink:href="https://leetcode-cn.com/problems/last-stone-weight" xlink:title="1046. 最后一块石头的重量">
     <polygon fill="none" points="183.5,-2628 25.5,-2628 25.5,-2592 183.5,-2592 183.5,-2628" stroke="greenyellow"/>
     <text font-family="Microsoft YaHei" font-size="12.00" text-anchor="middle" x="104.5" y="-2606.9">
      1046. 最后一块石头的重量
     </text>
    </a>
   </g>
  </g>
  <!-- 703&#45;&gt;1046 -->
  <g class="edge" id="edge3">
   <title>
    703-&gt;1046
   </title>
   <path d="M106.01,-2663.7C105.79,-2655.98 105.52,-2646.71 105.27,-2638.11" fill="none" stroke="lightgrey"/>
   <polygon fill="lightgrey" points="108.77,-2638 104.99,-2628.1 101.78,-2638.2 108.77,-2638" stroke="lightgrey"/>
  </g>
  <!-- 215 -->
  <g class="node" id="node5">
   <title>
    215
   </title>
   <g id="a_node5">
    <a target="_parent" xlink:href="https://leetcode-cn.com/problems/kth-largest-element-in-an-array" xlink:title="215. 数组中的第K个最大元素">
     <polygon fill="none" points="186,-2556 15,-2556 15,-2520 186,-2520 186,-2556" stroke="orange"/>
     <text font-family="Microsoft YaHei" font-size="12.00" text-anchor="middle" x="100.5" y="-2534.9">
      215. 数组中的第K个最大元素
     </text>
    </a>
   </g>
  </g>
  <!-- 1046&#45;&gt;215 -->
  <g class="edge" id="edge4">
   <title>
    1046-&gt;215
   </title>
   <path d="M103.51,-2591.7C103.07,-2583.98 102.54,-2574.71 102.05,-2566.11" fill="none" stroke="lightgrey"/>
   <polygon fill="lightgrey" points="105.54,-2565.89 101.48,-2556.1 98.55,-2566.29 105.54,-2565.89" stroke="lightgrey"/>
  </g>
  <!-- 264 -->
  <g class="node" id="node6">
   <title>
    264
   </title>
   <g id="a_node6">
    <a target="_parent" xlink:href="https://leetcode-cn.com/problems/ugly-number-ii" xlink:title="264. 丑数 II">
     <polygon fill="none" points="145,-2484 66,-2484 66,-2448 145,-2448 145,-2484" stroke="orange"/>
     <text font-family="Microsoft YaHei" font-size="12.00" text-anchor="middle" x="105.5" y="-2462.9">
      264. 丑数 II
     </text>
    </a>
   </g>
   <g transform="translate(137.0, -2490.0) scale(0.3)">
    <circle cx="24" cy="24" fill="#4caf50" r="21"/>
    <polygon fill="#ccff90" points="34.6,14.6 21,28.2 15.4,22.6 12.6,25.4 21,33.8 37.4,17.4"/>
   </g>
   <g transform="translate(136.0, -2457.0)">
    <symbol id="flask" viewBox="0 0 448 512">
     <path d="M437.2 403.5L320 215V64h8c13.3 0 24-10.7 24-24V24c0-13.3-10.7-24-24-24H120c-13.3 0-24 10.7-24 24v16c0 13.3 10.7 24 24 24h8v151L10.8 403.5C-18.5 450.6 15.3 512 70.9 512h306.2c55.7 0 89.4-61.5 60.1-108.5zM137.9 320l48.2-77.6c3.7-5.2 5.8-11.6 5.8-18.4V64h64v160c0 6.9 2.2 13.2 5.8 18.4l48.2 77.6h-172z" fill="#1389fd"/>
    </symbol>
    <a href="https://github.com/acm-clan/algorithm-stone/blob/main/user/leetcode/264.丑数-ii.md">
     <use height="18" href="#flask" width="18"/>
    </a>
   </g>
  </g>
  <!-- 215&#45;&gt;264 -->
  <g class="edge" id="edge5">
   <title>
    215-&gt;264
   </title>
   <path d="M101.74,-2519.7C102.29,-2511.98 102.95,-2502.71 103.56,-2494.11" fill="none" stroke="lightgrey"/>
   <polygon fill="lightgrey" points="107.06,-2494.33 104.28,-2484.1 100.07,-2493.83 107.06,-2494.33" stroke="lightgrey"/>
  </g>
  <!-- 313 -->
  <g class="node" id="node7">
   <title>
    313
   </title>
   <g id="a_node7">
    <a target="_parent" xlink:href="https://leetcode-cn.com/problems/super-ugly-number" xlink:title="313. 超级丑数">
     <polygon fill="none" points="160.5,-2412 68.5,-2412 68.5,-2376 160.5,-2376 160.5,-2412" stroke="orange"/>
     <text font-family="Microsoft YaHei" font-size="12.00" text-anchor="middle" x="114.5" y="-2390.9">
      313. 超级丑数
     </text>
    </a>
   </g>
  </g>
  <!-- 264&#45;&gt;313 -->
  <g class="edge" id="edge6">
   <title>
    264-&gt;313
   </title>
   <path d="M107.72,-2447.7C108.72,-2439.98 109.91,-2430.71 111.01,-2422.11" fill="none" stroke="lightgrey"/>
   <polygon fill="lightgrey" points="114.5,-2422.47 112.3,-2412.1 107.55,-2421.58 114.5,-2422.47" stroke="lightgrey"/>
  </g>
  <!-- 347 -->
  <g class="node" id="node8">
   <title>
    347
   </title>
   <g id="a_node8">
    <a target="_parent" xlink:href="https://leetcode-cn.com/problems/top-k-frequent-elements" xlink:title="347. 前 K 个高频元素">
     <polygon fill="none" points="199,-2340 68,-2340 68,-2304 199,-2304 199,-2340" stroke="orange"/>
     <text font-family="Microsoft YaHei" font-size="12.00" text-anchor="middle" x="133.5" y="-2318.9">
      347. 前 K 个高频元素
     </text>
    </a>
   </g>
  </g>
  <!-- 313&#45;&gt;347 -->
  <g class="edge" id="edge7">
   <title>
    313-&gt;347
   </title>
   <path d="M119.2,-2375.7C121.31,-2367.9 123.86,-2358.51 126.22,-2349.83" fill="none" stroke="lightgrey"/>
   <polygon fill="lightgrey" points="129.62,-2350.67 128.86,-2340.1 122.86,-2348.84 129.62,-2350.67" stroke="lightgrey"/>
  </g>
  <!-- 355 -->
  <g class="node" id="node9">
   <title>
    355
   </title>
   <g id="a_node9">
    <a target="_parent" xlink:href="https://leetcode-cn.com/problems/design-twitter" xlink:title="355. 设计推特">
     <polygon fill="none" points="181.5,-2268 89.5,-2268 89.5,-2232 181.5,-2232 181.5,-2268" stroke="orange"/>
     <text font-family="Microsoft YaHei" font-size="12.00" text-anchor="middle" x="135.5" y="-2246.9">
      355. 设计推特
     </text>
    </a>
   </g>
  </g>
  <!-- 347&#45;&gt;355 -->
  <g class="edge" id="edge8">
   <title>
    347-&gt;355
   </title>
   <path d="M133.99,-2303.7C134.21,-2295.98 134.48,-2286.71 134.73,-2278.11" fill="none" stroke="lightgrey"/>
   <polygon fill="lightgrey" points="138.22,-2278.2 135.01,-2268.1 131.23,-2278 138.22,-2278.2" stroke="lightgrey"/>
  </g>
  <!-- 373 -->
  <g class="node" id="node10">
   <title>
    373
   </title>
   <g id="a_node10">
    <a target="_parent" xlink:href="https://leetcode-cn.com/problems/find-k-pairs-with-smallest-sums" xlink:title="373. 查找和最小的K对数字">
     <polygon fill="none" points="219,-2196 60,-2196 60,-2160 219,-2160 219,-2196" stroke="orange"/>
     <text font-family="Microsoft YaHei" font-size="12.00" text-anchor="middle" x="139.5" y="-2174.9">
      373. 查找和最小的K对数字
     </text>
    </a>
   </g>
  </g>
  <!-- 355&#45;&gt;373 -->
  <g class="edge" id="edge9">
   <title>
    355-&gt;373
   </title>
   <path d="M136.49,-2231.7C136.93,-2223.98 137.46,-2214.71 137.95,-2206.11" fill="none" stroke="lightgrey"/>
   <polygon fill="lightgrey" points="141.45,-2206.29 138.52,-2196.1 134.46,-2205.89 141.45,-2206.29" stroke="lightgrey"/>
  </g>
  <!-- 378 -->
  <g class="node" id="node11">
   <title>
    378
   </title>
   <g id="a_node11">
    <a target="_parent" xlink:href="https://leetcode-cn.com/problems/kth-smallest-element-in-a-sorted-matrix" xlink:title="378. 有序矩阵中第 K 小的元素">
     <polygon fill="none" points="238,-2124 59,-2124 59,-2088 238,-2088 238,-2124" stroke="orange"/>
     <text font-family="Microsoft YaHei" font-size="12.00" text-anchor="middle" x="148.5" y="-2102.9">
      378. 有序矩阵中第 K 小的元素
     </text>
    </a>
   </g>
  </g>
  <!-- 373&#45;&gt;378 -->
  <g class="edge" id="edge10">
   <title>
    373-&gt;378
   </title>
   <path d="M141.72,-2159.7C142.72,-2151.98 143.91,-2142.71 145.01,-2134.11" fill="none" stroke="lightgrey"/>
   <polygon fill="lightgrey" points="148.5,-2134.47 146.3,-2124.1 141.55,-2133.58 148.5,-2134.47" stroke="lightgrey"/>
  </g>
  <!-- 451 -->
  <g class="node" id="node12">
   <title>
    451
   </title>
   <g id="a_node12">
    <a target="_parent" xlink:href="https://leetcode-cn.com/problems/sort-characters-by-frequency" xlink:title="451. 根据字符出现频率排序">
     <polygon fill="none" points="230.5,-2052 66.5,-2052 66.5,-2016 230.5,-2016 230.5,-2052" stroke="orange"/>
     <text font-family="Microsoft YaHei" font-size="12.00" text-anchor="middle" x="148.5" y="-2030.9">
      451. 根据字符出现频率排序
     </text>
    </a>
   </g>
  </g>
  <!-- 378&#45;&gt;451 -->
  <g class="edge" id="edge11">
   <title>
    378-&gt;451
   </title>
   <path d="M148.5,-2087.7C148.5,-2079.98 148.5,-2070.71 148.5,-2062.11" fill="none" stroke="lightgrey"/>
   <polygon fill="lightgrey" points="152,-2062.1 148.5,-2052.1 145,-2062.1 152,-2062.1" stroke="lightgrey"/>
  </g>
  <!-- 659 -->
  <g class="node" id="node13">
   <title>
    659
   </title>
   <g id="a_node13">
    <a target="_parent" xlink:href="https://leetcode-cn.com/problems/split-array-into-consecutive-subsequences" xlink:title="659. 分割数组为连续子序列">
     <polygon fill="none" points="230.5,-1980 66.5,-1980 66.5,-1944 230.5,-1944 230.5,-1980" stroke="orange"/>
     <text font-family="Microsoft YaHei" font-size="12.00" text-anchor="middle" x="148.5" y="-1958.9">
      659. 分割数组为连续子序列
     </text>
    </a>
   </g>
  </g>
  <!-- 451&#45;&gt;659 -->
  <g class="edge" id="edge12">
   <title>
    451-&gt;659
   </title>
   <path d="M148.5,-2015.7C148.5,-2007.98 148.5,-1998.71 148.5,-1990.11" fill="none" stroke="lightgrey"/>
   <polygon fill="lightgrey" points="152,-1990.1 148.5,-1980.1 145,-1990.1 152,-1990.1" stroke="lightgrey"/>
  </g>
  <!-- 692 -->
  <g class="node" id="node14">
   <title>
    692
   </title>
   <g id="a_node14">
    <a target="_parent" xlink:href="https://leetcode-cn.com/problems/top-k-frequent-words" xlink:title="692. 前K个高频单词">
     <polygon fill="none" points="210,-1908 87,-1908 87,-1872 210,-1872 210,-1908" stroke="orange"/>
     <text font-family="Microsoft YaHei" font-size="12.00" text-anchor="middle" x="148.5" y="-1886.9">
      692. 前K个高频单词
     </text>
    </a>
   </g>
  </g>
  <!-- 659&#45;&gt;692 -->
  <g class="edge" id="edge13">
   <title>
    659-&gt;692
   </title>
   <path d="M148.5,-1943.7C148.5,-1935.98 148.5,-1926.71 148.5,-1918.11" fill="none" stroke="lightgrey"/>
   <polygon fill="lightgrey" points="152,-1918.1 148.5,-1908.1 145,-1918.1 152,-1918.1" stroke="lightgrey"/>
  </g>
  <!-- 743 -->
  <g class="node" id="node15">
   <title>
    743
   </title>
   <g id="a_node15">
    <a target="_parent" xlink:href="https://leetcode-cn.com/problems/network-delay-time" xlink:title="743. 网络延迟时间">
     <polygon fill="none" points="206.5,-1836 90.5,-1836 90.5,-1800 206.5,-1800 206.5,-1836" stroke="orange"/>
     <text font-family="Microsoft YaHei" font-size="12.00" text-anchor="middle" x="148.5" y="-1814.9">
      743. 网络延迟时间
     </text>
    </a>
   </g>
  </g>
  <!-- 692&#45;&gt;743 -->
  <g class="edge" id="edge14">
   <title>
    692-&gt;743
   </title>
   <path d="M148.5,-1871.7C148.5,-1863.98 148.5,-1854.71 148.5,-1846.11" fill="none" stroke="lightgrey"/>
   <polygon fill="lightgrey" points="152,-1846.1 148.5,-1836.1 145,-1846.1 152,-1846.1" stroke="lightgrey"/>
  </g>
  <!-- 767 -->
  <g class="node" id="node16">
   <title>
    767
   </title>
   <g id="a_node16">
    <a target="_parent" xlink:href="https://leetcode-cn.com/problems/reorganize-string" xlink:title="767. 重构字符串">
     <polygon fill="none" points="201.5,-1764 97.5,-1764 97.5,-1728 201.5,-1728 201.5,-1764" stroke="orange"/>
     <text font-family="Microsoft YaHei" font-size="12.00" text-anchor="middle" x="149.5" y="-1742.9">
      767. 重构字符串
     </text>
    </a>
   </g>
  </g>
  <!-- 743&#45;&gt;767 -->
  <g class="edge" id="edge15">
   <title>
    743-&gt;767
   </title>
   <path d="M148.75,-1799.7C148.86,-1791.98 148.99,-1782.71 149.11,-1774.11" fill="none" stroke="lightgrey"/>
   <polygon fill="lightgrey" points="152.61,-1774.15 149.26,-1764.1 145.61,-1774.05 152.61,-1774.15" stroke="lightgrey"/>
  </g>
  <!-- 787 -->
  <g class="node" id="node17">
   <title>
    787
   </title>
   <g id="a_node17">
    <a target="_parent" xlink:href="https://leetcode-cn.com/problems/cheapest-flights-within-k-stops" xlink:title="787. K 站中转内最便宜的航班">
     <polygon fill="none" points="239,-1692 64,-1692 64,-1656 239,-1656 239,-1692" stroke="orange"/>
     <text font-family="Microsoft YaHei" font-size="12.00" text-anchor="middle" x="151.5" y="-1670.9">
      787. K 站中转内最便宜的航班
     </text>
    </a>
   </g>
  </g>
  <!-- 767&#45;&gt;787 -->
  <g class="edge" id="edge16">
   <title>
    767-&gt;787
   </title>
   <path d="M149.99,-1727.7C150.21,-1719.98 150.48,-1710.71 150.73,-1702.11" fill="none" stroke="lightgrey"/>
   <polygon fill="lightgrey" points="154.22,-1702.2 151.01,-1692.1 147.23,-1702 154.22,-1702.2" stroke="lightgrey"/>
  </g>
  <!-- 973 -->
  <g class="node" id="node18">
   <title>
    973
   </title>
   <g id="a_node18">
    <a target="_parent" xlink:href="https://leetcode-cn.com/problems/k-closest-points-to-origin" xlink:title="973. 最接近原点的 K 个点">
     <polygon fill="none" points="231,-1620 76,-1620 76,-1584 231,-1584 231,-1620" stroke="orange"/>
     <text font-family="Microsoft YaHei" font-size="12.00" text-anchor="middle" x="153.5" y="-1598.9">
      973. 最接近原点的 K 个点
     </text>
    </a>
   </g>
  </g>
  <!-- 787&#45;&gt;973 -->
  <g class="edge" id="edge17">
   <title>
    787-&gt;973
   </title>
   <path d="M151.99,-1655.7C152.21,-1647.98 152.48,-1638.71 152.73,-1630.11" fill="none" stroke="lightgrey"/>
   <polygon fill="lightgrey" points="156.22,-1630.2 153.01,-1620.1 149.23,-1630 156.22,-1630.2" stroke="lightgrey"/>
  </g>
  <!-- 1054 -->
  <g class="node" id="node19">
   <title>
    1054
   </title>
   <g id="a_node19">
    <a target="_parent" xlink:href="https://leetcode-cn.com/problems/distant-barcodes" xlink:title="1054. 距离相等的条形码">
     <polygon fill="none" points="230.5,-1548 84.5,-1548 84.5,-1512 230.5,-1512 230.5,-1548" stroke="orange"/>
     <text font-family="Microsoft YaHei" font-size="12.00" text-anchor="middle" x="157.5" y="-1526.9">
      1054. 距离相等的条形码
     </text>
    </a>
   </g>
  </g>
  <!-- 973&#45;&gt;1054 -->
  <g class="edge" id="edge18">
   <title>
    973-&gt;1054
   </title>
   <path d="M154.49,-1583.7C154.93,-1575.98 155.46,-1566.71 155.95,-1558.11" fill="none" stroke="lightgrey"/>
   <polygon fill="lightgrey" points="159.45,-1558.29 156.52,-1548.1 152.46,-1557.89 159.45,-1558.29" stroke="lightgrey"/>
  </g>
  <!-- 1642 -->
  <g class="node" id="node20">
   <title>
    1642
   </title>
   <g id="a_node20">
    <a target="_parent" xlink:href="https://leetcode-cn.com/problems/furthest-building-you-can-reach" xlink:title="1642. 可以到达的最远建筑">
     <polygon fill="none" points="238.5,-1476 80.5,-1476 80.5,-1440 238.5,-1440 238.5,-1476" stroke="orange"/>
     <text font-family="Microsoft YaHei" font-size="12.00" text-anchor="middle" x="159.5" y="-1454.9">
      1642. 可以到达的最远建筑
     </text>
    </a>
   </g>
  </g>
  <!-- 1054&#45;&gt;1642 -->
  <g class="edge" id="edge19">
   <title>
    1054-&gt;1642
   </title>
   <path d="M157.99,-1511.7C158.21,-1503.98 158.48,-1494.71 158.73,-1486.11" fill="none" stroke="lightgrey"/>
   <polygon fill="lightgrey" points="162.22,-1486.2 159.01,-1476.1 155.23,-1486 162.22,-1486.2" stroke="lightgrey"/>
  </g>
  <!-- 1673 -->
  <g class="node" id="node21">
   <title>
    1673
   </title>
   <g id="a_node21">
    <a target="_parent" xlink:href="https://leetcode-cn.com/problems/find-the-most-competitive-subsequence" xlink:title="1673. 找出最具竞争力的子序列">
     <polygon fill="none" points="303.5,-1404 121.5,-1404 121.5,-1368 303.5,-1368 303.5,-1404" stroke="orange"/>
     <text font-family="Microsoft YaHei" font-size="12.00" text-anchor="middle" x="212.5" y="-1382.9">
      1673. 找出最具竞争力的子序列
     </text>
    </a>
   </g>
   <g transform="translate(295.5, -1410.0) scale(0.3)">
    <circle cx="24" cy="24" fill="#4caf50" r="21"/>
    <polygon fill="#ccff90" points="34.6,14.6 21,28.2 15.4,22.6 12.6,25.4 21,33.8 37.4,17.4"/>
   </g>
  </g>
  <!-- 1642&#45;&gt;1673 -->
  <g class="edge" id="edge20">
   <title>
    1642-&gt;1673
   </title>
   <path d="M172.6,-1439.7C178.89,-1431.39 186.55,-1421.28 193.46,-1412.14" fill="none" stroke="lightgrey"/>
   <polygon fill="lightgrey" points="196.3,-1414.19 199.55,-1404.1 190.72,-1409.96 196.3,-1414.19" stroke="lightgrey"/>
  </g>
  <!-- 1705 -->
  <g class="node" id="node22">
   <title>
    1705
   </title>
   <g id="a_node22">
    <a target="_parent" xlink:href="https://leetcode-cn.com/problems/maximum-number-of-eaten-apples" xlink:title="1705. 吃苹果的最大数目">
     <polygon fill="none" points="195.5,-1332 49.5,-1332 49.5,-1296 195.5,-1296 195.5,-1332" stroke="orange"/>
     <text font-family="Microsoft YaHei" font-size="12.00" text-anchor="middle" x="122.5" y="-1310.9">
      1705. 吃苹果的最大数目
     </text>
    </a>
   </g>
  </g>
  <!-- 1673&#45;&gt;1705 -->
  <g class="edge" id="edge21">
   <title>
    1673-&gt;1705
   </title>
   <path d="M190.25,-1367.7C178.92,-1358.88 164.97,-1348.03 152.68,-1338.47" fill="none" stroke="lightgrey"/>
   <polygon fill="lightgrey" points="154.53,-1335.48 144.49,-1332.1 150.24,-1341.01 154.53,-1335.48" stroke="lightgrey"/>
  </g>
  <!-- 862 -->
  <g class="node" id="node47">
   <title>
    862
   </title>
   <g id="a_node47">
    <a target="_parent" xlink:href="https://leetcode-cn.com/problems/shortest-subarray-with-sum-at-least-k" xlink:title="862. 和至少为 K 的最短子数组">
     <polygon fill="none" points="399,-1332 220,-1332 220,-1296 399,-1296 399,-1332" stroke="red"/>
     <text font-family="Microsoft YaHei" font-size="12.00" text-anchor="middle" x="309.5" y="-1310.9">
      862. 和至少为 K 的最短子数组
     </text>
    </a>
   </g>
  </g>
  <!-- 1673&#45;&gt;862 -->
  <g class="edge" id="edge47">
   <title>
    1673-&gt;862
   </title>
   <path d="M236.48,-1367.7C248.81,-1358.8 264.02,-1347.82 277.35,-1338.2" fill="none" stroke="lightgrey"/>
   <polygon fill="lightgrey" points="279.74,-1340.79 285.8,-1332.1 275.64,-1335.12 279.74,-1340.79" stroke="lightgrey"/>
  </g>
  <!-- 1753 -->
  <g class="node" id="node23">
   <title>
    1753
   </title>
   <g id="a_node23">
    <a target="_parent" xlink:href="https://leetcode-cn.com/problems/maximum-score-from-removing-stones" xlink:title="1753. 移除石子的最大得分">
     <polygon fill="none" points="189.5,-1260 31.5,-1260 31.5,-1224 189.5,-1224 189.5,-1260" stroke="orange"/>
     <text font-family="Microsoft YaHei" font-size="12.00" text-anchor="middle" x="110.5" y="-1238.9">
      1753. 移除石子的最大得分
     </text>
    </a>
   </g>
  </g>
  <!-- 1705&#45;&gt;1753 -->
  <g class="edge" id="edge22">
   <title>
    1705-&gt;1753
   </title>
   <path d="M119.53,-1295.7C118.21,-1287.98 116.62,-1278.71 115.15,-1270.11" fill="none" stroke="lightgrey"/>
   <polygon fill="lightgrey" points="118.57,-1269.37 113.43,-1260.1 111.67,-1270.55 118.57,-1269.37" stroke="lightgrey"/>
  </g>
  <!-- 1760 -->
  <g class="node" id="node24">
   <title>
    1760
   </title>
   <g id="a_node24">
    <a target="_parent" xlink:href="https://leetcode-cn.com/problems/minimum-limit-of-balls-in-a-bag" xlink:title="1760. 袋子里最少数目的球">
     <polygon fill="none" points="189.5,-1188 31.5,-1188 31.5,-1152 189.5,-1152 189.5,-1188" stroke="orange"/>
     <text font-family="Microsoft YaHei" font-size="12.00" text-anchor="middle" x="110.5" y="-1166.9">
      1760. 袋子里最少数目的球
     </text>
    </a>
   </g>
  </g>
  <!-- 1753&#45;&gt;1760 -->
  <g class="edge" id="edge23">
   <title>
    1753-&gt;1760
   </title>
   <path d="M110.5,-1223.7C110.5,-1215.98 110.5,-1206.71 110.5,-1198.11" fill="none" stroke="lightgrey"/>
   <polygon fill="lightgrey" points="114,-1198.1 110.5,-1188.1 107,-1198.1 114,-1198.1" stroke="lightgrey"/>
  </g>
  <!-- 23 -->
  <g class="node" id="node25">
   <title>
    23
   </title>
   <g id="a_node25">
    <a target="_parent" xlink:href="https://leetcode-cn.com/problems/merge-k-sorted-lists" xlink:title="23. 合并K个升序链表">
     <polygon fill="none" points="174.5,-1116 46.5,-1116 46.5,-1080 174.5,-1080 174.5,-1116" stroke="red"/>
     <text font-family="Microsoft YaHei" font-size="12.00" text-anchor="middle" x="110.5" y="-1094.9">
      23. 合并K个升序链表
     </text>
    </a>
   </g>
  </g>
  <!-- 1760&#45;&gt;23 -->
  <g class="edge" id="edge24">
   <title>
    1760-&gt;23
   </title>
   <path d="M110.5,-1151.7C110.5,-1143.98 110.5,-1134.71 110.5,-1126.11" fill="none" stroke="lightgrey"/>
   <polygon fill="lightgrey" points="114,-1126.1 110.5,-1116.1 107,-1126.1 114,-1126.1" stroke="lightgrey"/>
  </g>
  <!-- 218 -->
  <g class="node" id="node26">
   <title>
    218
   </title>
   <g id="a_node26">
    <a target="_parent" xlink:href="https://leetcode-cn.com/problems/the-skyline-problem" xlink:title="218. 天际线问题">
     <polygon fill="none" points="162.5,-1044 58.5,-1044 58.5,-1008 162.5,-1008 162.5,-1044" stroke="red"/>
     <text font-family="Microsoft YaHei" font-size="12.00" text-anchor="middle" x="110.5" y="-1022.9">
      218. 天际线问题
     </text>
    </a>
   </g>
  </g>
  <!-- 23&#45;&gt;218 -->
  <g class="edge" id="edge25">
   <title>
    23-&gt;218
   </title>
   <path d="M110.5,-1079.7C110.5,-1071.98 110.5,-1062.71 110.5,-1054.11" fill="none" stroke="lightgrey"/>
   <polygon fill="lightgrey" points="114,-1054.1 110.5,-1044.1 107,-1054.1 114,-1054.1" stroke="lightgrey"/>
  </g>
  <!-- 239 -->
  <g class="node" id="node27">
   <title>
    239
   </title>
   <g id="a_node27">
    <a target="_parent" xlink:href="https://leetcode-cn.com/problems/sliding-window-maximum" xlink:title="239. 滑动窗口最大值">
     <polygon fill="none" points="174.5,-972 46.5,-972 46.5,-936 174.5,-936 174.5,-972" stroke="red"/>
     <text font-family="Microsoft YaHei" font-size="12.00" text-anchor="middle" x="110.5" y="-950.9">
      239. 滑动窗口最大值
     </text>
    </a>
   </g>
  </g>
  <!-- 218&#45;&gt;239 -->
  <g class="edge" id="edge26">
   <title>
    218-&gt;239
   </title>
   <path d="M110.5,-1007.7C110.5,-999.98 110.5,-990.71 110.5,-982.11" fill="none" stroke="lightgrey"/>
   <polygon fill="lightgrey" points="114,-982.1 110.5,-972.1 107,-982.1 114,-982.1" stroke="lightgrey"/>
  </g>
  <!-- 295 -->
  <g class="node" id="node28">
   <title>
    295
   </title>
   <g id="a_node28">
    <a target="_parent" xlink:href="https://leetcode-cn.com/problems/find-median-from-data-stream" xlink:title="295. 数据流的中位数">
     <polygon fill="none" points="174.5,-900 46.5,-900 46.5,-864 174.5,-864 174.5,-900" stroke="red"/>
     <text font-family="Microsoft YaHei" font-size="12.00" text-anchor="middle" x="110.5" y="-878.9">
      295. 数据流的中位数
     </text>
    </a>
   </g>
  </g>
  <!-- 239&#45;&gt;295 -->
  <g class="edge" id="edge27">
   <title>
    239-&gt;295
   </title>
   <path d="M110.5,-935.7C110.5,-927.98 110.5,-918.71 110.5,-910.11" fill="none" stroke="lightgrey"/>
   <polygon fill="lightgrey" points="114,-910.1 110.5,-900.1 107,-910.1 114,-910.1" stroke="lightgrey"/>
  </g>
  <!-- 407 -->
  <g class="node" id="node29">
   <title>
    407
   </title>
   <g id="a_node29">
    <a target="_parent" xlink:href="https://leetcode-cn.com/problems/trapping-rain-water-ii" xlink:title="407. 接雨水 II">
     <polygon fill="none" points="156,-828 65,-828 65,-792 156,-792 156,-828" stroke="red"/>
     <text font-family="Microsoft YaHei" font-size="12.00" text-anchor="middle" x="110.5" y="-806.9">
      407. 接雨水 II
     </text>
    </a>
   </g>
  </g>
  <!-- 295&#45;&gt;407 -->
  <g class="edge" id="edge28">
   <title>
    295-&gt;407
   </title>
   <path d="M110.5,-863.7C110.5,-855.98 110.5,-846.71 110.5,-838.11" fill="none" stroke="lightgrey"/>
   <polygon fill="lightgrey" points="114,-838.1 110.5,-828.1 107,-838.1 114,-838.1" stroke="lightgrey"/>
  </g>
  <!-- 502 -->
  <g class="node" id="node30">
   <title>
    502
   </title>
   <g id="a_node30">
    <a target="_parent" xlink:href="https://leetcode-cn.com/problems/ipo" xlink:title="502. IPO">
     <polygon fill="none" points="143,-756 78,-756 78,-720 143,-720 143,-756" stroke="red"/>
     <text font-family="Microsoft YaHei" font-size="12.00" text-anchor="middle" x="110.5" y="-734.9">
      502. IPO
     </text>
    </a>
   </g>
  </g>
  <!-- 407&#45;&gt;502 -->
  <g class="edge" id="edge29">
   <title>
    407-&gt;502
   </title>
   <path d="M110.5,-791.7C110.5,-783.98 110.5,-774.71 110.5,-766.11" fill="none" stroke="lightgrey"/>
   <polygon fill="lightgrey" points="114,-766.1 110.5,-756.1 107,-766.1 114,-766.1" stroke="lightgrey"/>
  </g>
  <!-- 719 -->
  <g class="node" id="node31">
   <title>
    719
   </title>
   <g id="a_node31">
    <a target="_parent" xlink:href="https://leetcode-cn.com/problems/find-k-th-smallest-pair-distance" xlink:title="719. 找出第 k 小的距离对">
     <polygon fill="none" points="187.5,-684 33.5,-684 33.5,-648 187.5,-648 187.5,-684" stroke="red"/>
     <text font-family="Microsoft YaHei" font-size="12.00" text-anchor="middle" x="110.5" y="-662.9">
      719. 找出第 k 小的距离对
     </text>
    </a>
   </g>
  </g>
  <!-- 502&#45;&gt;719 -->
  <g class="edge" id="edge30">
   <title>
    502-&gt;719
   </title>
   <path d="M110.5,-719.7C110.5,-711.98 110.5,-702.71 110.5,-694.11" fill="none" stroke="lightgrey"/>
   <polygon fill="lightgrey" points="114,-694.1 110.5,-684.1 107,-694.1 114,-694.1" stroke="lightgrey"/>
  </g>
  <!-- 778 -->
  <g class="node" id="node32">
   <title>
    778
   </title>
   <g id="a_node32">
    <a target="_parent" xlink:href="https://leetcode-cn.com/problems/swim-in-rising-water" xlink:title="778. 水位上升的泳池中游泳">
     <polygon fill="none" points="192.5,-612 28.5,-612 28.5,-576 192.5,-576 192.5,-612" stroke="red"/>
     <text font-family="Microsoft YaHei" font-size="12.00" text-anchor="middle" x="110.5" y="-590.9">
      778. 水位上升的泳池中游泳
     </text>
    </a>
   </g>
  </g>
  <!-- 719&#45;&gt;778 -->
  <g class="edge" id="edge31">
   <title>
    719-&gt;778
   </title>
   <path d="M110.5,-647.7C110.5,-639.98 110.5,-630.71 110.5,-622.11" fill="none" stroke="lightgrey"/>
   <polygon fill="lightgrey" points="114,-622.1 110.5,-612.1 107,-622.1 114,-622.1" stroke="lightgrey"/>
  </g>
  <!-- 786 -->
  <g class="node" id="node33">
   <title>
    786
   </title>
   <g id="a_node33">
    <a target="_parent" xlink:href="https://leetcode-cn.com/problems/k-th-smallest-prime-fraction" xlink:title="786. 第 K 个最小的素数分数">
     <polygon fill="none" points="194,-540 27,-540 27,-504 194,-504 194,-540" stroke="red"/>
     <text font-family="Microsoft YaHei" font-size="12.00" text-anchor="middle" x="110.5" y="-518.9">
      786. 第 K 个最小的素数分数
     </text>
    </a>
   </g>
  </g>
  <!-- 778&#45;&gt;786 -->
  <g class="edge" id="edge32">
   <title>
    778-&gt;786
   </title>
   <path d="M110.5,-575.7C110.5,-567.98 110.5,-558.71 110.5,-550.11" fill="none" stroke="lightgrey"/>
   <polygon fill="lightgrey" points="114,-550.1 110.5,-540.1 107,-550.1 114,-550.1" stroke="lightgrey"/>
  </g>
  <!-- 818 -->
  <g class="node" id="node34">
   <title>
    818
   </title>
   <g id="a_node34">
    <a target="_parent" xlink:href="https://leetcode-cn.com/problems/race-car" xlink:title="818. 赛车">
     <polygon fill="none" points="144.5,-468 76.5,-468 76.5,-432 144.5,-432 144.5,-468" stroke="red"/>
     <text font-family="Microsoft YaHei" font-size="12.00" text-anchor="middle" x="110.5" y="-446.9">
      818. 赛车
     </text>
    </a>
   </g>
  </g>
  <!-- 786&#45;&gt;818 -->
  <g class="edge" id="edge33">
   <title>
    786-&gt;818
   </title>
   <path d="M110.5,-503.7C110.5,-495.98 110.5,-486.71 110.5,-478.11" fill="none" stroke="lightgrey"/>
   <polygon fill="lightgrey" points="114,-478.1 110.5,-468.1 107,-478.1 114,-478.1" stroke="lightgrey"/>
  </g>
  <!-- 857 -->
  <g class="node" id="node35">
   <title>
    857
   </title>
   <g id="a_node35">
    <a target="_parent" xlink:href="https://leetcode-cn.com/problems/minimum-cost-to-hire-k-workers" xlink:title="857. 雇佣 K 名工人的最低成本">
     <polygon fill="none" points="200,-396 21,-396 21,-360 200,-360 200,-396" stroke="red"/>
     <text font-family="Microsoft YaHei" font-size="12.00" text-anchor="middle" x="110.5" y="-374.9">
      857. 雇佣 K 名工人的最低成本
     </text>
    </a>
   </g>
  </g>
  <!-- 818&#45;&gt;857 -->
  <g class="edge" id="edge34">
   <title>
    818-&gt;857
   </title>
   <path d="M110.5,-431.7C110.5,-423.98 110.5,-414.71 110.5,-406.11" fill="none" stroke="lightgrey"/>
   <polygon fill="lightgrey" points="114,-406.1 110.5,-396.1 107,-406.1 114,-406.1" stroke="lightgrey"/>
  </g>
  <!-- 864 -->
  <g class="node" id="node36">
   <title>
    864
   </title>
   <g id="a_node36">
    <a target="_parent" xlink:href="https://leetcode-cn.com/problems/shortest-path-to-get-all-keys" xlink:title="864. 获取所有钥匙的最短路径">
     <polygon fill="none" points="198.5,-324 22.5,-324 22.5,-288 198.5,-288 198.5,-324" stroke="red"/>
     <text font-family="Microsoft YaHei" font-size="12.00" text-anchor="middle" x="110.5" y="-302.9">
      864. 获取所有钥匙的最短路径
     </text>
    </a>
   </g>
  </g>
  <!-- 857&#45;&gt;864 -->
  <g class="edge" id="edge35">
   <title>
    857-&gt;864
   </title>
   <path d="M110.5,-359.7C110.5,-351.98 110.5,-342.71 110.5,-334.11" fill="none" stroke="lightgrey"/>
   <polygon fill="lightgrey" points="114,-334.1 110.5,-324.1 107,-334.1 114,-334.1" stroke="lightgrey"/>
  </g>
  <!-- 871 -->
  <g class="node" id="node37">
   <title>
    871
   </title>
   <g id="a_node37">
    <a target="_parent" xlink:href="https://leetcode-cn.com/problems/minimum-number-of-refueling-stops" xlink:title="871. 最低加油次数">
     <polygon fill="none" points="168.5,-252 52.5,-252 52.5,-216 168.5,-216 168.5,-252" stroke="red"/>
     <text font-family="Microsoft YaHei" font-size="12.00" text-anchor="middle" x="110.5" y="-230.9">
      871. 最低加油次数
     </text>
    </a>
   </g>
  </g>
  <!-- 864&#45;&gt;871 -->
  <g class="edge" id="edge36">
   <title>
    864-&gt;871
   </title>
   <path d="M110.5,-287.7C110.5,-279.98 110.5,-270.71 110.5,-262.11" fill="none" stroke="lightgrey"/>
   <polygon fill="lightgrey" points="114,-262.1 110.5,-252.1 107,-262.1 114,-262.1" stroke="lightgrey"/>
  </g>
  <!-- 882 -->
  <g class="node" id="node38">
   <title>
    882
   </title>
   <g id="a_node38">
    <a target="_parent" xlink:href="https://leetcode-cn.com/problems/reachable-nodes-in-subdivided-graph" xlink:title="882. 细分图中的可到达结点">
     <polygon fill="none" points="192.5,-180 28.5,-180 28.5,-144 192.5,-144 192.5,-180" stroke="red"/>
     <text font-family="Microsoft YaHei" font-size="12.00" text-anchor="middle" x="110.5" y="-158.9">
      882. 细分图中的可到达结点
     </text>
    </a>
   </g>
  </g>
  <!-- 871&#45;&gt;882 -->
  <g class="edge" id="edge37">
   <title>
    871-&gt;882
   </title>
   <path d="M110.5,-215.7C110.5,-207.98 110.5,-198.71 110.5,-190.11" fill="none" stroke="lightgrey"/>
   <polygon fill="lightgrey" points="114,-190.1 110.5,-180.1 107,-190.1 114,-190.1" stroke="lightgrey"/>
  </g>
  <!-- 1439 -->
  <g class="node" id="node39">
   <title>
    1439
   </title>
   <g id="a_node39">
    <a target="_parent" xlink:href="https://leetcode-cn.com/problems/find-the-kth-smallest-sum-of-a-matrix-with-sorted-rows" xlink:title="1439. 有序矩阵中的第 k 个最小数组和">
     <polygon fill="none" points="221,-108 0,-108 0,-72 221,-72 221,-108" stroke="red"/>
     <text font-family="Microsoft YaHei" font-size="12.00" text-anchor="middle" x="110.5" y="-86.9">
      1439. 有序矩阵中的第 k 个最小数组和
     </text>
    </a>
   </g>
  </g>
  <!-- 882&#45;&gt;1439 -->
  <g class="edge" id="edge38">
   <title>
    882-&gt;1439
   </title>
   <path d="M110.5,-143.7C110.5,-135.98 110.5,-126.71 110.5,-118.11" fill="none" stroke="lightgrey"/>
   <polygon fill="lightgrey" points="114,-118.1 110.5,-108.1 107,-118.1 114,-118.1" stroke="lightgrey"/>
  </g>
  <!-- 1675 -->
  <g class="node" id="node40">
   <title>
    1675
   </title>
   <g id="a_node40">
    <a target="_parent" xlink:href="https://leetcode-cn.com/problems/minimize-deviation-in-array" xlink:title="1675. 数组的最小偏移量">
     <polygon fill="none" points="183.5,-36 37.5,-36 37.5,0 183.5,0 183.5,-36" stroke="red"/>
     <text font-family="Microsoft YaHei" font-size="12.00" text-anchor="middle" x="110.5" y="-14.9">
      1675. 数组的最小偏移量
     </text>
    </a>
   </g>
  </g>
  <!-- 1439&#45;&gt;1675 -->
  <g class="edge" id="edge39">
   <title>
    1439-&gt;1675
   </title>
   <path d="M110.5,-71.7C110.5,-63.98 110.5,-54.71 110.5,-46.11" fill="none" stroke="lightgrey"/>
   <polygon fill="lightgrey" points="114,-46.1 110.5,-36.1 107,-46.1 114,-46.1" stroke="lightgrey"/>
  </g>
  <!-- 933 -->
  <g class="node" id="node42">
   <title>
    933
   </title>
   <g id="a_node42">
    <a target="_parent" xlink:href="https://leetcode-cn.com/problems/number-of-recent-calls" xlink:title="933. 最近的请求次数">
     <polygon fill="none" points="337.5,-2700 209.5,-2700 209.5,-2664 337.5,-2664 337.5,-2700" stroke="greenyellow"/>
     <text font-family="Microsoft YaHei" font-size="12.00" text-anchor="middle" x="273.5" y="-2678.9">
      933. 最近的请求次数
     </text>
    </a>
   </g>
   <g transform="translate(329.5, -2706.0) scale(0.3)">
    <circle cx="24" cy="24" fill="#4caf50" r="21"/>
    <polygon fill="#ccff90" points="34.6,14.6 21,28.2 15.4,22.6 12.6,25.4 21,33.8 37.4,17.4"/>
   </g>
  </g>
  <!-- 队列&#45;&gt;933 -->
  <g class="edge" id="edge41">
   <title>
    队列-&gt;933
   </title>
   <path d="M254.68,-2735.7C257.5,-2727.81 260.89,-2718.3 264.02,-2709.55" fill="none" stroke="lightgrey"/>
   <polygon fill="lightgrey" points="267.32,-2710.7 267.39,-2700.1 260.73,-2708.34 267.32,-2710.7" stroke="lightgrey"/>
  </g>
  <!-- 622 -->
  <g class="node" id="node43">
   <title>
    622
   </title>
   <g id="a_node43">
    <a target="_parent" xlink:href="https://leetcode-cn.com/problems/design-circular-queue" xlink:title="622. 设计循环队列">
     <polygon fill="none" points="331.5,-2628 215.5,-2628 215.5,-2592 331.5,-2592 331.5,-2628" stroke="orange"/>
     <text font-family="Microsoft YaHei" font-size="12.00" text-anchor="middle" x="273.5" y="-2606.9">
      622. 设计循环队列
     </text>
    </a>
   </g>
   <g transform="translate(323.5, -2634.0) scale(0.3)">
    <circle cx="24" cy="24" fill="#4caf50" r="21"/>
    <polygon fill="#ccff90" points="34.6,14.6 21,28.2 15.4,22.6 12.6,25.4 21,33.8 37.4,17.4"/>
   </g>
  </g>
  <!-- 933&#45;&gt;622 -->
  <g class="edge" id="edge42">
   <title>
    933-&gt;622
   </title>
   <path d="M273.5,-2663.7C273.5,-2655.98 273.5,-2646.71 273.5,-2638.11" fill="none" stroke="lightgrey"/>
   <polygon fill="lightgrey" points="277,-2638.1 273.5,-2628.1 270,-2638.1 277,-2638.1" stroke="lightgrey"/>
  </g>
  <!-- 641 -->
  <g class="node" id="node44">
   <title>
    641
   </title>
   <g id="a_node44">
    <a target="_parent" xlink:href="https://leetcode-cn.com/problems/design-circular-deque" xlink:title="641. 设计循环双端队列">
     <polygon fill="none" points="344.5,-2556 204.5,-2556 204.5,-2520 344.5,-2520 344.5,-2556" stroke="orange"/>
     <text font-family="Microsoft YaHei" font-size="12.00" text-anchor="middle" x="274.5" y="-2534.9">
      641. 设计循环双端队列
     </text>
    </a>
   </g>
   <g transform="translate(336.5, -2562.0) scale(0.3)">
    <circle cx="24" cy="24" fill="#4caf50" r="21"/>
    <polygon fill="#ccff90" points="34.6,14.6 21,28.2 15.4,22.6 12.6,25.4 21,33.8 37.4,17.4"/>
   </g>
  </g>
  <!-- 622&#45;&gt;641 -->
  <g class="edge" id="edge43">
   <title>
    622-&gt;641
   </title>
   <path d="M273.75,-2591.7C273.86,-2583.98 273.99,-2574.71 274.11,-2566.11" fill="none" stroke="lightgrey"/>
   <polygon fill="lightgrey" points="277.61,-2566.15 274.26,-2556.1 270.61,-2566.05 277.61,-2566.15" stroke="lightgrey"/>
  </g>
  <!-- 199 -->
  <g class="node" id="node45">
   <title>
    199
   </title>
   <g id="a_node45">
    <a target="_parent" xlink:href="https://leetcode-cn.com/problems/binary-tree-right-side-view" xlink:title="199. 二叉树的右视图">
     <polygon fill="none" points="337.5,-2484 209.5,-2484 209.5,-2448 337.5,-2448 337.5,-2484" stroke="orange"/>
     <text font-family="Microsoft YaHei" font-size="12.00" text-anchor="middle" x="273.5" y="-2462.9">
      199. 二叉树的右视图
     </text>
    </a>
   </g>
   <g transform="translate(329.5, -2490.0) scale(0.3)">
    <circle cx="24" cy="24" fill="#4caf50" r="21"/>
    <polygon fill="#ccff90" points="34.6,14.6 21,28.2 15.4,22.6 12.6,25.4 21,33.8 37.4,17.4"/>
   </g>
  </g>
  <!-- 641&#45;&gt;199 -->
  <g class="edge" id="edge44">
   <title>
    641-&gt;199
   </title>
   <path d="M274.25,-2519.7C274.14,-2511.98 274.01,-2502.71 273.89,-2494.11" fill="none" stroke="lightgrey"/>
   <polygon fill="lightgrey" points="277.39,-2494.05 273.74,-2484.1 270.39,-2494.15 277.39,-2494.05" stroke="lightgrey"/>
  </g>
  <!-- 621 -->
  <g class="node" id="node46">
   <title>
    621
   </title>
   <g id="a_node46">
    <a target="_parent" xlink:href="https://leetcode-cn.com/problems/task-scheduler" xlink:title="621. 任务调度器">
     <polygon fill="none" points="322.5,-2340 218.5,-2340 218.5,-2304 322.5,-2304 322.5,-2340" stroke="orange"/>
     <text font-family="Microsoft YaHei" font-size="12.00" text-anchor="middle" x="270.5" y="-2318.9">
      621. 任务调度器
     </text>
    </a>
   </g>
   <g transform="translate(314.5, -2346.0) scale(0.3)">
    <circle cx="24" cy="24" fill="#4caf50" r="21"/>
    <polygon fill="#ccff90" points="34.6,14.6 21,28.2 15.4,22.6 12.6,25.4 21,33.8 37.4,17.4"/>
   </g>
   <g transform="translate(313.5, -2313.0)">
    <symbol id="flask" viewBox="0 0 448 512">
     <path d="M437.2 403.5L320 215V64h8c13.3 0 24-10.7 24-24V24c0-13.3-10.7-24-24-24H120c-13.3 0-24 10.7-24 24v16c0 13.3 10.7 24 24 24h8v151L10.8 403.5C-18.5 450.6 15.3 512 70.9 512h306.2c55.7 0 89.4-61.5 60.1-108.5zM137.9 320l48.2-77.6c3.7-5.2 5.8-11.6 5.8-18.4V64h64v160c0 6.9 2.2 13.2 5.8 18.4l48.2 77.6h-172z" fill="#1389fd"/>
    </symbol>
    <a href="https://github.com/acm-clan/algorithm-stone/blob/main/user/leetcode/621.任务调度器.md">
     <use height="18" href="#flask" width="18"/>
    </a>
   </g>
  </g>
  <!-- 199&#45;&gt;621 -->
  <g class="edge" id="edge45">
   <title>
    199-&gt;621
   </title>
   <path d="M273.14,-2447.87C272.63,-2423.67 271.69,-2379.21 271.08,-2350.39" fill="none" stroke="lightgrey"/>
   <polygon fill="lightgrey" points="274.57,-2350.11 270.86,-2340.19 267.58,-2350.26 274.57,-2350.11" stroke="lightgrey"/>
  </g>
  <!-- 621&#45;&gt;1673 -->
  <g class="edge" id="edge46">
   <title>
    621-&gt;1673
   </title>
   <path d="M270.1,-2303.95C269.52,-2277.29 268.5,-2224.12 268.5,-2179 268.5,-2179 268.5,-2179 268.5,-1529 268.5,-1488.36 263.61,-1477.31 247.5,-1440 243.41,-1430.53 237.64,-1420.91 231.96,-1412.51" fill="none" stroke="lightgrey"/>
   <polygon fill="lightgrey" points="234.77,-1410.42 226.15,-1404.25 229.04,-1414.45 234.77,-1410.42" stroke="lightgrey"/>
  </g>
  <!-- 363 -->
  <g class="node" id="node48">
   <title>
    363
   </title>
   <g id="a_node48">
    <a target="_parent" xlink:href="https://leetcode-cn.com/problems/max-sum-of-rectangle-no-larger-than-k" xlink:title="363. 矩形区域不超过 K 的最大数值和">
     <polygon fill="none" points="423,-1260 208,-1260 208,-1224 423,-1224 423,-1260" stroke="red"/>
     <text font-family="Microsoft YaHei" font-size="12.00" text-anchor="middle" x="315.5" y="-1238.9">
      363. 矩形区域不超过 K 的最大数值和
     </text>
    </a>
   </g>
  </g>
  <!-- 862&#45;&gt;363 -->
  <g class="edge" id="edge48">
   <title>
    862-&gt;363
   </title>
   <path d="M310.98,-1295.7C311.64,-1287.98 312.44,-1278.71 313.18,-1270.11" fill="none" stroke="lightgrey"/>
   <polygon fill="lightgrey" points="316.67,-1270.37 314.03,-1260.1 309.69,-1269.77 316.67,-1270.37" stroke="lightgrey"/>
  </g>
  <g class="key">
   <defs>
    <filter height="1.2" id="solid" width="1.2" x="-0.1" y="-0.1">
     <feFlood flood-color="#ccff90" result="bg"/>
     <feMerge>
      <feMergeNode in="bg"/>
      <feMergeNode in="SourceGraphic"/>
     </feMerge>
    </filter>
   </defs>
   <text filter="url(#solid)" font-family="Microsoft YaHei" font-size="10.00" text-anchor="middle" x="273.5" y="-2587.0">
    基础题
   </text>
  </g>
  <g class="key">
   <defs>
    <filter height="1.2" id="solid" width="1.2" x="-0.1" y="-0.1">
     <feFlood flood-color="#ccff90" result="bg"/>
     <feMerge>
      <feMergeNode in="bg"/>
      <feMergeNode in="SourceGraphic"/>
     </feMerge>
    </filter>
   </defs>
   <text filter="url(#solid)" font-family="Microsoft YaHei" font-size="10.00" text-anchor="middle" x="274.5" y="-2515.0">
    基础题
   </text>
  </g>
  <g class="key">
   <defs>
    <filter height="1.2" id="solid" width="1.2" x="-0.1" y="-0.1">
     <feFlood flood-color="#ccff90" result="bg"/>
     <feMerge>
      <feMergeNode in="bg"/>
      <feMergeNode in="SourceGraphic"/>
     </feMerge>
    </filter>
   </defs>
   <text filter="url(#solid)" font-family="Microsoft YaHei" font-size="10.00" text-anchor="middle" x="273.5" y="-2443.0">
    树的层次遍历
   </text>
  </g>
  <g class="key">
   <defs>
    <filter height="1.2" id="solid" width="1.2" x="-0.1" y="-0.1">
     <feFlood flood-color="#ccff90" result="bg"/>
     <feMerge>
      <feMergeNode in="bg"/>
      <feMergeNode in="SourceGraphic"/>
     </feMerge>
    </filter>
   </defs>
   <text filter="url(#solid)" font-family="Microsoft YaHei" font-size="10.00" text-anchor="middle" x="270.5" y="-2299.0">
    贪心难
   </text>
  </g>
 </g>
</svg>