<?xml version="1.0" encoding="utf-8"?>
<!DOCTYPE svg PUBLIC "-//W3C//DTD SVG 1.1//EN" "http://www.w3.org/Graphics/SVG/1.1/DTD/svg11.dtd">
<!-- Generated by graphviz version 2.46.1 (20210213.1702)
 -->
<!-- Title: stones Pages: 1 -->
<svg height="742pt" viewBox="0.00 0.00 421.0 742.0" width="421pt" xmlns="http://www.w3.org/2000/svg" xmlns:xlink="http://www.w3.org/1999/xlink">
 <g class="graph" id="graph0" transform="scale(1 1) rotate(0) translate(4 688)">
  <title>
   stones
  </title>
  <polygon fill="white" points="-4,4 -4,-688 367,-688 367,4 -4,4" stroke="transparent"/>
  <!-- Leetcode&#45;堆栈队列 -->
  <g class="node" id="node1">
   <title>
    Leetcode-堆栈队列
   </title>
   <g id="a_node1">
    <a target="_parent" xlink:href="https://leetcode-cn.com/tag/" xlink:title="Leetcode-堆栈队列(11)">
     <polygon fill="orangered" points="252.5,-684 84.5,-684 84.5,-648 252.5,-648 252.5,-684" stroke="lightgrey"/>
     <text fill="white" font-family="Microsoft YaHei" font-size="14.00" text-anchor="middle" x="168.5" y="-662.3">
      Leetcode-堆栈队列(11)
     </text>
    </a>
   </g>
  </g>
  <!-- 堆 -->
  <g class="node" id="node2">
   <title>
    堆
   </title>
   <polygon fill="lightslategray" points="159.5,-612 105.5,-612 105.5,-576 159.5,-576 159.5,-612" stroke="lightgrey"/>
   <text fill="white" font-family="Microsoft YaHei" font-size="12.00" text-anchor="middle" x="132.5" y="-590.9">
    堆(3)
   </text>
  </g>
  <!-- Leetcode&#45;堆栈队列&#45;&gt;堆 -->
  <g class="edge" id="edge1">
   <title>
    Leetcode-堆栈队列-&gt;堆
   </title>
   <path d="M159.6,-647.7C155.5,-639.73 150.55,-630.1 146.01,-621.26" fill="none" stroke="lightgrey"/>
   <polygon fill="lightgrey" points="148.98,-619.4 141.3,-612.1 142.76,-622.6 148.98,-619.4" stroke="lightgrey"/>
  </g>
  <!-- 队列 -->
  <g class="node" id="node6">
   <title>
    队列
   </title>
   <polygon fill="lightslategray" points="255,-612 200,-612 200,-576 255,-576 255,-612" stroke="lightgrey"/>
   <text fill="white" font-family="Microsoft YaHei" font-size="12.00" text-anchor="middle" x="227.5" y="-590.9">
    队列(8)
   </text>
  </g>
  <!-- Leetcode&#45;堆栈队列&#45;&gt;队列 -->
  <g class="edge" id="edge5">
   <title>
    Leetcode-堆栈队列-&gt;队列
   </title>
   <path d="M183.08,-647.7C190.16,-639.3 198.78,-629.07 206.55,-619.86" fill="none" stroke="lightgrey"/>
   <polygon fill="lightgrey" points="209.31,-622.01 213.08,-612.1 203.96,-617.49 209.31,-622.01" stroke="lightgrey"/>
  </g>
  <!-- 1046 -->
  <g class="node" id="node3">
   <title>
    1046
   </title>
   <g id="a_node3">
    <a target="_parent" xlink:href="https://leetcode-cn.com/problems/last-stone-weight" xlink:title="1046. 最后一块石头的重量">
     <polygon fill="none" points="167.5,-540 9.5,-540 9.5,-504 167.5,-504 167.5,-540" stroke="greenyellow"/>
     <text font-family="Microsoft YaHei" font-size="12.00" text-anchor="middle" x="88.5" y="-518.9">
      1046. 最后一块石头的重量
     </text>
    </a>
   </g>
   <g transform="translate(159.5, -546.0) scale(0.3)">
    <circle cx="24" cy="24" fill="#4caf50" r="21"/>
    <polygon fill="#ccff90" points="34.6,14.6 21,28.2 15.4,22.6 12.6,25.4 21,33.8 37.4,17.4"/>
   </g>
  </g>
  <!-- 堆&#45;&gt;1046 -->
  <g class="edge" id="edge2">
   <title>
    堆-&gt;1046
   </title>
   <path d="M121.62,-575.7C116.51,-567.56 110.3,-557.69 104.66,-548.7" fill="none" stroke="lightgrey"/>
   <polygon fill="lightgrey" points="107.54,-546.71 99.25,-540.1 101.61,-550.43 107.54,-546.71" stroke="lightgrey"/>
  </g>
  <!-- 215 -->
  <g class="node" id="node4">
   <title>
    215
   </title>
   <g id="a_node4">
    <a target="_parent" xlink:href="https://leetcode-cn.com/problems/kth-largest-element-in-an-array" xlink:title="215. 数组中的第K个最大元素">
     <polygon fill="none" points="174,-468 3,-468 3,-432 174,-432 174,-468" stroke="orange"/>
     <text font-family="Microsoft YaHei" font-size="12.00" text-anchor="middle" x="88.5" y="-446.9">
      215. 数组中的第K个最大元素
     </text>
    </a>
   </g>
   <g transform="translate(166.0, -474.0) scale(0.3)">
    <circle cx="24" cy="24" fill="#4caf50" r="21"/>
    <polygon fill="#ccff90" points="34.6,14.6 21,28.2 15.4,22.6 12.6,25.4 21,33.8 37.4,17.4"/>
   </g>
  </g>
  <!-- 1046&#45;&gt;215 -->
  <g class="edge" id="edge3">
   <title>
    1046-&gt;215
   </title>
   <path d="M88.5,-503.7C88.5,-495.98 88.5,-486.71 88.5,-478.11" fill="none" stroke="lightgrey"/>
   <polygon fill="lightgrey" points="92,-478.1 88.5,-468.1 85,-478.1 92,-478.1" stroke="lightgrey"/>
  </g>
  <!-- 703 -->
  <g class="node" id="node5">
   <title>
    703
   </title>
   <g id="a_node5">
    <a target="_parent" xlink:href="https://leetcode-cn.com/problems/kth-largest-element-in-a-stream" xlink:title="703. 数据流中的第 K 大元素">
     <polygon fill="none" points="167,-396 0,-396 0,-360 167,-360 167,-396" stroke="greenyellow"/>
     <text font-family="Microsoft YaHei" font-size="12.00" text-anchor="middle" x="83.5" y="-374.9">
      703. 数据流中的第 K 大元素
     </text>
    </a>
   </g>
   <g transform="translate(159.0, -402.0) scale(0.3)">
    <circle cx="24" cy="24" fill="#4caf50" r="21"/>
    <polygon fill="#ccff90" points="34.6,14.6 21,28.2 15.4,22.6 12.6,25.4 21,33.8 37.4,17.4"/>
   </g>
  </g>
  <!-- 215&#45;&gt;703 -->
  <g class="edge" id="edge4">
   <title>
    215-&gt;703
   </title>
   <path d="M87.26,-431.7C86.71,-423.98 86.05,-414.71 85.44,-406.11" fill="none" stroke="lightgrey"/>
   <polygon fill="lightgrey" points="88.93,-405.83 84.72,-396.1 81.94,-406.33 88.93,-405.83" stroke="lightgrey"/>
  </g>
  <!-- 933 -->
  <g class="node" id="node7">
   <title>
    933
   </title>
   <g id="a_node7">
    <a target="_parent" xlink:href="https://leetcode-cn.com/problems/number-of-recent-calls" xlink:title="933. 最近的请求次数">
     <polygon fill="none" points="313.5,-540 185.5,-540 185.5,-504 313.5,-504 313.5,-540" stroke="greenyellow"/>
     <text font-family="Microsoft YaHei" font-size="12.00" text-anchor="middle" x="249.5" y="-518.9">
      933. 最近的请求次数
     </text>
    </a>
   </g>
   <g transform="translate(305.5, -546.0) scale(0.3)">
    <circle cx="24" cy="24" fill="#4caf50" r="21"/>
    <polygon fill="#ccff90" points="34.6,14.6 21,28.2 15.4,22.6 12.6,25.4 21,33.8 37.4,17.4"/>
   </g>
  </g>
  <!-- 队列&#45;&gt;933 -->
  <g class="edge" id="edge6">
   <title>
    队列-&gt;933
   </title>
   <path d="M232.94,-575.7C235.39,-567.9 238.34,-558.51 241.07,-549.83" fill="none" stroke="lightgrey"/>
   <polygon fill="lightgrey" points="244.46,-550.69 244.12,-540.1 237.79,-548.59 244.46,-550.69" stroke="lightgrey"/>
  </g>
  <!-- 622 -->
  <g class="node" id="node8">
   <title>
    622
   </title>
   <g id="a_node8">
    <a target="_parent" xlink:href="https://leetcode-cn.com/problems/design-circular-queue" xlink:title="622. 设计循环队列">
     <polygon fill="none" points="310.5,-468 194.5,-468 194.5,-432 310.5,-432 310.5,-468" stroke="orange"/>
     <text font-family="Microsoft YaHei" font-size="12.00" text-anchor="middle" x="252.5" y="-446.9">
      622. 设计循环队列
     </text>
    </a>
   </g>
   <g transform="translate(302.5, -474.0) scale(0.3)">
    <circle cx="24" cy="24" fill="#4caf50" r="21"/>
    <polygon fill="#ccff90" points="34.6,14.6 21,28.2 15.4,22.6 12.6,25.4 21,33.8 37.4,17.4"/>
   </g>
  </g>
  <!-- 933&#45;&gt;622 -->
  <g class="edge" id="edge7">
   <title>
    933-&gt;622
   </title>
   <path d="M250.24,-503.7C250.57,-495.98 250.97,-486.71 251.34,-478.11" fill="none" stroke="lightgrey"/>
   <polygon fill="lightgrey" points="254.84,-478.25 251.77,-468.1 247.84,-477.95 254.84,-478.25" stroke="lightgrey"/>
  </g>
  <!-- 641 -->
  <g class="node" id="node9">
   <title>
    641
   </title>
   <g id="a_node9">
    <a target="_parent" xlink:href="https://leetcode-cn.com/problems/design-circular-deque" xlink:title="641. 设计循环双端队列">
     <polygon fill="none" points="325.5,-396 185.5,-396 185.5,-360 325.5,-360 325.5,-396" stroke="orange"/>
     <text font-family="Microsoft YaHei" font-size="12.00" text-anchor="middle" x="255.5" y="-374.9">
      641. 设计循环双端队列
     </text>
    </a>
   </g>
   <g transform="translate(317.5, -402.0) scale(0.3)">
    <circle cx="24" cy="24" fill="#4caf50" r="21"/>
    <polygon fill="#ccff90" points="34.6,14.6 21,28.2 15.4,22.6 12.6,25.4 21,33.8 37.4,17.4"/>
   </g>
  </g>
  <!-- 622&#45;&gt;641 -->
  <g class="edge" id="edge8">
   <title>
    622-&gt;641
   </title>
   <path d="M253.24,-431.7C253.57,-423.98 253.97,-414.71 254.34,-406.11" fill="none" stroke="lightgrey"/>
   <polygon fill="lightgrey" points="257.84,-406.25 254.77,-396.1 250.84,-405.95 257.84,-406.25" stroke="lightgrey"/>
  </g>
  <!-- 199 -->
  <g class="node" id="node10">
   <title>
    199
   </title>
   <g id="a_node10">
    <a target="_parent" xlink:href="https://leetcode-cn.com/problems/binary-tree-right-side-view" xlink:title="199. 二叉树的右视图">
     <polygon fill="none" points="319.5,-324 191.5,-324 191.5,-288 319.5,-288 319.5,-324" stroke="orange"/>
     <text font-family="Microsoft YaHei" font-size="12.00" text-anchor="middle" x="255.5" y="-302.9">
      199. 二叉树的右视图
     </text>
    </a>
   </g>
   <g transform="translate(311.5, -330.0) scale(0.3)">
    <circle cx="24" cy="24" fill="#4caf50" r="21"/>
    <polygon fill="#ccff90" points="34.6,14.6 21,28.2 15.4,22.6 12.6,25.4 21,33.8 37.4,17.4"/>
   </g>
  </g>
  <!-- 641&#45;&gt;199 -->
  <g class="edge" id="edge9">
   <title>
    641-&gt;199
   </title>
   <path d="M255.5,-359.7C255.5,-351.98 255.5,-342.71 255.5,-334.11" fill="none" stroke="lightgrey"/>
   <polygon fill="lightgrey" points="259,-334.1 255.5,-324.1 252,-334.1 259,-334.1" stroke="lightgrey"/>
  </g>
  <!-- 621 -->
  <g class="node" id="node11">
   <title>
    621
   </title>
   <g id="a_node11">
    <a target="_parent" xlink:href="https://leetcode-cn.com/problems/task-scheduler" xlink:title="621. 任务调度器">
     <polygon fill="none" points="307.5,-252 203.5,-252 203.5,-216 307.5,-216 307.5,-252" stroke="orange"/>
     <text font-family="Microsoft YaHei" font-size="12.00" text-anchor="middle" x="255.5" y="-230.9">
      621. 任务调度器
     </text>
    </a>
   </g>
   <g transform="translate(299.5, -258.0) scale(0.3)">
    <circle cx="24" cy="24" fill="#4caf50" r="21"/>
    <polygon fill="#ccff90" points="34.6,14.6 21,28.2 15.4,22.6 12.6,25.4 21,33.8 37.4,17.4"/>
   </g>
   <g transform="translate(298.5, -225.0)">
    <symbol id="flask" viewBox="0 0 448 512">
     <path d="M437.2 403.5L320 215V64h8c13.3 0 24-10.7 24-24V24c0-13.3-10.7-24-24-24H120c-13.3 0-24 10.7-24 24v16c0 13.3 10.7 24 24 24h8v151L10.8 403.5C-18.5 450.6 15.3 512 70.9 512h306.2c55.7 0 89.4-61.5 60.1-108.5zM137.9 320l48.2-77.6c3.7-5.2 5.8-11.6 5.8-18.4V64h64v160c0 6.9 2.2 13.2 5.8 18.4l48.2 77.6h-172z" fill="#1389fd"/>
    </symbol>
    <a href="https://github.com/acm-clan/algorithm-stone/blob/main/user/leetcode/621.任务调度器.md">
     <use height="18" href="#flask" width="18"/>
    </a>
   </g>
  </g>
  <!-- 199&#45;&gt;621 -->
  <g class="edge" id="edge10">
   <title>
    199-&gt;621
   </title>
   <path d="M255.5,-287.7C255.5,-279.98 255.5,-270.71 255.5,-262.11" fill="none" stroke="lightgrey"/>
   <polygon fill="lightgrey" points="259,-262.1 255.5,-252.1 252,-262.1 259,-262.1" stroke="lightgrey"/>
  </g>
  <!-- 1673 -->
  <g class="node" id="node12">
   <title>
    1673
   </title>
   <g id="a_node12">
    <a target="_parent" xlink:href="https://leetcode-cn.com/problems/find-the-most-competitive-subsequence" xlink:title="1673. 找出最具竞争力的子序列">
     <polygon fill="none" points="346.5,-180 164.5,-180 164.5,-144 346.5,-144 346.5,-180" stroke="orange"/>
     <text font-family="Microsoft YaHei" font-size="12.00" text-anchor="middle" x="255.5" y="-158.9">
      1673. 找出最具竞争力的子序列
     </text>
    </a>
   </g>
   <g transform="translate(338.5, -186.0) scale(0.3)">
    <circle cx="24" cy="24" fill="#4caf50" r="21"/>
    <polygon fill="#ccff90" points="34.6,14.6 21,28.2 15.4,22.6 12.6,25.4 21,33.8 37.4,17.4"/>
   </g>
  </g>
  <!-- 621&#45;&gt;1673 -->
  <g class="edge" id="edge11">
   <title>
    621-&gt;1673
   </title>
   <path d="M255.5,-215.7C255.5,-207.98 255.5,-198.71 255.5,-190.11" fill="none" stroke="lightgrey"/>
   <polygon fill="lightgrey" points="259,-190.1 255.5,-180.1 252,-190.1 259,-190.1" stroke="lightgrey"/>
  </g>
  <!-- 862 -->
  <g class="node" id="node13">
   <title>
    862
   </title>
   <g id="a_node13">
    <a target="_parent" xlink:href="https://leetcode-cn.com/problems/shortest-subarray-with-sum-at-least-k" xlink:title="862. 和至少为 K 的最短子数组">
     <polygon fill="none" points="345,-108 166,-108 166,-72 345,-72 345,-108" stroke="red"/>
     <text font-family="Microsoft YaHei" font-size="12.00" text-anchor="middle" x="255.5" y="-86.9">
      862. 和至少为 K 的最短子数组
     </text>
    </a>
   </g>
  </g>
  <!-- 1673&#45;&gt;862 -->
  <g class="edge" id="edge12">
   <title>
    1673-&gt;862
   </title>
   <path d="M255.5,-143.7C255.5,-135.98 255.5,-126.71 255.5,-118.11" fill="none" stroke="lightgrey"/>
   <polygon fill="lightgrey" points="259,-118.1 255.5,-108.1 252,-118.1 259,-118.1" stroke="lightgrey"/>
  </g>
  <!-- 363 -->
  <g class="node" id="node14">
   <title>
    363
   </title>
   <g id="a_node14">
    <a target="_parent" xlink:href="https://leetcode-cn.com/problems/max-sum-of-rectangle-no-larger-than-k" xlink:title="363. 矩形区域不超过 K 的最大数值和">
     <polygon fill="none" points="363,-36 148,-36 148,0 363,0 363,-36" stroke="red"/>
     <text font-family="Microsoft YaHei" font-size="12.00" text-anchor="middle" x="255.5" y="-14.9">
      363. 矩形区域不超过 K 的最大数值和
     </text>
    </a>
   </g>
  </g>
  <!-- 862&#45;&gt;363 -->
  <g class="edge" id="edge13">
   <title>
    862-&gt;363
   </title>
   <path d="M255.5,-71.7C255.5,-63.98 255.5,-54.71 255.5,-46.11" fill="none" stroke="lightgrey"/>
   <polygon fill="lightgrey" points="259,-46.1 255.5,-36.1 252,-46.1 259,-46.1" stroke="lightgrey"/>
  </g>
  <g class="key">
   <defs>
    <filter height="1.2" id="solid" width="1.2" x="-0.1" y="-0.1">
     <feFlood flood-color="#ccff90" result="bg"/>
     <feMerge>
      <feMergeNode in="bg"/>
      <feMergeNode in="SourceGraphic"/>
     </feMerge>
    </filter>
   </defs>
   <text filter="url(#solid)" font-family="Microsoft YaHei" font-size="10.00" text-anchor="middle" x="88.5" y="-499.0">
    优先级队列
   </text>
  </g>
  <g class="key">
   <defs>
    <filter height="1.2" id="solid" width="1.2" x="-0.1" y="-0.1">
     <feFlood flood-color="#ccff90" result="bg"/>
     <feMerge>
      <feMergeNode in="bg"/>
      <feMergeNode in="SourceGraphic"/>
     </feMerge>
    </filter>
   </defs>
   <text filter="url(#solid)" font-family="Microsoft YaHei" font-size="10.00" text-anchor="middle" x="88.5" y="-427.0">
    优先级队列
   </text>
  </g>
  <g class="key">
   <defs>
    <filter height="1.2" id="solid" width="1.2" x="-0.1" y="-0.1">
     <feFlood flood-color="#ccff90" result="bg"/>
     <feMerge>
      <feMergeNode in="bg"/>
      <feMergeNode in="SourceGraphic"/>
     </feMerge>
    </filter>
   </defs>
   <text filter="url(#solid)" font-family="Microsoft YaHei" font-size="10.00" text-anchor="middle" x="83.5" y="-355.0">
    优先级队列
   </text>
  </g>
  <g class="key">
   <defs>
    <filter height="1.2" id="solid" width="1.2" x="-0.1" y="-0.1">
     <feFlood flood-color="#ccff90" result="bg"/>
     <feMerge>
      <feMergeNode in="bg"/>
      <feMergeNode in="SourceGraphic"/>
     </feMerge>
    </filter>
   </defs>
   <text filter="url(#solid)" font-family="Microsoft YaHei" font-size="10.00" text-anchor="middle" x="252.5" y="-427.0">
    基础题
   </text>
  </g>
  <g class="key">
   <defs>
    <filter height="1.2" id="solid" width="1.2" x="-0.1" y="-0.1">
     <feFlood flood-color="#ccff90" result="bg"/>
     <feMerge>
      <feMergeNode in="bg"/>
      <feMergeNode in="SourceGraphic"/>
     </feMerge>
    </filter>
   </defs>
   <text filter="url(#solid)" font-family="Microsoft YaHei" font-size="10.00" text-anchor="middle" x="255.5" y="-355.0">
    基础题
   </text>
  </g>
  <g class="key">
   <defs>
    <filter height="1.2" id="solid" width="1.2" x="-0.1" y="-0.1">
     <feFlood flood-color="#ccff90" result="bg"/>
     <feMerge>
      <feMergeNode in="bg"/>
      <feMergeNode in="SourceGraphic"/>
     </feMerge>
    </filter>
   </defs>
   <text filter="url(#solid)" font-family="Microsoft YaHei" font-size="10.00" text-anchor="middle" x="255.5" y="-283.0">
    树的层次遍历
   </text>
  </g>
  <g class="key">
   <defs>
    <filter height="1.2" id="solid" width="1.2" x="-0.1" y="-0.1">
     <feFlood flood-color="#ccff90" result="bg"/>
     <feMerge>
      <feMergeNode in="bg"/>
      <feMergeNode in="SourceGraphic"/>
     </feMerge>
    </filter>
   </defs>
   <text filter="url(#solid)" font-family="Microsoft YaHei" font-size="10.00" text-anchor="middle" x="255.5" y="-211.0">
    贪心难
   </text>
  </g>
 </g>
</svg>