<?xml version="1.0" encoding="utf-8"?>
<!DOCTYPE svg PUBLIC "-//W3C//DTD SVG 1.1//EN" "http://www.w3.org/Graphics/SVG/1.1/DTD/svg11.dtd">
<!-- Generated by graphviz version 2.46.1 (20210213.1702)
 -->
<!-- Title: stones Pages: 1 -->
<svg height="814pt" viewBox="0.00 0.00 733.5 814.0" width="734pt" xmlns="http://www.w3.org/2000/svg" xmlns:xlink="http://www.w3.org/1999/xlink">
 <g class="graph" id="graph0" transform="scale(1 1) rotate(0) translate(4 760)">
  <title>
   stones
  </title>
  <polygon fill="white" points="-4,4 -4,-760 679.5,-760 679.5,4 -4,4" stroke="transparent"/>
  <!-- Leetcode&#45;链表 -->
  <g class="node" id="node1">
   <title>
    Leetcode-链表
   </title>
   <g id="a_node1">
    <a target="_parent" xlink:href="https://leetcode-cn.com/tag/linked-list" xlink:title="Leetcode-链表(18)">
     <polygon fill="orangered" points="362,-756 223,-756 223,-720 362,-720 362,-756" stroke="lightgrey"/>
     <text fill="white" font-family="Microsoft YaHei" font-size="14.00" text-anchor="middle" x="292.5" y="-734.3">
      Leetcode-链表(18)
     </text>
    </a>
   </g>
  </g>
  <!-- 反转链表 -->
  <g class="node" id="node2">
   <title>
    反转链表
   </title>
   <polygon fill="lightslategray" points="171,-684 92,-684 92,-648 171,-648 171,-684" stroke="lightgrey"/>
   <text fill="white" font-family="Microsoft YaHei" font-size="12.00" text-anchor="middle" x="131.5" y="-662.9">
    反转链表(3)
   </text>
  </g>
  <!-- Leetcode&#45;链表&#45;&gt;反转链表 -->
  <g class="edge" id="edge1">
   <title>
    Leetcode-链表-&gt;反转链表
   </title>
   <path d="M253.11,-719.88C231.11,-710.31 203.49,-698.3 180.14,-688.15" fill="none" stroke="lightgrey"/>
   <polygon fill="lightgrey" points="181.32,-684.85 170.76,-684.07 178.53,-691.27 181.32,-684.85" stroke="lightgrey"/>
  </g>
  <!-- 构建新链表 -->
  <g class="node" id="node6">
   <title>
    构建新链表
   </title>
   <polygon fill="lightslategray" points="287,-684 196,-684 196,-648 287,-648 287,-684" stroke="lightgrey"/>
   <text fill="white" font-family="Microsoft YaHei" font-size="12.00" text-anchor="middle" x="241.5" y="-662.9">
    构建新链表(3)
   </text>
  </g>
  <!-- Leetcode&#45;链表&#45;&gt;构建新链表 -->
  <g class="edge" id="edge5">
   <title>
    Leetcode-链表-&gt;构建新链表
   </title>
   <path d="M279.89,-719.7C273.9,-711.47 266.62,-701.48 260.02,-692.42" fill="none" stroke="lightgrey"/>
   <polygon fill="lightgrey" points="262.68,-690.13 253.96,-684.1 257.02,-694.25 262.68,-690.13" stroke="lightgrey"/>
  </g>
  <!-- 遍历链表 -->
  <g class="node" id="node10">
   <title>
    遍历链表
   </title>
   <polygon fill="lightslategray" points="387,-684 308,-684 308,-648 387,-648 387,-684" stroke="lightgrey"/>
   <text fill="white" font-family="Microsoft YaHei" font-size="12.00" text-anchor="middle" x="347.5" y="-662.9">
    遍历链表(3)
   </text>
  </g>
  <!-- Leetcode&#45;链表&#45;&gt;遍历链表 -->
  <g class="edge" id="edge9">
   <title>
    Leetcode-链表-&gt;遍历链表
   </title>
   <path d="M306.1,-719.7C312.62,-711.39 320.57,-701.28 327.75,-692.14" fill="none" stroke="lightgrey"/>
   <polygon fill="lightgrey" points="330.63,-694.13 334.06,-684.1 325.13,-689.81 330.63,-694.13" stroke="lightgrey"/>
  </g>
  <!-- 删除链表 -->
  <g class="node" id="node14">
   <title>
    删除链表
   </title>
   <polygon fill="lightslategray" points="518,-684 439,-684 439,-648 518,-648 518,-684" stroke="lightgrey"/>
   <text fill="white" font-family="Microsoft YaHei" font-size="12.00" text-anchor="middle" x="478.5" y="-662.9">
    删除链表(9)
   </text>
  </g>
  <!-- Leetcode&#45;链表&#45;&gt;删除链表 -->
  <g class="edge" id="edge13">
   <title>
    Leetcode-链表-&gt;删除链表
   </title>
   <path d="M338,-719.88C365.61,-709.48 400.86,-696.22 429.14,-685.58" fill="none" stroke="lightgrey"/>
   <polygon fill="lightgrey" points="430.7,-688.73 438.83,-681.93 428.24,-682.18 430.7,-688.73" stroke="lightgrey"/>
  </g>
  <!-- 206 -->
  <g class="node" id="node3">
   <title>
    206
   </title>
   <g id="a_node3">
    <a target="_parent" xlink:href="https://leetcode-cn.com/problems/reverse-linked-list" xlink:title="206. 反转链表">
     <polygon fill="none" points="164.5,-612 72.5,-612 72.5,-576 164.5,-576 164.5,-612" stroke="greenyellow"/>
     <text font-family="Microsoft YaHei" font-size="12.00" text-anchor="middle" x="118.5" y="-590.9">
      206. 反转链表
     </text>
    </a>
   </g>
   <g transform="translate(156.5, -618.0) scale(0.3)">
    <circle cx="24" cy="24" fill="#4caf50" r="21"/>
    <polygon fill="#ccff90" points="34.6,14.6 21,28.2 15.4,22.6 12.6,25.4 21,33.8 37.4,17.4"/>
   </g>
  </g>
  <!-- 反转链表&#45;&gt;206 -->
  <g class="edge" id="edge2">
   <title>
    反转链表-&gt;206
   </title>
   <path d="M128.29,-647.7C126.85,-639.98 125.13,-630.71 123.54,-622.11" fill="none" stroke="lightgrey"/>
   <polygon fill="lightgrey" points="126.94,-621.3 121.68,-612.1 120.06,-622.58 126.94,-621.3" stroke="lightgrey"/>
  </g>
  <!-- 24 -->
  <g class="node" id="node4">
   <title>
    24
   </title>
   <g id="a_node4">
    <a target="_parent" xlink:href="https://leetcode-cn.com/problems/swap-nodes-in-pairs" xlink:title="24. 两两交换链表中的节点">
     <polygon fill="none" points="157,-540 0,-540 0,-504 157,-504 157,-540" stroke="orange"/>
     <text font-family="Microsoft YaHei" font-size="12.00" text-anchor="middle" x="78.5" y="-518.9">
      24. 两两交换链表中的节点
     </text>
    </a>
   </g>
   <g transform="translate(149.0, -546.0) scale(0.3)">
    <circle cx="24" cy="24" fill="#4caf50" r="21"/>
    <polygon fill="#ccff90" points="34.6,14.6 21,28.2 15.4,22.6 12.6,25.4 21,33.8 37.4,17.4"/>
   </g>
  </g>
  <!-- 206&#45;&gt;24 -->
  <g class="edge" id="edge3">
   <title>
    206-&gt;24
   </title>
   <path d="M108.61,-575.7C104.01,-567.64 98.44,-557.89 93.35,-548.98" fill="none" stroke="lightgrey"/>
   <polygon fill="lightgrey" points="96.27,-547.05 88.27,-540.1 90.2,-550.52 96.27,-547.05" stroke="lightgrey"/>
  </g>
  <!-- 92 -->
  <g class="node" id="node5">
   <title>
    92
   </title>
   <g id="a_node5">
    <a target="_parent" xlink:href="https://leetcode-cn.com/problems/reverse-linked-list-ii" xlink:title="92. 反转链表 II">
     <polygon fill="none" points="126.5,-468 30.5,-468 30.5,-432 126.5,-432 126.5,-468" stroke="orange"/>
     <text font-family="Microsoft YaHei" font-size="12.00" text-anchor="middle" x="78.5" y="-446.9">
      92. 反转链表 II
     </text>
    </a>
   </g>
   <g transform="translate(118.5, -474.0) scale(0.3)">
    <circle cx="24" cy="24" fill="#4caf50" r="21"/>
    <polygon fill="#ccff90" points="34.6,14.6 21,28.2 15.4,22.6 12.6,25.4 21,33.8 37.4,17.4"/>
   </g>
   <g transform="translate(117.5, -441.0)">
    <symbol id="flask" viewBox="0 0 448 512">
     <path d="M437.2 403.5L320 215V64h8c13.3 0 24-10.7 24-24V24c0-13.3-10.7-24-24-24H120c-13.3 0-24 10.7-24 24v16c0 13.3 10.7 24 24 24h8v151L10.8 403.5C-18.5 450.6 15.3 512 70.9 512h306.2c55.7 0 89.4-61.5 60.1-108.5zM137.9 320l48.2-77.6c3.7-5.2 5.8-11.6 5.8-18.4V64h64v160c0 6.9 2.2 13.2 5.8 18.4l48.2 77.6h-172z" fill="#1389fd"/>
    </symbol>
    <a href="https://github.com/acm-clan/algorithm-stone/blob/main/user/leetcode/92.反转链表 II.md">
     <use height="18" href="#flask" width="18"/>
    </a>
   </g>
  </g>
  <!-- 24&#45;&gt;92 -->
  <g class="edge" id="edge4">
   <title>
    24-&gt;92
   </title>
   <path d="M78.5,-503.7C78.5,-495.98 78.5,-486.71 78.5,-478.11" fill="none" stroke="lightgrey"/>
   <polygon fill="lightgrey" points="82,-478.1 78.5,-468.1 75,-478.1 82,-478.1" stroke="lightgrey"/>
  </g>
  <!-- 2 -->
  <g class="node" id="node7">
   <title>
    2
   </title>
   <g id="a_node7">
    <a target="_parent" xlink:href="https://leetcode-cn.com/problems/add-two-numbers" xlink:title="2. 两数相加">
     <polygon fill="none" points="270.5,-612 192.5,-612 192.5,-576 270.5,-576 270.5,-612" stroke="orange"/>
     <text font-family="Microsoft YaHei" font-size="12.00" text-anchor="middle" x="231.5" y="-590.9">
      2. 两数相加
     </text>
    </a>
   </g>
  </g>
  <!-- 构建新链表&#45;&gt;2 -->
  <g class="edge" id="edge6">
   <title>
    构建新链表-&gt;2
   </title>
   <path d="M239.03,-647.7C237.93,-639.98 236.6,-630.71 235.37,-622.11" fill="none" stroke="lightgrey"/>
   <polygon fill="lightgrey" points="238.82,-621.51 233.94,-612.1 231.89,-622.5 238.82,-621.51" stroke="lightgrey"/>
  </g>
  <!-- 445 -->
  <g class="node" id="node8">
   <title>
    445
   </title>
   <g id="a_node8">
    <a target="_parent" xlink:href="https://leetcode-cn.com/problems/add-two-numbers-ii" xlink:title="445. 两数相加 II">
     <polygon fill="none" points="278,-540 175,-540 175,-504 278,-504 278,-540" stroke="orange"/>
     <text font-family="Microsoft YaHei" font-size="12.00" text-anchor="middle" x="226.5" y="-518.9">
      445. 两数相加 II
     </text>
    </a>
   </g>
   <g transform="translate(270.0, -546.0) scale(0.3)">
    <circle cx="24" cy="24" fill="#4caf50" r="21"/>
    <polygon fill="#ccff90" points="34.6,14.6 21,28.2 15.4,22.6 12.6,25.4 21,33.8 37.4,17.4"/>
   </g>
  </g>
  <!-- 2&#45;&gt;445 -->
  <g class="edge" id="edge7">
   <title>
    2-&gt;445
   </title>
   <path d="M230.26,-575.7C229.71,-567.98 229.05,-558.71 228.44,-550.11" fill="none" stroke="lightgrey"/>
   <polygon fill="lightgrey" points="231.93,-549.83 227.72,-540.1 224.94,-550.33 231.93,-549.83" stroke="lightgrey"/>
  </g>
  <!-- 1669 -->
  <g class="node" id="node9">
   <title>
    1669
   </title>
   <g id="a_node9">
    <a target="_parent" xlink:href="https://leetcode-cn.com/problems/merge-in-between-linked-lists" xlink:title="1669. 合并两个链表">
     <polygon fill="none" points="287.5,-468 165.5,-468 165.5,-432 287.5,-432 287.5,-468" stroke="orange"/>
     <text font-family="Microsoft YaHei" font-size="12.00" text-anchor="middle" x="226.5" y="-446.9">
      1669. 合并两个链表
     </text>
    </a>
   </g>
   <g transform="translate(279.5, -474.0) scale(0.3)">
    <circle cx="24" cy="24" fill="#4caf50" r="21"/>
    <polygon fill="#ccff90" points="34.6,14.6 21,28.2 15.4,22.6 12.6,25.4 21,33.8 37.4,17.4"/>
   </g>
  </g>
  <!-- 445&#45;&gt;1669 -->
  <g class="edge" id="edge8">
   <title>
    445-&gt;1669
   </title>
   <path d="M226.5,-503.7C226.5,-495.98 226.5,-486.71 226.5,-478.11" fill="none" stroke="lightgrey"/>
   <polygon fill="lightgrey" points="230,-478.1 226.5,-468.1 223,-478.1 230,-478.1" stroke="lightgrey"/>
  </g>
  <!-- 1290 -->
  <g class="node" id="node11">
   <title>
    1290
   </title>
   <g id="a_node11">
    <a target="_parent" xlink:href="https://leetcode-cn.com/problems/convert-binary-number-in-a-linked-list-to-integer" xlink:title="1290. 二进制链表转整数">
     <polygon fill="none" points="449.5,-612 303.5,-612 303.5,-576 449.5,-576 449.5,-612" stroke="greenyellow"/>
     <text font-family="Microsoft YaHei" font-size="12.00" text-anchor="middle" x="376.5" y="-590.9">
      1290. 二进制链表转整数
     </text>
    </a>
   </g>
   <g transform="translate(441.5, -618.0) scale(0.3)">
    <circle cx="24" cy="24" fill="#4caf50" r="21"/>
    <polygon fill="#ccff90" points="34.6,14.6 21,28.2 15.4,22.6 12.6,25.4 21,33.8 37.4,17.4"/>
   </g>
  </g>
  <!-- 遍历链表&#45;&gt;1290 -->
  <g class="edge" id="edge10">
   <title>
    遍历链表-&gt;1290
   </title>
   <path d="M354.67,-647.7C357.93,-639.81 361.87,-630.3 365.5,-621.55" fill="none" stroke="lightgrey"/>
   <polygon fill="lightgrey" points="368.82,-622.68 369.41,-612.1 362.35,-620 368.82,-622.68" stroke="lightgrey"/>
  </g>
  <!-- 1019 -->
  <g class="node" id="node12">
   <title>
    1019
   </title>
   <g id="a_node12">
    <a target="_parent" xlink:href="https://leetcode-cn.com/problems/next-greater-node-in-linked-list" xlink:title="1019. 链表中的下一个更大节点">
     <polygon fill="none" points="478.5,-540 296.5,-540 296.5,-504 478.5,-504 478.5,-540" stroke="orange"/>
     <text font-family="Microsoft YaHei" font-size="12.00" text-anchor="middle" x="387.5" y="-518.9">
      1019. 链表中的下一个更大节点
     </text>
    </a>
   </g>
   <g transform="translate(470.5, -546.0) scale(0.3)">
    <circle cx="24" cy="24" fill="#4caf50" r="21"/>
    <polygon fill="#ccff90" points="34.6,14.6 21,28.2 15.4,22.6 12.6,25.4 21,33.8 37.4,17.4"/>
   </g>
  </g>
  <!-- 1290&#45;&gt;1019 -->
  <g class="edge" id="edge11">
   <title>
    1290-&gt;1019
   </title>
   <path d="M379.22,-575.7C380.43,-567.98 381.89,-558.71 383.24,-550.11" fill="none" stroke="lightgrey"/>
   <polygon fill="lightgrey" points="386.72,-550.53 384.81,-540.1 379.8,-549.44 386.72,-550.53" stroke="lightgrey"/>
  </g>
  <!-- 138 -->
  <g class="node" id="node13">
   <title>
    138
   </title>
   <g id="a_node13">
    <a target="_parent" xlink:href="https://leetcode-cn.com/problems/copy-list-with-random-pointer" xlink:title="138. 复制带随机指针的链表">
     <polygon fill="none" points="469.5,-468 305.5,-468 305.5,-432 469.5,-432 469.5,-468" stroke="orange"/>
     <text font-family="Microsoft YaHei" font-size="12.00" text-anchor="middle" x="387.5" y="-446.9">
      138. 复制带随机指针的链表
     </text>
    </a>
   </g>
  </g>
  <!-- 1019&#45;&gt;138 -->
  <g class="edge" id="edge12">
   <title>
    1019-&gt;138
   </title>
   <path d="M387.5,-503.7C387.5,-495.98 387.5,-486.71 387.5,-478.11" fill="none" stroke="lightgrey"/>
   <polygon fill="lightgrey" points="391,-478.1 387.5,-468.1 384,-478.1 391,-478.1" stroke="lightgrey"/>
  </g>
  <!-- 237 -->
  <g class="node" id="node15">
   <title>
    237
   </title>
   <g id="a_node15">
    <a target="_parent" xlink:href="https://leetcode-cn.com/problems/delete-node-in-a-linked-list" xlink:title="237. 删除链表中的节点">
     <polygon fill="none" points="618.5,-612 478.5,-612 478.5,-576 618.5,-576 618.5,-612" stroke="greenyellow"/>
     <text font-family="Microsoft YaHei" font-size="12.00" text-anchor="middle" x="548.5" y="-590.9">
      237. 删除链表中的节点
     </text>
    </a>
   </g>
  </g>
  <!-- 删除链表&#45;&gt;237 -->
  <g class="edge" id="edge14">
   <title>
    删除链表-&gt;237
   </title>
   <path d="M495.8,-647.7C504.36,-639.14 514.84,-628.66 524.2,-619.3" fill="none" stroke="lightgrey"/>
   <polygon fill="lightgrey" points="526.8,-621.65 531.4,-612.1 521.85,-616.7 526.8,-621.65" stroke="lightgrey"/>
  </g>
  <!-- 203 -->
  <g class="node" id="node16">
   <title>
    203
   </title>
   <g id="a_node16">
    <a target="_parent" xlink:href="https://leetcode-cn.com/problems/remove-linked-list-elements" xlink:title="203. 移除链表元素">
     <polygon fill="none" points="612.5,-540 496.5,-540 496.5,-504 612.5,-504 612.5,-540" stroke="greenyellow"/>
     <text font-family="Microsoft YaHei" font-size="12.00" text-anchor="middle" x="554.5" y="-518.9">
      203. 移除链表元素
     </text>
    </a>
   </g>
   <g transform="translate(604.5, -546.0) scale(0.3)">
    <circle cx="24" cy="24" fill="#4caf50" r="21"/>
    <polygon fill="#ccff90" points="34.6,14.6 21,28.2 15.4,22.6 12.6,25.4 21,33.8 37.4,17.4"/>
   </g>
  </g>
  <!-- 237&#45;&gt;203 -->
  <g class="edge" id="edge15">
   <title>
    237-&gt;203
   </title>
   <path d="M549.98,-575.7C550.64,-567.98 551.44,-558.71 552.18,-550.11" fill="none" stroke="lightgrey"/>
   <polygon fill="lightgrey" points="555.67,-550.37 553.03,-540.1 548.69,-549.77 555.67,-550.37" stroke="lightgrey"/>
  </g>
  <!-- 876 -->
  <g class="node" id="node17">
   <title>
    876
   </title>
   <g id="a_node17">
    <a target="_parent" xlink:href="https://leetcode-cn.com/problems/middle-of-the-linked-list" xlink:title="876. 链表的中间结点">
     <polygon fill="none" points="618.5,-468 490.5,-468 490.5,-432 618.5,-432 618.5,-468" stroke="greenyellow"/>
     <text font-family="Microsoft YaHei" font-size="12.00" text-anchor="middle" x="554.5" y="-446.9">
      876. 链表的中间结点
     </text>
    </a>
   </g>
   <g transform="translate(610.5, -474.0) scale(0.3)">
    <circle cx="24" cy="24" fill="#4caf50" r="21"/>
    <polygon fill="#ccff90" points="34.6,14.6 21,28.2 15.4,22.6 12.6,25.4 21,33.8 37.4,17.4"/>
   </g>
  </g>
  <!-- 203&#45;&gt;876 -->
  <g class="edge" id="edge16">
   <title>
    203-&gt;876
   </title>
   <path d="M554.5,-503.7C554.5,-495.98 554.5,-486.71 554.5,-478.11" fill="none" stroke="lightgrey"/>
   <polygon fill="lightgrey" points="558,-478.1 554.5,-468.1 551,-478.1 558,-478.1" stroke="lightgrey"/>
  </g>
  <!-- 61 -->
  <g class="node" id="node18">
   <title>
    61
   </title>
   <g id="a_node18">
    <a target="_parent" xlink:href="https://leetcode-cn.com/problems/rotate-list" xlink:title="61. 旋转链表">
     <polygon fill="none" points="597,-396 512,-396 512,-360 597,-360 597,-396" stroke="orange"/>
     <text font-family="Microsoft YaHei" font-size="12.00" text-anchor="middle" x="554.5" y="-374.9">
      61. 旋转链表
     </text>
    </a>
   </g>
   <g transform="translate(589.0, -402.0) scale(0.3)">
    <circle cx="24" cy="24" fill="#4caf50" r="21"/>
    <polygon fill="#ccff90" points="34.6,14.6 21,28.2 15.4,22.6 12.6,25.4 21,33.8 37.4,17.4"/>
   </g>
  </g>
  <!-- 876&#45;&gt;61 -->
  <g class="edge" id="edge17">
   <title>
    876-&gt;61
   </title>
   <path d="M554.5,-431.7C554.5,-423.98 554.5,-414.71 554.5,-406.11" fill="none" stroke="lightgrey"/>
   <polygon fill="lightgrey" points="558,-406.1 554.5,-396.1 551,-406.1 558,-406.1" stroke="lightgrey"/>
  </g>
  <!-- 19 -->
  <g class="node" id="node19">
   <title>
    19
   </title>
   <g id="a_node19">
    <a target="_parent" xlink:href="https://leetcode-cn.com/problems/remove-nth-node-from-end-of-list" xlink:title="19. 删除链表的倒数第 N 个结点">
     <polygon fill="none" points="647.5,-324 461.5,-324 461.5,-288 647.5,-288 647.5,-324" stroke="orange"/>
     <text font-family="Microsoft YaHei" font-size="12.00" text-anchor="middle" x="554.5" y="-302.9">
      19. 删除链表的倒数第 N 个结点
     </text>
    </a>
   </g>
   <g transform="translate(639.5, -330.0) scale(0.3)">
    <circle cx="24" cy="24" fill="#4caf50" r="21"/>
    <polygon fill="#ccff90" points="34.6,14.6 21,28.2 15.4,22.6 12.6,25.4 21,33.8 37.4,17.4"/>
   </g>
  </g>
  <!-- 61&#45;&gt;19 -->
  <g class="edge" id="edge18">
   <title>
    61-&gt;19
   </title>
   <path d="M554.5,-359.7C554.5,-351.98 554.5,-342.71 554.5,-334.11" fill="none" stroke="lightgrey"/>
   <polygon fill="lightgrey" points="558,-334.1 554.5,-324.1 551,-334.1 558,-334.1" stroke="lightgrey"/>
  </g>
  <!-- 1721 -->
  <g class="node" id="node20">
   <title>
    1721
   </title>
   <g id="a_node20">
    <a target="_parent" xlink:href="https://leetcode-cn.com/problems/swapping-nodes-in-a-linked-list" xlink:title="1721. 交换链表中的节点">
     <polygon fill="none" points="627.5,-252 481.5,-252 481.5,-216 627.5,-216 627.5,-252" stroke="orange"/>
     <text font-family="Microsoft YaHei" font-size="12.00" text-anchor="middle" x="554.5" y="-230.9">
      1721. 交换链表中的节点
     </text>
    </a>
   </g>
   <g transform="translate(619.5, -258.0) scale(0.3)">
    <circle cx="24" cy="24" fill="#4caf50" r="21"/>
    <polygon fill="#ccff90" points="34.6,14.6 21,28.2 15.4,22.6 12.6,25.4 21,33.8 37.4,17.4"/>
   </g>
  </g>
  <!-- 19&#45;&gt;1721 -->
  <g class="edge" id="edge19">
   <title>
    19-&gt;1721
   </title>
   <path d="M554.5,-287.7C554.5,-279.98 554.5,-270.71 554.5,-262.11" fill="none" stroke="lightgrey"/>
   <polygon fill="lightgrey" points="558,-262.1 554.5,-252.1 551,-262.1 558,-262.1" stroke="lightgrey"/>
  </g>
  <!-- 83 -->
  <g class="node" id="node21">
   <title>
    83
   </title>
   <g id="a_node21">
    <a target="_parent" xlink:href="https://leetcode-cn.com/problems/remove-duplicates-from-sorted-list" xlink:title="83. 删除排序链表中的重复元素">
     <polygon fill="none" points="645,-180 464,-180 464,-144 645,-144 645,-180" stroke="greenyellow"/>
     <text font-family="Microsoft YaHei" font-size="12.00" text-anchor="middle" x="554.5" y="-158.9">
      83. 删除排序链表中的重复元素
     </text>
    </a>
   </g>
   <g transform="translate(637.0, -186.0) scale(0.3)">
    <circle cx="24" cy="24" fill="#4caf50" r="21"/>
    <polygon fill="#ccff90" points="34.6,14.6 21,28.2 15.4,22.6 12.6,25.4 21,33.8 37.4,17.4"/>
   </g>
  </g>
  <!-- 1721&#45;&gt;83 -->
  <g class="edge" id="edge20">
   <title>
    1721-&gt;83
   </title>
   <path d="M554.5,-215.7C554.5,-207.98 554.5,-198.71 554.5,-190.11" fill="none" stroke="lightgrey"/>
   <polygon fill="lightgrey" points="558,-190.1 554.5,-180.1 551,-190.1 558,-190.1" stroke="lightgrey"/>
  </g>
  <!-- 82 -->
  <g class="node" id="node22">
   <title>
    82
   </title>
   <g id="a_node22">
    <a target="_parent" xlink:href="https://leetcode-cn.com/problems/remove-duplicates-from-sorted-list-ii" xlink:title="82. 删除排序链表中的重复元素 II">
     <polygon fill="none" points="650.5,-108 458.5,-108 458.5,-72 650.5,-72 650.5,-108" stroke="orange"/>
     <text font-family="Microsoft YaHei" font-size="12.00" text-anchor="middle" x="554.5" y="-86.9">
      82. 删除排序链表中的重复元素 II
     </text>
    </a>
   </g>
   <g transform="translate(642.5, -114.0) scale(0.3)">
    <circle cx="24" cy="24" fill="#4caf50" r="21"/>
    <polygon fill="#ccff90" points="34.6,14.6 21,28.2 15.4,22.6 12.6,25.4 21,33.8 37.4,17.4"/>
   </g>
  </g>
  <!-- 83&#45;&gt;82 -->
  <g class="edge" id="edge21">
   <title>
    83-&gt;82
   </title>
   <path d="M554.5,-143.7C554.5,-135.98 554.5,-126.71 554.5,-118.11" fill="none" stroke="lightgrey"/>
   <polygon fill="lightgrey" points="558,-118.1 554.5,-108.1 551,-118.1 558,-118.1" stroke="lightgrey"/>
  </g>
  <!-- 1171 -->
  <g class="node" id="node23">
   <title>
    1171
   </title>
   <g id="a_node23">
    <a target="_parent" xlink:href="https://leetcode-cn.com/problems/remove-zero-sum-consecutive-nodes-from-linked-list" xlink:title="1171. 从链表中删去总和值为零的连续节点">
     <polygon fill="none" points="675.5,-36 433.5,-36 433.5,0 675.5,0 675.5,-36" stroke="orange"/>
     <text font-family="Microsoft YaHei" font-size="12.00" text-anchor="middle" x="554.5" y="-14.9">
      1171. 从链表中删去总和值为零的连续节点
     </text>
    </a>
   </g>
  </g>
  <!-- 82&#45;&gt;1171 -->
  <g class="edge" id="edge22">
   <title>
    82-&gt;1171
   </title>
   <path d="M554.5,-71.7C554.5,-63.98 554.5,-54.71 554.5,-46.11" fill="none" stroke="lightgrey"/>
   <polygon fill="lightgrey" points="558,-46.1 554.5,-36.1 551,-46.1 558,-46.1" stroke="lightgrey"/>
  </g>
  <g class="key">
   <defs>
    <filter height="1.2" id="solid" width="1.2" x="-0.1" y="-0.1">
     <feFlood flood-color="#ccff90" result="bg"/>
     <feMerge>
      <feMergeNode in="bg"/>
      <feMergeNode in="SourceGraphic"/>
     </feMerge>
    </filter>
   </defs>
   <text filter="url(#solid)" font-family="Microsoft YaHei" font-size="10.00" text-anchor="middle" x="376.5" y="-571.0">
    位运算
   </text>
  </g>
  <g class="key">
   <defs>
    <filter height="1.2" id="solid" width="1.2" x="-0.1" y="-0.1">
     <feFlood flood-color="#ccff90" result="bg"/>
     <feMerge>
      <feMergeNode in="bg"/>
      <feMergeNode in="SourceGraphic"/>
     </feMerge>
    </filter>
   </defs>
   <text filter="url(#solid)" font-family="Microsoft YaHei" font-size="10.00" text-anchor="middle" x="548.5" y="-571.0">
    简单删除
   </text>
  </g>
  <g class="key">
   <defs>
    <filter height="1.2" id="solid" width="1.2" x="-0.1" y="-0.1">
     <feFlood flood-color="#ccff90" result="bg"/>
     <feMerge>
      <feMergeNode in="bg"/>
      <feMergeNode in="SourceGraphic"/>
     </feMerge>
    </filter>
   </defs>
   <text filter="url(#solid)" font-family="Microsoft YaHei" font-size="10.00" text-anchor="middle" x="554.5" y="-499.0">
    删除多个
   </text>
  </g>
  <g class="key">
   <defs>
    <filter height="1.2" id="solid" width="1.2" x="-0.1" y="-0.1">
     <feFlood flood-color="#ccff90" result="bg"/>
     <feMerge>
      <feMergeNode in="bg"/>
      <feMergeNode in="SourceGraphic"/>
     </feMerge>
    </filter>
   </defs>
   <text filter="url(#solid)" font-family="Microsoft YaHei" font-size="10.00" text-anchor="middle" x="554.5" y="-283.0">
    快慢指针
   </text>
  </g>
  <g class="key">
   <defs>
    <filter height="1.2" id="solid" width="1.2" x="-0.1" y="-0.1">
     <feFlood flood-color="#ccff90" result="bg"/>
     <feMerge>
      <feMergeNode in="bg"/>
      <feMergeNode in="SourceGraphic"/>
     </feMerge>
    </filter>
   </defs>
   <text filter="url(#solid)" font-family="Microsoft YaHei" font-size="10.00" text-anchor="middle" x="554.5" y="-211.0">
    快慢指针
   </text>
  </g>
 </g>
</svg>