<?xml version="1.0" encoding="utf-8"?>
<!DOCTYPE svg PUBLIC "-//W3C//DTD SVG 1.1//EN" "http://www.w3.org/Graphics/SVG/1.1/DTD/svg11.dtd">
<!-- Generated by graphviz version 2.46.1 (20210213.1702)
 -->
<!-- Title: stones Pages: 1 -->
<svg height="742pt" viewBox="0.00 0.00 273.0 742.0" width="273pt" xmlns="http://www.w3.org/2000/svg" xmlns:xlink="http://www.w3.org/1999/xlink">
 <g class="graph" id="graph0" transform="scale(1 1) rotate(0) translate(4 688)">
  <title>
   stones
  </title>
  <polygon fill="white" points="-4,4 -4,-688 219,-688 219,4 -4,4" stroke="transparent"/>
  <!-- Leetcode&#45;栈堆队列 -->
  <g class="node" id="node1">
   <title>
    Leetcode-栈堆队列
   </title>
   <g id="a_node1">
    <a target="_parent" xlink:href="https://leetcode-cn.com/tag/" xlink:title="Leetcode-栈堆队列(8)">
     <polygon fill="orangered" points="187.5,-684 27.5,-684 27.5,-648 187.5,-648 187.5,-684" stroke="lightgrey"/>
     <text fill="white" font-family="Microsoft YaHei" font-size="14.00" text-anchor="middle" x="107.5" y="-662.3">
      Leetcode-栈堆队列(8)
     </text>
    </a>
   </g>
  </g>
  <!-- 队列 -->
  <g class="node" id="node2">
   <title>
    队列
   </title>
   <polygon fill="lightslategray" points="135,-612 80,-612 80,-576 135,-576 135,-612" stroke="lightgrey"/>
   <text fill="white" font-family="Microsoft YaHei" font-size="12.00" text-anchor="middle" x="107.5" y="-590.9">
    队列(8)
   </text>
  </g>
  <!-- Leetcode&#45;栈堆队列&#45;&gt;队列 -->
  <g class="edge" id="edge1">
   <title>
    Leetcode-栈堆队列-&gt;队列
   </title>
   <path d="M107.5,-647.7C107.5,-639.98 107.5,-630.71 107.5,-622.11" fill="none" stroke="lightgrey"/>
   <polygon fill="lightgrey" points="111,-622.1 107.5,-612.1 104,-622.1 111,-622.1" stroke="lightgrey"/>
  </g>
  <!-- 933 -->
  <g class="node" id="node3">
   <title>
    933
   </title>
   <g id="a_node3">
    <a target="_parent" xlink:href="https://leetcode-cn.com/problems/number-of-recent-calls" xlink:title="933. 最近的请求次数">
     <polygon fill="none" points="171.5,-540 43.5,-540 43.5,-504 171.5,-504 171.5,-540" stroke="greenyellow"/>
     <text font-family="Microsoft YaHei" font-size="12.00" text-anchor="middle" x="107.5" y="-518.9">
      933. 最近的请求次数
     </text>
    </a>
   </g>
   <g transform="translate(163.5, -546.0) scale(0.3)">
    <circle cx="24" cy="24" fill="#4caf50" r="21"/>
    <polygon fill="#ccff90" points="34.6,14.6 21,28.2 15.4,22.6 12.6,25.4 21,33.8 37.4,17.4"/>
   </g>
  </g>
  <!-- 队列&#45;&gt;933 -->
  <g class="edge" id="edge2">
   <title>
    队列-&gt;933
   </title>
   <path d="M107.5,-575.7C107.5,-567.98 107.5,-558.71 107.5,-550.11" fill="none" stroke="lightgrey"/>
   <polygon fill="lightgrey" points="111,-550.1 107.5,-540.1 104,-550.1 111,-550.1" stroke="lightgrey"/>
  </g>
  <!-- 199 -->
  <g class="node" id="node4">
   <title>
    199
   </title>
   <g id="a_node4">
    <a target="_parent" xlink:href="https://leetcode-cn.com/problems/binary-tree-right-side-view" xlink:title="199. 二叉树的右视图">
     <polygon fill="none" points="171.5,-468 43.5,-468 43.5,-432 171.5,-432 171.5,-468" stroke="orange"/>
     <text font-family="Microsoft YaHei" font-size="12.00" text-anchor="middle" x="107.5" y="-446.9">
      199. 二叉树的右视图
     </text>
    </a>
   </g>
   <g transform="translate(163.5, -474.0) scale(0.3)">
    <circle cx="24" cy="24" fill="#4caf50" r="21"/>
    <polygon fill="#ccff90" points="34.6,14.6 21,28.2 15.4,22.6 12.6,25.4 21,33.8 37.4,17.4"/>
   </g>
  </g>
  <!-- 933&#45;&gt;199 -->
  <g class="edge" id="edge3">
   <title>
    933-&gt;199
   </title>
   <path d="M107.5,-503.7C107.5,-495.98 107.5,-486.71 107.5,-478.11" fill="none" stroke="lightgrey"/>
   <polygon fill="lightgrey" points="111,-478.1 107.5,-468.1 104,-478.1 111,-478.1" stroke="lightgrey"/>
  </g>
  <!-- 621 -->
  <g class="node" id="node5">
   <title>
    621
   </title>
   <g id="a_node5">
    <a target="_parent" xlink:href="https://leetcode-cn.com/problems/task-scheduler" xlink:title="621. 任务调度器">
     <polygon fill="none" points="159.5,-396 55.5,-396 55.5,-360 159.5,-360 159.5,-396" stroke="orange"/>
     <text font-family="Microsoft YaHei" font-size="12.00" text-anchor="middle" x="107.5" y="-374.9">
      621. 任务调度器
     </text>
    </a>
   </g>
   <g transform="translate(151.5, -402.0) scale(0.3)">
    <circle cx="24" cy="24" fill="#4caf50" r="21"/>
    <polygon fill="#ccff90" points="34.6,14.6 21,28.2 15.4,22.6 12.6,25.4 21,33.8 37.4,17.4"/>
   </g>
   <g transform="translate(150.5, -369.0)">
    <symbol id="flask" viewBox="0 0 448 512">
     <path d="M437.2 403.5L320 215V64h8c13.3 0 24-10.7 24-24V24c0-13.3-10.7-24-24-24H120c-13.3 0-24 10.7-24 24v16c0 13.3 10.7 24 24 24h8v151L10.8 403.5C-18.5 450.6 15.3 512 70.9 512h306.2c55.7 0 89.4-61.5 60.1-108.5zM137.9 320l48.2-77.6c3.7-5.2 5.8-11.6 5.8-18.4V64h64v160c0 6.9 2.2 13.2 5.8 18.4l48.2 77.6h-172z" fill="#1389fd"/>
    </symbol>
    <a href="https://github.com/acm-clan/algorithm-stone/blob/main/user/leetcode/621.任务调度器.md">
     <use height="18" href="#flask" width="18"/>
    </a>
   </g>
  </g>
  <!-- 199&#45;&gt;621 -->
  <g class="edge" id="edge4">
   <title>
    199-&gt;621
   </title>
   <path d="M107.5,-431.7C107.5,-423.98 107.5,-414.71 107.5,-406.11" fill="none" stroke="lightgrey"/>
   <polygon fill="lightgrey" points="111,-406.1 107.5,-396.1 104,-406.1 111,-406.1" stroke="lightgrey"/>
  </g>
  <!-- 622 -->
  <g class="node" id="node6">
   <title>
    622
   </title>
   <g id="a_node6">
    <a target="_parent" xlink:href="https://leetcode-cn.com/problems/design-circular-queue" xlink:title="622. 设计循环队列">
     <polygon fill="none" points="165.5,-324 49.5,-324 49.5,-288 165.5,-288 165.5,-324" stroke="orange"/>
     <text font-family="Microsoft YaHei" font-size="12.00" text-anchor="middle" x="107.5" y="-302.9">
      622. 设计循环队列
     </text>
    </a>
   </g>
  </g>
  <!-- 621&#45;&gt;622 -->
  <g class="edge" id="edge5">
   <title>
    621-&gt;622
   </title>
   <path d="M107.5,-359.7C107.5,-351.98 107.5,-342.71 107.5,-334.11" fill="none" stroke="lightgrey"/>
   <polygon fill="lightgrey" points="111,-334.1 107.5,-324.1 104,-334.1 111,-334.1" stroke="lightgrey"/>
  </g>
  <!-- 641 -->
  <g class="node" id="node7">
   <title>
    641
   </title>
   <g id="a_node7">
    <a target="_parent" xlink:href="https://leetcode-cn.com/problems/design-circular-deque" xlink:title="641. 设计循环双端队列">
     <polygon fill="none" points="177.5,-252 37.5,-252 37.5,-216 177.5,-216 177.5,-252" stroke="orange"/>
     <text font-family="Microsoft YaHei" font-size="12.00" text-anchor="middle" x="107.5" y="-230.9">
      641. 设计循环双端队列
     </text>
    </a>
   </g>
  </g>
  <!-- 622&#45;&gt;641 -->
  <g class="edge" id="edge6">
   <title>
    622-&gt;641
   </title>
   <path d="M107.5,-287.7C107.5,-279.98 107.5,-270.71 107.5,-262.11" fill="none" stroke="lightgrey"/>
   <polygon fill="lightgrey" points="111,-262.1 107.5,-252.1 104,-262.1 111,-262.1" stroke="lightgrey"/>
  </g>
  <!-- 862 -->
  <g class="node" id="node8">
   <title>
    862
   </title>
   <g id="a_node8">
    <a target="_parent" xlink:href="https://leetcode-cn.com/problems/shortest-subarray-with-sum-at-least-k" xlink:title="862. 和至少为 K 的最短子数组">
     <polygon fill="none" points="197,-180 18,-180 18,-144 197,-144 197,-180" stroke="red"/>
     <text font-family="Microsoft YaHei" font-size="12.00" text-anchor="middle" x="107.5" y="-158.9">
      862. 和至少为 K 的最短子数组
     </text>
    </a>
   </g>
  </g>
  <!-- 641&#45;&gt;862 -->
  <g class="edge" id="edge7">
   <title>
    641-&gt;862
   </title>
   <path d="M107.5,-215.7C107.5,-207.98 107.5,-198.71 107.5,-190.11" fill="none" stroke="lightgrey"/>
   <polygon fill="lightgrey" points="111,-190.1 107.5,-180.1 104,-190.1 111,-190.1" stroke="lightgrey"/>
  </g>
  <!-- 1673 -->
  <g class="node" id="node9">
   <title>
    1673
   </title>
   <g id="a_node9">
    <a target="_parent" xlink:href="https://leetcode-cn.com/problems/find-the-most-competitive-subsequence" xlink:title="1673. 找出最具竞争力的子序列">
     <polygon fill="none" points="198.5,-108 16.5,-108 16.5,-72 198.5,-72 198.5,-108" stroke="orange"/>
     <text font-family="Microsoft YaHei" font-size="12.00" text-anchor="middle" x="107.5" y="-86.9">
      1673. 找出最具竞争力的子序列
     </text>
    </a>
   </g>
  </g>
  <!-- 862&#45;&gt;1673 -->
  <g class="edge" id="edge8">
   <title>
    862-&gt;1673
   </title>
   <path d="M107.5,-143.7C107.5,-135.98 107.5,-126.71 107.5,-118.11" fill="none" stroke="lightgrey"/>
   <polygon fill="lightgrey" points="111,-118.1 107.5,-108.1 104,-118.1 111,-118.1" stroke="lightgrey"/>
  </g>
  <!-- 363 -->
  <g class="node" id="node10">
   <title>
    363
   </title>
   <g id="a_node10">
    <a target="_parent" xlink:href="https://leetcode-cn.com/problems/max-sum-of-rectangle-no-larger-than-k" xlink:title="363. 矩形区域不超过 K 的最大数值和">
     <polygon fill="none" points="215,-36 0,-36 0,0 215,0 215,-36" stroke="red"/>
     <text font-family="Microsoft YaHei" font-size="12.00" text-anchor="middle" x="107.5" y="-14.9">
      363. 矩形区域不超过 K 的最大数值和
     </text>
    </a>
   </g>
  </g>
  <!-- 1673&#45;&gt;363 -->
  <g class="edge" id="edge9">
   <title>
    1673-&gt;363
   </title>
   <path d="M107.5,-71.7C107.5,-63.98 107.5,-54.71 107.5,-46.11" fill="none" stroke="lightgrey"/>
   <polygon fill="lightgrey" points="111,-46.1 107.5,-36.1 104,-46.1 111,-46.1" stroke="lightgrey"/>
  </g>
  <g class="key">
   <defs>
    <filter height="1.2" id="solid" width="1.2" x="-0.1" y="-0.1">
     <feFlood flood-color="#ccff90" result="bg"/>
     <feMerge>
      <feMergeNode in="bg"/>
      <feMergeNode in="SourceGraphic"/>
     </feMerge>
    </filter>
   </defs>
   <text filter="url(#solid)" font-family="Microsoft YaHei" font-size="10.00" text-anchor="middle" x="107.5" y="-427.0">
    树的层次遍历
   </text>
  </g>
  <g class="key">
   <defs>
    <filter height="1.2" id="solid" width="1.2" x="-0.1" y="-0.1">
     <feFlood flood-color="#ccff90" result="bg"/>
     <feMerge>
      <feMergeNode in="bg"/>
      <feMergeNode in="SourceGraphic"/>
     </feMerge>
    </filter>
   </defs>
   <text filter="url(#solid)" font-family="Microsoft YaHei" font-size="10.00" text-anchor="middle" x="107.5" y="-355.0">
    贪心难
   </text>
  </g>
 </g>
</svg>